<?xml version="1.0" encoding="UTF-8"?><svg xmlns="http://www.w3.org/2000/svg" width="988.4187499999998" height="586">
   <defs>
      <style type="text/css">
                        text {
                            font-family: 'Arial';
                            fill: black;
                        }
                        text.at {
                            font-family: 'Arial';
                            fill: rgb(242, 152, 0);
                        }
                        line {
                            stroke: black;
                        }
                        line.type-structure {
                            stroke: black;
                        }
                        line.type-structure-optional {
                            stroke: black;
                            stroke-dasharray: 4, 4;
                        }
                        rect.attribute-upper {
                            stroke: black;
                            fill: rgb(255, 239, 211);
                        }
                        rect.element-upper {
                            stroke: black;
                            fill: rgb(215, 227, 249);
                        }
                        rect.element-lower {
                            stroke: black;
                            fill: rgb(236, 242, 252);
                        }
                        a text {
                            fill: black;
                        } 
                    </style>
   </defs>
   <rect width="978.4187499999998" height="576" stroke-dasharray="3,3" rx="1" ry="1" style="stroke: grey;fill: white;"/>
   <text font-size="14" x="3.6" y="18" font-weight="bold">element DE.GetEvidenceResponse.0412 (anonymous type)</text>
   <text font-size="12" x="3.6" y="34.8"> (extension of xn-bk:Response)</text>
   <g transform="translate(10,46)">
      <g transform="translate(55,0)">
         <rect width="133.546875" height="18" class="attribute-upper"/>
         <rect width="133.546875" height="18" y="18" class="element-lower"/>
         <text font-size="12" x="3.6" y="12" font-weight="bold" class="at">@ </text>
         <text font-size="12" x="20.85" y="12" font-weight="bold">getevidenceid</text>
         <line x1="0" y1="18" x2="133.546875" y2="18"/>
         <text font-size="12" fill="grey" x="3.6" y="30">type</text>
         <line x1="31.753125" y1="18" x2="31.753125" y2="36"/>
         <text font-size="12" x="35.353125" y="30">xn-bdt:UUID.URN</text>
         <text font-size="11" fill="black" x="-2" y="16" text-anchor="end">1..1</text>
         <g transform="translate(133.546875,0)"/>
      </g>
      <text font-size="11" fill="black" x="53" y="16" text-anchor="end"/>
      <g transform="translate(55,48)">
         <rect width="187.04999999999998" height="18" class="element-upper"/>
         <rect width="187.04999999999998" height="18" y="18" class="element-lower"/>
         <text font-size="12" x="3.6" y="12" font-weight="bold">GetEvidenceResponseIdentifier</text>
         <line x1="0" y1="18" x2="187.04999999999998" y2="18"/>
         <text font-size="12" fill="grey" x="3.6" y="30">type</text>
         <line x1="31.753125" y1="18" x2="31.753125" y2="36"/>
         <text font-size="12" x="35.353125" y="30">xn-bdt:UUID</text>
         <g transform="translate(187.04999999999998,0)"/>
      </g>
      <line x1="33" y1="66" x2="55" y2="66" class="type-structure-required"/>
      <text font-size="11" fill="black" x="53" y="64" text-anchor="end"/>
      <g transform="translate(55,96)">
         <rect width="117.1125" height="18" class="element-upper"/>
         <rect width="117.1125" height="18" y="18" class="element-lower"/>
         <text font-size="12" x="3.6" y="12" font-weight="bold">EvidenceResponse</text>
         <line x1="0" y1="18" x2="117.1125" y2="18"/>
         <text font-size="12" fill="grey" x="3.6" y="30">type</text>
         <line x1="31.753125" y1="18" x2="31.753125" y2="36"/>
         <g transform="translate(117.1125,0)">
            <g transform="translate(55,0)">
               <rect width="127.03125" height="18" class="element-upper"/>
               <rect width="127.03125" height="18" y="18" class="element-lower"/>
               <text font-size="12" x="3.6" y="12" font-weight="bold">EvidenceProvider</text>
               <line x1="0" y1="18" x2="127.03125" y2="18"/>
               <text font-size="12" fill="grey" x="3.6" y="30">type</text>
               <line x1="31.753125" y1="18" x2="31.753125" y2="36"/>
               <text font-size="12" x="35.353125" y="30">xn-bk:AgentType</text>
               <g transform="translate(127.03125,0)"/>
            </g>
            <line x1="33" y1="18" x2="55" y2="18" class="type-structure-required"/>
            <text font-size="11" fill="black" x="53" y="16" text-anchor="end">2..*</text>
            <line x1="33" y1="18" x2="33" y2="18" class="type-structure-required"/>
            <g transform="translate(55,48)">
               <rect width="153.11249999999998" height="18" class="element-upper"/>
               <rect width="153.11249999999998" height="18" y="18" class="element-lower"/>
               <text font-size="12" x="3.6" y="12" font-weight="bold">EvidenceOrTimeAvailable</text>
               <line x1="0" y1="18" x2="153.11249999999998" y2="18"/>
               <text font-size="12" fill="grey" x="3.6" y="30">type</text>
               <line x1="31.753125" y1="18" x2="31.753125" y2="36"/>
               <g transform="translate(153.11249999999998,0)">
                  <g transform="translate(55,0)">
                     <rect width="93.76875" height="18" class="element-upper"/>
                     <rect width="93.76875" height="18" y="18" class="element-lower"/>
                     <text font-size="12" x="3.6" y="12" font-weight="bold">RegistryObject</text>
                     <line x1="0" y1="18" x2="93.76875" y2="18"/>
                     <text font-size="12" fill="grey" x="3.6" y="30">type</text>
                     <line x1="31.753125" y1="18" x2="31.753125" y2="36"/>
                     <g transform="translate(93.76875,0)">
                        <g transform="translate(55,0)">
                           <rect width="133.546875" height="18" class="element-upper"/>
                           <rect width="133.546875" height="18" y="18" class="element-lower"/>
                           <text font-size="12" x="3.6" y="12" font-weight="bold">id</text>
                           <line x1="0" y1="18" x2="133.546875" y2="18"/>
                           <text font-size="12" fill="grey" x="3.6" y="30">type</text>
                           <line x1="31.753125" y1="18" x2="31.753125" y2="36"/>
                           <text font-size="12" x="35.353125" y="30">xn-bdt:UUID.URN</text>
                           <g transform="translate(133.546875,0)"/>
                        </g>
                        <line x1="33" y1="18" x2="55" y2="18" class="type-structure-required"/>
                        <text font-size="11" fill="black" x="53" y="16" text-anchor="end"/>
                        <line x1="33" y1="18" x2="33" y2="18" class="type-structure-required"/>
                        <g transform="translate(55,48)">
                           <rect width="94.815625" height="18" class="element-upper"/>
                           <rect width="94.815625" height="18" y="18" class="element-lower"/>
                           <text font-size="12" x="3.6" y="12" font-weight="bold">RepositoryItem</text>
                           <line x1="0" y1="18" x2="94.815625" y2="18"/>
                           <text font-size="12" fill="grey" x="3.6" y="30">type</text>
                           <line x1="31.753125" y1="18" x2="31.753125" y2="36"/>
                           <g transform="translate(94.815625,0)">
                              <g transform="translate(55,0)">
                                 <rect width="130.75" height="18" class="element-upper"/>
                                 <rect width="130.75" height="18" y="18" class="element-lower"/>
                                 <text font-size="12" x="3.6" y="12" font-weight="bold">RepositoryItem</text>
                                 <line x1="0" y1="18" x2="130.75" y2="18"/>
                                 <text font-size="12" fill="grey" x="3.6" y="30">type</text>
                                 <line x1="31.753125" y1="18" x2="31.753125" y2="36"/>
                                 <text font-size="12" x="35.353125" y="30">xs:base64Binary</text>
                                 <g transform="translate(130.75,0)"/>
                              </g>
                              <line x1="33" y1="18" x2="55" y2="18" class="type-structure-required"/>
                              <text font-size="11" fill="black" x="53" y="16" text-anchor="end"/>
                              <line x1="33" y1="18" x2="33" y2="18" class="type-structure-required"/>
                              <g transform="translate(55,48)">
                                 <rect width="177.609375" height="18" class="element-upper"/>
                                 <rect width="177.609375" height="18" y="18" class="element-lower"/>
                                 <text font-size="12" x="3.6" y="12" font-weight="bold">RepositoryItemRef</text>
                                 <line x1="0" y1="18" x2="177.609375" y2="18"/>
                                 <text font-size="12" fill="grey" x="3.6" y="30">type</text>
                                 <line x1="31.753125" y1="18" x2="31.753125" y2="36"/>
                                 <text font-size="12" x="35.353125" y="30">xn-bdt:RepositoryItemRef</text>
                                 <g transform="translate(177.609375,0)"/>
                              </g>
                              <line x1="33" y1="66" x2="55" y2="66" class="type-structure-required"/>
                              <text font-size="11" fill="black" x="53" y="64" text-anchor="end"/>
                              <line x1="33" y1="18" x2="33" y2="66" class="type-structure-required"/>
                              <circle cx="15" cy="18" r="10" stroke="black" fill="rgb(251, 251, 251)"/>
                              <line x1="0" y1="18" x2="5" y2="18" class="type-structure-required"/>
                              <line x1="25" y1="18" x2="33" y2="18" class="type-structure-required"/>
                              <circle cx="10" cy="18" r="1.2" stroke="black" fill="black"/>
                              <circle cx="18" cy="14" r="1.2" stroke="black" fill="black"/>
                              <circle cx="18" cy="18" r="1.2" stroke="black" fill="black"/>
                              <circle cx="18" cy="22" r="1.2" stroke="black" fill="black"/>
                              <line x1="10" y1="18" x2="18" y2="14"/>
                           </g>
                        </g>
                        <line x1="33" y1="66" x2="55" y2="66" class="type-structure-required"/>
                        <text font-size="11" fill="black" x="53" y="64" text-anchor="end"/>
                        <line x1="33" y1="18" x2="33" y2="66" class="type-structure-required"/>
                        <g transform="translate(55,144)">
                           <rect width="196.03125" height="18" class="element-upper"/>
                           <rect width="196.03125" height="18" y="18" class="element-lower"/>
                           <text font-size="12" x="3.6" y="12" font-weight="bold">EvidenceMetadata</text>
                           <line x1="0" y1="18" x2="196.03125" y2="18"/>
                           <text font-size="12" fill="grey" x="3.6" y="30">type</text>
                           <line x1="31.753125" y1="18" x2="31.753125" y2="36"/>
                           <text font-size="12" x="35.353125" y="30">xn-bk:EvidenceMetadataType</text>
                           <g transform="translate(196.03125,0)"/>
                        </g>
                        <line x1="33" y1="162" x2="55" y2="162" class="type-structure-required"/>
                        <text font-size="11" fill="black" x="53" y="160" text-anchor="end"/>
                        <line x1="33" y1="66" x2="33" y2="162" class="type-structure-required"/>
                        <g transform="translate(55,192)">
                           <rect width="133.71875" height="18" class="element-upper"/>
                           <rect width="133.71875" height="18" y="18" class="element-lower"/>
                           <text font-size="12" x="3.6" y="12" font-weight="bold">Signature</text>
                           <line x1="0" y1="18" x2="133.71875" y2="18"/>
                           <text font-size="12" fill="grey" x="3.6" y="30">type</text>
                           <line x1="31.753125" y1="18" x2="31.753125" y2="36"/>
                           <text font-size="12" x="35.353125" y="30">ds:SignatureType</text>
                           <g transform="translate(133.71875,0)"/>
                        </g>
                        <line x1="33" y1="210" x2="55" y2="210" class="type-structure-optional"/>
                        <text font-size="11" fill="black" x="53" y="208" text-anchor="end">0..1</text>
                        <line x1="33" y1="162" x2="33" y2="210" class="type-structure-required"/>
                        <g transform="translate(55,240)">
                           <rect width="136.39374999999998" height="18" class="element-upper"/>
                           <rect width="136.39374999999998" height="18" y="18" class="element-lower"/>
                           <text font-size="12" x="3.6" y="12" font-weight="bold">LegalOrNaturalPerson</text>
                           <line x1="0" y1="18" x2="136.39374999999998" y2="18"/>
                           <text font-size="12" fill="grey" x="3.6" y="30">type</text>
                           <line x1="31.753125" y1="18" x2="31.753125" y2="36"/>
                           <g transform="translate(136.39374999999998,0)">
                              <g transform="translate(55,0)">
                                 <rect width="167.03125" height="18" class="element-upper"/>
                                 <rect width="167.03125" height="18" y="18" class="element-lower"/>
                                 <text font-size="12" x="3.6" y="12" font-weight="bold">LegalPerson</text>
                                 <line x1="0" y1="18" x2="167.03125" y2="18"/>
                                 <text font-size="12" fill="grey" x="3.6" y="30">type</text>
                                 <line x1="31.753125" y1="18" x2="31.753125" y2="36"/>
                                 <text font-size="12" x="35.353125" y="30">xn-bk:LegalPersonType</text>
                                 <g transform="translate(167.03125,0)"/>
                              </g>
                              <line x1="33" y1="18" x2="55" y2="18" class="type-structure-required"/>
                              <text font-size="11" fill="black" x="53" y="16" text-anchor="end"/>
                              <line x1="33" y1="18" x2="33" y2="18" class="type-structure-required"/>
                              <g transform="translate(55,48)">
                                 <rect width="136.03125" height="18" class="element-upper"/>
                                 <rect width="136.03125" height="18" y="18" class="element-lower"/>
                                 <text font-size="12" x="3.6" y="12" font-weight="bold">NaturalPerson</text>
                                 <line x1="0" y1="18" x2="136.03125" y2="18"/>
                                 <text font-size="12" fill="grey" x="3.6" y="30">type</text>
                                 <line x1="31.753125" y1="18" x2="31.753125" y2="36"/>
                                 <text font-size="12" x="35.353125" y="30">xn-bk:PersonType</text>
                                 <g transform="translate(136.03125,0)"/>
                              </g>
                              <line x1="33" y1="66" x2="55" y2="66" class="type-structure-required"/>
                              <text font-size="11" fill="black" x="53" y="64" text-anchor="end"/>
                              <line x1="33" y1="18" x2="33" y2="66" class="type-structure-required"/>
                              <circle cx="15" cy="18" r="10" stroke="black" fill="rgb(251, 251, 251)"/>
                              <line x1="0" y1="18" x2="5" y2="18" class="type-structure-required"/>
                              <line x1="25" y1="18" x2="33" y2="18" class="type-structure-required"/>
                              <circle cx="10" cy="18" r="1.2" stroke="black" fill="black"/>
                              <circle cx="18" cy="14" r="1.2" stroke="black" fill="black"/>
                              <circle cx="18" cy="18" r="1.2" stroke="black" fill="black"/>
                              <circle cx="18" cy="22" r="1.2" stroke="black" fill="black"/>
                              <line x1="10" y1="18" x2="18" y2="14"/>
                           </g>
                        </g>
                        <line x1="33" y1="258" x2="55" y2="258" class="type-structure-required"/>
                        <text font-size="11" fill="black" x="53" y="256" text-anchor="end"/>
                        <line x1="33" y1="210" x2="33" y2="258" class="type-structure-required"/>
                        <circle cx="15" cy="18" r="10" stroke="black" fill="rgb(251, 251, 251)"/>
                        <line x1="0" y1="18" x2="5" y2="18" class="type-structure-required"/>
                        <line x1="25" y1="18" x2="33" y2="18" class="type-structure-required"/>
                        <circle cx="10" cy="18" r="1.2" stroke="black" fill="black"/>
                        <circle cx="15" cy="18" r="1.2" stroke="black" fill="black"/>
                        <circle cx="20" cy="18" r="1.2" stroke="black" fill="black"/>
                        <line x1="7" y1="18" x2="23" y2="18"/>
                     </g>
                  </g>
                  <line x1="33" y1="18" x2="55" y2="18" class="type-structure-required"/>
                  <text font-size="11" fill="black" x="53" y="16" text-anchor="end">1..*</text>
                  <line x1="33" y1="18" x2="33" y2="18" class="type-structure-required"/>
                  <g transform="translate(55,336)">
                     <rect width="171.11249999999998" height="18" class="element-upper"/>
                     <rect width="171.11249999999998" height="18" y="18" class="element-lower"/>
                     <text font-size="12" x="3.6" y="12" font-weight="bold">ResponseAvailableDateTime</text>
                     <line x1="0" y1="18" x2="171.11249999999998" y2="18"/>
                     <text font-size="12" fill="grey" x="3.6" y="30">type</text>
                     <line x1="31.753125" y1="18" x2="31.753125" y2="36"/>
                     <text font-size="12" x="35.353125" y="30">xs:dateTime</text>
                     <g transform="translate(171.11249999999998,0)"/>
                  </g>
                  <line x1="33" y1="354" x2="55" y2="354" class="type-structure-required"/>
                  <text font-size="11" fill="black" x="53" y="352" text-anchor="end"/>
                  <line x1="33" y1="18" x2="33" y2="354" class="type-structure-required"/>
                  <circle cx="15" cy="18" r="10" stroke="black" fill="rgb(251, 251, 251)"/>
                  <line x1="0" y1="18" x2="5" y2="18" class="type-structure-required"/>
                  <line x1="25" y1="18" x2="33" y2="18" class="type-structure-required"/>
                  <circle cx="10" cy="18" r="1.2" stroke="black" fill="black"/>
                  <circle cx="18" cy="14" r="1.2" stroke="black" fill="black"/>
                  <circle cx="18" cy="18" r="1.2" stroke="black" fill="black"/>
                  <circle cx="18" cy="22" r="1.2" stroke="black" fill="black"/>
                  <line x1="10" y1="18" x2="18" y2="14"/>
               </g>
            </g>
            <line x1="33" y1="66" x2="55" y2="66" class="type-structure-required"/>
            <text font-size="11" fill="black" x="53" y="64" text-anchor="end"/>
            <line x1="33" y1="18" x2="33" y2="66" class="type-structure-required"/>
            <circle cx="15" cy="18" r="10" stroke="black" fill="rgb(251, 251, 251)"/>
            <line x1="0" y1="18" x2="5" y2="18" class="type-structure-required"/>
            <line x1="25" y1="18" x2="33" y2="18" class="type-structure-required"/>
            <circle cx="10" cy="18" r="1.2" stroke="black" fill="black"/>
            <circle cx="15" cy="18" r="1.2" stroke="black" fill="black"/>
            <circle cx="20" cy="18" r="1.2" stroke="black" fill="black"/>
            <line x1="7" y1="18" x2="23" y2="18"/>
         </g>
      </g>
      <line x1="33" y1="114" x2="55" y2="114" class="type-structure-required"/>
      <text font-size="11" fill="black" x="53" y="112" text-anchor="end">1..*</text>
      <line x1="33" y1="66" x2="33" y2="114" class="type-structure-required"/>
      <circle cx="15" cy="66" r="10" stroke="black" fill="rgb(251, 251, 251)"/>
      <line x1="0" y1="66" x2="5" y2="66" class="type-structure-required"/>
      <line x1="25" y1="66" x2="33" y2="66" class="type-structure-required"/>
      <circle cx="10" cy="66" r="1.2" stroke="black" fill="black"/>
      <circle cx="15" cy="66" r="1.2" stroke="black" fill="black"/>
      <circle cx="20" cy="66" r="1.2" stroke="black" fill="black"/>
      <line x1="7" y1="66" x2="23" y2="66"/>
   </g>
</svg>