<?xml version="1.0" encoding="UTF-8"?><svg xmlns="http://www.w3.org/2000/svg" xmlns:xlink="http://www.w3.org/1999/xlink" fill-opacity="1" color-rendering="auto" color-interpolation="auto" stroke="black" text-rendering="auto" stroke-linecap="square" width="6.260416666666667in" stroke-miterlimit="10" stroke-opacity="1" shape-rendering="auto" fill="black" stroke-dasharray="none" font-weight="normal" stroke-width="1" viewBox="0 0 601 260" height="2.7083333333333335in" font-family="'Arial'" font-style="normal" stroke-linejoin="miter" font-size="12" stroke-dashoffset="0" image-rendering="auto" preserveAspectRatio="xMidYMid meet" zoomAndPan="magnify" version="1.0" contentScriptType="text/ecmascript" contentStyleType="text/css"><!--Generated by the Batik Graphics2D SVG Generator
 This is MagicDraw diagram.--><defs id="genericDefs"/><g><defs id="defs1"><linearGradient x1="440" gradientUnits="userSpaceOnUse" x2="660" y1="90" y2="186" id="linearGradient1" spreadMethod="pad" xlink:type="simple" xlink:show="other" xlink:actuate="onLoad"><stop stop-opacity="1" stop-color="rgb(255,255,153)" offset="0%"/><stop stop-opacity="1" stop-color="rgb(255,255,218)" offset="100%"/></linearGradient><linearGradient x1="460" gradientUnits="userSpaceOnUse" x2="650" y1="280" y2="330" id="linearGradient2" spreadMethod="pad" xlink:type="simple" xlink:show="other" xlink:actuate="onLoad"><stop stop-opacity="1" stop-color="rgb(255,255,153)" offset="0%"/><stop stop-opacity="1" stop-color="rgb(255,255,218)" offset="100%"/></linearGradient><linearGradient x1="789" gradientUnits="userSpaceOnUse" x2="822" y1="170" y2="203" id="linearGradient3" spreadMethod="pad" xlink:type="simple" xlink:show="other" xlink:actuate="onLoad"><stop stop-opacity="1" stop-color="rgb(255,204,153)" offset="0%"/><stop stop-opacity="1" stop-color="rgb(255,255,218)" offset="100%"/></linearGradient><linearGradient x1="317" gradientUnits="userSpaceOnUse" x2="350" y1="170" y2="203" id="linearGradient4" spreadMethod="pad" xlink:type="simple" xlink:show="other" xlink:actuate="onLoad"><stop stop-opacity="1" stop-color="rgb(255,204,153)" offset="0%"/><stop stop-opacity="1" stop-color="rgb(255,255,218)" offset="100%"/></linearGradient><clipPath clipPathUnits="userSpaceOnUse" id="clipPath1"><path d="M0 -5 L881 -5 L881 340 L0 340 L0 -5 Z"/></clipPath><clipPath clipPathUnits="userSpaceOnUse" id="clipPath2"><path d="M280 75 L1161 75 L1161 420 L280 420 L280 75 Z"/></clipPath></defs><g fill="white" stroke="white"><rect x="0" width="881" height="345" y="-5" clip-path="url(#clipPath1)" stroke="none"/><ellipse transform="translate(-280,-80)" clip-path="url(#clipPath2)" fill="rgb(178,178,178)" text-rendering="geometricPrecision" rx="110" cx="553" ry="48" cy="141" stroke="none"/><ellipse transform="translate(-280,-80)" clip-path="url(#clipPath2)" fill="url(#linearGradient1)" text-rendering="geometricPrecision" rx="110" cx="550" ry="48" cy="138" stroke="none"/></g><g fill="rgb(66,66,66)" text-rendering="geometricPrecision" transform="translate(-280,-80)" stroke-linejoin="round" stroke-linecap="butt" stroke="rgb(66,66,66)"><ellipse rx="110" fill="none" ry="48" clip-path="url(#clipPath2)" cx="550" cy="138"/><path fill="black" d="M493.8906 119.457 L493.8906 110.8633 L499.7812 110.8633 L499.7812 112.3164 L495.625 112.3164 L495.625 114.3477 L499.2031 114.3477 L499.2031 115.8008 L495.625 115.8008 L495.625 119.457 L493.8906 119.457 ZM499.4844 116.2539 Q499.4844 115.4414 499.8906 114.668 Q500.2969 113.8945 501.0312 113.4961 Q501.7656 113.0977 502.6875 113.0977 Q504.0938 113.0977 505 114.0117 Q505.9062 114.9258 505.9062 116.332 Q505.9062 117.7383 504.9922 118.668 Q504.0781 119.5977 502.7031 119.5977 Q501.8438 119.5977 501.0703 119.207 Q500.2969 118.8164 499.8906 118.0742 Q499.4844 117.332 499.4844 116.2539 ZM501.1719 116.3477 Q501.1719 117.2695 501.6094 117.7617 Q502.0469 118.2539 502.6875 118.2539 Q503.3438 118.2539 503.7734 117.7617 Q504.2031 117.2695 504.2031 116.332 Q504.2031 115.4258 503.7734 114.9336 Q503.3438 114.4414 502.6875 114.4414 Q502.0469 114.4414 501.6094 114.9336 Q501.1719 115.4258 501.1719 116.3477 ZM508.4375 119.457 L506.7969 119.457 L506.7969 113.2383 L508.3281 113.2383 L508.3281 114.1133 Q508.7188 113.4883 509.0312 113.293 Q509.3438 113.0977 509.7344 113.0977 Q510.2969 113.0977 510.8281 113.4102 L510.3125 114.832 Q509.8906 114.5664 509.5469 114.5664 Q509.1875 114.5664 508.9531 114.7617 Q508.7188 114.957 508.5781 115.4492 Q508.4375 115.9414 508.4375 117.5352 L508.4375 119.457 ZM514.7188 113.2383 L514.7188 114.5508 L513.5938 114.5508 L513.5938 117.0508 Q513.5938 117.8164 513.625 117.9414 Q513.6562 118.0664 513.7734 118.1523 Q513.8906 118.2383 514.0469 118.2383 Q514.2812 118.2383 514.7031 118.0664 L514.8438 119.3477 Q514.2812 119.5977 513.5469 119.5977 Q513.1094 119.5977 512.75 119.4492 Q512.3906 119.3008 512.2266 119.0586 Q512.0625 118.8164 511.9844 118.4258 Q511.9375 118.1289 511.9375 117.2539 L511.9375 114.5508 L511.1875 114.5508 L511.1875 113.2383 L511.9375 113.2383 L511.9375 112.0039 L513.5938 111.0352 L513.5938 113.2383 L514.7188 113.2383 ZM515.2812 117.6758 L516.9375 117.4258 Q517.0469 117.9102 517.3672 118.1602 Q517.6875 118.4102 518.2656 118.4102 Q518.9062 118.4102 519.2188 118.1758 Q519.4375 118.0039 519.4375 117.7383 Q519.4375 117.5508 519.3281 117.4258 Q519.2031 117.3008 518.7812 117.207 Q516.7812 116.7695 516.25 116.4102 Q515.5156 115.8945 515.5156 115.0039 Q515.5156 114.1914 516.1484 113.6445 Q516.7812 113.0977 518.125 113.0977 Q519.4062 113.0977 520.0312 113.5117 Q520.6562 113.9258 520.8906 114.7383 L519.3281 115.0195 Q519.2344 114.6602 518.9531 114.4648 Q518.6719 114.2695 518.1562 114.2695 Q517.5156 114.2695 517.2344 114.457 Q517.0469 114.582 517.0469 114.7852 Q517.0469 114.9727 517.2031 115.0977 Q517.4219 115.2539 518.7422 115.5508 Q520.0625 115.8477 520.5781 116.2852 Q521.0938 116.7227 521.0938 117.5039 Q521.0938 118.3633 520.3828 118.9805 Q519.6719 119.5977 518.2656 119.5977 Q517 119.5977 516.2578 119.082 Q515.5156 118.5664 515.2812 117.6758 ZM528.2812 115.0664 L526.6719 115.3633 Q526.5781 114.8789 526.2891 114.6367 Q526 114.3945 525.5469 114.3945 Q524.9219 114.3945 524.5547 114.8164 Q524.1875 115.2383 524.1875 116.2383 Q524.1875 117.3477 524.5625 117.8008 Q524.9375 118.2539 525.5625 118.2539 Q526.0312 118.2539 526.3281 117.9883 Q526.625 117.7227 526.75 117.0664 L528.375 117.3477 Q528.125 118.457 527.4062 119.0273 Q526.6875 119.5977 525.4844 119.5977 Q524.125 119.5977 523.3125 118.7383 Q522.5 117.8789 522.5 116.3477 Q522.5 114.8164 523.3125 113.957 Q524.125 113.0977 525.5156 113.0977 Q526.6562 113.0977 527.3281 113.582 Q528 114.0664 528.2812 115.0664 ZM531.5 110.8633 L531.5 114.0195 Q532.2969 113.0977 533.4062 113.0977 Q533.9688 113.0977 534.4297 113.3086 Q534.8906 113.5195 535.125 113.8477 Q535.3594 114.1758 535.4375 114.5742 Q535.5156 114.9727 535.5156 115.8008 L535.5156 119.457 L533.875 119.457 L533.875 116.1758 Q533.875 115.1914 533.7812 114.9258 Q533.6875 114.6602 533.4531 114.5039 Q533.2188 114.3477 532.8594 114.3477 Q532.4531 114.3477 532.125 114.5508 Q531.7969 114.7539 531.6484 115.1523 Q531.5 115.5508 531.5 116.332 L531.5 119.457 L529.8594 119.457 L529.8594 110.8633 L531.5 110.8633 ZM538.4375 119.457 L536.7969 119.457 L536.7969 113.2383 L538.3281 113.2383 L538.3281 114.1133 Q538.7188 113.4883 539.0312 113.293 Q539.3438 113.0977 539.7344 113.0977 Q540.2969 113.0977 540.8281 113.4102 L540.3125 114.832 Q539.8906 114.5664 539.5469 114.5664 Q539.1875 114.5664 538.9531 114.7617 Q538.7188 114.957 538.5781 115.4492 Q538.4375 115.9414 538.4375 117.5352 L538.4375 119.457 ZM545.4688 117.4727 L547.1094 117.7539 Q546.7969 118.6602 546.1094 119.1289 Q545.4219 119.5977 544.4062 119.5977 Q542.7812 119.5977 542 118.5352 Q541.375 117.6914 541.375 116.3945 Q541.375 114.8477 542.1875 113.9727 Q543 113.0977 544.2344 113.0977 Q545.625 113.0977 546.4297 114.0117 Q547.2344 114.9258 547.1875 116.8164 L543.0625 116.8164 Q543.0938 117.5508 543.4688 117.957 Q543.8438 118.3633 544.4219 118.3633 Q544.7969 118.3633 545.0625 118.1523 Q545.3281 117.9414 545.4688 117.4727 ZM545.5625 115.8164 Q545.5469 115.0977 545.1953 114.7227 Q544.8438 114.3477 544.3281 114.3477 Q543.7969 114.3477 543.4375 114.7383 Q543.0938 115.1445 543.0938 115.8164 L545.5625 115.8164 ZM548.8594 112.3945 L548.8594 110.8633 L550.5156 110.8633 L550.5156 112.3945 L548.8594 112.3945 ZM548.8594 119.457 L548.8594 113.2383 L550.5156 113.2383 L550.5156 119.457 L548.8594 119.457 ZM551.7969 119.457 L551.7969 110.8633 L553.4375 110.8633 L553.4375 113.957 Q554.2031 113.0977 555.25 113.0977 Q556.375 113.0977 557.125 113.918 Q557.875 114.7383 557.875 116.2852 Q557.875 117.8789 557.1094 118.7383 Q556.3438 119.5977 555.2656 119.5977 Q554.7344 119.5977 554.2188 119.332 Q553.7031 119.0664 553.3281 118.5352 L553.3281 119.457 L551.7969 119.457 ZM553.4219 116.207 Q553.4219 117.1758 553.7344 117.6445 Q554.1562 118.3008 554.875 118.3008 Q555.4062 118.3008 555.7969 117.832 Q556.1875 117.3633 556.1875 116.3633 Q556.1875 115.3008 555.7969 114.8242 Q555.4062 114.3477 554.7969 114.3477 Q554.2188 114.3477 553.8203 114.8086 Q553.4219 115.2695 553.4219 116.207 ZM562.9531 119.457 L562.9531 118.5195 Q562.625 119.0195 562.0703 119.3086 Q561.5156 119.5977 560.8906 119.5977 Q560.2656 119.5977 559.7656 119.3242 Q559.2656 119.0508 559.0469 118.5508 Q558.8281 118.0508 558.8281 117.1758 L558.8281 113.2383 L560.4688 113.2383 L560.4688 116.0977 Q560.4688 117.4102 560.5625 117.707 Q560.6562 118.0039 560.8984 118.1758 Q561.1406 118.3477 561.5 118.3477 Q561.9219 118.3477 562.2578 118.1133 Q562.5938 117.8789 562.7188 117.5352 Q562.8438 117.1914 562.8438 115.8633 L562.8438 113.2383 L564.4844 113.2383 L564.4844 119.457 L562.9531 119.457 ZM571.5156 119.457 L569.875 119.457 L569.875 116.2852 Q569.875 115.2695 569.7734 114.9727 Q569.6719 114.6758 569.4297 114.5117 Q569.1875 114.3477 568.8594 114.3477 Q568.4219 114.3477 568.0859 114.582 Q567.75 114.8164 567.625 115.207 Q567.5 115.5977 567.5 116.6445 L567.5 119.457 L565.8438 119.457 L565.8438 113.2383 L567.375 113.2383 L567.375 114.1445 Q568.1875 113.0977 569.4375 113.0977 Q569.9688 113.0977 570.4219 113.293 Q570.875 113.4883 571.1094 113.793 Q571.3438 114.0977 571.4297 114.4805 Q571.5156 114.8633 571.5156 115.582 L571.5156 119.457 ZM572.7031 119.8633 L574.5938 120.0977 Q574.6406 120.4258 574.8125 120.5508 Q575.0469 120.7227 575.5469 120.7227 Q576.1875 120.7227 576.5156 120.5352 Q576.7344 120.3945 576.8438 120.1133 Q576.9219 119.9102 576.9219 119.3633 L576.9219 118.4414 Q576.1719 119.457 575.0469 119.457 Q573.7969 119.457 573.0625 118.3945 Q572.5 117.5508 572.5 116.3164 Q572.5 114.7383 573.25 113.918 Q574 113.0977 575.125 113.0977 Q576.2656 113.0977 577.0156 114.1133 L577.0156 113.2383 L578.5625 113.2383 L578.5625 118.8164 Q578.5625 119.9258 578.3828 120.4648 Q578.2031 121.0039 577.875 121.3164 Q577.5469 121.6289 577 121.8086 Q576.4531 121.9883 575.6094 121.9883 Q574.0312 121.9883 573.3672 121.4414 Q572.7031 120.8945 572.7031 120.0664 Q572.7031 119.9883 572.7031 119.8633 ZM574.1875 116.2227 Q574.1875 117.207 574.5703 117.668 Q574.9531 118.1289 575.5156 118.1289 Q576.1094 118.1289 576.5312 117.6523 Q576.9531 117.1758 576.9531 116.2539 Q576.9531 115.2852 576.5547 114.8164 Q576.1562 114.3477 575.5469 114.3477 Q574.9531 114.3477 574.5703 114.8086 Q574.1875 115.2695 574.1875 116.2227 ZM588.5625 119.457 L587.0469 119.457 L587.0469 118.5352 Q586.6562 119.082 586.1406 119.3398 Q585.625 119.5977 585.0938 119.5977 Q584.0156 119.5977 583.2578 118.7305 Q582.5 117.8633 582.5 116.3164 Q582.5 114.7383 583.2422 113.918 Q583.9844 113.0977 585.125 113.0977 Q586.1562 113.0977 586.9219 113.957 L586.9219 110.8633 L588.5625 110.8633 L588.5625 119.457 ZM584.1719 116.207 Q584.1719 117.207 584.4531 117.6445 Q584.8438 118.3008 585.5625 118.3008 Q586.125 118.3008 586.5234 117.8164 Q586.9219 117.332 586.9219 116.3633 Q586.9219 115.3008 586.5391 114.8242 Q586.1562 114.3477 585.5469 114.3477 Q584.9688 114.3477 584.5703 114.8164 Q584.1719 115.2852 584.1719 116.207 ZM593.4688 117.4727 L595.1094 117.7539 Q594.7969 118.6602 594.1094 119.1289 Q593.4219 119.5977 592.4062 119.5977 Q590.7812 119.5977 590 118.5352 Q589.375 117.6914 589.375 116.3945 Q589.375 114.8477 590.1875 113.9727 Q591 113.0977 592.2344 113.0977 Q593.625 113.0977 594.4297 114.0117 Q595.2344 114.9258 595.1875 116.8164 L591.0625 116.8164 Q591.0938 117.5508 591.4688 117.957 Q591.8438 118.3633 592.4219 118.3633 Q592.7969 118.3633 593.0625 118.1523 Q593.3281 117.9414 593.4688 117.4727 ZM593.5625 115.8164 Q593.5469 115.0977 593.1953 114.7227 Q592.8438 114.3477 592.3281 114.3477 Q591.7969 114.3477 591.4375 114.7383 Q591.0938 115.1445 591.0938 115.8164 L593.5625 115.8164 ZM596.2812 117.6758 L597.9375 117.4258 Q598.0469 117.9102 598.3672 118.1602 Q598.6875 118.4102 599.2656 118.4102 Q599.9062 118.4102 600.2188 118.1758 Q600.4375 118.0039 600.4375 117.7383 Q600.4375 117.5508 600.3281 117.4258 Q600.2031 117.3008 599.7812 117.207 Q597.7812 116.7695 597.25 116.4102 Q596.5156 115.8945 596.5156 115.0039 Q596.5156 114.1914 597.1484 113.6445 Q597.7812 113.0977 599.125 113.0977 Q600.4062 113.0977 601.0312 113.5117 Q601.6562 113.9258 601.8906 114.7383 L600.3281 115.0195 Q600.2344 114.6602 599.9531 114.4648 Q599.6719 114.2695 599.1562 114.2695 Q598.5156 114.2695 598.2344 114.457 Q598.0469 114.582 598.0469 114.7852 Q598.0469 114.9727 598.2031 115.0977 Q598.4219 115.2539 599.7422 115.5508 Q601.0625 115.8477 601.5781 116.2852 Q602.0938 116.7227 602.0938 117.5039 Q602.0938 118.3633 601.3828 118.9805 Q600.6719 119.5977 599.2656 119.5977 Q598 119.5977 597.2578 119.082 Q596.5156 118.5664 596.2812 117.6758 Z" clip-path="url(#clipPath2)" stroke="none"/><path fill="black" d="M481.875 131.3008 L481.875 129.8477 L485.6094 129.8477 L485.6094 133.2695 Q485.0625 133.8008 484.0312 134.1992 Q483 134.5977 481.9375 134.5977 Q480.5938 134.5977 479.5859 134.0352 Q478.5781 133.4727 478.0781 132.418 Q477.5781 131.3633 477.5781 130.1289 Q477.5781 128.7852 478.1406 127.7461 Q478.7031 126.707 479.7812 126.1445 Q480.6094 125.7227 481.8438 125.7227 Q483.4375 125.7227 484.3359 126.3945 Q485.2344 127.0664 485.5 128.2383 L483.7812 128.5664 Q483.5938 127.9414 483.0938 127.5742 Q482.5938 127.207 481.8438 127.207 Q480.7031 127.207 480.0312 127.9258 Q479.3594 128.6445 479.3594 130.0664 Q479.3594 131.5977 480.0391 132.3555 Q480.7188 133.1133 481.8281 133.1133 Q482.375 133.1133 482.9219 132.9023 Q483.4688 132.6914 483.8594 132.3945 L483.8594 131.3008 L481.875 131.3008 ZM489.4688 132.4727 L491.1094 132.7539 Q490.7969 133.6602 490.1094 134.1289 Q489.4219 134.5977 488.4062 134.5977 Q486.7812 134.5977 486 133.5352 Q485.375 132.6914 485.375 131.3945 Q485.375 129.8477 486.1875 128.9727 Q487 128.0977 488.2344 128.0977 Q489.625 128.0977 490.4297 129.0117 Q491.2344 129.9258 491.1875 131.8164 L487.0625 131.8164 Q487.0938 132.5508 487.4688 132.957 Q487.8438 133.3633 488.4219 133.3633 Q488.7969 133.3633 489.0625 133.1523 Q489.3281 132.9414 489.4688 132.4727 ZM489.5625 130.8164 Q489.5469 130.0977 489.1953 129.7227 Q488.8438 129.3477 488.3281 129.3477 Q487.7969 129.3477 487.4375 129.7383 Q487.0938 130.1445 487.0938 130.8164 L489.5625 130.8164 ZM492.7969 134.457 L492.7969 125.8633 L494.4375 125.8633 L494.4375 128.957 Q495.2031 128.0977 496.25 128.0977 Q497.375 128.0977 498.125 128.918 Q498.875 129.7383 498.875 131.2852 Q498.875 132.8789 498.1094 133.7383 Q497.3438 134.5977 496.2656 134.5977 Q495.7344 134.5977 495.2188 134.332 Q494.7031 134.0664 494.3281 133.5352 L494.3281 134.457 L492.7969 134.457 ZM494.4219 131.207 Q494.4219 132.1758 494.7344 132.6445 Q495.1562 133.3008 495.875 133.3008 Q496.4062 133.3008 496.7969 132.832 Q497.1875 132.3633 497.1875 131.3633 Q497.1875 130.3008 496.7969 129.8242 Q496.4062 129.3477 495.7969 129.3477 Q495.2188 129.3477 494.8203 129.8086 Q494.4219 130.2695 494.4219 131.207 ZM503.9531 134.457 L503.9531 133.5195 Q503.625 134.0195 503.0703 134.3086 Q502.5156 134.5977 501.8906 134.5977 Q501.2656 134.5977 500.7656 134.3242 Q500.2656 134.0508 500.0469 133.5508 Q499.8281 133.0508 499.8281 132.1758 L499.8281 128.2383 L501.4688 128.2383 L501.4688 131.0977 Q501.4688 132.4102 501.5625 132.707 Q501.6562 133.0039 501.8984 133.1758 Q502.1406 133.3477 502.5 133.3477 Q502.9219 133.3477 503.2578 133.1133 Q503.5938 132.8789 503.7188 132.5352 Q503.8438 132.1914 503.8438 130.8633 L503.8438 128.2383 L505.4844 128.2383 L505.4844 134.457 L503.9531 134.457 ZM508.4375 134.457 L506.7969 134.457 L506.7969 128.2383 L508.3281 128.2383 L508.3281 129.1133 Q508.7188 128.4883 509.0312 128.293 Q509.3438 128.0977 509.7344 128.0977 Q510.2969 128.0977 510.8281 128.4102 L510.3125 129.832 Q509.8906 129.5664 509.5469 129.5664 Q509.1875 129.5664 508.9531 129.7617 Q508.7188 129.957 508.5781 130.4492 Q508.4375 130.9414 508.4375 132.5352 L508.4375 134.457 ZM514.7188 128.2383 L514.7188 129.5508 L513.5938 129.5508 L513.5938 132.0508 Q513.5938 132.8164 513.625 132.9414 Q513.6562 133.0664 513.7734 133.1523 Q513.8906 133.2383 514.0469 133.2383 Q514.2812 133.2383 514.7031 133.0664 L514.8438 134.3477 Q514.2812 134.5977 513.5469 134.5977 Q513.1094 134.5977 512.75 134.4492 Q512.3906 134.3008 512.2266 134.0586 Q512.0625 133.8164 511.9844 133.4258 Q511.9375 133.1289 511.9375 132.2539 L511.9375 129.5508 L511.1875 129.5508 L511.1875 128.2383 L511.9375 128.2383 L511.9375 127.0039 L513.5938 126.0352 L513.5938 128.2383 L514.7188 128.2383 ZM515.2812 132.6758 L516.9375 132.4258 Q517.0469 132.9102 517.3672 133.1602 Q517.6875 133.4102 518.2656 133.4102 Q518.9062 133.4102 519.2188 133.1758 Q519.4375 133.0039 519.4375 132.7383 Q519.4375 132.5508 519.3281 132.4258 Q519.2031 132.3008 518.7812 132.207 Q516.7812 131.7695 516.25 131.4102 Q515.5156 130.8945 515.5156 130.0039 Q515.5156 129.1914 516.1484 128.6445 Q516.7812 128.0977 518.125 128.0977 Q519.4062 128.0977 520.0312 128.5117 Q520.6562 128.9258 520.8906 129.7383 L519.3281 130.0195 Q519.2344 129.6602 518.9531 129.4648 Q518.6719 129.2695 518.1562 129.2695 Q517.5156 129.2695 517.2344 129.457 Q517.0469 129.582 517.0469 129.7852 Q517.0469 129.9727 517.2031 130.0977 Q517.4219 130.2539 518.7422 130.5508 Q520.0625 130.8477 520.5781 131.2852 Q521.0938 131.7227 521.0938 132.5039 Q521.0938 133.3633 520.3828 133.9805 Q519.6719 134.5977 518.2656 134.5977 Q517 134.5977 516.2578 134.082 Q515.5156 133.5664 515.2812 132.6758 ZM528.5156 134.457 L526.875 134.457 L526.875 131.2852 Q526.875 130.2695 526.7734 129.9727 Q526.6719 129.6758 526.4297 129.5117 Q526.1875 129.3477 525.8594 129.3477 Q525.4219 129.3477 525.0859 129.582 Q524.75 129.8164 524.625 130.207 Q524.5 130.5977 524.5 131.6445 L524.5 134.457 L522.8438 134.457 L522.8438 128.2383 L524.375 128.2383 L524.375 129.1445 Q525.1875 128.0977 526.4375 128.0977 Q526.9688 128.0977 527.4219 128.293 Q527.875 128.4883 528.1094 128.793 Q528.3438 129.0977 528.4297 129.4805 Q528.5156 129.8633 528.5156 130.582 L528.5156 134.457 ZM531.0938 130.1289 L529.5938 129.8633 Q529.8438 128.957 530.4609 128.5273 Q531.0781 128.0977 532.2969 128.0977 Q533.3906 128.0977 533.9297 128.3555 Q534.4688 128.6133 534.6875 129.0117 Q534.9062 129.4102 534.9062 130.4883 L534.8906 132.4102 Q534.8906 133.2383 534.9688 133.6211 Q535.0469 134.0039 535.2656 134.457 L533.6406 134.457 Q533.5781 134.2852 533.4844 133.9727 Q533.4375 133.8164 533.4219 133.7695 Q533 134.1914 532.5234 134.3945 Q532.0469 134.5977 531.5 134.5977 Q530.5312 134.5977 529.9766 134.0742 Q529.4219 133.5508 529.4219 132.7539 Q529.4219 132.2227 529.6797 131.8164 Q529.9375 131.4102 530.3906 131.1836 Q530.8438 130.957 531.7031 130.8008 Q532.8438 130.582 533.2969 130.3945 L533.2969 130.2383 Q533.2969 129.7539 533.0625 129.5508 Q532.8281 129.3477 532.1719 129.3477 Q531.7344 129.3477 531.4922 129.5195 Q531.25 129.6914 531.0938 130.1289 ZM533.2969 131.4727 Q532.9844 131.5664 532.2969 131.7148 Q531.6094 131.8633 531.3906 132.0039 Q531.0781 132.2383 531.0781 132.582 Q531.0781 132.9258 531.3359 133.1836 Q531.5938 133.4414 531.9844 133.4414 Q532.4375 133.4414 532.8438 133.1445 Q533.1406 132.9258 533.2344 132.5977 Q533.2969 132.3945 533.2969 131.8008 L533.2969 131.4727 ZM536.7344 128.2383 L538.25 128.2383 L538.25 129.082 Q539.0781 128.0977 540.2031 128.0977 Q540.7969 128.0977 541.2344 128.3398 Q541.6719 128.582 541.9531 129.082 Q542.3594 128.582 542.8359 128.3398 Q543.3125 128.0977 543.8594 128.0977 Q544.5312 128.0977 545.0078 128.3711 Q545.4844 128.6445 545.7188 129.1914 Q545.8906 129.582 545.8906 130.4727 L545.8906 134.457 L544.25 134.457 L544.25 130.8945 Q544.25 129.9727 544.0781 129.707 Q543.8438 129.3477 543.375 129.3477 Q543.0312 129.3477 542.7266 129.5586 Q542.4219 129.7695 542.2812 130.1758 Q542.1406 130.582 542.1406 131.4727 L542.1406 134.457 L540.5 134.457 L540.5 131.0508 Q540.5 130.1445 540.4141 129.8789 Q540.3281 129.6133 540.1406 129.4805 Q539.9531 129.3477 539.6406 129.3477 Q539.2656 129.3477 538.9609 129.5586 Q538.6562 129.7695 538.5234 130.1523 Q538.3906 130.5352 538.3906 131.4258 L538.3906 134.457 L536.7344 134.457 L536.7344 128.2383 ZM551.4688 132.4727 L553.1094 132.7539 Q552.7969 133.6602 552.1094 134.1289 Q551.4219 134.5977 550.4062 134.5977 Q548.7812 134.5977 548 133.5352 Q547.375 132.6914 547.375 131.3945 Q547.375 129.8477 548.1875 128.9727 Q549 128.0977 550.2344 128.0977 Q551.625 128.0977 552.4297 129.0117 Q553.2344 129.9258 553.1875 131.8164 L549.0625 131.8164 Q549.0938 132.5508 549.4688 132.957 Q549.8438 133.3633 550.4219 133.3633 Q550.7969 133.3633 551.0625 133.1523 Q551.3281 132.9414 551.4688 132.4727 ZM551.5625 130.8164 Q551.5469 130.0977 551.1953 129.7227 Q550.8438 129.3477 550.3281 129.3477 Q549.7969 129.3477 549.4375 129.7383 Q549.0938 130.1445 549.0938 130.8164 L551.5625 130.8164 ZM560.5156 134.457 L558.875 134.457 L558.875 131.2852 Q558.875 130.2695 558.7734 129.9727 Q558.6719 129.6758 558.4297 129.5117 Q558.1875 129.3477 557.8594 129.3477 Q557.4219 129.3477 557.0859 129.582 Q556.75 129.8164 556.625 130.207 Q556.5 130.5977 556.5 131.6445 L556.5 134.457 L554.8438 134.457 L554.8438 128.2383 L556.375 128.2383 L556.375 129.1445 Q557.1875 128.0977 558.4375 128.0977 Q558.9688 128.0977 559.4219 128.293 Q559.875 128.4883 560.1094 128.793 Q560.3438 129.0977 560.4297 129.4805 Q560.5156 129.8633 560.5156 130.582 L560.5156 134.457 ZM561.2812 132.6758 L562.9375 132.4258 Q563.0469 132.9102 563.3672 133.1602 Q563.6875 133.4102 564.2656 133.4102 Q564.9062 133.4102 565.2188 133.1758 Q565.4375 133.0039 565.4375 132.7383 Q565.4375 132.5508 565.3281 132.4258 Q565.2031 132.3008 564.7812 132.207 Q562.7812 131.7695 562.25 131.4102 Q561.5156 130.8945 561.5156 130.0039 Q561.5156 129.1914 562.1484 128.6445 Q562.7812 128.0977 564.125 128.0977 Q565.4062 128.0977 566.0312 128.5117 Q566.6562 128.9258 566.8906 129.7383 L565.3281 130.0195 Q565.2344 129.6602 564.9531 129.4648 Q564.6719 129.2695 564.1562 129.2695 Q563.5156 129.2695 563.2344 129.457 Q563.0469 129.582 563.0469 129.7852 Q563.0469 129.9727 563.2031 130.0977 Q563.4219 130.2539 564.7422 130.5508 Q566.0625 130.8477 566.5781 131.2852 Q567.0938 131.7227 567.0938 132.5039 Q567.0938 133.3633 566.3828 133.9805 Q565.6719 134.5977 564.2656 134.5977 Q563 134.5977 562.2578 134.082 Q561.5156 133.5664 561.2812 132.6758 ZM571.8594 127.3945 L571.8594 125.8633 L573.5156 125.8633 L573.5156 127.3945 L571.8594 127.3945 ZM571.8594 134.457 L571.8594 128.2383 L573.5156 128.2383 L573.5156 134.457 L571.8594 134.457 ZM574.7344 128.2383 L576.25 128.2383 L576.25 129.082 Q577.0781 128.0977 578.2031 128.0977 Q578.7969 128.0977 579.2344 128.3398 Q579.6719 128.582 579.9531 129.082 Q580.3594 128.582 580.8359 128.3398 Q581.3125 128.0977 581.8594 128.0977 Q582.5312 128.0977 583.0078 128.3711 Q583.4844 128.6445 583.7188 129.1914 Q583.8906 129.582 583.8906 130.4727 L583.8906 134.457 L582.25 134.457 L582.25 130.8945 Q582.25 129.9727 582.0781 129.707 Q581.8438 129.3477 581.375 129.3477 Q581.0312 129.3477 580.7266 129.5586 Q580.4219 129.7695 580.2812 130.1758 Q580.1406 130.582 580.1406 131.4727 L580.1406 134.457 L578.5 134.457 L578.5 131.0508 Q578.5 130.1445 578.4141 129.8789 Q578.3281 129.6133 578.1406 129.4805 Q577.9531 129.3477 577.6406 129.3477 Q577.2656 129.3477 576.9609 129.5586 Q576.6562 129.7695 576.5234 130.1523 Q576.3906 130.5352 576.3906 131.4258 L576.3906 134.457 L574.7344 134.457 L574.7344 128.2383 ZM588.4375 131.6602 L590.125 131.5039 Q590.2812 132.3477 590.7422 132.7461 Q591.2031 133.1445 592 133.1445 Q592.8281 133.1445 593.2578 132.793 Q593.6875 132.4414 593.6875 131.957 Q593.6875 131.6602 593.5078 131.4414 Q593.3281 131.2227 592.875 131.0664 Q592.5781 130.957 591.5 130.6914 Q590.0938 130.3477 589.5312 129.8477 Q588.75 129.1289 588.75 128.1133 Q588.75 127.457 589.1172 126.8867 Q589.4844 126.3164 590.1875 126.0195 Q590.8906 125.7227 591.875 125.7227 Q593.5 125.7227 594.3125 126.4336 Q595.125 127.1445 595.1719 128.3164 L593.4375 128.3945 Q593.3281 127.7383 592.9609 127.4492 Q592.5938 127.1602 591.8594 127.1602 Q591.1094 127.1602 590.6719 127.4727 Q590.4062 127.6602 590.4062 128.0039 Q590.4062 128.3008 590.6562 128.5195 Q590.9844 128.8008 592.25 129.0977 Q593.5156 129.3945 594.125 129.7148 Q594.7344 130.0352 595.0781 130.5898 Q595.4219 131.1445 595.4219 131.957 Q595.4219 132.6914 595.0078 133.3398 Q594.5938 133.9883 593.8438 134.3008 Q593.0938 134.6133 591.9844 134.6133 Q590.3438 134.6133 589.4766 133.8555 Q588.6094 133.0977 588.4375 131.6602 ZM596.8594 127.3945 L596.8594 125.8633 L598.5156 125.8633 L598.5156 127.3945 L596.8594 127.3945 ZM596.8594 134.457 L596.8594 128.2383 L598.5156 128.2383 L598.5156 134.457 L596.8594 134.457 ZM605.5156 134.457 L603.875 134.457 L603.875 131.2852 Q603.875 130.2695 603.7734 129.9727 Q603.6719 129.6758 603.4297 129.5117 Q603.1875 129.3477 602.8594 129.3477 Q602.4219 129.3477 602.0859 129.582 Q601.75 129.8164 601.625 130.207 Q601.5 130.5977 601.5 131.6445 L601.5 134.457 L599.8438 134.457 L599.8438 128.2383 L601.375 128.2383 L601.375 129.1445 Q602.1875 128.0977 603.4375 128.0977 Q603.9688 128.0977 604.4219 128.293 Q604.875 128.4883 605.1094 128.793 Q605.3438 129.0977 605.4297 129.4805 Q605.5156 129.8633 605.5156 130.582 L605.5156 134.457 ZM612.5156 134.457 L610.875 134.457 L610.875 131.2852 Q610.875 130.2695 610.7734 129.9727 Q610.6719 129.6758 610.4297 129.5117 Q610.1875 129.3477 609.8594 129.3477 Q609.4219 129.3477 609.0859 129.582 Q608.75 129.8164 608.625 130.207 Q608.5 130.5977 608.5 131.6445 L608.5 134.457 L606.8438 134.457 L606.8438 128.2383 L608.375 128.2383 L608.375 129.1445 Q609.1875 128.0977 610.4375 128.0977 Q610.9688 128.0977 611.4219 128.293 Q611.875 128.4883 612.1094 128.793 Q612.3438 129.0977 612.4297 129.4805 Q612.5156 129.8633 612.5156 130.582 L612.5156 134.457 ZM617.4688 132.4727 L619.1094 132.7539 Q618.7969 133.6602 618.1094 134.1289 Q617.4219 134.5977 616.4062 134.5977 Q614.7812 134.5977 614 133.5352 Q613.375 132.6914 613.375 131.3945 Q613.375 129.8477 614.1875 128.9727 Q615 128.0977 616.2344 128.0977 Q617.625 128.0977 618.4297 129.0117 Q619.2344 129.9258 619.1875 131.8164 L615.0625 131.8164 Q615.0938 132.5508 615.4688 132.957 Q615.8438 133.3633 616.4219 133.3633 Q616.7969 133.3633 617.0625 133.1523 Q617.3281 132.9414 617.4688 132.4727 ZM617.5625 130.8164 Q617.5469 130.0977 617.1953 129.7227 Q616.8438 129.3477 616.3281 129.3477 Q615.7969 129.3477 615.4375 129.7383 Q615.0938 130.1445 615.0938 130.8164 L617.5625 130.8164 Z" clip-path="url(#clipPath2)" stroke="none"/><path fill="black" d="M482.5625 149.457 L481.0469 149.457 L481.0469 148.5352 Q480.6562 149.082 480.1406 149.3398 Q479.625 149.5977 479.0938 149.5977 Q478.0156 149.5977 477.2578 148.7305 Q476.5 147.8633 476.5 146.3164 Q476.5 144.7383 477.2422 143.918 Q477.9844 143.0977 479.125 143.0977 Q480.1562 143.0977 480.9219 143.957 L480.9219 140.8633 L482.5625 140.8633 L482.5625 149.457 ZM478.1719 146.207 Q478.1719 147.207 478.4531 147.6445 Q478.8438 148.3008 479.5625 148.3008 Q480.125 148.3008 480.5234 147.8164 Q480.9219 147.332 480.9219 146.3633 Q480.9219 145.3008 480.5391 144.8242 Q480.1562 144.3477 479.5469 144.3477 Q478.9688 144.3477 478.5703 144.8164 Q478.1719 145.2852 478.1719 146.207 ZM487.4688 147.4727 L489.1094 147.7539 Q488.7969 148.6602 488.1094 149.1289 Q487.4219 149.5977 486.4062 149.5977 Q484.7812 149.5977 484 148.5352 Q483.375 147.6914 483.375 146.3945 Q483.375 144.8477 484.1875 143.9727 Q485 143.0977 486.2344 143.0977 Q487.625 143.0977 488.4297 144.0117 Q489.2344 144.9258 489.1875 146.8164 L485.0625 146.8164 Q485.0938 147.5508 485.4688 147.957 Q485.8438 148.3633 486.4219 148.3633 Q486.7969 148.3633 487.0625 148.1523 Q487.3281 147.9414 487.4688 147.4727 ZM487.5625 145.8164 Q487.5469 145.0977 487.1953 144.7227 Q486.8438 144.3477 486.3281 144.3477 Q485.7969 144.3477 485.4375 144.7383 Q485.0938 145.1445 485.0938 145.8164 L487.5625 145.8164 ZM492.4375 149.457 L490.7969 149.457 L490.7969 143.2383 L492.3281 143.2383 L492.3281 144.1133 Q492.7188 143.4883 493.0312 143.293 Q493.3438 143.0977 493.7344 143.0977 Q494.2969 143.0977 494.8281 143.4102 L494.3125 144.832 Q493.8906 144.5664 493.5469 144.5664 Q493.1875 144.5664 492.9531 144.7617 Q492.7188 144.957 492.5781 145.4492 Q492.4375 145.9414 492.4375 147.5352 L492.4375 149.457 ZM498.875 140.8633 L502.0312 140.8633 Q503.1094 140.8633 503.6719 141.0352 Q504.4219 141.2539 504.9609 141.8242 Q505.5 142.3945 505.7812 143.2148 Q506.0625 144.0352 506.0625 145.2383 Q506.0625 146.3008 505.8125 147.0664 Q505.4844 148.0039 504.8906 148.582 Q504.4375 149.0352 503.6719 149.2695 Q503.0938 149.457 502.125 149.457 L498.875 149.457 L498.875 140.8633 ZM500.6094 142.3164 L500.6094 148.0039 L501.8906 148.0039 Q502.625 148.0039 502.9531 147.9258 Q503.375 147.8164 503.6484 147.5664 Q503.9219 147.3164 504.1016 146.7383 Q504.2812 146.1602 504.2812 145.1602 Q504.2812 144.1758 504.1016 143.6367 Q503.9219 143.0977 503.6094 142.8008 Q503.2969 142.5039 502.8125 142.3945 Q502.4375 142.3164 501.375 142.3164 L500.6094 142.3164 ZM508.0938 145.1289 L506.5938 144.8633 Q506.8438 143.957 507.4609 143.5273 Q508.0781 143.0977 509.2969 143.0977 Q510.3906 143.0977 510.9297 143.3555 Q511.4688 143.6133 511.6875 144.0117 Q511.9062 144.4102 511.9062 145.4883 L511.8906 147.4102 Q511.8906 148.2383 511.9688 148.6211 Q512.0469 149.0039 512.2656 149.457 L510.6406 149.457 Q510.5781 149.2852 510.4844 148.9727 Q510.4375 148.8164 510.4219 148.7695 Q510 149.1914 509.5234 149.3945 Q509.0469 149.5977 508.5 149.5977 Q507.5312 149.5977 506.9766 149.0742 Q506.4219 148.5508 506.4219 147.7539 Q506.4219 147.2227 506.6797 146.8164 Q506.9375 146.4102 507.3906 146.1836 Q507.8438 145.957 508.7031 145.8008 Q509.8438 145.582 510.2969 145.3945 L510.2969 145.2383 Q510.2969 144.7539 510.0625 144.5508 Q509.8281 144.3477 509.1719 144.3477 Q508.7344 144.3477 508.4922 144.5195 Q508.25 144.6914 508.0938 145.1289 ZM510.2969 146.4727 Q509.9844 146.5664 509.2969 146.7148 Q508.6094 146.8633 508.3906 147.0039 Q508.0781 147.2383 508.0781 147.582 Q508.0781 147.9258 508.3359 148.1836 Q508.5938 148.4414 508.9844 148.4414 Q509.4375 148.4414 509.8438 148.1445 Q510.1406 147.9258 510.2344 147.5977 Q510.2969 147.3945 510.2969 146.8008 L510.2969 146.4727 ZM516.7188 143.2383 L516.7188 144.5508 L515.5938 144.5508 L515.5938 147.0508 Q515.5938 147.8164 515.625 147.9414 Q515.6562 148.0664 515.7734 148.1523 Q515.8906 148.2383 516.0469 148.2383 Q516.2812 148.2383 516.7031 148.0664 L516.8438 149.3477 Q516.2812 149.5977 515.5469 149.5977 Q515.1094 149.5977 514.75 149.4492 Q514.3906 149.3008 514.2266 149.0586 Q514.0625 148.8164 513.9844 148.4258 Q513.9375 148.1289 513.9375 147.2539 L513.9375 144.5508 L513.1875 144.5508 L513.1875 143.2383 L513.9375 143.2383 L513.9375 142.0039 L515.5938 141.0352 L515.5938 143.2383 L516.7188 143.2383 ZM521.4688 147.4727 L523.1094 147.7539 Q522.7969 148.6602 522.1094 149.1289 Q521.4219 149.5977 520.4062 149.5977 Q518.7812 149.5977 518 148.5352 Q517.375 147.6914 517.375 146.3945 Q517.375 144.8477 518.1875 143.9727 Q519 143.0977 520.2344 143.0977 Q521.625 143.0977 522.4297 144.0117 Q523.2344 144.9258 523.1875 146.8164 L519.0625 146.8164 Q519.0938 147.5508 519.4688 147.957 Q519.8438 148.3633 520.4219 148.3633 Q520.7969 148.3633 521.0625 148.1523 Q521.3281 147.9414 521.4688 147.4727 ZM521.5625 145.8164 Q521.5469 145.0977 521.1953 144.7227 Q520.8438 144.3477 520.3281 144.3477 Q519.7969 144.3477 519.4375 144.7383 Q519.0938 145.1445 519.0938 145.8164 L521.5625 145.8164 ZM530.5156 149.457 L528.875 149.457 L528.875 146.2852 Q528.875 145.2695 528.7734 144.9727 Q528.6719 144.6758 528.4297 144.5117 Q528.1875 144.3477 527.8594 144.3477 Q527.4219 144.3477 527.0859 144.582 Q526.75 144.8164 526.625 145.207 Q526.5 145.5977 526.5 146.6445 L526.5 149.457 L524.8438 149.457 L524.8438 143.2383 L526.375 143.2383 L526.375 144.1445 Q527.1875 143.0977 528.4375 143.0977 Q528.9688 143.0977 529.4219 143.293 Q529.875 143.4883 530.1094 143.793 Q530.3438 144.0977 530.4297 144.4805 Q530.5156 144.8633 530.5156 145.582 L530.5156 149.457 ZM535.9531 149.457 L535.9531 148.5195 Q535.625 149.0195 535.0703 149.3086 Q534.5156 149.5977 533.8906 149.5977 Q533.2656 149.5977 532.7656 149.3242 Q532.2656 149.0508 532.0469 148.5508 Q531.8281 148.0508 531.8281 147.1758 L531.8281 143.2383 L533.4688 143.2383 L533.4688 146.0977 Q533.4688 147.4102 533.5625 147.707 Q533.6562 148.0039 533.8984 148.1758 Q534.1406 148.3477 534.5 148.3477 Q534.9219 148.3477 535.2578 148.1133 Q535.5938 147.8789 535.7188 147.5352 Q535.8438 147.1914 535.8438 145.8633 L535.8438 143.2383 L537.4844 143.2383 L537.4844 149.457 L535.9531 149.457 ZM533.0625 141.457 L533.0625 140.0508 L534.4688 140.0508 L534.4688 141.457 L533.0625 141.457 ZM535.5781 141.457 L535.5781 140.0508 L537 140.0508 L537 141.457 L535.5781 141.457 ZM538.7969 149.457 L538.7969 140.8633 L540.4375 140.8633 L540.4375 143.957 Q541.2031 143.0977 542.25 143.0977 Q543.375 143.0977 544.125 143.918 Q544.875 144.7383 544.875 146.2852 Q544.875 147.8789 544.1094 148.7383 Q543.3438 149.5977 542.2656 149.5977 Q541.7344 149.5977 541.2188 149.332 Q540.7031 149.0664 540.3281 148.5352 L540.3281 149.457 L538.7969 149.457 ZM540.4219 146.207 Q540.4219 147.1758 540.7344 147.6445 Q541.1562 148.3008 541.875 148.3008 Q542.4062 148.3008 542.7969 147.832 Q543.1875 147.3633 543.1875 146.3633 Q543.1875 145.3008 542.7969 144.8242 Q542.4062 144.3477 541.7969 144.3477 Q541.2188 144.3477 540.8203 144.8086 Q540.4219 145.2695 540.4219 146.207 ZM549.4688 147.4727 L551.1094 147.7539 Q550.7969 148.6602 550.1094 149.1289 Q549.4219 149.5977 548.4062 149.5977 Q546.7812 149.5977 546 148.5352 Q545.375 147.6914 545.375 146.3945 Q545.375 144.8477 546.1875 143.9727 Q547 143.0977 548.2344 143.0977 Q549.625 143.0977 550.4297 144.0117 Q551.2344 144.9258 551.1875 146.8164 L547.0625 146.8164 Q547.0938 147.5508 547.4688 147.957 Q547.8438 148.3633 548.4219 148.3633 Q548.7969 148.3633 549.0625 148.1523 Q549.3281 147.9414 549.4688 147.4727 ZM549.5625 145.8164 Q549.5469 145.0977 549.1953 144.7227 Q548.8438 144.3477 548.3281 144.3477 Q547.7969 144.3477 547.4375 144.7383 Q547.0938 145.1445 547.0938 145.8164 L549.5625 145.8164 ZM554.4375 149.457 L552.7969 149.457 L552.7969 143.2383 L554.3281 143.2383 L554.3281 144.1133 Q554.7188 143.4883 555.0312 143.293 Q555.3438 143.0977 555.7344 143.0977 Q556.2969 143.0977 556.8281 143.4102 L556.3125 144.832 Q555.8906 144.5664 555.5469 144.5664 Q555.1875 144.5664 554.9531 144.7617 Q554.7188 144.957 554.5781 145.4492 Q554.4375 145.9414 554.4375 147.5352 L554.4375 149.457 ZM557.7344 143.2383 L559.25 143.2383 L559.25 144.082 Q560.0781 143.0977 561.2031 143.0977 Q561.7969 143.0977 562.2344 143.3398 Q562.6719 143.582 562.9531 144.082 Q563.3594 143.582 563.8359 143.3398 Q564.3125 143.0977 564.8594 143.0977 Q565.5312 143.0977 566.0078 143.3711 Q566.4844 143.6445 566.7188 144.1914 Q566.8906 144.582 566.8906 145.4727 L566.8906 149.457 L565.25 149.457 L565.25 145.8945 Q565.25 144.9727 565.0781 144.707 Q564.8438 144.3477 564.375 144.3477 Q564.0312 144.3477 563.7266 144.5586 Q563.4219 144.7695 563.2812 145.1758 Q563.1406 145.582 563.1406 146.4727 L563.1406 149.457 L561.5 149.457 L561.5 146.0508 Q561.5 145.1445 561.4141 144.8789 Q561.3281 144.6133 561.1406 144.4805 Q560.9531 144.3477 560.6406 144.3477 Q560.2656 144.3477 559.9609 144.5586 Q559.6562 144.7695 559.5234 145.1523 Q559.3906 145.5352 559.3906 146.4258 L559.3906 149.457 L557.7344 149.457 L557.7344 143.2383 ZM568.8594 142.3945 L568.8594 140.8633 L570.5156 140.8633 L570.5156 142.3945 L568.8594 142.3945 ZM568.8594 149.457 L568.8594 143.2383 L570.5156 143.2383 L570.5156 149.457 L568.8594 149.457 ZM574.7188 143.2383 L574.7188 144.5508 L573.5938 144.5508 L573.5938 147.0508 Q573.5938 147.8164 573.625 147.9414 Q573.6562 148.0664 573.7734 148.1523 Q573.8906 148.2383 574.0469 148.2383 Q574.2812 148.2383 574.7031 148.0664 L574.8438 149.3477 Q574.2812 149.5977 573.5469 149.5977 Q573.1094 149.5977 572.75 149.4492 Q572.3906 149.3008 572.2266 149.0586 Q572.0625 148.8164 571.9844 148.4258 Q571.9375 148.1289 571.9375 147.2539 L571.9375 144.5508 L571.1875 144.5508 L571.1875 143.2383 L571.9375 143.2383 L571.9375 142.0039 L573.5938 141.0352 L573.5938 143.2383 L574.7188 143.2383 ZM578.7188 143.2383 L578.7188 144.5508 L577.5938 144.5508 L577.5938 147.0508 Q577.5938 147.8164 577.625 147.9414 Q577.6562 148.0664 577.7734 148.1523 Q577.8906 148.2383 578.0469 148.2383 Q578.2812 148.2383 578.7031 148.0664 L578.8438 149.3477 Q578.2812 149.5977 577.5469 149.5977 Q577.1094 149.5977 576.75 149.4492 Q576.3906 149.3008 576.2266 149.0586 Q576.0625 148.8164 575.9844 148.4258 Q575.9375 148.1289 575.9375 147.2539 L575.9375 144.5508 L575.1875 144.5508 L575.1875 143.2383 L575.9375 143.2383 L575.9375 142.0039 L577.5938 141.0352 L577.5938 143.2383 L578.7188 143.2383 ZM579.8594 149.457 L579.8594 140.8633 L581.5156 140.8633 L581.5156 149.457 L579.8594 149.457 ZM586.9531 149.457 L586.9531 148.5195 Q586.625 149.0195 586.0703 149.3086 Q585.5156 149.5977 584.8906 149.5977 Q584.2656 149.5977 583.7656 149.3242 Q583.2656 149.0508 583.0469 148.5508 Q582.8281 148.0508 582.8281 147.1758 L582.8281 143.2383 L584.4688 143.2383 L584.4688 146.0977 Q584.4688 147.4102 584.5625 147.707 Q584.6562 148.0039 584.8984 148.1758 Q585.1406 148.3477 585.5 148.3477 Q585.9219 148.3477 586.2578 148.1133 Q586.5938 147.8789 586.7188 147.5352 Q586.8438 147.1914 586.8438 145.8633 L586.8438 143.2383 L588.4844 143.2383 L588.4844 149.457 L586.9531 149.457 ZM595.5156 149.457 L593.875 149.457 L593.875 146.2852 Q593.875 145.2695 593.7734 144.9727 Q593.6719 144.6758 593.4297 144.5117 Q593.1875 144.3477 592.8594 144.3477 Q592.4219 144.3477 592.0859 144.582 Q591.75 144.8164 591.625 145.207 Q591.5 145.5977 591.5 146.6445 L591.5 149.457 L589.8438 149.457 L589.8438 143.2383 L591.375 143.2383 L591.375 144.1445 Q592.1875 143.0977 593.4375 143.0977 Q593.9688 143.0977 594.4219 143.293 Q594.875 143.4883 595.1094 143.793 Q595.3438 144.0977 595.4297 144.4805 Q595.5156 144.8633 595.5156 145.582 L595.5156 149.457 ZM596.7031 149.8633 L598.5938 150.0977 Q598.6406 150.4258 598.8125 150.5508 Q599.0469 150.7227 599.5469 150.7227 Q600.1875 150.7227 600.5156 150.5352 Q600.7344 150.3945 600.8438 150.1133 Q600.9219 149.9102 600.9219 149.3633 L600.9219 148.4414 Q600.1719 149.457 599.0469 149.457 Q597.7969 149.457 597.0625 148.3945 Q596.5 147.5508 596.5 146.3164 Q596.5 144.7383 597.25 143.918 Q598 143.0977 599.125 143.0977 Q600.2656 143.0977 601.0156 144.1133 L601.0156 143.2383 L602.5625 143.2383 L602.5625 148.8164 Q602.5625 149.9258 602.3828 150.4648 Q602.2031 151.0039 601.875 151.3164 Q601.5469 151.6289 601 151.8086 Q600.4531 151.9883 599.6094 151.9883 Q598.0312 151.9883 597.3672 151.4414 Q596.7031 150.8945 596.7031 150.0664 Q596.7031 149.9883 596.7031 149.8633 ZM598.1875 146.2227 Q598.1875 147.207 598.5703 147.668 Q598.9531 148.1289 599.5156 148.1289 Q600.1094 148.1289 600.5312 147.6523 Q600.9531 147.1758 600.9531 146.2539 Q600.9531 145.2852 600.5547 144.8164 Q600.1562 144.3477 599.5469 144.3477 Q598.9531 144.3477 598.5703 144.8086 Q598.1875 145.2695 598.1875 146.2227 ZM608.0938 145.1289 L606.5938 144.8633 Q606.8438 143.957 607.4609 143.5273 Q608.0781 143.0977 609.2969 143.0977 Q610.3906 143.0977 610.9297 143.3555 Q611.4688 143.6133 611.6875 144.0117 Q611.9062 144.4102 611.9062 145.4883 L611.8906 147.4102 Q611.8906 148.2383 611.9688 148.6211 Q612.0469 149.0039 612.2656 149.457 L610.6406 149.457 Q610.5781 149.2852 610.4844 148.9727 Q610.4375 148.8164 610.4219 148.7695 Q610 149.1914 609.5234 149.3945 Q609.0469 149.5977 608.5 149.5977 Q607.5312 149.5977 606.9766 149.0742 Q606.4219 148.5508 606.4219 147.7539 Q606.4219 147.2227 606.6797 146.8164 Q606.9375 146.4102 607.3906 146.1836 Q607.8438 145.957 608.7031 145.8008 Q609.8438 145.582 610.2969 145.3945 L610.2969 145.2383 Q610.2969 144.7539 610.0625 144.5508 Q609.8281 144.3477 609.1719 144.3477 Q608.7344 144.3477 608.4922 144.5195 Q608.25 144.6914 608.0938 145.1289 ZM610.2969 146.4727 Q609.9844 146.5664 609.2969 146.7148 Q608.6094 146.8633 608.3906 147.0039 Q608.0781 147.2383 608.0781 147.582 Q608.0781 147.9258 608.3359 148.1836 Q608.5938 148.4414 608.9844 148.4414 Q609.4375 148.4414 609.8438 148.1445 Q610.1406 147.9258 610.2344 147.5977 Q610.2969 147.3945 610.2969 146.8008 L610.2969 146.4727 ZM619.5156 149.457 L617.875 149.457 L617.875 146.2852 Q617.875 145.2695 617.7734 144.9727 Q617.6719 144.6758 617.4297 144.5117 Q617.1875 144.3477 616.8594 144.3477 Q616.4219 144.3477 616.0859 144.582 Q615.75 144.8164 615.625 145.207 Q615.5 145.5977 615.5 146.6445 L615.5 149.457 L613.8438 149.457 L613.8438 143.2383 L615.375 143.2383 L615.375 144.1445 Q616.1875 143.0977 617.4375 143.0977 Q617.9688 143.0977 618.4219 143.293 Q618.875 143.4883 619.1094 143.793 Q619.3438 144.0977 619.4297 144.4805 Q619.5156 144.8633 619.5156 145.582 L619.5156 149.457 Z" clip-path="url(#clipPath2)" stroke="none"/><path fill="black" d="M506.5625 164.457 L505.0469 164.457 L505.0469 163.5352 Q504.6562 164.082 504.1406 164.3398 Q503.625 164.5977 503.0938 164.5977 Q502.0156 164.5977 501.2578 163.7305 Q500.5 162.8633 500.5 161.3164 Q500.5 159.7383 501.2422 158.918 Q501.9844 158.0977 503.125 158.0977 Q504.1562 158.0977 504.9219 158.957 L504.9219 155.8633 L506.5625 155.8633 L506.5625 164.457 ZM502.1719 161.207 Q502.1719 162.207 502.4531 162.6445 Q502.8438 163.3008 503.5625 163.3008 Q504.125 163.3008 504.5234 162.8164 Q504.9219 162.332 504.9219 161.3633 Q504.9219 160.3008 504.5391 159.8242 Q504.1562 159.3477 503.5469 159.3477 Q502.9688 159.3477 502.5703 159.8164 Q502.1719 160.2852 502.1719 161.207 ZM509.0938 160.1289 L507.5938 159.8633 Q507.8438 158.957 508.4609 158.5273 Q509.0781 158.0977 510.2969 158.0977 Q511.3906 158.0977 511.9297 158.3555 Q512.4688 158.6133 512.6875 159.0117 Q512.9062 159.4102 512.9062 160.4883 L512.8906 162.4102 Q512.8906 163.2383 512.9688 163.6211 Q513.0469 164.0039 513.2656 164.457 L511.6406 164.457 Q511.5781 164.2852 511.4844 163.9727 Q511.4375 163.8164 511.4219 163.7695 Q511 164.1914 510.5234 164.3945 Q510.0469 164.5977 509.5 164.5977 Q508.5312 164.5977 507.9766 164.0742 Q507.4219 163.5508 507.4219 162.7539 Q507.4219 162.2227 507.6797 161.8164 Q507.9375 161.4102 508.3906 161.1836 Q508.8438 160.957 509.7031 160.8008 Q510.8438 160.582 511.2969 160.3945 L511.2969 160.2383 Q511.2969 159.7539 511.0625 159.5508 Q510.8281 159.3477 510.1719 159.3477 Q509.7344 159.3477 509.4922 159.5195 Q509.25 159.6914 509.0938 160.1289 ZM511.2969 161.4727 Q510.9844 161.5664 510.2969 161.7148 Q509.6094 161.8633 509.3906 162.0039 Q509.0781 162.2383 509.0781 162.582 Q509.0781 162.9258 509.3359 163.1836 Q509.5938 163.4414 509.9844 163.4414 Q510.4375 163.4414 510.8438 163.1445 Q511.1406 162.9258 511.2344 162.5977 Q511.2969 162.3945 511.2969 161.8008 L511.2969 161.4727 ZM514.2812 162.6758 L515.9375 162.4258 Q516.0469 162.9102 516.3672 163.1602 Q516.6875 163.4102 517.2656 163.4102 Q517.9062 163.4102 518.2188 163.1758 Q518.4375 163.0039 518.4375 162.7383 Q518.4375 162.5508 518.3281 162.4258 Q518.2031 162.3008 517.7812 162.207 Q515.7812 161.7695 515.25 161.4102 Q514.5156 160.8945 514.5156 160.0039 Q514.5156 159.1914 515.1484 158.6445 Q515.7812 158.0977 517.125 158.0977 Q518.4062 158.0977 519.0312 158.5117 Q519.6562 158.9258 519.8906 159.7383 L518.3281 160.0195 Q518.2344 159.6602 517.9531 159.4648 Q517.6719 159.2695 517.1562 159.2695 Q516.5156 159.2695 516.2344 159.457 Q516.0469 159.582 516.0469 159.7852 Q516.0469 159.9727 516.2031 160.0977 Q516.4219 160.2539 517.7422 160.5508 Q519.0625 160.8477 519.5781 161.2852 Q520.0938 161.7227 520.0938 162.5039 Q520.0938 163.3633 519.3828 163.9805 Q518.6719 164.5977 517.2656 164.5977 Q516 164.5977 515.2578 164.082 Q514.5156 163.5664 514.2812 162.6758 ZM524.8906 164.457 L524.8906 155.8633 L526.625 155.8633 L526.625 159.6758 L530.1406 155.8633 L532.4688 155.8633 L529.2344 159.207 L532.6406 164.457 L530.4062 164.457 L528.0312 160.4258 L526.625 161.8633 L526.625 164.457 L524.8906 164.457 ZM532.875 155.8633 L536.3125 155.8633 Q537.3281 155.8633 537.8281 155.9492 Q538.3281 156.0352 538.7266 156.3086 Q539.125 156.582 539.3906 157.0273 Q539.6562 157.4727 539.6562 158.0352 Q539.6562 158.6289 539.3281 159.1367 Q539 159.6445 538.4531 159.8945 Q539.2344 160.1133 539.6562 160.668 Q540.0781 161.2227 540.0781 161.9727 Q540.0781 162.5508 539.8047 163.1055 Q539.5312 163.6602 539.0625 163.9883 Q538.5938 164.3164 537.8906 164.3945 Q537.4688 164.4414 535.7969 164.457 L532.875 164.457 L532.875 155.8633 ZM534.6094 157.3008 L534.6094 159.2852 L535.75 159.2852 Q536.7656 159.2852 537.0156 159.2539 Q537.4531 159.207 537.7109 158.9492 Q537.9688 158.6914 537.9688 158.2695 Q537.9688 157.8789 537.75 157.6289 Q537.5312 157.3789 537.0938 157.332 Q536.8281 157.3008 535.6094 157.3008 L534.6094 157.3008 ZM534.6094 160.707 L534.6094 163.0039 L536.2188 163.0039 Q537.1562 163.0039 537.4062 162.957 Q537.7969 162.8789 538.0391 162.6133 Q538.2812 162.3477 538.2812 161.8789 Q538.2812 161.5039 538.0938 161.2305 Q537.9062 160.957 537.5547 160.832 Q537.2031 160.707 536.0156 160.707 L534.6094 160.707 ZM548.625 164.457 L546.7344 164.457 L545.9844 162.5039 L542.5469 162.5039 L541.8438 164.457 L540 164.457 L543.3438 155.8633 L545.1875 155.8633 L548.625 164.457 ZM545.4219 161.0508 L544.25 157.8633 L543.0781 161.0508 L545.4219 161.0508 ZM551.7344 158.2383 L553.25 158.2383 L553.25 159.082 Q554.0781 158.0977 555.2031 158.0977 Q555.7969 158.0977 556.2344 158.3398 Q556.6719 158.582 556.9531 159.082 Q557.3594 158.582 557.8359 158.3398 Q558.3125 158.0977 558.8594 158.0977 Q559.5312 158.0977 560.0078 158.3711 Q560.4844 158.6445 560.7188 159.1914 Q560.8906 159.582 560.8906 160.4727 L560.8906 164.457 L559.25 164.457 L559.25 160.8945 Q559.25 159.9727 559.0781 159.707 Q558.8438 159.3477 558.375 159.3477 Q558.0312 159.3477 557.7266 159.5586 Q557.4219 159.7695 557.2812 160.1758 Q557.1406 160.582 557.1406 161.4727 L557.1406 164.457 L555.5 164.457 L555.5 161.0508 Q555.5 160.1445 555.4141 159.8789 Q555.3281 159.6133 555.1406 159.4805 Q554.9531 159.3477 554.6406 159.3477 Q554.2656 159.3477 553.9609 159.5586 Q553.6562 159.7695 553.5234 160.1523 Q553.3906 160.5352 553.3906 161.4258 L553.3906 164.457 L551.7344 164.457 L551.7344 158.2383 ZM562.8594 157.3945 L562.8594 155.8633 L564.5156 155.8633 L564.5156 157.3945 L562.8594 157.3945 ZM562.8594 164.457 L562.8594 158.2383 L564.5156 158.2383 L564.5156 164.457 L562.8594 164.457 ZM568.7188 158.2383 L568.7188 159.5508 L567.5938 159.5508 L567.5938 162.0508 Q567.5938 162.8164 567.625 162.9414 Q567.6562 163.0664 567.7734 163.1523 Q567.8906 163.2383 568.0469 163.2383 Q568.2812 163.2383 568.7031 163.0664 L568.8438 164.3477 Q568.2812 164.5977 567.5469 164.5977 Q567.1094 164.5977 566.75 164.4492 Q566.3906 164.3008 566.2266 164.0586 Q566.0625 163.8164 565.9844 163.4258 Q565.9375 163.1289 565.9375 162.2539 L565.9375 159.5508 L565.1875 159.5508 L565.1875 158.2383 L565.9375 158.2383 L565.9375 157.0039 L567.5938 156.0352 L567.5938 158.2383 L568.7188 158.2383 ZM572.7188 158.2383 L572.7188 159.5508 L571.5938 159.5508 L571.5938 162.0508 Q571.5938 162.8164 571.625 162.9414 Q571.6562 163.0664 571.7734 163.1523 Q571.8906 163.2383 572.0469 163.2383 Q572.2812 163.2383 572.7031 163.0664 L572.8438 164.3477 Q572.2812 164.5977 571.5469 164.5977 Q571.1094 164.5977 570.75 164.4492 Q570.3906 164.3008 570.2266 164.0586 Q570.0625 163.8164 569.9844 163.4258 Q569.9375 163.1289 569.9375 162.2539 L569.9375 159.5508 L569.1875 159.5508 L569.1875 158.2383 L569.9375 158.2383 L569.9375 157.0039 L571.5938 156.0352 L571.5938 158.2383 L572.7188 158.2383 ZM577.4688 162.4727 L579.1094 162.7539 Q578.7969 163.6602 578.1094 164.1289 Q577.4219 164.5977 576.4062 164.5977 Q574.7812 164.5977 574 163.5352 Q573.375 162.6914 573.375 161.3945 Q573.375 159.8477 574.1875 158.9727 Q575 158.0977 576.2344 158.0977 Q577.625 158.0977 578.4297 159.0117 Q579.2344 159.9258 579.1875 161.8164 L575.0625 161.8164 Q575.0938 162.5508 575.4688 162.957 Q575.8438 163.3633 576.4219 163.3633 Q576.7969 163.3633 577.0625 163.1523 Q577.3281 162.9414 577.4688 162.4727 ZM577.5625 160.8164 Q577.5469 160.0977 577.1953 159.7227 Q576.8438 159.3477 576.3281 159.3477 Q575.7969 159.3477 575.4375 159.7383 Q575.0938 160.1445 575.0938 160.8164 L577.5625 160.8164 ZM580.8594 157.3945 L580.8594 155.8633 L582.5156 155.8633 L582.5156 157.3945 L580.8594 157.3945 ZM580.8594 164.457 L580.8594 158.2383 L582.5156 158.2383 L582.5156 164.457 L580.8594 164.457 ZM583.8594 164.457 L583.8594 155.8633 L585.5156 155.8633 L585.5156 164.457 L583.8594 164.457 ZM590.4688 162.4727 L592.1094 162.7539 Q591.7969 163.6602 591.1094 164.1289 Q590.4219 164.5977 589.4062 164.5977 Q587.7812 164.5977 587 163.5352 Q586.375 162.6914 586.375 161.3945 Q586.375 159.8477 587.1875 158.9727 Q588 158.0977 589.2344 158.0977 Q590.625 158.0977 591.4297 159.0117 Q592.2344 159.9258 592.1875 161.8164 L588.0625 161.8164 Q588.0938 162.5508 588.4688 162.957 Q588.8438 163.3633 589.4219 163.3633 Q589.7969 163.3633 590.0625 163.1523 Q590.3281 162.9414 590.4688 162.4727 ZM590.5625 160.8164 Q590.5469 160.0977 590.1953 159.7227 Q589.8438 159.3477 589.3281 159.3477 Q588.7969 159.3477 588.4375 159.7383 Q588.0938 160.1445 588.0938 160.8164 L590.5625 160.8164 ZM599.5156 164.457 L597.875 164.457 L597.875 161.2852 Q597.875 160.2695 597.7734 159.9727 Q597.6719 159.6758 597.4297 159.5117 Q597.1875 159.3477 596.8594 159.3477 Q596.4219 159.3477 596.0859 159.582 Q595.75 159.8164 595.625 160.207 Q595.5 160.5977 595.5 161.6445 L595.5 164.457 L593.8438 164.457 L593.8438 158.2383 L595.375 158.2383 L595.375 159.1445 Q596.1875 158.0977 597.4375 158.0977 Q597.9688 158.0977 598.4219 158.293 Q598.875 158.4883 599.1094 158.793 Q599.3438 159.0977 599.4297 159.4805 Q599.5156 159.8633 599.5156 160.582 L599.5156 164.457 Z" clip-path="url(#clipPath2)" stroke="none"/><ellipse clip-path="url(#clipPath2)" fill="rgb(178,178,178)" rx="95" cx="558" ry="25" cy="308" stroke="none"/><ellipse clip-path="url(#clipPath2)" fill="url(#linearGradient2)" rx="95" cx="555" ry="25" cy="305" stroke="none"/><ellipse rx="95" fill="none" ry="25" clip-path="url(#clipPath2)" cx="555" cy="305"/><path fill="black" d="M499.8906 301.457 L499.8906 292.8633 L505.7812 292.8633 L505.7812 294.3164 L501.625 294.3164 L501.625 296.3477 L505.2031 296.3477 L505.2031 297.8008 L501.625 297.8008 L501.625 301.457 L499.8906 301.457 ZM505.4844 298.2539 Q505.4844 297.4414 505.8906 296.668 Q506.2969 295.8945 507.0312 295.4961 Q507.7656 295.0977 508.6875 295.0977 Q510.0938 295.0977 511 296.0117 Q511.9062 296.9258 511.9062 298.332 Q511.9062 299.7383 510.9922 300.668 Q510.0781 301.5977 508.7031 301.5977 Q507.8438 301.5977 507.0703 301.207 Q506.2969 300.8164 505.8906 300.0742 Q505.4844 299.332 505.4844 298.2539 ZM507.1719 298.3477 Q507.1719 299.2695 507.6094 299.7617 Q508.0469 300.2539 508.6875 300.2539 Q509.3438 300.2539 509.7734 299.7617 Q510.2031 299.2695 510.2031 298.332 Q510.2031 297.4258 509.7734 296.9336 Q509.3438 296.4414 508.6875 296.4414 Q508.0469 296.4414 507.6094 296.9336 Q507.1719 297.4258 507.1719 298.3477 ZM514.4375 301.457 L512.7969 301.457 L512.7969 295.2383 L514.3281 295.2383 L514.3281 296.1133 Q514.7188 295.4883 515.0312 295.293 Q515.3438 295.0977 515.7344 295.0977 Q516.2969 295.0977 516.8281 295.4102 L516.3125 296.832 Q515.8906 296.5664 515.5469 296.5664 Q515.1875 296.5664 514.9531 296.7617 Q514.7188 296.957 514.5781 297.4492 Q514.4375 297.9414 514.4375 299.5352 L514.4375 301.457 ZM520.7188 295.2383 L520.7188 296.5508 L519.5938 296.5508 L519.5938 299.0508 Q519.5938 299.8164 519.625 299.9414 Q519.6562 300.0664 519.7734 300.1523 Q519.8906 300.2383 520.0469 300.2383 Q520.2812 300.2383 520.7031 300.0664 L520.8438 301.3477 Q520.2812 301.5977 519.5469 301.5977 Q519.1094 301.5977 518.75 301.4492 Q518.3906 301.3008 518.2266 301.0586 Q518.0625 300.8164 517.9844 300.4258 Q517.9375 300.1289 517.9375 299.2539 L517.9375 296.5508 L517.1875 296.5508 L517.1875 295.2383 L517.9375 295.2383 L517.9375 294.0039 L519.5938 293.0352 L519.5938 295.2383 L520.7188 295.2383 ZM521.2812 299.6758 L522.9375 299.4258 Q523.0469 299.9102 523.3672 300.1602 Q523.6875 300.4102 524.2656 300.4102 Q524.9062 300.4102 525.2188 300.1758 Q525.4375 300.0039 525.4375 299.7383 Q525.4375 299.5508 525.3281 299.4258 Q525.2031 299.3008 524.7812 299.207 Q522.7812 298.7695 522.25 298.4102 Q521.5156 297.8945 521.5156 297.0039 Q521.5156 296.1914 522.1484 295.6445 Q522.7812 295.0977 524.125 295.0977 Q525.4062 295.0977 526.0312 295.5117 Q526.6562 295.9258 526.8906 296.7383 L525.3281 297.0195 Q525.2344 296.6602 524.9531 296.4648 Q524.6719 296.2695 524.1562 296.2695 Q523.5156 296.2695 523.2344 296.457 Q523.0469 296.582 523.0469 296.7852 Q523.0469 296.9727 523.2031 297.0977 Q523.4219 297.2539 524.7422 297.5508 Q526.0625 297.8477 526.5781 298.2852 Q527.0938 298.7227 527.0938 299.5039 Q527.0938 300.3633 526.3828 300.9805 Q525.6719 301.5977 524.2656 301.5977 Q523 301.5977 522.2578 301.082 Q521.5156 300.5664 521.2812 299.6758 ZM534.2812 297.0664 L532.6719 297.3633 Q532.5781 296.8789 532.2891 296.6367 Q532 296.3945 531.5469 296.3945 Q530.9219 296.3945 530.5547 296.8164 Q530.1875 297.2383 530.1875 298.2383 Q530.1875 299.3477 530.5625 299.8008 Q530.9375 300.2539 531.5625 300.2539 Q532.0312 300.2539 532.3281 299.9883 Q532.625 299.7227 532.75 299.0664 L534.375 299.3477 Q534.125 300.457 533.4062 301.0273 Q532.6875 301.5977 531.4844 301.5977 Q530.125 301.5977 529.3125 300.7383 Q528.5 299.8789 528.5 298.3477 Q528.5 296.8164 529.3125 295.957 Q530.125 295.0977 531.5156 295.0977 Q532.6562 295.0977 533.3281 295.582 Q534 296.0664 534.2812 297.0664 ZM537.5 292.8633 L537.5 296.0195 Q538.2969 295.0977 539.4062 295.0977 Q539.9688 295.0977 540.4297 295.3086 Q540.8906 295.5195 541.125 295.8477 Q541.3594 296.1758 541.4375 296.5742 Q541.5156 296.9727 541.5156 297.8008 L541.5156 301.457 L539.875 301.457 L539.875 298.1758 Q539.875 297.1914 539.7812 296.9258 Q539.6875 296.6602 539.4531 296.5039 Q539.2188 296.3477 538.8594 296.3477 Q538.4531 296.3477 538.125 296.5508 Q537.7969 296.7539 537.6484 297.1523 Q537.5 297.5508 537.5 298.332 L537.5 301.457 L535.8594 301.457 L535.8594 292.8633 L537.5 292.8633 ZM544.4375 301.457 L542.7969 301.457 L542.7969 295.2383 L544.3281 295.2383 L544.3281 296.1133 Q544.7188 295.4883 545.0312 295.293 Q545.3438 295.0977 545.7344 295.0977 Q546.2969 295.0977 546.8281 295.4102 L546.3125 296.832 Q545.8906 296.5664 545.5469 296.5664 Q545.1875 296.5664 544.9531 296.7617 Q544.7188 296.957 544.5781 297.4492 Q544.4375 297.9414 544.4375 299.5352 L544.4375 301.457 ZM551.4688 299.4727 L553.1094 299.7539 Q552.7969 300.6602 552.1094 301.1289 Q551.4219 301.5977 550.4062 301.5977 Q548.7812 301.5977 548 300.5352 Q547.375 299.6914 547.375 298.3945 Q547.375 296.8477 548.1875 295.9727 Q549 295.0977 550.2344 295.0977 Q551.625 295.0977 552.4297 296.0117 Q553.2344 296.9258 553.1875 298.8164 L549.0625 298.8164 Q549.0938 299.5508 549.4688 299.957 Q549.8438 300.3633 550.4219 300.3633 Q550.7969 300.3633 551.0625 300.1523 Q551.3281 299.9414 551.4688 299.4727 ZM551.5625 297.8164 Q551.5469 297.0977 551.1953 296.7227 Q550.8438 296.3477 550.3281 296.3477 Q549.7969 296.3477 549.4375 296.7383 Q549.0938 297.1445 549.0938 297.8164 L551.5625 297.8164 ZM554.8594 294.3945 L554.8594 292.8633 L556.5156 292.8633 L556.5156 294.3945 L554.8594 294.3945 ZM554.8594 301.457 L554.8594 295.2383 L556.5156 295.2383 L556.5156 301.457 L554.8594 301.457 ZM557.7969 301.457 L557.7969 292.8633 L559.4375 292.8633 L559.4375 295.957 Q560.2031 295.0977 561.25 295.0977 Q562.375 295.0977 563.125 295.918 Q563.875 296.7383 563.875 298.2852 Q563.875 299.8789 563.1094 300.7383 Q562.3438 301.5977 561.2656 301.5977 Q560.7344 301.5977 560.2188 301.332 Q559.7031 301.0664 559.3281 300.5352 L559.3281 301.457 L557.7969 301.457 ZM559.4219 298.207 Q559.4219 299.1758 559.7344 299.6445 Q560.1562 300.3008 560.875 300.3008 Q561.4062 300.3008 561.7969 299.832 Q562.1875 299.3633 562.1875 298.3633 Q562.1875 297.3008 561.7969 296.8242 Q561.4062 296.3477 560.7969 296.3477 Q560.2188 296.3477 559.8203 296.8086 Q559.4219 297.2695 559.4219 298.207 ZM568.9531 301.457 L568.9531 300.5195 Q568.625 301.0195 568.0703 301.3086 Q567.5156 301.5977 566.8906 301.5977 Q566.2656 301.5977 565.7656 301.3242 Q565.2656 301.0508 565.0469 300.5508 Q564.8281 300.0508 564.8281 299.1758 L564.8281 295.2383 L566.4688 295.2383 L566.4688 298.0977 Q566.4688 299.4102 566.5625 299.707 Q566.6562 300.0039 566.8984 300.1758 Q567.1406 300.3477 567.5 300.3477 Q567.9219 300.3477 568.2578 300.1133 Q568.5938 299.8789 568.7188 299.5352 Q568.8438 299.1914 568.8438 297.8633 L568.8438 295.2383 L570.4844 295.2383 L570.4844 301.457 L568.9531 301.457 ZM577.5156 301.457 L575.875 301.457 L575.875 298.2852 Q575.875 297.2695 575.7734 296.9727 Q575.6719 296.6758 575.4297 296.5117 Q575.1875 296.3477 574.8594 296.3477 Q574.4219 296.3477 574.0859 296.582 Q573.75 296.8164 573.625 297.207 Q573.5 297.5977 573.5 298.6445 L573.5 301.457 L571.8438 301.457 L571.8438 295.2383 L573.375 295.2383 L573.375 296.1445 Q574.1875 295.0977 575.4375 295.0977 Q575.9688 295.0977 576.4219 295.293 Q576.875 295.4883 577.1094 295.793 Q577.3438 296.0977 577.4297 296.4805 Q577.5156 296.8633 577.5156 297.582 L577.5156 301.457 ZM578.7031 301.8633 L580.5938 302.0977 Q580.6406 302.4258 580.8125 302.5508 Q581.0469 302.7227 581.5469 302.7227 Q582.1875 302.7227 582.5156 302.5352 Q582.7344 302.3945 582.8438 302.1133 Q582.9219 301.9102 582.9219 301.3633 L582.9219 300.4414 Q582.1719 301.457 581.0469 301.457 Q579.7969 301.457 579.0625 300.3945 Q578.5 299.5508 578.5 298.3164 Q578.5 296.7383 579.25 295.918 Q580 295.0977 581.125 295.0977 Q582.2656 295.0977 583.0156 296.1133 L583.0156 295.2383 L584.5625 295.2383 L584.5625 300.8164 Q584.5625 301.9258 584.3828 302.4648 Q584.2031 303.0039 583.875 303.3164 Q583.5469 303.6289 583 303.8086 Q582.4531 303.9883 581.6094 303.9883 Q580.0312 303.9883 579.3672 303.4414 Q578.7031 302.8945 578.7031 302.0664 Q578.7031 301.9883 578.7031 301.8633 ZM580.1875 298.2227 Q580.1875 299.207 580.5703 299.668 Q580.9531 300.1289 581.5156 300.1289 Q582.1094 300.1289 582.5312 299.6523 Q582.9531 299.1758 582.9531 298.2539 Q582.9531 297.2852 582.5547 296.8164 Q582.1562 296.3477 581.5469 296.3477 Q580.9531 296.3477 580.5703 296.8086 Q580.1875 297.2695 580.1875 298.2227 ZM594.5625 301.457 L593.0469 301.457 L593.0469 300.5352 Q592.6562 301.082 592.1406 301.3398 Q591.625 301.5977 591.0938 301.5977 Q590.0156 301.5977 589.2578 300.7305 Q588.5 299.8633 588.5 298.3164 Q588.5 296.7383 589.2422 295.918 Q589.9844 295.0977 591.125 295.0977 Q592.1562 295.0977 592.9219 295.957 L592.9219 292.8633 L594.5625 292.8633 L594.5625 301.457 ZM590.1719 298.207 Q590.1719 299.207 590.4531 299.6445 Q590.8438 300.3008 591.5625 300.3008 Q592.125 300.3008 592.5234 299.8164 Q592.9219 299.332 592.9219 298.3633 Q592.9219 297.3008 592.5391 296.8242 Q592.1562 296.3477 591.5469 296.3477 Q590.9688 296.3477 590.5703 296.8164 Q590.1719 297.2852 590.1719 298.207 ZM599.4688 299.4727 L601.1094 299.7539 Q600.7969 300.6602 600.1094 301.1289 Q599.4219 301.5977 598.4062 301.5977 Q596.7812 301.5977 596 300.5352 Q595.375 299.6914 595.375 298.3945 Q595.375 296.8477 596.1875 295.9727 Q597 295.0977 598.2344 295.0977 Q599.625 295.0977 600.4297 296.0117 Q601.2344 296.9258 601.1875 298.8164 L597.0625 298.8164 Q597.0938 299.5508 597.4688 299.957 Q597.8438 300.3633 598.4219 300.3633 Q598.7969 300.3633 599.0625 300.1523 Q599.3281 299.9414 599.4688 299.4727 ZM599.5625 297.8164 Q599.5469 297.0977 599.1953 296.7227 Q598.8438 296.3477 598.3281 296.3477 Q597.7969 296.3477 597.4375 296.7383 Q597.0938 297.1445 597.0938 297.8164 L599.5625 297.8164 ZM604.4375 301.457 L602.7969 301.457 L602.7969 295.2383 L604.3281 295.2383 L604.3281 296.1133 Q604.7188 295.4883 605.0312 295.293 Q605.3438 295.0977 605.7344 295.0977 Q606.2969 295.0977 606.8281 295.4102 L606.3125 296.832 Q605.8906 296.5664 605.5469 296.5664 Q605.1875 296.5664 604.9531 296.7617 Q604.7188 296.957 604.5781 297.4492 Q604.4375 297.9414 604.4375 299.5352 L604.4375 301.457 Z" clip-path="url(#clipPath2)" stroke="none"/><path fill="black" d="M502.0625 316.457 L499 307.8633 L500.875 307.8633 L503.0469 314.2227 L505.1562 307.8633 L507 307.8633 L503.9219 316.457 L502.0625 316.457 ZM507.4844 313.2539 Q507.4844 312.4414 507.8906 311.668 Q508.2969 310.8945 509.0312 310.4961 Q509.7656 310.0977 510.6875 310.0977 Q512.0938 310.0977 513 311.0117 Q513.9062 311.9258 513.9062 313.332 Q513.9062 314.7383 512.9922 315.668 Q512.0781 316.5977 510.7031 316.5977 Q509.8438 316.5977 509.0703 316.207 Q508.2969 315.8164 507.8906 315.0742 Q507.4844 314.332 507.4844 313.2539 ZM509.1719 313.3477 Q509.1719 314.2695 509.6094 314.7617 Q510.0469 315.2539 510.6875 315.2539 Q511.3438 315.2539 511.7734 314.7617 Q512.2031 314.2695 512.2031 313.332 Q512.2031 312.4258 511.7734 311.9336 Q511.3438 311.4414 510.6875 311.4414 Q510.0469 311.4414 509.6094 311.9336 Q509.1719 312.4258 509.1719 313.3477 ZM516.4375 316.457 L514.7969 316.457 L514.7969 310.2383 L516.3281 310.2383 L516.3281 311.1133 Q516.7188 310.4883 517.0312 310.293 Q517.3438 310.0977 517.7344 310.0977 Q518.2969 310.0977 518.8281 310.4102 L518.3125 311.832 Q517.8906 311.5664 517.5469 311.5664 Q517.1875 311.5664 516.9531 311.7617 Q516.7188 311.957 516.5781 312.4492 Q516.4375 312.9414 516.4375 314.5352 L516.4375 316.457 ZM525.5156 316.457 L523.875 316.457 L523.875 313.2852 Q523.875 312.2695 523.7734 311.9727 Q523.6719 311.6758 523.4297 311.5117 Q523.1875 311.3477 522.8594 311.3477 Q522.4219 311.3477 522.0859 311.582 Q521.75 311.8164 521.625 312.207 Q521.5 312.5977 521.5 313.6445 L521.5 316.457 L519.8438 316.457 L519.8438 310.2383 L521.375 310.2383 L521.375 311.1445 Q522.1875 310.0977 523.4375 310.0977 Q523.9688 310.0977 524.4219 310.293 Q524.875 310.4883 525.1094 310.793 Q525.3438 311.0977 525.4297 311.4805 Q525.5156 311.8633 525.5156 312.582 L525.5156 316.457 ZM528.0938 312.1289 L526.5938 311.8633 Q526.8438 310.957 527.4609 310.5273 Q528.0781 310.0977 529.2969 310.0977 Q530.3906 310.0977 530.9297 310.3555 Q531.4688 310.6133 531.6875 311.0117 Q531.9062 311.4102 531.9062 312.4883 L531.8906 314.4102 Q531.8906 315.2383 531.9688 315.6211 Q532.0469 316.0039 532.2656 316.457 L530.6406 316.457 Q530.5781 316.2852 530.4844 315.9727 Q530.4375 315.8164 530.4219 315.7695 Q530 316.1914 529.5234 316.3945 Q529.0469 316.5977 528.5 316.5977 Q527.5312 316.5977 526.9766 316.0742 Q526.4219 315.5508 526.4219 314.7539 Q526.4219 314.2227 526.6797 313.8164 Q526.9375 313.4102 527.3906 313.1836 Q527.8438 312.957 528.7031 312.8008 Q529.8438 312.582 530.2969 312.3945 L530.2969 312.2383 Q530.2969 311.7539 530.0625 311.5508 Q529.8281 311.3477 529.1719 311.3477 Q528.7344 311.3477 528.4922 311.5195 Q528.25 311.6914 528.0938 312.1289 ZM530.2969 313.4727 Q529.9844 313.5664 529.2969 313.7148 Q528.6094 313.8633 528.3906 314.0039 Q528.0781 314.2383 528.0781 314.582 Q528.0781 314.9258 528.3359 315.1836 Q528.5938 315.4414 528.9844 315.4414 Q529.4375 315.4414 529.8438 315.1445 Q530.1406 314.9258 530.2344 314.5977 Q530.2969 314.3945 530.2969 313.8008 L530.2969 313.4727 ZM533.7344 310.2383 L535.25 310.2383 L535.25 311.082 Q536.0781 310.0977 537.2031 310.0977 Q537.7969 310.0977 538.2344 310.3398 Q538.6719 310.582 538.9531 311.082 Q539.3594 310.582 539.8359 310.3398 Q540.3125 310.0977 540.8594 310.0977 Q541.5312 310.0977 542.0078 310.3711 Q542.4844 310.6445 542.7188 311.1914 Q542.8906 311.582 542.8906 312.4727 L542.8906 316.457 L541.25 316.457 L541.25 312.8945 Q541.25 311.9727 541.0781 311.707 Q540.8438 311.3477 540.375 311.3477 Q540.0312 311.3477 539.7266 311.5586 Q539.4219 311.7695 539.2812 312.1758 Q539.1406 312.582 539.1406 313.4727 L539.1406 316.457 L537.5 316.457 L537.5 313.0508 Q537.5 312.1445 537.4141 311.8789 Q537.3281 311.6133 537.1406 311.4805 Q536.9531 311.3477 536.6406 311.3477 Q536.2656 311.3477 535.9609 311.5586 Q535.6562 311.7695 535.5234 312.1523 Q535.3906 312.5352 535.3906 313.4258 L535.3906 316.457 L533.7344 316.457 L533.7344 310.2383 ZM548.4688 314.4727 L550.1094 314.7539 Q549.7969 315.6602 549.1094 316.1289 Q548.4219 316.5977 547.4062 316.5977 Q545.7812 316.5977 545 315.5352 Q544.375 314.6914 544.375 313.3945 Q544.375 311.8477 545.1875 310.9727 Q546 310.0977 547.2344 310.0977 Q548.625 310.0977 549.4297 311.0117 Q550.2344 311.9258 550.1875 313.8164 L546.0625 313.8164 Q546.0938 314.5508 546.4688 314.957 Q546.8438 315.3633 547.4219 315.3633 Q547.7969 315.3633 548.0625 315.1523 Q548.3281 314.9414 548.4688 314.4727 ZM548.5625 312.8164 Q548.5469 312.0977 548.1953 311.7227 Q547.8438 311.3477 547.3281 311.3477 Q546.7969 311.3477 546.4375 311.7383 Q546.0938 312.1445 546.0938 312.8164 L548.5625 312.8164 ZM557.5156 316.457 L555.875 316.457 L555.875 313.2852 Q555.875 312.2695 555.7734 311.9727 Q555.6719 311.6758 555.4297 311.5117 Q555.1875 311.3477 554.8594 311.3477 Q554.4219 311.3477 554.0859 311.582 Q553.75 311.8164 553.625 312.207 Q553.5 312.5977 553.5 313.6445 L553.5 316.457 L551.8438 316.457 L551.8438 310.2383 L553.375 310.2383 L553.375 311.1445 Q554.1875 310.0977 555.4375 310.0977 Q555.9688 310.0977 556.4219 310.293 Q556.875 310.4883 557.1094 310.793 Q557.3438 311.0977 557.4297 311.4805 Q557.5156 311.8633 557.5156 312.582 L557.5156 316.457 ZM561.7344 310.2383 L563.25 310.2383 L563.25 311.082 Q564.0781 310.0977 565.2031 310.0977 Q565.7969 310.0977 566.2344 310.3398 Q566.6719 310.582 566.9531 311.082 Q567.3594 310.582 567.8359 310.3398 Q568.3125 310.0977 568.8594 310.0977 Q569.5312 310.0977 570.0078 310.3711 Q570.4844 310.6445 570.7188 311.1914 Q570.8906 311.582 570.8906 312.4727 L570.8906 316.457 L569.25 316.457 L569.25 312.8945 Q569.25 311.9727 569.0781 311.707 Q568.8438 311.3477 568.375 311.3477 Q568.0312 311.3477 567.7266 311.5586 Q567.4219 311.7695 567.2812 312.1758 Q567.1406 312.582 567.1406 313.4727 L567.1406 316.457 L565.5 316.457 L565.5 313.0508 Q565.5 312.1445 565.4141 311.8789 Q565.3281 311.6133 565.1406 311.4805 Q564.9531 311.3477 564.6406 311.3477 Q564.2656 311.3477 563.9609 311.5586 Q563.6562 311.7695 563.5234 312.1523 Q563.3906 312.5352 563.3906 313.4258 L563.3906 316.457 L561.7344 316.457 L561.7344 310.2383 ZM572.8594 309.3945 L572.8594 307.8633 L574.5156 307.8633 L574.5156 309.3945 L572.8594 309.3945 ZM572.8594 316.457 L572.8594 310.2383 L574.5156 310.2383 L574.5156 316.457 L572.8594 316.457 ZM578.7188 310.2383 L578.7188 311.5508 L577.5938 311.5508 L577.5938 314.0508 Q577.5938 314.8164 577.625 314.9414 Q577.6562 315.0664 577.7734 315.1523 Q577.8906 315.2383 578.0469 315.2383 Q578.2812 315.2383 578.7031 315.0664 L578.8438 316.3477 Q578.2812 316.5977 577.5469 316.5977 Q577.1094 316.5977 576.75 316.4492 Q576.3906 316.3008 576.2266 316.0586 Q576.0625 315.8164 575.9844 315.4258 Q575.9375 315.1289 575.9375 314.2539 L575.9375 311.5508 L575.1875 311.5508 L575.1875 310.2383 L575.9375 310.2383 L575.9375 309.0039 L577.5938 308.0352 L577.5938 310.2383 L578.7188 310.2383 ZM582.7188 310.2383 L582.7188 311.5508 L581.5938 311.5508 L581.5938 314.0508 Q581.5938 314.8164 581.625 314.9414 Q581.6562 315.0664 581.7734 315.1523 Q581.8906 315.2383 582.0469 315.2383 Q582.2812 315.2383 582.7031 315.0664 L582.8438 316.3477 Q582.2812 316.5977 581.5469 316.5977 Q581.1094 316.5977 580.75 316.4492 Q580.3906 316.3008 580.2266 316.0586 Q580.0625 315.8164 579.9844 315.4258 Q579.9375 315.1289 579.9375 314.2539 L579.9375 311.5508 L579.1875 311.5508 L579.1875 310.2383 L579.9375 310.2383 L579.9375 309.0039 L581.5938 308.0352 L581.5938 310.2383 L582.7188 310.2383 ZM587.4688 314.4727 L589.1094 314.7539 Q588.7969 315.6602 588.1094 316.1289 Q587.4219 316.5977 586.4062 316.5977 Q584.7812 316.5977 584 315.5352 Q583.375 314.6914 583.375 313.3945 Q583.375 311.8477 584.1875 310.9727 Q585 310.0977 586.2344 310.0977 Q587.625 310.0977 588.4297 311.0117 Q589.2344 311.9258 589.1875 313.8164 L585.0625 313.8164 Q585.0938 314.5508 585.4688 314.957 Q585.8438 315.3633 586.4219 315.3633 Q586.7969 315.3633 587.0625 315.1523 Q587.3281 314.9414 587.4688 314.4727 ZM587.5625 312.8164 Q587.5469 312.0977 587.1953 311.7227 Q586.8438 311.3477 586.3281 311.3477 Q585.7969 311.3477 585.4375 311.7383 Q585.0938 312.1445 585.0938 312.8164 L587.5625 312.8164 ZM590.8594 309.3945 L590.8594 307.8633 L592.5156 307.8633 L592.5156 309.3945 L590.8594 309.3945 ZM590.8594 316.457 L590.8594 310.2383 L592.5156 310.2383 L592.5156 316.457 L590.8594 316.457 ZM593.8594 316.457 L593.8594 307.8633 L595.5156 307.8633 L595.5156 316.457 L593.8594 316.457 ZM600.4688 314.4727 L602.1094 314.7539 Q601.7969 315.6602 601.1094 316.1289 Q600.4219 316.5977 599.4062 316.5977 Q597.7812 316.5977 597 315.5352 Q596.375 314.6914 596.375 313.3945 Q596.375 311.8477 597.1875 310.9727 Q598 310.0977 599.2344 310.0977 Q600.625 310.0977 601.4297 311.0117 Q602.2344 311.9258 602.1875 313.8164 L598.0625 313.8164 Q598.0938 314.5508 598.4688 314.957 Q598.8438 315.3633 599.4219 315.3633 Q599.7969 315.3633 600.0625 315.1523 Q600.3281 314.9414 600.4688 314.4727 ZM600.5625 312.8164 Q600.5469 312.0977 600.1953 311.7227 Q599.8438 311.3477 599.3281 311.3477 Q598.7969 311.3477 598.4375 311.7383 Q598.0938 312.1445 598.0938 312.8164 L600.5625 312.8164 ZM609.5156 316.457 L607.875 316.457 L607.875 313.2852 Q607.875 312.2695 607.7734 311.9727 Q607.6719 311.6758 607.4297 311.5117 Q607.1875 311.3477 606.8594 311.3477 Q606.4219 311.3477 606.0859 311.582 Q605.75 311.8164 605.625 312.207 Q605.5 312.5977 605.5 313.6445 L605.5 316.457 L603.8438 316.457 L603.8438 310.2383 L605.375 310.2383 L605.375 311.1445 Q606.1875 310.0977 607.4375 310.0977 Q607.9688 310.0977 608.4219 310.293 Q608.875 310.4883 609.1094 310.793 Q609.3438 311.0977 609.4297 311.4805 Q609.5156 311.8633 609.5156 312.582 L609.5156 316.457 Z" clip-path="url(#clipPath2)" stroke="none"/><path fill="black" d="M743.8906 215.457 L743.8906 206.8633 L745.625 206.8633 L745.625 210.6758 L749.1406 206.8633 L751.4688 206.8633 L748.2344 210.207 L751.6406 215.457 L749.4062 215.457 L747.0312 211.4258 L745.625 212.8633 L745.625 215.457 L743.8906 215.457 ZM753.4375 215.457 L751.7969 215.457 L751.7969 209.2383 L753.3281 209.2383 L753.3281 210.1133 Q753.7188 209.4883 754.0312 209.293 Q754.3438 209.0977 754.7344 209.0977 Q755.2969 209.0977 755.8281 209.4102 L755.3125 210.832 Q754.8906 210.5664 754.5469 210.5664 Q754.1875 210.5664 753.9531 210.7617 Q753.7188 210.957 753.5781 211.4492 Q753.4375 211.9414 753.4375 213.5352 L753.4375 215.457 ZM758.0938 211.1289 L756.5938 210.8633 Q756.8438 209.957 757.4609 209.5273 Q758.0781 209.0977 759.2969 209.0977 Q760.3906 209.0977 760.9297 209.3555 Q761.4688 209.6133 761.6875 210.0117 Q761.9062 210.4102 761.9062 211.4883 L761.8906 213.4102 Q761.8906 214.2383 761.9688 214.6211 Q762.0469 215.0039 762.2656 215.457 L760.6406 215.457 Q760.5781 215.2852 760.4844 214.9727 Q760.4375 214.8164 760.4219 214.7695 Q760 215.1914 759.5234 215.3945 Q759.0469 215.5977 758.5 215.5977 Q757.5312 215.5977 756.9766 215.0742 Q756.4219 214.5508 756.4219 213.7539 Q756.4219 213.2227 756.6797 212.8164 Q756.9375 212.4102 757.3906 212.1836 Q757.8438 211.957 758.7031 211.8008 Q759.8438 211.582 760.2969 211.3945 L760.2969 211.2383 Q760.2969 210.7539 760.0625 210.5508 Q759.8281 210.3477 759.1719 210.3477 Q758.7344 210.3477 758.4922 210.5195 Q758.25 210.6914 758.0938 211.1289 ZM760.2969 212.4727 Q759.9844 212.5664 759.2969 212.7148 Q758.6094 212.8633 758.3906 213.0039 Q758.0781 213.2383 758.0781 213.582 Q758.0781 213.9258 758.3359 214.1836 Q758.5938 214.4414 758.9844 214.4414 Q759.4375 214.4414 759.8438 214.1445 Q760.1406 213.9258 760.2344 213.5977 Q760.2969 213.3945 760.2969 212.8008 L760.2969 212.4727 ZM763.1406 209.2383 L764.0625 209.2383 L764.0625 208.7695 Q764.0625 207.9727 764.2266 207.5898 Q764.3906 207.207 764.8359 206.9648 Q765.2812 206.7227 765.9688 206.7227 Q766.6719 206.7227 767.3438 206.9258 L767.125 208.082 Q766.7344 207.9883 766.375 207.9883 Q766.0156 207.9883 765.8594 208.1523 Q765.7031 208.3164 765.7031 208.8008 L765.7031 209.2383 L766.9375 209.2383 L766.9375 210.5352 L765.7031 210.5352 L765.7031 215.457 L764.0625 215.457 L764.0625 210.5352 L763.1406 210.5352 L763.1406 209.2383 ZM770.7188 209.2383 L770.7188 210.5508 L769.5938 210.5508 L769.5938 213.0508 Q769.5938 213.8164 769.625 213.9414 Q769.6562 214.0664 769.7734 214.1523 Q769.8906 214.2383 770.0469 214.2383 Q770.2812 214.2383 770.7031 214.0664 L770.8438 215.3477 Q770.2812 215.5977 769.5469 215.5977 Q769.1094 215.5977 768.75 215.4492 Q768.3906 215.3008 768.2266 215.0586 Q768.0625 214.8164 767.9844 214.4258 Q767.9375 214.1289 767.9375 213.2539 L767.9375 210.5508 L767.1875 210.5508 L767.1875 209.2383 L767.9375 209.2383 L767.9375 208.0039 L769.5938 207.0352 L769.5938 209.2383 L770.7188 209.2383 ZM771.1406 209.2383 L772.0625 209.2383 L772.0625 208.7695 Q772.0625 207.9727 772.2266 207.5898 Q772.3906 207.207 772.8359 206.9648 Q773.2812 206.7227 773.9688 206.7227 Q774.6719 206.7227 775.3438 206.9258 L775.125 208.082 Q774.7344 207.9883 774.375 207.9883 Q774.0156 207.9883 773.8594 208.1523 Q773.7031 208.3164 773.7031 208.8008 L773.7031 209.2383 L774.9375 209.2383 L774.9375 210.5352 L773.7031 210.5352 L773.7031 215.457 L772.0625 215.457 L772.0625 210.5352 L771.1406 210.5352 L771.1406 209.2383 ZM777.0938 211.1289 L775.5938 210.8633 Q775.8438 209.957 776.4609 209.5273 Q777.0781 209.0977 778.2969 209.0977 Q779.3906 209.0977 779.9297 209.3555 Q780.4688 209.6133 780.6875 210.0117 Q780.9062 210.4102 780.9062 211.4883 L780.8906 213.4102 Q780.8906 214.2383 780.9688 214.6211 Q781.0469 215.0039 781.2656 215.457 L779.6406 215.457 Q779.5781 215.2852 779.4844 214.9727 Q779.4375 214.8164 779.4219 214.7695 Q779 215.1914 778.5234 215.3945 Q778.0469 215.5977 777.5 215.5977 Q776.5312 215.5977 775.9766 215.0742 Q775.4219 214.5508 775.4219 213.7539 Q775.4219 213.2227 775.6797 212.8164 Q775.9375 212.4102 776.3906 212.1836 Q776.8438 211.957 777.7031 211.8008 Q778.8438 211.582 779.2969 211.3945 L779.2969 211.2383 Q779.2969 210.7539 779.0625 210.5508 Q778.8281 210.3477 778.1719 210.3477 Q777.7344 210.3477 777.4922 210.5195 Q777.25 210.6914 777.0938 211.1289 ZM779.2969 212.4727 Q778.9844 212.5664 778.2969 212.7148 Q777.6094 212.8633 777.3906 213.0039 Q777.0781 213.2383 777.0781 213.582 Q777.0781 213.9258 777.3359 214.1836 Q777.5938 214.4414 777.9844 214.4414 Q778.4375 214.4414 778.8438 214.1445 Q779.1406 213.9258 779.2344 213.5977 Q779.2969 213.3945 779.2969 212.8008 L779.2969 212.4727 ZM784.5 206.8633 L784.5 210.0195 Q785.2969 209.0977 786.4062 209.0977 Q786.9688 209.0977 787.4297 209.3086 Q787.8906 209.5195 788.125 209.8477 Q788.3594 210.1758 788.4375 210.5742 Q788.5156 210.9727 788.5156 211.8008 L788.5156 215.457 L786.875 215.457 L786.875 212.1758 Q786.875 211.1914 786.7812 210.9258 Q786.6875 210.6602 786.4531 210.5039 Q786.2188 210.3477 785.8594 210.3477 Q785.4531 210.3477 785.125 210.5508 Q784.7969 210.7539 784.6484 211.1523 Q784.5 211.5508 784.5 212.332 L784.5 215.457 L782.8594 215.457 L782.8594 206.8633 L784.5 206.8633 ZM791.4375 215.457 L789.7969 215.457 L789.7969 209.2383 L791.3281 209.2383 L791.3281 210.1133 Q791.7188 209.4883 792.0312 209.293 Q792.3438 209.0977 792.7344 209.0977 Q793.2969 209.0977 793.8281 209.4102 L793.3125 210.832 Q792.8906 210.5664 792.5469 210.5664 Q792.1875 210.5664 791.9531 210.7617 Q791.7188 210.957 791.5781 211.4492 Q791.4375 211.9414 791.4375 213.5352 L791.4375 215.457 ZM797.7188 209.2383 L797.7188 210.5508 L796.5938 210.5508 L796.5938 213.0508 Q796.5938 213.8164 796.625 213.9414 Q796.6562 214.0664 796.7734 214.1523 Q796.8906 214.2383 797.0469 214.2383 Q797.2812 214.2383 797.7031 214.0664 L797.8438 215.3477 Q797.2812 215.5977 796.5469 215.5977 Q796.1094 215.5977 795.75 215.4492 Q795.3906 215.3008 795.2266 215.0586 Q795.0625 214.8164 794.9844 214.4258 Q794.9375 214.1289 794.9375 213.2539 L794.9375 210.5508 L794.1875 210.5508 L794.1875 209.2383 L794.9375 209.2383 L794.9375 208.0039 L796.5938 207.0352 L796.5938 209.2383 L797.7188 209.2383 ZM798.6719 213.1602 L798.6719 211.5195 L801.9062 211.5195 L801.9062 213.1602 L798.6719 213.1602 ZM802.875 206.8633 L806.3125 206.8633 Q807.3281 206.8633 807.8281 206.9492 Q808.3281 207.0352 808.7266 207.3086 Q809.125 207.582 809.3906 208.0273 Q809.6562 208.4727 809.6562 209.0352 Q809.6562 209.6289 809.3281 210.1367 Q809 210.6445 808.4531 210.8945 Q809.2344 211.1133 809.6562 211.668 Q810.0781 212.2227 810.0781 212.9727 Q810.0781 213.5508 809.8047 214.1055 Q809.5312 214.6602 809.0625 214.9883 Q808.5938 215.3164 807.8906 215.3945 Q807.4688 215.4414 805.7969 215.457 L802.875 215.457 L802.875 206.8633 ZM804.6094 208.3008 L804.6094 210.2852 L805.75 210.2852 Q806.7656 210.2852 807.0156 210.2539 Q807.4531 210.207 807.7109 209.9492 Q807.9688 209.6914 807.9688 209.2695 Q807.9688 208.8789 807.75 208.6289 Q807.5312 208.3789 807.0938 208.332 Q806.8281 208.3008 805.6094 208.3008 L804.6094 208.3008 ZM804.6094 211.707 L804.6094 214.0039 L806.2188 214.0039 Q807.1562 214.0039 807.4062 213.957 Q807.7969 213.8789 808.0391 213.6133 Q808.2812 213.3477 808.2812 212.8789 Q808.2812 212.5039 808.0938 212.2305 Q807.9062 211.957 807.5547 211.832 Q807.2031 211.707 806.0156 211.707 L804.6094 211.707 ZM814.9531 215.457 L814.9531 214.5195 Q814.625 215.0195 814.0703 215.3086 Q813.5156 215.5977 812.8906 215.5977 Q812.2656 215.5977 811.7656 215.3242 Q811.2656 215.0508 811.0469 214.5508 Q810.8281 214.0508 810.8281 213.1758 L810.8281 209.2383 L812.4688 209.2383 L812.4688 212.0977 Q812.4688 213.4102 812.5625 213.707 Q812.6562 214.0039 812.8984 214.1758 Q813.1406 214.3477 813.5 214.3477 Q813.9219 214.3477 814.2578 214.1133 Q814.5938 213.8789 814.7188 213.5352 Q814.8438 213.1914 814.8438 211.8633 L814.8438 209.2383 L816.4844 209.2383 L816.4844 215.457 L814.9531 215.457 ZM823.5156 215.457 L821.875 215.457 L821.875 212.2852 Q821.875 211.2695 821.7734 210.9727 Q821.6719 210.6758 821.4297 210.5117 Q821.1875 210.3477 820.8594 210.3477 Q820.4219 210.3477 820.0859 210.582 Q819.75 210.8164 819.625 211.207 Q819.5 211.5977 819.5 212.6445 L819.5 215.457 L817.8438 215.457 L817.8438 209.2383 L819.375 209.2383 L819.375 210.1445 Q820.1875 209.0977 821.4375 209.0977 Q821.9688 209.0977 822.4219 209.293 Q822.875 209.4883 823.1094 209.793 Q823.3438 210.0977 823.4297 210.4805 Q823.5156 210.8633 823.5156 211.582 L823.5156 215.457 ZM830.5625 215.457 L829.0469 215.457 L829.0469 214.5352 Q828.6562 215.082 828.1406 215.3398 Q827.625 215.5977 827.0938 215.5977 Q826.0156 215.5977 825.2578 214.7305 Q824.5 213.8633 824.5 212.3164 Q824.5 210.7383 825.2422 209.918 Q825.9844 209.0977 827.125 209.0977 Q828.1562 209.0977 828.9219 209.957 L828.9219 206.8633 L830.5625 206.8633 L830.5625 215.457 ZM826.1719 212.207 Q826.1719 213.207 826.4531 213.6445 Q826.8438 214.3008 827.5625 214.3008 Q828.125 214.3008 828.5234 213.8164 Q828.9219 213.332 828.9219 212.3633 Q828.9219 211.3008 828.5391 210.8242 Q828.1562 210.3477 827.5469 210.3477 Q826.9688 210.3477 826.5703 210.8164 Q826.1719 211.2852 826.1719 212.207 ZM835.4688 213.4727 L837.1094 213.7539 Q836.7969 214.6602 836.1094 215.1289 Q835.4219 215.5977 834.4062 215.5977 Q832.7812 215.5977 832 214.5352 Q831.375 213.6914 831.375 212.3945 Q831.375 210.8477 832.1875 209.9727 Q833 209.0977 834.2344 209.0977 Q835.625 209.0977 836.4297 210.0117 Q837.2344 210.9258 837.1875 212.8164 L833.0625 212.8164 Q833.0938 213.5508 833.4688 213.957 Q833.8438 214.3633 834.4219 214.3633 Q834.7969 214.3633 835.0625 214.1523 Q835.3281 213.9414 835.4688 213.4727 ZM835.5625 211.8164 Q835.5469 211.0977 835.1953 210.7227 Q834.8438 210.3477 834.3281 210.3477 Q833.7969 210.3477 833.4375 210.7383 Q833.0938 211.1445 833.0938 211.8164 L835.5625 211.8164 ZM838.2812 213.6758 L839.9375 213.4258 Q840.0469 213.9102 840.3672 214.1602 Q840.6875 214.4102 841.2656 214.4102 Q841.9062 214.4102 842.2188 214.1758 Q842.4375 214.0039 842.4375 213.7383 Q842.4375 213.5508 842.3281 213.4258 Q842.2031 213.3008 841.7812 213.207 Q839.7812 212.7695 839.25 212.4102 Q838.5156 211.8945 838.5156 211.0039 Q838.5156 210.1914 839.1484 209.6445 Q839.7812 209.0977 841.125 209.0977 Q842.4062 209.0977 843.0312 209.5117 Q843.6562 209.9258 843.8906 210.7383 L842.3281 211.0195 Q842.2344 210.6602 841.9531 210.4648 Q841.6719 210.2695 841.1562 210.2695 Q840.5156 210.2695 840.2344 210.457 Q840.0469 210.582 840.0469 210.7852 Q840.0469 210.9727 840.2031 211.0977 Q840.4219 211.2539 841.7422 211.5508 Q843.0625 211.8477 843.5781 212.2852 Q844.0938 212.7227 844.0938 213.5039 Q844.0938 214.3633 843.3828 214.9805 Q842.6719 215.5977 841.2656 215.5977 Q840 215.5977 839.2578 215.082 Q838.5156 214.5664 838.2812 213.6758 ZM847.0938 211.1289 L845.5938 210.8633 Q845.8438 209.957 846.4609 209.5273 Q847.0781 209.0977 848.2969 209.0977 Q849.3906 209.0977 849.9297 209.3555 Q850.4688 209.6133 850.6875 210.0117 Q850.9062 210.4102 850.9062 211.4883 L850.8906 213.4102 Q850.8906 214.2383 850.9688 214.6211 Q851.0469 215.0039 851.2656 215.457 L849.6406 215.457 Q849.5781 215.2852 849.4844 214.9727 Q849.4375 214.8164 849.4219 214.7695 Q849 215.1914 848.5234 215.3945 Q848.0469 215.5977 847.5 215.5977 Q846.5312 215.5977 845.9766 215.0742 Q845.4219 214.5508 845.4219 213.7539 Q845.4219 213.2227 845.6797 212.8164 Q845.9375 212.4102 846.3906 212.1836 Q846.8438 211.957 847.7031 211.8008 Q848.8438 211.582 849.2969 211.3945 L849.2969 211.2383 Q849.2969 210.7539 849.0625 210.5508 Q848.8281 210.3477 848.1719 210.3477 Q847.7344 210.3477 847.4922 210.5195 Q847.25 210.6914 847.0938 211.1289 ZM849.2969 212.4727 Q848.9844 212.5664 848.2969 212.7148 Q847.6094 212.8633 847.3906 213.0039 Q847.0781 213.2383 847.0781 213.582 Q847.0781 213.9258 847.3359 214.1836 Q847.5938 214.4414 847.9844 214.4414 Q848.4375 214.4414 848.8438 214.1445 Q849.1406 213.9258 849.2344 213.5977 Q849.2969 213.3945 849.2969 212.8008 L849.2969 212.4727 ZM852.7344 209.2383 L854.25 209.2383 L854.25 210.082 Q855.0781 209.0977 856.2031 209.0977 Q856.7969 209.0977 857.2344 209.3398 Q857.6719 209.582 857.9531 210.082 Q858.3594 209.582 858.8359 209.3398 Q859.3125 209.0977 859.8594 209.0977 Q860.5312 209.0977 861.0078 209.3711 Q861.4844 209.6445 861.7188 210.1914 Q861.8906 210.582 861.8906 211.4727 L861.8906 215.457 L860.25 215.457 L860.25 211.8945 Q860.25 210.9727 860.0781 210.707 Q859.8438 210.3477 859.375 210.3477 Q859.0312 210.3477 858.7266 210.5586 Q858.4219 210.7695 858.2812 211.1758 Q858.1406 211.582 858.1406 212.4727 L858.1406 215.457 L856.5 215.457 L856.5 212.0508 Q856.5 211.1445 856.4141 210.8789 Q856.3281 210.6133 856.1406 210.4805 Q855.9531 210.3477 855.6406 210.3477 Q855.2656 210.3477 854.9609 210.5586 Q854.6562 210.7695 854.5234 211.1523 Q854.3906 211.5352 854.3906 212.4258 L854.3906 215.457 L852.7344 215.457 L852.7344 209.2383 ZM866.7188 209.2383 L866.7188 210.5508 L865.5938 210.5508 L865.5938 213.0508 Q865.5938 213.8164 865.625 213.9414 Q865.6562 214.0664 865.7734 214.1523 Q865.8906 214.2383 866.0469 214.2383 Q866.2812 214.2383 866.7031 214.0664 L866.8438 215.3477 Q866.2812 215.5977 865.5469 215.5977 Q865.1094 215.5977 864.75 215.4492 Q864.3906 215.3008 864.2266 215.0586 Q864.0625 214.8164 863.9844 214.4258 Q863.9375 214.1289 863.9375 213.2539 L863.9375 210.5508 L863.1875 210.5508 L863.1875 209.2383 L863.9375 209.2383 L863.9375 208.0039 L865.5938 207.0352 L865.5938 209.2383 L866.7188 209.2383 Z" clip-path="url(#clipPath2)" stroke="none"/><line clip-path="url(#clipPath2)" fill="none" x1="806" x2="806" y1="181" y2="193" stroke="rgb(178,178,178)"/><line clip-path="url(#clipPath2)" fill="none" x1="790" x2="822" y1="187" y2="187" stroke="rgb(178,178,178)"/><line clip-path="url(#clipPath2)" fill="none" x1="790" x2="806" y1="204" y2="193" stroke="rgb(178,178,178)"/><line clip-path="url(#clipPath2)" fill="none" x1="822" x2="806" y1="204" y2="193" stroke="rgb(178,178,178)"/><line clip-path="url(#clipPath2)" fill="none" x1="807" x2="807" y1="181" y2="194" stroke="rgb(178,178,178)"/><line clip-path="url(#clipPath2)" fill="none" x1="791" x2="823" y1="188" y2="188" stroke="rgb(178,178,178)"/><line clip-path="url(#clipPath2)" fill="none" x1="791" x2="807" y1="205" y2="194" stroke="rgb(178,178,178)"/><line clip-path="url(#clipPath2)" fill="none" x1="823" x2="807" y1="205" y2="194" stroke="rgb(178,178,178)"/><circle fill="rgb(178,178,178)" r="5.5" clip-path="url(#clipPath2)" cx="807.5" cy="177.5" stroke="none"/><circle fill="url(#linearGradient3)" r="5.5" clip-path="url(#clipPath2)" cx="805.5" cy="175.5" stroke="none"/><circle fill="none" r="5.5" clip-path="url(#clipPath2)" cx="805.5" cy="175.5"/><line y2="192" fill="none" x1="805" clip-path="url(#clipPath2)" x2="805" y1="181"/><line y2="186" fill="none" x1="789" clip-path="url(#clipPath2)" x2="821" y1="186"/><line y2="192" fill="none" x1="789" clip-path="url(#clipPath2)" x2="805" y1="203"/><line y2="192" fill="none" x1="821" clip-path="url(#clipPath2)" x2="805" y1="203"/><path fill="black" d="M293.8438 215.457 L293.8438 206.8633 L296.4531 206.8633 L298 212.7227 L299.5469 206.8633 L302.1406 206.8633 L302.1406 215.457 L300.5312 215.457 L300.5312 208.6914 L298.8281 215.457 L297.1562 215.457 L295.4688 208.6914 L295.4688 215.457 L293.8438 215.457 ZM307.4688 213.4727 L309.1094 213.7539 Q308.7969 214.6602 308.1094 215.1289 Q307.4219 215.5977 306.4062 215.5977 Q304.7812 215.5977 304 214.5352 Q303.375 213.6914 303.375 212.3945 Q303.375 210.8477 304.1875 209.9727 Q305 209.0977 306.2344 209.0977 Q307.625 209.0977 308.4297 210.0117 Q309.2344 210.9258 309.1875 212.8164 L305.0625 212.8164 Q305.0938 213.5508 305.4688 213.957 Q305.8438 214.3633 306.4219 214.3633 Q306.7969 214.3633 307.0625 214.1523 Q307.3281 213.9414 307.4688 213.4727 ZM307.5625 211.8164 Q307.5469 211.0977 307.1953 210.7227 Q306.8438 210.3477 306.3281 210.3477 Q305.7969 210.3477 305.4375 210.7383 Q305.0938 211.1445 305.0938 211.8164 L307.5625 211.8164 ZM310.8594 215.457 L310.8594 206.8633 L312.5156 206.8633 L312.5156 215.457 L310.8594 215.457 ZM319.5625 215.457 L318.0469 215.457 L318.0469 214.5352 Q317.6562 215.082 317.1406 215.3398 Q316.625 215.5977 316.0938 215.5977 Q315.0156 215.5977 314.2578 214.7305 Q313.5 213.8633 313.5 212.3164 Q313.5 210.7383 314.2422 209.918 Q314.9844 209.0977 316.125 209.0977 Q317.1562 209.0977 317.9219 209.957 L317.9219 206.8633 L319.5625 206.8633 L319.5625 215.457 ZM315.1719 212.207 Q315.1719 213.207 315.4531 213.6445 Q315.8438 214.3008 316.5625 214.3008 Q317.125 214.3008 317.5234 213.8164 Q317.9219 213.332 317.9219 212.3633 Q317.9219 211.3008 317.5391 210.8242 Q317.1562 210.3477 316.5469 210.3477 Q315.9688 210.3477 315.5703 210.8164 Q315.1719 211.2852 315.1719 212.207 ZM324.4688 213.4727 L326.1094 213.7539 Q325.7969 214.6602 325.1094 215.1289 Q324.4219 215.5977 323.4062 215.5977 Q321.7812 215.5977 321 214.5352 Q320.375 213.6914 320.375 212.3945 Q320.375 210.8477 321.1875 209.9727 Q322 209.0977 323.2344 209.0977 Q324.625 209.0977 325.4297 210.0117 Q326.2344 210.9258 326.1875 212.8164 L322.0625 212.8164 Q322.0938 213.5508 322.4688 213.957 Q322.8438 214.3633 323.4219 214.3633 Q323.7969 214.3633 324.0625 214.1523 Q324.3281 213.9414 324.4688 213.4727 ZM324.5625 211.8164 Q324.5469 211.0977 324.1953 210.7227 Q323.8438 210.3477 323.3281 210.3477 Q322.7969 210.3477 322.4375 210.7383 Q322.0938 211.1445 322.0938 211.8164 L324.5625 211.8164 ZM327.7969 215.457 L327.7969 206.8633 L329.4375 206.8633 L329.4375 209.957 Q330.2031 209.0977 331.25 209.0977 Q332.375 209.0977 333.125 209.918 Q333.875 210.7383 333.875 212.2852 Q333.875 213.8789 333.1094 214.7383 Q332.3438 215.5977 331.2656 215.5977 Q330.7344 215.5977 330.2188 215.332 Q329.7031 215.0664 329.3281 214.5352 L329.3281 215.457 L327.7969 215.457 ZM329.4219 212.207 Q329.4219 213.1758 329.7344 213.6445 Q330.1562 214.3008 330.875 214.3008 Q331.4062 214.3008 331.7969 213.832 Q332.1875 213.3633 332.1875 212.3633 Q332.1875 211.3008 331.7969 210.8242 Q331.4062 210.3477 330.7969 210.3477 Q330.2188 210.3477 329.8203 210.8086 Q329.4219 211.2695 329.4219 212.207 ZM338.4688 213.4727 L340.1094 213.7539 Q339.7969 214.6602 339.1094 215.1289 Q338.4219 215.5977 337.4062 215.5977 Q335.7812 215.5977 335 214.5352 Q334.375 213.6914 334.375 212.3945 Q334.375 210.8477 335.1875 209.9727 Q336 209.0977 337.2344 209.0977 Q338.625 209.0977 339.4297 210.0117 Q340.2344 210.9258 340.1875 212.8164 L336.0625 212.8164 Q336.0938 213.5508 336.4688 213.957 Q336.8438 214.3633 337.4219 214.3633 Q337.7969 214.3633 338.0625 214.1523 Q338.3281 213.9414 338.4688 213.4727 ZM338.5625 211.8164 Q338.5469 211.0977 338.1953 210.7227 Q337.8438 210.3477 337.3281 210.3477 Q336.7969 210.3477 336.4375 210.7383 Q336.0938 211.1445 336.0938 211.8164 L338.5625 211.8164 ZM343.5 206.8633 L343.5 210.0195 Q344.2969 209.0977 345.4062 209.0977 Q345.9688 209.0977 346.4297 209.3086 Q346.8906 209.5195 347.125 209.8477 Q347.3594 210.1758 347.4375 210.5742 Q347.5156 210.9727 347.5156 211.8008 L347.5156 215.457 L345.875 215.457 L345.875 212.1758 Q345.875 211.1914 345.7812 210.9258 Q345.6875 210.6602 345.4531 210.5039 Q345.2188 210.3477 344.8594 210.3477 Q344.4531 210.3477 344.125 210.5508 Q343.7969 210.7539 343.6484 211.1523 Q343.5 211.5508 343.5 212.332 L343.5 215.457 L341.8594 215.457 L341.8594 206.8633 L343.5 206.8633 ZM348.4844 212.2539 Q348.4844 211.4414 348.8906 210.668 Q349.2969 209.8945 350.0312 209.4961 Q350.7656 209.0977 351.6875 209.0977 Q353.0938 209.0977 354 210.0117 Q354.9062 210.9258 354.9062 212.332 Q354.9062 213.7383 353.9922 214.668 Q353.0781 215.5977 351.7031 215.5977 Q350.8438 215.5977 350.0703 215.207 Q349.2969 214.8164 348.8906 214.0742 Q348.4844 213.332 348.4844 212.2539 ZM350.1719 212.3477 Q350.1719 213.2695 350.6094 213.7617 Q351.0469 214.2539 351.6875 214.2539 Q352.3438 214.2539 352.7734 213.7617 Q353.2031 213.2695 353.2031 212.332 Q353.2031 211.4258 352.7734 210.9336 Q352.3438 210.4414 351.6875 210.4414 Q351.0469 210.4414 350.6094 210.9336 Q350.1719 211.4258 350.1719 212.3477 ZM350.0625 207.457 L350.0625 206.0508 L351.4688 206.0508 L351.4688 207.457 L350.0625 207.457 ZM352.5781 207.457 L352.5781 206.0508 L354 206.0508 L354 207.457 L352.5781 207.457 ZM357.4375 215.457 L355.7969 215.457 L355.7969 209.2383 L357.3281 209.2383 L357.3281 210.1133 Q357.7188 209.4883 358.0312 209.293 Q358.3438 209.0977 358.7344 209.0977 Q359.2969 209.0977 359.8281 209.4102 L359.3125 210.832 Q358.8906 210.5664 358.5469 210.5664 Q358.1875 210.5664 357.9531 210.7617 Q357.7188 210.957 357.5781 211.4492 Q357.4375 211.9414 357.4375 213.5352 L357.4375 215.457 ZM366.5625 215.457 L365.0469 215.457 L365.0469 214.5352 Q364.6562 215.082 364.1406 215.3398 Q363.625 215.5977 363.0938 215.5977 Q362.0156 215.5977 361.2578 214.7305 Q360.5 213.8633 360.5 212.3164 Q360.5 210.7383 361.2422 209.918 Q361.9844 209.0977 363.125 209.0977 Q364.1562 209.0977 364.9219 209.957 L364.9219 206.8633 L366.5625 206.8633 L366.5625 215.457 ZM362.1719 212.207 Q362.1719 213.207 362.4531 213.6445 Q362.8438 214.3008 363.5625 214.3008 Q364.125 214.3008 364.5234 213.8164 Q364.9219 213.332 364.9219 212.3633 Q364.9219 211.3008 364.5391 210.8242 Q364.1562 210.3477 363.5469 210.3477 Q362.9688 210.3477 362.5703 210.8164 Q362.1719 211.2852 362.1719 212.207 ZM371.4688 213.4727 L373.1094 213.7539 Q372.7969 214.6602 372.1094 215.1289 Q371.4219 215.5977 370.4062 215.5977 Q368.7812 215.5977 368 214.5352 Q367.375 213.6914 367.375 212.3945 Q367.375 210.8477 368.1875 209.9727 Q369 209.0977 370.2344 209.0977 Q371.625 209.0977 372.4297 210.0117 Q373.2344 210.9258 373.1875 212.8164 L369.0625 212.8164 Q369.0938 213.5508 369.4688 213.957 Q369.8438 214.3633 370.4219 214.3633 Q370.7969 214.3633 371.0625 214.1523 Q371.3281 213.9414 371.4688 213.4727 ZM371.5625 211.8164 Q371.5469 211.0977 371.1953 210.7227 Q370.8438 210.3477 370.3281 210.3477 Q369.7969 210.3477 369.4375 210.7383 Q369.0938 211.1445 369.0938 211.8164 L371.5625 211.8164 Z" clip-path="url(#clipPath2)" stroke="none"/><line clip-path="url(#clipPath2)" fill="none" x1="334" x2="334" y1="181" y2="193" stroke="rgb(178,178,178)"/><line clip-path="url(#clipPath2)" fill="none" x1="318" x2="350" y1="187" y2="187" stroke="rgb(178,178,178)"/><line clip-path="url(#clipPath2)" fill="none" x1="318" x2="334" y1="204" y2="193" stroke="rgb(178,178,178)"/><line clip-path="url(#clipPath2)" fill="none" x1="350" x2="334" y1="204" y2="193" stroke="rgb(178,178,178)"/><line clip-path="url(#clipPath2)" fill="none" x1="335" x2="335" y1="181" y2="194" stroke="rgb(178,178,178)"/><line clip-path="url(#clipPath2)" fill="none" x1="319" x2="351" y1="188" y2="188" stroke="rgb(178,178,178)"/><line clip-path="url(#clipPath2)" fill="none" x1="319" x2="335" y1="205" y2="194" stroke="rgb(178,178,178)"/><line clip-path="url(#clipPath2)" fill="none" x1="351" x2="335" y1="205" y2="194" stroke="rgb(178,178,178)"/><circle fill="rgb(178,178,178)" r="5.5" clip-path="url(#clipPath2)" cx="335.5" cy="177.5" stroke="none"/><circle fill="url(#linearGradient4)" r="5.5" clip-path="url(#clipPath2)" cx="333.5" cy="175.5" stroke="none"/><circle fill="none" r="5.5" clip-path="url(#clipPath2)" cx="333.5" cy="175.5"/><line y2="192" fill="none" x1="333" clip-path="url(#clipPath2)" x2="333" y1="181"/><line y2="186" fill="none" x1="317" clip-path="url(#clipPath2)" x2="349" y1="186"/><line y2="192" fill="none" x1="317" clip-path="url(#clipPath2)" x2="333" y1="203"/><line y2="192" fill="none" x1="349" clip-path="url(#clipPath2)" x2="333" y1="203"/><path fill="none" d="M745 221 L604 283" clip-path="url(#clipPath2)"/><path fill="none" d="M789 191 L648 159" clip-path="url(#clipPath2)"/><path fill="none" d="M511 283 L378 217" clip-path="url(#clipPath2)"/><path fill="none" d="M456 162 L350 191" clip-path="url(#clipPath2)"/></g></g></svg>