<?xml version="1.0" encoding="UTF-8"?><svg xmlns="http://www.w3.org/2000/svg" xmlns:xlink="http://www.w3.org/1999/xlink" fill-opacity="1" color-rendering="auto" color-interpolation="auto" stroke="black" text-rendering="auto" stroke-linecap="square" width="8.333333333333334in" stroke-miterlimit="10" stroke-opacity="1" shape-rendering="auto" fill="black" stroke-dasharray="none" font-weight="normal" stroke-width="1" viewBox="0 0 800 121" height="1.2604166666666667in" font-family="'Arial'" font-style="normal" stroke-linejoin="miter" font-size="12" stroke-dashoffset="0" image-rendering="auto" preserveAspectRatio="xMidYMid meet" zoomAndPan="magnify" version="1.0" contentScriptType="text/ecmascript" contentStyleType="text/css"><!--Generated by the Batik Graphics2D SVG Generator
 This is MagicDraw diagram.--><defs id="genericDefs"/><g><defs id="defs1"><linearGradient x1="400" gradientUnits="userSpaceOnUse" x2="580" y1="270" y2="364" id="linearGradient1" spreadMethod="pad" xlink:type="simple" xlink:show="other" xlink:actuate="onLoad"><stop stop-opacity="1" stop-color="yellow" offset="0%"/><stop stop-opacity="1" stop-color="yellow" offset="100%"/></linearGradient><linearGradient x1="662" gradientUnits="userSpaceOnUse" x2="695" y1="290" y2="323" id="linearGradient2" spreadMethod="pad" xlink:type="simple" xlink:show="other" xlink:actuate="onLoad"><stop stop-opacity="1" stop-color="rgb(255,204,153)" offset="0%"/><stop stop-opacity="1" stop-color="rgb(255,255,218)" offset="100%"/></linearGradient><linearGradient x1="830" gradientUnits="userSpaceOnUse" x2="970" y1="280" y2="352" id="linearGradient3" spreadMethod="pad" xlink:type="simple" xlink:show="other" xlink:actuate="onLoad"><stop stop-opacity="1" stop-color="white" offset="0%"/><stop stop-opacity="1" stop-color="white" offset="100%"/></linearGradient><linearGradient x1="217" gradientUnits="userSpaceOnUse" x2="250" y1="290" y2="323" id="linearGradient4" spreadMethod="pad" xlink:type="simple" xlink:show="other" xlink:actuate="onLoad"><stop stop-opacity="1" stop-color="rgb(255,204,153)" offset="0%"/><stop stop-opacity="1" stop-color="rgb(255,255,218)" offset="100%"/></linearGradient><clipPath clipPathUnits="userSpaceOnUse" id="clipPath1"><path d="M0 -5 L980 -5 L980 381 L0 381 L0 -5 Z"/></clipPath><clipPath clipPathUnits="userSpaceOnUse" id="clipPath2"><path d="M180 255 L1160 255 L1160 641 L180 641 L180 255 Z"/></clipPath></defs><g fill="white" stroke="white"><rect x="0" width="980" height="386" y="-5" clip-path="url(#clipPath1)" stroke="none"/><ellipse transform="translate(-180,-260)" clip-path="url(#clipPath2)" fill="rgb(178,178,178)" text-rendering="geometricPrecision" rx="90" cx="493" ry="47" cy="320" stroke="none"/><ellipse transform="translate(-180,-260)" clip-path="url(#clipPath2)" fill="url(#linearGradient1)" text-rendering="geometricPrecision" rx="90" cx="490" ry="47" cy="317" stroke="none"/></g><g fill="rgb(66,66,66)" text-rendering="geometricPrecision" transform="translate(-180,-260)" stroke-linejoin="round" stroke-linecap="butt" stroke="rgb(66,66,66)"><ellipse rx="90" fill="none" ry="47" clip-path="url(#clipPath2)" cx="490" cy="317"/><path fill="black" d="M440.625 305.457 L438.7344 305.457 L437.9844 303.5039 L434.5469 303.5039 L433.8438 305.457 L432 305.457 L435.3438 296.8633 L437.1875 296.8633 L440.625 305.457 ZM437.4219 302.0508 L436.25 298.8633 L435.0781 302.0508 L437.4219 302.0508 ZM446.5625 305.457 L445.0469 305.457 L445.0469 304.5352 Q444.6562 305.082 444.1406 305.3398 Q443.625 305.5977 443.0938 305.5977 Q442.0156 305.5977 441.2578 304.7305 Q440.5 303.8633 440.5 302.3164 Q440.5 300.7383 441.2422 299.918 Q441.9844 299.0977 443.125 299.0977 Q444.1562 299.0977 444.9219 299.957 L444.9219 296.8633 L446.5625 296.8633 L446.5625 305.457 ZM442.1719 302.207 Q442.1719 303.207 442.4531 303.6445 Q442.8438 304.3008 443.5625 304.3008 Q444.125 304.3008 444.5234 303.8164 Q444.9219 303.332 444.9219 302.3633 Q444.9219 301.3008 444.5391 300.8242 Q444.1562 300.3477 443.5469 300.3477 Q442.9688 300.3477 442.5703 300.8164 Q442.1719 301.2852 442.1719 302.207 ZM449.4375 305.457 L447.7969 305.457 L447.7969 299.2383 L449.3281 299.2383 L449.3281 300.1133 Q449.7188 299.4883 450.0312 299.293 Q450.3438 299.0977 450.7344 299.0977 Q451.2969 299.0977 451.8281 299.4102 L451.3125 300.832 Q450.8906 300.5664 450.5469 300.5664 Q450.1875 300.5664 449.9531 300.7617 Q449.7188 300.957 449.5781 301.4492 Q449.4375 301.9414 449.4375 303.5352 L449.4375 305.457 ZM456.4688 303.4727 L458.1094 303.7539 Q457.7969 304.6602 457.1094 305.1289 Q456.4219 305.5977 455.4062 305.5977 Q453.7812 305.5977 453 304.5352 Q452.375 303.6914 452.375 302.3945 Q452.375 300.8477 453.1875 299.9727 Q454 299.0977 455.2344 299.0977 Q456.625 299.0977 457.4297 300.0117 Q458.2344 300.9258 458.1875 302.8164 L454.0625 302.8164 Q454.0938 303.5508 454.4688 303.957 Q454.8438 304.3633 455.4219 304.3633 Q455.7969 304.3633 456.0625 304.1523 Q456.3281 303.9414 456.4688 303.4727 ZM456.5625 301.8164 Q456.5469 301.0977 456.1953 300.7227 Q455.8438 300.3477 455.3281 300.3477 Q454.7969 300.3477 454.4375 300.7383 Q454.0938 301.1445 454.0938 301.8164 L456.5625 301.8164 ZM459.2812 303.6758 L460.9375 303.4258 Q461.0469 303.9102 461.3672 304.1602 Q461.6875 304.4102 462.2656 304.4102 Q462.9062 304.4102 463.2188 304.1758 Q463.4375 304.0039 463.4375 303.7383 Q463.4375 303.5508 463.3281 303.4258 Q463.2031 303.3008 462.7812 303.207 Q460.7812 302.7695 460.25 302.4102 Q459.5156 301.8945 459.5156 301.0039 Q459.5156 300.1914 460.1484 299.6445 Q460.7812 299.0977 462.125 299.0977 Q463.4062 299.0977 464.0312 299.5117 Q464.6562 299.9258 464.8906 300.7383 L463.3281 301.0195 Q463.2344 300.6602 462.9531 300.4648 Q462.6719 300.2695 462.1562 300.2695 Q461.5156 300.2695 461.2344 300.457 Q461.0469 300.582 461.0469 300.7852 Q461.0469 300.9727 461.2031 301.0977 Q461.4219 301.2539 462.7422 301.5508 Q464.0625 301.8477 464.5781 302.2852 Q465.0938 302.7227 465.0938 303.5039 Q465.0938 304.3633 464.3828 304.9805 Q463.6719 305.5977 462.2656 305.5977 Q461 305.5977 460.2578 305.082 Q459.5156 304.5664 459.2812 303.6758 ZM466.2812 303.6758 L467.9375 303.4258 Q468.0469 303.9102 468.3672 304.1602 Q468.6875 304.4102 469.2656 304.4102 Q469.9062 304.4102 470.2188 304.1758 Q470.4375 304.0039 470.4375 303.7383 Q470.4375 303.5508 470.3281 303.4258 Q470.2031 303.3008 469.7812 303.207 Q467.7812 302.7695 467.25 302.4102 Q466.5156 301.8945 466.5156 301.0039 Q466.5156 300.1914 467.1484 299.6445 Q467.7812 299.0977 469.125 299.0977 Q470.4062 299.0977 471.0312 299.5117 Q471.6562 299.9258 471.8906 300.7383 L470.3281 301.0195 Q470.2344 300.6602 469.9531 300.4648 Q469.6719 300.2695 469.1562 300.2695 Q468.5156 300.2695 468.2344 300.457 Q468.0469 300.582 468.0469 300.7852 Q468.0469 300.9727 468.2031 301.0977 Q468.4219 301.2539 469.7422 301.5508 Q471.0625 301.8477 471.5781 302.2852 Q472.0938 302.7227 472.0938 303.5039 Q472.0938 304.3633 471.3828 304.9805 Q470.6719 305.5977 469.2656 305.5977 Q468 305.5977 467.2578 305.082 Q466.5156 304.5664 466.2812 303.6758 ZM479.5625 305.457 L478.0469 305.457 L478.0469 304.5352 Q477.6562 305.082 477.1406 305.3398 Q476.625 305.5977 476.0938 305.5977 Q475.0156 305.5977 474.2578 304.7305 Q473.5 303.8633 473.5 302.3164 Q473.5 300.7383 474.2422 299.918 Q474.9844 299.0977 476.125 299.0977 Q477.1562 299.0977 477.9219 299.957 L477.9219 296.8633 L479.5625 296.8633 L479.5625 305.457 ZM475.1719 302.207 Q475.1719 303.207 475.4531 303.6445 Q475.8438 304.3008 476.5625 304.3008 Q477.125 304.3008 477.5234 303.8164 Q477.9219 303.332 477.9219 302.3633 Q477.9219 301.3008 477.5391 300.8242 Q477.1562 300.3477 476.5469 300.3477 Q475.9688 300.3477 475.5703 300.8164 Q475.1719 301.2852 475.1719 302.207 ZM482.0938 301.1289 L480.5938 300.8633 Q480.8438 299.957 481.4609 299.5273 Q482.0781 299.0977 483.2969 299.0977 Q484.3906 299.0977 484.9297 299.3555 Q485.4688 299.6133 485.6875 300.0117 Q485.9062 300.4102 485.9062 301.4883 L485.8906 303.4102 Q485.8906 304.2383 485.9688 304.6211 Q486.0469 305.0039 486.2656 305.457 L484.6406 305.457 Q484.5781 305.2852 484.4844 304.9727 Q484.4375 304.8164 484.4219 304.7695 Q484 305.1914 483.5234 305.3945 Q483.0469 305.5977 482.5 305.5977 Q481.5312 305.5977 480.9766 305.0742 Q480.4219 304.5508 480.4219 303.7539 Q480.4219 303.2227 480.6797 302.8164 Q480.9375 302.4102 481.3906 302.1836 Q481.8438 301.957 482.7031 301.8008 Q483.8438 301.582 484.2969 301.3945 L484.2969 301.2383 Q484.2969 300.7539 484.0625 300.5508 Q483.8281 300.3477 483.1719 300.3477 Q482.7344 300.3477 482.4922 300.5195 Q482.25 300.6914 482.0938 301.1289 ZM484.2969 302.4727 Q483.9844 302.5664 483.2969 302.7148 Q482.6094 302.8633 482.3906 303.0039 Q482.0781 303.2383 482.0781 303.582 Q482.0781 303.9258 482.3359 304.1836 Q482.5938 304.4414 482.9844 304.4414 Q483.4375 304.4414 483.8438 304.1445 Q484.1406 303.9258 484.2344 303.5977 Q484.2969 303.3945 484.2969 302.8008 L484.2969 302.4727 ZM490.7188 299.2383 L490.7188 300.5508 L489.5938 300.5508 L489.5938 303.0508 Q489.5938 303.8164 489.625 303.9414 Q489.6562 304.0664 489.7734 304.1523 Q489.8906 304.2383 490.0469 304.2383 Q490.2812 304.2383 490.7031 304.0664 L490.8438 305.3477 Q490.2812 305.5977 489.5469 305.5977 Q489.1094 305.5977 488.75 305.4492 Q488.3906 305.3008 488.2266 305.0586 Q488.0625 304.8164 487.9844 304.4258 Q487.9375 304.1289 487.9375 303.2539 L487.9375 300.5508 L487.1875 300.5508 L487.1875 299.2383 L487.9375 299.2383 L487.9375 298.0039 L489.5938 297.0352 L489.5938 299.2383 L490.7188 299.2383 ZM495.4688 303.4727 L497.1094 303.7539 Q496.7969 304.6602 496.1094 305.1289 Q495.4219 305.5977 494.4062 305.5977 Q492.7812 305.5977 492 304.5352 Q491.375 303.6914 491.375 302.3945 Q491.375 300.8477 492.1875 299.9727 Q493 299.0977 494.2344 299.0977 Q495.625 299.0977 496.4297 300.0117 Q497.2344 300.9258 497.1875 302.8164 L493.0625 302.8164 Q493.0938 303.5508 493.4688 303.957 Q493.8438 304.3633 494.4219 304.3633 Q494.7969 304.3633 495.0625 304.1523 Q495.3281 303.9414 495.4688 303.4727 ZM495.5625 301.8164 Q495.5469 301.0977 495.1953 300.7227 Q494.8438 300.3477 494.3281 300.3477 Q493.7969 300.3477 493.4375 300.7383 Q493.0938 301.1445 493.0938 301.8164 L495.5625 301.8164 ZM504.5156 305.457 L502.875 305.457 L502.875 302.2852 Q502.875 301.2695 502.7734 300.9727 Q502.6719 300.6758 502.4297 300.5117 Q502.1875 300.3477 501.8594 300.3477 Q501.4219 300.3477 501.0859 300.582 Q500.75 300.8164 500.625 301.207 Q500.5 301.5977 500.5 302.6445 L500.5 305.457 L498.8438 305.457 L498.8438 299.2383 L500.375 299.2383 L500.375 300.1445 Q501.1875 299.0977 502.4375 299.0977 Q502.9688 299.0977 503.4219 299.293 Q503.875 299.4883 504.1094 299.793 Q504.3438 300.0977 504.4297 300.4805 Q504.5156 300.8633 504.5156 301.582 L504.5156 305.457 ZM514.5625 305.457 L513.0469 305.457 L513.0469 304.5352 Q512.6562 305.082 512.1406 305.3398 Q511.625 305.5977 511.0938 305.5977 Q510.0156 305.5977 509.2578 304.7305 Q508.5 303.8633 508.5 302.3164 Q508.5 300.7383 509.2422 299.918 Q509.9844 299.0977 511.125 299.0977 Q512.1562 299.0977 512.9219 299.957 L512.9219 296.8633 L514.5625 296.8633 L514.5625 305.457 ZM510.1719 302.207 Q510.1719 303.207 510.4531 303.6445 Q510.8438 304.3008 511.5625 304.3008 Q512.125 304.3008 512.5234 303.8164 Q512.9219 303.332 512.9219 302.3633 Q512.9219 301.3008 512.5391 300.8242 Q512.1562 300.3477 511.5469 300.3477 Q510.9688 300.3477 510.5703 300.8164 Q510.1719 301.2852 510.1719 302.207 ZM519.4688 303.4727 L521.1094 303.7539 Q520.7969 304.6602 520.1094 305.1289 Q519.4219 305.5977 518.4062 305.5977 Q516.7812 305.5977 516 304.5352 Q515.375 303.6914 515.375 302.3945 Q515.375 300.8477 516.1875 299.9727 Q517 299.0977 518.2344 299.0977 Q519.625 299.0977 520.4297 300.0117 Q521.2344 300.9258 521.1875 302.8164 L517.0625 302.8164 Q517.0938 303.5508 517.4688 303.957 Q517.8438 304.3633 518.4219 304.3633 Q518.7969 304.3633 519.0625 304.1523 Q519.3281 303.9414 519.4688 303.4727 ZM519.5625 301.8164 Q519.5469 301.0977 519.1953 300.7227 Q518.8438 300.3477 518.3281 300.3477 Q517.7969 300.3477 517.4375 300.7383 Q517.0938 301.1445 517.0938 301.8164 L519.5625 301.8164 ZM524.4375 305.457 L522.7969 305.457 L522.7969 299.2383 L524.3281 299.2383 L524.3281 300.1133 Q524.7188 299.4883 525.0312 299.293 Q525.3438 299.0977 525.7344 299.0977 Q526.2969 299.0977 526.8281 299.4102 L526.3125 300.832 Q525.8906 300.5664 525.5469 300.5664 Q525.1875 300.5664 524.9531 300.7617 Q524.7188 300.957 524.5781 301.4492 Q524.4375 301.9414 524.4375 303.5352 L524.4375 305.457 ZM530.8594 298.3945 L530.8594 296.8633 L532.5156 296.8633 L532.5156 298.3945 L530.8594 298.3945 ZM530.8594 305.457 L530.8594 299.2383 L532.5156 299.2383 L532.5156 305.457 L530.8594 305.457 ZM533.7344 299.2383 L535.25 299.2383 L535.25 300.082 Q536.0781 299.0977 537.2031 299.0977 Q537.7969 299.0977 538.2344 299.3398 Q538.6719 299.582 538.9531 300.082 Q539.3594 299.582 539.8359 299.3398 Q540.3125 299.0977 540.8594 299.0977 Q541.5312 299.0977 542.0078 299.3711 Q542.4844 299.6445 542.7188 300.1914 Q542.8906 300.582 542.8906 301.4727 L542.8906 305.457 L541.25 305.457 L541.25 301.8945 Q541.25 300.9727 541.0781 300.707 Q540.8438 300.3477 540.375 300.3477 Q540.0312 300.3477 539.7266 300.5586 Q539.4219 300.7695 539.2812 301.1758 Q539.1406 301.582 539.1406 302.4727 L539.1406 305.457 L537.5 305.457 L537.5 302.0508 Q537.5 301.1445 537.4141 300.8789 Q537.3281 300.6133 537.1406 300.4805 Q536.9531 300.3477 536.6406 300.3477 Q536.2656 300.3477 535.9609 300.5586 Q535.6562 300.7695 535.5234 301.1523 Q535.3906 301.5352 535.3906 302.4258 L535.3906 305.457 L533.7344 305.457 L533.7344 299.2383 Z" clip-path="url(#clipPath2)" stroke="none"/><path fill="black" d="M427.8906 320.457 L427.8906 311.8633 L433.7812 311.8633 L433.7812 313.3164 L429.625 313.3164 L429.625 315.3477 L433.2031 315.3477 L433.2031 316.8008 L429.625 316.8008 L429.625 320.457 L427.8906 320.457 ZM433.4844 317.2539 Q433.4844 316.4414 433.8906 315.668 Q434.2969 314.8945 435.0312 314.4961 Q435.7656 314.0977 436.6875 314.0977 Q438.0938 314.0977 439 315.0117 Q439.9062 315.9258 439.9062 317.332 Q439.9062 318.7383 438.9922 319.668 Q438.0781 320.5977 436.7031 320.5977 Q435.8438 320.5977 435.0703 320.207 Q434.2969 319.8164 433.8906 319.0742 Q433.4844 318.332 433.4844 317.2539 ZM435.1719 317.3477 Q435.1719 318.2695 435.6094 318.7617 Q436.0469 319.2539 436.6875 319.2539 Q437.3438 319.2539 437.7734 318.7617 Q438.2031 318.2695 438.2031 317.332 Q438.2031 316.4258 437.7734 315.9336 Q437.3438 315.4414 436.6875 315.4414 Q436.0469 315.4414 435.6094 315.9336 Q435.1719 316.4258 435.1719 317.3477 ZM440.8594 320.457 L440.8594 311.8633 L442.5156 311.8633 L442.5156 320.457 L440.8594 320.457 ZM443.7031 320.8633 L445.5938 321.0977 Q445.6406 321.4258 445.8125 321.5508 Q446.0469 321.7227 446.5469 321.7227 Q447.1875 321.7227 447.5156 321.5352 Q447.7344 321.3945 447.8438 321.1133 Q447.9219 320.9102 447.9219 320.3633 L447.9219 319.4414 Q447.1719 320.457 446.0469 320.457 Q444.7969 320.457 444.0625 319.3945 Q443.5 318.5508 443.5 317.3164 Q443.5 315.7383 444.25 314.918 Q445 314.0977 446.125 314.0977 Q447.2656 314.0977 448.0156 315.1133 L448.0156 314.2383 L449.5625 314.2383 L449.5625 319.8164 Q449.5625 320.9258 449.3828 321.4648 Q449.2031 322.0039 448.875 322.3164 Q448.5469 322.6289 448 322.8086 Q447.4531 322.9883 446.6094 322.9883 Q445.0312 322.9883 444.3672 322.4414 Q443.7031 321.8945 443.7031 321.0664 Q443.7031 320.9883 443.7031 320.8633 ZM445.1875 317.2227 Q445.1875 318.207 445.5703 318.668 Q445.9531 319.1289 446.5156 319.1289 Q447.1094 319.1289 447.5312 318.6523 Q447.9531 318.1758 447.9531 317.2539 Q447.9531 316.2852 447.5547 315.8164 Q447.1562 315.3477 446.5469 315.3477 Q445.9531 315.3477 445.5703 315.8086 Q445.1875 316.2695 445.1875 317.2227 ZM454.4688 318.4727 L456.1094 318.7539 Q455.7969 319.6602 455.1094 320.1289 Q454.4219 320.5977 453.4062 320.5977 Q451.7812 320.5977 451 319.5352 Q450.375 318.6914 450.375 317.3945 Q450.375 315.8477 451.1875 314.9727 Q452 314.0977 453.2344 314.0977 Q454.625 314.0977 455.4297 315.0117 Q456.2344 315.9258 456.1875 317.8164 L452.0625 317.8164 Q452.0938 318.5508 452.4688 318.957 Q452.8438 319.3633 453.4219 319.3633 Q453.7969 319.3633 454.0625 319.1523 Q454.3281 318.9414 454.4688 318.4727 ZM454.5625 316.8164 Q454.5469 316.0977 454.1953 315.7227 Q453.8438 315.3477 453.3281 315.3477 Q452.7969 315.3477 452.4375 315.7383 Q452.0938 316.1445 452.0938 316.8164 L454.5625 316.8164 ZM457.8281 313.3945 L457.8281 311.8633 L459.4688 311.8633 L459.4688 313.3945 L457.8281 313.3945 ZM459.4688 314.2383 L459.4688 320.2695 Q459.4688 321.457 459.3125 321.9414 Q459.1562 322.4258 458.7188 322.707 Q458.2812 322.9883 457.5938 322.9883 Q457.3438 322.9883 457.0625 322.9414 Q456.7812 322.8945 456.4531 322.8008 L456.7344 321.3945 Q456.8594 321.4258 456.9609 321.4414 Q457.0625 321.457 457.1406 321.457 Q457.4062 321.457 457.5625 321.3477 Q457.7188 321.2383 457.7734 321.082 Q457.8281 320.9258 457.8281 320.1758 L457.8281 314.2383 L459.4688 314.2383 ZM462.0938 316.1289 L460.5938 315.8633 Q460.8438 314.957 461.4609 314.5273 Q462.0781 314.0977 463.2969 314.0977 Q464.3906 314.0977 464.9297 314.3555 Q465.4688 314.6133 465.6875 315.0117 Q465.9062 315.4102 465.9062 316.4883 L465.8906 318.4102 Q465.8906 319.2383 465.9688 319.6211 Q466.0469 320.0039 466.2656 320.457 L464.6406 320.457 Q464.5781 320.2852 464.4844 319.9727 Q464.4375 319.8164 464.4219 319.7695 Q464 320.1914 463.5234 320.3945 Q463.0469 320.5977 462.5 320.5977 Q461.5312 320.5977 460.9766 320.0742 Q460.4219 319.5508 460.4219 318.7539 Q460.4219 318.2227 460.6797 317.8164 Q460.9375 317.4102 461.3906 317.1836 Q461.8438 316.957 462.7031 316.8008 Q463.8438 316.582 464.2969 316.3945 L464.2969 316.2383 Q464.2969 315.7539 464.0625 315.5508 Q463.8281 315.3477 463.1719 315.3477 Q462.7344 315.3477 462.4922 315.5195 Q462.25 315.6914 462.0938 316.1289 ZM464.2969 317.4727 Q463.9844 317.5664 463.2969 317.7148 Q462.6094 317.8633 462.3906 318.0039 Q462.0781 318.2383 462.0781 318.582 Q462.0781 318.9258 462.3359 319.1836 Q462.5938 319.4414 462.9844 319.4414 Q463.4375 319.4414 463.8438 319.1445 Q464.1406 318.9258 464.2344 318.5977 Q464.2969 318.3945 464.2969 317.8008 L464.2969 317.4727 ZM469.5 311.8633 L469.5 315.0195 Q470.2969 314.0977 471.4062 314.0977 Q471.9688 314.0977 472.4297 314.3086 Q472.8906 314.5195 473.125 314.8477 Q473.3594 315.1758 473.4375 315.5742 Q473.5156 315.9727 473.5156 316.8008 L473.5156 320.457 L471.875 320.457 L471.875 317.1758 Q471.875 316.1914 471.7812 315.9258 Q471.6875 315.6602 471.4531 315.5039 Q471.2188 315.3477 470.8594 315.3477 Q470.4531 315.3477 470.125 315.5508 Q469.7969 315.7539 469.6484 316.1523 Q469.5 316.5508 469.5 317.332 L469.5 320.457 L467.8594 320.457 L467.8594 311.8633 L469.5 311.8633 ZM476.4375 320.457 L474.7969 320.457 L474.7969 314.2383 L476.3281 314.2383 L476.3281 315.1133 Q476.7188 314.4883 477.0312 314.293 Q477.3438 314.0977 477.7344 314.0977 Q478.2969 314.0977 478.8281 314.4102 L478.3125 315.832 Q477.8906 315.5664 477.5469 315.5664 Q477.1875 315.5664 476.9531 315.7617 Q476.7188 315.957 476.5781 316.4492 Q476.4375 316.9414 476.4375 318.5352 L476.4375 320.457 ZM485.0625 320.457 L482 311.8633 L483.875 311.8633 L486.0469 318.2227 L488.1562 311.8633 L490 311.8633 L486.9219 320.457 L485.0625 320.457 ZM490.4844 317.2539 Q490.4844 316.4414 490.8906 315.668 Q491.2969 314.8945 492.0312 314.4961 Q492.7656 314.0977 493.6875 314.0977 Q495.0938 314.0977 496 315.0117 Q496.9062 315.9258 496.9062 317.332 Q496.9062 318.7383 495.9922 319.668 Q495.0781 320.5977 493.7031 320.5977 Q492.8438 320.5977 492.0703 320.207 Q491.2969 319.8164 490.8906 319.0742 Q490.4844 318.332 490.4844 317.2539 ZM492.1719 317.3477 Q492.1719 318.2695 492.6094 318.7617 Q493.0469 319.2539 493.6875 319.2539 Q494.3438 319.2539 494.7734 318.7617 Q495.2031 318.2695 495.2031 317.332 Q495.2031 316.4258 494.7734 315.9336 Q494.3438 315.4414 493.6875 315.4414 Q493.0469 315.4414 492.6094 315.9336 Q492.1719 316.4258 492.1719 317.3477 ZM497.8594 320.457 L497.8594 311.8633 L499.5156 311.8633 L499.5156 320.457 L497.8594 320.457 ZM500.8594 320.457 L500.8594 311.8633 L502.5156 311.8633 L502.5156 320.457 L500.8594 320.457 ZM503.8281 313.3945 L503.8281 311.8633 L505.4688 311.8633 L505.4688 313.3945 L503.8281 313.3945 ZM505.4688 314.2383 L505.4688 320.2695 Q505.4688 321.457 505.3125 321.9414 Q505.1562 322.4258 504.7188 322.707 Q504.2812 322.9883 503.5938 322.9883 Q503.3438 322.9883 503.0625 322.9414 Q502.7812 322.8945 502.4531 322.8008 L502.7344 321.3945 Q502.8594 321.4258 502.9609 321.4414 Q503.0625 321.457 503.1406 321.457 Q503.4062 321.457 503.5625 321.3477 Q503.7188 321.2383 503.7734 321.082 Q503.8281 320.9258 503.8281 320.1758 L503.8281 314.2383 L505.4688 314.2383 ZM508.0938 316.1289 L506.5938 315.8633 Q506.8438 314.957 507.4609 314.5273 Q508.0781 314.0977 509.2969 314.0977 Q510.3906 314.0977 510.9297 314.3555 Q511.4688 314.6133 511.6875 315.0117 Q511.9062 315.4102 511.9062 316.4883 L511.8906 318.4102 Q511.8906 319.2383 511.9688 319.6211 Q512.0469 320.0039 512.2656 320.457 L510.6406 320.457 Q510.5781 320.2852 510.4844 319.9727 Q510.4375 319.8164 510.4219 319.7695 Q510 320.1914 509.5234 320.3945 Q509.0469 320.5977 508.5 320.5977 Q507.5312 320.5977 506.9766 320.0742 Q506.4219 319.5508 506.4219 318.7539 Q506.4219 318.2227 506.6797 317.8164 Q506.9375 317.4102 507.3906 317.1836 Q507.8438 316.957 508.7031 316.8008 Q509.8438 316.582 510.2969 316.3945 L510.2969 316.2383 Q510.2969 315.7539 510.0625 315.5508 Q509.8281 315.3477 509.1719 315.3477 Q508.7344 315.3477 508.4922 315.5195 Q508.25 315.6914 508.0938 316.1289 ZM510.2969 317.4727 Q509.9844 317.5664 509.2969 317.7148 Q508.6094 317.8633 508.3906 318.0039 Q508.0781 318.2383 508.0781 318.582 Q508.0781 318.9258 508.3359 319.1836 Q508.5938 319.4414 508.9844 319.4414 Q509.4375 319.4414 509.8438 319.1445 Q510.1406 318.9258 510.2344 318.5977 Q510.2969 318.3945 510.2969 317.8008 L510.2969 317.4727 ZM507.0625 312.457 L507.0625 311.0508 L508.4688 311.0508 L508.4688 312.457 L507.0625 312.457 ZM509.5781 312.457 L509.5781 311.0508 L511 311.0508 L511 312.457 L509.5781 312.457 ZM515.5 311.8633 L515.5 315.0195 Q516.2969 314.0977 517.4062 314.0977 Q517.9688 314.0977 518.4297 314.3086 Q518.8906 314.5195 519.125 314.8477 Q519.3594 315.1758 519.4375 315.5742 Q519.5156 315.9727 519.5156 316.8008 L519.5156 320.457 L517.875 320.457 L517.875 317.1758 Q517.875 316.1914 517.7812 315.9258 Q517.6875 315.6602 517.4531 315.5039 Q517.2188 315.3477 516.8594 315.3477 Q516.4531 315.3477 516.125 315.5508 Q515.7969 315.7539 515.6484 316.1523 Q515.5 316.5508 515.5 317.332 L515.5 320.457 L513.8594 320.457 L513.8594 311.8633 L515.5 311.8633 ZM522.4375 320.457 L520.7969 320.457 L520.7969 314.2383 L522.3281 314.2383 L522.3281 315.1133 Q522.7188 314.4883 523.0312 314.293 Q523.3438 314.0977 523.7344 314.0977 Q524.2969 314.0977 524.8281 314.4102 L524.3125 315.832 Q523.8906 315.5664 523.5469 315.5664 Q523.1875 315.5664 522.9531 315.7617 Q522.7188 315.957 522.5781 316.4492 Q522.4375 316.9414 522.4375 318.5352 L522.4375 320.457 ZM525.8594 313.3945 L525.8594 311.8633 L527.5156 311.8633 L527.5156 313.3945 L525.8594 313.3945 ZM525.8594 320.457 L525.8594 314.2383 L527.5156 314.2383 L527.5156 320.457 L525.8594 320.457 ZM528.7031 320.8633 L530.5938 321.0977 Q530.6406 321.4258 530.8125 321.5508 Q531.0469 321.7227 531.5469 321.7227 Q532.1875 321.7227 532.5156 321.5352 Q532.7344 321.3945 532.8438 321.1133 Q532.9219 320.9102 532.9219 320.3633 L532.9219 319.4414 Q532.1719 320.457 531.0469 320.457 Q529.7969 320.457 529.0625 319.3945 Q528.5 318.5508 528.5 317.3164 Q528.5 315.7383 529.25 314.918 Q530 314.0977 531.125 314.0977 Q532.2656 314.0977 533.0156 315.1133 L533.0156 314.2383 L534.5625 314.2383 L534.5625 319.8164 Q534.5625 320.9258 534.3828 321.4648 Q534.2031 322.0039 533.875 322.3164 Q533.5469 322.6289 533 322.8086 Q532.4531 322.9883 531.6094 322.9883 Q530.0312 322.9883 529.3672 322.4414 Q528.7031 321.8945 528.7031 321.0664 Q528.7031 320.9883 528.7031 320.8633 ZM530.1875 317.2227 Q530.1875 318.207 530.5703 318.668 Q530.9531 319.1289 531.5156 319.1289 Q532.1094 319.1289 532.5312 318.6523 Q532.9531 318.1758 532.9531 317.2539 Q532.9531 316.2852 532.5547 315.8164 Q532.1562 315.3477 531.5469 315.3477 Q530.9531 315.3477 530.5703 315.8086 Q530.1875 316.2695 530.1875 317.2227 ZM539.4688 318.4727 L541.1094 318.7539 Q540.7969 319.6602 540.1094 320.1289 Q539.4219 320.5977 538.4062 320.5977 Q536.7812 320.5977 536 319.5352 Q535.375 318.6914 535.375 317.3945 Q535.375 315.8477 536.1875 314.9727 Q537 314.0977 538.2344 314.0977 Q539.625 314.0977 540.4297 315.0117 Q541.2344 315.9258 541.1875 317.8164 L537.0625 317.8164 Q537.0938 318.5508 537.4688 318.957 Q537.8438 319.3633 538.4219 319.3633 Q538.7969 319.3633 539.0625 319.1523 Q539.3281 318.9414 539.4688 318.4727 ZM539.5625 316.8164 Q539.5469 316.0977 539.1953 315.7227 Q538.8438 315.3477 538.3281 315.3477 Q537.7969 315.3477 537.4375 315.7383 Q537.0938 316.1445 537.0938 316.8164 L539.5625 316.8164 ZM548.5156 320.457 L546.875 320.457 L546.875 317.2852 Q546.875 316.2695 546.7734 315.9727 Q546.6719 315.6758 546.4297 315.5117 Q546.1875 315.3477 545.8594 315.3477 Q545.4219 315.3477 545.0859 315.582 Q544.75 315.8164 544.625 316.207 Q544.5 316.5977 544.5 317.6445 L544.5 320.457 L542.8438 320.457 L542.8438 314.2383 L544.375 314.2383 L544.375 315.1445 Q545.1875 314.0977 546.4375 314.0977 Q546.9688 314.0977 547.4219 314.293 Q547.875 314.4883 548.1094 314.793 Q548.3438 315.0977 548.4297 315.4805 Q548.5156 315.8633 548.5156 316.582 L548.5156 320.457 Z" clip-path="url(#clipPath2)" stroke="none"/><path fill="black" d="M461.9531 335.457 L461.9531 334.5195 Q461.625 335.0195 461.0703 335.3086 Q460.5156 335.5977 459.8906 335.5977 Q459.2656 335.5977 458.7656 335.3242 Q458.2656 335.0508 458.0469 334.5508 Q457.8281 334.0508 457.8281 333.1758 L457.8281 329.2383 L459.4688 329.2383 L459.4688 332.0977 Q459.4688 333.4102 459.5625 333.707 Q459.6562 334.0039 459.8984 334.1758 Q460.1406 334.3477 460.5 334.3477 Q460.9219 334.3477 461.2578 334.1133 Q461.5938 333.8789 461.7188 333.5352 Q461.8438 333.1914 461.8438 331.8633 L461.8438 329.2383 L463.4844 329.2383 L463.4844 335.457 L461.9531 335.457 ZM459.0625 327.457 L459.0625 326.0508 L460.4688 326.0508 L460.4688 327.457 L459.0625 327.457 ZM461.5781 327.457 L461.5781 326.0508 L463 326.0508 L463 327.457 L461.5781 327.457 ZM464.7969 335.457 L464.7969 326.8633 L466.4375 326.8633 L466.4375 329.957 Q467.2031 329.0977 468.25 329.0977 Q469.375 329.0977 470.125 329.918 Q470.875 330.7383 470.875 332.2852 Q470.875 333.8789 470.1094 334.7383 Q469.3438 335.5977 468.2656 335.5977 Q467.7344 335.5977 467.2188 335.332 Q466.7031 335.0664 466.3281 334.5352 L466.3281 335.457 L464.7969 335.457 ZM466.4219 332.207 Q466.4219 333.1758 466.7344 333.6445 Q467.1562 334.3008 467.875 334.3008 Q468.4062 334.3008 468.7969 333.832 Q469.1875 333.3633 469.1875 332.3633 Q469.1875 331.3008 468.7969 330.8242 Q468.4062 330.3477 467.7969 330.3477 Q467.2188 330.3477 466.8203 330.8086 Q466.4219 331.2695 466.4219 332.207 ZM475.4688 333.4727 L477.1094 333.7539 Q476.7969 334.6602 476.1094 335.1289 Q475.4219 335.5977 474.4062 335.5977 Q472.7812 335.5977 472 334.5352 Q471.375 333.6914 471.375 332.3945 Q471.375 330.8477 472.1875 329.9727 Q473 329.0977 474.2344 329.0977 Q475.625 329.0977 476.4297 330.0117 Q477.2344 330.9258 477.1875 332.8164 L473.0625 332.8164 Q473.0938 333.5508 473.4688 333.957 Q473.8438 334.3633 474.4219 334.3633 Q474.7969 334.3633 475.0625 334.1523 Q475.3281 333.9414 475.4688 333.4727 ZM475.5625 331.8164 Q475.5469 331.0977 475.1953 330.7227 Q474.8438 330.3477 474.3281 330.3477 Q473.7969 330.3477 473.4375 330.7383 Q473.0938 331.1445 473.0938 331.8164 L475.5625 331.8164 ZM480.4375 335.457 L478.7969 335.457 L478.7969 329.2383 L480.3281 329.2383 L480.3281 330.1133 Q480.7188 329.4883 481.0312 329.293 Q481.3438 329.0977 481.7344 329.0977 Q482.2969 329.0977 482.8281 329.4102 L482.3125 330.832 Q481.8906 330.5664 481.5469 330.5664 Q481.1875 330.5664 480.9531 330.7617 Q480.7188 330.957 480.5781 331.4492 Q480.4375 331.9414 480.4375 333.5352 L480.4375 335.457 ZM483.7344 329.2383 L485.25 329.2383 L485.25 330.082 Q486.0781 329.0977 487.2031 329.0977 Q487.7969 329.0977 488.2344 329.3398 Q488.6719 329.582 488.9531 330.082 Q489.3594 329.582 489.8359 329.3398 Q490.3125 329.0977 490.8594 329.0977 Q491.5312 329.0977 492.0078 329.3711 Q492.4844 329.6445 492.7188 330.1914 Q492.8906 330.582 492.8906 331.4727 L492.8906 335.457 L491.25 335.457 L491.25 331.8945 Q491.25 330.9727 491.0781 330.707 Q490.8438 330.3477 490.375 330.3477 Q490.0312 330.3477 489.7266 330.5586 Q489.4219 330.7695 489.2812 331.1758 Q489.1406 331.582 489.1406 332.4727 L489.1406 335.457 L487.5 335.457 L487.5 332.0508 Q487.5 331.1445 487.4141 330.8789 Q487.3281 330.6133 487.1406 330.4805 Q486.9531 330.3477 486.6406 330.3477 Q486.2656 330.3477 485.9609 330.5586 Q485.6562 330.7695 485.5234 331.1523 Q485.3906 331.5352 485.3906 332.4258 L485.3906 335.457 L483.7344 335.457 L483.7344 329.2383 ZM494.8594 328.3945 L494.8594 326.8633 L496.5156 326.8633 L496.5156 328.3945 L494.8594 328.3945 ZM494.8594 335.457 L494.8594 329.2383 L496.5156 329.2383 L496.5156 335.457 L494.8594 335.457 ZM500.7188 329.2383 L500.7188 330.5508 L499.5938 330.5508 L499.5938 333.0508 Q499.5938 333.8164 499.625 333.9414 Q499.6562 334.0664 499.7734 334.1523 Q499.8906 334.2383 500.0469 334.2383 Q500.2812 334.2383 500.7031 334.0664 L500.8438 335.3477 Q500.2812 335.5977 499.5469 335.5977 Q499.1094 335.5977 498.75 335.4492 Q498.3906 335.3008 498.2266 335.0586 Q498.0625 334.8164 497.9844 334.4258 Q497.9375 334.1289 497.9375 333.2539 L497.9375 330.5508 L497.1875 330.5508 L497.1875 329.2383 L497.9375 329.2383 L497.9375 328.0039 L499.5938 327.0352 L499.5938 329.2383 L500.7188 329.2383 ZM504.7188 329.2383 L504.7188 330.5508 L503.5938 330.5508 L503.5938 333.0508 Q503.5938 333.8164 503.625 333.9414 Q503.6562 334.0664 503.7734 334.1523 Q503.8906 334.2383 504.0469 334.2383 Q504.2812 334.2383 504.7031 334.0664 L504.8438 335.3477 Q504.2812 335.5977 503.5469 335.5977 Q503.1094 335.5977 502.75 335.4492 Q502.3906 335.3008 502.2266 335.0586 Q502.0625 334.8164 501.9844 334.4258 Q501.9375 334.1289 501.9375 333.2539 L501.9375 330.5508 L501.1875 330.5508 L501.1875 329.2383 L501.9375 329.2383 L501.9375 328.0039 L503.5938 327.0352 L503.5938 329.2383 L504.7188 329.2383 ZM509.4688 333.4727 L511.1094 333.7539 Q510.7969 334.6602 510.1094 335.1289 Q509.4219 335.5977 508.4062 335.5977 Q506.7812 335.5977 506 334.5352 Q505.375 333.6914 505.375 332.3945 Q505.375 330.8477 506.1875 329.9727 Q507 329.0977 508.2344 329.0977 Q509.625 329.0977 510.4297 330.0117 Q511.2344 330.9258 511.1875 332.8164 L507.0625 332.8164 Q507.0938 333.5508 507.4688 333.957 Q507.8438 334.3633 508.4219 334.3633 Q508.7969 334.3633 509.0625 334.1523 Q509.3281 333.9414 509.4688 333.4727 ZM509.5625 331.8164 Q509.5469 331.0977 509.1953 330.7227 Q508.8438 330.3477 508.3281 330.3477 Q507.7969 330.3477 507.4375 330.7383 Q507.0938 331.1445 507.0938 331.8164 L509.5625 331.8164 ZM512.8594 335.457 L512.8594 326.8633 L514.5156 326.8633 L514.5156 335.457 L512.8594 335.457 ZM521.5156 335.457 L519.875 335.457 L519.875 332.2852 Q519.875 331.2695 519.7734 330.9727 Q519.6719 330.6758 519.4297 330.5117 Q519.1875 330.3477 518.8594 330.3477 Q518.4219 330.3477 518.0859 330.582 Q517.75 330.8164 517.625 331.207 Q517.5 331.5977 517.5 332.6445 L517.5 335.457 L515.8438 335.457 L515.8438 329.2383 L517.375 329.2383 L517.375 330.1445 Q518.1875 329.0977 519.4375 329.0977 Q519.9688 329.0977 520.4219 329.293 Q520.875 329.4883 521.1094 329.793 Q521.3438 330.0977 521.4297 330.4805 Q521.5156 330.8633 521.5156 331.582 L521.5156 335.457 Z" clip-path="url(#clipPath2)" stroke="none"/><path fill="black" d="M623.875 326.8633 L627.3125 326.8633 Q628.3281 326.8633 628.8281 326.9492 Q629.3281 327.0352 629.7266 327.3086 Q630.125 327.582 630.3906 328.0273 Q630.6562 328.4727 630.6562 329.0352 Q630.6562 329.6289 630.3281 330.1367 Q630 330.6445 629.4531 330.8945 Q630.2344 331.1133 630.6562 331.668 Q631.0781 332.2227 631.0781 332.9727 Q631.0781 333.5508 630.8047 334.1055 Q630.5312 334.6602 630.0625 334.9883 Q629.5938 335.3164 628.8906 335.3945 Q628.4688 335.4414 626.7969 335.457 L623.875 335.457 L623.875 326.8633 ZM625.6094 328.3008 L625.6094 330.2852 L626.75 330.2852 Q627.7656 330.2852 628.0156 330.2539 Q628.4531 330.207 628.7109 329.9492 Q628.9688 329.6914 628.9688 329.2695 Q628.9688 328.8789 628.75 328.6289 Q628.5312 328.3789 628.0938 328.332 Q627.8281 328.3008 626.6094 328.3008 L625.6094 328.3008 ZM625.6094 331.707 L625.6094 334.0039 L627.2188 334.0039 Q628.1562 334.0039 628.4062 333.957 Q628.7969 333.8789 629.0391 333.6133 Q629.2812 333.3477 629.2812 332.8789 Q629.2812 332.5039 629.0938 332.2305 Q628.9062 331.957 628.5547 331.832 Q628.2031 331.707 627.0156 331.707 L625.6094 331.707 ZM635.9531 335.457 L635.9531 334.5195 Q635.625 335.0195 635.0703 335.3086 Q634.5156 335.5977 633.8906 335.5977 Q633.2656 335.5977 632.7656 335.3242 Q632.2656 335.0508 632.0469 334.5508 Q631.8281 334.0508 631.8281 333.1758 L631.8281 329.2383 L633.4688 329.2383 L633.4688 332.0977 Q633.4688 333.4102 633.5625 333.707 Q633.6562 334.0039 633.8984 334.1758 Q634.1406 334.3477 634.5 334.3477 Q634.9219 334.3477 635.2578 334.1133 Q635.5938 333.8789 635.7188 333.5352 Q635.8438 333.1914 635.8438 331.8633 L635.8438 329.2383 L637.4844 329.2383 L637.4844 335.457 L635.9531 335.457 ZM644.5156 335.457 L642.875 335.457 L642.875 332.2852 Q642.875 331.2695 642.7734 330.9727 Q642.6719 330.6758 642.4297 330.5117 Q642.1875 330.3477 641.8594 330.3477 Q641.4219 330.3477 641.0859 330.582 Q640.75 330.8164 640.625 331.207 Q640.5 331.5977 640.5 332.6445 L640.5 335.457 L638.8438 335.457 L638.8438 329.2383 L640.375 329.2383 L640.375 330.1445 Q641.1875 329.0977 642.4375 329.0977 Q642.9688 329.0977 643.4219 329.293 Q643.875 329.4883 644.1094 329.793 Q644.3438 330.0977 644.4297 330.4805 Q644.5156 330.8633 644.5156 331.582 L644.5156 335.457 ZM651.5625 335.457 L650.0469 335.457 L650.0469 334.5352 Q649.6562 335.082 649.1406 335.3398 Q648.625 335.5977 648.0938 335.5977 Q647.0156 335.5977 646.2578 334.7305 Q645.5 333.8633 645.5 332.3164 Q645.5 330.7383 646.2422 329.918 Q646.9844 329.0977 648.125 329.0977 Q649.1562 329.0977 649.9219 329.957 L649.9219 326.8633 L651.5625 326.8633 L651.5625 335.457 ZM647.1719 332.207 Q647.1719 333.207 647.4531 333.6445 Q647.8438 334.3008 648.5625 334.3008 Q649.125 334.3008 649.5234 333.8164 Q649.9219 333.332 649.9219 332.3633 Q649.9219 331.3008 649.5391 330.8242 Q649.1562 330.3477 648.5469 330.3477 Q647.9688 330.3477 647.5703 330.8164 Q647.1719 331.2852 647.1719 332.207 ZM656.4688 333.4727 L658.1094 333.7539 Q657.7969 334.6602 657.1094 335.1289 Q656.4219 335.5977 655.4062 335.5977 Q653.7812 335.5977 653 334.5352 Q652.375 333.6914 652.375 332.3945 Q652.375 330.8477 653.1875 329.9727 Q654 329.0977 655.2344 329.0977 Q656.625 329.0977 657.4297 330.0117 Q658.2344 330.9258 658.1875 332.8164 L654.0625 332.8164 Q654.0938 333.5508 654.4688 333.957 Q654.8438 334.3633 655.4219 334.3633 Q655.7969 334.3633 656.0625 334.1523 Q656.3281 333.9414 656.4688 333.4727 ZM656.5625 331.8164 Q656.5469 331.0977 656.1953 330.7227 Q655.8438 330.3477 655.3281 330.3477 Q654.7969 330.3477 654.4375 330.7383 Q654.0938 331.1445 654.0938 331.8164 L656.5625 331.8164 ZM659.2812 333.6758 L660.9375 333.4258 Q661.0469 333.9102 661.3672 334.1602 Q661.6875 334.4102 662.2656 334.4102 Q662.9062 334.4102 663.2188 334.1758 Q663.4375 334.0039 663.4375 333.7383 Q663.4375 333.5508 663.3281 333.4258 Q663.2031 333.3008 662.7812 333.207 Q660.7812 332.7695 660.25 332.4102 Q659.5156 331.8945 659.5156 331.0039 Q659.5156 330.1914 660.1484 329.6445 Q660.7812 329.0977 662.125 329.0977 Q663.4062 329.0977 664.0312 329.5117 Q664.6562 329.9258 664.8906 330.7383 L663.3281 331.0195 Q663.2344 330.6602 662.9531 330.4648 Q662.6719 330.2695 662.1562 330.2695 Q661.5156 330.2695 661.2344 330.457 Q661.0469 330.582 661.0469 330.7852 Q661.0469 330.9727 661.2031 331.0977 Q661.4219 331.2539 662.7422 331.5508 Q664.0625 331.8477 664.5781 332.2852 Q665.0938 332.7227 665.0938 333.5039 Q665.0938 334.3633 664.3828 334.9805 Q663.6719 335.5977 662.2656 335.5977 Q661 335.5977 660.2578 335.082 Q659.5156 334.5664 659.2812 333.6758 ZM668.0938 331.1289 L666.5938 330.8633 Q666.8438 329.957 667.4609 329.5273 Q668.0781 329.0977 669.2969 329.0977 Q670.3906 329.0977 670.9297 329.3555 Q671.4688 329.6133 671.6875 330.0117 Q671.9062 330.4102 671.9062 331.4883 L671.8906 333.4102 Q671.8906 334.2383 671.9688 334.6211 Q672.0469 335.0039 672.2656 335.457 L670.6406 335.457 Q670.5781 335.2852 670.4844 334.9727 Q670.4375 334.8164 670.4219 334.7695 Q670 335.1914 669.5234 335.3945 Q669.0469 335.5977 668.5 335.5977 Q667.5312 335.5977 666.9766 335.0742 Q666.4219 334.5508 666.4219 333.7539 Q666.4219 333.2227 666.6797 332.8164 Q666.9375 332.4102 667.3906 332.1836 Q667.8438 331.957 668.7031 331.8008 Q669.8438 331.582 670.2969 331.3945 L670.2969 331.2383 Q670.2969 330.7539 670.0625 330.5508 Q669.8281 330.3477 669.1719 330.3477 Q668.7344 330.3477 668.4922 330.5195 Q668.25 330.6914 668.0938 331.1289 ZM670.2969 332.4727 Q669.9844 332.5664 669.2969 332.7148 Q668.6094 332.8633 668.3906 333.0039 Q668.0781 333.2383 668.0781 333.582 Q668.0781 333.9258 668.3359 334.1836 Q668.5938 334.4414 668.9844 334.4414 Q669.4375 334.4414 669.8438 334.1445 Q670.1406 333.9258 670.2344 333.5977 Q670.2969 333.3945 670.2969 332.8008 L670.2969 332.4727 ZM673.7344 329.2383 L675.25 329.2383 L675.25 330.082 Q676.0781 329.0977 677.2031 329.0977 Q677.7969 329.0977 678.2344 329.3398 Q678.6719 329.582 678.9531 330.082 Q679.3594 329.582 679.8359 329.3398 Q680.3125 329.0977 680.8594 329.0977 Q681.5312 329.0977 682.0078 329.3711 Q682.4844 329.6445 682.7188 330.1914 Q682.8906 330.582 682.8906 331.4727 L682.8906 335.457 L681.25 335.457 L681.25 331.8945 Q681.25 330.9727 681.0781 330.707 Q680.8438 330.3477 680.375 330.3477 Q680.0312 330.3477 679.7266 330.5586 Q679.4219 330.7695 679.2812 331.1758 Q679.1406 331.582 679.1406 332.4727 L679.1406 335.457 L677.5 335.457 L677.5 332.0508 Q677.5 331.1445 677.4141 330.8789 Q677.3281 330.6133 677.1406 330.4805 Q676.9531 330.3477 676.6406 330.3477 Q676.2656 330.3477 675.9609 330.5586 Q675.6562 330.7695 675.5234 331.1523 Q675.3906 331.5352 675.3906 332.4258 L675.3906 335.457 L673.7344 335.457 L673.7344 329.2383 ZM687.7188 329.2383 L687.7188 330.5508 L686.5938 330.5508 L686.5938 333.0508 Q686.5938 333.8164 686.625 333.9414 Q686.6562 334.0664 686.7734 334.1523 Q686.8906 334.2383 687.0469 334.2383 Q687.2812 334.2383 687.7031 334.0664 L687.8438 335.3477 Q687.2812 335.5977 686.5469 335.5977 Q686.1094 335.5977 685.75 335.4492 Q685.3906 335.3008 685.2266 335.0586 Q685.0625 334.8164 684.9844 334.4258 Q684.9375 334.1289 684.9375 333.2539 L684.9375 330.5508 L684.1875 330.5508 L684.1875 329.2383 L684.9375 329.2383 L684.9375 328.0039 L686.5938 327.0352 L686.5938 329.2383 L687.7188 329.2383 ZM691.1406 329.2383 L692.0625 329.2383 L692.0625 328.7695 Q692.0625 327.9727 692.2266 327.5898 Q692.3906 327.207 692.8359 326.9648 Q693.2812 326.7227 693.9688 326.7227 Q694.6719 326.7227 695.3438 326.9258 L695.125 328.082 Q694.7344 327.9883 694.375 327.9883 Q694.0156 327.9883 693.8594 328.1523 Q693.7031 328.3164 693.7031 328.8008 L693.7031 329.2383 L694.9375 329.2383 L694.9375 330.5352 L693.7031 330.5352 L693.7031 335.457 L692.0625 335.457 L692.0625 330.5352 L691.1406 330.5352 L691.1406 329.2383 ZM699.9531 335.457 L699.9531 334.5195 Q699.625 335.0195 699.0703 335.3086 Q698.5156 335.5977 697.8906 335.5977 Q697.2656 335.5977 696.7656 335.3242 Q696.2656 335.0508 696.0469 334.5508 Q695.8281 334.0508 695.8281 333.1758 L695.8281 329.2383 L697.4688 329.2383 L697.4688 332.0977 Q697.4688 333.4102 697.5625 333.707 Q697.6562 334.0039 697.8984 334.1758 Q698.1406 334.3477 698.5 334.3477 Q698.9219 334.3477 699.2578 334.1133 Q699.5938 333.8789 699.7188 333.5352 Q699.8438 333.1914 699.8438 331.8633 L699.8438 329.2383 L701.4844 329.2383 L701.4844 335.457 L699.9531 335.457 ZM697.0625 327.457 L697.0625 326.0508 L698.4688 326.0508 L698.4688 327.457 L697.0625 327.457 ZM699.5781 327.457 L699.5781 326.0508 L701 326.0508 L701 327.457 L699.5781 327.457 ZM704.4375 335.457 L702.7969 335.457 L702.7969 329.2383 L704.3281 329.2383 L704.3281 330.1133 Q704.7188 329.4883 705.0312 329.293 Q705.3438 329.0977 705.7344 329.0977 Q706.2969 329.0977 706.8281 329.4102 L706.3125 330.832 Q705.8906 330.5664 705.5469 330.5664 Q705.1875 330.5664 704.9531 330.7617 Q704.7188 330.957 704.5781 331.4492 Q704.4375 331.9414 704.4375 333.5352 L704.4375 335.457 ZM716.5625 335.457 L715.0469 335.457 L715.0469 334.5352 Q714.6562 335.082 714.1406 335.3398 Q713.625 335.5977 713.0938 335.5977 Q712.0156 335.5977 711.2578 334.7305 Q710.5 333.8633 710.5 332.3164 Q710.5 330.7383 711.2422 329.918 Q711.9844 329.0977 713.125 329.0977 Q714.1562 329.0977 714.9219 329.957 L714.9219 326.8633 L716.5625 326.8633 L716.5625 335.457 ZM712.1719 332.207 Q712.1719 333.207 712.4531 333.6445 Q712.8438 334.3008 713.5625 334.3008 Q714.125 334.3008 714.5234 333.8164 Q714.9219 333.332 714.9219 332.3633 Q714.9219 331.3008 714.5391 330.8242 Q714.1562 330.3477 713.5469 330.3477 Q712.9688 330.3477 712.5703 330.8164 Q712.1719 331.2852 712.1719 332.207 ZM719.0938 331.1289 L717.5938 330.8633 Q717.8438 329.957 718.4609 329.5273 Q719.0781 329.0977 720.2969 329.0977 Q721.3906 329.0977 721.9297 329.3555 Q722.4688 329.6133 722.6875 330.0117 Q722.9062 330.4102 722.9062 331.4883 L722.8906 333.4102 Q722.8906 334.2383 722.9688 334.6211 Q723.0469 335.0039 723.2656 335.457 L721.6406 335.457 Q721.5781 335.2852 721.4844 334.9727 Q721.4375 334.8164 721.4219 334.7695 Q721 335.1914 720.5234 335.3945 Q720.0469 335.5977 719.5 335.5977 Q718.5312 335.5977 717.9766 335.0742 Q717.4219 334.5508 717.4219 333.7539 Q717.4219 333.2227 717.6797 332.8164 Q717.9375 332.4102 718.3906 332.1836 Q718.8438 331.957 719.7031 331.8008 Q720.8438 331.582 721.2969 331.3945 L721.2969 331.2383 Q721.2969 330.7539 721.0625 330.5508 Q720.8281 330.3477 720.1719 330.3477 Q719.7344 330.3477 719.4922 330.5195 Q719.25 330.6914 719.0938 331.1289 ZM721.2969 332.4727 Q720.9844 332.5664 720.2969 332.7148 Q719.6094 332.8633 719.3906 333.0039 Q719.0781 333.2383 719.0781 333.582 Q719.0781 333.9258 719.3359 334.1836 Q719.5938 334.4414 719.9844 334.4414 Q720.4375 334.4414 720.8438 334.1445 Q721.1406 333.9258 721.2344 333.5977 Q721.2969 333.3945 721.2969 332.8008 L721.2969 332.4727 ZM724.2812 333.6758 L725.9375 333.4258 Q726.0469 333.9102 726.3672 334.1602 Q726.6875 334.4102 727.2656 334.4102 Q727.9062 334.4102 728.2188 334.1758 Q728.4375 334.0039 728.4375 333.7383 Q728.4375 333.5508 728.3281 333.4258 Q728.2031 333.3008 727.7812 333.207 Q725.7812 332.7695 725.25 332.4102 Q724.5156 331.8945 724.5156 331.0039 Q724.5156 330.1914 725.1484 329.6445 Q725.7812 329.0977 727.125 329.0977 Q728.4062 329.0977 729.0312 329.5117 Q729.6562 329.9258 729.8906 330.7383 L728.3281 331.0195 Q728.2344 330.6602 727.9531 330.4648 Q727.6719 330.2695 727.1562 330.2695 Q726.5156 330.2695 726.2344 330.457 Q726.0469 330.582 726.0469 330.7852 Q726.0469 330.9727 726.2031 331.0977 Q726.4219 331.2539 727.7422 331.5508 Q729.0625 331.8477 729.5781 332.2852 Q730.0938 332.7227 730.0938 333.5039 Q730.0938 334.3633 729.3828 334.9805 Q728.6719 335.5977 727.2656 335.5977 Q726 335.5977 725.2578 335.082 Q724.5156 334.5664 724.2812 333.6758 Z" clip-path="url(#clipPath2)" stroke="none"/><path fill="black" d="M603.875 350.457 L603.875 341.8633 L606.6562 341.8633 Q608.2344 341.8633 608.7188 341.9883 Q609.4531 342.1914 609.9531 342.8398 Q610.4531 343.4883 610.4531 344.5039 Q610.4531 345.3008 610.1641 345.8398 Q609.875 346.3789 609.4375 346.6836 Q609 346.9883 608.5312 347.0977 Q607.9219 347.2227 606.7344 347.2227 L605.6094 347.2227 L605.6094 350.457 L603.875 350.457 ZM605.6094 343.3164 L605.6094 345.7539 L606.5625 345.7539 Q607.5781 345.7539 607.9297 345.6211 Q608.2812 345.4883 608.4766 345.1992 Q608.6719 344.9102 608.6719 344.5352 Q608.6719 344.0664 608.3906 343.7617 Q608.1094 343.457 607.6875 343.3789 Q607.3906 343.3164 606.4531 343.3164 L605.6094 343.3164 ZM615.4688 348.4727 L617.1094 348.7539 Q616.7969 349.6602 616.1094 350.1289 Q615.4219 350.5977 614.4062 350.5977 Q612.7812 350.5977 612 349.5352 Q611.375 348.6914 611.375 347.3945 Q611.375 345.8477 612.1875 344.9727 Q613 344.0977 614.2344 344.0977 Q615.625 344.0977 616.4297 345.0117 Q617.2344 345.9258 617.1875 347.8164 L613.0625 347.8164 Q613.0938 348.5508 613.4688 348.957 Q613.8438 349.3633 614.4219 349.3633 Q614.7969 349.3633 615.0625 349.1523 Q615.3281 348.9414 615.4688 348.4727 ZM615.5625 346.8164 Q615.5469 346.0977 615.1953 345.7227 Q614.8438 345.3477 614.3281 345.3477 Q613.7969 345.3477 613.4375 345.7383 Q613.0938 346.1445 613.0938 346.8164 L615.5625 346.8164 ZM620.4375 350.457 L618.7969 350.457 L618.7969 344.2383 L620.3281 344.2383 L620.3281 345.1133 Q620.7188 344.4883 621.0312 344.293 Q621.3438 344.0977 621.7344 344.0977 Q622.2969 344.0977 622.8281 344.4102 L622.3125 345.832 Q621.8906 345.5664 621.5469 345.5664 Q621.1875 345.5664 620.9531 345.7617 Q620.7188 345.957 620.5781 346.4492 Q620.4375 346.9414 620.4375 348.5352 L620.4375 350.457 ZM623.2812 348.6758 L624.9375 348.4258 Q625.0469 348.9102 625.3672 349.1602 Q625.6875 349.4102 626.2656 349.4102 Q626.9062 349.4102 627.2188 349.1758 Q627.4375 349.0039 627.4375 348.7383 Q627.4375 348.5508 627.3281 348.4258 Q627.2031 348.3008 626.7812 348.207 Q624.7812 347.7695 624.25 347.4102 Q623.5156 346.8945 623.5156 346.0039 Q623.5156 345.1914 624.1484 344.6445 Q624.7812 344.0977 626.125 344.0977 Q627.4062 344.0977 628.0312 344.5117 Q628.6562 344.9258 628.8906 345.7383 L627.3281 346.0195 Q627.2344 345.6602 626.9531 345.4648 Q626.6719 345.2695 626.1562 345.2695 Q625.5156 345.2695 625.2344 345.457 Q625.0469 345.582 625.0469 345.7852 Q625.0469 345.9727 625.2031 346.0977 Q625.4219 346.2539 626.7422 346.5508 Q628.0625 346.8477 628.5781 347.2852 Q629.0938 347.7227 629.0938 348.5039 Q629.0938 349.3633 628.3828 349.9805 Q627.6719 350.5977 626.2656 350.5977 Q625 350.5977 624.2578 350.082 Q623.5156 349.5664 623.2812 348.6758 ZM630.4844 347.2539 Q630.4844 346.4414 630.8906 345.668 Q631.2969 344.8945 632.0312 344.4961 Q632.7656 344.0977 633.6875 344.0977 Q635.0938 344.0977 636 345.0117 Q636.9062 345.9258 636.9062 347.332 Q636.9062 348.7383 635.9922 349.668 Q635.0781 350.5977 633.7031 350.5977 Q632.8438 350.5977 632.0703 350.207 Q631.2969 349.8164 630.8906 349.0742 Q630.4844 348.332 630.4844 347.2539 ZM632.1719 347.3477 Q632.1719 348.2695 632.6094 348.7617 Q633.0469 349.2539 633.6875 349.2539 Q634.3438 349.2539 634.7734 348.7617 Q635.2031 348.2695 635.2031 347.332 Q635.2031 346.4258 634.7734 345.9336 Q634.3438 345.4414 633.6875 345.4414 Q633.0469 345.4414 632.6094 345.9336 Q632.1719 346.4258 632.1719 347.3477 ZM643.5156 350.457 L641.875 350.457 L641.875 347.2852 Q641.875 346.2695 641.7734 345.9727 Q641.6719 345.6758 641.4297 345.5117 Q641.1875 345.3477 640.8594 345.3477 Q640.4219 345.3477 640.0859 345.582 Q639.75 345.8164 639.625 346.207 Q639.5 346.5977 639.5 347.6445 L639.5 350.457 L637.8438 350.457 L637.8438 344.2383 L639.375 344.2383 L639.375 345.1445 Q640.1875 344.0977 641.4375 344.0977 Q641.9688 344.0977 642.4219 344.293 Q642.875 344.4883 643.1094 344.793 Q643.3438 345.0977 643.4297 345.4805 Q643.5156 345.8633 643.5156 346.582 L643.5156 350.457 ZM646.0938 346.1289 L644.5938 345.8633 Q644.8438 344.957 645.4609 344.5273 Q646.0781 344.0977 647.2969 344.0977 Q648.3906 344.0977 648.9297 344.3555 Q649.4688 344.6133 649.6875 345.0117 Q649.9062 345.4102 649.9062 346.4883 L649.8906 348.4102 Q649.8906 349.2383 649.9688 349.6211 Q650.0469 350.0039 650.2656 350.457 L648.6406 350.457 Q648.5781 350.2852 648.4844 349.9727 Q648.4375 349.8164 648.4219 349.7695 Q648 350.1914 647.5234 350.3945 Q647.0469 350.5977 646.5 350.5977 Q645.5312 350.5977 644.9766 350.0742 Q644.4219 349.5508 644.4219 348.7539 Q644.4219 348.2227 644.6797 347.8164 Q644.9375 347.4102 645.3906 347.1836 Q645.8438 346.957 646.7031 346.8008 Q647.8438 346.582 648.2969 346.3945 L648.2969 346.2383 Q648.2969 345.7539 648.0625 345.5508 Q647.8281 345.3477 647.1719 345.3477 Q646.7344 345.3477 646.4922 345.5195 Q646.25 345.6914 646.0938 346.1289 ZM648.2969 347.4727 Q647.9844 347.5664 647.2969 347.7148 Q646.6094 347.8633 646.3906 348.0039 Q646.0781 348.2383 646.0781 348.582 Q646.0781 348.9258 646.3359 349.1836 Q646.5938 349.4414 646.9844 349.4414 Q647.4375 349.4414 647.8438 349.1445 Q648.1406 348.9258 648.2344 348.5977 Q648.2969 348.3945 648.2969 347.8008 L648.2969 347.4727 ZM651.8594 350.457 L651.8594 341.8633 L653.5156 341.8633 L653.5156 350.457 L651.8594 350.457 ZM654.7344 344.2383 L656.25 344.2383 L656.25 345.082 Q657.0781 344.0977 658.2031 344.0977 Q658.7969 344.0977 659.2344 344.3398 Q659.6719 344.582 659.9531 345.082 Q660.3594 344.582 660.8359 344.3398 Q661.3125 344.0977 661.8594 344.0977 Q662.5312 344.0977 663.0078 344.3711 Q663.4844 344.6445 663.7188 345.1914 Q663.8906 345.582 663.8906 346.4727 L663.8906 350.457 L662.25 350.457 L662.25 346.8945 Q662.25 345.9727 662.0781 345.707 Q661.8438 345.3477 661.375 345.3477 Q661.0312 345.3477 660.7266 345.5586 Q660.4219 345.7695 660.2812 346.1758 Q660.1406 346.582 660.1406 347.4727 L660.1406 350.457 L658.5 350.457 L658.5 347.0508 Q658.5 346.1445 658.4141 345.8789 Q658.3281 345.6133 658.1406 345.4805 Q657.9531 345.3477 657.6406 345.3477 Q657.2656 345.3477 656.9609 345.5586 Q656.6562 345.7695 656.5234 346.1523 Q656.3906 346.5352 656.3906 347.4258 L656.3906 350.457 L654.7344 350.457 L654.7344 344.2383 ZM667.0938 346.1289 L665.5938 345.8633 Q665.8438 344.957 666.4609 344.5273 Q667.0781 344.0977 668.2969 344.0977 Q669.3906 344.0977 669.9297 344.3555 Q670.4688 344.6133 670.6875 345.0117 Q670.9062 345.4102 670.9062 346.4883 L670.8906 348.4102 Q670.8906 349.2383 670.9688 349.6211 Q671.0469 350.0039 671.2656 350.457 L669.6406 350.457 Q669.5781 350.2852 669.4844 349.9727 Q669.4375 349.8164 669.4219 349.7695 Q669 350.1914 668.5234 350.3945 Q668.0469 350.5977 667.5 350.5977 Q666.5312 350.5977 665.9766 350.0742 Q665.4219 349.5508 665.4219 348.7539 Q665.4219 348.2227 665.6797 347.8164 Q665.9375 347.4102 666.3906 347.1836 Q666.8438 346.957 667.7031 346.8008 Q668.8438 346.582 669.2969 346.3945 L669.2969 346.2383 Q669.2969 345.7539 669.0625 345.5508 Q668.8281 345.3477 668.1719 345.3477 Q667.7344 345.3477 667.4922 345.5195 Q667.25 345.6914 667.0938 346.1289 ZM669.2969 347.4727 Q668.9844 347.5664 668.2969 347.7148 Q667.6094 347.8633 667.3906 348.0039 Q667.0781 348.2383 667.0781 348.582 Q667.0781 348.9258 667.3359 349.1836 Q667.5938 349.4414 667.9844 349.4414 Q668.4375 349.4414 668.8438 349.1445 Q669.1406 348.9258 669.2344 348.5977 Q669.2969 348.3945 669.2969 347.8008 L669.2969 347.4727 ZM678.5156 350.457 L676.875 350.457 L676.875 347.2852 Q676.875 346.2695 676.7734 345.9727 Q676.6719 345.6758 676.4297 345.5117 Q676.1875 345.3477 675.8594 345.3477 Q675.4219 345.3477 675.0859 345.582 Q674.75 345.8164 674.625 346.207 Q674.5 346.5977 674.5 347.6445 L674.5 350.457 L672.8438 350.457 L672.8438 344.2383 L674.375 344.2383 L674.375 345.1445 Q675.1875 344.0977 676.4375 344.0977 Q676.9688 344.0977 677.4219 344.293 Q677.875 344.4883 678.1094 344.793 Q678.3438 345.0977 678.4297 345.4805 Q678.5156 345.8633 678.5156 346.582 L678.5156 350.457 ZM681.0938 346.1289 L679.5938 345.8633 Q679.8438 344.957 680.4609 344.5273 Q681.0781 344.0977 682.2969 344.0977 Q683.3906 344.0977 683.9297 344.3555 Q684.4688 344.6133 684.6875 345.0117 Q684.9062 345.4102 684.9062 346.4883 L684.8906 348.4102 Q684.8906 349.2383 684.9688 349.6211 Q685.0469 350.0039 685.2656 350.457 L683.6406 350.457 Q683.5781 350.2852 683.4844 349.9727 Q683.4375 349.8164 683.4219 349.7695 Q683 350.1914 682.5234 350.3945 Q682.0469 350.5977 681.5 350.5977 Q680.5312 350.5977 679.9766 350.0742 Q679.4219 349.5508 679.4219 348.7539 Q679.4219 348.2227 679.6797 347.8164 Q679.9375 347.4102 680.3906 347.1836 Q680.8438 346.957 681.7031 346.8008 Q682.8438 346.582 683.2969 346.3945 L683.2969 346.2383 Q683.2969 345.7539 683.0625 345.5508 Q682.8281 345.3477 682.1719 345.3477 Q681.7344 345.3477 681.4922 345.5195 Q681.25 345.6914 681.0938 346.1289 ZM683.2969 347.4727 Q682.9844 347.5664 682.2969 347.7148 Q681.6094 347.8633 681.3906 348.0039 Q681.0781 348.2383 681.0781 348.582 Q681.0781 348.9258 681.3359 349.1836 Q681.5938 349.4414 681.9844 349.4414 Q682.4375 349.4414 682.8438 349.1445 Q683.1406 348.9258 683.2344 348.5977 Q683.2969 348.3945 683.2969 347.8008 L683.2969 347.4727 ZM686.7031 350.8633 L688.5938 351.0977 Q688.6406 351.4258 688.8125 351.5508 Q689.0469 351.7227 689.5469 351.7227 Q690.1875 351.7227 690.5156 351.5352 Q690.7344 351.3945 690.8438 351.1133 Q690.9219 350.9102 690.9219 350.3633 L690.9219 349.4414 Q690.1719 350.457 689.0469 350.457 Q687.7969 350.457 687.0625 349.3945 Q686.5 348.5508 686.5 347.3164 Q686.5 345.7383 687.25 344.918 Q688 344.0977 689.125 344.0977 Q690.2656 344.0977 691.0156 345.1133 L691.0156 344.2383 L692.5625 344.2383 L692.5625 349.8164 Q692.5625 350.9258 692.3828 351.4648 Q692.2031 352.0039 691.875 352.3164 Q691.5469 352.6289 691 352.8086 Q690.4531 352.9883 689.6094 352.9883 Q688.0312 352.9883 687.3672 352.4414 Q686.7031 351.8945 686.7031 351.0664 Q686.7031 350.9883 686.7031 350.8633 ZM688.1875 347.2227 Q688.1875 348.207 688.5703 348.668 Q688.9531 349.1289 689.5156 349.1289 Q690.1094 349.1289 690.5312 348.6523 Q690.9531 348.1758 690.9531 347.2539 Q690.9531 346.2852 690.5547 345.8164 Q690.1562 345.3477 689.5469 345.3477 Q688.9531 345.3477 688.5703 345.8086 Q688.1875 346.2695 688.1875 347.2227 ZM697.4688 348.4727 L699.1094 348.7539 Q698.7969 349.6602 698.1094 350.1289 Q697.4219 350.5977 696.4062 350.5977 Q694.7812 350.5977 694 349.5352 Q693.375 348.6914 693.375 347.3945 Q693.375 345.8477 694.1875 344.9727 Q695 344.0977 696.2344 344.0977 Q697.625 344.0977 698.4297 345.0117 Q699.2344 345.9258 699.1875 347.8164 L695.0625 347.8164 Q695.0938 348.5508 695.4688 348.957 Q695.8438 349.3633 696.4219 349.3633 Q696.7969 349.3633 697.0625 349.1523 Q697.3281 348.9414 697.4688 348.4727 ZM697.5625 346.8164 Q697.5469 346.0977 697.1953 345.7227 Q696.8438 345.3477 696.3281 345.3477 Q695.7969 345.3477 695.4375 345.7383 Q695.0938 346.1445 695.0938 346.8164 L697.5625 346.8164 ZM700.7344 344.2383 L702.25 344.2383 L702.25 345.082 Q703.0781 344.0977 704.2031 344.0977 Q704.7969 344.0977 705.2344 344.3398 Q705.6719 344.582 705.9531 345.082 Q706.3594 344.582 706.8359 344.3398 Q707.3125 344.0977 707.8594 344.0977 Q708.5312 344.0977 709.0078 344.3711 Q709.4844 344.6445 709.7188 345.1914 Q709.8906 345.582 709.8906 346.4727 L709.8906 350.457 L708.25 350.457 L708.25 346.8945 Q708.25 345.9727 708.0781 345.707 Q707.8438 345.3477 707.375 345.3477 Q707.0312 345.3477 706.7266 345.5586 Q706.4219 345.7695 706.2812 346.1758 Q706.1406 346.582 706.1406 347.4727 L706.1406 350.457 L704.5 350.457 L704.5 347.0508 Q704.5 346.1445 704.4141 345.8789 Q704.3281 345.6133 704.1406 345.4805 Q703.9531 345.3477 703.6406 345.3477 Q703.2656 345.3477 702.9609 345.5586 Q702.6562 345.7695 702.5234 346.1523 Q702.3906 346.5352 702.3906 347.4258 L702.3906 350.457 L700.7344 350.457 L700.7344 344.2383 ZM715.4688 348.4727 L717.1094 348.7539 Q716.7969 349.6602 716.1094 350.1289 Q715.4219 350.5977 714.4062 350.5977 Q712.7812 350.5977 712 349.5352 Q711.375 348.6914 711.375 347.3945 Q711.375 345.8477 712.1875 344.9727 Q713 344.0977 714.2344 344.0977 Q715.625 344.0977 716.4297 345.0117 Q717.2344 345.9258 717.1875 347.8164 L713.0625 347.8164 Q713.0938 348.5508 713.4688 348.957 Q713.8438 349.3633 714.4219 349.3633 Q714.7969 349.3633 715.0625 349.1523 Q715.3281 348.9414 715.4688 348.4727 ZM715.5625 346.8164 Q715.5469 346.0977 715.1953 345.7227 Q714.8438 345.3477 714.3281 345.3477 Q713.7969 345.3477 713.4375 345.7383 Q713.0938 346.1445 713.0938 346.8164 L715.5625 346.8164 ZM724.5156 350.457 L722.875 350.457 L722.875 347.2852 Q722.875 346.2695 722.7734 345.9727 Q722.6719 345.6758 722.4297 345.5117 Q722.1875 345.3477 721.8594 345.3477 Q721.4219 345.3477 721.0859 345.582 Q720.75 345.8164 720.625 346.207 Q720.5 346.5977 720.5 347.6445 L720.5 350.457 L718.8438 350.457 L718.8438 344.2383 L720.375 344.2383 L720.375 345.1445 Q721.1875 344.0977 722.4375 344.0977 Q722.9688 344.0977 723.4219 344.293 Q723.875 344.4883 724.1094 344.793 Q724.3438 345.0977 724.4297 345.4805 Q724.5156 345.8633 724.5156 346.582 L724.5156 350.457 ZM728.7188 344.2383 L728.7188 345.5508 L727.5938 345.5508 L727.5938 348.0508 Q727.5938 348.8164 727.625 348.9414 Q727.6562 349.0664 727.7734 349.1523 Q727.8906 349.2383 728.0469 349.2383 Q728.2812 349.2383 728.7031 349.0664 L728.8438 350.3477 Q728.2812 350.5977 727.5469 350.5977 Q727.1094 350.5977 726.75 350.4492 Q726.3906 350.3008 726.2266 350.0586 Q726.0625 349.8164 725.9844 349.4258 Q725.9375 349.1289 725.9375 348.2539 L725.9375 345.5508 L725.1875 345.5508 L725.1875 344.2383 L725.9375 344.2383 L725.9375 343.0039 L727.5938 342.0352 L727.5938 344.2383 L728.7188 344.2383 ZM738.5625 350.457 L737.0469 350.457 L737.0469 349.5352 Q736.6562 350.082 736.1406 350.3398 Q735.625 350.5977 735.0938 350.5977 Q734.0156 350.5977 733.2578 349.7305 Q732.5 348.8633 732.5 347.3164 Q732.5 345.7383 733.2422 344.918 Q733.9844 344.0977 735.125 344.0977 Q736.1562 344.0977 736.9219 344.957 L736.9219 341.8633 L738.5625 341.8633 L738.5625 350.457 ZM734.1719 347.207 Q734.1719 348.207 734.4531 348.6445 Q734.8438 349.3008 735.5625 349.3008 Q736.125 349.3008 736.5234 348.8164 Q736.9219 348.332 736.9219 347.3633 Q736.9219 346.3008 736.5391 345.8242 Q736.1562 345.3477 735.5469 345.3477 Q734.9688 345.3477 734.5703 345.8164 Q734.1719 346.2852 734.1719 347.207 ZM743.4688 348.4727 L745.1094 348.7539 Q744.7969 349.6602 744.1094 350.1289 Q743.4219 350.5977 742.4062 350.5977 Q740.7812 350.5977 740 349.5352 Q739.375 348.6914 739.375 347.3945 Q739.375 345.8477 740.1875 344.9727 Q741 344.0977 742.2344 344.0977 Q743.625 344.0977 744.4297 345.0117 Q745.2344 345.9258 745.1875 347.8164 L741.0625 347.8164 Q741.0938 348.5508 741.4688 348.957 Q741.8438 349.3633 742.4219 349.3633 Q742.7969 349.3633 743.0625 349.1523 Q743.3281 348.9414 743.4688 348.4727 ZM743.5625 346.8164 Q743.5469 346.0977 743.1953 345.7227 Q742.8438 345.3477 742.3281 345.3477 Q741.7969 345.3477 741.4375 345.7383 Q741.0938 346.1445 741.0938 346.8164 L743.5625 346.8164 ZM748.4375 350.457 L746.7969 350.457 L746.7969 344.2383 L748.3281 344.2383 L748.3281 345.1133 Q748.7188 344.4883 749.0312 344.293 Q749.3438 344.0977 749.7344 344.0977 Q750.2969 344.0977 750.8281 344.4102 L750.3125 345.832 Q749.8906 345.5664 749.5469 345.5664 Q749.1875 345.5664 748.9531 345.7617 Q748.7188 345.957 748.5781 346.4492 Q748.4375 346.9414 748.4375 348.5352 L748.4375 350.457 Z" clip-path="url(#clipPath2)" stroke="none"/><path fill="black" d="M643.875 356.8633 L647.3125 356.8633 Q648.3281 356.8633 648.8281 356.9492 Q649.3281 357.0352 649.7266 357.3086 Q650.125 357.582 650.3906 358.0273 Q650.6562 358.4727 650.6562 359.0352 Q650.6562 359.6289 650.3281 360.1367 Q650 360.6445 649.4531 360.8945 Q650.2344 361.1133 650.6562 361.668 Q651.0781 362.2227 651.0781 362.9727 Q651.0781 363.5508 650.8047 364.1055 Q650.5312 364.6602 650.0625 364.9883 Q649.5938 365.3164 648.8906 365.3945 Q648.4688 365.4414 646.7969 365.457 L643.875 365.457 L643.875 356.8633 ZM645.6094 358.3008 L645.6094 360.2852 L646.75 360.2852 Q647.7656 360.2852 648.0156 360.2539 Q648.4531 360.207 648.7109 359.9492 Q648.9688 359.6914 648.9688 359.2695 Q648.9688 358.8789 648.75 358.6289 Q648.5312 358.3789 648.0938 358.332 Q647.8281 358.3008 646.6094 358.3008 L645.6094 358.3008 ZM645.6094 361.707 L645.6094 364.0039 L647.2188 364.0039 Q648.1562 364.0039 648.4062 363.957 Q648.7969 363.8789 649.0391 363.6133 Q649.2812 363.3477 649.2812 362.8789 Q649.2812 362.5039 649.0938 362.2305 Q648.9062 361.957 648.5547 361.832 Q648.2031 361.707 647.0156 361.707 L645.6094 361.707 ZM655.9531 365.457 L655.9531 364.5195 Q655.625 365.0195 655.0703 365.3086 Q654.5156 365.5977 653.8906 365.5977 Q653.2656 365.5977 652.7656 365.3242 Q652.2656 365.0508 652.0469 364.5508 Q651.8281 364.0508 651.8281 363.1758 L651.8281 359.2383 L653.4688 359.2383 L653.4688 362.0977 Q653.4688 363.4102 653.5625 363.707 Q653.6562 364.0039 653.8984 364.1758 Q654.1406 364.3477 654.5 364.3477 Q654.9219 364.3477 655.2578 364.1133 Q655.5938 363.8789 655.7188 363.5352 Q655.8438 363.1914 655.8438 361.8633 L655.8438 359.2383 L657.4844 359.2383 L657.4844 365.457 L655.9531 365.457 ZM664.5156 365.457 L662.875 365.457 L662.875 362.2852 Q662.875 361.2695 662.7734 360.9727 Q662.6719 360.6758 662.4297 360.5117 Q662.1875 360.3477 661.8594 360.3477 Q661.4219 360.3477 661.0859 360.582 Q660.75 360.8164 660.625 361.207 Q660.5 361.5977 660.5 362.6445 L660.5 365.457 L658.8438 365.457 L658.8438 359.2383 L660.375 359.2383 L660.375 360.1445 Q661.1875 359.0977 662.4375 359.0977 Q662.9688 359.0977 663.4219 359.293 Q663.875 359.4883 664.1094 359.793 Q664.3438 360.0977 664.4297 360.4805 Q664.5156 360.8633 664.5156 361.582 L664.5156 365.457 ZM671.5625 365.457 L670.0469 365.457 L670.0469 364.5352 Q669.6562 365.082 669.1406 365.3398 Q668.625 365.5977 668.0938 365.5977 Q667.0156 365.5977 666.2578 364.7305 Q665.5 363.8633 665.5 362.3164 Q665.5 360.7383 666.2422 359.918 Q666.9844 359.0977 668.125 359.0977 Q669.1562 359.0977 669.9219 359.957 L669.9219 356.8633 L671.5625 356.8633 L671.5625 365.457 ZM667.1719 362.207 Q667.1719 363.207 667.4531 363.6445 Q667.8438 364.3008 668.5625 364.3008 Q669.125 364.3008 669.5234 363.8164 Q669.9219 363.332 669.9219 362.3633 Q669.9219 361.3008 669.5391 360.8242 Q669.1562 360.3477 668.5469 360.3477 Q667.9688 360.3477 667.5703 360.8164 Q667.1719 361.2852 667.1719 362.207 ZM676.4688 363.4727 L678.1094 363.7539 Q677.7969 364.6602 677.1094 365.1289 Q676.4219 365.5977 675.4062 365.5977 Q673.7812 365.5977 673 364.5352 Q672.375 363.6914 672.375 362.3945 Q672.375 360.8477 673.1875 359.9727 Q674 359.0977 675.2344 359.0977 Q676.625 359.0977 677.4297 360.0117 Q678.2344 360.9258 678.1875 362.8164 L674.0625 362.8164 Q674.0938 363.5508 674.4688 363.957 Q674.8438 364.3633 675.4219 364.3633 Q675.7969 364.3633 676.0625 364.1523 Q676.3281 363.9414 676.4688 363.4727 ZM676.5625 361.8164 Q676.5469 361.0977 676.1953 360.7227 Q675.8438 360.3477 675.3281 360.3477 Q674.7969 360.3477 674.4375 360.7383 Q674.0938 361.1445 674.0938 361.8164 L676.5625 361.8164 ZM679.2812 363.6758 L680.9375 363.4258 Q681.0469 363.9102 681.3672 364.1602 Q681.6875 364.4102 682.2656 364.4102 Q682.9062 364.4102 683.2188 364.1758 Q683.4375 364.0039 683.4375 363.7383 Q683.4375 363.5508 683.3281 363.4258 Q683.2031 363.3008 682.7812 363.207 Q680.7812 362.7695 680.25 362.4102 Q679.5156 361.8945 679.5156 361.0039 Q679.5156 360.1914 680.1484 359.6445 Q680.7812 359.0977 682.125 359.0977 Q683.4062 359.0977 684.0312 359.5117 Q684.6562 359.9258 684.8906 360.7383 L683.3281 361.0195 Q683.2344 360.6602 682.9531 360.4648 Q682.6719 360.2695 682.1562 360.2695 Q681.5156 360.2695 681.2344 360.457 Q681.0469 360.582 681.0469 360.7852 Q681.0469 360.9727 681.2031 361.0977 Q681.4219 361.2539 682.7422 361.5508 Q684.0625 361.8477 684.5781 362.2852 Q685.0938 362.7227 685.0938 363.5039 Q685.0938 364.3633 684.3828 364.9805 Q683.6719 365.5977 682.2656 365.5977 Q681 365.5977 680.2578 365.082 Q679.5156 364.5664 679.2812 363.6758 ZM688.0156 365.457 L686.0469 359.2383 L687.6562 359.2383 L688.8125 363.3164 L689.8906 359.2383 L691.4844 359.2383 L692.5156 363.3164 L693.7031 359.2383 L695.3281 359.2383 L693.3281 365.457 L691.75 365.457 L690.6719 361.457 L689.625 365.457 L688.0156 365.457 ZM700.4688 363.4727 L702.1094 363.7539 Q701.7969 364.6602 701.1094 365.1289 Q700.4219 365.5977 699.4062 365.5977 Q697.7812 365.5977 697 364.5352 Q696.375 363.6914 696.375 362.3945 Q696.375 360.8477 697.1875 359.9727 Q698 359.0977 699.2344 359.0977 Q700.625 359.0977 701.4297 360.0117 Q702.2344 360.9258 702.1875 362.8164 L698.0625 362.8164 Q698.0938 363.5508 698.4688 363.957 Q698.8438 364.3633 699.4219 364.3633 Q699.7969 364.3633 700.0625 364.1523 Q700.3281 363.9414 700.4688 363.4727 ZM700.5625 361.8164 Q700.5469 361.0977 700.1953 360.7227 Q699.8438 360.3477 699.3281 360.3477 Q698.7969 360.3477 698.4375 360.7383 Q698.0938 361.1445 698.0938 361.8164 L700.5625 361.8164 ZM705.5 356.8633 L705.5 360.0195 Q706.2969 359.0977 707.4062 359.0977 Q707.9688 359.0977 708.4297 359.3086 Q708.8906 359.5195 709.125 359.8477 Q709.3594 360.1758 709.4375 360.5742 Q709.5156 360.9727 709.5156 361.8008 L709.5156 365.457 L707.875 365.457 L707.875 362.1758 Q707.875 361.1914 707.7812 360.9258 Q707.6875 360.6602 707.4531 360.5039 Q707.2188 360.3477 706.8594 360.3477 Q706.4531 360.3477 706.125 360.5508 Q705.7969 360.7539 705.6484 361.1523 Q705.5 361.5508 705.5 362.332 L705.5 365.457 L703.8594 365.457 L703.8594 356.8633 L705.5 356.8633 ZM712.4375 365.457 L710.7969 365.457 L710.7969 359.2383 L712.3281 359.2383 L712.3281 360.1133 Q712.7188 359.4883 713.0312 359.293 Q713.3438 359.0977 713.7344 359.0977 Q714.2969 359.0977 714.8281 359.4102 L714.3125 360.832 Q713.8906 360.5664 713.5469 360.5664 Q713.1875 360.5664 712.9531 360.7617 Q712.7188 360.957 712.5781 361.4492 Q712.4375 361.9414 712.4375 363.5352 L712.4375 365.457 Z" clip-path="url(#clipPath2)" stroke="none"/><line clip-path="url(#clipPath2)" fill="none" x1="679" x2="679" y1="301" y2="313" stroke="rgb(178,178,178)"/><line clip-path="url(#clipPath2)" fill="none" x1="663" x2="695" y1="307" y2="307" stroke="rgb(178,178,178)"/><line clip-path="url(#clipPath2)" fill="none" x1="663" x2="679" y1="324" y2="313" stroke="rgb(178,178,178)"/><line clip-path="url(#clipPath2)" fill="none" x1="695" x2="679" y1="324" y2="313" stroke="rgb(178,178,178)"/><line clip-path="url(#clipPath2)" fill="none" x1="680" x2="680" y1="301" y2="314" stroke="rgb(178,178,178)"/><line clip-path="url(#clipPath2)" fill="none" x1="664" x2="696" y1="308" y2="308" stroke="rgb(178,178,178)"/><line clip-path="url(#clipPath2)" fill="none" x1="664" x2="680" y1="325" y2="314" stroke="rgb(178,178,178)"/><line clip-path="url(#clipPath2)" fill="none" x1="696" x2="680" y1="325" y2="314" stroke="rgb(178,178,178)"/><circle fill="rgb(178,178,178)" r="5.5" clip-path="url(#clipPath2)" cx="680.5" cy="297.5" stroke="none"/><circle fill="url(#linearGradient2)" r="5.5" clip-path="url(#clipPath2)" cx="678.5" cy="295.5" stroke="none"/><circle fill="none" r="5.5" clip-path="url(#clipPath2)" cx="678.5" cy="295.5"/><line y2="312" fill="none" x1="678" clip-path="url(#clipPath2)" x2="678" y1="301"/><line y2="306" fill="none" x1="662" clip-path="url(#clipPath2)" x2="694" y1="306"/><line y2="312" fill="none" x1="662" clip-path="url(#clipPath2)" x2="678" y1="323"/><line y2="312" fill="none" x1="694" clip-path="url(#clipPath2)" x2="678" y1="323"/><ellipse clip-path="url(#clipPath2)" fill="rgb(178,178,178)" rx="70" cx="903" ry="36" cy="319" stroke="none"/><ellipse clip-path="url(#clipPath2)" fill="url(#linearGradient3)" rx="70" cx="900" ry="36" cy="316" stroke="none"/><ellipse rx="70" fill="none" ry="36" clip-path="url(#clipPath2)" cx="900" cy="316"/><path fill="black" d="M863.625 304.457 L861.7344 304.457 L860.9844 302.5039 L857.5469 302.5039 L856.8438 304.457 L855 304.457 L858.3438 295.8633 L860.1875 295.8633 L863.625 304.457 ZM860.4219 301.0508 L859.25 297.8633 L858.0781 301.0508 L860.4219 301.0508 ZM869.5625 304.457 L868.0469 304.457 L868.0469 303.5352 Q867.6562 304.082 867.1406 304.3398 Q866.625 304.5977 866.0938 304.5977 Q865.0156 304.5977 864.2578 303.7305 Q863.5 302.8633 863.5 301.3164 Q863.5 299.7383 864.2422 298.918 Q864.9844 298.0977 866.125 298.0977 Q867.1562 298.0977 867.9219 298.957 L867.9219 295.8633 L869.5625 295.8633 L869.5625 304.457 ZM865.1719 301.207 Q865.1719 302.207 865.4531 302.6445 Q865.8438 303.3008 866.5625 303.3008 Q867.125 303.3008 867.5234 302.8164 Q867.9219 302.332 867.9219 301.3633 Q867.9219 300.3008 867.5391 299.8242 Q867.1562 299.3477 866.5469 299.3477 Q865.9688 299.3477 865.5703 299.8164 Q865.1719 300.2852 865.1719 301.207 ZM872.4375 304.457 L870.7969 304.457 L870.7969 298.2383 L872.3281 298.2383 L872.3281 299.1133 Q872.7188 298.4883 873.0312 298.293 Q873.3438 298.0977 873.7344 298.0977 Q874.2969 298.0977 874.8281 298.4102 L874.3125 299.832 Q873.8906 299.5664 873.5469 299.5664 Q873.1875 299.5664 872.9531 299.7617 Q872.7188 299.957 872.5781 300.4492 Q872.4375 300.9414 872.4375 302.5352 L872.4375 304.457 ZM879.4688 302.4727 L881.1094 302.7539 Q880.7969 303.6602 880.1094 304.1289 Q879.4219 304.5977 878.4062 304.5977 Q876.7812 304.5977 876 303.5352 Q875.375 302.6914 875.375 301.3945 Q875.375 299.8477 876.1875 298.9727 Q877 298.0977 878.2344 298.0977 Q879.625 298.0977 880.4297 299.0117 Q881.2344 299.9258 881.1875 301.8164 L877.0625 301.8164 Q877.0938 302.5508 877.4688 302.957 Q877.8438 303.3633 878.4219 303.3633 Q878.7969 303.3633 879.0625 303.1523 Q879.3281 302.9414 879.4688 302.4727 ZM879.5625 300.8164 Q879.5469 300.0977 879.1953 299.7227 Q878.8438 299.3477 878.3281 299.3477 Q877.7969 299.3477 877.4375 299.7383 Q877.0938 300.1445 877.0938 300.8164 L879.5625 300.8164 ZM882.2812 302.6758 L883.9375 302.4258 Q884.0469 302.9102 884.3672 303.1602 Q884.6875 303.4102 885.2656 303.4102 Q885.9062 303.4102 886.2188 303.1758 Q886.4375 303.0039 886.4375 302.7383 Q886.4375 302.5508 886.3281 302.4258 Q886.2031 302.3008 885.7812 302.207 Q883.7812 301.7695 883.25 301.4102 Q882.5156 300.8945 882.5156 300.0039 Q882.5156 299.1914 883.1484 298.6445 Q883.7812 298.0977 885.125 298.0977 Q886.4062 298.0977 887.0312 298.5117 Q887.6562 298.9258 887.8906 299.7383 L886.3281 300.0195 Q886.2344 299.6602 885.9531 299.4648 Q885.6719 299.2695 885.1562 299.2695 Q884.5156 299.2695 884.2344 299.457 Q884.0469 299.582 884.0469 299.7852 Q884.0469 299.9727 884.2031 300.0977 Q884.4219 300.2539 885.7422 300.5508 Q887.0625 300.8477 887.5781 301.2852 Q888.0938 301.7227 888.0938 302.5039 Q888.0938 303.3633 887.3828 303.9805 Q886.6719 304.5977 885.2656 304.5977 Q884 304.5977 883.2578 304.082 Q882.5156 303.5664 882.2812 302.6758 ZM889.2812 302.6758 L890.9375 302.4258 Q891.0469 302.9102 891.3672 303.1602 Q891.6875 303.4102 892.2656 303.4102 Q892.9062 303.4102 893.2188 303.1758 Q893.4375 303.0039 893.4375 302.7383 Q893.4375 302.5508 893.3281 302.4258 Q893.2031 302.3008 892.7812 302.207 Q890.7812 301.7695 890.25 301.4102 Q889.5156 300.8945 889.5156 300.0039 Q889.5156 299.1914 890.1484 298.6445 Q890.7812 298.0977 892.125 298.0977 Q893.4062 298.0977 894.0312 298.5117 Q894.6562 298.9258 894.8906 299.7383 L893.3281 300.0195 Q893.2344 299.6602 892.9531 299.4648 Q892.6719 299.2695 892.1562 299.2695 Q891.5156 299.2695 891.2344 299.457 Q891.0469 299.582 891.0469 299.7852 Q891.0469 299.9727 891.2031 300.0977 Q891.4219 300.2539 892.7422 300.5508 Q894.0625 300.8477 894.5781 301.2852 Q895.0938 301.7227 895.0938 302.5039 Q895.0938 303.3633 894.3828 303.9805 Q893.6719 304.5977 892.2656 304.5977 Q891 304.5977 890.2578 304.082 Q889.5156 303.5664 889.2812 302.6758 ZM902.5625 304.457 L901.0469 304.457 L901.0469 303.5352 Q900.6562 304.082 900.1406 304.3398 Q899.625 304.5977 899.0938 304.5977 Q898.0156 304.5977 897.2578 303.7305 Q896.5 302.8633 896.5 301.3164 Q896.5 299.7383 897.2422 298.918 Q897.9844 298.0977 899.125 298.0977 Q900.1562 298.0977 900.9219 298.957 L900.9219 295.8633 L902.5625 295.8633 L902.5625 304.457 ZM898.1719 301.207 Q898.1719 302.207 898.4531 302.6445 Q898.8438 303.3008 899.5625 303.3008 Q900.125 303.3008 900.5234 302.8164 Q900.9219 302.332 900.9219 301.3633 Q900.9219 300.3008 900.5391 299.8242 Q900.1562 299.3477 899.5469 299.3477 Q898.9688 299.3477 898.5703 299.8164 Q898.1719 300.2852 898.1719 301.207 ZM905.0938 300.1289 L903.5938 299.8633 Q903.8438 298.957 904.4609 298.5273 Q905.0781 298.0977 906.2969 298.0977 Q907.3906 298.0977 907.9297 298.3555 Q908.4688 298.6133 908.6875 299.0117 Q908.9062 299.4102 908.9062 300.4883 L908.8906 302.4102 Q908.8906 303.2383 908.9688 303.6211 Q909.0469 304.0039 909.2656 304.457 L907.6406 304.457 Q907.5781 304.2852 907.4844 303.9727 Q907.4375 303.8164 907.4219 303.7695 Q907 304.1914 906.5234 304.3945 Q906.0469 304.5977 905.5 304.5977 Q904.5312 304.5977 903.9766 304.0742 Q903.4219 303.5508 903.4219 302.7539 Q903.4219 302.2227 903.6797 301.8164 Q903.9375 301.4102 904.3906 301.1836 Q904.8438 300.957 905.7031 300.8008 Q906.8438 300.582 907.2969 300.3945 L907.2969 300.2383 Q907.2969 299.7539 907.0625 299.5508 Q906.8281 299.3477 906.1719 299.3477 Q905.7344 299.3477 905.4922 299.5195 Q905.25 299.6914 905.0938 300.1289 ZM907.2969 301.4727 Q906.9844 301.5664 906.2969 301.7148 Q905.6094 301.8633 905.3906 302.0039 Q905.0781 302.2383 905.0781 302.582 Q905.0781 302.9258 905.3359 303.1836 Q905.5938 303.4414 905.9844 303.4414 Q906.4375 303.4414 906.8438 303.1445 Q907.1406 302.9258 907.2344 302.5977 Q907.2969 302.3945 907.2969 301.8008 L907.2969 301.4727 ZM913.7188 298.2383 L913.7188 299.5508 L912.5938 299.5508 L912.5938 302.0508 Q912.5938 302.8164 912.625 302.9414 Q912.6562 303.0664 912.7734 303.1523 Q912.8906 303.2383 913.0469 303.2383 Q913.2812 303.2383 913.7031 303.0664 L913.8438 304.3477 Q913.2812 304.5977 912.5469 304.5977 Q912.1094 304.5977 911.75 304.4492 Q911.3906 304.3008 911.2266 304.0586 Q911.0625 303.8164 910.9844 303.4258 Q910.9375 303.1289 910.9375 302.2539 L910.9375 299.5508 L910.1875 299.5508 L910.1875 298.2383 L910.9375 298.2383 L910.9375 297.0039 L912.5938 296.0352 L912.5938 298.2383 L913.7188 298.2383 ZM918.4688 302.4727 L920.1094 302.7539 Q919.7969 303.6602 919.1094 304.1289 Q918.4219 304.5977 917.4062 304.5977 Q915.7812 304.5977 915 303.5352 Q914.375 302.6914 914.375 301.3945 Q914.375 299.8477 915.1875 298.9727 Q916 298.0977 917.2344 298.0977 Q918.625 298.0977 919.4297 299.0117 Q920.2344 299.9258 920.1875 301.8164 L916.0625 301.8164 Q916.0938 302.5508 916.4688 302.957 Q916.8438 303.3633 917.4219 303.3633 Q917.7969 303.3633 918.0625 303.1523 Q918.3281 302.9414 918.4688 302.4727 ZM918.5625 300.8164 Q918.5469 300.0977 918.1953 299.7227 Q917.8438 299.3477 917.3281 299.3477 Q916.7969 299.3477 916.4375 299.7383 Q916.0938 300.1445 916.0938 300.8164 L918.5625 300.8164 ZM927.5156 304.457 L925.875 304.457 L925.875 301.2852 Q925.875 300.2695 925.7734 299.9727 Q925.6719 299.6758 925.4297 299.5117 Q925.1875 299.3477 924.8594 299.3477 Q924.4219 299.3477 924.0859 299.582 Q923.75 299.8164 923.625 300.207 Q923.5 300.5977 923.5 301.6445 L923.5 304.457 L921.8438 304.457 L921.8438 298.2383 L923.375 298.2383 L923.375 299.1445 Q924.1875 298.0977 925.4375 298.0977 Q925.9688 298.0977 926.4219 298.293 Q926.875 298.4883 927.1094 298.793 Q927.3438 299.0977 927.4297 299.4805 Q927.5156 299.8633 927.5156 300.582 L927.5156 304.457 ZM931.8594 297.3945 L931.8594 295.8633 L933.5156 295.8633 L933.5156 297.3945 L931.8594 297.3945 ZM931.8594 304.457 L931.8594 298.2383 L933.5156 298.2383 L933.5156 304.457 L931.8594 304.457 ZM940.5156 304.457 L938.875 304.457 L938.875 301.2852 Q938.875 300.2695 938.7734 299.9727 Q938.6719 299.6758 938.4297 299.5117 Q938.1875 299.3477 937.8594 299.3477 Q937.4219 299.3477 937.0859 299.582 Q936.75 299.8164 936.625 300.207 Q936.5 300.5977 936.5 301.6445 L936.5 304.457 L934.8438 304.457 L934.8438 298.2383 L936.375 298.2383 L936.375 299.1445 Q937.1875 298.0977 938.4375 298.0977 Q938.9688 298.0977 939.4219 298.293 Q939.875 298.4883 940.1094 298.793 Q940.3438 299.0977 940.4297 299.4805 Q940.5156 299.8633 940.5156 300.582 L940.5156 304.457 Z" clip-path="url(#clipPath2)" stroke="none"/><path fill="black" d="M857.8906 319.457 L857.8906 310.8633 L863.7812 310.8633 L863.7812 312.3164 L859.625 312.3164 L859.625 314.3477 L863.2031 314.3477 L863.2031 315.8008 L859.625 315.8008 L859.625 319.457 L857.8906 319.457 ZM865.0938 315.1289 L863.5938 314.8633 Q863.8438 313.957 864.4609 313.5273 Q865.0781 313.0977 866.2969 313.0977 Q867.3906 313.0977 867.9297 313.3555 Q868.4688 313.6133 868.6875 314.0117 Q868.9062 314.4102 868.9062 315.4883 L868.8906 317.4102 Q868.8906 318.2383 868.9688 318.6211 Q869.0469 319.0039 869.2656 319.457 L867.6406 319.457 Q867.5781 319.2852 867.4844 318.9727 Q867.4375 318.8164 867.4219 318.7695 Q867 319.1914 866.5234 319.3945 Q866.0469 319.5977 865.5 319.5977 Q864.5312 319.5977 863.9766 319.0742 Q863.4219 318.5508 863.4219 317.7539 Q863.4219 317.2227 863.6797 316.8164 Q863.9375 316.4102 864.3906 316.1836 Q864.8438 315.957 865.7031 315.8008 Q866.8438 315.582 867.2969 315.3945 L867.2969 315.2383 Q867.2969 314.7539 867.0625 314.5508 Q866.8281 314.3477 866.1719 314.3477 Q865.7344 314.3477 865.4922 314.5195 Q865.25 314.6914 865.0938 315.1289 ZM867.2969 316.4727 Q866.9844 316.5664 866.2969 316.7148 Q865.6094 316.8633 865.3906 317.0039 Q865.0781 317.2383 865.0781 317.582 Q865.0781 317.9258 865.3359 318.1836 Q865.5938 318.4414 865.9844 318.4414 Q866.4375 318.4414 866.8438 318.1445 Q867.1406 317.9258 867.2344 317.5977 Q867.2969 317.3945 867.2969 316.8008 L867.2969 316.4727 ZM876.2812 315.0664 L874.6719 315.3633 Q874.5781 314.8789 874.2891 314.6367 Q874 314.3945 873.5469 314.3945 Q872.9219 314.3945 872.5547 314.8164 Q872.1875 315.2383 872.1875 316.2383 Q872.1875 317.3477 872.5625 317.8008 Q872.9375 318.2539 873.5625 318.2539 Q874.0312 318.2539 874.3281 317.9883 Q874.625 317.7227 874.75 317.0664 L876.375 317.3477 Q876.125 318.457 875.4062 319.0273 Q874.6875 319.5977 873.4844 319.5977 Q872.125 319.5977 871.3125 318.7383 Q870.5 317.8789 870.5 316.3477 Q870.5 314.8164 871.3125 313.957 Q872.125 313.0977 873.5156 313.0977 Q874.6562 313.0977 875.3281 313.582 Q876 314.0664 876.2812 315.0664 ZM879.5 310.8633 L879.5 314.0195 Q880.2969 313.0977 881.4062 313.0977 Q881.9688 313.0977 882.4297 313.3086 Q882.8906 313.5195 883.125 313.8477 Q883.3594 314.1758 883.4375 314.5742 Q883.5156 314.9727 883.5156 315.8008 L883.5156 319.457 L881.875 319.457 L881.875 316.1758 Q881.875 315.1914 881.7812 314.9258 Q881.6875 314.6602 881.4531 314.5039 Q881.2188 314.3477 880.8594 314.3477 Q880.4531 314.3477 880.125 314.5508 Q879.7969 314.7539 879.6484 315.1523 Q879.5 315.5508 879.5 316.332 L879.5 319.457 L877.8594 319.457 L877.8594 310.8633 L879.5 310.8633 ZM886.5781 319.457 L884.0625 313.2383 L885.7969 313.2383 L886.9688 316.4102 L887.3125 317.4727 Q887.4375 317.0664 887.4688 316.9414 Q887.5625 316.6758 887.6562 316.4102 L888.8281 313.2383 L890.5312 313.2383 L888.0625 319.457 L886.5781 319.457 ZM894.4688 317.4727 L896.1094 317.7539 Q895.7969 318.6602 895.1094 319.1289 Q894.4219 319.5977 893.4062 319.5977 Q891.7812 319.5977 891 318.5352 Q890.375 317.6914 890.375 316.3945 Q890.375 314.8477 891.1875 313.9727 Q892 313.0977 893.2344 313.0977 Q894.625 313.0977 895.4297 314.0117 Q896.2344 314.9258 896.1875 316.8164 L892.0625 316.8164 Q892.0938 317.5508 892.4688 317.957 Q892.8438 318.3633 893.4219 318.3633 Q893.7969 318.3633 894.0625 318.1523 Q894.3281 317.9414 894.4688 317.4727 ZM894.5625 315.8164 Q894.5469 315.0977 894.1953 314.7227 Q893.8438 314.3477 893.3281 314.3477 Q892.7969 314.3477 892.4375 314.7383 Q892.0938 315.1445 892.0938 315.8164 L894.5625 315.8164 ZM899.4375 319.457 L897.7969 319.457 L897.7969 313.2383 L899.3281 313.2383 L899.3281 314.1133 Q899.7188 313.4883 900.0312 313.293 Q900.3438 313.0977 900.7344 313.0977 Q901.2969 313.0977 901.8281 313.4102 L901.3125 314.832 Q900.8906 314.5664 900.5469 314.5664 Q900.1875 314.5664 899.9531 314.7617 Q899.7188 314.957 899.5781 315.4492 Q899.4375 315.9414 899.4375 317.5352 L899.4375 319.457 ZM902.1406 313.2383 L903.0625 313.2383 L903.0625 312.7695 Q903.0625 311.9727 903.2266 311.5898 Q903.3906 311.207 903.8359 310.9648 Q904.2812 310.7227 904.9688 310.7227 Q905.6719 310.7227 906.3438 310.9258 L906.125 312.082 Q905.7344 311.9883 905.375 311.9883 Q905.0156 311.9883 904.8594 312.1523 Q904.7031 312.3164 904.7031 312.8008 L904.7031 313.2383 L905.9375 313.2383 L905.9375 314.5352 L904.7031 314.5352 L904.7031 319.457 L903.0625 319.457 L903.0625 314.5352 L902.1406 314.5352 L902.1406 313.2383 ZM908.0938 315.1289 L906.5938 314.8633 Q906.8438 313.957 907.4609 313.5273 Q908.0781 313.0977 909.2969 313.0977 Q910.3906 313.0977 910.9297 313.3555 Q911.4688 313.6133 911.6875 314.0117 Q911.9062 314.4102 911.9062 315.4883 L911.8906 317.4102 Q911.8906 318.2383 911.9688 318.6211 Q912.0469 319.0039 912.2656 319.457 L910.6406 319.457 Q910.5781 319.2852 910.4844 318.9727 Q910.4375 318.8164 910.4219 318.7695 Q910 319.1914 909.5234 319.3945 Q909.0469 319.5977 908.5 319.5977 Q907.5312 319.5977 906.9766 319.0742 Q906.4219 318.5508 906.4219 317.7539 Q906.4219 317.2227 906.6797 316.8164 Q906.9375 316.4102 907.3906 316.1836 Q907.8438 315.957 908.7031 315.8008 Q909.8438 315.582 910.2969 315.3945 L910.2969 315.2383 Q910.2969 314.7539 910.0625 314.5508 Q909.8281 314.3477 909.1719 314.3477 Q908.7344 314.3477 908.4922 314.5195 Q908.25 314.6914 908.0938 315.1289 ZM910.2969 316.4727 Q909.9844 316.5664 909.2969 316.7148 Q908.6094 316.8633 908.3906 317.0039 Q908.0781 317.2383 908.0781 317.582 Q908.0781 317.9258 908.3359 318.1836 Q908.5938 318.4414 908.9844 318.4414 Q909.4375 318.4414 909.8438 318.1445 Q910.1406 317.9258 910.2344 317.5977 Q910.2969 317.3945 910.2969 316.8008 L910.2969 316.4727 ZM915.5 310.8633 L915.5 314.0195 Q916.2969 313.0977 917.4062 313.0977 Q917.9688 313.0977 918.4297 313.3086 Q918.8906 313.5195 919.125 313.8477 Q919.3594 314.1758 919.4375 314.5742 Q919.5156 314.9727 919.5156 315.8008 L919.5156 319.457 L917.875 319.457 L917.875 316.1758 Q917.875 315.1914 917.7812 314.9258 Q917.6875 314.6602 917.4531 314.5039 Q917.2188 314.3477 916.8594 314.3477 Q916.4531 314.3477 916.125 314.5508 Q915.7969 314.7539 915.6484 315.1523 Q915.5 315.5508 915.5 316.332 L915.5 319.457 L913.8594 319.457 L913.8594 310.8633 L915.5 310.8633 ZM922.4375 319.457 L920.7969 319.457 L920.7969 313.2383 L922.3281 313.2383 L922.3281 314.1133 Q922.7188 313.4883 923.0312 313.293 Q923.3438 313.0977 923.7344 313.0977 Q924.2969 313.0977 924.8281 313.4102 L924.3125 314.832 Q923.8906 314.5664 923.5469 314.5664 Q923.1875 314.5664 922.9531 314.7617 Q922.7188 314.957 922.5781 315.4492 Q922.4375 315.9414 922.4375 317.5352 L922.4375 319.457 ZM929.4688 317.4727 L931.1094 317.7539 Q930.7969 318.6602 930.1094 319.1289 Q929.4219 319.5977 928.4062 319.5977 Q926.7812 319.5977 926 318.5352 Q925.375 317.6914 925.375 316.3945 Q925.375 314.8477 926.1875 313.9727 Q927 313.0977 928.2344 313.0977 Q929.625 313.0977 930.4297 314.0117 Q931.2344 314.9258 931.1875 316.8164 L927.0625 316.8164 Q927.0938 317.5508 927.4688 317.957 Q927.8438 318.3633 928.4219 318.3633 Q928.7969 318.3633 929.0625 318.1523 Q929.3281 317.9414 929.4688 317.4727 ZM929.5625 315.8164 Q929.5469 315.0977 929.1953 314.7227 Q928.8438 314.3477 928.3281 314.3477 Q927.7969 314.3477 927.4375 314.7383 Q927.0938 315.1445 927.0938 315.8164 L929.5625 315.8164 ZM938.5156 319.457 L936.875 319.457 L936.875 316.2852 Q936.875 315.2695 936.7734 314.9727 Q936.6719 314.6758 936.4297 314.5117 Q936.1875 314.3477 935.8594 314.3477 Q935.4219 314.3477 935.0859 314.582 Q934.75 314.8164 934.625 315.207 Q934.5 315.5977 934.5 316.6445 L934.5 319.457 L932.8438 319.457 L932.8438 313.2383 L934.375 313.2383 L934.375 314.1445 Q935.1875 313.0977 936.4375 313.0977 Q936.9688 313.0977 937.4219 313.293 Q937.875 313.4883 938.1094 313.793 Q938.3438 314.0977 938.4297 314.4805 Q938.5156 314.8633 938.5156 315.582 L938.5156 319.457 Z" clip-path="url(#clipPath2)" stroke="none"/><path fill="black" d="M868.9531 334.457 L868.9531 333.5195 Q868.625 334.0195 868.0703 334.3086 Q867.5156 334.5977 866.8906 334.5977 Q866.2656 334.5977 865.7656 334.3242 Q865.2656 334.0508 865.0469 333.5508 Q864.8281 333.0508 864.8281 332.1758 L864.8281 328.2383 L866.4688 328.2383 L866.4688 331.0977 Q866.4688 332.4102 866.5625 332.707 Q866.6562 333.0039 866.8984 333.1758 Q867.1406 333.3477 867.5 333.3477 Q867.9219 333.3477 868.2578 333.1133 Q868.5938 332.8789 868.7188 332.5352 Q868.8438 332.1914 868.8438 330.8633 L868.8438 328.2383 L870.4844 328.2383 L870.4844 334.457 L868.9531 334.457 ZM866.0625 326.457 L866.0625 325.0508 L867.4688 325.0508 L867.4688 326.457 L866.0625 326.457 ZM868.5781 326.457 L868.5781 325.0508 L870 325.0508 L870 326.457 L868.5781 326.457 ZM871.7969 334.457 L871.7969 325.8633 L873.4375 325.8633 L873.4375 328.957 Q874.2031 328.0977 875.25 328.0977 Q876.375 328.0977 877.125 328.918 Q877.875 329.7383 877.875 331.2852 Q877.875 332.8789 877.1094 333.7383 Q876.3438 334.5977 875.2656 334.5977 Q874.7344 334.5977 874.2188 334.332 Q873.7031 334.0664 873.3281 333.5352 L873.3281 334.457 L871.7969 334.457 ZM873.4219 331.207 Q873.4219 332.1758 873.7344 332.6445 Q874.1562 333.3008 874.875 333.3008 Q875.4062 333.3008 875.7969 332.832 Q876.1875 332.3633 876.1875 331.3633 Q876.1875 330.3008 875.7969 329.8242 Q875.4062 329.3477 874.7969 329.3477 Q874.2188 329.3477 873.8203 329.8086 Q873.4219 330.2695 873.4219 331.207 ZM882.4688 332.4727 L884.1094 332.7539 Q883.7969 333.6602 883.1094 334.1289 Q882.4219 334.5977 881.4062 334.5977 Q879.7812 334.5977 879 333.5352 Q878.375 332.6914 878.375 331.3945 Q878.375 329.8477 879.1875 328.9727 Q880 328.0977 881.2344 328.0977 Q882.625 328.0977 883.4297 329.0117 Q884.2344 329.9258 884.1875 331.8164 L880.0625 331.8164 Q880.0938 332.5508 880.4688 332.957 Q880.8438 333.3633 881.4219 333.3633 Q881.7969 333.3633 882.0625 333.1523 Q882.3281 332.9414 882.4688 332.4727 ZM882.5625 330.8164 Q882.5469 330.0977 882.1953 329.7227 Q881.8438 329.3477 881.3281 329.3477 Q880.7969 329.3477 880.4375 329.7383 Q880.0938 330.1445 880.0938 330.8164 L882.5625 330.8164 ZM887.4375 334.457 L885.7969 334.457 L885.7969 328.2383 L887.3281 328.2383 L887.3281 329.1133 Q887.7188 328.4883 888.0312 328.293 Q888.3438 328.0977 888.7344 328.0977 Q889.2969 328.0977 889.8281 328.4102 L889.3125 329.832 Q888.8906 329.5664 888.5469 329.5664 Q888.1875 329.5664 887.9531 329.7617 Q887.7188 329.957 887.5781 330.4492 Q887.4375 330.9414 887.4375 332.5352 L887.4375 334.457 ZM896.5156 334.457 L894.875 334.457 L894.875 331.2852 Q894.875 330.2695 894.7734 329.9727 Q894.6719 329.6758 894.4297 329.5117 Q894.1875 329.3477 893.8594 329.3477 Q893.4219 329.3477 893.0859 329.582 Q892.75 329.8164 892.625 330.207 Q892.5 330.5977 892.5 331.6445 L892.5 334.457 L890.8438 334.457 L890.8438 328.2383 L892.375 328.2383 L892.375 329.1445 Q893.1875 328.0977 894.4375 328.0977 Q894.9688 328.0977 895.4219 328.293 Q895.875 328.4883 896.1094 328.793 Q896.3438 329.0977 896.4297 329.4805 Q896.5156 329.8633 896.5156 330.582 L896.5156 334.457 ZM901.4688 332.4727 L903.1094 332.7539 Q902.7969 333.6602 902.1094 334.1289 Q901.4219 334.5977 900.4062 334.5977 Q898.7812 334.5977 898 333.5352 Q897.375 332.6914 897.375 331.3945 Q897.375 329.8477 898.1875 328.9727 Q899 328.0977 900.2344 328.0977 Q901.625 328.0977 902.4297 329.0117 Q903.2344 329.9258 903.1875 331.8164 L899.0625 331.8164 Q899.0938 332.5508 899.4688 332.957 Q899.8438 333.3633 900.4219 333.3633 Q900.7969 333.3633 901.0625 333.1523 Q901.3281 332.9414 901.4688 332.4727 ZM901.5625 330.8164 Q901.5469 330.0977 901.1953 329.7227 Q900.8438 329.3477 900.3281 329.3477 Q899.7969 329.3477 899.4375 329.7383 Q899.0938 330.1445 899.0938 330.8164 L901.5625 330.8164 ZM906.5 325.8633 L906.5 329.0195 Q907.2969 328.0977 908.4062 328.0977 Q908.9688 328.0977 909.4297 328.3086 Q909.8906 328.5195 910.125 328.8477 Q910.3594 329.1758 910.4375 329.5742 Q910.5156 329.9727 910.5156 330.8008 L910.5156 334.457 L908.875 334.457 L908.875 331.1758 Q908.875 330.1914 908.7812 329.9258 Q908.6875 329.6602 908.4531 329.5039 Q908.2188 329.3477 907.8594 329.3477 Q907.4531 329.3477 907.125 329.5508 Q906.7969 329.7539 906.6484 330.1523 Q906.5 330.5508 906.5 331.332 L906.5 334.457 L904.8594 334.457 L904.8594 325.8633 L906.5 325.8633 ZM911.7344 328.2383 L913.25 328.2383 L913.25 329.082 Q914.0781 328.0977 915.2031 328.0977 Q915.7969 328.0977 916.2344 328.3398 Q916.6719 328.582 916.9531 329.082 Q917.3594 328.582 917.8359 328.3398 Q918.3125 328.0977 918.8594 328.0977 Q919.5312 328.0977 920.0078 328.3711 Q920.4844 328.6445 920.7188 329.1914 Q920.8906 329.582 920.8906 330.4727 L920.8906 334.457 L919.25 334.457 L919.25 330.8945 Q919.25 329.9727 919.0781 329.707 Q918.8438 329.3477 918.375 329.3477 Q918.0312 329.3477 917.7266 329.5586 Q917.4219 329.7695 917.2812 330.1758 Q917.1406 330.582 917.1406 331.4727 L917.1406 334.457 L915.5 334.457 L915.5 331.0508 Q915.5 330.1445 915.4141 329.8789 Q915.3281 329.6133 915.1406 329.4805 Q914.9531 329.3477 914.6406 329.3477 Q914.2656 329.3477 913.9609 329.5586 Q913.6562 329.7695 913.5234 330.1523 Q913.3906 330.5352 913.3906 331.4258 L913.3906 334.457 L911.7344 334.457 L911.7344 328.2383 ZM926.4688 332.4727 L928.1094 332.7539 Q927.7969 333.6602 927.1094 334.1289 Q926.4219 334.5977 925.4062 334.5977 Q923.7812 334.5977 923 333.5352 Q922.375 332.6914 922.375 331.3945 Q922.375 329.8477 923.1875 328.9727 Q924 328.0977 925.2344 328.0977 Q926.625 328.0977 927.4297 329.0117 Q928.2344 329.9258 928.1875 331.8164 L924.0625 331.8164 Q924.0938 332.5508 924.4688 332.957 Q924.8438 333.3633 925.4219 333.3633 Q925.7969 333.3633 926.0625 333.1523 Q926.3281 332.9414 926.4688 332.4727 ZM926.5625 330.8164 Q926.5469 330.0977 926.1953 329.7227 Q925.8438 329.3477 925.3281 329.3477 Q924.7969 329.3477 924.4375 329.7383 Q924.0938 330.1445 924.0938 330.8164 L926.5625 330.8164 ZM935.5156 334.457 L933.875 334.457 L933.875 331.2852 Q933.875 330.2695 933.7734 329.9727 Q933.6719 329.6758 933.4297 329.5117 Q933.1875 329.3477 932.8594 329.3477 Q932.4219 329.3477 932.0859 329.582 Q931.75 329.8164 931.625 330.207 Q931.5 330.5977 931.5 331.6445 L931.5 334.457 L929.8438 334.457 L929.8438 328.2383 L931.375 328.2383 L931.375 329.1445 Q932.1875 328.0977 933.4375 328.0977 Q933.9688 328.0977 934.4219 328.293 Q934.875 328.4883 935.1094 328.793 Q935.3438 329.0977 935.4297 329.4805 Q935.5156 329.8633 935.5156 330.582 L935.5156 334.457 Z" clip-path="url(#clipPath2)" stroke="none"/><path fill="black" d="M193.8438 335.457 L193.8438 326.8633 L196.4531 326.8633 L198 332.7227 L199.5469 326.8633 L202.1406 326.8633 L202.1406 335.457 L200.5312 335.457 L200.5312 328.6914 L198.8281 335.457 L197.1562 335.457 L195.4688 328.6914 L195.4688 335.457 L193.8438 335.457 ZM207.4688 333.4727 L209.1094 333.7539 Q208.7969 334.6602 208.1094 335.1289 Q207.4219 335.5977 206.4062 335.5977 Q204.7812 335.5977 204 334.5352 Q203.375 333.6914 203.375 332.3945 Q203.375 330.8477 204.1875 329.9727 Q205 329.0977 206.2344 329.0977 Q207.625 329.0977 208.4297 330.0117 Q209.2344 330.9258 209.1875 332.8164 L205.0625 332.8164 Q205.0938 333.5508 205.4688 333.957 Q205.8438 334.3633 206.4219 334.3633 Q206.7969 334.3633 207.0625 334.1523 Q207.3281 333.9414 207.4688 333.4727 ZM207.5625 331.8164 Q207.5469 331.0977 207.1953 330.7227 Q206.8438 330.3477 206.3281 330.3477 Q205.7969 330.3477 205.4375 330.7383 Q205.0938 331.1445 205.0938 331.8164 L207.5625 331.8164 ZM210.8594 335.457 L210.8594 326.8633 L212.5156 326.8633 L212.5156 335.457 L210.8594 335.457 ZM219.5625 335.457 L218.0469 335.457 L218.0469 334.5352 Q217.6562 335.082 217.1406 335.3398 Q216.625 335.5977 216.0938 335.5977 Q215.0156 335.5977 214.2578 334.7305 Q213.5 333.8633 213.5 332.3164 Q213.5 330.7383 214.2422 329.918 Q214.9844 329.0977 216.125 329.0977 Q217.1562 329.0977 217.9219 329.957 L217.9219 326.8633 L219.5625 326.8633 L219.5625 335.457 ZM215.1719 332.207 Q215.1719 333.207 215.4531 333.6445 Q215.8438 334.3008 216.5625 334.3008 Q217.125 334.3008 217.5234 333.8164 Q217.9219 333.332 217.9219 332.3633 Q217.9219 331.3008 217.5391 330.8242 Q217.1562 330.3477 216.5469 330.3477 Q215.9688 330.3477 215.5703 330.8164 Q215.1719 331.2852 215.1719 332.207 ZM224.4688 333.4727 L226.1094 333.7539 Q225.7969 334.6602 225.1094 335.1289 Q224.4219 335.5977 223.4062 335.5977 Q221.7812 335.5977 221 334.5352 Q220.375 333.6914 220.375 332.3945 Q220.375 330.8477 221.1875 329.9727 Q222 329.0977 223.2344 329.0977 Q224.625 329.0977 225.4297 330.0117 Q226.2344 330.9258 226.1875 332.8164 L222.0625 332.8164 Q222.0938 333.5508 222.4688 333.957 Q222.8438 334.3633 223.4219 334.3633 Q223.7969 334.3633 224.0625 334.1523 Q224.3281 333.9414 224.4688 333.4727 ZM224.5625 331.8164 Q224.5469 331.0977 224.1953 330.7227 Q223.8438 330.3477 223.3281 330.3477 Q222.7969 330.3477 222.4375 330.7383 Q222.0938 331.1445 222.0938 331.8164 L224.5625 331.8164 ZM227.7969 335.457 L227.7969 326.8633 L229.4375 326.8633 L229.4375 329.957 Q230.2031 329.0977 231.25 329.0977 Q232.375 329.0977 233.125 329.918 Q233.875 330.7383 233.875 332.2852 Q233.875 333.8789 233.1094 334.7383 Q232.3438 335.5977 231.2656 335.5977 Q230.7344 335.5977 230.2188 335.332 Q229.7031 335.0664 229.3281 334.5352 L229.3281 335.457 L227.7969 335.457 ZM229.4219 332.207 Q229.4219 333.1758 229.7344 333.6445 Q230.1562 334.3008 230.875 334.3008 Q231.4062 334.3008 231.7969 333.832 Q232.1875 333.3633 232.1875 332.3633 Q232.1875 331.3008 231.7969 330.8242 Q231.4062 330.3477 230.7969 330.3477 Q230.2188 330.3477 229.8203 330.8086 Q229.4219 331.2695 229.4219 332.207 ZM238.4688 333.4727 L240.1094 333.7539 Q239.7969 334.6602 239.1094 335.1289 Q238.4219 335.5977 237.4062 335.5977 Q235.7812 335.5977 235 334.5352 Q234.375 333.6914 234.375 332.3945 Q234.375 330.8477 235.1875 329.9727 Q236 329.0977 237.2344 329.0977 Q238.625 329.0977 239.4297 330.0117 Q240.2344 330.9258 240.1875 332.8164 L236.0625 332.8164 Q236.0938 333.5508 236.4688 333.957 Q236.8438 334.3633 237.4219 334.3633 Q237.7969 334.3633 238.0625 334.1523 Q238.3281 333.9414 238.4688 333.4727 ZM238.5625 331.8164 Q238.5469 331.0977 238.1953 330.7227 Q237.8438 330.3477 237.3281 330.3477 Q236.7969 330.3477 236.4375 330.7383 Q236.0938 331.1445 236.0938 331.8164 L238.5625 331.8164 ZM243.5 326.8633 L243.5 330.0195 Q244.2969 329.0977 245.4062 329.0977 Q245.9688 329.0977 246.4297 329.3086 Q246.8906 329.5195 247.125 329.8477 Q247.3594 330.1758 247.4375 330.5742 Q247.5156 330.9727 247.5156 331.8008 L247.5156 335.457 L245.875 335.457 L245.875 332.1758 Q245.875 331.1914 245.7812 330.9258 Q245.6875 330.6602 245.4531 330.5039 Q245.2188 330.3477 244.8594 330.3477 Q244.4531 330.3477 244.125 330.5508 Q243.7969 330.7539 243.6484 331.1523 Q243.5 331.5508 243.5 332.332 L243.5 335.457 L241.8594 335.457 L241.8594 326.8633 L243.5 326.8633 ZM248.4844 332.2539 Q248.4844 331.4414 248.8906 330.668 Q249.2969 329.8945 250.0312 329.4961 Q250.7656 329.0977 251.6875 329.0977 Q253.0938 329.0977 254 330.0117 Q254.9062 330.9258 254.9062 332.332 Q254.9062 333.7383 253.9922 334.668 Q253.0781 335.5977 251.7031 335.5977 Q250.8438 335.5977 250.0703 335.207 Q249.2969 334.8164 248.8906 334.0742 Q248.4844 333.332 248.4844 332.2539 ZM250.1719 332.3477 Q250.1719 333.2695 250.6094 333.7617 Q251.0469 334.2539 251.6875 334.2539 Q252.3438 334.2539 252.7734 333.7617 Q253.2031 333.2695 253.2031 332.332 Q253.2031 331.4258 252.7734 330.9336 Q252.3438 330.4414 251.6875 330.4414 Q251.0469 330.4414 250.6094 330.9336 Q250.1719 331.4258 250.1719 332.3477 ZM250.0625 327.457 L250.0625 326.0508 L251.4688 326.0508 L251.4688 327.457 L250.0625 327.457 ZM252.5781 327.457 L252.5781 326.0508 L254 326.0508 L254 327.457 L252.5781 327.457 ZM257.4375 335.457 L255.7969 335.457 L255.7969 329.2383 L257.3281 329.2383 L257.3281 330.1133 Q257.7188 329.4883 258.0312 329.293 Q258.3438 329.0977 258.7344 329.0977 Q259.2969 329.0977 259.8281 329.4102 L259.3125 330.832 Q258.8906 330.5664 258.5469 330.5664 Q258.1875 330.5664 257.9531 330.7617 Q257.7188 330.957 257.5781 331.4492 Q257.4375 331.9414 257.4375 333.5352 L257.4375 335.457 ZM266.5625 335.457 L265.0469 335.457 L265.0469 334.5352 Q264.6562 335.082 264.1406 335.3398 Q263.625 335.5977 263.0938 335.5977 Q262.0156 335.5977 261.2578 334.7305 Q260.5 333.8633 260.5 332.3164 Q260.5 330.7383 261.2422 329.918 Q261.9844 329.0977 263.125 329.0977 Q264.1562 329.0977 264.9219 329.957 L264.9219 326.8633 L266.5625 326.8633 L266.5625 335.457 ZM262.1719 332.207 Q262.1719 333.207 262.4531 333.6445 Q262.8438 334.3008 263.5625 334.3008 Q264.125 334.3008 264.5234 333.8164 Q264.9219 333.332 264.9219 332.3633 Q264.9219 331.3008 264.5391 330.8242 Q264.1562 330.3477 263.5469 330.3477 Q262.9688 330.3477 262.5703 330.8164 Q262.1719 331.2852 262.1719 332.207 ZM271.4688 333.4727 L273.1094 333.7539 Q272.7969 334.6602 272.1094 335.1289 Q271.4219 335.5977 270.4062 335.5977 Q268.7812 335.5977 268 334.5352 Q267.375 333.6914 267.375 332.3945 Q267.375 330.8477 268.1875 329.9727 Q269 329.0977 270.2344 329.0977 Q271.625 329.0977 272.4297 330.0117 Q273.2344 330.9258 273.1875 332.8164 L269.0625 332.8164 Q269.0938 333.5508 269.4688 333.957 Q269.8438 334.3633 270.4219 334.3633 Q270.7969 334.3633 271.0625 334.1523 Q271.3281 333.9414 271.4688 333.4727 ZM271.5625 331.8164 Q271.5469 331.0977 271.1953 330.7227 Q270.8438 330.3477 270.3281 330.3477 Q269.7969 330.3477 269.4375 330.7383 Q269.0938 331.1445 269.0938 331.8164 L271.5625 331.8164 Z" clip-path="url(#clipPath2)" stroke="none"/><line clip-path="url(#clipPath2)" fill="none" x1="234" x2="234" y1="301" y2="313" stroke="rgb(178,178,178)"/><line clip-path="url(#clipPath2)" fill="none" x1="218" x2="250" y1="307" y2="307" stroke="rgb(178,178,178)"/><line clip-path="url(#clipPath2)" fill="none" x1="218" x2="234" y1="324" y2="313" stroke="rgb(178,178,178)"/><line clip-path="url(#clipPath2)" fill="none" x1="250" x2="234" y1="324" y2="313" stroke="rgb(178,178,178)"/><line clip-path="url(#clipPath2)" fill="none" x1="235" x2="235" y1="301" y2="314" stroke="rgb(178,178,178)"/><line clip-path="url(#clipPath2)" fill="none" x1="219" x2="251" y1="308" y2="308" stroke="rgb(178,178,178)"/><line clip-path="url(#clipPath2)" fill="none" x1="219" x2="235" y1="325" y2="314" stroke="rgb(178,178,178)"/><line clip-path="url(#clipPath2)" fill="none" x1="251" x2="235" y1="325" y2="314" stroke="rgb(178,178,178)"/><circle fill="rgb(178,178,178)" r="5.5" clip-path="url(#clipPath2)" cx="235.5" cy="297.5" stroke="none"/><circle fill="url(#linearGradient4)" r="5.5" clip-path="url(#clipPath2)" cx="233.5" cy="295.5" stroke="none"/><circle fill="none" r="5.5" clip-path="url(#clipPath2)" cx="233.5" cy="295.5"/><line y2="312" fill="none" x1="233" clip-path="url(#clipPath2)" x2="233" y1="301"/><line y2="306" fill="none" x1="217" clip-path="url(#clipPath2)" x2="249" y1="306"/><line y2="312" fill="none" x1="217" clip-path="url(#clipPath2)" x2="233" y1="323"/><line y2="312" fill="none" x1="249" clip-path="url(#clipPath2)" x2="233" y1="323"/><path fill="none" d="M400 315 L250 315" clip-path="url(#clipPath2)"/><path fill="none" d="M580 315 L662 315" clip-path="url(#clipPath2)"/><path fill="none" d="M830 319 L749 323" clip-path="url(#clipPath2)"/></g></g></svg>