<?xml version="1.0" encoding="UTF-8"?><svg xmlns="http://www.w3.org/2000/svg" width="768.2874999999999" height="394">
   <defs>
      <style type="text/css">
                        text {
                            font-family: 'Arial';
                            fill: black;
                        }
                        text.at {
                            font-family: 'Arial';
                            fill: rgb(242, 152, 0);
                        }
                        line {
                            stroke: black;
                        }
                        line.type-structure {
                            stroke: black;
                        }
                        line.type-structure-optional {
                            stroke: black;
                            stroke-dasharray: 4, 4;
                        }
                        rect.attribute-upper {
                            stroke: black;
                            fill: rgb(255, 239, 211);
                        }
                        rect.element-upper {
                            stroke: black;
                            fill: rgb(215, 227, 249);
                        }
                        rect.element-lower {
                            stroke: black;
                            fill: rgb(236, 242, 252);
                        }
                        a text {
                            fill: black;
                        } 
                    </style>
   </defs>
   <rect width="758.2874999999999" height="384" stroke-dasharray="3,3" rx="1" ry="1" style="stroke: grey;fill: white;"/>
   <text font-size="14" x="3.6" y="18" font-weight="bold">element datenuebermittlung.antwortIdnrPartnerAuswaertig.0519 (anonymous type)</text>
   <text font-size="12" x="3.6" y="34.8"> (extension of xmeld:type.Nachricht.G2G)</text>
   <g transform="translate(10,46)">
      <g transform="translate(55,0)">
         <rect width="224.109375" height="18" class="element-upper"/>
         <rect width="224.109375" height="18" y="18" class="element-lower"/>
         <text font-size="12" x="3.6" y="12" font-weight="bold">ursprungsnachricht</text>
         <line x1="0" y1="18" x2="224.109375" y2="18"/>
         <text font-size="12" fill="grey" x="3.6" y="30">type</text>
         <line x1="31.753125" y1="18" x2="31.753125" y2="36"/>
         <text font-size="12" x="35.353125" y="30">xmeld:type.Identifikation.Nachricht</text>
         <g transform="translate(224.109375,0)"/>
      </g>
      <line x1="33" y1="18" x2="55" y2="18" class="type-structure-required"/>
      <text font-size="11" fill="black" x="53" y="16" text-anchor="end"/>
      <line x1="33" y1="18" x2="33" y2="18" class="type-structure-required"/>
      <g transform="translate(55,48)">
         <rect width="54.765625" height="18" class="element-upper"/>
         <rect width="54.765625" height="18" y="18" class="element-lower"/>
         <text font-size="12" x="3.6" y="12" font-weight="bold">antwort</text>
         <line x1="0" y1="18" x2="54.765625" y2="18"/>
         <text font-size="12" fill="grey" x="3.6" y="30">type</text>
         <line x1="31.753125" y1="18" x2="31.753125" y2="36"/>
         <g transform="translate(54.765625,0)">
            <g transform="translate(55,0)">
               <rect width="265.015625" height="18" class="element-upper"/>
               <rect width="265.015625" height="18" y="18" class="element-lower"/>
               <text font-size="12" x="3.6" y="12" font-weight="bold">idnr.betroffene.person</text>
               <line x1="0" y1="18" x2="265.015625" y2="18"/>
               <text font-size="12" fill="grey" x="3.6" y="30">type</text>
               <line x1="31.753125" y1="18" x2="31.753125" y2="36"/>
               <text font-size="12" x="35.353125" y="30">xiid:PlausibilisierteIdentifikationsnummer</text>
               <g transform="translate(265.015625,0)"/>
            </g>
            <line x1="33" y1="18" x2="55" y2="18" class="type-structure-required"/>
            <text font-size="11" fill="black" x="53" y="16" text-anchor="end"/>
            <line x1="33" y1="18" x2="33" y2="18" class="type-structure-required"/>
            <g transform="translate(55,48)">
               <rect width="239.703125" height="18" class="element-upper"/>
               <rect width="239.703125" height="18" y="18" class="element-lower"/>
               <text font-size="12" x="3.6" y="12" font-weight="bold">anfrage</text>
               <line x1="0" y1="18" x2="239.703125" y2="18"/>
               <text font-size="12" fill="grey" x="3.6" y="30">type</text>
               <line x1="31.753125" y1="18" x2="31.753125" y2="36"/>
               <text font-size="12" x="35.353125" y="30">xmeld:type.BZSt.Identifikation.Person</text>
               <g transform="translate(239.703125,0)"/>
            </g>
            <line x1="33" y1="66" x2="55" y2="66" class="type-structure-required"/>
            <text font-size="11" fill="black" x="53" y="64" text-anchor="end"/>
            <line x1="33" y1="18" x2="33" y2="66" class="type-structure-required"/>
            <g transform="translate(55,96)">
               <rect width="59.518750000000004" height="18" class="element-upper"/>
               <rect width="59.518750000000004" height="18" y="18" class="element-lower"/>
               <text font-size="12" x="3.6" y="12" font-weight="bold">ergebnis</text>
               <line x1="0" y1="18" x2="59.518750000000004" y2="18"/>
               <text font-size="12" fill="grey" x="3.6" y="30">type</text>
               <line x1="31.753125" y1="18" x2="31.753125" y2="36"/>
               <g transform="translate(59.518750000000004,0)">
                  <g transform="translate(55,0)">
                     <rect width="209.98749999999998" height="18" class="element-upper"/>
                     <rect width="209.98749999999998" height="18" y="18" class="element-lower"/>
                     <text font-size="12" x="3.6" y="12" font-weight="bold">ehegatte.lebenspartner.auswaertig</text>
                     <line x1="0" y1="18" x2="209.98749999999998" y2="18"/>
                     <text font-size="12" fill="grey" x="3.6" y="30">type</text>
                     <line x1="31.753125" y1="18" x2="31.753125" y2="36"/>
                     <g transform="translate(209.98749999999998,0)">
                        <g transform="translate(55,0)">
                           <rect width="183.015625" height="18" class="element-upper"/>
                           <rect width="183.015625" height="18" y="18" class="element-lower"/>
                           <text font-size="12" x="3.6" y="12" font-weight="bold">idnr</text>
                           <line x1="0" y1="18" x2="183.015625" y2="18"/>
                           <text font-size="12" fill="grey" x="3.6" y="30">type</text>
                           <line x1="31.753125" y1="18" x2="31.753125" y2="36"/>
                           <text font-size="12" x="35.353125" y="30">xiid:Identifikationsnummer</text>
                           <g transform="translate(183.015625,0)"/>
                        </g>
                        <line x1="33" y1="18" x2="55" y2="18" class="type-structure-required"/>
                        <text font-size="11" fill="black" x="53" y="16" text-anchor="end"/>
                        <line x1="33" y1="18" x2="33" y2="18" class="type-structure-required"/>
                        <g transform="translate(55,48)">
                           <rect width="156.03125" height="18" class="element-upper"/>
                           <rect width="156.03125" height="18" y="18" class="element-lower"/>
                           <text font-size="12" x="3.6" y="12" font-weight="bold">name.abweichend</text>
                           <line x1="0" y1="18" x2="156.03125" y2="18"/>
                           <text font-size="12" fill="grey" x="3.6" y="30">type</text>
                           <line x1="31.753125" y1="18" x2="31.753125" y2="36"/>
                           <text font-size="12" x="35.353125" y="30">xmeld:type.bzst.name</text>
                           <g transform="translate(156.03125,0)"/>
                        </g>
                        <line x1="33" y1="66" x2="55" y2="66" class="type-structure-optional"/>
                        <text font-size="11" fill="black" x="53" y="64" text-anchor="end">0..1</text>
                        <line x1="33" y1="18" x2="33" y2="66" class="type-structure-optional"/>
                        <circle cx="15" cy="18" r="10" stroke="black" fill="rgb(251, 251, 251)"/>
                        <line x1="0" y1="18" x2="5" y2="18" class="type-structure-required"/>
                        <line x1="25" y1="18" x2="33" y2="18" class="type-structure-required"/>
                        <circle cx="10" cy="18" r="1.2" stroke="black" fill="black"/>
                        <circle cx="15" cy="18" r="1.2" stroke="black" fill="black"/>
                        <circle cx="20" cy="18" r="1.2" stroke="black" fill="black"/>
                        <line x1="7" y1="18" x2="23" y2="18"/>
                     </g>
                  </g>
                  <line x1="33" y1="18" x2="55" y2="18" class="type-structure-required"/>
                  <text font-size="11" fill="black" x="53" y="16" text-anchor="end"/>
                  <line x1="33" y1="18" x2="33" y2="18" class="type-structure-required"/>
                  <g transform="translate(55,96)">
                     <rect width="341.015625" height="18" class="element-upper"/>
                     <rect width="341.015625" height="18" y="18" class="element-lower"/>
                     <text font-size="12" x="3.6" y="12" font-weight="bold">grundkeintreffer</text>
                     <line x1="0" y1="18" x2="341.015625" y2="18"/>
                     <text font-size="12" fill="grey" x="3.6" y="30">type</text>
                     <line x1="31.753125" y1="18" x2="31.753125" y2="36"/>
                     <text font-size="12" x="35.353125" y="30">xmeld:Code.BZSt.Antwort.IdNr-Ehegatte-Lebenspartner</text>
                     <g transform="translate(341.015625,0)"/>
                  </g>
                  <line x1="33" y1="114" x2="55" y2="114" class="type-structure-required"/>
                  <text font-size="11" fill="black" x="53" y="112" text-anchor="end"/>
                  <line x1="33" y1="18" x2="33" y2="114" class="type-structure-required"/>
                  <circle cx="15" cy="18" r="10" stroke="black" fill="rgb(251, 251, 251)"/>
                  <line x1="0" y1="18" x2="5" y2="18" class="type-structure-required"/>
                  <line x1="25" y1="18" x2="33" y2="18" class="type-structure-required"/>
                  <circle cx="10" cy="18" r="1.2" stroke="black" fill="black"/>
                  <circle cx="18" cy="14" r="1.2" stroke="black" fill="black"/>
                  <circle cx="18" cy="18" r="1.2" stroke="black" fill="black"/>
                  <circle cx="18" cy="22" r="1.2" stroke="black" fill="black"/>
                  <line x1="10" y1="18" x2="18" y2="14"/>
               </g>
            </g>
            <line x1="33" y1="114" x2="55" y2="114" class="type-structure-required"/>
            <text font-size="11" fill="black" x="53" y="112" text-anchor="end"/>
            <line x1="33" y1="66" x2="33" y2="114" class="type-structure-required"/>
            <g transform="translate(55,240)">
               <rect width="216.390625" height="18" class="element-upper"/>
               <rect width="216.390625" height="18" y="18" class="element-lower"/>
               <text font-size="12" x="3.6" y="12" font-weight="bold">ursprungsereignis</text>
               <line x1="0" y1="18" x2="216.390625" y2="18"/>
               <text font-size="12" fill="grey" x="3.6" y="30">type</text>
               <line x1="31.753125" y1="18" x2="31.753125" y2="36"/>
               <text font-size="12" x="35.353125" y="30">xmeld:type.Identifikation.Ereignis</text>
               <g transform="translate(216.390625,0)"/>
            </g>
            <line x1="33" y1="258" x2="55" y2="258" class="type-structure-required"/>
            <text font-size="11" fill="black" x="53" y="256" text-anchor="end"/>
            <line x1="33" y1="114" x2="33" y2="258" class="type-structure-required"/>
            <circle cx="15" cy="18" r="10" stroke="black" fill="rgb(251, 251, 251)"/>
            <line x1="0" y1="18" x2="5" y2="18" class="type-structure-required"/>
            <line x1="25" y1="18" x2="33" y2="18" class="type-structure-required"/>
            <circle cx="10" cy="18" r="1.2" stroke="black" fill="black"/>
            <circle cx="15" cy="18" r="1.2" stroke="black" fill="black"/>
            <circle cx="20" cy="18" r="1.2" stroke="black" fill="black"/>
            <line x1="7" y1="18" x2="23" y2="18"/>
         </g>
      </g>
      <line x1="33" y1="66" x2="55" y2="66" class="type-structure-required"/>
      <text font-size="11" fill="black" x="53" y="64" text-anchor="end"/>
      <line x1="33" y1="18" x2="33" y2="66" class="type-structure-required"/>
      <circle cx="15" cy="18" r="10" stroke="black" fill="rgb(251, 251, 251)"/>
      <line x1="0" y1="18" x2="5" y2="18" class="type-structure-required"/>
      <line x1="25" y1="18" x2="33" y2="18" class="type-structure-required"/>
      <circle cx="10" cy="18" r="1.2" stroke="black" fill="black"/>
      <circle cx="15" cy="18" r="1.2" stroke="black" fill="black"/>
      <circle cx="20" cy="18" r="1.2" stroke="black" fill="black"/>
      <line x1="7" y1="18" x2="23" y2="18"/>
   </g>
</svg>