<?xml version="1.0" encoding="UTF-8"?><svg xmlns="http://www.w3.org/2000/svg" width="1159.2156249999998" height="874">
   <defs>
      <style type="text/css">
                        text {
                            font-family: 'Arial';
                            fill: black;
                        }
                        text.at {
                            font-family: 'Arial';
                            fill: rgb(242, 152, 0);
                        }
                        line {
                            stroke: black;
                        }
                        line.type-structure {
                            stroke: black;
                        }
                        line.type-structure-optional {
                            stroke: black;
                            stroke-dasharray: 4, 4;
                        }
                        rect.attribute-upper {
                            stroke: black;
                            fill: rgb(255, 239, 211);
                        }
                        rect.element-upper {
                            stroke: black;
                            fill: rgb(215, 227, 249);
                        }
                        rect.element-lower {
                            stroke: black;
                            fill: rgb(236, 242, 252);
                        }
                        a text {
                            fill: black;
                        } 
                    </style>
   </defs>
   <rect width="1149.2156249999998" height="864" stroke-dasharray="3,3" rx="1" ry="1" style="stroke: grey;fill: white;"/>
   <text font-size="14" x="3.6" y="18" font-weight="bold">element datenuebermittlung.zentralregistermitteilungbzr.0550 (anonymous type)</text>
   <text font-size="12" x="3.6" y="34.8"> (extension of xmeld:type.Nachricht.G2G)</text>
   <g transform="translate(10,46)">
      <g transform="translate(55,0)">
         <rect width="150.15937499999998" height="18" class="element-upper"/>
         <rect width="150.15937499999998" height="18" y="18" class="element-lower"/>
         <text font-size="12" x="3.6" y="12" font-weight="bold">zentralregistermitteilung</text>
         <line x1="0" y1="18" x2="150.15937499999998" y2="18"/>
         <text font-size="12" fill="grey" x="3.6" y="30">type</text>
         <line x1="31.753125" y1="18" x2="31.753125" y2="36"/>
         <g transform="translate(150.15937499999998,0)">
            <g transform="translate(55,0)">
               <rect width="259.703125" height="18" class="element-upper"/>
               <rect width="259.703125" height="18" y="18" class="element-lower"/>
               <text font-size="12" x="3.6" y="12" font-weight="bold">identifikation.person</text>
               <line x1="0" y1="18" x2="259.703125" y2="18"/>
               <text font-size="12" fill="grey" x="3.6" y="30">type</text>
               <line x1="31.753125" y1="18" x2="31.753125" y2="36"/>
               <text font-size="12" x="35.353125" y="30">xmeld:type.bzr.0550.identifikation.person</text>
               <g transform="translate(259.703125,0)"/>
            </g>
            <line x1="33" y1="18" x2="55" y2="18" class="type-structure-required"/>
            <text font-size="11" fill="black" x="53" y="16" text-anchor="end"/>
            <line x1="33" y1="18" x2="33" y2="18" class="type-structure-required"/>
            <g transform="translate(55,48)">
               <rect width="96.471875" height="18" class="element-upper"/>
               <rect width="96.471875" height="18" y="18" class="element-lower"/>
               <text font-size="12" x="3.6" y="12" font-weight="bold">nachweisdaten</text>
               <line x1="0" y1="18" x2="96.471875" y2="18"/>
               <text font-size="12" fill="grey" x="3.6" y="30">type</text>
               <line x1="31.753125" y1="18" x2="31.753125" y2="36"/>
               <g transform="translate(96.471875,0)">
                  <g transform="translate(55,0)">
                     <rect width="97.703125" height="18" class="element-upper"/>
                     <rect width="97.703125" height="18" y="18" class="element-lower"/>
                     <text font-size="12" x="3.6" y="12" font-weight="bold">eheoderlp</text>
                     <line x1="0" y1="18" x2="97.703125" y2="18"/>
                     <text font-size="12" fill="grey" x="3.6" y="30">type</text>
                     <line x1="31.753125" y1="18" x2="31.753125" y2="36"/>
                     <text font-size="12" x="35.353125" y="30">xs:boolean</text>
                     <g transform="translate(97.703125,0)"/>
                  </g>
                  <line x1="33" y1="18" x2="55" y2="18" class="type-structure-required"/>
                  <text font-size="11" fill="black" x="53" y="16" text-anchor="end"/>
                  <line x1="33" y1="18" x2="33" y2="18" class="type-structure-required"/>
                  <g transform="translate(55,48)">
                     <rect width="97.703125" height="18" class="element-upper"/>
                     <rect width="97.703125" height="18" y="18" class="element-lower"/>
                     <text font-size="12" x="3.6" y="12" font-weight="bold">korrektur</text>
                     <line x1="0" y1="18" x2="97.703125" y2="18"/>
                     <text font-size="12" fill="grey" x="3.6" y="30">type</text>
                     <line x1="31.753125" y1="18" x2="31.753125" y2="36"/>
                     <text font-size="12" x="35.353125" y="30">xs:boolean</text>
                     <g transform="translate(97.703125,0)"/>
                  </g>
                  <line x1="33" y1="66" x2="55" y2="66" class="type-structure-required"/>
                  <text font-size="11" fill="black" x="53" y="64" text-anchor="end"/>
                  <line x1="33" y1="18" x2="33" y2="66" class="type-structure-required"/>
                  <g transform="translate(55,96)">
                     <rect width="184.703125" height="18" class="element-upper"/>
                     <rect width="184.703125" height="18" y="18" class="element-lower"/>
                     <text font-size="12" x="3.6" y="12" font-weight="bold">andererverwaltungsakt</text>
                     <line x1="0" y1="18" x2="184.703125" y2="18"/>
                     <text font-size="12" fill="grey" x="3.6" y="30">type</text>
                     <line x1="31.753125" y1="18" x2="31.753125" y2="36"/>
                     <text font-size="12" x="35.353125" y="30">xmeld:type.Nachweisdaten</text>
                     <g transform="translate(184.703125,0)"/>
                  </g>
                  <line x1="33" y1="114" x2="55" y2="114" class="type-structure-required"/>
                  <text font-size="11" fill="black" x="53" y="112" text-anchor="end"/>
                  <line x1="33" y1="66" x2="33" y2="114" class="type-structure-required"/>
                  <circle cx="15" cy="18" r="10" stroke="black" fill="rgb(251, 251, 251)"/>
                  <line x1="0" y1="18" x2="5" y2="18" class="type-structure-required"/>
                  <line x1="25" y1="18" x2="33" y2="18" class="type-structure-required"/>
                  <circle cx="10" cy="18" r="1.2" stroke="black" fill="black"/>
                  <circle cx="18" cy="14" r="1.2" stroke="black" fill="black"/>
                  <circle cx="18" cy="18" r="1.2" stroke="black" fill="black"/>
                  <circle cx="18" cy="22" r="1.2" stroke="black" fill="black"/>
                  <line x1="10" y1="18" x2="18" y2="14"/>
               </g>
            </g>
            <line x1="33" y1="66" x2="55" y2="66" class="type-structure-required"/>
            <text font-size="11" fill="black" x="53" y="64" text-anchor="end"/>
            <line x1="33" y1="18" x2="33" y2="66" class="type-structure-required"/>
            <g transform="translate(55,192)">
               <rect width="202.61249999999998" height="18" class="element-upper"/>
               <rect width="202.61249999999998" height="18" y="18" class="element-lower"/>
               <text font-size="12" x="3.6" y="12" font-weight="bold">aenderung.aktuellerFamilienname</text>
               <line x1="0" y1="18" x2="202.61249999999998" y2="18"/>
               <text font-size="12" fill="grey" x="3.6" y="30">type</text>
               <line x1="31.753125" y1="18" x2="31.753125" y2="36"/>
               <g transform="translate(202.61249999999998,0)">
                  <g transform="translate(55,0)">
                     <rect width="271.221875" height="18" class="element-upper"/>
                     <rect width="271.221875" height="18" y="18" class="element-lower"/>
                     <text font-size="12" x="3.6" y="12" font-weight="bold">aenderung.aktuellerFamilienname.strukturiert</text>
                     <line x1="0" y1="18" x2="271.221875" y2="18"/>
                     <text font-size="12" fill="grey" x="3.6" y="30">type</text>
                     <line x1="31.753125" y1="18" x2="31.753125" y2="36"/>
                     <g transform="translate(271.221875,0)">
                        <g transform="translate(55,0)">
                           <rect width="187.03125" height="18" class="element-upper"/>
                           <rect width="187.03125" height="18" y="18" class="element-lower"/>
                           <text font-size="12" x="3.6" y="12" font-weight="bold">aktuellerFamilienname.bisher</text>
                           <line x1="0" y1="18" x2="187.03125" y2="18"/>
                           <text font-size="12" fill="grey" x="3.6" y="30">type</text>
                           <line x1="31.753125" y1="18" x2="31.753125" y2="36"/>
                           <text font-size="12" x="35.353125" y="30">xmeld:type.BZR.Nachname</text>
                           <g transform="translate(187.03125,0)"/>
                        </g>
                        <line x1="33" y1="18" x2="55" y2="18" class="type-structure-required"/>
                        <text font-size="11" fill="black" x="53" y="16" text-anchor="end"/>
                        <line x1="33" y1="18" x2="33" y2="18" class="type-structure-required"/>
                        <g transform="translate(55,48)">
                           <rect width="187.03125" height="18" class="element-upper"/>
                           <rect width="187.03125" height="18" y="18" class="element-lower"/>
                           <text font-size="12" x="3.6" y="12" font-weight="bold">aktuellerFamilienname.neu</text>
                           <line x1="0" y1="18" x2="187.03125" y2="18"/>
                           <text font-size="12" fill="grey" x="3.6" y="30">type</text>
                           <line x1="31.753125" y1="18" x2="31.753125" y2="36"/>
                           <text font-size="12" x="35.353125" y="30">xmeld:type.BZR.Nachname</text>
                           <g transform="translate(187.03125,0)"/>
                        </g>
                        <line x1="33" y1="66" x2="55" y2="66" class="type-structure-required"/>
                        <text font-size="11" fill="black" x="53" y="64" text-anchor="end"/>
                        <line x1="33" y1="18" x2="33" y2="66" class="type-structure-required"/>
                        <circle cx="15" cy="18" r="10" stroke="black" fill="rgb(251, 251, 251)"/>
                        <line x1="0" y1="18" x2="5" y2="18" class="type-structure-required"/>
                        <line x1="25" y1="18" x2="33" y2="18" class="type-structure-required"/>
                        <circle cx="10" cy="18" r="1.2" stroke="black" fill="black"/>
                        <circle cx="15" cy="18" r="1.2" stroke="black" fill="black"/>
                        <circle cx="20" cy="18" r="1.2" stroke="black" fill="black"/>
                        <line x1="7" y1="18" x2="23" y2="18"/>
                     </g>
                  </g>
                  <line x1="33" y1="18" x2="55" y2="18" class="type-structure-required"/>
                  <text font-size="11" fill="black" x="53" y="16" text-anchor="end"/>
                  <line x1="33" y1="18" x2="33" y2="18" class="type-structure-required"/>
                  <g transform="translate(55,96)">
                     <rect width="285.221875" height="18" class="element-upper"/>
                     <rect width="285.221875" height="18" y="18" class="element-lower"/>
                     <text font-size="12" x="3.6" y="12" font-weight="bold">aenderung.aktuellerFamilienname.unstrukturiert</text>
                     <line x1="0" y1="18" x2="285.221875" y2="18"/>
                     <text font-size="12" fill="grey" x="3.6" y="30">type</text>
                     <line x1="31.753125" y1="18" x2="31.753125" y2="36"/>
                     <g transform="translate(285.221875,0)">
                        <g transform="translate(55,0)">
                           <rect width="260.221875" height="18" class="element-upper"/>
                           <rect width="260.221875" height="18" y="18" class="element-lower"/>
                           <text font-size="12" x="3.6" y="12" font-weight="bold">aktuellerFamilienname.bisher.unstrukturiert</text>
                           <line x1="0" y1="18" x2="260.221875" y2="18"/>
                           <text font-size="12" fill="grey" x="3.6" y="30">type</text>
                           <line x1="31.753125" y1="18" x2="31.753125" y2="36"/>
                           <text font-size="12" x="35.353125" y="30">xian:AllgemeinerName</text>
                           <g transform="translate(260.221875,0)"/>
                        </g>
                        <line x1="33" y1="18" x2="55" y2="18" class="type-structure-optional"/>
                        <text font-size="11" fill="black" x="53" y="16" text-anchor="end">0..1</text>
                        <line x1="33" y1="18" x2="33" y2="18" class="type-structure-optional"/>
                        <g transform="translate(55,48)">
                           <rect width="245.22187499999998" height="18" class="element-upper"/>
                           <rect width="245.22187499999998" height="18" y="18" class="element-lower"/>
                           <text font-size="12" x="3.6" y="12" font-weight="bold">aktuellerFamilienname.neu.unstrukturiert</text>
                           <line x1="0" y1="18" x2="245.22187499999998" y2="18"/>
                           <text font-size="12" fill="grey" x="3.6" y="30">type</text>
                           <line x1="31.753125" y1="18" x2="31.753125" y2="36"/>
                           <text font-size="12" x="35.353125" y="30">xian:AllgemeinerName</text>
                           <g transform="translate(245.22187499999998,0)"/>
                        </g>
                        <line x1="33" y1="66" x2="55" y2="66" class="type-structure-optional"/>
                        <text font-size="11" fill="black" x="53" y="64" text-anchor="end">0..1</text>
                        <line x1="33" y1="18" x2="33" y2="66" class="type-structure-optional"/>
                        <circle cx="15" cy="18" r="10" stroke="black" fill="rgb(251, 251, 251)"/>
                        <line x1="0" y1="18" x2="5" y2="18" class="type-structure-optional"/>
                        <line x1="25" y1="18" x2="33" y2="18" class="type-structure-optional"/>
                        <circle cx="10" cy="18" r="1.2" stroke="black" fill="black"/>
                        <circle cx="15" cy="18" r="1.2" stroke="black" fill="black"/>
                        <circle cx="20" cy="18" r="1.2" stroke="black" fill="black"/>
                        <line x1="7" y1="18" x2="23" y2="18"/>
                     </g>
                  </g>
                  <line x1="33" y1="114" x2="55" y2="114" class="type-structure-optional"/>
                  <text font-size="11" fill="black" x="53" y="112" text-anchor="end">0..1</text>
                  <line x1="33" y1="18" x2="33" y2="114" class="type-structure-optional"/>
                  <circle cx="15" cy="18" r="10" stroke="black" fill="rgb(251, 251, 251)"/>
                  <line x1="0" y1="18" x2="5" y2="18" class="type-structure-required"/>
                  <line x1="25" y1="18" x2="33" y2="18" class="type-structure-required"/>
                  <circle cx="10" cy="18" r="1.2" stroke="black" fill="black"/>
                  <circle cx="15" cy="18" r="1.2" stroke="black" fill="black"/>
                  <circle cx="20" cy="18" r="1.2" stroke="black" fill="black"/>
                  <line x1="7" y1="18" x2="23" y2="18"/>
               </g>
            </g>
            <line x1="33" y1="210" x2="55" y2="210" class="type-structure-optional"/>
            <text font-size="11" fill="black" x="53" y="208" text-anchor="end">0..1</text>
            <line x1="33" y1="66" x2="33" y2="210" class="type-structure-required"/>
            <g transform="translate(55,384)">
               <rect width="149.61249999999998" height="18" class="element-upper"/>
               <rect width="149.61249999999998" height="18" y="18" class="element-lower"/>
               <text font-size="12" x="3.6" y="12" font-weight="bold">aenderung.geburtsname</text>
               <line x1="0" y1="18" x2="149.61249999999998" y2="18"/>
               <text font-size="12" fill="grey" x="3.6" y="30">type</text>
               <line x1="31.753125" y1="18" x2="31.753125" y2="36"/>
               <g transform="translate(149.61249999999998,0)">
                  <g transform="translate(55,0)">
                     <rect width="218.22187499999998" height="18" class="element-upper"/>
                     <rect width="218.22187499999998" height="18" y="18" class="element-lower"/>
                     <text font-size="12" x="3.6" y="12" font-weight="bold">aenderung.geburtsname.strukturiert</text>
                     <line x1="0" y1="18" x2="218.22187499999998" y2="18"/>
                     <text font-size="12" fill="grey" x="3.6" y="30">type</text>
                     <line x1="31.753125" y1="18" x2="31.753125" y2="36"/>
                     <g transform="translate(218.22187499999998,0)">
                        <g transform="translate(55,0)">
                           <rect width="187.03125" height="18" class="element-upper"/>
                           <rect width="187.03125" height="18" y="18" class="element-lower"/>
                           <text font-size="12" x="3.6" y="12" font-weight="bold">geburtsname.bisher</text>
                           <line x1="0" y1="18" x2="187.03125" y2="18"/>
                           <text font-size="12" fill="grey" x="3.6" y="30">type</text>
                           <line x1="31.753125" y1="18" x2="31.753125" y2="36"/>
                           <text font-size="12" x="35.353125" y="30">xmeld:type.BZR.Nachname</text>
                           <g transform="translate(187.03125,0)"/>
                        </g>
                        <line x1="33" y1="18" x2="55" y2="18" class="type-structure-optional"/>
                        <text font-size="11" fill="black" x="53" y="16" text-anchor="end">0..1</text>
                        <line x1="33" y1="18" x2="33" y2="18" class="type-structure-optional"/>
                        <g transform="translate(55,48)">
                           <rect width="187.03125" height="18" class="element-upper"/>
                           <rect width="187.03125" height="18" y="18" class="element-lower"/>
                           <text font-size="12" x="3.6" y="12" font-weight="bold">geburtsname.neu</text>
                           <line x1="0" y1="18" x2="187.03125" y2="18"/>
                           <text font-size="12" fill="grey" x="3.6" y="30">type</text>
                           <line x1="31.753125" y1="18" x2="31.753125" y2="36"/>
                           <text font-size="12" x="35.353125" y="30">xmeld:type.BZR.Nachname</text>
                           <g transform="translate(187.03125,0)"/>
                        </g>
                        <line x1="33" y1="66" x2="55" y2="66" class="type-structure-optional"/>
                        <text font-size="11" fill="black" x="53" y="64" text-anchor="end">0..1</text>
                        <line x1="33" y1="18" x2="33" y2="66" class="type-structure-optional"/>
                        <circle cx="15" cy="18" r="10" stroke="black" fill="rgb(251, 251, 251)"/>
                        <line x1="0" y1="18" x2="5" y2="18" class="type-structure-optional"/>
                        <line x1="25" y1="18" x2="33" y2="18" class="type-structure-optional"/>
                        <circle cx="10" cy="18" r="1.2" stroke="black" fill="black"/>
                        <circle cx="15" cy="18" r="1.2" stroke="black" fill="black"/>
                        <circle cx="20" cy="18" r="1.2" stroke="black" fill="black"/>
                        <line x1="7" y1="18" x2="23" y2="18"/>
                     </g>
                  </g>
                  <line x1="33" y1="18" x2="55" y2="18" class="type-structure-required"/>
                  <text font-size="11" fill="black" x="53" y="16" text-anchor="end"/>
                  <line x1="33" y1="18" x2="33" y2="18" class="type-structure-required"/>
                  <g transform="translate(55,96)">
                     <rect width="232.22187499999998" height="18" class="element-upper"/>
                     <rect width="232.22187499999998" height="18" y="18" class="element-lower"/>
                     <text font-size="12" x="3.6" y="12" font-weight="bold">aenderung.geburtsname.unstrukturiert</text>
                     <line x1="0" y1="18" x2="232.22187499999998" y2="18"/>
                     <text font-size="12" fill="grey" x="3.6" y="30">type</text>
                     <line x1="31.753125" y1="18" x2="31.753125" y2="36"/>
                     <g transform="translate(232.22187499999998,0)">
                        <g transform="translate(55,0)">
                           <rect width="207.14374999999998" height="18" class="element-upper"/>
                           <rect width="207.14374999999998" height="18" y="18" class="element-lower"/>
                           <text font-size="12" x="3.6" y="12" font-weight="bold">geburtsname.bisher.unstrukturiert</text>
                           <line x1="0" y1="18" x2="207.14374999999998" y2="18"/>
                           <text font-size="12" fill="grey" x="3.6" y="30">type</text>
                           <line x1="31.753125" y1="18" x2="31.753125" y2="36"/>
                           <text font-size="12" x="35.353125" y="30">xian:AllgemeinerName</text>
                           <g transform="translate(207.14374999999998,0)"/>
                        </g>
                        <line x1="33" y1="18" x2="55" y2="18" class="type-structure-optional"/>
                        <text font-size="11" fill="black" x="53" y="16" text-anchor="end">0..1</text>
                        <line x1="33" y1="18" x2="33" y2="18" class="type-structure-optional"/>
                        <g transform="translate(55,48)">
                           <rect width="192.14374999999998" height="18" class="element-upper"/>
                           <rect width="192.14374999999998" height="18" y="18" class="element-lower"/>
                           <text font-size="12" x="3.6" y="12" font-weight="bold">geburtsname.neu.unstrukturiert</text>
                           <line x1="0" y1="18" x2="192.14374999999998" y2="18"/>
                           <text font-size="12" fill="grey" x="3.6" y="30">type</text>
                           <line x1="31.753125" y1="18" x2="31.753125" y2="36"/>
                           <text font-size="12" x="35.353125" y="30">xian:AllgemeinerName</text>
                           <g transform="translate(192.14374999999998,0)"/>
                        </g>
                        <line x1="33" y1="66" x2="55" y2="66" class="type-structure-optional"/>
                        <text font-size="11" fill="black" x="53" y="64" text-anchor="end">0..1</text>
                        <line x1="33" y1="18" x2="33" y2="66" class="type-structure-optional"/>
                        <circle cx="15" cy="18" r="10" stroke="black" fill="rgb(251, 251, 251)"/>
                        <line x1="0" y1="18" x2="5" y2="18" class="type-structure-optional"/>
                        <line x1="25" y1="18" x2="33" y2="18" class="type-structure-optional"/>
                        <circle cx="10" cy="18" r="1.2" stroke="black" fill="black"/>
                        <circle cx="15" cy="18" r="1.2" stroke="black" fill="black"/>
                        <circle cx="20" cy="18" r="1.2" stroke="black" fill="black"/>
                        <line x1="7" y1="18" x2="23" y2="18"/>
                     </g>
                  </g>
                  <line x1="33" y1="114" x2="55" y2="114" class="type-structure-optional"/>
                  <text font-size="11" fill="black" x="53" y="112" text-anchor="end">0..1</text>
                  <line x1="33" y1="18" x2="33" y2="114" class="type-structure-optional"/>
                  <circle cx="15" cy="18" r="10" stroke="black" fill="rgb(251, 251, 251)"/>
                  <line x1="0" y1="18" x2="5" y2="18" class="type-structure-required"/>
                  <line x1="25" y1="18" x2="33" y2="18" class="type-structure-required"/>
                  <circle cx="10" cy="18" r="1.2" stroke="black" fill="black"/>
                  <circle cx="15" cy="18" r="1.2" stroke="black" fill="black"/>
                  <circle cx="20" cy="18" r="1.2" stroke="black" fill="black"/>
                  <line x1="7" y1="18" x2="23" y2="18"/>
               </g>
            </g>
            <line x1="33" y1="402" x2="55" y2="402" class="type-structure-optional"/>
            <text font-size="11" fill="black" x="53" y="400" text-anchor="end">0..1</text>
            <line x1="33" y1="210" x2="33" y2="402" class="type-structure-required"/>
            <g transform="translate(55,576)">
               <rect width="130.89374999999998" height="18" class="element-upper"/>
               <rect width="130.89374999999998" height="18" y="18" class="element-lower"/>
               <text font-size="12" x="3.6" y="12" font-weight="bold">aenderung.vornamen</text>
               <line x1="0" y1="18" x2="130.89374999999998" y2="18"/>
               <text font-size="12" fill="grey" x="3.6" y="30">type</text>
               <line x1="31.753125" y1="18" x2="31.753125" y2="36"/>
               <g transform="translate(130.89374999999998,0)">
                  <g transform="translate(55,0)">
                     <rect width="163.03125" height="18" class="element-upper"/>
                     <rect width="163.03125" height="18" y="18" class="element-lower"/>
                     <text font-size="12" x="3.6" y="12" font-weight="bold">vorname.bisher</text>
                     <line x1="0" y1="18" x2="163.03125" y2="18"/>
                     <text font-size="12" fill="grey" x="3.6" y="30">type</text>
                     <line x1="31.753125" y1="18" x2="31.753125" y2="36"/>
                     <text font-size="12" x="35.353125" y="30">xian:AllgemeinerName</text>
                     <g transform="translate(163.03125,0)"/>
                  </g>
                  <line x1="33" y1="18" x2="55" y2="18" class="type-structure-required"/>
                  <text font-size="11" fill="black" x="53" y="16" text-anchor="end"/>
                  <line x1="33" y1="18" x2="33" y2="18" class="type-structure-required"/>
                  <g transform="translate(55,48)">
                     <rect width="163.03125" height="18" class="element-upper"/>
                     <rect width="163.03125" height="18" y="18" class="element-lower"/>
                     <text font-size="12" x="3.6" y="12" font-weight="bold">vorname.neu</text>
                     <line x1="0" y1="18" x2="163.03125" y2="18"/>
                     <text font-size="12" fill="grey" x="3.6" y="30">type</text>
                     <line x1="31.753125" y1="18" x2="31.753125" y2="36"/>
                     <text font-size="12" x="35.353125" y="30">xian:AllgemeinerName</text>
                     <g transform="translate(163.03125,0)"/>
                  </g>
                  <line x1="33" y1="66" x2="55" y2="66" class="type-structure-required"/>
                  <text font-size="11" fill="black" x="53" y="64" text-anchor="end"/>
                  <line x1="33" y1="18" x2="33" y2="66" class="type-structure-required"/>
                  <circle cx="15" cy="18" r="10" stroke="black" fill="rgb(251, 251, 251)"/>
                  <line x1="0" y1="18" x2="5" y2="18" class="type-structure-required"/>
                  <line x1="25" y1="18" x2="33" y2="18" class="type-structure-required"/>
                  <circle cx="10" cy="18" r="1.2" stroke="black" fill="black"/>
                  <circle cx="15" cy="18" r="1.2" stroke="black" fill="black"/>
                  <circle cx="20" cy="18" r="1.2" stroke="black" fill="black"/>
                  <line x1="7" y1="18" x2="23" y2="18"/>
               </g>
            </g>
            <line x1="33" y1="594" x2="55" y2="594" class="type-structure-optional"/>
            <text font-size="11" fill="black" x="53" y="592" text-anchor="end">0..1</text>
            <line x1="33" y1="402" x2="33" y2="594" class="type-structure-required"/>
            <g transform="translate(55,672)">
               <rect width="153.26874999999998" height="18" class="element-upper"/>
               <rect width="153.26874999999998" height="18" y="18" class="element-lower"/>
               <text font-size="12" x="3.6" y="12" font-weight="bold">aenderung.geburtsdatum</text>
               <line x1="0" y1="18" x2="153.26874999999998" y2="18"/>
               <text font-size="12" fill="grey" x="3.6" y="30">type</text>
               <line x1="31.753125" y1="18" x2="31.753125" y2="36"/>
               <g transform="translate(153.26874999999998,0)">
                  <g transform="translate(55,0)">
                     <rect width="177.078125" height="18" class="element-upper"/>
                     <rect width="177.078125" height="18" y="18" class="element-lower"/>
                     <text font-size="12" x="3.6" y="12" font-weight="bold">geburtsdatum.bisher</text>
                     <line x1="0" y1="18" x2="177.078125" y2="18"/>
                     <text font-size="12" fill="grey" x="3.6" y="30">type</text>
                     <line x1="31.753125" y1="18" x2="31.753125" y2="36"/>
                     <text font-size="12" x="35.353125" y="30">xmeld:type.Geburtsdatum</text>
                     <g transform="translate(177.078125,0)"/>
                  </g>
                  <line x1="33" y1="18" x2="55" y2="18" class="type-structure-required"/>
                  <text font-size="11" fill="black" x="53" y="16" text-anchor="end"/>
                  <line x1="33" y1="18" x2="33" y2="18" class="type-structure-required"/>
                  <g transform="translate(55,48)">
                     <rect width="177.078125" height="18" class="element-upper"/>
                     <rect width="177.078125" height="18" y="18" class="element-lower"/>
                     <text font-size="12" x="3.6" y="12" font-weight="bold">geburtsdatum.neu</text>
                     <line x1="0" y1="18" x2="177.078125" y2="18"/>
                     <text font-size="12" fill="grey" x="3.6" y="30">type</text>
                     <line x1="31.753125" y1="18" x2="31.753125" y2="36"/>
                     <text font-size="12" x="35.353125" y="30">xmeld:type.Geburtsdatum</text>
                     <g transform="translate(177.078125,0)"/>
                  </g>
                  <line x1="33" y1="66" x2="55" y2="66" class="type-structure-required"/>
                  <text font-size="11" fill="black" x="53" y="64" text-anchor="end"/>
                  <line x1="33" y1="18" x2="33" y2="66" class="type-structure-required"/>
                  <circle cx="15" cy="18" r="10" stroke="black" fill="rgb(251, 251, 251)"/>
                  <line x1="0" y1="18" x2="5" y2="18" class="type-structure-required"/>
                  <line x1="25" y1="18" x2="33" y2="18" class="type-structure-required"/>
                  <circle cx="10" cy="18" r="1.2" stroke="black" fill="black"/>
                  <circle cx="15" cy="18" r="1.2" stroke="black" fill="black"/>
                  <circle cx="20" cy="18" r="1.2" stroke="black" fill="black"/>
                  <line x1="7" y1="18" x2="23" y2="18"/>
               </g>
            </g>
            <line x1="33" y1="690" x2="55" y2="690" class="type-structure-optional"/>
            <text font-size="11" fill="black" x="53" y="688" text-anchor="end">0..1</text>
            <line x1="33" y1="594" x2="33" y2="690" class="type-structure-required"/>
            <g transform="translate(55,768)">
               <rect width="216.390625" height="18" class="element-upper"/>
               <rect width="216.390625" height="18" y="18" class="element-lower"/>
               <text font-size="12" x="3.6" y="12" font-weight="bold">identifikation.ereignis</text>
               <line x1="0" y1="18" x2="216.390625" y2="18"/>
               <text font-size="12" fill="grey" x="3.6" y="30">type</text>
               <line x1="31.753125" y1="18" x2="31.753125" y2="36"/>
               <text font-size="12" x="35.353125" y="30">xmeld:type.Identifikation.Ereignis</text>
               <g transform="translate(216.390625,0)"/>
            </g>
            <line x1="33" y1="786" x2="55" y2="786" class="type-structure-required"/>
            <text font-size="11" fill="black" x="53" y="784" text-anchor="end"/>
            <line x1="33" y1="690" x2="33" y2="786" class="type-structure-required"/>
            <circle cx="15" cy="18" r="10" stroke="black" fill="rgb(251, 251, 251)"/>
            <line x1="0" y1="18" x2="5" y2="18" class="type-structure-required"/>
            <line x1="25" y1="18" x2="33" y2="18" class="type-structure-required"/>
            <circle cx="10" cy="18" r="1.2" stroke="black" fill="black"/>
            <circle cx="15" cy="18" r="1.2" stroke="black" fill="black"/>
            <circle cx="20" cy="18" r="1.2" stroke="black" fill="black"/>
            <line x1="7" y1="18" x2="23" y2="18"/>
         </g>
      </g>
      <line x1="33" y1="18" x2="55" y2="18" class="type-structure-required"/>
      <text font-size="11" fill="black" x="53" y="16" text-anchor="end"/>
      <line x1="33" y1="18" x2="33" y2="18" class="type-structure-required"/>
      <circle cx="15" cy="18" r="10" stroke="black" fill="rgb(251, 251, 251)"/>
      <line x1="0" y1="18" x2="5" y2="18" class="type-structure-required"/>
      <line x1="25" y1="18" x2="33" y2="18" class="type-structure-required"/>
      <circle cx="10" cy="18" r="1.2" stroke="black" fill="black"/>
      <circle cx="15" cy="18" r="1.2" stroke="black" fill="black"/>
      <circle cx="20" cy="18" r="1.2" stroke="black" fill="black"/>
      <line x1="7" y1="18" x2="23" y2="18"/>
   </g>
</svg>