<?xml version="1.0" encoding="UTF-8"?><svg xmlns="http://www.w3.org/2000/svg" xmlns:xlink="http://www.w3.org/1999/xlink" stroke-dasharray="none" shape-rendering="auto" font-family="'Arial'" text-rendering="auto" width="6.21875in" fill-opacity="1" color-interpolation="auto" color-rendering="auto" font-size="12" viewBox="40 55 597 94" fill="black" stroke="black" image-rendering="auto" stroke-miterlimit="10" stroke-linecap="square" stroke-linejoin="miter" font-style="normal" stroke-width="1" height="0.9791666666666666in" stroke-dashoffset="0" font-weight="normal" stroke-opacity="1" preserveAspectRatio="xMidYMid meet" zoomAndPan="magnify" version="1.0" contentScriptType="text/ecmascript" contentStyleType="text/css"><!--Generated by the Batik Graphics2D SVG Generator
 This is MagicDraw diagram.--><defs id="genericDefs"/><g><defs id="defs1"><linearGradient x1="240" gradientUnits="userSpaceOnUse" x2="450" y1="82" y2="128" id="linearGradient1" spreadMethod="pad" xlink:type="simple" xlink:show="other" xlink:actuate="onLoad"><stop stop-opacity="1" stop-color="rgb(255,255,153)" offset="0%"/><stop stop-opacity="1" stop-color="rgb(255,255,218)" offset="100%"/></linearGradient><linearGradient x1="567" gradientUnits="userSpaceOnUse" x2="600" y1="73" y2="106" id="linearGradient2" spreadMethod="pad" xlink:type="simple" xlink:show="other" xlink:actuate="onLoad"><stop stop-opacity="1" stop-color="rgb(255,204,153)" offset="0%"/><stop stop-opacity="1" stop-color="rgb(255,255,218)" offset="100%"/></linearGradient><linearGradient x1="77" gradientUnits="userSpaceOnUse" x2="110" y1="81" y2="114" id="linearGradient3" spreadMethod="pad" xlink:type="simple" xlink:show="other" xlink:actuate="onLoad"><stop stop-opacity="1" stop-color="rgb(255,204,153)" offset="0%"/><stop stop-opacity="1" stop-color="rgb(255,255,218)" offset="100%"/></linearGradient><clipPath clipPathUnits="userSpaceOnUse" id="clipPath1"><path d="M40 55 L637 55 L637 149 L40 149 L40 55 Z"/></clipPath></defs><g fill="white" stroke="white"><rect x="40" y="55" clip-path="url(#clipPath1)" width="597" height="94" stroke="none"/></g><g fill="rgb(178,178,178)" text-rendering="optimizeLegibility" shape-rendering="geometricPrecision" stroke="rgb(178,178,178)"><ellipse clip-path="url(#clipPath1)" rx="105" cx="348" ry="23" cy="108" stroke="none"/><ellipse clip-path="url(#clipPath1)" fill="url(#linearGradient1)" rx="105" cx="345" ry="23" cy="105" stroke="none"/><ellipse clip-path="url(#clipPath1)" fill="none" rx="105" cx="345" ry="23" cy="105" stroke="rgb(66,66,66)"/><path fill="black" d="M271.890625 101.45703125 L271.890625 92.86328125 L277.78125 92.86328125 L277.78125 94.31640625 L273.625 94.31640625 L273.625 96.34765625 L277.203125 96.34765625 L277.203125 97.80078125 L273.625 97.80078125 L273.625 101.45703125 L271.890625 101.45703125 ZM277.484375 98.25390625 Q277.484375 97.44140625 277.890625 96.66796875 Q278.296875 95.89453125 279.03125 95.49609375 Q279.765625 95.09765625 280.6875 95.09765625 Q282.09375 95.09765625 283 96.01171875 Q283.90625 96.92578125 283.90625 98.33203125 Q283.90625 99.73828125 282.9921875 100.66796875 Q282.078125 101.59765625 280.703125 101.59765625 Q279.84375 101.59765625 279.0703125 101.20703125 Q278.296875 100.81640625 277.890625 100.07421875 Q277.484375 99.33203125 277.484375 98.25390625 ZM279.171875 98.34765625 Q279.171875 99.26953125 279.609375 99.76171875 Q280.046875 100.25390625 280.6875 100.25390625 Q281.34375 100.25390625 281.7734375 99.76171875 Q282.203125 99.26953125 282.203125 98.33203125 Q282.203125 97.42578125 281.7734375 96.93359375 Q281.34375 96.44140625 280.6875 96.44140625 Q280.046875 96.44140625 279.609375 96.93359375 Q279.171875 97.42578125 279.171875 98.34765625 ZM286.4375 101.45703125 L284.796875 101.45703125 L284.796875 95.23828125 L286.328125 95.23828125 L286.328125 96.11328125 Q286.71875 95.48828125 287.03125 95.29296875 Q287.34375 95.09765625 287.734375 95.09765625 Q288.296875 95.09765625 288.828125 95.41015625 L288.3125 96.83203125 Q287.890625 96.56640625 287.546875 96.56640625 Q287.1875 96.56640625 286.953125 96.76171875 Q286.71875 96.95703125 286.578125 97.44921875 Q286.4375 97.94140625 286.4375 99.53515625 L286.4375 101.45703125 ZM292.71875 95.23828125 L292.71875 96.55078125 L291.59375 96.55078125 L291.59375 99.05078125 Q291.59375 99.81640625 291.625 99.94140625 Q291.65625 100.06640625 291.7734375 100.15234375 Q291.890625 100.23828125 292.046875 100.23828125 Q292.28125 100.23828125 292.703125 100.06640625 L292.84375 101.34765625 Q292.28125 101.59765625 291.546875 101.59765625 Q291.109375 101.59765625 290.75 101.44921875 Q290.390625 101.30078125 290.2265625 101.05859375 Q290.0625 100.81640625 289.984375 100.42578125 Q289.9375 100.12890625 289.9375 99.25390625 L289.9375 96.55078125 L289.1875 96.55078125 L289.1875 95.23828125 L289.9375 95.23828125 L289.9375 94.00390625 L291.59375 93.03515625 L291.59375 95.23828125 L292.71875 95.23828125 ZM293.28125 99.67578125 L294.9375 99.42578125 Q295.046875 99.91015625 295.3671875 100.16015625 Q295.6875 100.41015625 296.265625 100.41015625 Q296.90625 100.41015625 297.21875 100.17578125 Q297.4375 100.00390625 297.4375 99.73828125 Q297.4375 99.55078125 297.328125 99.42578125 Q297.203125 99.30078125 296.78125 99.20703125 Q294.78125 98.76953125 294.25 98.41015625 Q293.515625 97.89453125 293.515625 97.00390625 Q293.515625 96.19140625 294.1484375 95.64453125 Q294.78125 95.09765625 296.125 95.09765625 Q297.40625 95.09765625 298.03125 95.51171875 Q298.65625 95.92578125 298.890625 96.73828125 L297.328125 97.01953125 Q297.234375 96.66015625 296.953125 96.46484375 Q296.671875 96.26953125 296.15625 96.26953125 Q295.515625 96.26953125 295.234375 96.45703125 Q295.046875 96.58203125 295.046875 96.78515625 Q295.046875 96.97265625 295.203125 97.09765625 Q295.421875 97.25390625 296.7421875 97.55078125 Q298.0625 97.84765625 298.578125 98.28515625 Q299.09375 98.72265625 299.09375 99.50390625 Q299.09375 100.36328125 298.3828125 100.98046875 Q297.671875 101.59765625 296.265625 101.59765625 Q295 101.59765625 294.2578125 101.08203125 Q293.515625 100.56640625 293.28125 99.67578125 ZM306.28125 97.06640625 L304.671875 97.36328125 Q304.578125 96.87890625 304.2890625 96.63671875 Q304 96.39453125 303.546875 96.39453125 Q302.921875 96.39453125 302.5546875 96.81640625 Q302.1875 97.23828125 302.1875 98.23828125 Q302.1875 99.34765625 302.5625 99.80078125 Q302.9375 100.25390625 303.5625 100.25390625 Q304.03125 100.25390625 304.328125 99.98828125 Q304.625 99.72265625 304.75 99.06640625 L306.375 99.34765625 Q306.125 100.45703125 305.40625 101.02734375 Q304.6875 101.59765625 303.484375 101.59765625 Q302.125 101.59765625 301.3125 100.73828125 Q300.5 99.87890625 300.5 98.34765625 Q300.5 96.81640625 301.3125 95.95703125 Q302.125 95.09765625 303.515625 95.09765625 Q304.65625 95.09765625 305.328125 95.58203125 Q306 96.06640625 306.28125 97.06640625 ZM309.5 92.86328125 L309.5 96.01953125 Q310.296875 95.09765625 311.40625 95.09765625 Q311.96875 95.09765625 312.4296875 95.30859375 Q312.890625 95.51953125 313.125 95.84765625 Q313.359375 96.17578125 313.4375 96.57421875 Q313.515625 96.97265625 313.515625 97.80078125 L313.515625 101.45703125 L311.875 101.45703125 L311.875 98.17578125 Q311.875 97.19140625 311.78125 96.92578125 Q311.6875 96.66015625 311.453125 96.50390625 Q311.21875 96.34765625 310.859375 96.34765625 Q310.453125 96.34765625 310.125 96.55078125 Q309.796875 96.75390625 309.6484375 97.15234375 Q309.5 97.55078125 309.5 98.33203125 L309.5 101.45703125 L307.859375 101.45703125 L307.859375 92.86328125 L309.5 92.86328125 ZM316.4375 101.45703125 L314.796875 101.45703125 L314.796875 95.23828125 L316.328125 95.23828125 L316.328125 96.11328125 Q316.71875 95.48828125 317.03125 95.29296875 Q317.34375 95.09765625 317.734375 95.09765625 Q318.296875 95.09765625 318.828125 95.41015625 L318.3125 96.83203125 Q317.890625 96.56640625 317.546875 96.56640625 Q317.1875 96.56640625 316.953125 96.76171875 Q316.71875 96.95703125 316.578125 97.44921875 Q316.4375 97.94140625 316.4375 99.53515625 L316.4375 101.45703125 ZM323.46875 99.47265625 L325.109375 99.75390625 Q324.796875 100.66015625 324.109375 101.12890625 Q323.421875 101.59765625 322.40625 101.59765625 Q320.78125 101.59765625 320 100.53515625 Q319.375 99.69140625 319.375 98.39453125 Q319.375 96.84765625 320.1875 95.97265625 Q321 95.09765625 322.234375 95.09765625 Q323.625 95.09765625 324.4296875 96.01171875 Q325.234375 96.92578125 325.1875 98.81640625 L321.0625 98.81640625 Q321.09375 99.55078125 321.46875 99.95703125 Q321.84375 100.36328125 322.421875 100.36328125 Q322.796875 100.36328125 323.0625 100.15234375 Q323.328125 99.94140625 323.46875 99.47265625 ZM323.5625 97.81640625 Q323.546875 97.09765625 323.1953125 96.72265625 Q322.84375 96.34765625 322.328125 96.34765625 Q321.796875 96.34765625 321.4375 96.73828125 Q321.09375 97.14453125 321.09375 97.81640625 L323.5625 97.81640625 ZM326.859375 94.39453125 L326.859375 92.86328125 L328.515625 92.86328125 L328.515625 94.39453125 L326.859375 94.39453125 ZM326.859375 101.45703125 L326.859375 95.23828125 L328.515625 95.23828125 L328.515625 101.45703125 L326.859375 101.45703125 ZM329.796875 101.45703125 L329.796875 92.86328125 L331.4375 92.86328125 L331.4375 95.95703125 Q332.203125 95.09765625 333.25 95.09765625 Q334.375 95.09765625 335.125 95.91796875 Q335.875 96.73828125 335.875 98.28515625 Q335.875 99.87890625 335.109375 100.73828125 Q334.34375 101.59765625 333.265625 101.59765625 Q332.734375 101.59765625 332.21875 101.33203125 Q331.703125 101.06640625 331.328125 100.53515625 L331.328125 101.45703125 L329.796875 101.45703125 ZM331.421875 98.20703125 Q331.421875 99.17578125 331.734375 99.64453125 Q332.15625 100.30078125 332.875 100.30078125 Q333.40625 100.30078125 333.796875 99.83203125 Q334.1875 99.36328125 334.1875 98.36328125 Q334.1875 97.30078125 333.796875 96.82421875 Q333.40625 96.34765625 332.796875 96.34765625 Q332.21875 96.34765625 331.8203125 96.80859375 Q331.421875 97.26953125 331.421875 98.20703125 ZM340.953125 101.45703125 L340.953125 100.51953125 Q340.625 101.01953125 340.0703125 101.30859375 Q339.515625 101.59765625 338.890625 101.59765625 Q338.265625 101.59765625 337.765625 101.32421875 Q337.265625 101.05078125 337.046875 100.55078125 Q336.828125 100.05078125 336.828125 99.17578125 L336.828125 95.23828125 L338.46875 95.23828125 L338.46875 98.09765625 Q338.46875 99.41015625 338.5625 99.70703125 Q338.65625 100.00390625 338.8984375 100.17578125 Q339.140625 100.34765625 339.5 100.34765625 Q339.921875 100.34765625 340.2578125 100.11328125 Q340.59375 99.87890625 340.71875 99.53515625 Q340.84375 99.19140625 340.84375 97.86328125 L340.84375 95.23828125 L342.484375 95.23828125 L342.484375 101.45703125 L340.953125 101.45703125 ZM349.515625 101.45703125 L347.875 101.45703125 L347.875 98.28515625 Q347.875 97.26953125 347.7734375 96.97265625 Q347.671875 96.67578125 347.4296875 96.51171875 Q347.1875 96.34765625 346.859375 96.34765625 Q346.421875 96.34765625 346.0859375 96.58203125 Q345.75 96.81640625 345.625 97.20703125 Q345.5 97.59765625 345.5 98.64453125 L345.5 101.45703125 L343.84375 101.45703125 L343.84375 95.23828125 L345.375 95.23828125 L345.375 96.14453125 Q346.1875 95.09765625 347.4375 95.09765625 Q347.96875 95.09765625 348.421875 95.29296875 Q348.875 95.48828125 349.109375 95.79296875 Q349.34375 96.09765625 349.4296875 96.48046875 Q349.515625 96.86328125 349.515625 97.58203125 L349.515625 101.45703125 ZM350.703125 101.86328125 L352.59375 102.09765625 Q352.640625 102.42578125 352.8125 102.55078125 Q353.046875 102.72265625 353.546875 102.72265625 Q354.1875 102.72265625 354.515625 102.53515625 Q354.734375 102.39453125 354.84375 102.11328125 Q354.921875 101.91015625 354.921875 101.36328125 L354.921875 100.44140625 Q354.171875 101.45703125 353.046875 101.45703125 Q351.796875 101.45703125 351.0625 100.39453125 Q350.5 99.55078125 350.5 98.31640625 Q350.5 96.73828125 351.25 95.91796875 Q352 95.09765625 353.125 95.09765625 Q354.265625 95.09765625 355.015625 96.11328125 L355.015625 95.23828125 L356.5625 95.23828125 L356.5625 100.81640625 Q356.5625 101.92578125 356.3828125 102.46484375 Q356.203125 103.00390625 355.875 103.31640625 Q355.546875 103.62890625 355 103.80859375 Q354.453125 103.98828125 353.609375 103.98828125 Q352.03125 103.98828125 351.3671875 103.44140625 Q350.703125 102.89453125 350.703125 102.06640625 Q350.703125 101.98828125 350.703125 101.86328125 ZM352.1875 98.22265625 Q352.1875 99.20703125 352.5703125 99.66796875 Q352.953125 100.12890625 353.515625 100.12890625 Q354.109375 100.12890625 354.53125 99.65234375 Q354.953125 99.17578125 354.953125 98.25390625 Q354.953125 97.28515625 354.5546875 96.81640625 Q354.15625 96.34765625 353.546875 96.34765625 Q352.953125 96.34765625 352.5703125 96.80859375 Q352.1875 97.26953125 352.1875 98.22265625 ZM357.28125 99.67578125 L358.9375 99.42578125 Q359.046875 99.91015625 359.3671875 100.16015625 Q359.6875 100.41015625 360.265625 100.41015625 Q360.90625 100.41015625 361.21875 100.17578125 Q361.4375 100.00390625 361.4375 99.73828125 Q361.4375 99.55078125 361.328125 99.42578125 Q361.203125 99.30078125 360.78125 99.20703125 Q358.78125 98.76953125 358.25 98.41015625 Q357.515625 97.89453125 357.515625 97.00390625 Q357.515625 96.19140625 358.1484375 95.64453125 Q358.78125 95.09765625 360.125 95.09765625 Q361.40625 95.09765625 362.03125 95.51171875 Q362.65625 95.92578125 362.890625 96.73828125 L361.328125 97.01953125 Q361.234375 96.66015625 360.953125 96.46484375 Q360.671875 96.26953125 360.15625 96.26953125 Q359.515625 96.26953125 359.234375 96.45703125 Q359.046875 96.58203125 359.046875 96.78515625 Q359.046875 96.97265625 359.203125 97.09765625 Q359.421875 97.25390625 360.7421875 97.55078125 Q362.0625 97.84765625 362.578125 98.28515625 Q363.09375 98.72265625 363.09375 99.50390625 Q363.09375 100.36328125 362.3828125 100.98046875 Q361.671875 101.59765625 360.265625 101.59765625 Q359 101.59765625 358.2578125 101.08203125 Q357.515625 100.56640625 357.28125 99.67578125 ZM370.515625 101.45703125 L368.875 101.45703125 L368.875 98.28515625 Q368.875 97.26953125 368.7734375 96.97265625 Q368.671875 96.67578125 368.4296875 96.51171875 Q368.1875 96.34765625 367.859375 96.34765625 Q367.421875 96.34765625 367.0859375 96.58203125 Q366.75 96.81640625 366.625 97.20703125 Q366.5 97.59765625 366.5 98.64453125 L366.5 101.45703125 L364.84375 101.45703125 L364.84375 95.23828125 L366.375 95.23828125 L366.375 96.14453125 Q367.1875 95.09765625 368.4375 95.09765625 Q368.96875 95.09765625 369.421875 95.29296875 Q369.875 95.48828125 370.109375 95.79296875 Q370.34375 96.09765625 370.4296875 96.48046875 Q370.515625 96.86328125 370.515625 97.58203125 L370.515625 101.45703125 ZM373.09375 97.12890625 L371.59375 96.86328125 Q371.84375 95.95703125 372.4609375 95.52734375 Q373.078125 95.09765625 374.296875 95.09765625 Q375.390625 95.09765625 375.9296875 95.35546875 Q376.46875 95.61328125 376.6875 96.01171875 Q376.90625 96.41015625 376.90625 97.48828125 L376.890625 99.41015625 Q376.890625 100.23828125 376.96875 100.62109375 Q377.046875 101.00390625 377.265625 101.45703125 L375.640625 101.45703125 Q375.578125 101.28515625 375.484375 100.97265625 Q375.4375 100.81640625 375.421875 100.76953125 Q375 101.19140625 374.5234375 101.39453125 Q374.046875 101.59765625 373.5 101.59765625 Q372.53125 101.59765625 371.9765625 101.07421875 Q371.421875 100.55078125 371.421875 99.75390625 Q371.421875 99.22265625 371.6796875 98.81640625 Q371.9375 98.41015625 372.390625 98.18359375 Q372.84375 97.95703125 373.703125 97.80078125 Q374.84375 97.58203125 375.296875 97.39453125 L375.296875 97.23828125 Q375.296875 96.75390625 375.0625 96.55078125 Q374.828125 96.34765625 374.171875 96.34765625 Q373.734375 96.34765625 373.4921875 96.51953125 Q373.25 96.69140625 373.09375 97.12890625 ZM375.296875 98.47265625 Q374.984375 98.56640625 374.296875 98.71484375 Q373.609375 98.86328125 373.390625 99.00390625 Q373.078125 99.23828125 373.078125 99.58203125 Q373.078125 99.92578125 373.3359375 100.18359375 Q373.59375 100.44140625 373.984375 100.44140625 Q374.4375 100.44140625 374.84375 100.14453125 Q375.140625 99.92578125 375.234375 99.59765625 Q375.296875 99.39453125 375.296875 98.80078125 L375.296875 98.47265625 ZM384.28125 97.06640625 L382.671875 97.36328125 Q382.578125 96.87890625 382.2890625 96.63671875 Q382 96.39453125 381.546875 96.39453125 Q380.921875 96.39453125 380.5546875 96.81640625 Q380.1875 97.23828125 380.1875 98.23828125 Q380.1875 99.34765625 380.5625 99.80078125 Q380.9375 100.25390625 381.5625 100.25390625 Q382.03125 100.25390625 382.328125 99.98828125 Q382.625 99.72265625 382.75 99.06640625 L384.375 99.34765625 Q384.125 100.45703125 383.40625 101.02734375 Q382.6875 101.59765625 381.484375 101.59765625 Q380.125 101.59765625 379.3125 100.73828125 Q378.5 99.87890625 378.5 98.34765625 Q378.5 96.81640625 379.3125 95.95703125 Q380.125 95.09765625 381.515625 95.09765625 Q382.65625 95.09765625 383.328125 95.58203125 Q384 96.06640625 384.28125 97.06640625 ZM387.5 92.86328125 L387.5 96.01953125 Q388.296875 95.09765625 389.40625 95.09765625 Q389.96875 95.09765625 390.4296875 95.30859375 Q390.890625 95.51953125 391.125 95.84765625 Q391.359375 96.17578125 391.4375 96.57421875 Q391.515625 96.97265625 391.515625 97.80078125 L391.515625 101.45703125 L389.875 101.45703125 L389.875 98.17578125 Q389.875 97.19140625 389.78125 96.92578125 Q389.6875 96.66015625 389.453125 96.50390625 Q389.21875 96.34765625 388.859375 96.34765625 Q388.453125 96.34765625 388.125 96.55078125 Q387.796875 96.75390625 387.6484375 97.15234375 Q387.5 97.55078125 387.5 98.33203125 L387.5 101.45703125 L385.859375 101.45703125 L385.859375 92.86328125 L387.5 92.86328125 ZM394.4375 101.45703125 L392.796875 101.45703125 L392.796875 95.23828125 L394.328125 95.23828125 L394.328125 96.11328125 Q394.71875 95.48828125 395.03125 95.29296875 Q395.34375 95.09765625 395.734375 95.09765625 Q396.296875 95.09765625 396.828125 95.41015625 L396.3125 96.83203125 Q395.890625 96.56640625 395.546875 96.56640625 Q395.1875 96.56640625 394.953125 96.76171875 Q394.71875 96.95703125 394.578125 97.44921875 Q394.4375 97.94140625 394.4375 99.53515625 L394.4375 101.45703125 ZM397.859375 94.39453125 L397.859375 92.86328125 L399.515625 92.86328125 L399.515625 94.39453125 L397.859375 94.39453125 ZM397.859375 101.45703125 L397.859375 95.23828125 L399.515625 95.23828125 L399.515625 101.45703125 L397.859375 101.45703125 ZM406.28125 97.06640625 L404.671875 97.36328125 Q404.578125 96.87890625 404.2890625 96.63671875 Q404 96.39453125 403.546875 96.39453125 Q402.921875 96.39453125 402.5546875 96.81640625 Q402.1875 97.23828125 402.1875 98.23828125 Q402.1875 99.34765625 402.5625 99.80078125 Q402.9375 100.25390625 403.5625 100.25390625 Q404.03125 100.25390625 404.328125 99.98828125 Q404.625 99.72265625 404.75 99.06640625 L406.375 99.34765625 Q406.125 100.45703125 405.40625 101.02734375 Q404.6875 101.59765625 403.484375 101.59765625 Q402.125 101.59765625 401.3125 100.73828125 Q400.5 99.87890625 400.5 98.34765625 Q400.5 96.81640625 401.3125 95.95703125 Q402.125 95.09765625 403.515625 95.09765625 Q404.65625 95.09765625 405.328125 95.58203125 Q406 96.06640625 406.28125 97.06640625 ZM409.5 92.86328125 L409.5 96.01953125 Q410.296875 95.09765625 411.40625 95.09765625 Q411.96875 95.09765625 412.4296875 95.30859375 Q412.890625 95.51953125 413.125 95.84765625 Q413.359375 96.17578125 413.4375 96.57421875 Q413.515625 96.97265625 413.515625 97.80078125 L413.515625 101.45703125 L411.875 101.45703125 L411.875 98.17578125 Q411.875 97.19140625 411.78125 96.92578125 Q411.6875 96.66015625 411.453125 96.50390625 Q411.21875 96.34765625 410.859375 96.34765625 Q410.453125 96.34765625 410.125 96.55078125 Q409.796875 96.75390625 409.6484375 97.15234375 Q409.5 97.55078125 409.5 98.33203125 L409.5 101.45703125 L407.859375 101.45703125 L407.859375 92.86328125 L409.5 92.86328125 ZM417.71875 95.23828125 L417.71875 96.55078125 L416.59375 96.55078125 L416.59375 99.05078125 Q416.59375 99.81640625 416.625 99.94140625 Q416.65625 100.06640625 416.7734375 100.15234375 Q416.890625 100.23828125 417.046875 100.23828125 Q417.28125 100.23828125 417.703125 100.06640625 L417.84375 101.34765625 Q417.28125 101.59765625 416.546875 101.59765625 Q416.109375 101.59765625 415.75 101.44921875 Q415.390625 101.30078125 415.2265625 101.05859375 Q415.0625 100.81640625 414.984375 100.42578125 Q414.9375 100.12890625 414.9375 99.25390625 L414.9375 96.55078125 L414.1875 96.55078125 L414.1875 95.23828125 L414.9375 95.23828125 L414.9375 94.00390625 L416.59375 93.03515625 L416.59375 95.23828125 L417.71875 95.23828125 Z" clip-path="url(#clipPath1)" stroke="none"/><path fill="black" d="M316.953125 116.45703125 L316.953125 115.51953125 Q316.625 116.01953125 316.0703125 116.30859375 Q315.515625 116.59765625 314.890625 116.59765625 Q314.265625 116.59765625 313.765625 116.32421875 Q313.265625 116.05078125 313.046875 115.55078125 Q312.828125 115.05078125 312.828125 114.17578125 L312.828125 110.23828125 L314.46875 110.23828125 L314.46875 113.09765625 Q314.46875 114.41015625 314.5625 114.70703125 Q314.65625 115.00390625 314.8984375 115.17578125 Q315.140625 115.34765625 315.5 115.34765625 Q315.921875 115.34765625 316.2578125 115.11328125 Q316.59375 114.87890625 316.71875 114.53515625 Q316.84375 114.19140625 316.84375 112.86328125 L316.84375 110.23828125 L318.484375 110.23828125 L318.484375 116.45703125 L316.953125 116.45703125 ZM314.0625 108.45703125 L314.0625 107.05078125 L315.46875 107.05078125 L315.46875 108.45703125 L314.0625 108.45703125 ZM316.578125 108.45703125 L316.578125 107.05078125 L318 107.05078125 L318 108.45703125 L316.578125 108.45703125 ZM319.796875 116.45703125 L319.796875 107.86328125 L321.4375 107.86328125 L321.4375 110.95703125 Q322.203125 110.09765625 323.25 110.09765625 Q324.375 110.09765625 325.125 110.91796875 Q325.875 111.73828125 325.875 113.28515625 Q325.875 114.87890625 325.109375 115.73828125 Q324.34375 116.59765625 323.265625 116.59765625 Q322.734375 116.59765625 322.21875 116.33203125 Q321.703125 116.06640625 321.328125 115.53515625 L321.328125 116.45703125 L319.796875 116.45703125 ZM321.421875 113.20703125 Q321.421875 114.17578125 321.734375 114.64453125 Q322.15625 115.30078125 322.875 115.30078125 Q323.40625 115.30078125 323.796875 114.83203125 Q324.1875 114.36328125 324.1875 113.36328125 Q324.1875 112.30078125 323.796875 111.82421875 Q323.40625 111.34765625 322.796875 111.34765625 Q322.21875 111.34765625 321.8203125 111.80859375 Q321.421875 112.26953125 321.421875 113.20703125 ZM330.46875 114.47265625 L332.109375 114.75390625 Q331.796875 115.66015625 331.109375 116.12890625 Q330.421875 116.59765625 329.40625 116.59765625 Q327.78125 116.59765625 327 115.53515625 Q326.375 114.69140625 326.375 113.39453125 Q326.375 111.84765625 327.1875 110.97265625 Q328 110.09765625 329.234375 110.09765625 Q330.625 110.09765625 331.4296875 111.01171875 Q332.234375 111.92578125 332.1875 113.81640625 L328.0625 113.81640625 Q328.09375 114.55078125 328.46875 114.95703125 Q328.84375 115.36328125 329.421875 115.36328125 Q329.796875 115.36328125 330.0625 115.15234375 Q330.328125 114.94140625 330.46875 114.47265625 ZM330.5625 112.81640625 Q330.546875 112.09765625 330.1953125 111.72265625 Q329.84375 111.34765625 329.328125 111.34765625 Q328.796875 111.34765625 328.4375 111.73828125 Q328.09375 112.14453125 328.09375 112.81640625 L330.5625 112.81640625 ZM335.4375 116.45703125 L333.796875 116.45703125 L333.796875 110.23828125 L335.328125 110.23828125 L335.328125 111.11328125 Q335.71875 110.48828125 336.03125 110.29296875 Q336.34375 110.09765625 336.734375 110.09765625 Q337.296875 110.09765625 337.828125 110.41015625 L337.3125 111.83203125 Q336.890625 111.56640625 336.546875 111.56640625 Q336.1875 111.56640625 335.953125 111.76171875 Q335.71875 111.95703125 335.578125 112.44921875 Q335.4375 112.94140625 335.4375 114.53515625 L335.4375 116.45703125 ZM338.734375 110.23828125 L340.25 110.23828125 L340.25 111.08203125 Q341.078125 110.09765625 342.203125 110.09765625 Q342.796875 110.09765625 343.234375 110.33984375 Q343.671875 110.58203125 343.953125 111.08203125 Q344.359375 110.58203125 344.8359375 110.33984375 Q345.3125 110.09765625 345.859375 110.09765625 Q346.53125 110.09765625 347.0078125 110.37109375 Q347.484375 110.64453125 347.71875 111.19140625 Q347.890625 111.58203125 347.890625 112.47265625 L347.890625 116.45703125 L346.25 116.45703125 L346.25 112.89453125 Q346.25 111.97265625 346.078125 111.70703125 Q345.84375 111.34765625 345.375 111.34765625 Q345.03125 111.34765625 344.7265625 111.55859375 Q344.421875 111.76953125 344.28125 112.17578125 Q344.140625 112.58203125 344.140625 113.47265625 L344.140625 116.45703125 L342.5 116.45703125 L342.5 113.05078125 Q342.5 112.14453125 342.4140625 111.87890625 Q342.328125 111.61328125 342.140625 111.48046875 Q341.953125 111.34765625 341.640625 111.34765625 Q341.265625 111.34765625 340.9609375 111.55859375 Q340.65625 111.76953125 340.5234375 112.15234375 Q340.390625 112.53515625 340.390625 113.42578125 L340.390625 116.45703125 L338.734375 116.45703125 L338.734375 110.23828125 ZM349.859375 109.39453125 L349.859375 107.86328125 L351.515625 107.86328125 L351.515625 109.39453125 L349.859375 109.39453125 ZM349.859375 116.45703125 L349.859375 110.23828125 L351.515625 110.23828125 L351.515625 116.45703125 L349.859375 116.45703125 ZM355.71875 110.23828125 L355.71875 111.55078125 L354.59375 111.55078125 L354.59375 114.05078125 Q354.59375 114.81640625 354.625 114.94140625 Q354.65625 115.06640625 354.7734375 115.15234375 Q354.890625 115.23828125 355.046875 115.23828125 Q355.28125 115.23828125 355.703125 115.06640625 L355.84375 116.34765625 Q355.28125 116.59765625 354.546875 116.59765625 Q354.109375 116.59765625 353.75 116.44921875 Q353.390625 116.30078125 353.2265625 116.05859375 Q353.0625 115.81640625 352.984375 115.42578125 Q352.9375 115.12890625 352.9375 114.25390625 L352.9375 111.55078125 L352.1875 111.55078125 L352.1875 110.23828125 L352.9375 110.23828125 L352.9375 109.00390625 L354.59375 108.03515625 L354.59375 110.23828125 L355.71875 110.23828125 ZM359.71875 110.23828125 L359.71875 111.55078125 L358.59375 111.55078125 L358.59375 114.05078125 Q358.59375 114.81640625 358.625 114.94140625 Q358.65625 115.06640625 358.7734375 115.15234375 Q358.890625 115.23828125 359.046875 115.23828125 Q359.28125 115.23828125 359.703125 115.06640625 L359.84375 116.34765625 Q359.28125 116.59765625 358.546875 116.59765625 Q358.109375 116.59765625 357.75 116.44921875 Q357.390625 116.30078125 357.2265625 116.05859375 Q357.0625 115.81640625 356.984375 115.42578125 Q356.9375 115.12890625 356.9375 114.25390625 L356.9375 111.55078125 L356.1875 111.55078125 L356.1875 110.23828125 L356.9375 110.23828125 L356.9375 109.00390625 L358.59375 108.03515625 L358.59375 110.23828125 L359.71875 110.23828125 ZM364.46875 114.47265625 L366.109375 114.75390625 Q365.796875 115.66015625 365.109375 116.12890625 Q364.421875 116.59765625 363.40625 116.59765625 Q361.78125 116.59765625 361 115.53515625 Q360.375 114.69140625 360.375 113.39453125 Q360.375 111.84765625 361.1875 110.97265625 Q362 110.09765625 363.234375 110.09765625 Q364.625 110.09765625 365.4296875 111.01171875 Q366.234375 111.92578125 366.1875 113.81640625 L362.0625 113.81640625 Q362.09375 114.55078125 362.46875 114.95703125 Q362.84375 115.36328125 363.421875 115.36328125 Q363.796875 115.36328125 364.0625 115.15234375 Q364.328125 114.94140625 364.46875 114.47265625 ZM364.5625 112.81640625 Q364.546875 112.09765625 364.1953125 111.72265625 Q363.84375 111.34765625 363.328125 111.34765625 Q362.796875 111.34765625 362.4375 111.73828125 Q362.09375 112.14453125 362.09375 112.81640625 L364.5625 112.81640625 ZM367.859375 116.45703125 L367.859375 107.86328125 L369.515625 107.86328125 L369.515625 116.45703125 L367.859375 116.45703125 ZM376.515625 116.45703125 L374.875 116.45703125 L374.875 113.28515625 Q374.875 112.26953125 374.7734375 111.97265625 Q374.671875 111.67578125 374.4296875 111.51171875 Q374.1875 111.34765625 373.859375 111.34765625 Q373.421875 111.34765625 373.0859375 111.58203125 Q372.75 111.81640625 372.625 112.20703125 Q372.5 112.59765625 372.5 113.64453125 L372.5 116.45703125 L370.84375 116.45703125 L370.84375 110.23828125 L372.375 110.23828125 L372.375 111.14453125 Q373.1875 110.09765625 374.4375 110.09765625 Q374.96875 110.09765625 375.421875 110.29296875 Q375.875 110.48828125 376.109375 110.79296875 Q376.34375 111.09765625 376.4296875 111.48046875 Q376.515625 111.86328125 376.515625 112.58203125 L376.515625 116.45703125 Z" clip-path="url(#clipPath1)" stroke="none"/><path fill="black" d="M559.625 118.45703125 L557.734375 118.45703125 L556.984375 116.50390625 L553.546875 116.50390625 L552.84375 118.45703125 L551 118.45703125 L554.34375 109.86328125 L556.1875 109.86328125 L559.625 118.45703125 ZM556.421875 115.05078125 L555.25 111.86328125 L554.078125 115.05078125 L556.421875 115.05078125 ZM563.953125 118.45703125 L563.953125 117.51953125 Q563.625 118.01953125 563.0703125 118.30859375 Q562.515625 118.59765625 561.890625 118.59765625 Q561.265625 118.59765625 560.765625 118.32421875 Q560.265625 118.05078125 560.046875 117.55078125 Q559.828125 117.05078125 559.828125 116.17578125 L559.828125 112.23828125 L561.46875 112.23828125 L561.46875 115.09765625 Q561.46875 116.41015625 561.5625 116.70703125 Q561.65625 117.00390625 561.8984375 117.17578125 Q562.140625 117.34765625 562.5 117.34765625 Q562.921875 117.34765625 563.2578125 117.11328125 Q563.59375 116.87890625 563.71875 116.53515625 Q563.84375 116.19140625 563.84375 114.86328125 L563.84375 112.23828125 L565.484375 112.23828125 L565.484375 118.45703125 L563.953125 118.45703125 ZM566.28125 116.67578125 L567.9375 116.42578125 Q568.046875 116.91015625 568.3671875 117.16015625 Q568.6875 117.41015625 569.265625 117.41015625 Q569.90625 117.41015625 570.21875 117.17578125 Q570.4375 117.00390625 570.4375 116.73828125 Q570.4375 116.55078125 570.328125 116.42578125 Q570.203125 116.30078125 569.78125 116.20703125 Q567.78125 115.76953125 567.25 115.41015625 Q566.515625 114.89453125 566.515625 114.00390625 Q566.515625 113.19140625 567.1484375 112.64453125 Q567.78125 112.09765625 569.125 112.09765625 Q570.40625 112.09765625 571.03125 112.51171875 Q571.65625 112.92578125 571.890625 113.73828125 L570.328125 114.01953125 Q570.234375 113.66015625 569.953125 113.46484375 Q569.671875 113.26953125 569.15625 113.26953125 Q568.515625 113.26953125 568.234375 113.45703125 Q568.046875 113.58203125 568.046875 113.78515625 Q568.046875 113.97265625 568.203125 114.09765625 Q568.421875 114.25390625 569.7421875 114.55078125 Q571.0625 114.84765625 571.578125 115.28515625 Q572.09375 115.72265625 572.09375 116.50390625 Q572.09375 117.36328125 571.3828125 117.98046875 Q570.671875 118.59765625 569.265625 118.59765625 Q568 118.59765625 567.2578125 118.08203125 Q566.515625 117.56640625 566.28125 116.67578125 ZM575.015625 118.45703125 L573.046875 112.23828125 L574.65625 112.23828125 L575.8125 116.31640625 L576.890625 112.23828125 L578.484375 112.23828125 L579.515625 116.31640625 L580.703125 112.23828125 L582.328125 112.23828125 L580.328125 118.45703125 L578.75 118.45703125 L577.671875 114.45703125 L576.625 118.45703125 L575.015625 118.45703125 ZM585.09375 114.12890625 L583.59375 113.86328125 Q583.84375 112.95703125 584.4609375 112.52734375 Q585.078125 112.09765625 586.296875 112.09765625 Q587.390625 112.09765625 587.9296875 112.35546875 Q588.46875 112.61328125 588.6875 113.01171875 Q588.90625 113.41015625 588.90625 114.48828125 L588.890625 116.41015625 Q588.890625 117.23828125 588.96875 117.62109375 Q589.046875 118.00390625 589.265625 118.45703125 L587.640625 118.45703125 Q587.578125 118.28515625 587.484375 117.97265625 Q587.4375 117.81640625 587.421875 117.76953125 Q587 118.19140625 586.5234375 118.39453125 Q586.046875 118.59765625 585.5 118.59765625 Q584.53125 118.59765625 583.9765625 118.07421875 Q583.421875 117.55078125 583.421875 116.75390625 Q583.421875 116.22265625 583.6796875 115.81640625 Q583.9375 115.41015625 584.390625 115.18359375 Q584.84375 114.95703125 585.703125 114.80078125 Q586.84375 114.58203125 587.296875 114.39453125 L587.296875 114.23828125 Q587.296875 113.75390625 587.0625 113.55078125 Q586.828125 113.34765625 586.171875 113.34765625 Q585.734375 113.34765625 585.4921875 113.51953125 Q585.25 113.69140625 585.09375 114.12890625 ZM587.296875 115.47265625 Q586.984375 115.56640625 586.296875 115.71484375 Q585.609375 115.86328125 585.390625 116.00390625 Q585.078125 116.23828125 585.078125 116.58203125 Q585.078125 116.92578125 585.3359375 117.18359375 Q585.59375 117.44140625 585.984375 117.44140625 Q586.4375 117.44140625 586.84375 117.14453125 Q587.140625 116.92578125 587.234375 116.59765625 Q587.296875 116.39453125 587.296875 115.80078125 L587.296875 115.47265625 ZM584.0625 110.45703125 L584.0625 109.05078125 L585.46875 109.05078125 L585.46875 110.45703125 L584.0625 110.45703125 ZM586.578125 110.45703125 L586.578125 109.05078125 L588 109.05078125 L588 110.45703125 L586.578125 110.45703125 ZM592.4375 118.45703125 L590.796875 118.45703125 L590.796875 112.23828125 L592.328125 112.23828125 L592.328125 113.11328125 Q592.71875 112.48828125 593.03125 112.29296875 Q593.34375 112.09765625 593.734375 112.09765625 Q594.296875 112.09765625 594.828125 112.41015625 L594.3125 113.83203125 Q593.890625 113.56640625 593.546875 113.56640625 Q593.1875 113.56640625 592.953125 113.76171875 Q592.71875 113.95703125 592.578125 114.44921875 Q592.4375 114.94140625 592.4375 116.53515625 L592.4375 118.45703125 ZM598.71875 112.23828125 L598.71875 113.55078125 L597.59375 113.55078125 L597.59375 116.05078125 Q597.59375 116.81640625 597.625 116.94140625 Q597.65625 117.06640625 597.7734375 117.15234375 Q597.890625 117.23828125 598.046875 117.23828125 Q598.28125 117.23828125 598.703125 117.06640625 L598.84375 118.34765625 Q598.28125 118.59765625 597.546875 118.59765625 Q597.109375 118.59765625 596.75 118.44921875 Q596.390625 118.30078125 596.2265625 118.05859375 Q596.0625 117.81640625 595.984375 117.42578125 Q595.9375 117.12890625 595.9375 116.25390625 L595.9375 113.55078125 L595.1875 113.55078125 L595.1875 112.23828125 L595.9375 112.23828125 L595.9375 111.00390625 L597.59375 110.03515625 L597.59375 112.23828125 L598.71875 112.23828125 ZM599.859375 111.39453125 L599.859375 109.86328125 L601.515625 109.86328125 L601.515625 111.39453125 L599.859375 111.39453125 ZM599.859375 118.45703125 L599.859375 112.23828125 L601.515625 112.23828125 L601.515625 118.45703125 L599.859375 118.45703125 ZM602.703125 118.86328125 L604.59375 119.09765625 Q604.640625 119.42578125 604.8125 119.55078125 Q605.046875 119.72265625 605.546875 119.72265625 Q606.1875 119.72265625 606.515625 119.53515625 Q606.734375 119.39453125 606.84375 119.11328125 Q606.921875 118.91015625 606.921875 118.36328125 L606.921875 117.44140625 Q606.171875 118.45703125 605.046875 118.45703125 Q603.796875 118.45703125 603.0625 117.39453125 Q602.5 116.55078125 602.5 115.31640625 Q602.5 113.73828125 603.25 112.91796875 Q604 112.09765625 605.125 112.09765625 Q606.265625 112.09765625 607.015625 113.11328125 L607.015625 112.23828125 L608.5625 112.23828125 L608.5625 117.81640625 Q608.5625 118.92578125 608.3828125 119.46484375 Q608.203125 120.00390625 607.875 120.31640625 Q607.546875 120.62890625 607 120.80859375 Q606.453125 120.98828125 605.609375 120.98828125 Q604.03125 120.98828125 603.3671875 120.44140625 Q602.703125 119.89453125 602.703125 119.06640625 Q602.703125 118.98828125 602.703125 118.86328125 ZM604.1875 115.22265625 Q604.1875 116.20703125 604.5703125 116.66796875 Q604.953125 117.12890625 605.515625 117.12890625 Q606.109375 117.12890625 606.53125 116.65234375 Q606.953125 116.17578125 606.953125 115.25390625 Q606.953125 114.28515625 606.5546875 113.81640625 Q606.15625 113.34765625 605.546875 113.34765625 Q604.953125 113.34765625 604.5703125 113.80859375 Q604.1875 114.26953125 604.1875 115.22265625 ZM613.46875 116.47265625 L615.109375 116.75390625 Q614.796875 117.66015625 614.109375 118.12890625 Q613.421875 118.59765625 612.40625 118.59765625 Q610.78125 118.59765625 610 117.53515625 Q609.375 116.69140625 609.375 115.39453125 Q609.375 113.84765625 610.1875 112.97265625 Q611 112.09765625 612.234375 112.09765625 Q613.625 112.09765625 614.4296875 113.01171875 Q615.234375 113.92578125 615.1875 115.81640625 L611.0625 115.81640625 Q611.09375 116.55078125 611.46875 116.95703125 Q611.84375 117.36328125 612.421875 117.36328125 Q612.796875 117.36328125 613.0625 117.15234375 Q613.328125 116.94140625 613.46875 116.47265625 ZM613.5625 114.81640625 Q613.546875 114.09765625 613.1953125 113.72265625 Q612.84375 113.34765625 612.328125 113.34765625 Q611.796875 113.34765625 611.4375 113.73828125 Q611.09375 114.14453125 611.09375 114.81640625 L613.5625 114.81640625 Z" clip-path="url(#clipPath1)" stroke="none"/><path fill="black" d="M543.84375 133.45703125 L543.84375 124.86328125 L546.453125 124.86328125 L548 130.72265625 L549.546875 124.86328125 L552.140625 124.86328125 L552.140625 133.45703125 L550.53125 133.45703125 L550.53125 126.69140625 L548.828125 133.45703125 L547.15625 133.45703125 L545.46875 126.69140625 L545.46875 133.45703125 L543.84375 133.45703125 ZM557.46875 131.47265625 L559.109375 131.75390625 Q558.796875 132.66015625 558.109375 133.12890625 Q557.421875 133.59765625 556.40625 133.59765625 Q554.78125 133.59765625 554 132.53515625 Q553.375 131.69140625 553.375 130.39453125 Q553.375 128.84765625 554.1875 127.97265625 Q555 127.09765625 556.234375 127.09765625 Q557.625 127.09765625 558.4296875 128.01171875 Q559.234375 128.92578125 559.1875 130.81640625 L555.0625 130.81640625 Q555.09375 131.55078125 555.46875 131.95703125 Q555.84375 132.36328125 556.421875 132.36328125 Q556.796875 132.36328125 557.0625 132.15234375 Q557.328125 131.94140625 557.46875 131.47265625 ZM557.5625 129.81640625 Q557.546875 129.09765625 557.1953125 128.72265625 Q556.84375 128.34765625 556.328125 128.34765625 Q555.796875 128.34765625 555.4375 128.73828125 Q555.09375 129.14453125 555.09375 129.81640625 L557.5625 129.81640625 ZM560.859375 133.45703125 L560.859375 124.86328125 L562.515625 124.86328125 L562.515625 133.45703125 L560.859375 133.45703125 ZM569.5625 133.45703125 L568.046875 133.45703125 L568.046875 132.53515625 Q567.65625 133.08203125 567.140625 133.33984375 Q566.625 133.59765625 566.09375 133.59765625 Q565.015625 133.59765625 564.2578125 132.73046875 Q563.5 131.86328125 563.5 130.31640625 Q563.5 128.73828125 564.2421875 127.91796875 Q564.984375 127.09765625 566.125 127.09765625 Q567.15625 127.09765625 567.921875 127.95703125 L567.921875 124.86328125 L569.5625 124.86328125 L569.5625 133.45703125 ZM565.171875 130.20703125 Q565.171875 131.20703125 565.453125 131.64453125 Q565.84375 132.30078125 566.5625 132.30078125 Q567.125 132.30078125 567.5234375 131.81640625 Q567.921875 131.33203125 567.921875 130.36328125 Q567.921875 129.30078125 567.5390625 128.82421875 Q567.15625 128.34765625 566.546875 128.34765625 Q565.96875 128.34765625 565.5703125 128.81640625 Q565.171875 129.28515625 565.171875 130.20703125 ZM574.46875 131.47265625 L576.109375 131.75390625 Q575.796875 132.66015625 575.109375 133.12890625 Q574.421875 133.59765625 573.40625 133.59765625 Q571.78125 133.59765625 571 132.53515625 Q570.375 131.69140625 570.375 130.39453125 Q570.375 128.84765625 571.1875 127.97265625 Q572 127.09765625 573.234375 127.09765625 Q574.625 127.09765625 575.4296875 128.01171875 Q576.234375 128.92578125 576.1875 130.81640625 L572.0625 130.81640625 Q572.09375 131.55078125 572.46875 131.95703125 Q572.84375 132.36328125 573.421875 132.36328125 Q573.796875 132.36328125 574.0625 132.15234375 Q574.328125 131.94140625 574.46875 131.47265625 ZM574.5625 129.81640625 Q574.546875 129.09765625 574.1953125 128.72265625 Q573.84375 128.34765625 573.328125 128.34765625 Q572.796875 128.34765625 572.4375 128.73828125 Q572.09375 129.14453125 572.09375 129.81640625 L574.5625 129.81640625 ZM577.796875 133.45703125 L577.796875 124.86328125 L579.4375 124.86328125 L579.4375 127.95703125 Q580.203125 127.09765625 581.25 127.09765625 Q582.375 127.09765625 583.125 127.91796875 Q583.875 128.73828125 583.875 130.28515625 Q583.875 131.87890625 583.109375 132.73828125 Q582.34375 133.59765625 581.265625 133.59765625 Q580.734375 133.59765625 580.21875 133.33203125 Q579.703125 133.06640625 579.328125 132.53515625 L579.328125 133.45703125 L577.796875 133.45703125 ZM579.421875 130.20703125 Q579.421875 131.17578125 579.734375 131.64453125 Q580.15625 132.30078125 580.875 132.30078125 Q581.40625 132.30078125 581.796875 131.83203125 Q582.1875 131.36328125 582.1875 130.36328125 Q582.1875 129.30078125 581.796875 128.82421875 Q581.40625 128.34765625 580.796875 128.34765625 Q580.21875 128.34765625 579.8203125 128.80859375 Q579.421875 129.26953125 579.421875 130.20703125 ZM588.46875 131.47265625 L590.109375 131.75390625 Q589.796875 132.66015625 589.109375 133.12890625 Q588.421875 133.59765625 587.40625 133.59765625 Q585.78125 133.59765625 585 132.53515625 Q584.375 131.69140625 584.375 130.39453125 Q584.375 128.84765625 585.1875 127.97265625 Q586 127.09765625 587.234375 127.09765625 Q588.625 127.09765625 589.4296875 128.01171875 Q590.234375 128.92578125 590.1875 130.81640625 L586.0625 130.81640625 Q586.09375 131.55078125 586.46875 131.95703125 Q586.84375 132.36328125 587.421875 132.36328125 Q587.796875 132.36328125 588.0625 132.15234375 Q588.328125 131.94140625 588.46875 131.47265625 ZM588.5625 129.81640625 Q588.546875 129.09765625 588.1953125 128.72265625 Q587.84375 128.34765625 587.328125 128.34765625 Q586.796875 128.34765625 586.4375 128.73828125 Q586.09375 129.14453125 586.09375 129.81640625 L588.5625 129.81640625 ZM593.5 124.86328125 L593.5 128.01953125 Q594.296875 127.09765625 595.40625 127.09765625 Q595.96875 127.09765625 596.4296875 127.30859375 Q596.890625 127.51953125 597.125 127.84765625 Q597.359375 128.17578125 597.4375 128.57421875 Q597.515625 128.97265625 597.515625 129.80078125 L597.515625 133.45703125 L595.875 133.45703125 L595.875 130.17578125 Q595.875 129.19140625 595.78125 128.92578125 Q595.6875 128.66015625 595.453125 128.50390625 Q595.21875 128.34765625 594.859375 128.34765625 Q594.453125 128.34765625 594.125 128.55078125 Q593.796875 128.75390625 593.6484375 129.15234375 Q593.5 129.55078125 593.5 130.33203125 L593.5 133.45703125 L591.859375 133.45703125 L591.859375 124.86328125 L593.5 124.86328125 ZM598.484375 130.25390625 Q598.484375 129.44140625 598.890625 128.66796875 Q599.296875 127.89453125 600.03125 127.49609375 Q600.765625 127.09765625 601.6875 127.09765625 Q603.09375 127.09765625 604 128.01171875 Q604.90625 128.92578125 604.90625 130.33203125 Q604.90625 131.73828125 603.9921875 132.66796875 Q603.078125 133.59765625 601.703125 133.59765625 Q600.84375 133.59765625 600.0703125 133.20703125 Q599.296875 132.81640625 598.890625 132.07421875 Q598.484375 131.33203125 598.484375 130.25390625 ZM600.171875 130.34765625 Q600.171875 131.26953125 600.609375 131.76171875 Q601.046875 132.25390625 601.6875 132.25390625 Q602.34375 132.25390625 602.7734375 131.76171875 Q603.203125 131.26953125 603.203125 130.33203125 Q603.203125 129.42578125 602.7734375 128.93359375 Q602.34375 128.44140625 601.6875 128.44140625 Q601.046875 128.44140625 600.609375 128.93359375 Q600.171875 129.42578125 600.171875 130.34765625 ZM600.0625 125.45703125 L600.0625 124.05078125 L601.46875 124.05078125 L601.46875 125.45703125 L600.0625 125.45703125 ZM602.578125 125.45703125 L602.578125 124.05078125 L604 124.05078125 L604 125.45703125 L602.578125 125.45703125 ZM607.4375 133.45703125 L605.796875 133.45703125 L605.796875 127.23828125 L607.328125 127.23828125 L607.328125 128.11328125 Q607.71875 127.48828125 608.03125 127.29296875 Q608.34375 127.09765625 608.734375 127.09765625 Q609.296875 127.09765625 609.828125 127.41015625 L609.3125 128.83203125 Q608.890625 128.56640625 608.546875 128.56640625 Q608.1875 128.56640625 607.953125 128.76171875 Q607.71875 128.95703125 607.578125 129.44921875 Q607.4375 129.94140625 607.4375 131.53515625 L607.4375 133.45703125 ZM616.5625 133.45703125 L615.046875 133.45703125 L615.046875 132.53515625 Q614.65625 133.08203125 614.140625 133.33984375 Q613.625 133.59765625 613.09375 133.59765625 Q612.015625 133.59765625 611.2578125 132.73046875 Q610.5 131.86328125 610.5 130.31640625 Q610.5 128.73828125 611.2421875 127.91796875 Q611.984375 127.09765625 613.125 127.09765625 Q614.15625 127.09765625 614.921875 127.95703125 L614.921875 124.86328125 L616.5625 124.86328125 L616.5625 133.45703125 ZM612.171875 130.20703125 Q612.171875 131.20703125 612.453125 131.64453125 Q612.84375 132.30078125 613.5625 132.30078125 Q614.125 132.30078125 614.5234375 131.81640625 Q614.921875 131.33203125 614.921875 130.36328125 Q614.921875 129.30078125 614.5390625 128.82421875 Q614.15625 128.34765625 613.546875 128.34765625 Q612.96875 128.34765625 612.5703125 128.81640625 Q612.171875 129.28515625 612.171875 130.20703125 ZM621.46875 131.47265625 L623.109375 131.75390625 Q622.796875 132.66015625 622.109375 133.12890625 Q621.421875 133.59765625 620.40625 133.59765625 Q618.78125 133.59765625 618 132.53515625 Q617.375 131.69140625 617.375 130.39453125 Q617.375 128.84765625 618.1875 127.97265625 Q619 127.09765625 620.234375 127.09765625 Q621.625 127.09765625 622.4296875 128.01171875 Q623.234375 128.92578125 623.1875 130.81640625 L619.0625 130.81640625 Q619.09375 131.55078125 619.46875 131.95703125 Q619.84375 132.36328125 620.421875 132.36328125 Q620.796875 132.36328125 621.0625 132.15234375 Q621.328125 131.94140625 621.46875 131.47265625 ZM621.5625 129.81640625 Q621.546875 129.09765625 621.1953125 128.72265625 Q620.84375 128.34765625 620.328125 128.34765625 Q619.796875 128.34765625 619.4375 128.73828125 Q619.09375 129.14453125 619.09375 129.81640625 L621.5625 129.81640625 Z" clip-path="url(#clipPath1)" stroke="none"/><line clip-path="url(#clipPath1)" fill="none" x1="584" x2="584" y1="84" y2="96"/><line clip-path="url(#clipPath1)" fill="none" x1="568" x2="600" y1="90" y2="90"/><line clip-path="url(#clipPath1)" fill="none" x1="568" x2="584" y1="107" y2="96"/><line clip-path="url(#clipPath1)" fill="none" x1="600" x2="584" y1="107" y2="96"/><line clip-path="url(#clipPath1)" fill="none" x1="585" x2="585" y1="84" y2="97"/><line clip-path="url(#clipPath1)" fill="none" x1="569" x2="601" y1="91" y2="91"/><line clip-path="url(#clipPath1)" fill="none" x1="569" x2="585" y1="108" y2="97"/><line clip-path="url(#clipPath1)" fill="none" x1="601" x2="585" y1="108" y2="97"/><circle r="5.5" clip-path="url(#clipPath1)" cx="585.5" cy="80.5" stroke="none"/><circle clip-path="url(#clipPath1)" fill="url(#linearGradient2)" r="5.5" cx="583.5" cy="78.5" stroke="none"/><circle clip-path="url(#clipPath1)" fill="none" r="5.5" cx="583.5" cy="78.5" stroke="rgb(66,66,66)"/><line clip-path="url(#clipPath1)" fill="none" x1="583" x2="583" y1="84" y2="95" stroke="rgb(66,66,66)"/><line clip-path="url(#clipPath1)" fill="none" x1="567" x2="599" y1="89" y2="89" stroke="rgb(66,66,66)"/><line clip-path="url(#clipPath1)" fill="none" x1="567" x2="583" y1="106" y2="95" stroke="rgb(66,66,66)"/><line clip-path="url(#clipPath1)" fill="none" x1="599" x2="583" y1="106" y2="95" stroke="rgb(66,66,66)"/><path fill="black" d="M53.84375 126.45703125 L53.84375 117.86328125 L56.453125 117.86328125 L58 123.72265625 L59.546875 117.86328125 L62.140625 117.86328125 L62.140625 126.45703125 L60.53125 126.45703125 L60.53125 119.69140625 L58.828125 126.45703125 L57.15625 126.45703125 L55.46875 119.69140625 L55.46875 126.45703125 L53.84375 126.45703125 ZM67.46875 124.47265625 L69.109375 124.75390625 Q68.796875 125.66015625 68.109375 126.12890625 Q67.421875 126.59765625 66.40625 126.59765625 Q64.78125 126.59765625 64 125.53515625 Q63.375 124.69140625 63.375 123.39453125 Q63.375 121.84765625 64.1875 120.97265625 Q65 120.09765625 66.234375 120.09765625 Q67.625 120.09765625 68.4296875 121.01171875 Q69.234375 121.92578125 69.1875 123.81640625 L65.0625 123.81640625 Q65.09375 124.55078125 65.46875 124.95703125 Q65.84375 125.36328125 66.421875 125.36328125 Q66.796875 125.36328125 67.0625 125.15234375 Q67.328125 124.94140625 67.46875 124.47265625 ZM67.5625 122.81640625 Q67.546875 122.09765625 67.1953125 121.72265625 Q66.84375 121.34765625 66.328125 121.34765625 Q65.796875 121.34765625 65.4375 121.73828125 Q65.09375 122.14453125 65.09375 122.81640625 L67.5625 122.81640625 ZM70.859375 126.45703125 L70.859375 117.86328125 L72.515625 117.86328125 L72.515625 126.45703125 L70.859375 126.45703125 ZM79.5625 126.45703125 L78.046875 126.45703125 L78.046875 125.53515625 Q77.65625 126.08203125 77.140625 126.33984375 Q76.625 126.59765625 76.09375 126.59765625 Q75.015625 126.59765625 74.2578125 125.73046875 Q73.5 124.86328125 73.5 123.31640625 Q73.5 121.73828125 74.2421875 120.91796875 Q74.984375 120.09765625 76.125 120.09765625 Q77.15625 120.09765625 77.921875 120.95703125 L77.921875 117.86328125 L79.5625 117.86328125 L79.5625 126.45703125 ZM75.171875 123.20703125 Q75.171875 124.20703125 75.453125 124.64453125 Q75.84375 125.30078125 76.5625 125.30078125 Q77.125 125.30078125 77.5234375 124.81640625 Q77.921875 124.33203125 77.921875 123.36328125 Q77.921875 122.30078125 77.5390625 121.82421875 Q77.15625 121.34765625 76.546875 121.34765625 Q75.96875 121.34765625 75.5703125 121.81640625 Q75.171875 122.28515625 75.171875 123.20703125 ZM84.46875 124.47265625 L86.109375 124.75390625 Q85.796875 125.66015625 85.109375 126.12890625 Q84.421875 126.59765625 83.40625 126.59765625 Q81.78125 126.59765625 81 125.53515625 Q80.375 124.69140625 80.375 123.39453125 Q80.375 121.84765625 81.1875 120.97265625 Q82 120.09765625 83.234375 120.09765625 Q84.625 120.09765625 85.4296875 121.01171875 Q86.234375 121.92578125 86.1875 123.81640625 L82.0625 123.81640625 Q82.09375 124.55078125 82.46875 124.95703125 Q82.84375 125.36328125 83.421875 125.36328125 Q83.796875 125.36328125 84.0625 125.15234375 Q84.328125 124.94140625 84.46875 124.47265625 ZM84.5625 122.81640625 Q84.546875 122.09765625 84.1953125 121.72265625 Q83.84375 121.34765625 83.328125 121.34765625 Q82.796875 121.34765625 82.4375 121.73828125 Q82.09375 122.14453125 82.09375 122.81640625 L84.5625 122.81640625 ZM87.796875 126.45703125 L87.796875 117.86328125 L89.4375 117.86328125 L89.4375 120.95703125 Q90.203125 120.09765625 91.25 120.09765625 Q92.375 120.09765625 93.125 120.91796875 Q93.875 121.73828125 93.875 123.28515625 Q93.875 124.87890625 93.109375 125.73828125 Q92.34375 126.59765625 91.265625 126.59765625 Q90.734375 126.59765625 90.21875 126.33203125 Q89.703125 126.06640625 89.328125 125.53515625 L89.328125 126.45703125 L87.796875 126.45703125 ZM89.421875 123.20703125 Q89.421875 124.17578125 89.734375 124.64453125 Q90.15625 125.30078125 90.875 125.30078125 Q91.40625 125.30078125 91.796875 124.83203125 Q92.1875 124.36328125 92.1875 123.36328125 Q92.1875 122.30078125 91.796875 121.82421875 Q91.40625 121.34765625 90.796875 121.34765625 Q90.21875 121.34765625 89.8203125 121.80859375 Q89.421875 122.26953125 89.421875 123.20703125 ZM98.46875 124.47265625 L100.109375 124.75390625 Q99.796875 125.66015625 99.109375 126.12890625 Q98.421875 126.59765625 97.40625 126.59765625 Q95.78125 126.59765625 95 125.53515625 Q94.375 124.69140625 94.375 123.39453125 Q94.375 121.84765625 95.1875 120.97265625 Q96 120.09765625 97.234375 120.09765625 Q98.625 120.09765625 99.4296875 121.01171875 Q100.234375 121.92578125 100.1875 123.81640625 L96.0625 123.81640625 Q96.09375 124.55078125 96.46875 124.95703125 Q96.84375 125.36328125 97.421875 125.36328125 Q97.796875 125.36328125 98.0625 125.15234375 Q98.328125 124.94140625 98.46875 124.47265625 ZM98.5625 122.81640625 Q98.546875 122.09765625 98.1953125 121.72265625 Q97.84375 121.34765625 97.328125 121.34765625 Q96.796875 121.34765625 96.4375 121.73828125 Q96.09375 122.14453125 96.09375 122.81640625 L98.5625 122.81640625 ZM103.5 117.86328125 L103.5 121.01953125 Q104.296875 120.09765625 105.40625 120.09765625 Q105.96875 120.09765625 106.4296875 120.30859375 Q106.890625 120.51953125 107.125 120.84765625 Q107.359375 121.17578125 107.4375 121.57421875 Q107.515625 121.97265625 107.515625 122.80078125 L107.515625 126.45703125 L105.875 126.45703125 L105.875 123.17578125 Q105.875 122.19140625 105.78125 121.92578125 Q105.6875 121.66015625 105.453125 121.50390625 Q105.21875 121.34765625 104.859375 121.34765625 Q104.453125 121.34765625 104.125 121.55078125 Q103.796875 121.75390625 103.6484375 122.15234375 Q103.5 122.55078125 103.5 123.33203125 L103.5 126.45703125 L101.859375 126.45703125 L101.859375 117.86328125 L103.5 117.86328125 ZM108.484375 123.25390625 Q108.484375 122.44140625 108.890625 121.66796875 Q109.296875 120.89453125 110.03125 120.49609375 Q110.765625 120.09765625 111.6875 120.09765625 Q113.09375 120.09765625 114 121.01171875 Q114.90625 121.92578125 114.90625 123.33203125 Q114.90625 124.73828125 113.9921875 125.66796875 Q113.078125 126.59765625 111.703125 126.59765625 Q110.84375 126.59765625 110.0703125 126.20703125 Q109.296875 125.81640625 108.890625 125.07421875 Q108.484375 124.33203125 108.484375 123.25390625 ZM110.171875 123.34765625 Q110.171875 124.26953125 110.609375 124.76171875 Q111.046875 125.25390625 111.6875 125.25390625 Q112.34375 125.25390625 112.7734375 124.76171875 Q113.203125 124.26953125 113.203125 123.33203125 Q113.203125 122.42578125 112.7734375 121.93359375 Q112.34375 121.44140625 111.6875 121.44140625 Q111.046875 121.44140625 110.609375 121.93359375 Q110.171875 122.42578125 110.171875 123.34765625 ZM110.0625 118.45703125 L110.0625 117.05078125 L111.46875 117.05078125 L111.46875 118.45703125 L110.0625 118.45703125 ZM112.578125 118.45703125 L112.578125 117.05078125 L114 117.05078125 L114 118.45703125 L112.578125 118.45703125 ZM117.4375 126.45703125 L115.796875 126.45703125 L115.796875 120.23828125 L117.328125 120.23828125 L117.328125 121.11328125 Q117.71875 120.48828125 118.03125 120.29296875 Q118.34375 120.09765625 118.734375 120.09765625 Q119.296875 120.09765625 119.828125 120.41015625 L119.3125 121.83203125 Q118.890625 121.56640625 118.546875 121.56640625 Q118.1875 121.56640625 117.953125 121.76171875 Q117.71875 121.95703125 117.578125 122.44921875 Q117.4375 122.94140625 117.4375 124.53515625 L117.4375 126.45703125 ZM126.5625 126.45703125 L125.046875 126.45703125 L125.046875 125.53515625 Q124.65625 126.08203125 124.140625 126.33984375 Q123.625 126.59765625 123.09375 126.59765625 Q122.015625 126.59765625 121.2578125 125.73046875 Q120.5 124.86328125 120.5 123.31640625 Q120.5 121.73828125 121.2421875 120.91796875 Q121.984375 120.09765625 123.125 120.09765625 Q124.15625 120.09765625 124.921875 120.95703125 L124.921875 117.86328125 L126.5625 117.86328125 L126.5625 126.45703125 ZM122.171875 123.20703125 Q122.171875 124.20703125 122.453125 124.64453125 Q122.84375 125.30078125 123.5625 125.30078125 Q124.125 125.30078125 124.5234375 124.81640625 Q124.921875 124.33203125 124.921875 123.36328125 Q124.921875 122.30078125 124.5390625 121.82421875 Q124.15625 121.34765625 123.546875 121.34765625 Q122.96875 121.34765625 122.5703125 121.81640625 Q122.171875 122.28515625 122.171875 123.20703125 ZM131.46875 124.47265625 L133.109375 124.75390625 Q132.796875 125.66015625 132.109375 126.12890625 Q131.421875 126.59765625 130.40625 126.59765625 Q128.78125 126.59765625 128 125.53515625 Q127.375 124.69140625 127.375 123.39453125 Q127.375 121.84765625 128.1875 120.97265625 Q129 120.09765625 130.234375 120.09765625 Q131.625 120.09765625 132.4296875 121.01171875 Q133.234375 121.92578125 133.1875 123.81640625 L129.0625 123.81640625 Q129.09375 124.55078125 129.46875 124.95703125 Q129.84375 125.36328125 130.421875 125.36328125 Q130.796875 125.36328125 131.0625 125.15234375 Q131.328125 124.94140625 131.46875 124.47265625 ZM131.5625 122.81640625 Q131.546875 122.09765625 131.1953125 121.72265625 Q130.84375 121.34765625 130.328125 121.34765625 Q129.796875 121.34765625 129.4375 121.73828125 Q129.09375 122.14453125 129.09375 122.81640625 L131.5625 122.81640625 Z" clip-path="url(#clipPath1)" stroke="none"/><line clip-path="url(#clipPath1)" fill="none" x1="94" x2="94" y1="92" y2="104"/><line clip-path="url(#clipPath1)" fill="none" x1="78" x2="110" y1="98" y2="98"/><line clip-path="url(#clipPath1)" fill="none" x1="78" x2="94" y1="115" y2="104"/><line clip-path="url(#clipPath1)" fill="none" x1="110" x2="94" y1="115" y2="104"/><line clip-path="url(#clipPath1)" fill="none" x1="95" x2="95" y1="92" y2="105"/><line clip-path="url(#clipPath1)" fill="none" x1="79" x2="111" y1="99" y2="99"/><line clip-path="url(#clipPath1)" fill="none" x1="79" x2="95" y1="116" y2="105"/><line clip-path="url(#clipPath1)" fill="none" x1="111" x2="95" y1="116" y2="105"/><circle r="5.5" clip-path="url(#clipPath1)" cx="95.5" cy="88.5" stroke="none"/><circle clip-path="url(#clipPath1)" fill="url(#linearGradient3)" r="5.5" cx="93.5" cy="86.5" stroke="none"/><circle clip-path="url(#clipPath1)" fill="none" r="5.5" cx="93.5" cy="86.5" stroke="rgb(66,66,66)"/><line clip-path="url(#clipPath1)" fill="none" x1="93" x2="93" y1="92" y2="103" stroke="rgb(66,66,66)"/><line clip-path="url(#clipPath1)" fill="none" x1="77" x2="109" y1="97" y2="97" stroke="rgb(66,66,66)"/><line clip-path="url(#clipPath1)" fill="none" x1="77" x2="93" y1="114" y2="103" stroke="rgb(66,66,66)"/><line clip-path="url(#clipPath1)" fill="none" x1="109" x2="93" y1="114" y2="103" stroke="rgb(66,66,66)"/></g><g stroke-linecap="butt" fill="rgb(66,66,66)" text-rendering="optimizeLegibility" stroke-linejoin="round" shape-rendering="geometricPrecision" stroke="rgb(66,66,66)"><path fill="none" d="M240 105 L110 105" clip-path="url(#clipPath1)"/><path fill="none" d="M567 105 L450 105" clip-path="url(#clipPath1)"/></g></g></svg>