<?xml version="1.0" encoding="UTF-8"?><svg xmlns="http://www.w3.org/2000/svg" xmlns:xlink="http://www.w3.org/1999/xlink" fill-opacity="1" color-rendering="auto" color-interpolation="auto" stroke="black" text-rendering="auto" stroke-linecap="square" width="5.395833333333333in" stroke-miterlimit="10" stroke-opacity="1" shape-rendering="auto" fill="black" stroke-dasharray="none" font-weight="normal" stroke-width="1" viewBox="0 0 518 103" height="1.0729166666666667in" font-family="'Arial'" font-style="normal" stroke-linejoin="miter" font-size="12" stroke-dashoffset="0" image-rendering="auto" preserveAspectRatio="xMidYMid meet" zoomAndPan="magnify" version="1.0" contentScriptType="text/ecmascript" contentStyleType="text/css"><!--Generated by the Batik Graphics2D SVG Generator
 This is MagicDraw diagram.--><defs id="genericDefs"/><g><defs id="defs1"><linearGradient x1="200" gradientUnits="userSpaceOnUse" x2="400" y1="50" y2="96" id="linearGradient1" spreadMethod="pad" xlink:type="simple" xlink:show="other" xlink:actuate="onLoad"><stop stop-opacity="1" stop-color="rgb(255,255,102)" offset="0%"/><stop stop-opacity="1" stop-color="rgb(255,255,145)" offset="100%"/></linearGradient><linearGradient x1="83" gradientUnits="userSpaceOnUse" x2="116" y1="52" y2="85" id="linearGradient2" spreadMethod="pad" xlink:type="simple" xlink:show="other" xlink:actuate="onLoad"><stop stop-opacity="1" stop-color="rgb(255,204,153)" offset="0%"/><stop stop-opacity="1" stop-color="rgb(255,255,218)" offset="100%"/></linearGradient><linearGradient x1="487" gradientUnits="userSpaceOnUse" x2="520" y1="52" y2="85" id="linearGradient3" spreadMethod="pad" xlink:type="simple" xlink:show="other" xlink:actuate="onLoad"><stop stop-opacity="1" stop-color="rgb(255,204,153)" offset="0%"/><stop stop-opacity="1" stop-color="rgb(255,255,218)" offset="100%"/></linearGradient><clipPath clipPathUnits="userSpaceOnUse" id="clipPath1"><path d="M0 -5 L558 -5 L558 143 L0 143 L0 -5 Z"/></clipPath><clipPath clipPathUnits="userSpaceOnUse" id="clipPath2"><path d="M40 35 L598 35 L598 183 L40 183 L40 35 Z"/></clipPath></defs><g fill="white" stroke="white"><rect x="0" width="558" height="148" y="-5" clip-path="url(#clipPath1)" stroke="none"/><ellipse transform="translate(-40,-40)" clip-path="url(#clipPath2)" fill="rgb(178,178,178)" text-rendering="geometricPrecision" rx="100" cx="303" ry="23" cy="76" stroke="none"/><ellipse transform="translate(-40,-40)" clip-path="url(#clipPath2)" fill="url(#linearGradient1)" text-rendering="geometricPrecision" rx="100" cx="300" ry="23" cy="73" stroke="none"/></g><g fill="rgb(66,66,66)" text-rendering="geometricPrecision" transform="translate(-40,-40)" stroke-linejoin="round" stroke-linecap="butt" stroke="rgb(66,66,66)"><ellipse rx="100" fill="none" ry="23" clip-path="url(#clipPath2)" cx="300" cy="73"/><path fill="black" d="M261.8594 60.8633 L263.5938 60.8633 L263.5938 65.5195 Q263.5938 66.6289 263.6562 66.957 Q263.7656 67.4883 264.1875 67.8008 Q264.6094 68.1133 265.3438 68.1133 Q266.0781 68.1133 266.4531 67.8164 Q266.8281 67.5195 266.9062 67.082 Q266.9844 66.6445 266.9844 65.6133 L266.9844 60.8633 L268.7188 60.8633 L268.7188 65.3789 Q268.7188 66.9258 268.5781 67.5664 Q268.4375 68.207 268.0547 68.6445 Q267.6719 69.082 267.0391 69.3398 Q266.4062 69.5977 265.3906 69.5977 Q264.1562 69.5977 263.5234 69.3164 Q262.8906 69.0352 262.5234 68.582 Q262.1562 68.1289 262.0312 67.6289 Q261.8594 66.8945 261.8594 65.4414 L261.8594 60.8633 ZM263.0625 59.457 L263.0625 58.0508 L264.4688 58.0508 L264.4688 59.457 L263.0625 59.457 ZM265.5781 59.457 L265.5781 58.0508 L267 58.0508 L267 59.457 L265.5781 59.457 ZM269.7969 69.457 L269.7969 60.8633 L271.4375 60.8633 L271.4375 63.957 Q272.2031 63.0977 273.25 63.0977 Q274.375 63.0977 275.125 63.918 Q275.875 64.7383 275.875 66.2852 Q275.875 67.8789 275.1094 68.7383 Q274.3438 69.5977 273.2656 69.5977 Q272.7344 69.5977 272.2188 69.332 Q271.7031 69.0664 271.3281 68.5352 L271.3281 69.457 L269.7969 69.457 ZM271.4219 66.207 Q271.4219 67.1758 271.7344 67.6445 Q272.1562 68.3008 272.875 68.3008 Q273.4062 68.3008 273.7969 67.832 Q274.1875 67.3633 274.1875 66.3633 Q274.1875 65.3008 273.7969 64.8242 Q273.4062 64.3477 272.7969 64.3477 Q272.2188 64.3477 271.8203 64.8086 Q271.4219 65.2695 271.4219 66.207 ZM280.4688 67.4727 L282.1094 67.7539 Q281.7969 68.6602 281.1094 69.1289 Q280.4219 69.5977 279.4062 69.5977 Q277.7812 69.5977 277 68.5352 Q276.375 67.6914 276.375 66.3945 Q276.375 64.8477 277.1875 63.9727 Q278 63.0977 279.2344 63.0977 Q280.625 63.0977 281.4297 64.0117 Q282.2344 64.9258 282.1875 66.8164 L278.0625 66.8164 Q278.0938 67.5508 278.4688 67.957 Q278.8438 68.3633 279.4219 68.3633 Q279.7969 68.3633 280.0625 68.1523 Q280.3281 67.9414 280.4688 67.4727 ZM280.5625 65.8164 Q280.5469 65.0977 280.1953 64.7227 Q279.8438 64.3477 279.3281 64.3477 Q278.7969 64.3477 278.4375 64.7383 Q278.0938 65.1445 278.0938 65.8164 L280.5625 65.8164 ZM285.4375 69.457 L283.7969 69.457 L283.7969 63.2383 L285.3281 63.2383 L285.3281 64.1133 Q285.7188 63.4883 286.0312 63.293 Q286.3438 63.0977 286.7344 63.0977 Q287.2969 63.0977 287.8281 63.4102 L287.3125 64.832 Q286.8906 64.5664 286.5469 64.5664 Q286.1875 64.5664 285.9531 64.7617 Q285.7188 64.957 285.5781 65.4492 Q285.4375 65.9414 285.4375 67.5352 L285.4375 69.457 ZM288.7344 63.2383 L290.25 63.2383 L290.25 64.082 Q291.0781 63.0977 292.2031 63.0977 Q292.7969 63.0977 293.2344 63.3398 Q293.6719 63.582 293.9531 64.082 Q294.3594 63.582 294.8359 63.3398 Q295.3125 63.0977 295.8594 63.0977 Q296.5312 63.0977 297.0078 63.3711 Q297.4844 63.6445 297.7188 64.1914 Q297.8906 64.582 297.8906 65.4727 L297.8906 69.457 L296.25 69.457 L296.25 65.8945 Q296.25 64.9727 296.0781 64.707 Q295.8438 64.3477 295.375 64.3477 Q295.0312 64.3477 294.7266 64.5586 Q294.4219 64.7695 294.2812 65.1758 Q294.1406 65.582 294.1406 66.4727 L294.1406 69.457 L292.5 69.457 L292.5 66.0508 Q292.5 65.1445 292.4141 64.8789 Q292.3281 64.6133 292.1406 64.4805 Q291.9531 64.3477 291.6406 64.3477 Q291.2656 64.3477 290.9609 64.5586 Q290.6562 64.7695 290.5234 65.1523 Q290.3906 65.5352 290.3906 66.4258 L290.3906 69.457 L288.7344 69.457 L288.7344 63.2383 ZM299.8594 62.3945 L299.8594 60.8633 L301.5156 60.8633 L301.5156 62.3945 L299.8594 62.3945 ZM299.8594 69.457 L299.8594 63.2383 L301.5156 63.2383 L301.5156 69.457 L299.8594 69.457 ZM305.7188 63.2383 L305.7188 64.5508 L304.5938 64.5508 L304.5938 67.0508 Q304.5938 67.8164 304.625 67.9414 Q304.6562 68.0664 304.7734 68.1523 Q304.8906 68.2383 305.0469 68.2383 Q305.2812 68.2383 305.7031 68.0664 L305.8438 69.3477 Q305.2812 69.5977 304.5469 69.5977 Q304.1094 69.5977 303.75 69.4492 Q303.3906 69.3008 303.2266 69.0586 Q303.0625 68.8164 302.9844 68.4258 Q302.9375 68.1289 302.9375 67.2539 L302.9375 64.5508 L302.1875 64.5508 L302.1875 63.2383 L302.9375 63.2383 L302.9375 62.0039 L304.5938 61.0352 L304.5938 63.2383 L305.7188 63.2383 ZM309.7188 63.2383 L309.7188 64.5508 L308.5938 64.5508 L308.5938 67.0508 Q308.5938 67.8164 308.625 67.9414 Q308.6562 68.0664 308.7734 68.1523 Q308.8906 68.2383 309.0469 68.2383 Q309.2812 68.2383 309.7031 68.0664 L309.8438 69.3477 Q309.2812 69.5977 308.5469 69.5977 Q308.1094 69.5977 307.75 69.4492 Q307.3906 69.3008 307.2266 69.0586 Q307.0625 68.8164 306.9844 68.4258 Q306.9375 68.1289 306.9375 67.2539 L306.9375 64.5508 L306.1875 64.5508 L306.1875 63.2383 L306.9375 63.2383 L306.9375 62.0039 L308.5938 61.0352 L308.5938 63.2383 L309.7188 63.2383 ZM310.8594 69.457 L310.8594 60.8633 L312.5156 60.8633 L312.5156 69.457 L310.8594 69.457 ZM317.9531 69.457 L317.9531 68.5195 Q317.625 69.0195 317.0703 69.3086 Q316.5156 69.5977 315.8906 69.5977 Q315.2656 69.5977 314.7656 69.3242 Q314.2656 69.0508 314.0469 68.5508 Q313.8281 68.0508 313.8281 67.1758 L313.8281 63.2383 L315.4688 63.2383 L315.4688 66.0977 Q315.4688 67.4102 315.5625 67.707 Q315.6562 68.0039 315.8984 68.1758 Q316.1406 68.3477 316.5 68.3477 Q316.9219 68.3477 317.2578 68.1133 Q317.5938 67.8789 317.7188 67.5352 Q317.8438 67.1914 317.8438 65.8633 L317.8438 63.2383 L319.4844 63.2383 L319.4844 69.457 L317.9531 69.457 ZM326.5156 69.457 L324.875 69.457 L324.875 66.2852 Q324.875 65.2695 324.7734 64.9727 Q324.6719 64.6758 324.4297 64.5117 Q324.1875 64.3477 323.8594 64.3477 Q323.4219 64.3477 323.0859 64.582 Q322.75 64.8164 322.625 65.207 Q322.5 65.5977 322.5 66.6445 L322.5 69.457 L320.8438 69.457 L320.8438 63.2383 L322.375 63.2383 L322.375 64.1445 Q323.1875 63.0977 324.4375 63.0977 Q324.9688 63.0977 325.4219 63.293 Q325.875 63.4883 326.1094 63.793 Q326.3438 64.0977 326.4297 64.4805 Q326.5156 64.8633 326.5156 65.582 L326.5156 69.457 ZM327.7031 69.8633 L329.5938 70.0977 Q329.6406 70.4258 329.8125 70.5508 Q330.0469 70.7227 330.5469 70.7227 Q331.1875 70.7227 331.5156 70.5352 Q331.7344 70.3945 331.8438 70.1133 Q331.9219 69.9102 331.9219 69.3633 L331.9219 68.4414 Q331.1719 69.457 330.0469 69.457 Q328.7969 69.457 328.0625 68.3945 Q327.5 67.5508 327.5 66.3164 Q327.5 64.7383 328.25 63.918 Q329 63.0977 330.125 63.0977 Q331.2656 63.0977 332.0156 64.1133 L332.0156 63.2383 L333.5625 63.2383 L333.5625 68.8164 Q333.5625 69.9258 333.3828 70.4648 Q333.2031 71.0039 332.875 71.3164 Q332.5469 71.6289 332 71.8086 Q331.4531 71.9883 330.6094 71.9883 Q329.0312 71.9883 328.3672 71.4414 Q327.7031 70.8945 327.7031 70.0664 Q327.7031 69.9883 327.7031 69.8633 ZM329.1875 66.2227 Q329.1875 67.207 329.5703 67.668 Q329.9531 68.1289 330.5156 68.1289 Q331.1094 68.1289 331.5312 67.6523 Q331.9531 67.1758 331.9531 66.2539 Q331.9531 65.2852 331.5547 64.8164 Q331.1562 64.3477 330.5469 64.3477 Q329.9531 64.3477 329.5703 64.8086 Q329.1875 65.2695 329.1875 66.2227 ZM338.4688 67.4727 L340.1094 67.7539 Q339.7969 68.6602 339.1094 69.1289 Q338.4219 69.5977 337.4062 69.5977 Q335.7812 69.5977 335 68.5352 Q334.375 67.6914 334.375 66.3945 Q334.375 64.8477 335.1875 63.9727 Q336 63.0977 337.2344 63.0977 Q338.625 63.0977 339.4297 64.0117 Q340.2344 64.9258 340.1875 66.8164 L336.0625 66.8164 Q336.0938 67.5508 336.4688 67.957 Q336.8438 68.3633 337.4219 68.3633 Q337.7969 68.3633 338.0625 68.1523 Q338.3281 67.9414 338.4688 67.4727 ZM338.5625 65.8164 Q338.5469 65.0977 338.1953 64.7227 Q337.8438 64.3477 337.3281 64.3477 Q336.7969 64.3477 336.4375 64.7383 Q336.0938 65.1445 336.0938 65.8164 L338.5625 65.8164 ZM347.5156 69.457 L345.875 69.457 L345.875 66.2852 Q345.875 65.2695 345.7734 64.9727 Q345.6719 64.6758 345.4297 64.5117 Q345.1875 64.3477 344.8594 64.3477 Q344.4219 64.3477 344.0859 64.582 Q343.75 64.8164 343.625 65.207 Q343.5 65.5977 343.5 66.6445 L343.5 69.457 L341.8438 69.457 L341.8438 63.2383 L343.375 63.2383 L343.375 64.1445 Q344.1875 63.0977 345.4375 63.0977 Q345.9688 63.0977 346.4219 63.293 Q346.875 63.4883 347.1094 63.793 Q347.3438 64.0977 347.4297 64.4805 Q347.5156 64.8633 347.5156 65.582 L347.5156 69.457 Z" clip-path="url(#clipPath2)" stroke="none"/><path fill="black" d="M238.5781 84.457 L236.0625 78.2383 L237.7969 78.2383 L238.9688 81.4102 L239.3125 82.4727 Q239.4375 82.0664 239.4688 81.9414 Q239.5625 81.6758 239.6562 81.4102 L240.8281 78.2383 L242.5312 78.2383 L240.0625 84.457 L238.5781 84.457 ZM242.4844 81.2539 Q242.4844 80.4414 242.8906 79.668 Q243.2969 78.8945 244.0312 78.4961 Q244.7656 78.0977 245.6875 78.0977 Q247.0938 78.0977 248 79.0117 Q248.9062 79.9258 248.9062 81.332 Q248.9062 82.7383 247.9922 83.668 Q247.0781 84.5977 245.7031 84.5977 Q244.8438 84.5977 244.0703 84.207 Q243.2969 83.8164 242.8906 83.0742 Q242.4844 82.332 242.4844 81.2539 ZM244.1719 81.3477 Q244.1719 82.2695 244.6094 82.7617 Q245.0469 83.2539 245.6875 83.2539 Q246.3438 83.2539 246.7734 82.7617 Q247.2031 82.2695 247.2031 81.332 Q247.2031 80.4258 246.7734 79.9336 Q246.3438 79.4414 245.6875 79.4414 Q245.0469 79.4414 244.6094 79.9336 Q244.1719 80.4258 244.1719 81.3477 ZM255.5156 84.457 L253.875 84.457 L253.875 81.2852 Q253.875 80.2695 253.7734 79.9727 Q253.6719 79.6758 253.4297 79.5117 Q253.1875 79.3477 252.8594 79.3477 Q252.4219 79.3477 252.0859 79.582 Q251.75 79.8164 251.625 80.207 Q251.5 80.5977 251.5 81.6445 L251.5 84.457 L249.8438 84.457 L249.8438 78.2383 L251.375 78.2383 L251.375 79.1445 Q252.1875 78.0977 253.4375 78.0977 Q253.9688 78.0977 254.4219 78.293 Q254.875 78.4883 255.1094 78.793 Q255.3438 79.0977 255.4297 79.4805 Q255.5156 79.8633 255.5156 80.582 L255.5156 84.457 ZM259.875 84.457 L259.875 75.8633 L261.6094 75.8633 L261.6094 79.2539 L265.0156 79.2539 L265.0156 75.8633 L266.75 75.8633 L266.75 84.457 L265.0156 84.457 L265.0156 80.707 L261.6094 80.707 L261.6094 84.457 L259.875 84.457 ZM267.8594 77.3945 L267.8594 75.8633 L269.5156 75.8633 L269.5156 77.3945 L267.8594 77.3945 ZM267.8594 84.457 L267.8594 78.2383 L269.5156 78.2383 L269.5156 84.457 L267.8594 84.457 ZM276.5156 84.457 L274.875 84.457 L274.875 81.2852 Q274.875 80.2695 274.7734 79.9727 Q274.6719 79.6758 274.4297 79.5117 Q274.1875 79.3477 273.8594 79.3477 Q273.4219 79.3477 273.0859 79.582 Q272.75 79.8164 272.625 80.207 Q272.5 80.5977 272.5 81.6445 L272.5 84.457 L270.8438 84.457 L270.8438 78.2383 L272.375 78.2383 L272.375 79.1445 Q273.1875 78.0977 274.4375 78.0977 Q274.9688 78.0977 275.4219 78.293 Q275.875 78.4883 276.1094 78.793 Q276.3438 79.0977 276.4297 79.4805 Q276.5156 79.8633 276.5156 80.582 L276.5156 84.457 ZM279.0156 84.457 L277.0469 78.2383 L278.6562 78.2383 L279.8125 82.3164 L280.8906 78.2383 L282.4844 78.2383 L283.5156 82.3164 L284.7031 78.2383 L286.3281 78.2383 L284.3281 84.457 L282.75 84.457 L281.6719 80.457 L280.625 84.457 L279.0156 84.457 ZM291.4688 82.4727 L293.1094 82.7539 Q292.7969 83.6602 292.1094 84.1289 Q291.4219 84.5977 290.4062 84.5977 Q288.7812 84.5977 288 83.5352 Q287.375 82.6914 287.375 81.3945 Q287.375 79.8477 288.1875 78.9727 Q289 78.0977 290.2344 78.0977 Q291.625 78.0977 292.4297 79.0117 Q293.2344 79.9258 293.1875 81.8164 L289.0625 81.8164 Q289.0938 82.5508 289.4688 82.957 Q289.8438 83.3633 290.4219 83.3633 Q290.7969 83.3633 291.0625 83.1523 Q291.3281 82.9414 291.4688 82.4727 ZM291.5625 80.8164 Q291.5469 80.0977 291.1953 79.7227 Q290.8438 79.3477 290.3281 79.3477 Q289.7969 79.3477 289.4375 79.7383 Q289.0938 80.1445 289.0938 80.8164 L291.5625 80.8164 ZM294.8594 77.3945 L294.8594 75.8633 L296.5156 75.8633 L296.5156 77.3945 L294.8594 77.3945 ZM294.8594 84.457 L294.8594 78.2383 L296.5156 78.2383 L296.5156 84.457 L294.8594 84.457 ZM297.2812 82.6758 L298.9375 82.4258 Q299.0469 82.9102 299.3672 83.1602 Q299.6875 83.4102 300.2656 83.4102 Q300.9062 83.4102 301.2188 83.1758 Q301.4375 83.0039 301.4375 82.7383 Q301.4375 82.5508 301.3281 82.4258 Q301.2031 82.3008 300.7812 82.207 Q298.7812 81.7695 298.25 81.4102 Q297.5156 80.8945 297.5156 80.0039 Q297.5156 79.1914 298.1484 78.6445 Q298.7812 78.0977 300.125 78.0977 Q301.4062 78.0977 302.0312 78.5117 Q302.6562 78.9258 302.8906 79.7383 L301.3281 80.0195 Q301.2344 79.6602 300.9531 79.4648 Q300.6719 79.2695 300.1562 79.2695 Q299.5156 79.2695 299.2344 79.457 Q299.0469 79.582 299.0469 79.7852 Q299.0469 79.9727 299.2031 80.0977 Q299.4219 80.2539 300.7422 80.5508 Q302.0625 80.8477 302.5781 81.2852 Q303.0938 81.7227 303.0938 82.5039 Q303.0938 83.3633 302.3828 83.9805 Q301.6719 84.5977 300.2656 84.5977 Q299 84.5977 298.2578 84.082 Q297.5156 83.5664 297.2812 82.6758 ZM310.5156 84.457 L308.875 84.457 L308.875 81.2852 Q308.875 80.2695 308.7734 79.9727 Q308.6719 79.6758 308.4297 79.5117 Q308.1875 79.3477 307.8594 79.3477 Q307.4219 79.3477 307.0859 79.582 Q306.75 79.8164 306.625 80.207 Q306.5 80.5977 306.5 81.6445 L306.5 84.457 L304.8438 84.457 L304.8438 78.2383 L306.375 78.2383 L306.375 79.1445 Q307.1875 78.0977 308.4375 78.0977 Q308.9688 78.0977 309.4219 78.293 Q309.875 78.4883 310.1094 78.793 Q310.3438 79.0977 310.4297 79.4805 Q310.5156 79.8633 310.5156 80.582 L310.5156 84.457 ZM313.0938 80.1289 L311.5938 79.8633 Q311.8438 78.957 312.4609 78.5273 Q313.0781 78.0977 314.2969 78.0977 Q315.3906 78.0977 315.9297 78.3555 Q316.4688 78.6133 316.6875 79.0117 Q316.9062 79.4102 316.9062 80.4883 L316.8906 82.4102 Q316.8906 83.2383 316.9688 83.6211 Q317.0469 84.0039 317.2656 84.457 L315.6406 84.457 Q315.5781 84.2852 315.4844 83.9727 Q315.4375 83.8164 315.4219 83.7695 Q315 84.1914 314.5234 84.3945 Q314.0469 84.5977 313.5 84.5977 Q312.5312 84.5977 311.9766 84.0742 Q311.4219 83.5508 311.4219 82.7539 Q311.4219 82.2227 311.6797 81.8164 Q311.9375 81.4102 312.3906 81.1836 Q312.8438 80.957 313.7031 80.8008 Q314.8438 80.582 315.2969 80.3945 L315.2969 80.2383 Q315.2969 79.7539 315.0625 79.5508 Q314.8281 79.3477 314.1719 79.3477 Q313.7344 79.3477 313.4922 79.5195 Q313.25 79.6914 313.0938 80.1289 ZM315.2969 81.4727 Q314.9844 81.5664 314.2969 81.7148 Q313.6094 81.8633 313.3906 82.0039 Q313.0781 82.2383 313.0781 82.582 Q313.0781 82.9258 313.3359 83.1836 Q313.5938 83.4414 313.9844 83.4414 Q314.4375 83.4414 314.8438 83.1445 Q315.1406 82.9258 315.2344 82.5977 Q315.2969 82.3945 315.2969 81.8008 L315.2969 81.4727 ZM324.2812 80.0664 L322.6719 80.3633 Q322.5781 79.8789 322.2891 79.6367 Q322 79.3945 321.5469 79.3945 Q320.9219 79.3945 320.5547 79.8164 Q320.1875 80.2383 320.1875 81.2383 Q320.1875 82.3477 320.5625 82.8008 Q320.9375 83.2539 321.5625 83.2539 Q322.0312 83.2539 322.3281 82.9883 Q322.625 82.7227 322.75 82.0664 L324.375 82.3477 Q324.125 83.457 323.4062 84.0273 Q322.6875 84.5977 321.4844 84.5977 Q320.125 84.5977 319.3125 83.7383 Q318.5 82.8789 318.5 81.3477 Q318.5 79.8164 319.3125 78.957 Q320.125 78.0977 321.5156 78.0977 Q322.6562 78.0977 323.3281 78.582 Q324 79.0664 324.2812 80.0664 ZM327.5 75.8633 L327.5 79.0195 Q328.2969 78.0977 329.4062 78.0977 Q329.9688 78.0977 330.4297 78.3086 Q330.8906 78.5195 331.125 78.8477 Q331.3594 79.1758 331.4375 79.5742 Q331.5156 79.9727 331.5156 80.8008 L331.5156 84.457 L329.875 84.457 L329.875 81.1758 Q329.875 80.1914 329.7812 79.9258 Q329.6875 79.6602 329.4531 79.5039 Q329.2188 79.3477 328.8594 79.3477 Q328.4531 79.3477 328.125 79.5508 Q327.7969 79.7539 327.6484 80.1523 Q327.5 80.5508 327.5 81.332 L327.5 84.457 L325.8594 84.457 L325.8594 75.8633 L327.5 75.8633 ZM334.4375 84.457 L332.7969 84.457 L332.7969 78.2383 L334.3281 78.2383 L334.3281 79.1133 Q334.7188 78.4883 335.0312 78.293 Q335.3438 78.0977 335.7344 78.0977 Q336.2969 78.0977 336.8281 78.4102 L336.3125 79.832 Q335.8906 79.5664 335.5469 79.5664 Q335.1875 79.5664 334.9531 79.7617 Q334.7188 79.957 334.5781 80.4492 Q334.4375 80.9414 334.4375 82.5352 L334.4375 84.457 ZM337.8594 77.3945 L337.8594 75.8633 L339.5156 75.8633 L339.5156 77.3945 L337.8594 77.3945 ZM337.8594 84.457 L337.8594 78.2383 L339.5156 78.2383 L339.5156 84.457 L337.8594 84.457 ZM346.2812 80.0664 L344.6719 80.3633 Q344.5781 79.8789 344.2891 79.6367 Q344 79.3945 343.5469 79.3945 Q342.9219 79.3945 342.5547 79.8164 Q342.1875 80.2383 342.1875 81.2383 Q342.1875 82.3477 342.5625 82.8008 Q342.9375 83.2539 343.5625 83.2539 Q344.0312 83.2539 344.3281 82.9883 Q344.625 82.7227 344.75 82.0664 L346.375 82.3477 Q346.125 83.457 345.4062 84.0273 Q344.6875 84.5977 343.4844 84.5977 Q342.125 84.5977 341.3125 83.7383 Q340.5 82.8789 340.5 81.3477 Q340.5 79.8164 341.3125 78.957 Q342.125 78.0977 343.5156 78.0977 Q344.6562 78.0977 345.3281 78.582 Q346 79.0664 346.2812 80.0664 ZM349.5 75.8633 L349.5 79.0195 Q350.2969 78.0977 351.4062 78.0977 Q351.9688 78.0977 352.4297 78.3086 Q352.8906 78.5195 353.125 78.8477 Q353.3594 79.1758 353.4375 79.5742 Q353.5156 79.9727 353.5156 80.8008 L353.5156 84.457 L351.875 84.457 L351.875 81.1758 Q351.875 80.1914 351.7812 79.9258 Q351.6875 79.6602 351.4531 79.5039 Q351.2188 79.3477 350.8594 79.3477 Q350.4531 79.3477 350.125 79.5508 Q349.7969 79.7539 349.6484 80.1523 Q349.5 80.5508 349.5 81.332 L349.5 84.457 L347.8594 84.457 L347.8594 75.8633 L349.5 75.8633 ZM357.7188 78.2383 L357.7188 79.5508 L356.5938 79.5508 L356.5938 82.0508 Q356.5938 82.8164 356.625 82.9414 Q356.6562 83.0664 356.7734 83.1523 Q356.8906 83.2383 357.0469 83.2383 Q357.2812 83.2383 357.7031 83.0664 L357.8438 84.3477 Q357.2812 84.5977 356.5469 84.5977 Q356.1094 84.5977 355.75 84.4492 Q355.3906 84.3008 355.2266 84.0586 Q355.0625 83.8164 354.9844 83.4258 Q354.9375 83.1289 354.9375 82.2539 L354.9375 79.5508 L354.1875 79.5508 L354.1875 78.2383 L354.9375 78.2383 L354.9375 77.0039 L356.5938 76.0352 L356.5938 78.2383 L357.7188 78.2383 ZM362.4688 82.4727 L364.1094 82.7539 Q363.7969 83.6602 363.1094 84.1289 Q362.4219 84.5977 361.4062 84.5977 Q359.7812 84.5977 359 83.5352 Q358.375 82.6914 358.375 81.3945 Q358.375 79.8477 359.1875 78.9727 Q360 78.0977 361.2344 78.0977 Q362.625 78.0977 363.4297 79.0117 Q364.2344 79.9258 364.1875 81.8164 L360.0625 81.8164 Q360.0938 82.5508 360.4688 82.957 Q360.8438 83.3633 361.4219 83.3633 Q361.7969 83.3633 362.0625 83.1523 Q362.3281 82.9414 362.4688 82.4727 ZM362.5625 80.8164 Q362.5469 80.0977 362.1953 79.7227 Q361.8438 79.3477 361.3281 79.3477 Q360.7969 79.3477 360.4375 79.7383 Q360.0938 80.1445 360.0938 80.8164 L362.5625 80.8164 ZM371.5156 84.457 L369.875 84.457 L369.875 81.2852 Q369.875 80.2695 369.7734 79.9727 Q369.6719 79.6758 369.4297 79.5117 Q369.1875 79.3477 368.8594 79.3477 Q368.4219 79.3477 368.0859 79.582 Q367.75 79.8164 367.625 80.207 Q367.5 80.5977 367.5 81.6445 L367.5 84.457 L365.8438 84.457 L365.8438 78.2383 L367.375 78.2383 L367.375 79.1445 Q368.1875 78.0977 369.4375 78.0977 Q369.9688 78.0977 370.4219 78.293 Q370.875 78.4883 371.1094 78.793 Q371.3438 79.0977 371.4297 79.4805 Q371.5156 79.8633 371.5156 80.582 L371.5156 84.457 Z" clip-path="url(#clipPath2)" stroke="none"/><path fill="black" d="M61.625 97.457 L59.7344 97.457 L58.9844 95.5039 L55.5469 95.5039 L54.8438 97.457 L53 97.457 L56.3438 88.8633 L58.1875 88.8633 L61.625 97.457 ZM58.4219 94.0508 L57.25 90.8633 L56.0781 94.0508 L58.4219 94.0508 ZM67.5156 97.457 L65.875 97.457 L65.875 94.2852 Q65.875 93.2695 65.7734 92.9727 Q65.6719 92.6758 65.4297 92.5117 Q65.1875 92.3477 64.8594 92.3477 Q64.4219 92.3477 64.0859 92.582 Q63.75 92.8164 63.625 93.207 Q63.5 93.5977 63.5 94.6445 L63.5 97.457 L61.8438 97.457 L61.8438 91.2383 L63.375 91.2383 L63.375 92.1445 Q64.1875 91.0977 65.4375 91.0977 Q65.9688 91.0977 66.4219 91.293 Q66.875 91.4883 67.1094 91.793 Q67.3438 92.0977 67.4297 92.4805 Q67.5156 92.8633 67.5156 93.582 L67.5156 97.457 ZM74.5625 97.457 L73.0469 97.457 L73.0469 96.5352 Q72.6562 97.082 72.1406 97.3398 Q71.625 97.5977 71.0938 97.5977 Q70.0156 97.5977 69.2578 96.7305 Q68.5 95.8633 68.5 94.3164 Q68.5 92.7383 69.2422 91.918 Q69.9844 91.0977 71.125 91.0977 Q72.1562 91.0977 72.9219 91.957 L72.9219 88.8633 L74.5625 88.8633 L74.5625 97.457 ZM70.1719 94.207 Q70.1719 95.207 70.4531 95.6445 Q70.8438 96.3008 71.5625 96.3008 Q72.125 96.3008 72.5234 95.8164 Q72.9219 95.332 72.9219 94.3633 Q72.9219 93.3008 72.5391 92.8242 Q72.1562 92.3477 71.5469 92.3477 Q70.9688 92.3477 70.5703 92.8164 Q70.1719 93.2852 70.1719 94.207 ZM79.4688 95.4727 L81.1094 95.7539 Q80.7969 96.6602 80.1094 97.1289 Q79.4219 97.5977 78.4062 97.5977 Q76.7812 97.5977 76 96.5352 Q75.375 95.6914 75.375 94.3945 Q75.375 92.8477 76.1875 91.9727 Q77 91.0977 78.2344 91.0977 Q79.625 91.0977 80.4297 92.0117 Q81.2344 92.9258 81.1875 94.8164 L77.0625 94.8164 Q77.0938 95.5508 77.4688 95.957 Q77.8438 96.3633 78.4219 96.3633 Q78.7969 96.3633 79.0625 96.1523 Q79.3281 95.9414 79.4688 95.4727 ZM79.5625 93.8164 Q79.5469 93.0977 79.1953 92.7227 Q78.8438 92.3477 78.3281 92.3477 Q77.7969 92.3477 77.4375 92.7383 Q77.0938 93.1445 77.0938 93.8164 L79.5625 93.8164 ZM84.4375 97.457 L82.7969 97.457 L82.7969 91.2383 L84.3281 91.2383 L84.3281 92.1133 Q84.7188 91.4883 85.0312 91.293 Q85.3438 91.0977 85.7344 91.0977 Q86.2969 91.0977 86.8281 91.4102 L86.3125 92.832 Q85.8906 92.5664 85.5469 92.5664 Q85.1875 92.5664 84.9531 92.7617 Q84.7188 92.957 84.5781 93.4492 Q84.4375 93.9414 84.4375 95.5352 L84.4375 97.457 ZM91.4688 95.4727 L93.1094 95.7539 Q92.7969 96.6602 92.1094 97.1289 Q91.4219 97.5977 90.4062 97.5977 Q88.7812 97.5977 88 96.5352 Q87.375 95.6914 87.375 94.3945 Q87.375 92.8477 88.1875 91.9727 Q89 91.0977 90.2344 91.0977 Q91.625 91.0977 92.4297 92.0117 Q93.2344 92.9258 93.1875 94.8164 L89.0625 94.8164 Q89.0938 95.5508 89.4688 95.957 Q89.8438 96.3633 90.4219 96.3633 Q90.7969 96.3633 91.0625 96.1523 Q91.3281 95.9414 91.4688 95.4727 ZM91.5625 93.8164 Q91.5469 93.0977 91.1953 92.7227 Q90.8438 92.3477 90.3281 92.3477 Q89.7969 92.3477 89.4375 92.7383 Q89.0938 93.1445 89.0938 93.8164 L91.5625 93.8164 ZM97.875 88.8633 L101.3125 88.8633 Q102.3281 88.8633 102.8281 88.9492 Q103.3281 89.0352 103.7266 89.3086 Q104.125 89.582 104.3906 90.0273 Q104.6562 90.4727 104.6562 91.0352 Q104.6562 91.6289 104.3281 92.1367 Q104 92.6445 103.4531 92.8945 Q104.2344 93.1133 104.6562 93.668 Q105.0781 94.2227 105.0781 94.9727 Q105.0781 95.5508 104.8047 96.1055 Q104.5312 96.6602 104.0625 96.9883 Q103.5938 97.3164 102.8906 97.3945 Q102.4688 97.4414 100.7969 97.457 L97.875 97.457 L97.875 88.8633 ZM99.6094 90.3008 L99.6094 92.2852 L100.75 92.2852 Q101.7656 92.2852 102.0156 92.2539 Q102.4531 92.207 102.7109 91.9492 Q102.9688 91.6914 102.9688 91.2695 Q102.9688 90.8789 102.75 90.6289 Q102.5312 90.3789 102.0938 90.332 Q101.8281 90.3008 100.6094 90.3008 L99.6094 90.3008 ZM99.6094 93.707 L99.6094 96.0039 L101.2188 96.0039 Q102.1562 96.0039 102.4062 95.957 Q102.7969 95.8789 103.0391 95.6133 Q103.2812 95.3477 103.2812 94.8789 Q103.2812 94.5039 103.0938 94.2305 Q102.9062 93.957 102.5547 93.832 Q102.2031 93.707 101.0156 93.707 L99.6094 93.707 ZM109.4688 95.4727 L111.1094 95.7539 Q110.7969 96.6602 110.1094 97.1289 Q109.4219 97.5977 108.4062 97.5977 Q106.7812 97.5977 106 96.5352 Q105.375 95.6914 105.375 94.3945 Q105.375 92.8477 106.1875 91.9727 Q107 91.0977 108.2344 91.0977 Q109.625 91.0977 110.4297 92.0117 Q111.2344 92.9258 111.1875 94.8164 L107.0625 94.8164 Q107.0938 95.5508 107.4688 95.957 Q107.8438 96.3633 108.4219 96.3633 Q108.7969 96.3633 109.0625 96.1523 Q109.3281 95.9414 109.4688 95.4727 ZM109.5625 93.8164 Q109.5469 93.0977 109.1953 92.7227 Q108.8438 92.3477 108.3281 92.3477 Q107.7969 92.3477 107.4375 92.7383 Q107.0938 93.1445 107.0938 93.8164 L109.5625 93.8164 ZM114.5 88.8633 L114.5 92.0195 Q115.2969 91.0977 116.4062 91.0977 Q116.9688 91.0977 117.4297 91.3086 Q117.8906 91.5195 118.125 91.8477 Q118.3594 92.1758 118.4375 92.5742 Q118.5156 92.9727 118.5156 93.8008 L118.5156 97.457 L116.875 97.457 L116.875 94.1758 Q116.875 93.1914 116.7812 92.9258 Q116.6875 92.6602 116.4531 92.5039 Q116.2188 92.3477 115.8594 92.3477 Q115.4531 92.3477 115.125 92.5508 Q114.7969 92.7539 114.6484 93.1523 Q114.5 93.5508 114.5 94.332 L114.5 97.457 L112.8594 97.457 L112.8594 88.8633 L114.5 88.8633 ZM119.4844 94.2539 Q119.4844 93.4414 119.8906 92.668 Q120.2969 91.8945 121.0312 91.4961 Q121.7656 91.0977 122.6875 91.0977 Q124.0938 91.0977 125 92.0117 Q125.9062 92.9258 125.9062 94.332 Q125.9062 95.7383 124.9922 96.668 Q124.0781 97.5977 122.7031 97.5977 Q121.8438 97.5977 121.0703 97.207 Q120.2969 96.8164 119.8906 96.0742 Q119.4844 95.332 119.4844 94.2539 ZM121.1719 94.3477 Q121.1719 95.2695 121.6094 95.7617 Q122.0469 96.2539 122.6875 96.2539 Q123.3438 96.2539 123.7734 95.7617 Q124.2031 95.2695 124.2031 94.332 Q124.2031 93.4258 123.7734 92.9336 Q123.3438 92.4414 122.6875 92.4414 Q122.0469 92.4414 121.6094 92.9336 Q121.1719 93.4258 121.1719 94.3477 ZM121.0625 89.457 L121.0625 88.0508 L122.4688 88.0508 L122.4688 89.457 L121.0625 89.457 ZM123.5781 89.457 L123.5781 88.0508 L125 88.0508 L125 89.457 L123.5781 89.457 ZM128.4375 97.457 L126.7969 97.457 L126.7969 91.2383 L128.3281 91.2383 L128.3281 92.1133 Q128.7188 91.4883 129.0312 91.293 Q129.3438 91.0977 129.7344 91.0977 Q130.2969 91.0977 130.8281 91.4102 L130.3125 92.832 Q129.8906 92.5664 129.5469 92.5664 Q129.1875 92.5664 128.9531 92.7617 Q128.7188 92.957 128.5781 93.4492 Q128.4375 93.9414 128.4375 95.5352 L128.4375 97.457 ZM137.5625 97.457 L136.0469 97.457 L136.0469 96.5352 Q135.6562 97.082 135.1406 97.3398 Q134.625 97.5977 134.0938 97.5977 Q133.0156 97.5977 132.2578 96.7305 Q131.5 95.8633 131.5 94.3164 Q131.5 92.7383 132.2422 91.918 Q132.9844 91.0977 134.125 91.0977 Q135.1562 91.0977 135.9219 91.957 L135.9219 88.8633 L137.5625 88.8633 L137.5625 97.457 ZM133.1719 94.207 Q133.1719 95.207 133.4531 95.6445 Q133.8438 96.3008 134.5625 96.3008 Q135.125 96.3008 135.5234 95.8164 Q135.9219 95.332 135.9219 94.3633 Q135.9219 93.3008 135.5391 92.8242 Q135.1562 92.3477 134.5469 92.3477 Q133.9688 92.3477 133.5703 92.8164 Q133.1719 93.2852 133.1719 94.207 ZM142.4688 95.4727 L144.1094 95.7539 Q143.7969 96.6602 143.1094 97.1289 Q142.4219 97.5977 141.4062 97.5977 Q139.7812 97.5977 139 96.5352 Q138.375 95.6914 138.375 94.3945 Q138.375 92.8477 139.1875 91.9727 Q140 91.0977 141.2344 91.0977 Q142.625 91.0977 143.4297 92.0117 Q144.2344 92.9258 144.1875 94.8164 L140.0625 94.8164 Q140.0938 95.5508 140.4688 95.957 Q140.8438 96.3633 141.4219 96.3633 Q141.7969 96.3633 142.0625 96.1523 Q142.3281 95.9414 142.4688 95.4727 ZM142.5625 93.8164 Q142.5469 93.0977 142.1953 92.7227 Q141.8438 92.3477 141.3281 92.3477 Q140.7969 92.3477 140.4375 92.7383 Q140.0938 93.1445 140.0938 93.8164 L142.5625 93.8164 Z" clip-path="url(#clipPath2)" stroke="none"/><path fill="black" d="M86.4844 109.2539 Q86.4844 108.4414 86.8906 107.668 Q87.2969 106.8945 88.0312 106.4961 Q88.7656 106.0977 89.6875 106.0977 Q91.0938 106.0977 92 107.0117 Q92.9062 107.9258 92.9062 109.332 Q92.9062 110.7383 91.9922 111.668 Q91.0781 112.5977 89.7031 112.5977 Q88.8438 112.5977 88.0703 112.207 Q87.2969 111.8164 86.8906 111.0742 Q86.4844 110.332 86.4844 109.2539 ZM88.1719 109.3477 Q88.1719 110.2695 88.6094 110.7617 Q89.0469 111.2539 89.6875 111.2539 Q90.3438 111.2539 90.7734 110.7617 Q91.2031 110.2695 91.2031 109.332 Q91.2031 108.4258 90.7734 107.9336 Q90.3438 107.4414 89.6875 107.4414 Q89.0469 107.4414 88.6094 107.9336 Q88.1719 108.4258 88.1719 109.3477 ZM99.5625 112.457 L98.0469 112.457 L98.0469 111.5352 Q97.6562 112.082 97.1406 112.3398 Q96.625 112.5977 96.0938 112.5977 Q95.0156 112.5977 94.2578 111.7305 Q93.5 110.8633 93.5 109.3164 Q93.5 107.7383 94.2422 106.918 Q94.9844 106.0977 96.125 106.0977 Q97.1562 106.0977 97.9219 106.957 L97.9219 103.8633 L99.5625 103.8633 L99.5625 112.457 ZM95.1719 109.207 Q95.1719 110.207 95.4531 110.6445 Q95.8438 111.3008 96.5625 111.3008 Q97.125 111.3008 97.5234 110.8164 Q97.9219 110.332 97.9219 109.3633 Q97.9219 108.3008 97.5391 107.8242 Q97.1562 107.3477 96.5469 107.3477 Q95.9688 107.3477 95.5703 107.8164 Q95.1719 108.2852 95.1719 109.207 ZM104.4688 110.4727 L106.1094 110.7539 Q105.7969 111.6602 105.1094 112.1289 Q104.4219 112.5977 103.4062 112.5977 Q101.7812 112.5977 101 111.5352 Q100.375 110.6914 100.375 109.3945 Q100.375 107.8477 101.1875 106.9727 Q102 106.0977 103.2344 106.0977 Q104.625 106.0977 105.4297 107.0117 Q106.2344 107.9258 106.1875 109.8164 L102.0625 109.8164 Q102.0938 110.5508 102.4688 110.957 Q102.8438 111.3633 103.4219 111.3633 Q103.7969 111.3633 104.0625 111.1523 Q104.3281 110.9414 104.4688 110.4727 ZM104.5625 108.8164 Q104.5469 108.0977 104.1953 107.7227 Q103.8438 107.3477 103.3281 107.3477 Q102.7969 107.3477 102.4375 107.7383 Q102.0938 108.1445 102.0938 108.8164 L104.5625 108.8164 ZM109.4375 112.457 L107.7969 112.457 L107.7969 106.2383 L109.3281 106.2383 L109.3281 107.1133 Q109.7188 106.4883 110.0312 106.293 Q110.3438 106.0977 110.7344 106.0977 Q111.2969 106.0977 111.8281 106.4102 L111.3125 107.832 Q110.8906 107.5664 110.5469 107.5664 Q110.1875 107.5664 109.9531 107.7617 Q109.7188 107.957 109.5781 108.4492 Q109.4375 108.9414 109.4375 110.5352 L109.4375 112.457 Z" clip-path="url(#clipPath2)" stroke="none"/><path fill="black" d="M59.8438 127.457 L59.8438 118.8633 L62.4531 118.8633 L64 124.7227 L65.5469 118.8633 L68.1406 118.8633 L68.1406 127.457 L66.5312 127.457 L66.5312 120.6914 L64.8281 127.457 L63.1562 127.457 L61.4688 120.6914 L61.4688 127.457 L59.8438 127.457 ZM73.4688 125.4727 L75.1094 125.7539 Q74.7969 126.6602 74.1094 127.1289 Q73.4219 127.5977 72.4062 127.5977 Q70.7812 127.5977 70 126.5352 Q69.375 125.6914 69.375 124.3945 Q69.375 122.8477 70.1875 121.9727 Q71 121.0977 72.2344 121.0977 Q73.625 121.0977 74.4297 122.0117 Q75.2344 122.9258 75.1875 124.8164 L71.0625 124.8164 Q71.0938 125.5508 71.4688 125.957 Q71.8438 126.3633 72.4219 126.3633 Q72.7969 126.3633 73.0625 126.1523 Q73.3281 125.9414 73.4688 125.4727 ZM73.5625 123.8164 Q73.5469 123.0977 73.1953 122.7227 Q72.8438 122.3477 72.3281 122.3477 Q71.7969 122.3477 71.4375 122.7383 Q71.0938 123.1445 71.0938 123.8164 L73.5625 123.8164 ZM76.8594 127.457 L76.8594 118.8633 L78.5156 118.8633 L78.5156 127.457 L76.8594 127.457 ZM85.5625 127.457 L84.0469 127.457 L84.0469 126.5352 Q83.6562 127.082 83.1406 127.3398 Q82.625 127.5977 82.0938 127.5977 Q81.0156 127.5977 80.2578 126.7305 Q79.5 125.8633 79.5 124.3164 Q79.5 122.7383 80.2422 121.918 Q80.9844 121.0977 82.125 121.0977 Q83.1562 121.0977 83.9219 121.957 L83.9219 118.8633 L85.5625 118.8633 L85.5625 127.457 ZM81.1719 124.207 Q81.1719 125.207 81.4531 125.6445 Q81.8438 126.3008 82.5625 126.3008 Q83.125 126.3008 83.5234 125.8164 Q83.9219 125.332 83.9219 124.3633 Q83.9219 123.3008 83.5391 122.8242 Q83.1562 122.3477 82.5469 122.3477 Q81.9688 122.3477 81.5703 122.8164 Q81.1719 123.2852 81.1719 124.207 ZM90.4688 125.4727 L92.1094 125.7539 Q91.7969 126.6602 91.1094 127.1289 Q90.4219 127.5977 89.4062 127.5977 Q87.7812 127.5977 87 126.5352 Q86.375 125.6914 86.375 124.3945 Q86.375 122.8477 87.1875 121.9727 Q88 121.0977 89.2344 121.0977 Q90.625 121.0977 91.4297 122.0117 Q92.2344 122.9258 92.1875 124.8164 L88.0625 124.8164 Q88.0938 125.5508 88.4688 125.957 Q88.8438 126.3633 89.4219 126.3633 Q89.7969 126.3633 90.0625 126.1523 Q90.3281 125.9414 90.4688 125.4727 ZM90.5625 123.8164 Q90.5469 123.0977 90.1953 122.7227 Q89.8438 122.3477 89.3281 122.3477 Q88.7969 122.3477 88.4375 122.7383 Q88.0938 123.1445 88.0938 123.8164 L90.5625 123.8164 ZM93.7969 127.457 L93.7969 118.8633 L95.4375 118.8633 L95.4375 121.957 Q96.2031 121.0977 97.25 121.0977 Q98.375 121.0977 99.125 121.918 Q99.875 122.7383 99.875 124.2852 Q99.875 125.8789 99.1094 126.7383 Q98.3438 127.5977 97.2656 127.5977 Q96.7344 127.5977 96.2188 127.332 Q95.7031 127.0664 95.3281 126.5352 L95.3281 127.457 L93.7969 127.457 ZM95.4219 124.207 Q95.4219 125.1758 95.7344 125.6445 Q96.1562 126.3008 96.875 126.3008 Q97.4062 126.3008 97.7969 125.832 Q98.1875 125.3633 98.1875 124.3633 Q98.1875 123.3008 97.7969 122.8242 Q97.4062 122.3477 96.7969 122.3477 Q96.2188 122.3477 95.8203 122.8086 Q95.4219 123.2695 95.4219 124.207 ZM104.4688 125.4727 L106.1094 125.7539 Q105.7969 126.6602 105.1094 127.1289 Q104.4219 127.5977 103.4062 127.5977 Q101.7812 127.5977 101 126.5352 Q100.375 125.6914 100.375 124.3945 Q100.375 122.8477 101.1875 121.9727 Q102 121.0977 103.2344 121.0977 Q104.625 121.0977 105.4297 122.0117 Q106.2344 122.9258 106.1875 124.8164 L102.0625 124.8164 Q102.0938 125.5508 102.4688 125.957 Q102.8438 126.3633 103.4219 126.3633 Q103.7969 126.3633 104.0625 126.1523 Q104.3281 125.9414 104.4688 125.4727 ZM104.5625 123.8164 Q104.5469 123.0977 104.1953 122.7227 Q103.8438 122.3477 103.3281 122.3477 Q102.7969 122.3477 102.4375 122.7383 Q102.0938 123.1445 102.0938 123.8164 L104.5625 123.8164 ZM109.5 118.8633 L109.5 122.0195 Q110.2969 121.0977 111.4062 121.0977 Q111.9688 121.0977 112.4297 121.3086 Q112.8906 121.5195 113.125 121.8477 Q113.3594 122.1758 113.4375 122.5742 Q113.5156 122.9727 113.5156 123.8008 L113.5156 127.457 L111.875 127.457 L111.875 124.1758 Q111.875 123.1914 111.7812 122.9258 Q111.6875 122.6602 111.4531 122.5039 Q111.2188 122.3477 110.8594 122.3477 Q110.4531 122.3477 110.125 122.5508 Q109.7969 122.7539 109.6484 123.1523 Q109.5 123.5508 109.5 124.332 L109.5 127.457 L107.8594 127.457 L107.8594 118.8633 L109.5 118.8633 ZM114.4844 124.2539 Q114.4844 123.4414 114.8906 122.668 Q115.2969 121.8945 116.0312 121.4961 Q116.7656 121.0977 117.6875 121.0977 Q119.0938 121.0977 120 122.0117 Q120.9062 122.9258 120.9062 124.332 Q120.9062 125.7383 119.9922 126.668 Q119.0781 127.5977 117.7031 127.5977 Q116.8438 127.5977 116.0703 127.207 Q115.2969 126.8164 114.8906 126.0742 Q114.4844 125.332 114.4844 124.2539 ZM116.1719 124.3477 Q116.1719 125.2695 116.6094 125.7617 Q117.0469 126.2539 117.6875 126.2539 Q118.3438 126.2539 118.7734 125.7617 Q119.2031 125.2695 119.2031 124.332 Q119.2031 123.4258 118.7734 122.9336 Q118.3438 122.4414 117.6875 122.4414 Q117.0469 122.4414 116.6094 122.9336 Q116.1719 123.4258 116.1719 124.3477 ZM116.0625 119.457 L116.0625 118.0508 L117.4688 118.0508 L117.4688 119.457 L116.0625 119.457 ZM118.5781 119.457 L118.5781 118.0508 L120 118.0508 L120 119.457 L118.5781 119.457 ZM123.4375 127.457 L121.7969 127.457 L121.7969 121.2383 L123.3281 121.2383 L123.3281 122.1133 Q123.7188 121.4883 124.0312 121.293 Q124.3438 121.0977 124.7344 121.0977 Q125.2969 121.0977 125.8281 121.4102 L125.3125 122.832 Q124.8906 122.5664 124.5469 122.5664 Q124.1875 122.5664 123.9531 122.7617 Q123.7188 122.957 123.5781 123.4492 Q123.4375 123.9414 123.4375 125.5352 L123.4375 127.457 ZM132.5625 127.457 L131.0469 127.457 L131.0469 126.5352 Q130.6562 127.082 130.1406 127.3398 Q129.625 127.5977 129.0938 127.5977 Q128.0156 127.5977 127.2578 126.7305 Q126.5 125.8633 126.5 124.3164 Q126.5 122.7383 127.2422 121.918 Q127.9844 121.0977 129.125 121.0977 Q130.1562 121.0977 130.9219 121.957 L130.9219 118.8633 L132.5625 118.8633 L132.5625 127.457 ZM128.1719 124.207 Q128.1719 125.207 128.4531 125.6445 Q128.8438 126.3008 129.5625 126.3008 Q130.125 126.3008 130.5234 125.8164 Q130.9219 125.332 130.9219 124.3633 Q130.9219 123.3008 130.5391 122.8242 Q130.1562 122.3477 129.5469 122.3477 Q128.9688 122.3477 128.5703 122.8164 Q128.1719 123.2852 128.1719 124.207 ZM137.4688 125.4727 L139.1094 125.7539 Q138.7969 126.6602 138.1094 127.1289 Q137.4219 127.5977 136.4062 127.5977 Q134.7812 127.5977 134 126.5352 Q133.375 125.6914 133.375 124.3945 Q133.375 122.8477 134.1875 121.9727 Q135 121.0977 136.2344 121.0977 Q137.625 121.0977 138.4297 122.0117 Q139.2344 122.9258 139.1875 124.8164 L135.0625 124.8164 Q135.0938 125.5508 135.4688 125.957 Q135.8438 126.3633 136.4219 126.3633 Q136.7969 126.3633 137.0625 126.1523 Q137.3281 125.9414 137.4688 125.4727 ZM137.5625 123.8164 Q137.5469 123.0977 137.1953 122.7227 Q136.8438 122.3477 136.3281 122.3477 Q135.7969 122.3477 135.4375 122.7383 Q135.0938 123.1445 135.0938 123.8164 L137.5625 123.8164 Z" clip-path="url(#clipPath2)" stroke="none"/><line clip-path="url(#clipPath2)" fill="none" x1="100" x2="100" y1="63" y2="75" stroke="rgb(178,178,178)"/><line clip-path="url(#clipPath2)" fill="none" x1="84" x2="116" y1="69" y2="69" stroke="rgb(178,178,178)"/><line clip-path="url(#clipPath2)" fill="none" x1="84" x2="100" y1="86" y2="75" stroke="rgb(178,178,178)"/><line clip-path="url(#clipPath2)" fill="none" x1="116" x2="100" y1="86" y2="75" stroke="rgb(178,178,178)"/><line clip-path="url(#clipPath2)" fill="none" x1="101" x2="101" y1="63" y2="76" stroke="rgb(178,178,178)"/><line clip-path="url(#clipPath2)" fill="none" x1="85" x2="117" y1="70" y2="70" stroke="rgb(178,178,178)"/><line clip-path="url(#clipPath2)" fill="none" x1="85" x2="101" y1="87" y2="76" stroke="rgb(178,178,178)"/><line clip-path="url(#clipPath2)" fill="none" x1="117" x2="101" y1="87" y2="76" stroke="rgb(178,178,178)"/><circle fill="rgb(178,178,178)" r="5.5" clip-path="url(#clipPath2)" cx="101.5" cy="59.5" stroke="none"/><circle fill="url(#linearGradient2)" r="5.5" clip-path="url(#clipPath2)" cx="99.5" cy="57.5" stroke="none"/><circle fill="none" r="5.5" clip-path="url(#clipPath2)" cx="99.5" cy="57.5"/><line y2="74" fill="none" x1="99" clip-path="url(#clipPath2)" x2="99" y1="63"/><line y2="68" fill="none" x1="83" clip-path="url(#clipPath2)" x2="115" y1="68"/><line y2="74" fill="none" x1="83" clip-path="url(#clipPath2)" x2="99" y1="85"/><line y2="74" fill="none" x1="115" clip-path="url(#clipPath2)" x2="99" y1="85"/><path fill="black" d="M463.8438 97.457 L463.8438 88.8633 L466.4531 88.8633 L468 94.7227 L469.5469 88.8633 L472.1406 88.8633 L472.1406 97.457 L470.5312 97.457 L470.5312 90.6914 L468.8281 97.457 L467.1562 97.457 L465.4688 90.6914 L465.4688 97.457 L463.8438 97.457 ZM477.4688 95.4727 L479.1094 95.7539 Q478.7969 96.6602 478.1094 97.1289 Q477.4219 97.5977 476.4062 97.5977 Q474.7812 97.5977 474 96.5352 Q473.375 95.6914 473.375 94.3945 Q473.375 92.8477 474.1875 91.9727 Q475 91.0977 476.2344 91.0977 Q477.625 91.0977 478.4297 92.0117 Q479.2344 92.9258 479.1875 94.8164 L475.0625 94.8164 Q475.0938 95.5508 475.4688 95.957 Q475.8438 96.3633 476.4219 96.3633 Q476.7969 96.3633 477.0625 96.1523 Q477.3281 95.9414 477.4688 95.4727 ZM477.5625 93.8164 Q477.5469 93.0977 477.1953 92.7227 Q476.8438 92.3477 476.3281 92.3477 Q475.7969 92.3477 475.4375 92.7383 Q475.0938 93.1445 475.0938 93.8164 L477.5625 93.8164 ZM480.8594 97.457 L480.8594 88.8633 L482.5156 88.8633 L482.5156 97.457 L480.8594 97.457 ZM489.5625 97.457 L488.0469 97.457 L488.0469 96.5352 Q487.6562 97.082 487.1406 97.3398 Q486.625 97.5977 486.0938 97.5977 Q485.0156 97.5977 484.2578 96.7305 Q483.5 95.8633 483.5 94.3164 Q483.5 92.7383 484.2422 91.918 Q484.9844 91.0977 486.125 91.0977 Q487.1562 91.0977 487.9219 91.957 L487.9219 88.8633 L489.5625 88.8633 L489.5625 97.457 ZM485.1719 94.207 Q485.1719 95.207 485.4531 95.6445 Q485.8438 96.3008 486.5625 96.3008 Q487.125 96.3008 487.5234 95.8164 Q487.9219 95.332 487.9219 94.3633 Q487.9219 93.3008 487.5391 92.8242 Q487.1562 92.3477 486.5469 92.3477 Q485.9688 92.3477 485.5703 92.8164 Q485.1719 93.2852 485.1719 94.207 ZM494.4688 95.4727 L496.1094 95.7539 Q495.7969 96.6602 495.1094 97.1289 Q494.4219 97.5977 493.4062 97.5977 Q491.7812 97.5977 491 96.5352 Q490.375 95.6914 490.375 94.3945 Q490.375 92.8477 491.1875 91.9727 Q492 91.0977 493.2344 91.0977 Q494.625 91.0977 495.4297 92.0117 Q496.2344 92.9258 496.1875 94.8164 L492.0625 94.8164 Q492.0938 95.5508 492.4688 95.957 Q492.8438 96.3633 493.4219 96.3633 Q493.7969 96.3633 494.0625 96.1523 Q494.3281 95.9414 494.4688 95.4727 ZM494.5625 93.8164 Q494.5469 93.0977 494.1953 92.7227 Q493.8438 92.3477 493.3281 92.3477 Q492.7969 92.3477 492.4375 92.7383 Q492.0938 93.1445 492.0938 93.8164 L494.5625 93.8164 ZM497.7969 97.457 L497.7969 88.8633 L499.4375 88.8633 L499.4375 91.957 Q500.2031 91.0977 501.25 91.0977 Q502.375 91.0977 503.125 91.918 Q503.875 92.7383 503.875 94.2852 Q503.875 95.8789 503.1094 96.7383 Q502.3438 97.5977 501.2656 97.5977 Q500.7344 97.5977 500.2188 97.332 Q499.7031 97.0664 499.3281 96.5352 L499.3281 97.457 L497.7969 97.457 ZM499.4219 94.207 Q499.4219 95.1758 499.7344 95.6445 Q500.1562 96.3008 500.875 96.3008 Q501.4062 96.3008 501.7969 95.832 Q502.1875 95.3633 502.1875 94.3633 Q502.1875 93.3008 501.7969 92.8242 Q501.4062 92.3477 500.7969 92.3477 Q500.2188 92.3477 499.8203 92.8086 Q499.4219 93.2695 499.4219 94.207 ZM508.4688 95.4727 L510.1094 95.7539 Q509.7969 96.6602 509.1094 97.1289 Q508.4219 97.5977 507.4062 97.5977 Q505.7812 97.5977 505 96.5352 Q504.375 95.6914 504.375 94.3945 Q504.375 92.8477 505.1875 91.9727 Q506 91.0977 507.2344 91.0977 Q508.625 91.0977 509.4297 92.0117 Q510.2344 92.9258 510.1875 94.8164 L506.0625 94.8164 Q506.0938 95.5508 506.4688 95.957 Q506.8438 96.3633 507.4219 96.3633 Q507.7969 96.3633 508.0625 96.1523 Q508.3281 95.9414 508.4688 95.4727 ZM508.5625 93.8164 Q508.5469 93.0977 508.1953 92.7227 Q507.8438 92.3477 507.3281 92.3477 Q506.7969 92.3477 506.4375 92.7383 Q506.0938 93.1445 506.0938 93.8164 L508.5625 93.8164 ZM513.5 88.8633 L513.5 92.0195 Q514.2969 91.0977 515.4062 91.0977 Q515.9688 91.0977 516.4297 91.3086 Q516.8906 91.5195 517.125 91.8477 Q517.3594 92.1758 517.4375 92.5742 Q517.5156 92.9727 517.5156 93.8008 L517.5156 97.457 L515.875 97.457 L515.875 94.1758 Q515.875 93.1914 515.7812 92.9258 Q515.6875 92.6602 515.4531 92.5039 Q515.2188 92.3477 514.8594 92.3477 Q514.4531 92.3477 514.125 92.5508 Q513.7969 92.7539 513.6484 93.1523 Q513.5 93.5508 513.5 94.332 L513.5 97.457 L511.8594 97.457 L511.8594 88.8633 L513.5 88.8633 ZM518.4844 94.2539 Q518.4844 93.4414 518.8906 92.668 Q519.2969 91.8945 520.0312 91.4961 Q520.7656 91.0977 521.6875 91.0977 Q523.0938 91.0977 524 92.0117 Q524.9062 92.9258 524.9062 94.332 Q524.9062 95.7383 523.9922 96.668 Q523.0781 97.5977 521.7031 97.5977 Q520.8438 97.5977 520.0703 97.207 Q519.2969 96.8164 518.8906 96.0742 Q518.4844 95.332 518.4844 94.2539 ZM520.1719 94.3477 Q520.1719 95.2695 520.6094 95.7617 Q521.0469 96.2539 521.6875 96.2539 Q522.3438 96.2539 522.7734 95.7617 Q523.2031 95.2695 523.2031 94.332 Q523.2031 93.4258 522.7734 92.9336 Q522.3438 92.4414 521.6875 92.4414 Q521.0469 92.4414 520.6094 92.9336 Q520.1719 93.4258 520.1719 94.3477 ZM520.0625 89.457 L520.0625 88.0508 L521.4688 88.0508 L521.4688 89.457 L520.0625 89.457 ZM522.5781 89.457 L522.5781 88.0508 L524 88.0508 L524 89.457 L522.5781 89.457 ZM527.4375 97.457 L525.7969 97.457 L525.7969 91.2383 L527.3281 91.2383 L527.3281 92.1133 Q527.7188 91.4883 528.0312 91.293 Q528.3438 91.0977 528.7344 91.0977 Q529.2969 91.0977 529.8281 91.4102 L529.3125 92.832 Q528.8906 92.5664 528.5469 92.5664 Q528.1875 92.5664 527.9531 92.7617 Q527.7188 92.957 527.5781 93.4492 Q527.4375 93.9414 527.4375 95.5352 L527.4375 97.457 ZM536.5625 97.457 L535.0469 97.457 L535.0469 96.5352 Q534.6562 97.082 534.1406 97.3398 Q533.625 97.5977 533.0938 97.5977 Q532.0156 97.5977 531.2578 96.7305 Q530.5 95.8633 530.5 94.3164 Q530.5 92.7383 531.2422 91.918 Q531.9844 91.0977 533.125 91.0977 Q534.1562 91.0977 534.9219 91.957 L534.9219 88.8633 L536.5625 88.8633 L536.5625 97.457 ZM532.1719 94.207 Q532.1719 95.207 532.4531 95.6445 Q532.8438 96.3008 533.5625 96.3008 Q534.125 96.3008 534.5234 95.8164 Q534.9219 95.332 534.9219 94.3633 Q534.9219 93.3008 534.5391 92.8242 Q534.1562 92.3477 533.5469 92.3477 Q532.9688 92.3477 532.5703 92.8164 Q532.1719 93.2852 532.1719 94.207 ZM541.4688 95.4727 L543.1094 95.7539 Q542.7969 96.6602 542.1094 97.1289 Q541.4219 97.5977 540.4062 97.5977 Q538.7812 97.5977 538 96.5352 Q537.375 95.6914 537.375 94.3945 Q537.375 92.8477 538.1875 91.9727 Q539 91.0977 540.2344 91.0977 Q541.625 91.0977 542.4297 92.0117 Q543.2344 92.9258 543.1875 94.8164 L539.0625 94.8164 Q539.0938 95.5508 539.4688 95.957 Q539.8438 96.3633 540.4219 96.3633 Q540.7969 96.3633 541.0625 96.1523 Q541.3281 95.9414 541.4688 95.4727 ZM541.5625 93.8164 Q541.5469 93.0977 541.1953 92.7227 Q540.8438 92.3477 540.3281 92.3477 Q539.7969 92.3477 539.4375 92.7383 Q539.0938 93.1445 539.0938 93.8164 L541.5625 93.8164 Z" clip-path="url(#clipPath2)" stroke="none"/><line clip-path="url(#clipPath2)" fill="none" x1="504" x2="504" y1="63" y2="75" stroke="rgb(178,178,178)"/><line clip-path="url(#clipPath2)" fill="none" x1="488" x2="520" y1="69" y2="69" stroke="rgb(178,178,178)"/><line clip-path="url(#clipPath2)" fill="none" x1="488" x2="504" y1="86" y2="75" stroke="rgb(178,178,178)"/><line clip-path="url(#clipPath2)" fill="none" x1="520" x2="504" y1="86" y2="75" stroke="rgb(178,178,178)"/><line clip-path="url(#clipPath2)" fill="none" x1="505" x2="505" y1="63" y2="76" stroke="rgb(178,178,178)"/><line clip-path="url(#clipPath2)" fill="none" x1="489" x2="521" y1="70" y2="70" stroke="rgb(178,178,178)"/><line clip-path="url(#clipPath2)" fill="none" x1="489" x2="505" y1="87" y2="76" stroke="rgb(178,178,178)"/><line clip-path="url(#clipPath2)" fill="none" x1="521" x2="505" y1="87" y2="76" stroke="rgb(178,178,178)"/><circle fill="rgb(178,178,178)" r="5.5" clip-path="url(#clipPath2)" cx="505.5" cy="59.5" stroke="none"/><circle fill="url(#linearGradient3)" r="5.5" clip-path="url(#clipPath2)" cx="503.5" cy="57.5" stroke="none"/><circle fill="none" r="5.5" clip-path="url(#clipPath2)" cx="503.5" cy="57.5"/><line y2="74" fill="none" x1="503" clip-path="url(#clipPath2)" x2="503" y1="63"/><line y2="68" fill="none" x1="487" clip-path="url(#clipPath2)" x2="519" y1="68"/><line y2="74" fill="none" x1="487" clip-path="url(#clipPath2)" x2="503" y1="85"/><line y2="74" fill="none" x1="519" clip-path="url(#clipPath2)" x2="503" y1="85"/><path fill="none" d="M487 70 L399 70" clip-path="url(#clipPath2)"/><path fill="none" d="M201 70 L116 70" clip-path="url(#clipPath2)"/></g></g></svg>