<?xml version="1.0" encoding="UTF-8"?><svg xmlns="http://www.w3.org/2000/svg" width="700.05" height="634">
   <defs>
      <style type="text/css">
                        text {
                            font-family: 'Arial';
                            fill: black;
                        }
                        text.at {
                            font-family: 'Arial';
                            fill: rgb(242, 152, 0);
                        }
                        line {
                            stroke: black;
                        }
                        line.type-structure {
                            stroke: black;
                        }
                        line.type-structure-optional {
                            stroke: black;
                            stroke-dasharray: 4, 4;
                        }
                        rect.attribute-upper {
                            stroke: black;
                            fill: rgb(255, 239, 211);
                        }
                        rect.element-upper {
                            stroke: black;
                            fill: rgb(215, 227, 249);
                        }
                        rect.element-lower {
                            stroke: black;
                            fill: rgb(236, 242, 252);
                        }
                        a text {
                            fill: black;
                        } 
                    </style>
   </defs>
   <rect width="690.05" height="624" stroke-dasharray="3,3" rx="1" ry="1" style="stroke: grey;fill: white;"/>
   <text font-size="14" x="3.6" y="18" font-weight="bold">element onlinedienste.anmeldung.meldeschein.1704 (anonymous type)</text>
   <text font-size="12" x="3.6" y="34.8"> (extension of xmeld:type.Nachricht.G2G)</text>
   <g transform="translate(10,46)">
      <g transform="translate(55,0)">
         <rect width="247.703125" height="18" class="element-upper"/>
         <rect width="247.703125" height="18" y="18" class="element-lower"/>
         <text font-size="12" x="3.6" y="12" font-weight="bold">identifikation</text>
         <line x1="0" y1="18" x2="247.703125" y2="18"/>
         <text font-size="12" fill="grey" x="3.6" y="30">type</text>
         <line x1="31.753125" y1="18" x2="31.753125" y2="36"/>
         <text font-size="12" x="35.353125" y="30">xmeld:type.Onlinedienste.Identifikation</text>
         <g transform="translate(247.703125,0)"/>
      </g>
      <line x1="33" y1="18" x2="55" y2="18" class="type-structure-required"/>
      <text font-size="11" fill="black" x="53" y="16" text-anchor="end"/>
      <line x1="33" y1="18" x2="33" y2="18" class="type-structure-required"/>
      <g transform="translate(55,48)">
         <rect width="256.703125" height="18" class="element-upper"/>
         <rect width="256.703125" height="18" y="18" class="element-lower"/>
         <text font-size="12" x="3.6" y="12" font-weight="bold">berechtigtePerson</text>
         <line x1="0" y1="18" x2="256.703125" y2="18"/>
         <text font-size="12" fill="grey" x="3.6" y="30">type</text>
         <line x1="31.753125" y1="18" x2="31.753125" y2="36"/>
         <text font-size="12" x="35.353125" y="30">xmeld:type.Meldeschein.Personendaten</text>
         <g transform="translate(256.703125,0)"/>
      </g>
      <line x1="33" y1="66" x2="55" y2="66" class="type-structure-required"/>
      <text font-size="11" fill="black" x="53" y="64" text-anchor="end"/>
      <line x1="33" y1="18" x2="33" y2="66" class="type-structure-required"/>
      <g transform="translate(55,96)">
         <rect width="175.26874999999998" height="18" class="element-upper"/>
         <rect width="175.26874999999998" height="18" y="18" class="element-lower"/>
         <text font-size="12" x="3.6" y="12" font-weight="bold">weitereMitzuziehendePerson</text>
         <line x1="0" y1="18" x2="175.26874999999998" y2="18"/>
         <text font-size="12" fill="grey" x="3.6" y="30">type</text>
         <line x1="31.753125" y1="18" x2="31.753125" y2="36"/>
         <g transform="translate(175.26874999999998,0)">
            <g transform="translate(55,0)">
               <rect width="54.765625" height="18" class="element-upper"/>
               <rect width="54.765625" height="18" y="18" class="element-lower"/>
               <text font-size="12" x="3.6" y="12" font-weight="bold">partner</text>
               <line x1="0" y1="18" x2="54.765625" y2="18"/>
               <text font-size="12" fill="grey" x="3.6" y="30">type</text>
               <line x1="31.753125" y1="18" x2="31.753125" y2="36"/>
               <g transform="translate(54.765625,0)">
                  <g transform="translate(55,0)">
                     <rect width="269.015625" height="18" class="element-upper"/>
                     <rect width="269.015625" height="18" y="18" class="element-lower"/>
                     <text font-size="12" x="3.6" y="12" font-weight="bold">partnerschaftstyp</text>
                     <line x1="0" y1="18" x2="269.015625" y2="18"/>
                     <text font-size="12" fill="grey" x="3.6" y="30">type</text>
                     <line x1="31.753125" y1="18" x2="31.753125" y2="36"/>
                     <text font-size="12" x="35.353125" y="30">xmeld:Code.Ehegatte.oder.Lebenspartner</text>
                     <g transform="translate(269.015625,0)"/>
                  </g>
                  <line x1="33" y1="18" x2="55" y2="18" class="type-structure-required"/>
                  <text font-size="11" fill="black" x="53" y="16" text-anchor="end"/>
                  <line x1="33" y1="18" x2="33" y2="18" class="type-structure-required"/>
                  <g transform="translate(55,48)">
                     <rect width="256.703125" height="18" class="element-upper"/>
                     <rect width="256.703125" height="18" y="18" class="element-lower"/>
                     <text font-size="12" x="3.6" y="12" font-weight="bold">personendaten</text>
                     <line x1="0" y1="18" x2="256.703125" y2="18"/>
                     <text font-size="12" fill="grey" x="3.6" y="30">type</text>
                     <line x1="31.753125" y1="18" x2="31.753125" y2="36"/>
                     <text font-size="12" x="35.353125" y="30">xmeld:type.Meldeschein.Personendaten</text>
                     <g transform="translate(256.703125,0)"/>
                  </g>
                  <line x1="33" y1="66" x2="55" y2="66" class="type-structure-required"/>
                  <text font-size="11" fill="black" x="53" y="64" text-anchor="end"/>
                  <line x1="33" y1="18" x2="33" y2="66" class="type-structure-required"/>
                  <circle cx="15" cy="18" r="10" stroke="black" fill="rgb(251, 251, 251)"/>
                  <line x1="0" y1="18" x2="5" y2="18" class="type-structure-required"/>
                  <line x1="25" y1="18" x2="33" y2="18" class="type-structure-required"/>
                  <circle cx="10" cy="18" r="1.2" stroke="black" fill="black"/>
                  <circle cx="15" cy="18" r="1.2" stroke="black" fill="black"/>
                  <circle cx="20" cy="18" r="1.2" stroke="black" fill="black"/>
                  <line x1="7" y1="18" x2="23" y2="18"/>
               </g>
            </g>
            <line x1="33" y1="18" x2="55" y2="18" class="type-structure-optional"/>
            <text font-size="11" fill="black" x="53" y="16" text-anchor="end">0..1</text>
            <line x1="33" y1="18" x2="33" y2="18" class="type-structure-optional"/>
            <g transform="translate(55,96)">
               <rect width="284.671875" height="18" class="element-upper"/>
               <rect width="284.671875" height="18" y="18" class="element-lower"/>
               <text font-size="12" x="3.6" y="12" font-weight="bold">kind</text>
               <line x1="0" y1="18" x2="284.671875" y2="18"/>
               <text font-size="12" fill="grey" x="3.6" y="30">type</text>
               <line x1="31.753125" y1="18" x2="31.753125" y2="36"/>
               <text font-size="12" x="35.353125" y="30">xmeld:type.Meldeschein.Personendaten.Kind</text>
               <g transform="translate(284.671875,0)"/>
            </g>
            <line x1="33" y1="114" x2="55" y2="114" class="type-structure-optional"/>
            <text font-size="11" fill="black" x="53" y="112" text-anchor="end">0..*</text>
            <line x1="33" y1="18" x2="33" y2="114" class="type-structure-optional"/>
            <circle cx="15" cy="18" r="10" stroke="black" fill="rgb(251, 251, 251)"/>
            <line x1="0" y1="18" x2="5" y2="18" class="type-structure-optional"/>
            <line x1="25" y1="18" x2="33" y2="18" class="type-structure-optional"/>
            <circle cx="10" cy="18" r="1.2" stroke="black" fill="black"/>
            <circle cx="15" cy="18" r="1.2" stroke="black" fill="black"/>
            <circle cx="20" cy="18" r="1.2" stroke="black" fill="black"/>
            <line x1="7" y1="18" x2="23" y2="18"/>
         </g>
      </g>
      <line x1="33" y1="114" x2="55" y2="114" class="type-structure-optional"/>
      <text font-size="11" fill="black" x="53" y="112" text-anchor="end">0..1</text>
      <line x1="33" y1="66" x2="33" y2="114" class="type-structure-required"/>
      <g transform="translate(55,240)">
         <rect width="149.94062499999998" height="18" class="element-upper"/>
         <rect width="149.94062499999998" height="18" y="18" class="element-lower"/>
         <text font-size="12" x="3.6" y="12" font-weight="bold">ergaenzendeMeldedaten</text>
         <line x1="0" y1="18" x2="149.94062499999998" y2="18"/>
         <text font-size="12" fill="grey" x="3.6" y="30">type</text>
         <line x1="31.753125" y1="18" x2="31.753125" y2="36"/>
         <g transform="translate(149.94062499999998,0)">
            <g transform="translate(55,0)">
               <rect width="192.015625" height="18" class="element-upper"/>
               <rect width="192.015625" height="18" y="18" class="element-lower"/>
               <text font-size="12" x="3.6" y="12" font-weight="bold">wohnungsgeber</text>
               <line x1="0" y1="18" x2="192.015625" y2="18"/>
               <text font-size="12" fill="grey" x="3.6" y="30">type</text>
               <line x1="31.753125" y1="18" x2="31.753125" y2="36"/>
               <text font-size="12" x="35.353125" y="30">xmeld:type.Wohnungsgeber</text>
               <g transform="translate(192.015625,0)"/>
            </g>
            <line x1="33" y1="18" x2="55" y2="18" class="type-structure-required"/>
            <text font-size="11" fill="black" x="53" y="16" text-anchor="end"/>
            <line x1="33" y1="18" x2="33" y2="18" class="type-structure-required"/>
            <g transform="translate(55,48)">
               <rect width="62.315625000000004" height="18" class="element-upper"/>
               <rect width="62.315625000000004" height="18" y="18" class="element-lower"/>
               <text font-size="12" x="3.6" y="12" font-weight="bold">wohnung</text>
               <line x1="0" y1="18" x2="62.315625000000004" y2="18"/>
               <text font-size="12" fill="grey" x="3.6" y="30">type</text>
               <line x1="31.753125" y1="18" x2="31.753125" y2="36"/>
               <g transform="translate(62.315625000000004,0)">
                  <g transform="translate(55,0)">
                     <rect width="242.671875" height="18" class="element-upper"/>
                     <rect width="242.671875" height="18" y="18" class="element-lower"/>
                     <text font-size="12" x="3.6" y="12" font-weight="bold">anschrift</text>
                     <line x1="0" y1="18" x2="242.671875" y2="18"/>
                     <text font-size="12" fill="grey" x="3.6" y="30">type</text>
                     <line x1="31.753125" y1="18" x2="31.753125" y2="36"/>
                     <text font-size="12" x="35.353125" y="30">xmeld:type.AnschriftMelderecht.Inland</text>
                     <g transform="translate(242.671875,0)"/>
                  </g>
                  <line x1="33" y1="18" x2="55" y2="18" class="type-structure-required"/>
                  <text font-size="11" fill="black" x="53" y="16" text-anchor="end"/>
                  <line x1="33" y1="18" x2="33" y2="18" class="type-structure-required"/>
                  <g transform="translate(55,48)">
                     <rect width="132.078125" height="18" class="element-upper"/>
                     <rect width="132.078125" height="18" y="18" class="element-lower"/>
                     <text font-size="12" x="3.6" y="12" font-weight="bold">datumDesBeziehens</text>
                     <line x1="0" y1="18" x2="132.078125" y2="18"/>
                     <text font-size="12" fill="grey" x="3.6" y="30">type</text>
                     <line x1="31.753125" y1="18" x2="31.753125" y2="36"/>
                     <text font-size="12" x="35.353125" y="30">xida:Tagesdatum</text>
                     <g transform="translate(132.078125,0)"/>
                  </g>
                  <line x1="33" y1="66" x2="55" y2="66" class="type-structure-required"/>
                  <text font-size="11" fill="black" x="53" y="64" text-anchor="end"/>
                  <line x1="33" y1="18" x2="33" y2="66" class="type-structure-required"/>
                  <circle cx="15" cy="18" r="10" stroke="black" fill="rgb(251, 251, 251)"/>
                  <line x1="0" y1="18" x2="5" y2="18" class="type-structure-required"/>
                  <line x1="25" y1="18" x2="33" y2="18" class="type-structure-required"/>
                  <circle cx="10" cy="18" r="1.2" stroke="black" fill="black"/>
                  <circle cx="15" cy="18" r="1.2" stroke="black" fill="black"/>
                  <circle cx="20" cy="18" r="1.2" stroke="black" fill="black"/>
                  <line x1="7" y1="18" x2="23" y2="18"/>
               </g>
            </g>
            <line x1="33" y1="66" x2="55" y2="66" class="type-structure-required"/>
            <text font-size="11" fill="black" x="53" y="64" text-anchor="end"/>
            <line x1="33" y1="18" x2="33" y2="66" class="type-structure-required"/>
            <g transform="translate(55,144)">
               <rect width="132.078125" height="18" class="element-upper"/>
               <rect width="132.078125" height="18" y="18" class="element-lower"/>
               <text font-size="12" x="3.6" y="12" font-weight="bold">datumDesAuszugs</text>
               <line x1="0" y1="18" x2="132.078125" y2="18"/>
               <text font-size="12" fill="grey" x="3.6" y="30">type</text>
               <line x1="31.753125" y1="18" x2="31.753125" y2="36"/>
               <text font-size="12" x="35.353125" y="30">xida:Tagesdatum</text>
               <g transform="translate(132.078125,0)"/>
            </g>
            <line x1="33" y1="162" x2="55" y2="162" class="type-structure-optional"/>
            <text font-size="11" fill="black" x="53" y="160" text-anchor="end">0..1</text>
            <line x1="33" y1="66" x2="33" y2="162" class="type-structure-optional"/>
            <g transform="translate(55,192)">
               <rect width="176.31562499999998" height="18" class="element-upper"/>
               <rect width="176.31562499999998" height="18" y="18" class="element-lower"/>
               <text font-size="12" x="3.6" y="12" font-weight="bold">wohnungsgeberbestaetigung</text>
               <line x1="0" y1="18" x2="176.31562499999998" y2="18"/>
               <text font-size="12" fill="grey" x="3.6" y="30">type</text>
               <line x1="31.753125" y1="18" x2="31.753125" y2="36"/>
               <text font-size="12" x="35.353125" y="30">xs:base64Binary</text>
               <g transform="translate(176.31562499999998,0)"/>
            </g>
            <line x1="33" y1="210" x2="55" y2="210" class="type-structure-optional"/>
            <text font-size="11" fill="black" x="53" y="208" text-anchor="end">0..1</text>
            <line x1="33" y1="162" x2="33" y2="210" class="type-structure-optional"/>
            <circle cx="15" cy="18" r="10" stroke="black" fill="rgb(251, 251, 251)"/>
            <line x1="0" y1="18" x2="5" y2="18" class="type-structure-required"/>
            <line x1="25" y1="18" x2="33" y2="18" class="type-structure-required"/>
            <circle cx="10" cy="18" r="1.2" stroke="black" fill="black"/>
            <circle cx="15" cy="18" r="1.2" stroke="black" fill="black"/>
            <circle cx="20" cy="18" r="1.2" stroke="black" fill="black"/>
            <line x1="7" y1="18" x2="23" y2="18"/>
         </g>
      </g>
      <line x1="33" y1="258" x2="55" y2="258" class="type-structure-required"/>
      <text font-size="11" fill="black" x="53" y="256" text-anchor="end"/>
      <line x1="33" y1="114" x2="33" y2="258" class="type-structure-required"/>
      <g transform="translate(55,480)">
         <rect width="282.703125" height="18" class="element-upper"/>
         <rect width="282.703125" height="18" y="18" class="element-lower"/>
         <text font-size="12" x="3.6" y="12" font-weight="bold">landesspezifischeErweiterungen</text>
         <line x1="0" y1="18" x2="282.703125" y2="18"/>
         <text font-size="12" fill="grey" x="3.6" y="30">type</text>
         <line x1="31.753125" y1="18" x2="31.753125" y2="36"/>
         <text font-size="12" x="35.353125" y="30">xmeld:type.LandesspezifischeErweiterungen</text>
         <g transform="translate(282.703125,0)"/>
      </g>
      <line x1="33" y1="498" x2="55" y2="498" class="type-structure-optional"/>
      <text font-size="11" fill="black" x="53" y="496" text-anchor="end">0..1</text>
      <line x1="33" y1="258" x2="33" y2="498" class="type-structure-optional"/>
      <g transform="translate(55,528)">
         <rect width="147.734375" height="18" class="element-upper"/>
         <rect width="147.734375" height="18" y="18" class="element-lower"/>
         <text font-size="12" x="3.6" y="12" font-weight="bold">freitext</text>
         <line x1="0" y1="18" x2="147.734375" y2="18"/>
         <text font-size="12" fill="grey" x="3.6" y="30">type</text>
         <line x1="31.753125" y1="18" x2="31.753125" y2="36"/>
         <text font-size="12" x="35.353125" y="30">din91379:datatypeC</text>
         <g transform="translate(147.734375,0)"/>
      </g>
      <line x1="33" y1="546" x2="55" y2="546" class="type-structure-optional"/>
      <text font-size="11" fill="black" x="53" y="544" text-anchor="end">0..*</text>
      <line x1="33" y1="498" x2="33" y2="546" class="type-structure-optional"/>
      <circle cx="15" cy="18" r="10" stroke="black" fill="rgb(251, 251, 251)"/>
      <line x1="0" y1="18" x2="5" y2="18" class="type-structure-required"/>
      <line x1="25" y1="18" x2="33" y2="18" class="type-structure-required"/>
      <circle cx="10" cy="18" r="1.2" stroke="black" fill="black"/>
      <circle cx="15" cy="18" r="1.2" stroke="black" fill="black"/>
      <circle cx="20" cy="18" r="1.2" stroke="black" fill="black"/>
      <line x1="7" y1="18" x2="23" y2="18"/>
   </g>
</svg>