<?xml version="1.0" encoding="UTF-8"?><svg xmlns="http://www.w3.org/2000/svg" width="1056.0749999999998" height="1162">
   <defs>
      <style type="text/css">
                        text {
                            font-family: 'Arial';
                            fill: black;
                        }
                        text.at {
                            font-family: 'Arial';
                            fill: rgb(242, 152, 0);
                        }
                        line {
                            stroke: black;
                        }
                        line.type-structure {
                            stroke: black;
                        }
                        line.type-structure-optional {
                            stroke: black;
                            stroke-dasharray: 4, 4;
                        }
                        rect.attribute-upper {
                            stroke: black;
                            fill: rgb(255, 239, 211);
                        }
                        rect.element-upper {
                            stroke: black;
                            fill: rgb(215, 227, 249);
                        }
                        rect.element-lower {
                            stroke: black;
                            fill: rgb(236, 242, 252);
                        }
                        a text {
                            fill: black;
                        } 
                    </style>
   </defs>
   <rect width="1046.0749999999998" height="1152" stroke-dasharray="3,3" rx="1" ry="1" style="stroke: grey;fill: white;"/>
   <text font-size="14" x="3.6" y="18" font-weight="bold">element onlinedienste.anmeldung.ergebnis.1707 (anonymous type)</text>
   <text font-size="12" x="3.6" y="34.8"> (extension of xmeld:type.Nachricht.G2G)</text>
   <g transform="translate(10,46)">
      <g transform="translate(55,0)">
         <rect width="247.703125" height="18" class="element-upper"/>
         <rect width="247.703125" height="18" y="18" class="element-lower"/>
         <text font-size="12" x="3.6" y="12" font-weight="bold">identifikation</text>
         <line x1="0" y1="18" x2="247.703125" y2="18"/>
         <text font-size="12" fill="grey" x="3.6" y="30">type</text>
         <line x1="31.753125" y1="18" x2="31.753125" y2="36"/>
         <text font-size="12" x="35.353125" y="30">xmeld:type.Onlinedienste.Identifikation</text>
         <g transform="translate(247.703125,0)"/>
      </g>
      <line x1="33" y1="18" x2="55" y2="18" class="type-structure-required"/>
      <text font-size="11" fill="black" x="53" y="16" text-anchor="end"/>
      <line x1="33" y1="18" x2="33" y2="18" class="type-structure-required"/>
      <g transform="translate(55,48)">
         <rect width="147.734375" height="18" class="element-upper"/>
         <rect width="147.734375" height="18" y="18" class="element-lower"/>
         <text font-size="12" x="3.6" y="12" font-weight="bold">aktenzeichen</text>
         <line x1="0" y1="18" x2="147.734375" y2="18"/>
         <text font-size="12" fill="grey" x="3.6" y="30">type</text>
         <line x1="31.753125" y1="18" x2="31.753125" y2="36"/>
         <text font-size="12" x="35.353125" y="30">din91379:datatypeC</text>
         <g transform="translate(147.734375,0)"/>
      </g>
      <line x1="33" y1="66" x2="55" y2="66" class="type-structure-required"/>
      <text font-size="11" fill="black" x="53" y="64" text-anchor="end"/>
      <line x1="33" y1="18" x2="33" y2="66" class="type-structure-required"/>
      <g transform="translate(55,96)">
         <rect width="59.518750000000004" height="18" class="element-upper"/>
         <rect width="59.518750000000004" height="18" y="18" class="element-lower"/>
         <text font-size="12" x="3.6" y="12" font-weight="bold">ergebnis</text>
         <line x1="0" y1="18" x2="59.518750000000004" y2="18"/>
         <text font-size="12" fill="grey" x="3.6" y="30">type</text>
         <line x1="31.753125" y1="18" x2="31.753125" y2="36"/>
         <g transform="translate(59.518750000000004,0)">
            <g transform="translate(55,0)">
               <rect width="72.940625" height="18" class="element-upper"/>
               <rect width="72.940625" height="18" y="18" class="element-lower"/>
               <text font-size="12" x="3.6" y="12" font-weight="bold">anmeldung</text>
               <line x1="0" y1="18" x2="72.940625" y2="18"/>
               <text font-size="12" fill="grey" x="3.6" y="30">type</text>
               <line x1="31.753125" y1="18" x2="31.753125" y2="36"/>
               <g transform="translate(72.940625,0)">
                  <g transform="translate(55,0)">
                     <rect width="115.1125" height="18" class="element-upper"/>
                     <rect width="115.1125" height="18" y="18" class="element-lower"/>
                     <text font-size="12" x="3.6" y="12" font-weight="bold">zuziehendePerson</text>
                     <line x1="0" y1="18" x2="115.1125" y2="18"/>
                     <text font-size="12" fill="grey" x="3.6" y="30">type</text>
                     <line x1="31.753125" y1="18" x2="31.753125" y2="36"/>
                     <g transform="translate(115.1125,0)">
                        <g transform="translate(55,0)">
                           <rect width="118.628125" height="18" class="element-upper"/>
                           <rect width="118.628125" height="18" y="18" class="element-lower"/>
                           <text font-size="12" x="3.6" y="12" font-weight="bold">meldebestaetigung</text>
                           <line x1="0" y1="18" x2="118.628125" y2="18"/>
                           <text font-size="12" fill="grey" x="3.6" y="30">type</text>
                           <line x1="31.753125" y1="18" x2="31.753125" y2="36"/>
                           <g transform="translate(118.628125,0)">
                              <g transform="translate(55,0)">
                                 <rect width="54.765625" height="18" class="element-upper"/>
                                 <rect width="54.765625" height="18" y="18" class="element-lower"/>
                                 <text font-size="12" x="3.6" y="12" font-weight="bold">name</text>
                                 <line x1="0" y1="18" x2="54.765625" y2="18"/>
                                 <text font-size="12" fill="grey" x="3.6" y="30">type</text>
                                 <line x1="31.753125" y1="18" x2="31.753125" y2="36"/>
                                 <g transform="translate(54.765625,0)">
                                    <g transform="translate(55,0)">
                                       <rect width="160.03125" height="18" class="element-upper"/>
                                       <rect width="160.03125" height="18" y="18" class="element-lower"/>
                                       <text font-size="12" x="3.6" y="12" font-weight="bold">familienname</text>
                                       <line x1="0" y1="18" x2="160.03125" y2="18"/>
                                       <text font-size="12" fill="grey" x="3.6" y="30">type</text>
                                       <line x1="31.753125" y1="18" x2="31.753125" y2="36"/>
                                       <text font-size="12" x="35.353125" y="30">xmeld:type.Nachname</text>
                                       <g transform="translate(160.03125,0)"/>
                                    </g>
                                    <line x1="33" y1="18" x2="55" y2="18" class="type-structure-optional"/>
                                    <text font-size="11" fill="black" x="53" y="16" text-anchor="end">0..1</text>
                                    <line x1="33" y1="18" x2="33" y2="18" class="type-structure-required"/>
                                    <g transform="translate(55,48)">
                                       <rect width="254.109375" height="18" class="element-upper"/>
                                       <rect width="254.109375" height="18" y="18" class="element-lower"/>
                                       <text font-size="12" x="3.6" y="12" font-weight="bold">familienname.unstrukturiert</text>
                                       <line x1="0" y1="18" x2="254.109375" y2="18"/>
                                       <text font-size="12" fill="grey" x="3.6" y="30">type</text>
                                       <line x1="31.753125" y1="18" x2="31.753125" y2="36"/>
                                       <text font-size="12" x="35.353125" y="30">xmeld:type.FamiliennameUnstrukturiert</text>
                                       <g transform="translate(254.109375,0)"/>
                                    </g>
                                    <line x1="33" y1="66" x2="55" y2="66" class="type-structure-optional"/>
                                    <text font-size="11" fill="black" x="53" y="64" text-anchor="end">0..1</text>
                                    <line x1="33" y1="18" x2="33" y2="66" class="type-structure-required"/>
                                    <g transform="translate(55,96)">
                                       <rect width="160.03125" height="18" class="element-upper"/>
                                       <rect width="160.03125" height="18" y="18" class="element-lower"/>
                                       <text font-size="12" x="3.6" y="12" font-weight="bold">ehename</text>
                                       <line x1="0" y1="18" x2="160.03125" y2="18"/>
                                       <text font-size="12" fill="grey" x="3.6" y="30">type</text>
                                       <line x1="31.753125" y1="18" x2="31.753125" y2="36"/>
                                       <text font-size="12" x="35.353125" y="30">xmeld:type.Nachname</text>
                                       <g transform="translate(160.03125,0)"/>
                                    </g>
                                    <line x1="33" y1="114" x2="55" y2="114" class="type-structure-optional"/>
                                    <text font-size="11" fill="black" x="53" y="112" text-anchor="end">0..1</text>
                                    <line x1="33" y1="66" x2="33" y2="114" class="type-structure-required"/>
                                    <g transform="translate(55,144)">
                                       <rect width="163.03125" height="18" class="element-upper"/>
                                       <rect width="163.03125" height="18" y="18" class="element-lower"/>
                                       <text font-size="12" x="3.6" y="12" font-weight="bold">ehename.unstrukturiert</text>
                                       <line x1="0" y1="18" x2="163.03125" y2="18"/>
                                       <text font-size="12" fill="grey" x="3.6" y="30">type</text>
                                       <line x1="31.753125" y1="18" x2="31.753125" y2="36"/>
                                       <text font-size="12" x="35.353125" y="30">xian:AllgemeinerName</text>
                                       <g transform="translate(163.03125,0)"/>
                                    </g>
                                    <line x1="33" y1="162" x2="55" y2="162" class="type-structure-optional"/>
                                    <text font-size="11" fill="black" x="53" y="160" text-anchor="end">0..1</text>
                                    <line x1="33" y1="114" x2="33" y2="162" class="type-structure-required"/>
                                    <g transform="translate(55,192)">
                                       <rect width="164.17499999999998" height="18" class="element-upper"/>
                                       <rect width="164.17499999999998" height="18" y="18" class="element-lower"/>
                                       <text font-size="12" x="3.6" y="12" font-weight="bold">lebenspartnerschaftsname</text>
                                       <line x1="0" y1="18" x2="164.17499999999998" y2="18"/>
                                       <text font-size="12" fill="grey" x="3.6" y="30">type</text>
                                       <line x1="31.753125" y1="18" x2="31.753125" y2="36"/>
                                       <text font-size="12" x="35.353125" y="30">xmeld:type.Nachname</text>
                                       <g transform="translate(164.17499999999998,0)"/>
                                    </g>
                                    <line x1="33" y1="210" x2="55" y2="210" class="type-structure-optional"/>
                                    <text font-size="11" fill="black" x="53" y="208" text-anchor="end">0..1</text>
                                    <line x1="33" y1="162" x2="33" y2="210" class="type-structure-required"/>
                                    <g transform="translate(55,240)">
                                       <rect width="246.78437499999998" height="18" class="element-upper"/>
                                       <rect width="246.78437499999998" height="18" y="18" class="element-lower"/>
                                       <text font-size="12" x="3.6" y="12" font-weight="bold">lebenspartnerschaftsname.unstrukturiert</text>
                                       <line x1="0" y1="18" x2="246.78437499999998" y2="18"/>
                                       <text font-size="12" fill="grey" x="3.6" y="30">type</text>
                                       <line x1="31.753125" y1="18" x2="31.753125" y2="36"/>
                                       <text font-size="12" x="35.353125" y="30">xian:AllgemeinerName</text>
                                       <g transform="translate(246.78437499999998,0)"/>
                                    </g>
                                    <line x1="33" y1="258" x2="55" y2="258" class="type-structure-optional"/>
                                    <text font-size="11" fill="black" x="53" y="256" text-anchor="end">0..1</text>
                                    <line x1="33" y1="210" x2="33" y2="258" class="type-structure-required"/>
                                    <g transform="translate(55,288)">
                                       <rect width="163.03125" height="18" class="element-upper"/>
                                       <rect width="163.03125" height="18" y="18" class="element-lower"/>
                                       <text font-size="12" x="3.6" y="12" font-weight="bold">vornamen</text>
                                       <line x1="0" y1="18" x2="163.03125" y2="18"/>
                                       <text font-size="12" fill="grey" x="3.6" y="30">type</text>
                                       <line x1="31.753125" y1="18" x2="31.753125" y2="36"/>
                                       <text font-size="12" x="35.353125" y="30">xian:AllgemeinerName</text>
                                       <g transform="translate(163.03125,0)"/>
                                    </g>
                                    <line x1="33" y1="306" x2="55" y2="306" class="type-structure-required"/>
                                    <text font-size="11" fill="black" x="53" y="304" text-anchor="end"/>
                                    <line x1="33" y1="258" x2="33" y2="306" class="type-structure-required"/>
                                    <g transform="translate(55,336)">
                                       <rect width="163.03125" height="18" class="element-upper"/>
                                       <rect width="163.03125" height="18" y="18" class="element-lower"/>
                                       <text font-size="12" x="3.6" y="12" font-weight="bold">rufname</text>
                                       <line x1="0" y1="18" x2="163.03125" y2="18"/>
                                       <text font-size="12" fill="grey" x="3.6" y="30">type</text>
                                       <line x1="31.753125" y1="18" x2="31.753125" y2="36"/>
                                       <text font-size="12" x="35.353125" y="30">xian:AllgemeinerName</text>
                                       <g transform="translate(163.03125,0)"/>
                                    </g>
                                    <line x1="33" y1="354" x2="55" y2="354" class="type-structure-optional"/>
                                    <text font-size="11" fill="black" x="53" y="352" text-anchor="end">0..1</text>
                                    <line x1="33" y1="306" x2="33" y2="354" class="type-structure-optional"/>
                                    <g transform="translate(55,384)">
                                       <rect width="159.671875" height="18" class="element-upper"/>
                                       <rect width="159.671875" height="18" y="18" class="element-lower"/>
                                       <text font-size="12" x="3.6" y="12" font-weight="bold">doktorgrad</text>
                                       <line x1="0" y1="18" x2="159.671875" y2="18"/>
                                       <text font-size="12" fill="grey" x="3.6" y="30">type</text>
                                       <line x1="31.753125" y1="18" x2="31.753125" y2="36"/>
                                       <text font-size="12" x="35.353125" y="30">xmeld:type.Doktorgrad</text>
                                       <g transform="translate(159.671875,0)"/>
                                    </g>
                                    <line x1="33" y1="402" x2="55" y2="402" class="type-structure-optional"/>
                                    <text font-size="11" fill="black" x="53" y="400" text-anchor="end">0..1</text>
                                    <line x1="33" y1="354" x2="33" y2="402" class="type-structure-optional"/>
                                    <circle cx="15" cy="18" r="10" stroke="black" fill="rgb(251, 251, 251)"/>
                                    <line x1="0" y1="18" x2="5" y2="18" class="type-structure-required"/>
                                    <line x1="25" y1="18" x2="33" y2="18" class="type-structure-required"/>
                                    <circle cx="10" cy="18" r="1.2" stroke="black" fill="black"/>
                                    <circle cx="15" cy="18" r="1.2" stroke="black" fill="black"/>
                                    <circle cx="20" cy="18" r="1.2" stroke="black" fill="black"/>
                                    <line x1="7" y1="18" x2="23" y2="18"/>
                                 </g>
                              </g>
                              <line x1="33" y1="18" x2="55" y2="18" class="type-structure-required"/>
                              <text font-size="11" fill="black" x="53" y="16" text-anchor="end"/>
                              <line x1="33" y1="18" x2="33" y2="18" class="type-structure-required"/>
                              <g transform="translate(55,432)">
                                 <rect width="254.109375" height="18" class="element-upper"/>
                                 <rect width="254.109375" height="18" y="18" class="element-lower"/>
                                 <text font-size="12" x="3.6" y="12" font-weight="bold">geburtsdatum</text>
                                 <line x1="0" y1="18" x2="254.109375" y2="18"/>
                                 <text font-size="12" fill="grey" x="3.6" y="30">type</text>
                                 <line x1="31.753125" y1="18" x2="31.753125" y2="36"/>
                                 <text font-size="12" x="35.353125" y="30">xida:TeilbekanntesDatumMitUnbekannt</text>
                                 <g transform="translate(254.109375,0)"/>
                              </g>
                              <line x1="33" y1="450" x2="55" y2="450" class="type-structure-required"/>
                              <text font-size="11" fill="black" x="53" y="448" text-anchor="end"/>
                              <line x1="33" y1="18" x2="33" y2="450" class="type-structure-required"/>
                              <g transform="translate(55,480)">
                                 <rect width="62.315625000000004" height="18" class="element-upper"/>
                                 <rect width="62.315625000000004" height="18" y="18" class="element-lower"/>
                                 <text font-size="12" x="3.6" y="12" font-weight="bold">wohnung</text>
                                 <line x1="0" y1="18" x2="62.315625000000004" y2="18"/>
                                 <text font-size="12" fill="grey" x="3.6" y="30">type</text>
                                 <line x1="31.753125" y1="18" x2="31.753125" y2="36"/>
                                 <g transform="translate(62.315625000000004,0)">
                                    <g transform="translate(55,0)">
                                       <rect width="242.671875" height="18" class="element-upper"/>
                                       <rect width="242.671875" height="18" y="18" class="element-lower"/>
                                       <text font-size="12" x="3.6" y="12" font-weight="bold">anschrift</text>
                                       <line x1="0" y1="18" x2="242.671875" y2="18"/>
                                       <text font-size="12" fill="grey" x="3.6" y="30">type</text>
                                       <line x1="31.753125" y1="18" x2="31.753125" y2="36"/>
                                       <text font-size="12" x="35.353125" y="30">xmeld:type.AnschriftMelderecht.Inland</text>
                                       <g transform="translate(242.671875,0)"/>
                                    </g>
                                    <line x1="33" y1="18" x2="55" y2="18" class="type-structure-required"/>
                                    <text font-size="11" fill="black" x="53" y="16" text-anchor="end"/>
                                    <line x1="33" y1="18" x2="33" y2="18" class="type-structure-required"/>
                                    <g transform="translate(55,48)">
                                       <rect width="231.53437499999998" height="18" class="element-upper"/>
                                       <rect width="231.53437499999998" height="18" y="18" class="element-lower"/>
                                       <text font-size="12" x="3.6" y="12" font-weight="bold">datumAnmeldungBeiAnmeldebehoerde</text>
                                       <line x1="0" y1="18" x2="231.53437499999998" y2="18"/>
                                       <text font-size="12" fill="grey" x="3.6" y="30">type</text>
                                       <line x1="31.753125" y1="18" x2="31.753125" y2="36"/>
                                       <text font-size="12" x="35.353125" y="30">xida:Tagesdatum</text>
                                       <g transform="translate(231.53437499999998,0)"/>
                                    </g>
                                    <line x1="33" y1="66" x2="55" y2="66" class="type-structure-required"/>
                                    <text font-size="11" fill="black" x="53" y="64" text-anchor="end"/>
                                    <line x1="33" y1="18" x2="33" y2="66" class="type-structure-required"/>
                                    <g transform="translate(55,96)">
                                       <rect width="209.109375" height="18" class="element-upper"/>
                                       <rect width="209.109375" height="18" y="18" class="element-lower"/>
                                       <text font-size="12" x="3.6" y="12" font-weight="bold">datumDesBeziehens</text>
                                       <line x1="0" y1="18" x2="209.109375" y2="18"/>
                                       <text font-size="12" fill="grey" x="3.6" y="30">type</text>
                                       <line x1="31.753125" y1="18" x2="31.753125" y2="36"/>
                                       <text font-size="12" x="35.353125" y="30">xida:TagesdatumMitUnbekannt</text>
                                       <g transform="translate(209.109375,0)"/>
                                    </g>
                                    <line x1="33" y1="114" x2="55" y2="114" class="type-structure-required"/>
                                    <text font-size="11" fill="black" x="53" y="112" text-anchor="end"/>
                                    <line x1="33" y1="66" x2="33" y2="114" class="type-structure-required"/>
                                    <g transform="translate(55,144)">
                                       <rect width="219.39374999999998" height="18" class="element-upper"/>
                                       <rect width="219.39374999999998" height="18" y="18" class="element-lower"/>
                                       <text font-size="12" x="3.6" y="12" font-weight="bold">datumDesWohnungsstatuswechsels</text>
                                       <line x1="0" y1="18" x2="219.39374999999998" y2="18"/>
                                       <text font-size="12" fill="grey" x="3.6" y="30">type</text>
                                       <line x1="31.753125" y1="18" x2="31.753125" y2="36"/>
                                       <text font-size="12" x="35.353125" y="30">xida:Tagesdatum</text>
                                       <g transform="translate(219.39374999999998,0)"/>
                                    </g>
                                    <line x1="33" y1="162" x2="55" y2="162" class="type-structure-optional"/>
                                    <text font-size="11" fill="black" x="53" y="160" text-anchor="end">0..1</text>
                                    <line x1="33" y1="114" x2="33" y2="162" class="type-structure-required"/>
                                    <g transform="translate(55,192)">
                                       <rect width="200.390625" height="18" class="element-upper"/>
                                       <rect width="200.390625" height="18" y="18" class="element-lower"/>
                                       <text font-size="12" x="3.6" y="12" font-weight="bold">statusderwohnung</text>
                                       <line x1="0" y1="18" x2="200.390625" y2="18"/>
                                       <text font-size="12" fill="grey" x="3.6" y="30">type</text>
                                       <line x1="31.753125" y1="18" x2="31.753125" y2="36"/>
                                       <text font-size="12" x="35.353125" y="30">xmeld:Code.Wohnungsstatus</text>
                                       <g transform="translate(200.390625,0)"/>
                                    </g>
                                    <line x1="33" y1="210" x2="55" y2="210" class="type-structure-required"/>
                                    <text font-size="11" fill="black" x="53" y="208" text-anchor="end"/>
                                    <line x1="33" y1="162" x2="33" y2="210" class="type-structure-required"/>
                                    <circle cx="15" cy="18" r="10" stroke="black" fill="rgb(251, 251, 251)"/>
                                    <line x1="0" y1="18" x2="5" y2="18" class="type-structure-required"/>
                                    <line x1="25" y1="18" x2="33" y2="18" class="type-structure-required"/>
                                    <circle cx="10" cy="18" r="1.2" stroke="black" fill="black"/>
                                    <circle cx="15" cy="18" r="1.2" stroke="black" fill="black"/>
                                    <circle cx="20" cy="18" r="1.2" stroke="black" fill="black"/>
                                    <line x1="7" y1="18" x2="23" y2="18"/>
                                 </g>
                              </g>
                              <line x1="33" y1="498" x2="55" y2="498" class="type-structure-required"/>
                              <text font-size="11" fill="black" x="53" y="496" text-anchor="end"/>
                              <line x1="33" y1="450" x2="33" y2="498" class="type-structure-required"/>
                              <g transform="translate(55,720)">
                                 <rect width="132.078125" height="18" class="element-upper"/>
                                 <rect width="132.078125" height="18" y="18" class="element-lower"/>
                                 <text font-size="12" x="3.6" y="12" font-weight="bold">zuzugBund</text>
                                 <line x1="0" y1="18" x2="132.078125" y2="18"/>
                                 <text font-size="12" fill="grey" x="3.6" y="30">type</text>
                                 <line x1="31.753125" y1="18" x2="31.753125" y2="36"/>
                                 <text font-size="12" x="35.353125" y="30">xida:Tagesdatum</text>
                                 <g transform="translate(132.078125,0)"/>
                              </g>
                              <line x1="33" y1="738" x2="55" y2="738" class="type-structure-optional"/>
                              <text font-size="11" fill="black" x="53" y="736" text-anchor="end">0..1</text>
                              <line x1="33" y1="498" x2="33" y2="738" class="type-structure-optional"/>
                              <circle cx="15" cy="18" r="10" stroke="black" fill="rgb(251, 251, 251)"/>
                              <line x1="0" y1="18" x2="5" y2="18" class="type-structure-required"/>
                              <line x1="25" y1="18" x2="33" y2="18" class="type-structure-required"/>
                              <circle cx="10" cy="18" r="1.2" stroke="black" fill="black"/>
                              <circle cx="15" cy="18" r="1.2" stroke="black" fill="black"/>
                              <circle cx="20" cy="18" r="1.2" stroke="black" fill="black"/>
                              <line x1="7" y1="18" x2="23" y2="18"/>
                           </g>
                        </g>
                        <line x1="33" y1="18" x2="55" y2="18" class="type-structure-required"/>
                        <text font-size="11" fill="black" x="53" y="16" text-anchor="end"/>
                        <line x1="33" y1="18" x2="33" y2="18" class="type-structure-required"/>
                        <g transform="translate(55,768)">
                           <rect width="130.75" height="18" class="element-upper"/>
                           <rect width="130.75" height="18" y="18" class="element-lower"/>
                           <text font-size="12" x="3.6" y="12" font-weight="bold">pdfDokument</text>
                           <line x1="0" y1="18" x2="130.75" y2="18"/>
                           <text font-size="12" fill="grey" x="3.6" y="30">type</text>
                           <line x1="31.753125" y1="18" x2="31.753125" y2="36"/>
                           <text font-size="12" x="35.353125" y="30">xs:base64Binary</text>
                           <g transform="translate(130.75,0)"/>
                        </g>
                        <line x1="33" y1="786" x2="55" y2="786" class="type-structure-required"/>
                        <text font-size="11" fill="black" x="53" y="784" text-anchor="end"/>
                        <line x1="33" y1="18" x2="33" y2="786" class="type-structure-required"/>
                        <g transform="translate(55,816)">
                           <rect width="310.703125" height="18" class="element-upper"/>
                           <rect width="310.703125" height="18" y="18" class="element-lower"/>
                           <text font-size="12" x="3.6" y="12" font-weight="bold">ergebnisWiderspruecheUebermittlungssperren</text>
                           <line x1="0" y1="18" x2="310.703125" y2="18"/>
                           <text font-size="12" fill="grey" x="3.6" y="30">type</text>
                           <line x1="31.753125" y1="18" x2="31.753125" y2="36"/>
                           <text font-size="12" x="35.353125" y="30">xmeld:type.WiderspruecheUebermittlungssperren</text>
                           <g transform="translate(310.703125,0)"/>
                        </g>
                        <line x1="33" y1="834" x2="55" y2="834" class="type-structure-optional"/>
                        <text font-size="11" fill="black" x="53" y="832" text-anchor="end">0..1</text>
                        <line x1="33" y1="786" x2="33" y2="834" class="type-structure-optional"/>
                        <circle cx="15" cy="18" r="10" stroke="black" fill="rgb(251, 251, 251)"/>
                        <line x1="0" y1="18" x2="5" y2="18" class="type-structure-required"/>
                        <line x1="25" y1="18" x2="33" y2="18" class="type-structure-required"/>
                        <circle cx="10" cy="18" r="1.2" stroke="black" fill="black"/>
                        <circle cx="15" cy="18" r="1.2" stroke="black" fill="black"/>
                        <circle cx="20" cy="18" r="1.2" stroke="black" fill="black"/>
                        <line x1="7" y1="18" x2="23" y2="18"/>
                     </g>
                  </g>
                  <line x1="33" y1="18" x2="55" y2="18" class="type-structure-required"/>
                  <text font-size="11" fill="black" x="53" y="16" text-anchor="end">1..*</text>
                  <line x1="33" y1="18" x2="33" y2="18" class="type-structure-required"/>
                  <circle cx="15" cy="18" r="10" stroke="black" fill="rgb(251, 251, 251)"/>
                  <line x1="0" y1="18" x2="5" y2="18" class="type-structure-required"/>
                  <line x1="25" y1="18" x2="33" y2="18" class="type-structure-required"/>
                  <circle cx="10" cy="18" r="1.2" stroke="black" fill="black"/>
                  <circle cx="15" cy="18" r="1.2" stroke="black" fill="black"/>
                  <circle cx="20" cy="18" r="1.2" stroke="black" fill="black"/>
                  <line x1="7" y1="18" x2="23" y2="18"/>
               </g>
            </g>
            <line x1="33" y1="18" x2="55" y2="18" class="type-structure-required"/>
            <text font-size="11" fill="black" x="53" y="16" text-anchor="end"/>
            <line x1="33" y1="18" x2="33" y2="18" class="type-structure-required"/>
            <g transform="translate(55,864)">
               <rect width="68.940625" height="18" class="element-upper"/>
               <rect width="68.940625" height="18" y="18" class="element-lower"/>
               <text font-size="12" x="3.6" y="12" font-weight="bold">ablehnung</text>
               <line x1="0" y1="18" x2="68.940625" y2="18"/>
               <text font-size="12" fill="grey" x="3.6" y="30">type</text>
               <line x1="31.753125" y1="18" x2="31.753125" y2="36"/>
               <g transform="translate(68.940625,0)">
                  <g transform="translate(55,0)">
                     <rect width="207.390625" height="18" class="element-upper"/>
                     <rect width="207.390625" height="18" y="18" class="element-lower"/>
                     <text font-size="12" x="3.6" y="12" font-weight="bold">status</text>
                     <line x1="0" y1="18" x2="207.390625" y2="18"/>
                     <text font-size="12" fill="grey" x="3.6" y="30">type</text>
                     <line x1="31.753125" y1="18" x2="31.753125" y2="36"/>
                     <text font-size="12" x="35.353125" y="30">xmeld:Code.Anmeldung.Status</text>
                     <g transform="translate(207.390625,0)"/>
                  </g>
                  <line x1="33" y1="18" x2="55" y2="18" class="type-structure-required"/>
                  <text font-size="11" fill="black" x="53" y="16" text-anchor="end"/>
                  <line x1="33" y1="18" x2="33" y2="18" class="type-structure-required"/>
                  <g transform="translate(55,48)">
                     <rect width="130.75" height="18" class="element-upper"/>
                     <rect width="130.75" height="18" y="18" class="element-lower"/>
                     <text font-size="12" x="3.6" y="12" font-weight="bold">pdfDokument</text>
                     <line x1="0" y1="18" x2="130.75" y2="18"/>
                     <text font-size="12" fill="grey" x="3.6" y="30">type</text>
                     <line x1="31.753125" y1="18" x2="31.753125" y2="36"/>
                     <text font-size="12" x="35.353125" y="30">xs:base64Binary</text>
                     <g transform="translate(130.75,0)"/>
                  </g>
                  <line x1="33" y1="66" x2="55" y2="66" class="type-structure-optional"/>
                  <text font-size="11" fill="black" x="53" y="64" text-anchor="end">0..1</text>
                  <line x1="33" y1="18" x2="33" y2="66" class="type-structure-optional"/>
                  <circle cx="15" cy="18" r="10" stroke="black" fill="rgb(251, 251, 251)"/>
                  <line x1="0" y1="18" x2="5" y2="18" class="type-structure-required"/>
                  <line x1="25" y1="18" x2="33" y2="18" class="type-structure-required"/>
                  <circle cx="10" cy="18" r="1.2" stroke="black" fill="black"/>
                  <circle cx="15" cy="18" r="1.2" stroke="black" fill="black"/>
                  <circle cx="20" cy="18" r="1.2" stroke="black" fill="black"/>
                  <line x1="7" y1="18" x2="23" y2="18"/>
               </g>
            </g>
            <line x1="33" y1="882" x2="55" y2="882" class="type-structure-required"/>
            <text font-size="11" fill="black" x="53" y="880" text-anchor="end"/>
            <line x1="33" y1="18" x2="33" y2="882" class="type-structure-required"/>
            <circle cx="15" cy="18" r="10" stroke="black" fill="rgb(251, 251, 251)"/>
            <line x1="0" y1="18" x2="5" y2="18" class="type-structure-required"/>
            <line x1="25" y1="18" x2="33" y2="18" class="type-structure-required"/>
            <circle cx="10" cy="18" r="1.2" stroke="black" fill="black"/>
            <circle cx="18" cy="14" r="1.2" stroke="black" fill="black"/>
            <circle cx="18" cy="18" r="1.2" stroke="black" fill="black"/>
            <circle cx="18" cy="22" r="1.2" stroke="black" fill="black"/>
            <line x1="10" y1="18" x2="18" y2="14"/>
         </g>
      </g>
      <line x1="33" y1="114" x2="55" y2="114" class="type-structure-required"/>
      <text font-size="11" fill="black" x="53" y="112" text-anchor="end"/>
      <line x1="33" y1="66" x2="33" y2="114" class="type-structure-required"/>
      <g transform="translate(55,1056)">
         <rect width="224.109375" height="18" class="element-upper"/>
         <rect width="224.109375" height="18" y="18" class="element-lower"/>
         <text font-size="12" x="3.6" y="12" font-weight="bold">ursprungsnachricht</text>
         <line x1="0" y1="18" x2="224.109375" y2="18"/>
         <text font-size="12" fill="grey" x="3.6" y="30">type</text>
         <line x1="31.753125" y1="18" x2="31.753125" y2="36"/>
         <text font-size="12" x="35.353125" y="30">xmeld:type.Identifikation.Nachricht</text>
         <g transform="translate(224.109375,0)"/>
      </g>
      <line x1="33" y1="1074" x2="55" y2="1074" class="type-structure-required"/>
      <text font-size="11" fill="black" x="53" y="1072" text-anchor="end"/>
      <line x1="33" y1="114" x2="33" y2="1074" class="type-structure-required"/>
      <circle cx="15" cy="18" r="10" stroke="black" fill="rgb(251, 251, 251)"/>
      <line x1="0" y1="18" x2="5" y2="18" class="type-structure-required"/>
      <line x1="25" y1="18" x2="33" y2="18" class="type-structure-required"/>
      <circle cx="10" cy="18" r="1.2" stroke="black" fill="black"/>
      <circle cx="15" cy="18" r="1.2" stroke="black" fill="black"/>
      <circle cx="20" cy="18" r="1.2" stroke="black" fill="black"/>
      <line x1="7" y1="18" x2="23" y2="18"/>
   </g>
</svg>