<?xml version="1.0" encoding="UTF-8"?><svg xmlns="http://www.w3.org/2000/svg" xmlns:xlink="http://www.w3.org/1999/xlink" fill-opacity="1" color-rendering="auto" color-interpolation="auto" stroke="black" text-rendering="auto" stroke-linecap="square" width="6.177083333333333in" stroke-miterlimit="10" stroke-opacity="1" shape-rendering="auto" fill="black" stroke-dasharray="none" font-weight="normal" stroke-width="1" viewBox="0 0 593 82" height="0.8541666666666666in" font-family="'Arial'" font-style="normal" stroke-linejoin="miter" font-size="12" stroke-dashoffset="0" image-rendering="auto" preserveAspectRatio="xMidYMid meet" zoomAndPan="magnify" version="1.0" contentScriptType="text/ecmascript" contentStyleType="text/css"><!--Generated by the Batik Graphics2D SVG Generator
 This is MagicDraw diagram.--><defs id="genericDefs"/><g><defs id="defs1"><linearGradient x1="530" gradientUnits="userSpaceOnUse" x2="563" y1="76" y2="109" id="linearGradient1" spreadMethod="pad" xlink:type="simple" xlink:show="other" xlink:actuate="onLoad"><stop stop-opacity="1" stop-color="rgb(255,204,153)" offset="0%"/><stop stop-opacity="1" stop-color="rgb(255,255,218)" offset="100%"/></linearGradient><linearGradient x1="250" gradientUnits="userSpaceOnUse" x2="396" y1="70" y2="132" id="linearGradient2" spreadMethod="pad" xlink:type="simple" xlink:show="other" xlink:actuate="onLoad"><stop stop-opacity="1" stop-color="yellow" offset="0%"/><stop stop-opacity="1" stop-color="yellow" offset="100%"/></linearGradient><linearGradient x1="87" gradientUnits="userSpaceOnUse" x2="120" y1="76" y2="109" id="linearGradient3" spreadMethod="pad" xlink:type="simple" xlink:show="other" xlink:actuate="onLoad"><stop stop-opacity="1" stop-color="rgb(255,204,153)" offset="0%"/><stop stop-opacity="1" stop-color="rgb(255,255,218)" offset="100%"/></linearGradient><clipPath clipPathUnits="userSpaceOnUse" id="clipPath1"><path d="M0 -5 L643 -5 L643 142 L0 142 L0 -5 Z"/></clipPath><clipPath clipPathUnits="userSpaceOnUse" id="clipPath2"><path d="M50 55 L693 55 L693 202 L50 202 L50 55 Z"/></clipPath></defs><g fill="white" stroke="white"><rect x="0" width="643" height="147" y="-5" clip-path="url(#clipPath1)" stroke="none"/><path fill="black" text-rendering="geometricPrecision" d="M499.875 112.8633 L503.0312 112.8633 Q504.1094 112.8633 504.6719 113.0352 Q505.4219 113.2539 505.9609 113.8242 Q506.5 114.3945 506.7812 115.2148 Q507.0625 116.0352 507.0625 117.2383 Q507.0625 118.3008 506.8125 119.0664 Q506.4844 120.0039 505.8906 120.582 Q505.4375 121.0352 504.6719 121.2695 Q504.0938 121.457 503.125 121.457 L499.875 121.457 L499.875 112.8633 ZM501.6094 114.3164 L501.6094 120.0039 L502.8906 120.0039 Q503.625 120.0039 503.9531 119.9258 Q504.375 119.8164 504.6484 119.5664 Q504.9219 119.3164 505.1016 118.7383 Q505.2812 118.1602 505.2812 117.1602 Q505.2812 116.1758 505.1016 115.6367 Q504.9219 115.0977 504.6094 114.8008 Q504.2969 114.5039 503.8125 114.3945 Q503.4375 114.3164 502.375 114.3164 L501.6094 114.3164 ZM509.0938 117.1289 L507.5938 116.8633 Q507.8438 115.957 508.4609 115.5273 Q509.0781 115.0977 510.2969 115.0977 Q511.3906 115.0977 511.9297 115.3555 Q512.4688 115.6133 512.6875 116.0117 Q512.9062 116.4102 512.9062 117.4883 L512.8906 119.4102 Q512.8906 120.2383 512.9688 120.6211 Q513.0469 121.0039 513.2656 121.457 L511.6406 121.457 Q511.5781 121.2852 511.4844 120.9727 Q511.4375 120.8164 511.4219 120.7695 Q511 121.1914 510.5234 121.3945 Q510.0469 121.5977 509.5 121.5977 Q508.5312 121.5977 507.9766 121.0742 Q507.4219 120.5508 507.4219 119.7539 Q507.4219 119.2227 507.6797 118.8164 Q507.9375 118.4102 508.3906 118.1836 Q508.8438 117.957 509.7031 117.8008 Q510.8438 117.582 511.2969 117.3945 L511.2969 117.2383 Q511.2969 116.7539 511.0625 116.5508 Q510.8281 116.3477 510.1719 116.3477 Q509.7344 116.3477 509.4922 116.5195 Q509.25 116.6914 509.0938 117.1289 ZM511.2969 118.4727 Q510.9844 118.5664 510.2969 118.7148 Q509.6094 118.8633 509.3906 119.0039 Q509.0781 119.2383 509.0781 119.582 Q509.0781 119.9258 509.3359 120.1836 Q509.5938 120.4414 509.9844 120.4414 Q510.4375 120.4414 510.8438 120.1445 Q511.1406 119.9258 511.2344 119.5977 Q511.2969 119.3945 511.2969 118.8008 L511.2969 118.4727 ZM517.7188 115.2383 L517.7188 116.5508 L516.5938 116.5508 L516.5938 119.0508 Q516.5938 119.8164 516.625 119.9414 Q516.6562 120.0664 516.7734 120.1523 Q516.8906 120.2383 517.0469 120.2383 Q517.2812 120.2383 517.7031 120.0664 L517.8438 121.3477 Q517.2812 121.5977 516.5469 121.5977 Q516.1094 121.5977 515.75 121.4492 Q515.3906 121.3008 515.2266 121.0586 Q515.0625 120.8164 514.9844 120.4258 Q514.9375 120.1289 514.9375 119.2539 L514.9375 116.5508 L514.1875 116.5508 L514.1875 115.2383 L514.9375 115.2383 L514.9375 114.0039 L516.5938 113.0352 L516.5938 115.2383 L517.7188 115.2383 ZM522.4688 119.4727 L524.1094 119.7539 Q523.7969 120.6602 523.1094 121.1289 Q522.4219 121.5977 521.4062 121.5977 Q519.7812 121.5977 519 120.5352 Q518.375 119.6914 518.375 118.3945 Q518.375 116.8477 519.1875 115.9727 Q520 115.0977 521.2344 115.0977 Q522.625 115.0977 523.4297 116.0117 Q524.2344 116.9258 524.1875 118.8164 L520.0625 118.8164 Q520.0938 119.5508 520.4688 119.957 Q520.8438 120.3633 521.4219 120.3633 Q521.7969 120.3633 522.0625 120.1523 Q522.3281 119.9414 522.4688 119.4727 ZM522.5625 117.8164 Q522.5469 117.0977 522.1953 116.7227 Q521.8438 116.3477 521.3281 116.3477 Q520.7969 116.3477 520.4375 116.7383 Q520.0938 117.1445 520.0938 117.8164 L522.5625 117.8164 ZM531.5156 121.457 L529.875 121.457 L529.875 118.2852 Q529.875 117.2695 529.7734 116.9727 Q529.6719 116.6758 529.4297 116.5117 Q529.1875 116.3477 528.8594 116.3477 Q528.4219 116.3477 528.0859 116.582 Q527.75 116.8164 527.625 117.207 Q527.5 117.5977 527.5 118.6445 L527.5 121.457 L525.8438 121.457 L525.8438 115.2383 L527.375 115.2383 L527.375 116.1445 Q528.1875 115.0977 529.4375 115.0977 Q529.9688 115.0977 530.4219 115.293 Q530.875 115.4883 531.1094 115.793 Q531.3438 116.0977 531.4297 116.4805 Q531.5156 116.8633 531.5156 117.582 L531.5156 121.457 ZM536.4688 119.4727 L538.1094 119.7539 Q537.7969 120.6602 537.1094 121.1289 Q536.4219 121.5977 535.4062 121.5977 Q533.7812 121.5977 533 120.5352 Q532.375 119.6914 532.375 118.3945 Q532.375 116.8477 533.1875 115.9727 Q534 115.0977 535.2344 115.0977 Q536.625 115.0977 537.4297 116.0117 Q538.2344 116.9258 538.1875 118.8164 L534.0625 118.8164 Q534.0938 119.5508 534.4688 119.957 Q534.8438 120.3633 535.4219 120.3633 Q535.7969 120.3633 536.0625 120.1523 Q536.3281 119.9414 536.4688 119.4727 ZM536.5625 117.8164 Q536.5469 117.0977 536.1953 116.7227 Q535.8438 116.3477 535.3281 116.3477 Q534.7969 116.3477 534.4375 116.7383 Q534.0938 117.1445 534.0938 117.8164 L536.5625 117.8164 ZM539.7344 115.2383 L541.25 115.2383 L541.25 116.082 Q542.0781 115.0977 543.2031 115.0977 Q543.7969 115.0977 544.2344 115.3398 Q544.6719 115.582 544.9531 116.082 Q545.3594 115.582 545.8359 115.3398 Q546.3125 115.0977 546.8594 115.0977 Q547.5312 115.0977 548.0078 115.3711 Q548.4844 115.6445 548.7188 116.1914 Q548.8906 116.582 548.8906 117.4727 L548.8906 121.457 L547.25 121.457 L547.25 117.8945 Q547.25 116.9727 547.0781 116.707 Q546.8438 116.3477 546.375 116.3477 Q546.0312 116.3477 545.7266 116.5586 Q545.4219 116.7695 545.2812 117.1758 Q545.1406 117.582 545.1406 118.4727 L545.1406 121.457 L543.5 121.457 L543.5 118.0508 Q543.5 117.1445 543.4141 116.8789 Q543.3281 116.6133 543.1406 116.4805 Q542.9531 116.3477 542.6406 116.3477 Q542.2656 116.3477 541.9609 116.5586 Q541.6562 116.7695 541.5234 117.1523 Q541.3906 117.5352 541.3906 118.4258 L541.3906 121.457 L539.7344 121.457 L539.7344 115.2383 ZM550.8125 115.2383 L552.3438 115.2383 L552.3438 116.1445 Q552.6562 115.6758 553.1641 115.3867 Q553.6719 115.0977 554.2969 115.0977 Q555.375 115.0977 556.1328 115.9414 Q556.8906 116.7852 556.8906 118.3164 Q556.8906 119.8633 556.125 120.7305 Q555.3594 121.5977 554.2812 121.5977 Q553.7656 121.5977 553.3438 121.3945 Q552.9219 121.1914 552.4688 120.6914 L552.4688 123.832 L550.8125 123.832 L550.8125 115.2383 ZM552.4375 118.2383 Q552.4375 119.2852 552.8594 119.7852 Q553.2812 120.2852 553.875 120.2852 Q554.4531 120.2852 554.8281 119.8242 Q555.2031 119.3633 555.2031 118.3164 Q555.2031 117.3477 554.8125 116.8711 Q554.4219 116.3945 553.8438 116.3945 Q553.2344 116.3945 552.8359 116.8633 Q552.4375 117.332 552.4375 118.2383 ZM557.1406 115.2383 L558.0625 115.2383 L558.0625 114.7695 Q558.0625 113.9727 558.2266 113.5898 Q558.3906 113.207 558.8359 112.9648 Q559.2812 112.7227 559.9688 112.7227 Q560.6719 112.7227 561.3438 112.9258 L561.125 114.082 Q560.7344 113.9883 560.375 113.9883 Q560.0156 113.9883 559.8594 114.1523 Q559.7031 114.3164 559.7031 114.8008 L559.7031 115.2383 L560.9375 115.2383 L560.9375 116.5352 L559.7031 116.5352 L559.7031 121.457 L558.0625 121.457 L558.0625 116.5352 L557.1406 116.5352 L557.1406 115.2383 ZM563.0938 117.1289 L561.5938 116.8633 Q561.8438 115.957 562.4609 115.5273 Q563.0781 115.0977 564.2969 115.0977 Q565.3906 115.0977 565.9297 115.3555 Q566.4688 115.6133 566.6875 116.0117 Q566.9062 116.4102 566.9062 117.4883 L566.8906 119.4102 Q566.8906 120.2383 566.9688 120.6211 Q567.0469 121.0039 567.2656 121.457 L565.6406 121.457 Q565.5781 121.2852 565.4844 120.9727 Q565.4375 120.8164 565.4219 120.7695 Q565 121.1914 564.5234 121.3945 Q564.0469 121.5977 563.5 121.5977 Q562.5312 121.5977 561.9766 121.0742 Q561.4219 120.5508 561.4219 119.7539 Q561.4219 119.2227 561.6797 118.8164 Q561.9375 118.4102 562.3906 118.1836 Q562.8438 117.957 563.7031 117.8008 Q564.8438 117.582 565.2969 117.3945 L565.2969 117.2383 Q565.2969 116.7539 565.0625 116.5508 Q564.8281 116.3477 564.1719 116.3477 Q563.7344 116.3477 563.4922 116.5195 Q563.25 116.6914 563.0938 117.1289 ZM565.2969 118.4727 Q564.9844 118.5664 564.2969 118.7148 Q563.6094 118.8633 563.3906 119.0039 Q563.0781 119.2383 563.0781 119.582 Q563.0781 119.9258 563.3359 120.1836 Q563.5938 120.4414 563.9844 120.4414 Q564.4375 120.4414 564.8438 120.1445 Q565.1406 119.9258 565.2344 119.5977 Q565.2969 119.3945 565.2969 118.8008 L565.2969 118.4727 ZM562.0625 113.457 L562.0625 112.0508 L563.4688 112.0508 L563.4688 113.457 L562.0625 113.457 ZM564.5781 113.457 L564.5781 112.0508 L566 112.0508 L566 113.457 L564.5781 113.457 ZM574.5156 121.457 L572.875 121.457 L572.875 118.2852 Q572.875 117.2695 572.7734 116.9727 Q572.6719 116.6758 572.4297 116.5117 Q572.1875 116.3477 571.8594 116.3477 Q571.4219 116.3477 571.0859 116.582 Q570.75 116.8164 570.625 117.207 Q570.5 117.5977 570.5 118.6445 L570.5 121.457 L568.8438 121.457 L568.8438 115.2383 L570.375 115.2383 L570.375 116.1445 Q571.1875 115.0977 572.4375 115.0977 Q572.9688 115.0977 573.4219 115.293 Q573.875 115.4883 574.1094 115.793 Q574.3438 116.0977 574.4297 116.4805 Q574.5156 116.8633 574.5156 117.582 L574.5156 121.457 ZM575.7031 121.8633 L577.5938 122.0977 Q577.6406 122.4258 577.8125 122.5508 Q578.0469 122.7227 578.5469 122.7227 Q579.1875 122.7227 579.5156 122.5352 Q579.7344 122.3945 579.8438 122.1133 Q579.9219 121.9102 579.9219 121.3633 L579.9219 120.4414 Q579.1719 121.457 578.0469 121.457 Q576.7969 121.457 576.0625 120.3945 Q575.5 119.5508 575.5 118.3164 Q575.5 116.7383 576.25 115.918 Q577 115.0977 578.125 115.0977 Q579.2656 115.0977 580.0156 116.1133 L580.0156 115.2383 L581.5625 115.2383 L581.5625 120.8164 Q581.5625 121.9258 581.3828 122.4648 Q581.2031 123.0039 580.875 123.3164 Q580.5469 123.6289 580 123.8086 Q579.4531 123.9883 578.6094 123.9883 Q577.0312 123.9883 576.3672 123.4414 Q575.7031 122.8945 575.7031 122.0664 Q575.7031 121.9883 575.7031 121.8633 ZM577.1875 118.2227 Q577.1875 119.207 577.5703 119.668 Q577.9531 120.1289 578.5156 120.1289 Q579.1094 120.1289 579.5312 119.6523 Q579.9531 119.1758 579.9531 118.2539 Q579.9531 117.2852 579.5547 116.8164 Q579.1562 116.3477 578.5469 116.3477 Q577.9531 116.3477 577.5703 116.8086 Q577.1875 117.2695 577.1875 118.2227 ZM586.4688 119.4727 L588.1094 119.7539 Q587.7969 120.6602 587.1094 121.1289 Q586.4219 121.5977 585.4062 121.5977 Q583.7812 121.5977 583 120.5352 Q582.375 119.6914 582.375 118.3945 Q582.375 116.8477 583.1875 115.9727 Q584 115.0977 585.2344 115.0977 Q586.625 115.0977 587.4297 116.0117 Q588.2344 116.9258 588.1875 118.8164 L584.0625 118.8164 Q584.0938 119.5508 584.4688 119.957 Q584.8438 120.3633 585.4219 120.3633 Q585.7969 120.3633 586.0625 120.1523 Q586.3281 119.9414 586.4688 119.4727 ZM586.5625 117.8164 Q586.5469 117.0977 586.1953 116.7227 Q585.8438 116.3477 585.3281 116.3477 Q584.7969 116.3477 584.4375 116.7383 Q584.0938 117.1445 584.0938 117.8164 L586.5625 117.8164 ZM591.4375 121.457 L589.7969 121.457 L589.7969 115.2383 L591.3281 115.2383 L591.3281 116.1133 Q591.7188 115.4883 592.0312 115.293 Q592.3438 115.0977 592.7344 115.0977 Q593.2969 115.0977 593.8281 115.4102 L593.3125 116.832 Q592.8906 116.5664 592.5469 116.5664 Q592.1875 116.5664 591.9531 116.7617 Q591.7188 116.957 591.5781 117.4492 Q591.4375 117.9414 591.4375 119.5352 L591.4375 121.457 Z" clip-path="url(#clipPath2)" transform="translate(-50,-60)" stroke="none"/><line transform="translate(-50,-60)" clip-path="url(#clipPath2)" fill="none" text-rendering="geometricPrecision" x1="547" x2="547" y1="87" y2="99" stroke="rgb(178,178,178)"/><line transform="translate(-50,-60)" clip-path="url(#clipPath2)" fill="none" text-rendering="geometricPrecision" x1="531" x2="563" y1="93" y2="93" stroke="rgb(178,178,178)"/><line transform="translate(-50,-60)" clip-path="url(#clipPath2)" fill="none" text-rendering="geometricPrecision" x1="531" x2="547" y1="110" y2="99" stroke="rgb(178,178,178)"/><line transform="translate(-50,-60)" clip-path="url(#clipPath2)" fill="none" text-rendering="geometricPrecision" x1="563" x2="547" y1="110" y2="99" stroke="rgb(178,178,178)"/><line transform="translate(-50,-60)" clip-path="url(#clipPath2)" fill="none" text-rendering="geometricPrecision" x1="548" x2="548" y1="87" y2="100" stroke="rgb(178,178,178)"/><line transform="translate(-50,-60)" clip-path="url(#clipPath2)" fill="none" text-rendering="geometricPrecision" x1="532" x2="564" y1="94" y2="94" stroke="rgb(178,178,178)"/><line transform="translate(-50,-60)" clip-path="url(#clipPath2)" fill="none" text-rendering="geometricPrecision" x1="532" x2="548" y1="111" y2="100" stroke="rgb(178,178,178)"/><line transform="translate(-50,-60)" clip-path="url(#clipPath2)" fill="none" text-rendering="geometricPrecision" x1="564" x2="548" y1="111" y2="100" stroke="rgb(178,178,178)"/><circle transform="translate(-50,-60)" clip-path="url(#clipPath2)" fill="rgb(178,178,178)" text-rendering="geometricPrecision" r="5.5" cx="548.5" cy="83.5" stroke="none"/><circle transform="translate(-50,-60)" clip-path="url(#clipPath2)" fill="url(#linearGradient1)" text-rendering="geometricPrecision" r="5.5" cx="546.5" cy="81.5" stroke="none"/></g><g fill="rgb(66,66,66)" text-rendering="geometricPrecision" transform="translate(-50,-60)" stroke-linejoin="round" stroke-linecap="butt" stroke="rgb(66,66,66)"><circle fill="none" r="5.5" clip-path="url(#clipPath2)" cx="546.5" cy="81.5"/><line y2="98" fill="none" x1="546" clip-path="url(#clipPath2)" x2="546" y1="87"/><line y2="92" fill="none" x1="530" clip-path="url(#clipPath2)" x2="562" y1="92"/><line y2="98" fill="none" x1="530" clip-path="url(#clipPath2)" x2="546" y1="109"/><line y2="98" fill="none" x1="562" clip-path="url(#clipPath2)" x2="546" y1="109"/><ellipse clip-path="url(#clipPath2)" fill="rgb(178,178,178)" rx="73" cx="326" ry="31" cy="104" stroke="none"/><ellipse clip-path="url(#clipPath2)" fill="url(#linearGradient2)" rx="73" cx="323" ry="31" cy="101" stroke="none"/><ellipse rx="73" fill="none" ry="31" clip-path="url(#clipPath2)" cx="323" cy="101"/><path fill="black" d="M287.8594 80.8633 L289.5938 80.8633 L289.5938 85.5195 Q289.5938 86.6289 289.6562 86.957 Q289.7656 87.4883 290.1875 87.8008 Q290.6094 88.1133 291.3438 88.1133 Q292.0781 88.1133 292.4531 87.8164 Q292.8281 87.5195 292.9062 87.082 Q292.9844 86.6445 292.9844 85.6133 L292.9844 80.8633 L294.7188 80.8633 L294.7188 85.3789 Q294.7188 86.9258 294.5781 87.5664 Q294.4375 88.207 294.0547 88.6445 Q293.6719 89.082 293.0391 89.3398 Q292.4062 89.5977 291.3906 89.5977 Q290.1562 89.5977 289.5234 89.3164 Q288.8906 89.0352 288.5234 88.582 Q288.1562 88.1289 288.0312 87.6289 Q287.8594 86.8945 287.8594 85.4414 L287.8594 80.8633 ZM289.0625 79.457 L289.0625 78.0508 L290.4688 78.0508 L290.4688 79.457 L289.0625 79.457 ZM291.5781 79.457 L291.5781 78.0508 L293 78.0508 L293 79.457 L291.5781 79.457 ZM295.7969 89.457 L295.7969 80.8633 L297.4375 80.8633 L297.4375 83.957 Q298.2031 83.0977 299.25 83.0977 Q300.375 83.0977 301.125 83.918 Q301.875 84.7383 301.875 86.2852 Q301.875 87.8789 301.1094 88.7383 Q300.3438 89.5977 299.2656 89.5977 Q298.7344 89.5977 298.2188 89.332 Q297.7031 89.0664 297.3281 88.5352 L297.3281 89.457 L295.7969 89.457 ZM297.4219 86.207 Q297.4219 87.1758 297.7344 87.6445 Q298.1562 88.3008 298.875 88.3008 Q299.4062 88.3008 299.7969 87.832 Q300.1875 87.3633 300.1875 86.3633 Q300.1875 85.3008 299.7969 84.8242 Q299.4062 84.3477 298.7969 84.3477 Q298.2188 84.3477 297.8203 84.8086 Q297.4219 85.2695 297.4219 86.207 ZM306.4688 87.4727 L308.1094 87.7539 Q307.7969 88.6602 307.1094 89.1289 Q306.4219 89.5977 305.4062 89.5977 Q303.7812 89.5977 303 88.5352 Q302.375 87.6914 302.375 86.3945 Q302.375 84.8477 303.1875 83.9727 Q304 83.0977 305.2344 83.0977 Q306.625 83.0977 307.4297 84.0117 Q308.2344 84.9258 308.1875 86.8164 L304.0625 86.8164 Q304.0938 87.5508 304.4688 87.957 Q304.8438 88.3633 305.4219 88.3633 Q305.7969 88.3633 306.0625 88.1523 Q306.3281 87.9414 306.4688 87.4727 ZM306.5625 85.8164 Q306.5469 85.0977 306.1953 84.7227 Q305.8438 84.3477 305.3281 84.3477 Q304.7969 84.3477 304.4375 84.7383 Q304.0938 85.1445 304.0938 85.8164 L306.5625 85.8164 ZM311.4375 89.457 L309.7969 89.457 L309.7969 83.2383 L311.3281 83.2383 L311.3281 84.1133 Q311.7188 83.4883 312.0312 83.293 Q312.3438 83.0977 312.7344 83.0977 Q313.2969 83.0977 313.8281 83.4102 L313.3125 84.832 Q312.8906 84.5664 312.5469 84.5664 Q312.1875 84.5664 311.9531 84.7617 Q311.7188 84.957 311.5781 85.4492 Q311.4375 85.9414 311.4375 87.5352 L311.4375 89.457 ZM314.7344 83.2383 L316.25 83.2383 L316.25 84.082 Q317.0781 83.0977 318.2031 83.0977 Q318.7969 83.0977 319.2344 83.3398 Q319.6719 83.582 319.9531 84.082 Q320.3594 83.582 320.8359 83.3398 Q321.3125 83.0977 321.8594 83.0977 Q322.5312 83.0977 323.0078 83.3711 Q323.4844 83.6445 323.7188 84.1914 Q323.8906 84.582 323.8906 85.4727 L323.8906 89.457 L322.25 89.457 L322.25 85.8945 Q322.25 84.9727 322.0781 84.707 Q321.8438 84.3477 321.375 84.3477 Q321.0312 84.3477 320.7266 84.5586 Q320.4219 84.7695 320.2812 85.1758 Q320.1406 85.582 320.1406 86.4727 L320.1406 89.457 L318.5 89.457 L318.5 86.0508 Q318.5 85.1445 318.4141 84.8789 Q318.3281 84.6133 318.1406 84.4805 Q317.9531 84.3477 317.6406 84.3477 Q317.2656 84.3477 316.9609 84.5586 Q316.6562 84.7695 316.5234 85.1523 Q316.3906 85.5352 316.3906 86.4258 L316.3906 89.457 L314.7344 89.457 L314.7344 83.2383 ZM325.8594 82.3945 L325.8594 80.8633 L327.5156 80.8633 L327.5156 82.3945 L325.8594 82.3945 ZM325.8594 89.457 L325.8594 83.2383 L327.5156 83.2383 L327.5156 89.457 L325.8594 89.457 ZM331.7188 83.2383 L331.7188 84.5508 L330.5938 84.5508 L330.5938 87.0508 Q330.5938 87.8164 330.625 87.9414 Q330.6562 88.0664 330.7734 88.1523 Q330.8906 88.2383 331.0469 88.2383 Q331.2812 88.2383 331.7031 88.0664 L331.8438 89.3477 Q331.2812 89.5977 330.5469 89.5977 Q330.1094 89.5977 329.75 89.4492 Q329.3906 89.3008 329.2266 89.0586 Q329.0625 88.8164 328.9844 88.4258 Q328.9375 88.1289 328.9375 87.2539 L328.9375 84.5508 L328.1875 84.5508 L328.1875 83.2383 L328.9375 83.2383 L328.9375 82.0039 L330.5938 81.0352 L330.5938 83.2383 L331.7188 83.2383 ZM335.7188 83.2383 L335.7188 84.5508 L334.5938 84.5508 L334.5938 87.0508 Q334.5938 87.8164 334.625 87.9414 Q334.6562 88.0664 334.7734 88.1523 Q334.8906 88.2383 335.0469 88.2383 Q335.2812 88.2383 335.7031 88.0664 L335.8438 89.3477 Q335.2812 89.5977 334.5469 89.5977 Q334.1094 89.5977 333.75 89.4492 Q333.3906 89.3008 333.2266 89.0586 Q333.0625 88.8164 332.9844 88.4258 Q332.9375 88.1289 332.9375 87.2539 L332.9375 84.5508 L332.1875 84.5508 L332.1875 83.2383 L332.9375 83.2383 L332.9375 82.0039 L334.5938 81.0352 L334.5938 83.2383 L335.7188 83.2383 ZM336.8594 89.457 L336.8594 80.8633 L338.5156 80.8633 L338.5156 89.457 L336.8594 89.457 ZM343.9531 89.457 L343.9531 88.5195 Q343.625 89.0195 343.0703 89.3086 Q342.5156 89.5977 341.8906 89.5977 Q341.2656 89.5977 340.7656 89.3242 Q340.2656 89.0508 340.0469 88.5508 Q339.8281 88.0508 339.8281 87.1758 L339.8281 83.2383 L341.4688 83.2383 L341.4688 86.0977 Q341.4688 87.4102 341.5625 87.707 Q341.6562 88.0039 341.8984 88.1758 Q342.1406 88.3477 342.5 88.3477 Q342.9219 88.3477 343.2578 88.1133 Q343.5938 87.8789 343.7188 87.5352 Q343.8438 87.1914 343.8438 85.8633 L343.8438 83.2383 L345.4844 83.2383 L345.4844 89.457 L343.9531 89.457 ZM352.5156 89.457 L350.875 89.457 L350.875 86.2852 Q350.875 85.2695 350.7734 84.9727 Q350.6719 84.6758 350.4297 84.5117 Q350.1875 84.3477 349.8594 84.3477 Q349.4219 84.3477 349.0859 84.582 Q348.75 84.8164 348.625 85.207 Q348.5 85.5977 348.5 86.6445 L348.5 89.457 L346.8438 89.457 L346.8438 83.2383 L348.375 83.2383 L348.375 84.1445 Q349.1875 83.0977 350.4375 83.0977 Q350.9688 83.0977 351.4219 83.293 Q351.875 83.4883 352.1094 83.793 Q352.3438 84.0977 352.4297 84.4805 Q352.5156 84.8633 352.5156 85.582 L352.5156 89.457 ZM353.7031 89.8633 L355.5938 90.0977 Q355.6406 90.4258 355.8125 90.5508 Q356.0469 90.7227 356.5469 90.7227 Q357.1875 90.7227 357.5156 90.5352 Q357.7344 90.3945 357.8438 90.1133 Q357.9219 89.9102 357.9219 89.3633 L357.9219 88.4414 Q357.1719 89.457 356.0469 89.457 Q354.7969 89.457 354.0625 88.3945 Q353.5 87.5508 353.5 86.3164 Q353.5 84.7383 354.25 83.918 Q355 83.0977 356.125 83.0977 Q357.2656 83.0977 358.0156 84.1133 L358.0156 83.2383 L359.5625 83.2383 L359.5625 88.8164 Q359.5625 89.9258 359.3828 90.4648 Q359.2031 91.0039 358.875 91.3164 Q358.5469 91.6289 358 91.8086 Q357.4531 91.9883 356.6094 91.9883 Q355.0312 91.9883 354.3672 91.4414 Q353.7031 90.8945 353.7031 90.0664 Q353.7031 89.9883 353.7031 89.8633 ZM355.1875 86.2227 Q355.1875 87.207 355.5703 87.668 Q355.9531 88.1289 356.5156 88.1289 Q357.1094 88.1289 357.5312 87.6523 Q357.9531 87.1758 357.9531 86.2539 Q357.9531 85.2852 357.5547 84.8164 Q357.1562 84.3477 356.5469 84.3477 Q355.9531 84.3477 355.5703 84.8086 Q355.1875 85.2695 355.1875 86.2227 Z" clip-path="url(#clipPath2)" stroke="none"/><path fill="black" d="M315.5781 104.457 L313.0625 98.2383 L314.7969 98.2383 L315.9688 101.4102 L316.3125 102.4727 Q316.4375 102.0664 316.4688 101.9414 Q316.5625 101.6758 316.6562 101.4102 L317.8281 98.2383 L319.5312 98.2383 L317.0625 104.457 L315.5781 104.457 ZM319.4844 101.2539 Q319.4844 100.4414 319.8906 99.668 Q320.2969 98.8945 321.0312 98.4961 Q321.7656 98.0977 322.6875 98.0977 Q324.0938 98.0977 325 99.0117 Q325.9062 99.9258 325.9062 101.332 Q325.9062 102.7383 324.9922 103.668 Q324.0781 104.5977 322.7031 104.5977 Q321.8438 104.5977 321.0703 104.207 Q320.2969 103.8164 319.8906 103.0742 Q319.4844 102.332 319.4844 101.2539 ZM321.1719 101.3477 Q321.1719 102.2695 321.6094 102.7617 Q322.0469 103.2539 322.6875 103.2539 Q323.3438 103.2539 323.7734 102.7617 Q324.2031 102.2695 324.2031 101.332 Q324.2031 100.4258 323.7734 99.9336 Q323.3438 99.4414 322.6875 99.4414 Q322.0469 99.4414 321.6094 99.9336 Q321.1719 100.4258 321.1719 101.3477 ZM332.5156 104.457 L330.875 104.457 L330.875 101.2852 Q330.875 100.2695 330.7734 99.9727 Q330.6719 99.6758 330.4297 99.5117 Q330.1875 99.3477 329.8594 99.3477 Q329.4219 99.3477 329.0859 99.582 Q328.75 99.8164 328.625 100.207 Q328.5 100.5977 328.5 101.6445 L328.5 104.457 L326.8438 104.457 L326.8438 98.2383 L328.375 98.2383 L328.375 99.1445 Q329.1875 98.0977 330.4375 98.0977 Q330.9688 98.0977 331.4219 98.293 Q331.875 98.4883 332.1094 98.793 Q332.3438 99.0977 332.4297 99.4805 Q332.5156 99.8633 332.5156 100.582 L332.5156 104.457 Z" clip-path="url(#clipPath2)" stroke="none"/><path fill="black" d="M280.875 110.8633 L284.3125 110.8633 Q285.3281 110.8633 285.8281 110.9492 Q286.3281 111.0352 286.7266 111.3086 Q287.125 111.582 287.3906 112.0273 Q287.6562 112.4727 287.6562 113.0352 Q287.6562 113.6289 287.3281 114.1367 Q287 114.6445 286.4531 114.8945 Q287.2344 115.1133 287.6562 115.668 Q288.0781 116.2227 288.0781 116.9727 Q288.0781 117.5508 287.8047 118.1055 Q287.5312 118.6602 287.0625 118.9883 Q286.5938 119.3164 285.8906 119.3945 Q285.4688 119.4414 283.7969 119.457 L280.875 119.457 L280.875 110.8633 ZM282.6094 112.3008 L282.6094 114.2852 L283.75 114.2852 Q284.7656 114.2852 285.0156 114.2539 Q285.4531 114.207 285.7109 113.9492 Q285.9688 113.6914 285.9688 113.2695 Q285.9688 112.8789 285.75 112.6289 Q285.5312 112.3789 285.0938 112.332 Q284.8281 112.3008 283.6094 112.3008 L282.6094 112.3008 ZM282.6094 115.707 L282.6094 118.0039 L284.2188 118.0039 Q285.1562 118.0039 285.4062 117.957 Q285.7969 117.8789 286.0391 117.6133 Q286.2812 117.3477 286.2812 116.8789 Q286.2812 116.5039 286.0938 116.2305 Q285.9062 115.957 285.5547 115.832 Q285.2031 115.707 284.0156 115.707 L282.6094 115.707 ZM292.4688 117.4727 L294.1094 117.7539 Q293.7969 118.6602 293.1094 119.1289 Q292.4219 119.5977 291.4062 119.5977 Q289.7812 119.5977 289 118.5352 Q288.375 117.6914 288.375 116.3945 Q288.375 114.8477 289.1875 113.9727 Q290 113.0977 291.2344 113.0977 Q292.625 113.0977 293.4297 114.0117 Q294.2344 114.9258 294.1875 116.8164 L290.0625 116.8164 Q290.0938 117.5508 290.4688 117.957 Q290.8438 118.3633 291.4219 118.3633 Q291.7969 118.3633 292.0625 118.1523 Q292.3281 117.9414 292.4688 117.4727 ZM292.5625 115.8164 Q292.5469 115.0977 292.1953 114.7227 Q291.8438 114.3477 291.3281 114.3477 Q290.7969 114.3477 290.4375 114.7383 Q290.0938 115.1445 290.0938 115.8164 L292.5625 115.8164 ZM295.2812 117.6758 L296.9375 117.4258 Q297.0469 117.9102 297.3672 118.1602 Q297.6875 118.4102 298.2656 118.4102 Q298.9062 118.4102 299.2188 118.1758 Q299.4375 118.0039 299.4375 117.7383 Q299.4375 117.5508 299.3281 117.4258 Q299.2031 117.3008 298.7812 117.207 Q296.7812 116.7695 296.25 116.4102 Q295.5156 115.8945 295.5156 115.0039 Q295.5156 114.1914 296.1484 113.6445 Q296.7812 113.0977 298.125 113.0977 Q299.4062 113.0977 300.0312 113.5117 Q300.6562 113.9258 300.8906 114.7383 L299.3281 115.0195 Q299.2344 114.6602 298.9531 114.4648 Q298.6719 114.2695 298.1562 114.2695 Q297.5156 114.2695 297.2344 114.457 Q297.0469 114.582 297.0469 114.7852 Q297.0469 114.9727 297.2031 115.0977 Q297.4219 115.2539 298.7422 115.5508 Q300.0625 115.8477 300.5781 116.2852 Q301.0938 116.7227 301.0938 117.5039 Q301.0938 118.3633 300.3828 118.9805 Q299.6719 119.5977 298.2656 119.5977 Q297 119.5977 296.2578 119.082 Q295.5156 118.5664 295.2812 117.6758 ZM305.7188 113.2383 L305.7188 114.5508 L304.5938 114.5508 L304.5938 117.0508 Q304.5938 117.8164 304.625 117.9414 Q304.6562 118.0664 304.7734 118.1523 Q304.8906 118.2383 305.0469 118.2383 Q305.2812 118.2383 305.7031 118.0664 L305.8438 119.3477 Q305.2812 119.5977 304.5469 119.5977 Q304.1094 119.5977 303.75 119.4492 Q303.3906 119.3008 303.2266 119.0586 Q303.0625 118.8164 302.9844 118.4258 Q302.9375 118.1289 302.9375 117.2539 L302.9375 114.5508 L302.1875 114.5508 L302.1875 113.2383 L302.9375 113.2383 L302.9375 112.0039 L304.5938 111.0352 L304.5938 113.2383 L305.7188 113.2383 ZM308.0938 115.1289 L306.5938 114.8633 Q306.8438 113.957 307.4609 113.5273 Q308.0781 113.0977 309.2969 113.0977 Q310.3906 113.0977 310.9297 113.3555 Q311.4688 113.6133 311.6875 114.0117 Q311.9062 114.4102 311.9062 115.4883 L311.8906 117.4102 Q311.8906 118.2383 311.9688 118.6211 Q312.0469 119.0039 312.2656 119.457 L310.6406 119.457 Q310.5781 119.2852 310.4844 118.9727 Q310.4375 118.8164 310.4219 118.7695 Q310 119.1914 309.5234 119.3945 Q309.0469 119.5977 308.5 119.5977 Q307.5312 119.5977 306.9766 119.0742 Q306.4219 118.5508 306.4219 117.7539 Q306.4219 117.2227 306.6797 116.8164 Q306.9375 116.4102 307.3906 116.1836 Q307.8438 115.957 308.7031 115.8008 Q309.8438 115.582 310.2969 115.3945 L310.2969 115.2383 Q310.2969 114.7539 310.0625 114.5508 Q309.8281 114.3477 309.1719 114.3477 Q308.7344 114.3477 308.4922 114.5195 Q308.25 114.6914 308.0938 115.1289 ZM310.2969 116.4727 Q309.9844 116.5664 309.2969 116.7148 Q308.6094 116.8633 308.3906 117.0039 Q308.0781 117.2383 308.0781 117.582 Q308.0781 117.9258 308.3359 118.1836 Q308.5938 118.4414 308.9844 118.4414 Q309.4375 118.4414 309.8438 118.1445 Q310.1406 117.9258 310.2344 117.5977 Q310.2969 117.3945 310.2969 116.8008 L310.2969 116.4727 ZM319.5156 119.457 L317.875 119.457 L317.875 116.2852 Q317.875 115.2695 317.7734 114.9727 Q317.6719 114.6758 317.4297 114.5117 Q317.1875 114.3477 316.8594 114.3477 Q316.4219 114.3477 316.0859 114.582 Q315.75 114.8164 315.625 115.207 Q315.5 115.5977 315.5 116.6445 L315.5 119.457 L313.8438 119.457 L313.8438 113.2383 L315.375 113.2383 L315.375 114.1445 Q316.1875 113.0977 317.4375 113.0977 Q317.9688 113.0977 318.4219 113.293 Q318.875 113.4883 319.1094 113.793 Q319.3438 114.0977 319.4297 114.4805 Q319.5156 114.8633 319.5156 115.582 L319.5156 119.457 ZM326.5625 119.457 L325.0469 119.457 L325.0469 118.5352 Q324.6562 119.082 324.1406 119.3398 Q323.625 119.5977 323.0938 119.5977 Q322.0156 119.5977 321.2578 118.7305 Q320.5 117.8633 320.5 116.3164 Q320.5 114.7383 321.2422 113.918 Q321.9844 113.0977 323.125 113.0977 Q324.1562 113.0977 324.9219 113.957 L324.9219 110.8633 L326.5625 110.8633 L326.5625 119.457 ZM322.1719 116.207 Q322.1719 117.207 322.4531 117.6445 Q322.8438 118.3008 323.5625 118.3008 Q324.125 118.3008 324.5234 117.8164 Q324.9219 117.332 324.9219 116.3633 Q324.9219 115.3008 324.5391 114.8242 Q324.1562 114.3477 323.5469 114.3477 Q322.9688 114.3477 322.5703 114.8164 Q322.1719 115.2852 322.1719 116.207 ZM327.2812 117.6758 L328.9375 117.4258 Q329.0469 117.9102 329.3672 118.1602 Q329.6875 118.4102 330.2656 118.4102 Q330.9062 118.4102 331.2188 118.1758 Q331.4375 118.0039 331.4375 117.7383 Q331.4375 117.5508 331.3281 117.4258 Q331.2031 117.3008 330.7812 117.207 Q328.7812 116.7695 328.25 116.4102 Q327.5156 115.8945 327.5156 115.0039 Q327.5156 114.1914 328.1484 113.6445 Q328.7812 113.0977 330.125 113.0977 Q331.4062 113.0977 332.0312 113.5117 Q332.6562 113.9258 332.8906 114.7383 L331.3281 115.0195 Q331.2344 114.6602 330.9531 114.4648 Q330.6719 114.2695 330.1562 114.2695 Q329.5156 114.2695 329.2344 114.457 Q329.0469 114.582 329.0469 114.7852 Q329.0469 114.9727 329.2031 115.0977 Q329.4219 115.2539 330.7422 115.5508 Q332.0625 115.8477 332.5781 116.2852 Q333.0938 116.7227 333.0938 117.5039 Q333.0938 118.3633 332.3828 118.9805 Q331.6719 119.5977 330.2656 119.5977 Q329 119.5977 328.2578 119.082 Q327.5156 118.5664 327.2812 117.6758 ZM340.5625 119.457 L339.0469 119.457 L339.0469 118.5352 Q338.6562 119.082 338.1406 119.3398 Q337.625 119.5977 337.0938 119.5977 Q336.0156 119.5977 335.2578 118.7305 Q334.5 117.8633 334.5 116.3164 Q334.5 114.7383 335.2422 113.918 Q335.9844 113.0977 337.125 113.0977 Q338.1562 113.0977 338.9219 113.957 L338.9219 110.8633 L340.5625 110.8633 L340.5625 119.457 ZM336.1719 116.207 Q336.1719 117.207 336.4531 117.6445 Q336.8438 118.3008 337.5625 118.3008 Q338.125 118.3008 338.5234 117.8164 Q338.9219 117.332 338.9219 116.3633 Q338.9219 115.3008 338.5391 114.8242 Q338.1562 114.3477 337.5469 114.3477 Q336.9688 114.3477 336.5703 114.8164 Q336.1719 115.2852 336.1719 116.207 ZM343.0938 115.1289 L341.5938 114.8633 Q341.8438 113.957 342.4609 113.5273 Q343.0781 113.0977 344.2969 113.0977 Q345.3906 113.0977 345.9297 113.3555 Q346.4688 113.6133 346.6875 114.0117 Q346.9062 114.4102 346.9062 115.4883 L346.8906 117.4102 Q346.8906 118.2383 346.9688 118.6211 Q347.0469 119.0039 347.2656 119.457 L345.6406 119.457 Q345.5781 119.2852 345.4844 118.9727 Q345.4375 118.8164 345.4219 118.7695 Q345 119.1914 344.5234 119.3945 Q344.0469 119.5977 343.5 119.5977 Q342.5312 119.5977 341.9766 119.0742 Q341.4219 118.5508 341.4219 117.7539 Q341.4219 117.2227 341.6797 116.8164 Q341.9375 116.4102 342.3906 116.1836 Q342.8438 115.957 343.7031 115.8008 Q344.8438 115.582 345.2969 115.3945 L345.2969 115.2383 Q345.2969 114.7539 345.0625 114.5508 Q344.8281 114.3477 344.1719 114.3477 Q343.7344 114.3477 343.4922 114.5195 Q343.25 114.6914 343.0938 115.1289 ZM345.2969 116.4727 Q344.9844 116.5664 344.2969 116.7148 Q343.6094 116.8633 343.3906 117.0039 Q343.0781 117.2383 343.0781 117.582 Q343.0781 117.9258 343.3359 118.1836 Q343.5938 118.4414 343.9844 118.4414 Q344.4375 118.4414 344.8438 118.1445 Q345.1406 117.9258 345.2344 117.5977 Q345.2969 117.3945 345.2969 116.8008 L345.2969 116.4727 ZM351.7188 113.2383 L351.7188 114.5508 L350.5938 114.5508 L350.5938 117.0508 Q350.5938 117.8164 350.625 117.9414 Q350.6562 118.0664 350.7734 118.1523 Q350.8906 118.2383 351.0469 118.2383 Q351.2812 118.2383 351.7031 118.0664 L351.8438 119.3477 Q351.2812 119.5977 350.5469 119.5977 Q350.1094 119.5977 349.75 119.4492 Q349.3906 119.3008 349.2266 119.0586 Q349.0625 118.8164 348.9844 118.4258 Q348.9375 118.1289 348.9375 117.2539 L348.9375 114.5508 L348.1875 114.5508 L348.1875 113.2383 L348.9375 113.2383 L348.9375 112.0039 L350.5938 111.0352 L350.5938 113.2383 L351.7188 113.2383 ZM356.4688 117.4727 L358.1094 117.7539 Q357.7969 118.6602 357.1094 119.1289 Q356.4219 119.5977 355.4062 119.5977 Q353.7812 119.5977 353 118.5352 Q352.375 117.6914 352.375 116.3945 Q352.375 114.8477 353.1875 113.9727 Q354 113.0977 355.2344 113.0977 Q356.625 113.0977 357.4297 114.0117 Q358.2344 114.9258 358.1875 116.8164 L354.0625 116.8164 Q354.0938 117.5508 354.4688 117.957 Q354.8438 118.3633 355.4219 118.3633 Q355.7969 118.3633 356.0625 118.1523 Q356.3281 117.9414 356.4688 117.4727 ZM356.5625 115.8164 Q356.5469 115.0977 356.1953 114.7227 Q355.8438 114.3477 355.3281 114.3477 Q354.7969 114.3477 354.4375 114.7383 Q354.0938 115.1445 354.0938 115.8164 L356.5625 115.8164 ZM365.5156 119.457 L363.875 119.457 L363.875 116.2852 Q363.875 115.2695 363.7734 114.9727 Q363.6719 114.6758 363.4297 114.5117 Q363.1875 114.3477 362.8594 114.3477 Q362.4219 114.3477 362.0859 114.582 Q361.75 114.8164 361.625 115.207 Q361.5 115.5977 361.5 116.6445 L361.5 119.457 L359.8438 119.457 L359.8438 113.2383 L361.375 113.2383 L361.375 114.1445 Q362.1875 113.0977 363.4375 113.0977 Q363.9688 113.0977 364.4219 113.293 Q364.875 113.4883 365.1094 113.793 Q365.3438 114.0977 365.4297 114.4805 Q365.5156 114.8633 365.5156 115.582 L365.5156 119.457 Z" clip-path="url(#clipPath2)" stroke="none"/><path fill="black" d="M63.8438 121.457 L63.8438 112.8633 L66.4531 112.8633 L68 118.7227 L69.5469 112.8633 L72.1406 112.8633 L72.1406 121.457 L70.5312 121.457 L70.5312 114.6914 L68.8281 121.457 L67.1562 121.457 L65.4688 114.6914 L65.4688 121.457 L63.8438 121.457 ZM77.4688 119.4727 L79.1094 119.7539 Q78.7969 120.6602 78.1094 121.1289 Q77.4219 121.5977 76.4062 121.5977 Q74.7812 121.5977 74 120.5352 Q73.375 119.6914 73.375 118.3945 Q73.375 116.8477 74.1875 115.9727 Q75 115.0977 76.2344 115.0977 Q77.625 115.0977 78.4297 116.0117 Q79.2344 116.9258 79.1875 118.8164 L75.0625 118.8164 Q75.0938 119.5508 75.4688 119.957 Q75.8438 120.3633 76.4219 120.3633 Q76.7969 120.3633 77.0625 120.1523 Q77.3281 119.9414 77.4688 119.4727 ZM77.5625 117.8164 Q77.5469 117.0977 77.1953 116.7227 Q76.8438 116.3477 76.3281 116.3477 Q75.7969 116.3477 75.4375 116.7383 Q75.0938 117.1445 75.0938 117.8164 L77.5625 117.8164 ZM80.8594 121.457 L80.8594 112.8633 L82.5156 112.8633 L82.5156 121.457 L80.8594 121.457 ZM89.5625 121.457 L88.0469 121.457 L88.0469 120.5352 Q87.6562 121.082 87.1406 121.3398 Q86.625 121.5977 86.0938 121.5977 Q85.0156 121.5977 84.2578 120.7305 Q83.5 119.8633 83.5 118.3164 Q83.5 116.7383 84.2422 115.918 Q84.9844 115.0977 86.125 115.0977 Q87.1562 115.0977 87.9219 115.957 L87.9219 112.8633 L89.5625 112.8633 L89.5625 121.457 ZM85.1719 118.207 Q85.1719 119.207 85.4531 119.6445 Q85.8438 120.3008 86.5625 120.3008 Q87.125 120.3008 87.5234 119.8164 Q87.9219 119.332 87.9219 118.3633 Q87.9219 117.3008 87.5391 116.8242 Q87.1562 116.3477 86.5469 116.3477 Q85.9688 116.3477 85.5703 116.8164 Q85.1719 117.2852 85.1719 118.207 ZM94.4688 119.4727 L96.1094 119.7539 Q95.7969 120.6602 95.1094 121.1289 Q94.4219 121.5977 93.4062 121.5977 Q91.7812 121.5977 91 120.5352 Q90.375 119.6914 90.375 118.3945 Q90.375 116.8477 91.1875 115.9727 Q92 115.0977 93.2344 115.0977 Q94.625 115.0977 95.4297 116.0117 Q96.2344 116.9258 96.1875 118.8164 L92.0625 118.8164 Q92.0938 119.5508 92.4688 119.957 Q92.8438 120.3633 93.4219 120.3633 Q93.7969 120.3633 94.0625 120.1523 Q94.3281 119.9414 94.4688 119.4727 ZM94.5625 117.8164 Q94.5469 117.0977 94.1953 116.7227 Q93.8438 116.3477 93.3281 116.3477 Q92.7969 116.3477 92.4375 116.7383 Q92.0938 117.1445 92.0938 117.8164 L94.5625 117.8164 ZM97.7969 121.457 L97.7969 112.8633 L99.4375 112.8633 L99.4375 115.957 Q100.2031 115.0977 101.25 115.0977 Q102.375 115.0977 103.125 115.918 Q103.875 116.7383 103.875 118.2852 Q103.875 119.8789 103.1094 120.7383 Q102.3438 121.5977 101.2656 121.5977 Q100.7344 121.5977 100.2188 121.332 Q99.7031 121.0664 99.3281 120.5352 L99.3281 121.457 L97.7969 121.457 ZM99.4219 118.207 Q99.4219 119.1758 99.7344 119.6445 Q100.1562 120.3008 100.875 120.3008 Q101.4062 120.3008 101.7969 119.832 Q102.1875 119.3633 102.1875 118.3633 Q102.1875 117.3008 101.7969 116.8242 Q101.4062 116.3477 100.7969 116.3477 Q100.2188 116.3477 99.8203 116.8086 Q99.4219 117.2695 99.4219 118.207 ZM108.4688 119.4727 L110.1094 119.7539 Q109.7969 120.6602 109.1094 121.1289 Q108.4219 121.5977 107.4062 121.5977 Q105.7812 121.5977 105 120.5352 Q104.375 119.6914 104.375 118.3945 Q104.375 116.8477 105.1875 115.9727 Q106 115.0977 107.2344 115.0977 Q108.625 115.0977 109.4297 116.0117 Q110.2344 116.9258 110.1875 118.8164 L106.0625 118.8164 Q106.0938 119.5508 106.4688 119.957 Q106.8438 120.3633 107.4219 120.3633 Q107.7969 120.3633 108.0625 120.1523 Q108.3281 119.9414 108.4688 119.4727 ZM108.5625 117.8164 Q108.5469 117.0977 108.1953 116.7227 Q107.8438 116.3477 107.3281 116.3477 Q106.7969 116.3477 106.4375 116.7383 Q106.0938 117.1445 106.0938 117.8164 L108.5625 117.8164 ZM113.5 112.8633 L113.5 116.0195 Q114.2969 115.0977 115.4062 115.0977 Q115.9688 115.0977 116.4297 115.3086 Q116.8906 115.5195 117.125 115.8477 Q117.3594 116.1758 117.4375 116.5742 Q117.5156 116.9727 117.5156 117.8008 L117.5156 121.457 L115.875 121.457 L115.875 118.1758 Q115.875 117.1914 115.7812 116.9258 Q115.6875 116.6602 115.4531 116.5039 Q115.2188 116.3477 114.8594 116.3477 Q114.4531 116.3477 114.125 116.5508 Q113.7969 116.7539 113.6484 117.1523 Q113.5 117.5508 113.5 118.332 L113.5 121.457 L111.8594 121.457 L111.8594 112.8633 L113.5 112.8633 ZM118.4844 118.2539 Q118.4844 117.4414 118.8906 116.668 Q119.2969 115.8945 120.0312 115.4961 Q120.7656 115.0977 121.6875 115.0977 Q123.0938 115.0977 124 116.0117 Q124.9062 116.9258 124.9062 118.332 Q124.9062 119.7383 123.9922 120.668 Q123.0781 121.5977 121.7031 121.5977 Q120.8438 121.5977 120.0703 121.207 Q119.2969 120.8164 118.8906 120.0742 Q118.4844 119.332 118.4844 118.2539 ZM120.1719 118.3477 Q120.1719 119.2695 120.6094 119.7617 Q121.0469 120.2539 121.6875 120.2539 Q122.3438 120.2539 122.7734 119.7617 Q123.2031 119.2695 123.2031 118.332 Q123.2031 117.4258 122.7734 116.9336 Q122.3438 116.4414 121.6875 116.4414 Q121.0469 116.4414 120.6094 116.9336 Q120.1719 117.4258 120.1719 118.3477 ZM120.0625 113.457 L120.0625 112.0508 L121.4688 112.0508 L121.4688 113.457 L120.0625 113.457 ZM122.5781 113.457 L122.5781 112.0508 L124 112.0508 L124 113.457 L122.5781 113.457 ZM127.4375 121.457 L125.7969 121.457 L125.7969 115.2383 L127.3281 115.2383 L127.3281 116.1133 Q127.7188 115.4883 128.0312 115.293 Q128.3438 115.0977 128.7344 115.0977 Q129.2969 115.0977 129.8281 115.4102 L129.3125 116.832 Q128.8906 116.5664 128.5469 116.5664 Q128.1875 116.5664 127.9531 116.7617 Q127.7188 116.957 127.5781 117.4492 Q127.4375 117.9414 127.4375 119.5352 L127.4375 121.457 ZM136.5625 121.457 L135.0469 121.457 L135.0469 120.5352 Q134.6562 121.082 134.1406 121.3398 Q133.625 121.5977 133.0938 121.5977 Q132.0156 121.5977 131.2578 120.7305 Q130.5 119.8633 130.5 118.3164 Q130.5 116.7383 131.2422 115.918 Q131.9844 115.0977 133.125 115.0977 Q134.1562 115.0977 134.9219 115.957 L134.9219 112.8633 L136.5625 112.8633 L136.5625 121.457 ZM132.1719 118.207 Q132.1719 119.207 132.4531 119.6445 Q132.8438 120.3008 133.5625 120.3008 Q134.125 120.3008 134.5234 119.8164 Q134.9219 119.332 134.9219 118.3633 Q134.9219 117.3008 134.5391 116.8242 Q134.1562 116.3477 133.5469 116.3477 Q132.9688 116.3477 132.5703 116.8164 Q132.1719 117.2852 132.1719 118.207 ZM141.4688 119.4727 L143.1094 119.7539 Q142.7969 120.6602 142.1094 121.1289 Q141.4219 121.5977 140.4062 121.5977 Q138.7812 121.5977 138 120.5352 Q137.375 119.6914 137.375 118.3945 Q137.375 116.8477 138.1875 115.9727 Q139 115.0977 140.2344 115.0977 Q141.625 115.0977 142.4297 116.0117 Q143.2344 116.9258 143.1875 118.8164 L139.0625 118.8164 Q139.0938 119.5508 139.4688 119.957 Q139.8438 120.3633 140.4219 120.3633 Q140.7969 120.3633 141.0625 120.1523 Q141.3281 119.9414 141.4688 119.4727 ZM141.5625 117.8164 Q141.5469 117.0977 141.1953 116.7227 Q140.8438 116.3477 140.3281 116.3477 Q139.7969 116.3477 139.4375 116.7383 Q139.0938 117.1445 139.0938 117.8164 L141.5625 117.8164 Z" clip-path="url(#clipPath2)" stroke="none"/><line clip-path="url(#clipPath2)" fill="none" x1="104" x2="104" y1="87" y2="99" stroke="rgb(178,178,178)"/><line clip-path="url(#clipPath2)" fill="none" x1="88" x2="120" y1="93" y2="93" stroke="rgb(178,178,178)"/><line clip-path="url(#clipPath2)" fill="none" x1="88" x2="104" y1="110" y2="99" stroke="rgb(178,178,178)"/><line clip-path="url(#clipPath2)" fill="none" x1="120" x2="104" y1="110" y2="99" stroke="rgb(178,178,178)"/><line clip-path="url(#clipPath2)" fill="none" x1="105" x2="105" y1="87" y2="100" stroke="rgb(178,178,178)"/><line clip-path="url(#clipPath2)" fill="none" x1="89" x2="121" y1="94" y2="94" stroke="rgb(178,178,178)"/><line clip-path="url(#clipPath2)" fill="none" x1="89" x2="105" y1="111" y2="100" stroke="rgb(178,178,178)"/><line clip-path="url(#clipPath2)" fill="none" x1="121" x2="105" y1="111" y2="100" stroke="rgb(178,178,178)"/><circle fill="rgb(178,178,178)" r="5.5" clip-path="url(#clipPath2)" cx="105.5" cy="83.5" stroke="none"/><circle fill="url(#linearGradient3)" r="5.5" clip-path="url(#clipPath2)" cx="103.5" cy="81.5" stroke="none"/><circle fill="none" r="5.5" clip-path="url(#clipPath2)" cx="103.5" cy="81.5"/><line y2="98" fill="none" x1="103" clip-path="url(#clipPath2)" x2="103" y1="87"/><line y2="92" fill="none" x1="87" clip-path="url(#clipPath2)" x2="119" y1="92"/><line y2="98" fill="none" x1="87" clip-path="url(#clipPath2)" x2="103" y1="109"/><line y2="98" fill="none" x1="119" clip-path="url(#clipPath2)" x2="103" y1="109"/><path fill="none" d="M530 101 L396 101" clip-path="url(#clipPath2)"/><path fill="none" d="M250 101 L120 101" clip-path="url(#clipPath2)"/></g></g></svg>