<?xml version="1.0" encoding="UTF-8"?><svg xmlns="http://www.w3.org/2000/svg" width="617.640625" height="1210">
   <defs>
      <style type="text/css">
                        text {
                            font-family: 'Arial';
                            fill: black;
                        }
                        text.at {
                            font-family: 'Arial';
                            fill: rgb(242, 152, 0);
                        }
                        line {
                            stroke: black;
                        }
                        line.type-structure {
                            stroke: black;
                        }
                        line.type-structure-optional {
                            stroke: black;
                            stroke-dasharray: 4, 4;
                        }
                        rect.attribute-upper {
                            stroke: black;
                            fill: rgb(255, 239, 211);
                        }
                        rect.element-upper {
                            stroke: black;
                            fill: rgb(215, 227, 249);
                        }
                        rect.element-lower {
                            stroke: black;
                            fill: rgb(236, 242, 252);
                        }
                        a text {
                            fill: black;
                        } 
                    </style>
   </defs>
   <rect width="607.640625" height="1200" stroke-dasharray="3,3" rx="1" ry="1" style="stroke: grey;fill: white;"/>
   <text font-size="14" x="3.6" y="18" font-weight="bold">element hinweisnachricht.mitteilung.1500 (anonymous type)</text>
   <text font-size="12" x="3.6" y="34.8"> (extension of xmeld:type.Nachricht.G2G)</text>
   <g transform="translate(10,46)">
      <g transform="translate(55,0)">
         <rect width="265.109375" height="18" class="element-upper"/>
         <rect width="265.109375" height="18" y="18" class="element-lower"/>
         <text font-size="12" x="3.6" y="12" font-weight="bold">identifikation</text>
         <line x1="0" y1="18" x2="265.109375" y2="18"/>
         <text font-size="12" fill="grey" x="3.6" y="30">type</text>
         <line x1="31.753125" y1="18" x2="31.753125" y2="36"/>
         <text font-size="12" x="35.353125" y="30">xmeld:type.identifikation.hinweisnachricht</text>
         <g transform="translate(265.109375,0)"/>
      </g>
      <line x1="33" y1="18" x2="55" y2="18" class="type-structure-required"/>
      <text font-size="11" fill="black" x="53" y="16" text-anchor="end"/>
      <line x1="33" y1="18" x2="33" y2="18" class="type-structure-required"/>
      <g transform="translate(55,48)">
         <rect width="54.765625" height="18" class="element-upper"/>
         <rect width="54.765625" height="18" y="18" class="element-lower"/>
         <text font-size="12" x="3.6" y="12" font-weight="bold">hinweis</text>
         <line x1="0" y1="18" x2="54.765625" y2="18"/>
         <text font-size="12" fill="grey" x="3.6" y="30">type</text>
         <line x1="31.753125" y1="18" x2="31.753125" y2="36"/>
         <g transform="translate(54.765625,0)">
            <g transform="translate(55,0)">
               <rect width="54.765625" height="18" class="element-upper"/>
               <rect width="54.765625" height="18" y="18" class="element-lower"/>
               <text font-size="12" x="3.6" y="12" font-weight="bold">name</text>
               <line x1="0" y1="18" x2="54.765625" y2="18"/>
               <text font-size="12" fill="grey" x="3.6" y="30">type</text>
               <line x1="31.753125" y1="18" x2="31.753125" y2="36"/>
               <g transform="translate(54.765625,0)">
                  <g transform="translate(55,0)">
                     <rect width="235.703125" height="18" class="element-upper"/>
                     <rect width="235.703125" height="18" y="18" class="element-lower"/>
                     <text font-size="12" x="3.6" y="12" font-weight="bold">name.abweichend</text>
                     <line x1="0" y1="18" x2="235.703125" y2="18"/>
                     <text font-size="12" fill="grey" x="3.6" y="30">type</text>
                     <line x1="31.753125" y1="18" x2="31.753125" y2="36"/>
                     <text font-size="12" x="35.353125" y="30">xmeld:type.NameNatuerlichePerson</text>
                     <g transform="translate(235.703125,0)"/>
                  </g>
                  <line x1="33" y1="18" x2="55" y2="18" class="type-structure-required"/>
                  <text font-size="11" fill="black" x="53" y="16" text-anchor="end"/>
                  <line x1="33" y1="18" x2="33" y2="18" class="type-structure-required"/>
                  <g transform="translate(55,48)">
                     <rect width="235.703125" height="18" class="element-upper"/>
                     <rect width="235.703125" height="18" y="18" class="element-lower"/>
                     <text font-size="12" x="3.6" y="12" font-weight="bold">name.letzterStandMR</text>
                     <line x1="0" y1="18" x2="235.703125" y2="18"/>
                     <text font-size="12" fill="grey" x="3.6" y="30">type</text>
                     <line x1="31.753125" y1="18" x2="31.753125" y2="36"/>
                     <text font-size="12" x="35.353125" y="30">xmeld:type.NameNatuerlichePerson</text>
                     <g transform="translate(235.703125,0)"/>
                  </g>
                  <line x1="33" y1="66" x2="55" y2="66" class="type-structure-required"/>
                  <text font-size="11" fill="black" x="53" y="64" text-anchor="end"/>
                  <line x1="33" y1="18" x2="33" y2="66" class="type-structure-required"/>
                  <circle cx="15" cy="18" r="10" stroke="black" fill="rgb(251, 251, 251)"/>
                  <line x1="0" y1="18" x2="5" y2="18" class="type-structure-required"/>
                  <line x1="25" y1="18" x2="33" y2="18" class="type-structure-required"/>
                  <circle cx="10" cy="18" r="1.2" stroke="black" fill="black"/>
                  <circle cx="15" cy="18" r="1.2" stroke="black" fill="black"/>
                  <circle cx="20" cy="18" r="1.2" stroke="black" fill="black"/>
                  <line x1="7" y1="18" x2="23" y2="18"/>
               </g>
            </g>
            <line x1="33" y1="18" x2="55" y2="18" class="type-structure-required"/>
            <text font-size="11" fill="black" x="53" y="16" text-anchor="end"/>
            <line x1="33" y1="18" x2="33" y2="18" class="type-structure-required"/>
            <g transform="translate(55,96)">
               <rect width="87.221875" height="18" class="element-upper"/>
               <rect width="87.221875" height="18" y="18" class="element-lower"/>
               <text font-size="12" x="3.6" y="12" font-weight="bold">familienstand</text>
               <line x1="0" y1="18" x2="87.221875" y2="18"/>
               <text font-size="12" fill="grey" x="3.6" y="30">type</text>
               <line x1="31.753125" y1="18" x2="31.753125" y2="36"/>
               <g transform="translate(87.221875,0)">
                  <g transform="translate(55,0)">
                     <rect width="177.671875" height="18" class="element-upper"/>
                     <rect width="177.671875" height="18" y="18" class="element-lower"/>
                     <text font-size="12" x="3.6" y="12" font-weight="bold">familienstand.abweichend</text>
                     <line x1="0" y1="18" x2="177.671875" y2="18"/>
                     <text font-size="12" fill="grey" x="3.6" y="30">type</text>
                     <line x1="31.753125" y1="18" x2="31.753125" y2="36"/>
                     <text font-size="12" x="35.353125" y="30">xmeld:type.Familienstand</text>
                     <g transform="translate(177.671875,0)"/>
                  </g>
                  <line x1="33" y1="18" x2="55" y2="18" class="type-structure-required"/>
                  <text font-size="11" fill="black" x="53" y="16" text-anchor="end"/>
                  <line x1="33" y1="18" x2="33" y2="18" class="type-structure-required"/>
                  <g transform="translate(55,48)">
                     <rect width="178.26874999999998" height="18" class="element-upper"/>
                     <rect width="178.26874999999998" height="18" y="18" class="element-lower"/>
                     <text font-size="12" x="3.6" y="12" font-weight="bold">familienstand.letzterStandMR</text>
                     <line x1="0" y1="18" x2="178.26874999999998" y2="18"/>
                     <text font-size="12" fill="grey" x="3.6" y="30">type</text>
                     <line x1="31.753125" y1="18" x2="31.753125" y2="36"/>
                     <text font-size="12" x="35.353125" y="30">xmeld:type.Familienstand</text>
                     <g transform="translate(178.26874999999998,0)"/>
                  </g>
                  <line x1="33" y1="66" x2="55" y2="66" class="type-structure-required"/>
                  <text font-size="11" fill="black" x="53" y="64" text-anchor="end"/>
                  <line x1="33" y1="18" x2="33" y2="66" class="type-structure-required"/>
                  <circle cx="15" cy="18" r="10" stroke="black" fill="rgb(251, 251, 251)"/>
                  <line x1="0" y1="18" x2="5" y2="18" class="type-structure-required"/>
                  <line x1="25" y1="18" x2="33" y2="18" class="type-structure-required"/>
                  <circle cx="10" cy="18" r="1.2" stroke="black" fill="black"/>
                  <circle cx="15" cy="18" r="1.2" stroke="black" fill="black"/>
                  <circle cx="20" cy="18" r="1.2" stroke="black" fill="black"/>
                  <line x1="7" y1="18" x2="23" y2="18"/>
               </g>
            </g>
            <line x1="33" y1="114" x2="55" y2="114" class="type-structure-required"/>
            <text font-size="11" fill="black" x="53" y="112" text-anchor="end"/>
            <line x1="33" y1="18" x2="33" y2="114" class="type-structure-required"/>
            <g transform="translate(55,192)">
               <rect width="73.14375" height="18" class="element-upper"/>
               <rect width="73.14375" height="18" y="18" class="element-lower"/>
               <text font-size="12" x="3.6" y="12" font-weight="bold">geschlecht</text>
               <line x1="0" y1="18" x2="73.14375" y2="18"/>
               <text font-size="12" fill="grey" x="3.6" y="30">type</text>
               <line x1="31.753125" y1="18" x2="31.753125" y2="36"/>
               <g transform="translate(73.14375,0)">
                  <g transform="translate(55,0)">
                     <rect width="152.109375" height="18" class="element-upper"/>
                     <rect width="152.109375" height="18" y="18" class="element-lower"/>
                     <text font-size="12" x="3.6" y="12" font-weight="bold">geschlecht.abweichend</text>
                     <line x1="0" y1="18" x2="152.109375" y2="18"/>
                     <text font-size="12" fill="grey" x="3.6" y="30">type</text>
                     <line x1="31.753125" y1="18" x2="31.753125" y2="36"/>
                     <text font-size="12" x="35.353125" y="30">xig:Code.Geschlecht</text>
                     <g transform="translate(152.109375,0)"/>
                  </g>
                  <line x1="33" y1="18" x2="55" y2="18" class="type-structure-required"/>
                  <text font-size="11" fill="black" x="53" y="16" text-anchor="end"/>
                  <line x1="33" y1="18" x2="33" y2="18" class="type-structure-required"/>
                  <g transform="translate(55,48)">
                     <rect width="163.90937499999998" height="18" class="element-upper"/>
                     <rect width="163.90937499999998" height="18" y="18" class="element-lower"/>
                     <text font-size="12" x="3.6" y="12" font-weight="bold">geschlecht.letzterStandMR</text>
                     <line x1="0" y1="18" x2="163.90937499999998" y2="18"/>
                     <text font-size="12" fill="grey" x="3.6" y="30">type</text>
                     <line x1="31.753125" y1="18" x2="31.753125" y2="36"/>
                     <text font-size="12" x="35.353125" y="30">xig:Code.Geschlecht</text>
                     <g transform="translate(163.90937499999998,0)"/>
                  </g>
                  <line x1="33" y1="66" x2="55" y2="66" class="type-structure-required"/>
                  <text font-size="11" fill="black" x="53" y="64" text-anchor="end"/>
                  <line x1="33" y1="18" x2="33" y2="66" class="type-structure-required"/>
                  <circle cx="15" cy="18" r="10" stroke="black" fill="rgb(251, 251, 251)"/>
                  <line x1="0" y1="18" x2="5" y2="18" class="type-structure-required"/>
                  <line x1="25" y1="18" x2="33" y2="18" class="type-structure-required"/>
                  <circle cx="10" cy="18" r="1.2" stroke="black" fill="black"/>
                  <circle cx="15" cy="18" r="1.2" stroke="black" fill="black"/>
                  <circle cx="20" cy="18" r="1.2" stroke="black" fill="black"/>
                  <line x1="7" y1="18" x2="23" y2="18"/>
               </g>
            </g>
            <line x1="33" y1="210" x2="55" y2="210" class="type-structure-required"/>
            <text font-size="11" fill="black" x="53" y="208" text-anchor="end"/>
            <line x1="33" y1="114" x2="33" y2="210" class="type-structure-required"/>
            <g transform="translate(55,288)">
               <rect width="54.765625" height="18" class="element-upper"/>
               <rect width="54.765625" height="18" y="18" class="element-lower"/>
               <text font-size="12" x="3.6" y="12" font-weight="bold">geburt</text>
               <line x1="0" y1="18" x2="54.765625" y2="18"/>
               <text font-size="12" fill="grey" x="3.6" y="30">type</text>
               <line x1="31.753125" y1="18" x2="31.753125" y2="36"/>
               <g transform="translate(54.765625,0)">
                  <g transform="translate(55,0)">
                     <rect width="137.109375" height="18" class="element-upper"/>
                     <rect width="137.109375" height="18" y="18" class="element-lower"/>
                     <text font-size="12" x="3.6" y="12" font-weight="bold">geburt.abweichend</text>
                     <line x1="0" y1="18" x2="137.109375" y2="18"/>
                     <text font-size="12" fill="grey" x="3.6" y="30">type</text>
                     <line x1="31.753125" y1="18" x2="31.753125" y2="36"/>
                     <text font-size="12" x="35.353125" y="30">xmeld:type.Geburt</text>
                     <g transform="translate(137.109375,0)"/>
                  </g>
                  <line x1="33" y1="18" x2="55" y2="18" class="type-structure-required"/>
                  <text font-size="11" fill="black" x="53" y="16" text-anchor="end"/>
                  <line x1="33" y1="18" x2="33" y2="18" class="type-structure-required"/>
                  <g transform="translate(55,48)">
                     <rect width="137.90937499999998" height="18" class="element-upper"/>
                     <rect width="137.90937499999998" height="18" y="18" class="element-lower"/>
                     <text font-size="12" x="3.6" y="12" font-weight="bold">geburt.letzterStandMR</text>
                     <line x1="0" y1="18" x2="137.90937499999998" y2="18"/>
                     <text font-size="12" fill="grey" x="3.6" y="30">type</text>
                     <line x1="31.753125" y1="18" x2="31.753125" y2="36"/>
                     <text font-size="12" x="35.353125" y="30">xmeld:type.Geburt</text>
                     <g transform="translate(137.90937499999998,0)"/>
                  </g>
                  <line x1="33" y1="66" x2="55" y2="66" class="type-structure-required"/>
                  <text font-size="11" fill="black" x="53" y="64" text-anchor="end"/>
                  <line x1="33" y1="18" x2="33" y2="66" class="type-structure-required"/>
                  <circle cx="15" cy="18" r="10" stroke="black" fill="rgb(251, 251, 251)"/>
                  <line x1="0" y1="18" x2="5" y2="18" class="type-structure-required"/>
                  <line x1="25" y1="18" x2="33" y2="18" class="type-structure-required"/>
                  <circle cx="10" cy="18" r="1.2" stroke="black" fill="black"/>
                  <circle cx="15" cy="18" r="1.2" stroke="black" fill="black"/>
                  <circle cx="20" cy="18" r="1.2" stroke="black" fill="black"/>
                  <line x1="7" y1="18" x2="23" y2="18"/>
               </g>
            </g>
            <line x1="33" y1="306" x2="55" y2="306" class="type-structure-required"/>
            <text font-size="11" fill="black" x="53" y="304" text-anchor="end"/>
            <line x1="33" y1="210" x2="33" y2="306" class="type-structure-required"/>
            <g transform="translate(55,384)">
               <rect width="54.765625" height="18" class="element-upper"/>
               <rect width="54.765625" height="18" y="18" class="element-lower"/>
               <text font-size="12" x="3.6" y="12" font-weight="bold">tod</text>
               <line x1="0" y1="18" x2="54.765625" y2="18"/>
               <text font-size="12" fill="grey" x="3.6" y="30">type</text>
               <line x1="31.753125" y1="18" x2="31.753125" y2="36"/>
               <g transform="translate(54.765625,0)">
                  <g transform="translate(55,0)">
                     <rect width="119.671875" height="18" class="element-upper"/>
                     <rect width="119.671875" height="18" y="18" class="element-lower"/>
                     <text font-size="12" x="3.6" y="12" font-weight="bold">tod.abweichend</text>
                     <line x1="0" y1="18" x2="119.671875" y2="18"/>
                     <text font-size="12" fill="grey" x="3.6" y="30">type</text>
                     <line x1="31.753125" y1="18" x2="31.753125" y2="36"/>
                     <text font-size="12" x="35.353125" y="30">xmeld:type.Tod</text>
                     <g transform="translate(119.671875,0)"/>
                  </g>
                  <line x1="33" y1="18" x2="55" y2="18" class="type-structure-optional"/>
                  <text font-size="11" fill="black" x="53" y="16" text-anchor="end">0..1</text>
                  <line x1="33" y1="18" x2="33" y2="18" class="type-structure-optional"/>
                  <g transform="translate(55,48)">
                     <rect width="119.671875" height="18" class="element-upper"/>
                     <rect width="119.671875" height="18" y="18" class="element-lower"/>
                     <text font-size="12" x="3.6" y="12" font-weight="bold">tod.letzterStandMR</text>
                     <line x1="0" y1="18" x2="119.671875" y2="18"/>
                     <text font-size="12" fill="grey" x="3.6" y="30">type</text>
                     <line x1="31.753125" y1="18" x2="31.753125" y2="36"/>
                     <text font-size="12" x="35.353125" y="30">xmeld:type.Tod</text>
                     <g transform="translate(119.671875,0)"/>
                  </g>
                  <line x1="33" y1="66" x2="55" y2="66" class="type-structure-optional"/>
                  <text font-size="11" fill="black" x="53" y="64" text-anchor="end">0..1</text>
                  <line x1="33" y1="18" x2="33" y2="66" class="type-structure-optional"/>
                  <circle cx="15" cy="18" r="10" stroke="black" fill="rgb(251, 251, 251)"/>
                  <line x1="0" y1="18" x2="5" y2="18" class="type-structure-optional"/>
                  <line x1="25" y1="18" x2="33" y2="18" class="type-structure-optional"/>
                  <circle cx="10" cy="18" r="1.2" stroke="black" fill="black"/>
                  <circle cx="15" cy="18" r="1.2" stroke="black" fill="black"/>
                  <circle cx="20" cy="18" r="1.2" stroke="black" fill="black"/>
                  <line x1="7" y1="18" x2="23" y2="18"/>
               </g>
            </g>
            <line x1="33" y1="402" x2="55" y2="402" class="type-structure-required"/>
            <text font-size="11" fill="black" x="53" y="400" text-anchor="end"/>
            <line x1="33" y1="306" x2="33" y2="402" class="type-structure-required"/>
            <g transform="translate(55,480)">
               <rect width="54.765625" height="18" class="element-upper"/>
               <rect width="54.765625" height="18" y="18" class="element-lower"/>
               <text font-size="12" x="3.6" y="12" font-weight="bold">religion</text>
               <line x1="0" y1="18" x2="54.765625" y2="18"/>
               <text font-size="12" fill="grey" x="3.6" y="30">type</text>
               <line x1="31.753125" y1="18" x2="31.753125" y2="36"/>
               <g transform="translate(54.765625,0)">
                  <g transform="translate(55,0)">
                     <rect width="242.703125" height="18" class="element-upper"/>
                     <rect width="242.703125" height="18" y="18" class="element-lower"/>
                     <text font-size="12" x="3.6" y="12" font-weight="bold">religion.abweichend</text>
                     <line x1="0" y1="18" x2="242.703125" y2="18"/>
                     <text font-size="12" fill="grey" x="3.6" y="30">type</text>
                     <line x1="31.753125" y1="18" x2="31.753125" y2="36"/>
                     <text font-size="12" x="35.353125" y="30">xmeld:type.Hinweisnachricht.Religion</text>
                     <g transform="translate(242.703125,0)"/>
                  </g>
                  <line x1="33" y1="18" x2="55" y2="18" class="type-structure-required"/>
                  <text font-size="11" fill="black" x="53" y="16" text-anchor="end"/>
                  <line x1="33" y1="18" x2="33" y2="18" class="type-structure-required"/>
                  <g transform="translate(55,48)">
                     <rect width="242.703125" height="18" class="element-upper"/>
                     <rect width="242.703125" height="18" y="18" class="element-lower"/>
                     <text font-size="12" x="3.6" y="12" font-weight="bold">religion.letzterStandMR</text>
                     <line x1="0" y1="18" x2="242.703125" y2="18"/>
                     <text font-size="12" fill="grey" x="3.6" y="30">type</text>
                     <line x1="31.753125" y1="18" x2="31.753125" y2="36"/>
                     <text font-size="12" x="35.353125" y="30">xmeld:type.Hinweisnachricht.Religion</text>
                     <g transform="translate(242.703125,0)"/>
                  </g>
                  <line x1="33" y1="66" x2="55" y2="66" class="type-structure-required"/>
                  <text font-size="11" fill="black" x="53" y="64" text-anchor="end"/>
                  <line x1="33" y1="18" x2="33" y2="66" class="type-structure-required"/>
                  <circle cx="15" cy="18" r="10" stroke="black" fill="rgb(251, 251, 251)"/>
                  <line x1="0" y1="18" x2="5" y2="18" class="type-structure-required"/>
                  <line x1="25" y1="18" x2="33" y2="18" class="type-structure-required"/>
                  <circle cx="10" cy="18" r="1.2" stroke="black" fill="black"/>
                  <circle cx="15" cy="18" r="1.2" stroke="black" fill="black"/>
                  <circle cx="20" cy="18" r="1.2" stroke="black" fill="black"/>
                  <line x1="7" y1="18" x2="23" y2="18"/>
               </g>
            </g>
            <line x1="33" y1="498" x2="55" y2="498" class="type-structure-required"/>
            <text font-size="11" fill="black" x="53" y="496" text-anchor="end"/>
            <line x1="33" y1="402" x2="33" y2="498" class="type-structure-required"/>
            <g transform="translate(55,576)">
               <rect width="109.9875" height="18" class="element-upper"/>
               <rect width="109.9875" height="18" y="18" class="element-lower"/>
               <text font-size="12" x="3.6" y="12" font-weight="bold">wohnung.aktuelle</text>
               <line x1="0" y1="18" x2="109.9875" y2="18"/>
               <text font-size="12" fill="grey" x="3.6" y="30">type</text>
               <line x1="31.753125" y1="18" x2="31.753125" y2="36"/>
               <g transform="translate(109.9875,0)">
                  <g transform="translate(55,0)">
                     <rect width="182.31562499999998" height="18" class="element-upper"/>
                     <rect width="182.31562499999998" height="18" y="18" class="element-lower"/>
                     <text font-size="12" x="3.6" y="12" font-weight="bold">wohnung.aktuelle.abweichend</text>
                     <line x1="0" y1="18" x2="182.31562499999998" y2="18"/>
                     <text font-size="12" fill="grey" x="3.6" y="30">type</text>
                     <line x1="31.753125" y1="18" x2="31.753125" y2="36"/>
                     <text font-size="12" x="35.353125" y="30">xmeld:type.Wohnung</text>
                     <g transform="translate(182.31562499999998,0)"/>
                  </g>
                  <line x1="33" y1="18" x2="55" y2="18" class="type-structure-optional"/>
                  <text font-size="11" fill="black" x="53" y="16" text-anchor="end">0..*</text>
                  <line x1="33" y1="18" x2="33" y2="18" class="type-structure-optional"/>
                  <g transform="translate(55,48)">
                     <rect width="201.36249999999998" height="18" class="element-upper"/>
                     <rect width="201.36249999999998" height="18" y="18" class="element-lower"/>
                     <text font-size="12" x="3.6" y="12" font-weight="bold">wohnung.aktuelle.letzterStandMR</text>
                     <line x1="0" y1="18" x2="201.36249999999998" y2="18"/>
                     <text font-size="12" fill="grey" x="3.6" y="30">type</text>
                     <line x1="31.753125" y1="18" x2="31.753125" y2="36"/>
                     <text font-size="12" x="35.353125" y="30">xmeld:type.Wohnung</text>
                     <g transform="translate(201.36249999999998,0)"/>
                  </g>
                  <line x1="33" y1="66" x2="55" y2="66" class="type-structure-optional"/>
                  <text font-size="11" fill="black" x="53" y="64" text-anchor="end">0..*</text>
                  <line x1="33" y1="18" x2="33" y2="66" class="type-structure-optional"/>
                  <circle cx="15" cy="18" r="10" stroke="black" fill="rgb(251, 251, 251)"/>
                  <line x1="0" y1="18" x2="5" y2="18" class="type-structure-optional"/>
                  <line x1="25" y1="18" x2="33" y2="18" class="type-structure-optional"/>
                  <circle cx="10" cy="18" r="1.2" stroke="black" fill="black"/>
                  <circle cx="15" cy="18" r="1.2" stroke="black" fill="black"/>
                  <circle cx="20" cy="18" r="1.2" stroke="black" fill="black"/>
                  <line x1="7" y1="18" x2="23" y2="18"/>
               </g>
            </g>
            <line x1="33" y1="594" x2="55" y2="594" class="type-structure-required"/>
            <text font-size="11" fill="black" x="53" y="592" text-anchor="end"/>
            <line x1="33" y1="498" x2="33" y2="594" class="type-structure-required"/>
            <g transform="translate(55,672)">
               <rect width="54.765625" height="18" class="element-upper"/>
               <rect width="54.765625" height="18" y="18" class="element-lower"/>
               <text font-size="12" x="3.6" y="12" font-weight="bold">partner</text>
               <line x1="0" y1="18" x2="54.765625" y2="18"/>
               <text font-size="12" fill="grey" x="3.6" y="30">type</text>
               <line x1="31.753125" y1="18" x2="31.753125" y2="36"/>
               <g transform="translate(54.765625,0)">
                  <g transform="translate(55,0)">
                     <rect width="307.109375" height="18" class="element-upper"/>
                     <rect width="307.109375" height="18" y="18" class="element-lower"/>
                     <text font-size="12" x="3.6" y="12" font-weight="bold">partner.abweichend</text>
                     <line x1="0" y1="18" x2="307.109375" y2="18"/>
                     <text font-size="12" fill="grey" x="3.6" y="30">type</text>
                     <line x1="31.753125" y1="18" x2="31.753125" y2="36"/>
                     <text font-size="12" x="35.353125" y="30">xmeld:type.identifikation.partner.hinweisnachricht</text>
                     <g transform="translate(307.109375,0)"/>
                  </g>
                  <line x1="33" y1="18" x2="55" y2="18" class="type-structure-optional"/>
                  <text font-size="11" fill="black" x="53" y="16" text-anchor="end">0..1</text>
                  <line x1="33" y1="18" x2="33" y2="18" class="type-structure-optional"/>
                  <g transform="translate(55,48)">
                     <rect width="307.109375" height="18" class="element-upper"/>
                     <rect width="307.109375" height="18" y="18" class="element-lower"/>
                     <text font-size="12" x="3.6" y="12" font-weight="bold">partner.letzterStandMR</text>
                     <line x1="0" y1="18" x2="307.109375" y2="18"/>
                     <text font-size="12" fill="grey" x="3.6" y="30">type</text>
                     <line x1="31.753125" y1="18" x2="31.753125" y2="36"/>
                     <text font-size="12" x="35.353125" y="30">xmeld:type.identifikation.partner.hinweisnachricht</text>
                     <g transform="translate(307.109375,0)"/>
                  </g>
                  <line x1="33" y1="66" x2="55" y2="66" class="type-structure-optional"/>
                  <text font-size="11" fill="black" x="53" y="64" text-anchor="end">0..1</text>
                  <line x1="33" y1="18" x2="33" y2="66" class="type-structure-optional"/>
                  <circle cx="15" cy="18" r="10" stroke="black" fill="rgb(251, 251, 251)"/>
                  <line x1="0" y1="18" x2="5" y2="18" class="type-structure-optional"/>
                  <line x1="25" y1="18" x2="33" y2="18" class="type-structure-optional"/>
                  <circle cx="10" cy="18" r="1.2" stroke="black" fill="black"/>
                  <circle cx="15" cy="18" r="1.2" stroke="black" fill="black"/>
                  <circle cx="20" cy="18" r="1.2" stroke="black" fill="black"/>
                  <line x1="7" y1="18" x2="23" y2="18"/>
               </g>
            </g>
            <line x1="33" y1="690" x2="55" y2="690" class="type-structure-required"/>
            <text font-size="11" fill="black" x="53" y="688" text-anchor="end"/>
            <line x1="33" y1="594" x2="33" y2="690" class="type-structure-required"/>
            <g transform="translate(55,768)">
               <rect width="54.765625" height="18" class="element-upper"/>
               <rect width="54.765625" height="18" y="18" class="element-lower"/>
               <text font-size="12" x="3.6" y="12" font-weight="bold">kind</text>
               <line x1="0" y1="18" x2="54.765625" y2="18"/>
               <text font-size="12" fill="grey" x="3.6" y="30">type</text>
               <line x1="31.753125" y1="18" x2="31.753125" y2="36"/>
               <g transform="translate(54.765625,0)">
                  <g transform="translate(55,0)">
                     <rect width="291.109375" height="18" class="element-upper"/>
                     <rect width="291.109375" height="18" y="18" class="element-lower"/>
                     <text font-size="12" x="3.6" y="12" font-weight="bold">kind.abweichend</text>
                     <line x1="0" y1="18" x2="291.109375" y2="18"/>
                     <text font-size="12" fill="grey" x="3.6" y="30">type</text>
                     <line x1="31.753125" y1="18" x2="31.753125" y2="36"/>
                     <text font-size="12" x="35.353125" y="30">xmeld:type.identifikation.kind.hinweisnachricht</text>
                     <g transform="translate(291.109375,0)"/>
                  </g>
                  <line x1="33" y1="18" x2="55" y2="18" class="type-structure-optional"/>
                  <text font-size="11" fill="black" x="53" y="16" text-anchor="end">0..*</text>
                  <line x1="33" y1="18" x2="33" y2="18" class="type-structure-optional"/>
                  <g transform="translate(55,48)">
                     <rect width="291.109375" height="18" class="element-upper"/>
                     <rect width="291.109375" height="18" y="18" class="element-lower"/>
                     <text font-size="12" x="3.6" y="12" font-weight="bold">kind.letzterStandMR</text>
                     <line x1="0" y1="18" x2="291.109375" y2="18"/>
                     <text font-size="12" fill="grey" x="3.6" y="30">type</text>
                     <line x1="31.753125" y1="18" x2="31.753125" y2="36"/>
                     <text font-size="12" x="35.353125" y="30">xmeld:type.identifikation.kind.hinweisnachricht</text>
                     <g transform="translate(291.109375,0)"/>
                  </g>
                  <line x1="33" y1="66" x2="55" y2="66" class="type-structure-optional"/>
                  <text font-size="11" fill="black" x="53" y="64" text-anchor="end">0..*</text>
                  <line x1="33" y1="18" x2="33" y2="66" class="type-structure-optional"/>
                  <circle cx="15" cy="18" r="10" stroke="black" fill="rgb(251, 251, 251)"/>
                  <line x1="0" y1="18" x2="5" y2="18" class="type-structure-optional"/>
                  <line x1="25" y1="18" x2="33" y2="18" class="type-structure-optional"/>
                  <circle cx="10" cy="18" r="1.2" stroke="black" fill="black"/>
                  <circle cx="15" cy="18" r="1.2" stroke="black" fill="black"/>
                  <circle cx="20" cy="18" r="1.2" stroke="black" fill="black"/>
                  <line x1="7" y1="18" x2="23" y2="18"/>
               </g>
            </g>
            <line x1="33" y1="786" x2="55" y2="786" class="type-structure-required"/>
            <text font-size="11" fill="black" x="53" y="784" text-anchor="end"/>
            <line x1="33" y1="690" x2="33" y2="786" class="type-structure-required"/>
            <g transform="translate(55,864)">
               <rect width="101.471875" height="18" class="element-upper"/>
               <rect width="101.471875" height="18" y="18" class="element-lower"/>
               <text font-size="12" x="3.6" y="12" font-weight="bold">anderer.hinweis</text>
               <line x1="0" y1="18" x2="101.471875" y2="18"/>
               <text font-size="12" fill="grey" x="3.6" y="30">type</text>
               <line x1="31.753125" y1="18" x2="31.753125" y2="36"/>
               <g transform="translate(101.471875,0)">
                  <g transform="translate(55,0)">
                     <rect width="147.734375" height="18" class="element-upper"/>
                     <rect width="147.734375" height="18" y="18" class="element-lower"/>
                     <text font-size="12" x="3.6" y="12" font-weight="bold">hinweis.beschreibung</text>
                     <line x1="0" y1="18" x2="147.734375" y2="18"/>
                     <text font-size="12" fill="grey" x="3.6" y="30">type</text>
                     <line x1="31.753125" y1="18" x2="31.753125" y2="36"/>
                     <text font-size="12" x="35.353125" y="30">din91379:datatypeC</text>
                     <g transform="translate(147.734375,0)"/>
                  </g>
                  <line x1="33" y1="18" x2="55" y2="18" class="type-structure-required"/>
                  <text font-size="11" fill="black" x="53" y="16" text-anchor="end"/>
                  <line x1="33" y1="18" x2="33" y2="18" class="type-structure-required"/>
                  <g transform="translate(55,48)">
                     <rect width="147.734375" height="18" class="element-upper"/>
                     <rect width="147.734375" height="18" y="18" class="element-lower"/>
                     <text font-size="12" x="3.6" y="12" font-weight="bold">element.abweichend</text>
                     <line x1="0" y1="18" x2="147.734375" y2="18"/>
                     <text font-size="12" fill="grey" x="3.6" y="30">type</text>
                     <line x1="31.753125" y1="18" x2="31.753125" y2="36"/>
                     <text font-size="12" x="35.353125" y="30">din91379:datatypeC</text>
                     <g transform="translate(147.734375,0)"/>
                  </g>
                  <line x1="33" y1="66" x2="55" y2="66" class="type-structure-optional"/>
                  <text font-size="11" fill="black" x="53" y="64" text-anchor="end">0..1</text>
                  <line x1="33" y1="18" x2="33" y2="66" class="type-structure-optional"/>
                  <g transform="translate(55,96)">
                     <rect width="147.734375" height="18" class="element-upper"/>
                     <rect width="147.734375" height="18" y="18" class="element-lower"/>
                     <text font-size="12" x="3.6" y="12" font-weight="bold">element.letzterStandMR</text>
                     <line x1="0" y1="18" x2="147.734375" y2="18"/>
                     <text font-size="12" fill="grey" x="3.6" y="30">type</text>
                     <line x1="31.753125" y1="18" x2="31.753125" y2="36"/>
                     <text font-size="12" x="35.353125" y="30">din91379:datatypeC</text>
                     <g transform="translate(147.734375,0)"/>
                  </g>
                  <line x1="33" y1="114" x2="55" y2="114" class="type-structure-optional"/>
                  <text font-size="11" fill="black" x="53" y="112" text-anchor="end">0..1</text>
                  <line x1="33" y1="66" x2="33" y2="114" class="type-structure-optional"/>
                  <circle cx="15" cy="18" r="10" stroke="black" fill="rgb(251, 251, 251)"/>
                  <line x1="0" y1="18" x2="5" y2="18" class="type-structure-required"/>
                  <line x1="25" y1="18" x2="33" y2="18" class="type-structure-required"/>
                  <circle cx="10" cy="18" r="1.2" stroke="black" fill="black"/>
                  <circle cx="15" cy="18" r="1.2" stroke="black" fill="black"/>
                  <circle cx="20" cy="18" r="1.2" stroke="black" fill="black"/>
                  <line x1="7" y1="18" x2="23" y2="18"/>
               </g>
            </g>
            <line x1="33" y1="882" x2="55" y2="882" class="type-structure-required"/>
            <text font-size="11" fill="black" x="53" y="880" text-anchor="end"/>
            <line x1="33" y1="786" x2="33" y2="882" class="type-structure-required"/>
            <circle cx="15" cy="18" r="10" stroke="black" fill="rgb(251, 251, 251)"/>
            <line x1="0" y1="18" x2="5" y2="18" class="type-structure-required"/>
            <line x1="25" y1="18" x2="33" y2="18" class="type-structure-required"/>
            <circle cx="10" cy="18" r="1.2" stroke="black" fill="black"/>
            <circle cx="18" cy="14" r="1.2" stroke="black" fill="black"/>
            <circle cx="18" cy="18" r="1.2" stroke="black" fill="black"/>
            <circle cx="18" cy="22" r="1.2" stroke="black" fill="black"/>
            <line x1="10" y1="18" x2="18" y2="14"/>
         </g>
      </g>
      <line x1="33" y1="66" x2="55" y2="66" class="type-structure-required"/>
      <text font-size="11" fill="black" x="53" y="64" text-anchor="end"/>
      <line x1="33" y1="18" x2="33" y2="66" class="type-structure-required"/>
      <g transform="translate(55,1056)">
         <rect width="147.734375" height="18" class="element-upper"/>
         <rect width="147.734375" height="18" y="18" class="element-lower"/>
         <text font-size="12" x="3.6" y="12" font-weight="bold">erlaeuterung</text>
         <line x1="0" y1="18" x2="147.734375" y2="18"/>
         <text font-size="12" fill="grey" x="3.6" y="30">type</text>
         <line x1="31.753125" y1="18" x2="31.753125" y2="36"/>
         <text font-size="12" x="35.353125" y="30">din91379:datatypeC</text>
         <g transform="translate(147.734375,0)"/>
      </g>
      <line x1="33" y1="1074" x2="55" y2="1074" class="type-structure-required"/>
      <text font-size="11" fill="black" x="53" y="1072" text-anchor="end"/>
      <line x1="33" y1="66" x2="33" y2="1074" class="type-structure-required"/>
      <g transform="translate(55,1104)">
         <rect width="147.734375" height="18" class="element-upper"/>
         <rect width="147.734375" height="18" y="18" class="element-lower"/>
         <text font-size="12" x="3.6" y="12" font-weight="bold">fallkennzeichen</text>
         <line x1="0" y1="18" x2="147.734375" y2="18"/>
         <text font-size="12" fill="grey" x="3.6" y="30">type</text>
         <line x1="31.753125" y1="18" x2="31.753125" y2="36"/>
         <text font-size="12" x="35.353125" y="30">din91379:datatypeC</text>
         <g transform="translate(147.734375,0)"/>
      </g>
      <line x1="33" y1="1122" x2="55" y2="1122" class="type-structure-required"/>
      <text font-size="11" fill="black" x="53" y="1120" text-anchor="end"/>
      <line x1="33" y1="1074" x2="33" y2="1122" class="type-structure-required"/>
      <circle cx="15" cy="18" r="10" stroke="black" fill="rgb(251, 251, 251)"/>
      <line x1="0" y1="18" x2="5" y2="18" class="type-structure-required"/>
      <line x1="25" y1="18" x2="33" y2="18" class="type-structure-required"/>
      <circle cx="10" cy="18" r="1.2" stroke="black" fill="black"/>
      <circle cx="15" cy="18" r="1.2" stroke="black" fill="black"/>
      <circle cx="20" cy="18" r="1.2" stroke="black" fill="black"/>
      <line x1="7" y1="18" x2="23" y2="18"/>
   </g>
</svg>