<?xml version="1.0" encoding="UTF-8"?><svg xmlns="http://www.w3.org/2000/svg" width="564.6125" height="1102">
   <defs>
      <style type="text/css">
                        text {
                            font-family: 'Arial';
                            fill: black;
                        }
                        text.at {
                            font-family: 'Arial';
                            fill: rgb(242, 152, 0);
                        }
                        line {
                            stroke: black;
                        }
                        line.type-structure {
                            stroke: black;
                        }
                        line.type-structure-optional {
                            stroke: black;
                            stroke-dasharray: 4, 4;
                        }
                        rect.attribute-upper {
                            stroke: black;
                            fill: rgb(255, 239, 211);
                        }
                        rect.element-upper {
                            stroke: black;
                            fill: rgb(215, 227, 249);
                        }
                        rect.element-lower {
                            stroke: black;
                            fill: rgb(236, 242, 252);
                        }
                        a text {
                            fill: black;
                        } 
                    </style>
   </defs>
   <rect width="554.6125" height="1092" stroke-dasharray="3,3" rx="1" ry="1" style="stroke: grey;fill: white;"/>
   <text font-size="14" x="3.6" y="18" font-weight="bold">complexType type.rueckmeldung.auswertungauswaertigereglp.abweichungen</text>
   <g transform="translate(10,34)">
      <g transform="translate(55,0)">
         <rect width="86.89375" height="18" class="element-upper"/>
         <rect width="86.89375" height="18" y="18" class="element-lower"/>
         <text font-size="12" x="3.6" y="12" font-weight="bold">familienname</text>
         <line x1="0" y1="18" x2="86.89375" y2="18"/>
         <text font-size="12" fill="grey" x="3.6" y="30">type</text>
         <line x1="31.753125" y1="18" x2="31.753125" y2="36"/>
         <g transform="translate(86.89375,0)">
            <g transform="translate(55,0)">
               <rect width="163.48749999999998" height="18" class="element-upper"/>
               <rect width="163.48749999999998" height="18" y="18" class="element-lower"/>
               <text font-size="12" x="3.6" y="12" font-weight="bold">familienname.rueckmelder</text>
               <line x1="0" y1="18" x2="163.48749999999998" y2="18"/>
               <text font-size="12" fill="grey" x="3.6" y="30">type</text>
               <line x1="31.753125" y1="18" x2="31.753125" y2="36"/>
               <text font-size="12" x="35.353125" y="30">xmeld:type.Nachname</text>
               <g transform="translate(163.48749999999998,0)"/>
            </g>
            <line x1="33" y1="18" x2="55" y2="18" class="type-structure-required"/>
            <text font-size="11" fill="black" x="53" y="16" text-anchor="end"/>
            <line x1="33" y1="18" x2="33" y2="18" class="type-structure-required"/>
            <g transform="translate(55,48)">
               <rect width="160.03125" height="18" class="element-upper"/>
               <rect width="160.03125" height="18" y="18" class="element-lower"/>
               <text font-size="12" x="3.6" y="12" font-weight="bold">familienname.auswerter</text>
               <line x1="0" y1="18" x2="160.03125" y2="18"/>
               <text font-size="12" fill="grey" x="3.6" y="30">type</text>
               <line x1="31.753125" y1="18" x2="31.753125" y2="36"/>
               <text font-size="12" x="35.353125" y="30">xmeld:type.Nachname</text>
               <g transform="translate(160.03125,0)"/>
            </g>
            <line x1="33" y1="66" x2="55" y2="66" class="type-structure-required"/>
            <text font-size="11" fill="black" x="53" y="64" text-anchor="end"/>
            <line x1="33" y1="18" x2="33" y2="66" class="type-structure-required"/>
            <circle cx="15" cy="18" r="10" stroke="black" fill="rgb(251, 251, 251)"/>
            <line x1="0" y1="18" x2="5" y2="18" class="type-structure-required"/>
            <line x1="25" y1="18" x2="33" y2="18" class="type-structure-required"/>
            <circle cx="10" cy="18" r="1.2" stroke="black" fill="black"/>
            <circle cx="15" cy="18" r="1.2" stroke="black" fill="black"/>
            <circle cx="20" cy="18" r="1.2" stroke="black" fill="black"/>
            <line x1="7" y1="18" x2="23" y2="18"/>
         </g>
      </g>
      <line x1="33" y1="18" x2="55" y2="18" class="type-structure-optional"/>
      <text font-size="11" fill="black" x="53" y="16" text-anchor="end">0..1</text>
      <line x1="33" y1="18" x2="33" y2="18" class="type-structure-optional"/>
      <g transform="translate(55,96)">
         <rect width="169.50312499999998" height="18" class="element-upper"/>
         <rect width="169.50312499999998" height="18" y="18" class="element-lower"/>
         <text font-size="12" x="3.6" y="12" font-weight="bold">familienname.unstrukturiert</text>
         <line x1="0" y1="18" x2="169.50312499999998" y2="18"/>
         <text font-size="12" fill="grey" x="3.6" y="30">type</text>
         <line x1="31.753125" y1="18" x2="31.753125" y2="36"/>
         <g transform="translate(169.50312499999998,0)">
            <g transform="translate(55,0)">
               <rect width="254.109375" height="18" class="element-upper"/>
               <rect width="254.109375" height="18" y="18" class="element-lower"/>
               <text font-size="12" x="3.6" y="12" font-weight="bold">familienname.unstrukturiert.rueckmelder</text>
               <line x1="0" y1="18" x2="254.109375" y2="18"/>
               <text font-size="12" fill="grey" x="3.6" y="30">type</text>
               <line x1="31.753125" y1="18" x2="31.753125" y2="36"/>
               <text font-size="12" x="35.353125" y="30">xmeld:type.FamiliennameUnstrukturiert</text>
               <g transform="translate(254.109375,0)"/>
            </g>
            <line x1="33" y1="18" x2="55" y2="18" class="type-structure-optional"/>
            <text font-size="11" fill="black" x="53" y="16" text-anchor="end">0..1</text>
            <line x1="33" y1="18" x2="33" y2="18" class="type-structure-optional"/>
            <g transform="translate(55,48)">
               <rect width="254.109375" height="18" class="element-upper"/>
               <rect width="254.109375" height="18" y="18" class="element-lower"/>
               <text font-size="12" x="3.6" y="12" font-weight="bold">familienname.unstrukturiert.auswerter</text>
               <line x1="0" y1="18" x2="254.109375" y2="18"/>
               <text font-size="12" fill="grey" x="3.6" y="30">type</text>
               <line x1="31.753125" y1="18" x2="31.753125" y2="36"/>
               <text font-size="12" x="35.353125" y="30">xmeld:type.FamiliennameUnstrukturiert</text>
               <g transform="translate(254.109375,0)"/>
            </g>
            <line x1="33" y1="66" x2="55" y2="66" class="type-structure-optional"/>
            <text font-size="11" fill="black" x="53" y="64" text-anchor="end">0..1</text>
            <line x1="33" y1="18" x2="33" y2="66" class="type-structure-optional"/>
            <circle cx="15" cy="18" r="10" stroke="black" fill="rgb(251, 251, 251)"/>
            <line x1="0" y1="18" x2="5" y2="18" class="type-structure-optional"/>
            <line x1="25" y1="18" x2="33" y2="18" class="type-structure-optional"/>
            <circle cx="10" cy="18" r="1.2" stroke="black" fill="black"/>
            <circle cx="15" cy="18" r="1.2" stroke="black" fill="black"/>
            <circle cx="20" cy="18" r="1.2" stroke="black" fill="black"/>
            <line x1="7" y1="18" x2="23" y2="18"/>
         </g>
      </g>
      <line x1="33" y1="114" x2="55" y2="114" class="type-structure-optional"/>
      <text font-size="11" fill="black" x="53" y="112" text-anchor="end">0..1</text>
      <line x1="33" y1="18" x2="33" y2="114" class="type-structure-optional"/>
      <g transform="translate(55,192)">
         <rect width="85.534375" height="18" class="element-upper"/>
         <rect width="85.534375" height="18" y="18" class="element-lower"/>
         <text font-size="12" x="3.6" y="12" font-weight="bold">geburtsname</text>
         <line x1="0" y1="18" x2="85.534375" y2="18"/>
         <text font-size="12" fill="grey" x="3.6" y="30">type</text>
         <line x1="31.753125" y1="18" x2="31.753125" y2="36"/>
         <g transform="translate(85.534375,0)">
            <g transform="translate(55,0)">
               <rect width="162.12812499999998" height="18" class="element-upper"/>
               <rect width="162.12812499999998" height="18" y="18" class="element-lower"/>
               <text font-size="12" x="3.6" y="12" font-weight="bold">geburtsname.rueckmelder</text>
               <line x1="0" y1="18" x2="162.12812499999998" y2="18"/>
               <text font-size="12" fill="grey" x="3.6" y="30">type</text>
               <line x1="31.753125" y1="18" x2="31.753125" y2="36"/>
               <text font-size="12" x="35.353125" y="30">xmeld:type.Nachname</text>
               <g transform="translate(162.12812499999998,0)"/>
            </g>
            <line x1="33" y1="18" x2="55" y2="18" class="type-structure-optional"/>
            <text font-size="11" fill="black" x="53" y="16" text-anchor="end">0..1</text>
            <line x1="33" y1="18" x2="33" y2="18" class="type-structure-optional"/>
            <g transform="translate(55,48)">
               <rect width="160.03125" height="18" class="element-upper"/>
               <rect width="160.03125" height="18" y="18" class="element-lower"/>
               <text font-size="12" x="3.6" y="12" font-weight="bold">geburtsname.auswerter</text>
               <line x1="0" y1="18" x2="160.03125" y2="18"/>
               <text font-size="12" fill="grey" x="3.6" y="30">type</text>
               <line x1="31.753125" y1="18" x2="31.753125" y2="36"/>
               <text font-size="12" x="35.353125" y="30">xmeld:type.Nachname</text>
               <g transform="translate(160.03125,0)"/>
            </g>
            <line x1="33" y1="66" x2="55" y2="66" class="type-structure-optional"/>
            <text font-size="11" fill="black" x="53" y="64" text-anchor="end">0..1</text>
            <line x1="33" y1="18" x2="33" y2="66" class="type-structure-optional"/>
            <circle cx="15" cy="18" r="10" stroke="black" fill="rgb(251, 251, 251)"/>
            <line x1="0" y1="18" x2="5" y2="18" class="type-structure-optional"/>
            <line x1="25" y1="18" x2="33" y2="18" class="type-structure-optional"/>
            <circle cx="10" cy="18" r="1.2" stroke="black" fill="black"/>
            <circle cx="15" cy="18" r="1.2" stroke="black" fill="black"/>
            <circle cx="20" cy="18" r="1.2" stroke="black" fill="black"/>
            <line x1="7" y1="18" x2="23" y2="18"/>
         </g>
      </g>
      <line x1="33" y1="210" x2="55" y2="210" class="type-structure-optional"/>
      <text font-size="11" fill="black" x="53" y="208" text-anchor="end">0..1</text>
      <line x1="33" y1="114" x2="33" y2="210" class="type-structure-optional"/>
      <g transform="translate(55,288)">
         <rect width="168.14374999999998" height="18" class="element-upper"/>
         <rect width="168.14374999999998" height="18" y="18" class="element-lower"/>
         <text font-size="12" x="3.6" y="12" font-weight="bold">geburtsname.unstrukturiert</text>
         <line x1="0" y1="18" x2="168.14374999999998" y2="18"/>
         <text font-size="12" fill="grey" x="3.6" y="30">type</text>
         <line x1="31.753125" y1="18" x2="31.753125" y2="36"/>
         <g transform="translate(168.14374999999998,0)">
            <g transform="translate(55,0)">
               <rect width="244.12812499999998" height="18" class="element-upper"/>
               <rect width="244.12812499999998" height="18" y="18" class="element-lower"/>
               <text font-size="12" x="3.6" y="12" font-weight="bold">geburtsname.unstrukturiert.rueckmelder</text>
               <line x1="0" y1="18" x2="244.12812499999998" y2="18"/>
               <text font-size="12" fill="grey" x="3.6" y="30">type</text>
               <line x1="31.753125" y1="18" x2="31.753125" y2="36"/>
               <text font-size="12" x="35.353125" y="30">xian:AllgemeinerName</text>
               <g transform="translate(244.12812499999998,0)"/>
            </g>
            <line x1="33" y1="18" x2="55" y2="18" class="type-structure-optional"/>
            <text font-size="11" fill="black" x="53" y="16" text-anchor="end">0..1</text>
            <line x1="33" y1="18" x2="33" y2="18" class="type-structure-optional"/>
            <g transform="translate(55,48)">
               <rect width="230.12812499999998" height="18" class="element-upper"/>
               <rect width="230.12812499999998" height="18" y="18" class="element-lower"/>
               <text font-size="12" x="3.6" y="12" font-weight="bold">geburtsname.unstrukturiert.auswerter</text>
               <line x1="0" y1="18" x2="230.12812499999998" y2="18"/>
               <text font-size="12" fill="grey" x="3.6" y="30">type</text>
               <line x1="31.753125" y1="18" x2="31.753125" y2="36"/>
               <text font-size="12" x="35.353125" y="30">xian:AllgemeinerName</text>
               <g transform="translate(230.12812499999998,0)"/>
            </g>
            <line x1="33" y1="66" x2="55" y2="66" class="type-structure-optional"/>
            <text font-size="11" fill="black" x="53" y="64" text-anchor="end">0..1</text>
            <line x1="33" y1="18" x2="33" y2="66" class="type-structure-optional"/>
            <circle cx="15" cy="18" r="10" stroke="black" fill="rgb(251, 251, 251)"/>
            <line x1="0" y1="18" x2="5" y2="18" class="type-structure-optional"/>
            <line x1="25" y1="18" x2="33" y2="18" class="type-structure-optional"/>
            <circle cx="10" cy="18" r="1.2" stroke="black" fill="black"/>
            <circle cx="15" cy="18" r="1.2" stroke="black" fill="black"/>
            <circle cx="20" cy="18" r="1.2" stroke="black" fill="black"/>
            <line x1="7" y1="18" x2="23" y2="18"/>
         </g>
      </g>
      <line x1="33" y1="306" x2="55" y2="306" class="type-structure-optional"/>
      <text font-size="11" fill="black" x="53" y="304" text-anchor="end">0..1</text>
      <line x1="33" y1="210" x2="33" y2="306" class="type-structure-optional"/>
      <g transform="translate(55,384)">
         <rect width="67.253125" height="18" class="element-upper"/>
         <rect width="67.253125" height="18" y="18" class="element-lower"/>
         <text font-size="12" x="3.6" y="12" font-weight="bold">vornamen</text>
         <line x1="0" y1="18" x2="67.253125" y2="18"/>
         <text font-size="12" fill="grey" x="3.6" y="30">type</text>
         <line x1="31.753125" y1="18" x2="31.753125" y2="36"/>
         <g transform="translate(67.253125,0)">
            <g transform="translate(55,0)">
               <rect width="163.03125" height="18" class="element-upper"/>
               <rect width="163.03125" height="18" y="18" class="element-lower"/>
               <text font-size="12" x="3.6" y="12" font-weight="bold">vornamen.rueckmelder</text>
               <line x1="0" y1="18" x2="163.03125" y2="18"/>
               <text font-size="12" fill="grey" x="3.6" y="30">type</text>
               <line x1="31.753125" y1="18" x2="31.753125" y2="36"/>
               <text font-size="12" x="35.353125" y="30">xian:AllgemeinerName</text>
               <g transform="translate(163.03125,0)"/>
            </g>
            <line x1="33" y1="18" x2="55" y2="18" class="type-structure-required"/>
            <text font-size="11" fill="black" x="53" y="16" text-anchor="end"/>
            <line x1="33" y1="18" x2="33" y2="18" class="type-structure-required"/>
            <g transform="translate(55,48)">
               <rect width="163.03125" height="18" class="element-upper"/>
               <rect width="163.03125" height="18" y="18" class="element-lower"/>
               <text font-size="12" x="3.6" y="12" font-weight="bold">vornamen.auswerter</text>
               <line x1="0" y1="18" x2="163.03125" y2="18"/>
               <text font-size="12" fill="grey" x="3.6" y="30">type</text>
               <line x1="31.753125" y1="18" x2="31.753125" y2="36"/>
               <text font-size="12" x="35.353125" y="30">xian:AllgemeinerName</text>
               <g transform="translate(163.03125,0)"/>
            </g>
            <line x1="33" y1="66" x2="55" y2="66" class="type-structure-required"/>
            <text font-size="11" fill="black" x="53" y="64" text-anchor="end"/>
            <line x1="33" y1="18" x2="33" y2="66" class="type-structure-required"/>
            <circle cx="15" cy="18" r="10" stroke="black" fill="rgb(251, 251, 251)"/>
            <line x1="0" y1="18" x2="5" y2="18" class="type-structure-required"/>
            <line x1="25" y1="18" x2="33" y2="18" class="type-structure-required"/>
            <circle cx="10" cy="18" r="1.2" stroke="black" fill="black"/>
            <circle cx="15" cy="18" r="1.2" stroke="black" fill="black"/>
            <circle cx="20" cy="18" r="1.2" stroke="black" fill="black"/>
            <line x1="7" y1="18" x2="23" y2="18"/>
         </g>
      </g>
      <line x1="33" y1="402" x2="55" y2="402" class="type-structure-optional"/>
      <text font-size="11" fill="black" x="53" y="400" text-anchor="end">0..1</text>
      <line x1="33" y1="306" x2="33" y2="402" class="type-structure-optional"/>
      <g transform="translate(55,480)">
         <rect width="72.8625" height="18" class="element-upper"/>
         <rect width="72.8625" height="18" y="18" class="element-lower"/>
         <text font-size="12" x="3.6" y="12" font-weight="bold">doktorgrad</text>
         <line x1="0" y1="18" x2="72.8625" y2="18"/>
         <text font-size="12" fill="grey" x="3.6" y="30">type</text>
         <line x1="31.753125" y1="18" x2="31.753125" y2="36"/>
         <g transform="translate(72.8625,0)">
            <g transform="translate(55,0)">
               <rect width="159.671875" height="18" class="element-upper"/>
               <rect width="159.671875" height="18" y="18" class="element-lower"/>
               <text font-size="12" x="3.6" y="12" font-weight="bold">doktorgrad.rueckmelder</text>
               <line x1="0" y1="18" x2="159.671875" y2="18"/>
               <text font-size="12" fill="grey" x="3.6" y="30">type</text>
               <line x1="31.753125" y1="18" x2="31.753125" y2="36"/>
               <text font-size="12" x="35.353125" y="30">xmeld:type.Doktorgrad</text>
               <g transform="translate(159.671875,0)"/>
            </g>
            <line x1="33" y1="18" x2="55" y2="18" class="type-structure-optional"/>
            <text font-size="11" fill="black" x="53" y="16" text-anchor="end">0..1</text>
            <line x1="33" y1="18" x2="33" y2="18" class="type-structure-optional"/>
            <g transform="translate(55,48)">
               <rect width="159.671875" height="18" class="element-upper"/>
               <rect width="159.671875" height="18" y="18" class="element-lower"/>
               <text font-size="12" x="3.6" y="12" font-weight="bold">doktorgrad.auswerter</text>
               <line x1="0" y1="18" x2="159.671875" y2="18"/>
               <text font-size="12" fill="grey" x="3.6" y="30">type</text>
               <line x1="31.753125" y1="18" x2="31.753125" y2="36"/>
               <text font-size="12" x="35.353125" y="30">xmeld:type.Doktorgrad</text>
               <g transform="translate(159.671875,0)"/>
            </g>
            <line x1="33" y1="66" x2="55" y2="66" class="type-structure-optional"/>
            <text font-size="11" fill="black" x="53" y="64" text-anchor="end">0..1</text>
            <line x1="33" y1="18" x2="33" y2="66" class="type-structure-optional"/>
            <circle cx="15" cy="18" r="10" stroke="black" fill="rgb(251, 251, 251)"/>
            <line x1="0" y1="18" x2="5" y2="18" class="type-structure-optional"/>
            <line x1="25" y1="18" x2="33" y2="18" class="type-structure-optional"/>
            <circle cx="10" cy="18" r="1.2" stroke="black" fill="black"/>
            <circle cx="15" cy="18" r="1.2" stroke="black" fill="black"/>
            <circle cx="20" cy="18" r="1.2" stroke="black" fill="black"/>
            <line x1="7" y1="18" x2="23" y2="18"/>
         </g>
      </g>
      <line x1="33" y1="498" x2="55" y2="498" class="type-structure-optional"/>
      <text font-size="11" fill="black" x="53" y="496" text-anchor="end">0..1</text>
      <line x1="33" y1="402" x2="33" y2="498" class="type-structure-optional"/>
      <g transform="translate(55,576)">
         <rect width="89.190625" height="18" class="element-upper"/>
         <rect width="89.190625" height="18" y="18" class="element-lower"/>
         <text font-size="12" x="3.6" y="12" font-weight="bold">geburtsdatum</text>
         <line x1="0" y1="18" x2="89.190625" y2="18"/>
         <text font-size="12" fill="grey" x="3.6" y="30">type</text>
         <line x1="31.753125" y1="18" x2="31.753125" y2="36"/>
         <g transform="translate(89.190625,0)">
            <g transform="translate(55,0)">
               <rect width="177.078125" height="18" class="element-upper"/>
               <rect width="177.078125" height="18" y="18" class="element-lower"/>
               <text font-size="12" x="3.6" y="12" font-weight="bold">geburtsdatum.rueckmelder</text>
               <line x1="0" y1="18" x2="177.078125" y2="18"/>
               <text font-size="12" fill="grey" x="3.6" y="30">type</text>
               <line x1="31.753125" y1="18" x2="31.753125" y2="36"/>
               <text font-size="12" x="35.353125" y="30">xmeld:type.Geburtsdatum</text>
               <g transform="translate(177.078125,0)"/>
            </g>
            <line x1="33" y1="18" x2="55" y2="18" class="type-structure-required"/>
            <text font-size="11" fill="black" x="53" y="16" text-anchor="end"/>
            <line x1="33" y1="18" x2="33" y2="18" class="type-structure-required"/>
            <g transform="translate(55,48)">
               <rect width="177.078125" height="18" class="element-upper"/>
               <rect width="177.078125" height="18" y="18" class="element-lower"/>
               <text font-size="12" x="3.6" y="12" font-weight="bold">geburtsdatum.auswerter</text>
               <line x1="0" y1="18" x2="177.078125" y2="18"/>
               <text font-size="12" fill="grey" x="3.6" y="30">type</text>
               <line x1="31.753125" y1="18" x2="31.753125" y2="36"/>
               <text font-size="12" x="35.353125" y="30">xmeld:type.Geburtsdatum</text>
               <g transform="translate(177.078125,0)"/>
            </g>
            <line x1="33" y1="66" x2="55" y2="66" class="type-structure-required"/>
            <text font-size="11" fill="black" x="53" y="64" text-anchor="end"/>
            <line x1="33" y1="18" x2="33" y2="66" class="type-structure-required"/>
            <circle cx="15" cy="18" r="10" stroke="black" fill="rgb(251, 251, 251)"/>
            <line x1="0" y1="18" x2="5" y2="18" class="type-structure-required"/>
            <line x1="25" y1="18" x2="33" y2="18" class="type-structure-required"/>
            <circle cx="10" cy="18" r="1.2" stroke="black" fill="black"/>
            <circle cx="15" cy="18" r="1.2" stroke="black" fill="black"/>
            <circle cx="20" cy="18" r="1.2" stroke="black" fill="black"/>
            <line x1="7" y1="18" x2="23" y2="18"/>
         </g>
      </g>
      <line x1="33" y1="594" x2="55" y2="594" class="type-structure-optional"/>
      <text font-size="11" fill="black" x="53" y="592" text-anchor="end">0..1</text>
      <line x1="33" y1="498" x2="33" y2="594" class="type-structure-optional"/>
      <g transform="translate(55,672)">
         <rect width="73.14375" height="18" class="element-upper"/>
         <rect width="73.14375" height="18" y="18" class="element-lower"/>
         <text font-size="12" x="3.6" y="12" font-weight="bold">geschlecht</text>
         <line x1="0" y1="18" x2="73.14375" y2="18"/>
         <text font-size="12" fill="grey" x="3.6" y="30">type</text>
         <line x1="31.753125" y1="18" x2="31.753125" y2="36"/>
         <g transform="translate(73.14375,0)">
            <g transform="translate(55,0)">
               <rect width="152.109375" height="18" class="element-upper"/>
               <rect width="152.109375" height="18" y="18" class="element-lower"/>
               <text font-size="12" x="3.6" y="12" font-weight="bold">geschlecht.rueckmelder</text>
               <line x1="0" y1="18" x2="152.109375" y2="18"/>
               <text font-size="12" fill="grey" x="3.6" y="30">type</text>
               <line x1="31.753125" y1="18" x2="31.753125" y2="36"/>
               <text font-size="12" x="35.353125" y="30">xig:Code.Geschlecht</text>
               <g transform="translate(152.109375,0)"/>
            </g>
            <line x1="33" y1="18" x2="55" y2="18" class="type-structure-optional"/>
            <text font-size="11" fill="black" x="53" y="16" text-anchor="end">0..1</text>
            <line x1="33" y1="18" x2="33" y2="18" class="type-structure-optional"/>
            <g transform="translate(55,48)">
               <rect width="152.109375" height="18" class="element-upper"/>
               <rect width="152.109375" height="18" y="18" class="element-lower"/>
               <text font-size="12" x="3.6" y="12" font-weight="bold">geschlecht.auswerter</text>
               <line x1="0" y1="18" x2="152.109375" y2="18"/>
               <text font-size="12" fill="grey" x="3.6" y="30">type</text>
               <line x1="31.753125" y1="18" x2="31.753125" y2="36"/>
               <text font-size="12" x="35.353125" y="30">xig:Code.Geschlecht</text>
               <g transform="translate(152.109375,0)"/>
            </g>
            <line x1="33" y1="66" x2="55" y2="66" class="type-structure-optional"/>
            <text font-size="11" fill="black" x="53" y="64" text-anchor="end">0..1</text>
            <line x1="33" y1="18" x2="33" y2="66" class="type-structure-optional"/>
            <circle cx="15" cy="18" r="10" stroke="black" fill="rgb(251, 251, 251)"/>
            <line x1="0" y1="18" x2="5" y2="18" class="type-structure-optional"/>
            <line x1="25" y1="18" x2="33" y2="18" class="type-structure-optional"/>
            <circle cx="10" cy="18" r="1.2" stroke="black" fill="black"/>
            <circle cx="15" cy="18" r="1.2" stroke="black" fill="black"/>
            <circle cx="20" cy="18" r="1.2" stroke="black" fill="black"/>
            <line x1="7" y1="18" x2="23" y2="18"/>
         </g>
      </g>
      <line x1="33" y1="690" x2="55" y2="690" class="type-structure-optional"/>
      <text font-size="11" fill="black" x="53" y="688" text-anchor="end">0..1</text>
      <line x1="33" y1="594" x2="33" y2="690" class="type-structure-optional"/>
      <g transform="translate(55,768)">
         <rect width="62.315625000000004" height="18" class="element-upper"/>
         <rect width="62.315625000000004" height="18" y="18" class="element-lower"/>
         <text font-size="12" x="3.6" y="12" font-weight="bold">wohnung</text>
         <line x1="0" y1="18" x2="62.315625000000004" y2="18"/>
         <text font-size="12" fill="grey" x="3.6" y="30">type</text>
         <line x1="31.753125" y1="18" x2="31.753125" y2="36"/>
         <g transform="translate(62.315625000000004,0)">
            <g transform="translate(55,0)">
               <rect width="269.671875" height="18" class="element-upper"/>
               <rect width="269.671875" height="18" y="18" class="element-lower"/>
               <text font-size="12" x="3.6" y="12" font-weight="bold">wohnung.rueckmelder</text>
               <line x1="0" y1="18" x2="269.671875" y2="18"/>
               <text font-size="12" fill="grey" x="3.6" y="30">type</text>
               <line x1="31.753125" y1="18" x2="31.753125" y2="36"/>
               <text font-size="12" x="35.353125" y="30">xmeld:type.Wohnung.PartnerOhneAusland</text>
               <g transform="translate(269.671875,0)"/>
            </g>
            <line x1="33" y1="18" x2="55" y2="18" class="type-structure-optional"/>
            <text font-size="11" fill="black" x="53" y="16" text-anchor="end">0..1</text>
            <line x1="33" y1="18" x2="33" y2="18" class="type-structure-optional"/>
            <g transform="translate(55,48)">
               <rect width="196.015625" height="18" class="element-upper"/>
               <rect width="196.015625" height="18" y="18" class="element-lower"/>
               <text font-size="12" x="3.6" y="12" font-weight="bold">wohnung.auswerter</text>
               <line x1="0" y1="18" x2="196.015625" y2="18"/>
               <text font-size="12" fill="grey" x="3.6" y="30">type</text>
               <line x1="31.753125" y1="18" x2="31.753125" y2="36"/>
               <text font-size="12" x="35.353125" y="30">xmeld:type.Wohnung.Partner</text>
               <g transform="translate(196.015625,0)"/>
            </g>
            <line x1="33" y1="66" x2="55" y2="66" class="type-structure-optional"/>
            <text font-size="11" fill="black" x="53" y="64" text-anchor="end">0..1</text>
            <line x1="33" y1="18" x2="33" y2="66" class="type-structure-optional"/>
            <circle cx="15" cy="18" r="10" stroke="black" fill="rgb(251, 251, 251)"/>
            <line x1="0" y1="18" x2="5" y2="18" class="type-structure-optional"/>
            <line x1="25" y1="18" x2="33" y2="18" class="type-structure-optional"/>
            <circle cx="10" cy="18" r="1.2" stroke="black" fill="black"/>
            <circle cx="15" cy="18" r="1.2" stroke="black" fill="black"/>
            <circle cx="20" cy="18" r="1.2" stroke="black" fill="black"/>
            <line x1="7" y1="18" x2="23" y2="18"/>
         </g>
      </g>
      <line x1="33" y1="786" x2="55" y2="786" class="type-structure-optional"/>
      <text font-size="11" fill="black" x="53" y="784" text-anchor="end">0..1</text>
      <line x1="33" y1="690" x2="33" y2="786" class="type-structure-optional"/>
      <g transform="translate(55,864)">
         <rect width="120.034375" height="18" class="element-upper"/>
         <rect width="120.034375" height="18" y="18" class="element-lower"/>
         <text font-size="12" x="3.6" y="12" font-weight="bold">steueridentifikation</text>
         <line x1="0" y1="18" x2="120.034375" y2="18"/>
         <text font-size="12" fill="grey" x="3.6" y="30">type</text>
         <line x1="31.753125" y1="18" x2="31.753125" y2="36"/>
         <g transform="translate(120.034375,0)">
            <g transform="translate(55,0)">
               <rect width="203.703125" height="18" class="element-upper"/>
               <rect width="203.703125" height="18" y="18" class="element-lower"/>
               <text font-size="12" x="3.6" y="12" font-weight="bold">steueridentifikation.rueckmelder</text>
               <line x1="0" y1="18" x2="203.703125" y2="18"/>
               <text font-size="12" fill="grey" x="3.6" y="30">type</text>
               <line x1="31.753125" y1="18" x2="31.753125" y2="36"/>
               <text font-size="12" x="35.353125" y="30">xmeld:type.Steueridentifikation</text>
               <g transform="translate(203.703125,0)"/>
            </g>
            <line x1="33" y1="18" x2="55" y2="18" class="type-structure-optional"/>
            <text font-size="11" fill="black" x="53" y="16" text-anchor="end">0..1</text>
            <line x1="33" y1="18" x2="33" y2="18" class="type-structure-optional"/>
            <g transform="translate(55,48)">
               <rect width="203.703125" height="18" class="element-upper"/>
               <rect width="203.703125" height="18" y="18" class="element-lower"/>
               <text font-size="12" x="3.6" y="12" font-weight="bold">steueridentifikation.auswerter</text>
               <line x1="0" y1="18" x2="203.703125" y2="18"/>
               <text font-size="12" fill="grey" x="3.6" y="30">type</text>
               <line x1="31.753125" y1="18" x2="31.753125" y2="36"/>
               <text font-size="12" x="35.353125" y="30">xmeld:type.Steueridentifikation</text>
               <g transform="translate(203.703125,0)"/>
            </g>
            <line x1="33" y1="66" x2="55" y2="66" class="type-structure-optional"/>
            <text font-size="11" fill="black" x="53" y="64" text-anchor="end">0..1</text>
            <line x1="33" y1="18" x2="33" y2="66" class="type-structure-optional"/>
            <circle cx="15" cy="18" r="10" stroke="black" fill="rgb(251, 251, 251)"/>
            <line x1="0" y1="18" x2="5" y2="18" class="type-structure-optional"/>
            <line x1="25" y1="18" x2="33" y2="18" class="type-structure-optional"/>
            <circle cx="10" cy="18" r="1.2" stroke="black" fill="black"/>
            <circle cx="15" cy="18" r="1.2" stroke="black" fill="black"/>
            <circle cx="20" cy="18" r="1.2" stroke="black" fill="black"/>
            <line x1="7" y1="18" x2="23" y2="18"/>
         </g>
      </g>
      <line x1="33" y1="882" x2="55" y2="882" class="type-structure-optional"/>
      <text font-size="11" fill="black" x="53" y="880" text-anchor="end">0..1</text>
      <line x1="33" y1="786" x2="33" y2="882" class="type-structure-optional"/>
      <g transform="translate(55,960)">
         <rect width="104.6125" height="18" class="element-upper"/>
         <rect width="104.6125" height="18" y="18" class="element-lower"/>
         <text font-size="12" x="3.6" y="12" font-weight="bold">auskunftssperre</text>
         <line x1="0" y1="18" x2="104.6125" y2="18"/>
         <text font-size="12" fill="grey" x="3.6" y="30">type</text>
         <line x1="31.753125" y1="18" x2="31.753125" y2="36"/>
         <g transform="translate(104.6125,0)">
            <g transform="translate(55,0)">
               <rect width="209.79999999999998" height="18" class="element-upper"/>
               <rect width="209.79999999999998" height="18" y="18" class="element-lower"/>
               <text font-size="12" x="3.6" y="12" font-weight="bold">uebermittlungssperre.rueckmelder</text>
               <line x1="0" y1="18" x2="209.79999999999998" y2="18"/>
               <text font-size="12" fill="grey" x="3.6" y="30">type</text>
               <line x1="31.753125" y1="18" x2="31.753125" y2="36"/>
               <text font-size="12" x="35.353125" y="30">xmeld:type.Auskunftssperre</text>
               <g transform="translate(209.79999999999998,0)"/>
            </g>
            <line x1="33" y1="18" x2="55" y2="18" class="type-structure-optional"/>
            <text font-size="11" fill="black" x="53" y="16" text-anchor="end">0..1</text>
            <line x1="33" y1="18" x2="33" y2="18" class="type-structure-optional"/>
            <g transform="translate(55,48)">
               <rect width="195.79999999999998" height="18" class="element-upper"/>
               <rect width="195.79999999999998" height="18" y="18" class="element-lower"/>
               <text font-size="12" x="3.6" y="12" font-weight="bold">uebermittlungssperre.auswerter</text>
               <line x1="0" y1="18" x2="195.79999999999998" y2="18"/>
               <text font-size="12" fill="grey" x="3.6" y="30">type</text>
               <line x1="31.753125" y1="18" x2="31.753125" y2="36"/>
               <text font-size="12" x="35.353125" y="30">xmeld:type.Auskunftssperre</text>
               <g transform="translate(195.79999999999998,0)"/>
            </g>
            <line x1="33" y1="66" x2="55" y2="66" class="type-structure-optional"/>
            <text font-size="11" fill="black" x="53" y="64" text-anchor="end">0..1</text>
            <line x1="33" y1="18" x2="33" y2="66" class="type-structure-optional"/>
            <circle cx="15" cy="18" r="10" stroke="black" fill="rgb(251, 251, 251)"/>
            <line x1="0" y1="18" x2="5" y2="18" class="type-structure-optional"/>
            <line x1="25" y1="18" x2="33" y2="18" class="type-structure-optional"/>
            <circle cx="10" cy="18" r="1.2" stroke="black" fill="black"/>
            <circle cx="15" cy="18" r="1.2" stroke="black" fill="black"/>
            <circle cx="20" cy="18" r="1.2" stroke="black" fill="black"/>
            <line x1="7" y1="18" x2="23" y2="18"/>
         </g>
      </g>
      <line x1="33" y1="978" x2="55" y2="978" class="type-structure-optional"/>
      <text font-size="11" fill="black" x="53" y="976" text-anchor="end">0..2</text>
      <line x1="33" y1="882" x2="33" y2="978" class="type-structure-optional"/>
      <circle cx="15" cy="18" r="10" stroke="black" fill="rgb(251, 251, 251)"/>
      <line x1="0" y1="18" x2="5" y2="18" class="type-structure-optional"/>
      <line x1="25" y1="18" x2="33" y2="18" class="type-structure-optional"/>
      <circle cx="10" cy="18" r="1.2" stroke="black" fill="black"/>
      <circle cx="15" cy="18" r="1.2" stroke="black" fill="black"/>
      <circle cx="20" cy="18" r="1.2" stroke="black" fill="black"/>
      <line x1="7" y1="18" x2="23" y2="18"/>
   </g>
</svg>