<?xml version="1.0" encoding="UTF-8"?><svg xmlns="http://www.w3.org/2000/svg" width="496.26875" height="478">
   <defs>
      <style type="text/css">
                        text {
                            font-family: 'Arial';
                            fill: black;
                        }
                        text.at {
                            font-family: 'Arial';
                            fill: rgb(242, 152, 0);
                        }
                        line {
                            stroke: black;
                        }
                        line.type-structure {
                            stroke: black;
                        }
                        line.type-structure-optional {
                            stroke: black;
                            stroke-dasharray: 4, 4;
                        }
                        rect.attribute-upper {
                            stroke: black;
                            fill: rgb(255, 239, 211);
                        }
                        rect.element-upper {
                            stroke: black;
                            fill: rgb(215, 227, 249);
                        }
                        rect.element-lower {
                            stroke: black;
                            fill: rgb(236, 242, 252);
                        }
                        a text {
                            fill: black;
                        } 
                    </style>
   </defs>
   <rect width="486.26875" height="468" stroke-dasharray="3,3" rx="1" ry="1" style="stroke: grey;fill: white;"/>
   <text font-size="14" x="3.6" y="18" font-weight="bold">complexType type.Kunde</text>
   <g transform="translate(10,34)">
      <g transform="translate(55,0)">
         <rect width="119.565625" height="18" class="element-upper"/>
         <rect width="119.565625" height="18" y="18" class="element-lower"/>
         <text font-size="12" x="3.6" y="12" font-weight="bold">kunde.bezeichnung</text>
         <line x1="0" y1="18" x2="119.565625" y2="18"/>
         <text font-size="12" fill="grey" x="3.6" y="30">type</text>
         <line x1="31.753125" y1="18" x2="31.753125" y2="36"/>
         <g transform="translate(119.565625,0)">
            <g transform="translate(55,0)">
               <rect width="235.703125" height="18" class="element-upper"/>
               <rect width="235.703125" height="18" y="18" class="element-lower"/>
               <text font-size="12" x="3.6" y="12" font-weight="bold">NAMENATUERLICHEPERSON</text>
               <line x1="0" y1="18" x2="235.703125" y2="18"/>
               <text font-size="12" fill="grey" x="3.6" y="30">type</text>
               <line x1="31.753125" y1="18" x2="31.753125" y2="36"/>
               <text font-size="12" x="35.353125" y="30">xmeld:type.NameNatuerlichePerson</text>
               <g transform="translate(235.703125,0)"/>
            </g>
            <line x1="33" y1="18" x2="55" y2="18" class="type-structure-required"/>
            <text font-size="11" fill="black" x="53" y="16" text-anchor="end"/>
            <line x1="33" y1="18" x2="33" y2="18" class="type-structure-required"/>
            <g transform="translate(55,48)">
               <rect width="232.703125" height="18" class="element-upper"/>
               <rect width="232.703125" height="18" y="18" class="element-lower"/>
               <text font-size="12" x="3.6" y="12" font-weight="bold">NAMEJURISTISCHEPERSON</text>
               <line x1="0" y1="18" x2="232.703125" y2="18"/>
               <text font-size="12" fill="grey" x="3.6" y="30">type</text>
               <line x1="31.753125" y1="18" x2="31.753125" y2="36"/>
               <text font-size="12" x="35.353125" y="30">xmeld:type.NameJuristischePerson</text>
               <g transform="translate(232.703125,0)"/>
            </g>
            <line x1="33" y1="66" x2="55" y2="66" class="type-structure-required"/>
            <text font-size="11" fill="black" x="53" y="64" text-anchor="end"/>
            <line x1="33" y1="18" x2="33" y2="66" class="type-structure-required"/>
            <circle cx="15" cy="18" r="10" stroke="black" fill="rgb(251, 251, 251)"/>
            <line x1="0" y1="18" x2="5" y2="18" class="type-structure-required"/>
            <line x1="25" y1="18" x2="33" y2="18" class="type-structure-required"/>
            <circle cx="10" cy="18" r="1.2" stroke="black" fill="black"/>
            <circle cx="18" cy="14" r="1.2" stroke="black" fill="black"/>
            <circle cx="18" cy="18" r="1.2" stroke="black" fill="black"/>
            <circle cx="18" cy="22" r="1.2" stroke="black" fill="black"/>
            <line x1="10" y1="18" x2="18" y2="14"/>
         </g>
      </g>
      <line x1="33" y1="18" x2="55" y2="18" class="type-structure-optional"/>
      <text font-size="11" fill="black" x="53" y="16" text-anchor="end">0..1</text>
      <line x1="33" y1="18" x2="33" y2="18" class="type-structure-optional"/>
      <g transform="translate(55,96)">
         <rect width="147.734375" height="18" class="element-upper"/>
         <rect width="147.734375" height="18" y="18" class="element-lower"/>
         <text font-size="12" x="3.6" y="12" font-weight="bold">kundennummer</text>
         <line x1="0" y1="18" x2="147.734375" y2="18"/>
         <text font-size="12" fill="grey" x="3.6" y="30">type</text>
         <line x1="31.753125" y1="18" x2="31.753125" y2="36"/>
         <text font-size="12" x="35.353125" y="30">din91379:datatypeC</text>
         <g transform="translate(147.734375,0)"/>
      </g>
      <line x1="33" y1="114" x2="55" y2="114" class="type-structure-optional"/>
      <text font-size="11" fill="black" x="53" y="112" text-anchor="end">0..1</text>
      <line x1="33" y1="18" x2="33" y2="114" class="type-structure-optional"/>
      <g transform="translate(55,144)">
         <rect width="215.109375" height="18" class="element-upper"/>
         <rect width="215.109375" height="18" y="18" class="element-lower"/>
         <text font-size="12" x="3.6" y="12" font-weight="bold">ORGANISATIONSEINHEIT</text>
         <line x1="0" y1="18" x2="215.109375" y2="18"/>
         <text font-size="12" fill="grey" x="3.6" y="30">type</text>
         <line x1="31.753125" y1="18" x2="31.753125" y2="36"/>
         <text font-size="12" x="35.353125" y="30">xmeld:type.Organisationseinheit</text>
         <g transform="translate(215.109375,0)"/>
      </g>
      <line x1="33" y1="162" x2="55" y2="162" class="type-structure-optional"/>
      <text font-size="11" fill="black" x="53" y="160" text-anchor="end">0..*</text>
      <line x1="33" y1="114" x2="33" y2="162" class="type-structure-optional"/>
      <g transform="translate(55,192)">
         <rect width="170.703125" height="18" class="element-upper"/>
         <rect width="170.703125" height="18" y="18" class="element-lower"/>
         <text font-size="12" x="3.6" y="12" font-weight="bold">erreichbarkeit</text>
         <line x1="0" y1="18" x2="170.703125" y2="18"/>
         <text font-size="12" fill="grey" x="3.6" y="30">type</text>
         <line x1="31.753125" y1="18" x2="31.753125" y2="36"/>
         <text font-size="12" x="35.353125" y="30">xikomm:Kommunikation</text>
         <g transform="translate(170.703125,0)"/>
      </g>
      <line x1="33" y1="210" x2="55" y2="210" class="type-structure-optional"/>
      <text font-size="11" fill="black" x="53" y="208" text-anchor="end">0..*</text>
      <line x1="33" y1="162" x2="33" y2="210" class="type-structure-optional"/>
      <g transform="translate(55,240)">
         <rect width="148.109375" height="18" class="element-upper"/>
         <rect width="148.109375" height="18" y="18" class="element-lower"/>
         <text font-size="12" x="3.6" y="12" font-weight="bold">kundenanschrift</text>
         <line x1="0" y1="18" x2="148.109375" y2="18"/>
         <text font-size="12" fill="grey" x="3.6" y="30">type</text>
         <line x1="31.753125" y1="18" x2="31.753125" y2="36"/>
         <text font-size="12" x="35.353125" y="30">xima:Meldeanschrift</text>
         <g transform="translate(148.109375,0)"/>
      </g>
      <line x1="33" y1="258" x2="55" y2="258" class="type-structure-optional"/>
      <text font-size="11" fill="black" x="53" y="256" text-anchor="end">0..1</text>
      <line x1="33" y1="210" x2="33" y2="258" class="type-structure-optional"/>
      <g transform="translate(55,288)">
         <rect width="148.109375" height="18" class="element-upper"/>
         <rect width="148.109375" height="18" y="18" class="element-lower"/>
         <text font-size="12" x="3.6" y="12" font-weight="bold">lieferanschrift</text>
         <line x1="0" y1="18" x2="148.109375" y2="18"/>
         <text font-size="12" fill="grey" x="3.6" y="30">type</text>
         <line x1="31.753125" y1="18" x2="31.753125" y2="36"/>
         <text font-size="12" x="35.353125" y="30">xima:Meldeanschrift</text>
         <g transform="translate(148.109375,0)"/>
      </g>
      <line x1="33" y1="306" x2="55" y2="306" class="type-structure-optional"/>
      <text font-size="11" fill="black" x="53" y="304" text-anchor="end">0..1</text>
      <line x1="33" y1="258" x2="33" y2="306" class="type-structure-optional"/>
      <g transform="translate(55,336)">
         <rect width="165.671875" height="18" class="element-upper"/>
         <rect width="165.671875" height="18" y="18" class="element-lower"/>
         <text font-size="12" x="3.6" y="12" font-weight="bold">rechnungsanschrift</text>
         <line x1="0" y1="18" x2="165.671875" y2="18"/>
         <text font-size="12" fill="grey" x="3.6" y="30">type</text>
         <line x1="31.753125" y1="18" x2="31.753125" y2="36"/>
         <text font-size="12" x="35.353125" y="30">xmeld:type.Anschriftfeld</text>
         <g transform="translate(165.671875,0)"/>
      </g>
      <line x1="33" y1="354" x2="55" y2="354" class="type-structure-optional"/>
      <text font-size="11" fill="black" x="53" y="352" text-anchor="end">0..1</text>
      <line x1="33" y1="306" x2="33" y2="354" class="type-structure-optional"/>
      <g transform="translate(55,384)">
         <rect width="193.703125" height="18" class="element-upper"/>
         <rect width="193.703125" height="18" y="18" class="element-lower"/>
         <text font-size="12" x="3.6" y="12" font-weight="bold">RECHNUNGSDATEN</text>
         <line x1="0" y1="18" x2="193.703125" y2="18"/>
         <text font-size="12" fill="grey" x="3.6" y="30">type</text>
         <line x1="31.753125" y1="18" x2="31.753125" y2="36"/>
         <text font-size="12" x="35.353125" y="30">xmeld:type.Rechnungsdaten</text>
         <g transform="translate(193.703125,0)"/>
      </g>
      <line x1="33" y1="402" x2="55" y2="402" class="type-structure-optional"/>
      <text font-size="11" fill="black" x="53" y="400" text-anchor="end">0..1</text>
      <line x1="33" y1="354" x2="33" y2="402" class="type-structure-optional"/>
      <circle cx="15" cy="18" r="10" stroke="black" fill="rgb(251, 251, 251)"/>
      <line x1="0" y1="18" x2="5" y2="18" class="type-structure-optional"/>
      <line x1="25" y1="18" x2="33" y2="18" class="type-structure-optional"/>
      <circle cx="10" cy="18" r="1.2" stroke="black" fill="black"/>
      <circle cx="15" cy="18" r="1.2" stroke="black" fill="black"/>
      <circle cx="20" cy="18" r="1.2" stroke="black" fill="black"/>
      <line x1="7" y1="18" x2="23" y2="18"/>
   </g>
</svg>