<?xml version="1.0" encoding="UTF-8"?><svg xmlns="http://www.w3.org/2000/svg" width="246.30625" height="382">
   <defs>
      <style type="text/css">
                        text {
                            font-family: 'Arial';
                            fill: black;
                        }
                        text.at {
                            font-family: 'Arial';
                            fill: rgb(242, 152, 0);
                        }
                        line {
                            stroke: black;
                        }
                        line.type-structure {
                            stroke: black;
                        }
                        line.type-structure-optional {
                            stroke: black;
                            stroke-dasharray: 4, 4;
                        }
                        rect.attribute-upper {
                            stroke: black;
                            fill: rgb(255, 239, 211);
                        }
                        rect.element-upper {
                            stroke: black;
                            fill: rgb(215, 227, 249);
                        }
                        rect.element-lower {
                            stroke: black;
                            fill: rgb(236, 242, 252);
                        }
                        a text {
                            fill: black;
                        } 
                    </style>
   </defs>
   <rect width="236.30625" height="372" stroke-dasharray="3,3" rx="1" ry="1" style="stroke: grey;fill: white;"/>
   <text font-size="14" x="3.6" y="18" font-weight="bold">complexType type.basisnachricht</text>
   <g transform="translate(10,34)">
      <g transform="translate(55,0)">
         <rect width="147.734375" height="18" class="attribute-upper"/>
         <rect width="147.734375" height="18" y="18" class="element-lower"/>
         <text font-size="12" x="3.6" y="12" font-weight="bold" class="at">@ </text>
         <text font-size="12" x="20.85" y="12" font-weight="bold">fassung</text>
         <line x1="0" y1="18" x2="147.734375" y2="18"/>
         <text font-size="12" fill="grey" x="3.6" y="30">type</text>
         <line x1="31.753125" y1="18" x2="31.753125" y2="36"/>
         <text font-size="12" x="35.353125" y="30">din91379:datatypeC</text>
         <text font-size="11" fill="black" x="-2" y="16" text-anchor="end">1..1</text>
         <g transform="translate(147.734375,0)"/>
      </g>
      <text font-size="11" fill="black" x="53" y="16" text-anchor="end"/>
      <g transform="translate(55,48)">
         <rect width="64.890625" height="18" class="attribute-upper"/>
         <rect width="64.890625" height="18" y="18" class="element-lower"/>
         <text font-size="12" x="3.6" y="12" font-weight="bold" class="at">@ </text>
         <text font-size="12" x="20.85" y="12" font-weight="bold">id</text>
         <line x1="0" y1="18" x2="64.890625" y2="18"/>
         <text font-size="12" fill="grey" x="3.6" y="30">type</text>
         <line x1="31.753125" y1="18" x2="31.753125" y2="36"/>
         <text font-size="12" x="35.353125" y="30">xs:ID</text>
         <text font-size="11" fill="black" x="-2" y="16" text-anchor="end">0..1</text>
         <g transform="translate(64.890625,0)"/>
      </g>
      <text font-size="11" fill="black" x="53" y="64" text-anchor="end"/>
      <g transform="translate(55,96)">
         <rect width="147.734375" height="18" class="attribute-upper"/>
         <rect width="147.734375" height="18" y="18" class="element-lower"/>
         <text font-size="12" x="3.6" y="12" font-weight="bold" class="at">@ </text>
         <text font-size="12" x="20.85" y="12" font-weight="bold">produkt</text>
         <line x1="0" y1="18" x2="147.734375" y2="18"/>
         <text font-size="12" fill="grey" x="3.6" y="30">type</text>
         <line x1="31.753125" y1="18" x2="31.753125" y2="36"/>
         <text font-size="12" x="35.353125" y="30">din91379:datatypeC</text>
         <text font-size="11" fill="black" x="-2" y="16" text-anchor="end">1..1</text>
         <g transform="translate(147.734375,0)"/>
      </g>
      <text font-size="11" fill="black" x="53" y="112" text-anchor="end"/>
      <g transform="translate(55,144)">
         <rect width="147.734375" height="18" class="attribute-upper"/>
         <rect width="147.734375" height="18" y="18" class="element-lower"/>
         <text font-size="12" x="3.6" y="12" font-weight="bold" class="at">@ </text>
         <text font-size="12" x="20.85" y="12" font-weight="bold">produkthersteller</text>
         <line x1="0" y1="18" x2="147.734375" y2="18"/>
         <text font-size="12" fill="grey" x="3.6" y="30">type</text>
         <line x1="31.753125" y1="18" x2="31.753125" y2="36"/>
         <text font-size="12" x="35.353125" y="30">din91379:datatypeC</text>
         <text font-size="11" fill="black" x="-2" y="16" text-anchor="end">1..1</text>
         <g transform="translate(147.734375,0)"/>
      </g>
      <text font-size="11" fill="black" x="53" y="160" text-anchor="end"/>
      <g transform="translate(55,192)">
         <rect width="147.734375" height="18" class="attribute-upper"/>
         <rect width="147.734375" height="18" y="18" class="element-lower"/>
         <text font-size="12" x="3.6" y="12" font-weight="bold" class="at">@ </text>
         <text font-size="12" x="20.85" y="12" font-weight="bold">produktversion</text>
         <line x1="0" y1="18" x2="147.734375" y2="18"/>
         <text font-size="12" fill="grey" x="3.6" y="30">type</text>
         <line x1="31.753125" y1="18" x2="31.753125" y2="36"/>
         <text font-size="12" x="35.353125" y="30">din91379:datatypeC</text>
         <text font-size="11" fill="black" x="-2" y="16" text-anchor="end">0..1</text>
         <g transform="translate(147.734375,0)"/>
      </g>
      <text font-size="11" fill="black" x="53" y="208" text-anchor="end"/>
      <g transform="translate(55,240)">
         <rect width="147.734375" height="18" class="attribute-upper"/>
         <rect width="147.734375" height="18" y="18" class="element-lower"/>
         <text font-size="12" x="3.6" y="12" font-weight="bold" class="at">@ </text>
         <text font-size="12" x="20.85" y="12" font-weight="bold">test</text>
         <line x1="0" y1="18" x2="147.734375" y2="18"/>
         <text font-size="12" fill="grey" x="3.6" y="30">type</text>
         <line x1="31.753125" y1="18" x2="31.753125" y2="36"/>
         <text font-size="12" x="35.353125" y="30">din91379:datatypeC</text>
         <text font-size="11" fill="black" x="-2" y="16" text-anchor="end">0..1</text>
         <g transform="translate(147.734375,0)"/>
      </g>
      <text font-size="11" fill="black" x="53" y="256" text-anchor="end"/>
      <g transform="translate(55,288)">
         <rect width="147.734375" height="18" class="attribute-upper"/>
         <rect width="147.734375" height="18" y="18" class="element-lower"/>
         <text font-size="12" x="3.6" y="12" font-weight="bold" class="at">@ </text>
         <text font-size="12" x="20.85" y="12" font-weight="bold">version</text>
         <line x1="0" y1="18" x2="147.734375" y2="18"/>
         <text font-size="12" fill="grey" x="3.6" y="30">type</text>
         <line x1="31.753125" y1="18" x2="31.753125" y2="36"/>
         <text font-size="12" x="35.353125" y="30">din91379:datatypeC</text>
         <text font-size="11" fill="black" x="-2" y="16" text-anchor="end">1..1</text>
         <g transform="translate(147.734375,0)"/>
      </g>
      <text font-size="11" fill="black" x="53" y="304" text-anchor="end"/>
   </g>
</svg>