<?xml version="1.0" encoding="UTF-8"?><svg xmlns="http://www.w3.org/2000/svg" xmlns:xlink="http://www.w3.org/1999/xlink" fill-opacity="1" color-rendering="auto" color-interpolation="auto" text-rendering="auto" stroke="black" stroke-linecap="square" width="5.541666666666667in" stroke-miterlimit="10" shape-rendering="auto" stroke-opacity="1" fill="black" stroke-dasharray="none" font-weight="normal" stroke-width="1" viewBox="0 0 532 272" height="2.8333333333333335in" font-family="'Arial'" font-style="normal" stroke-linejoin="miter" font-size="12" stroke-dashoffset="0" image-rendering="auto" preserveAspectRatio="xMidYMid meet" zoomAndPan="magnify" version="1.0" contentScriptType="text/ecmascript" contentStyleType="text/css"><!--Generated by the Batik Graphics2D SVG Generator
 This is MagicDraw diagram.--><defs id="genericDefs"/><g><defs id="defs1"><linearGradient x1="185" gradientUnits="userSpaceOnUse" x2="373" y1="180" y2="252" id="linearGradient1" spreadMethod="pad" xlink:type="simple" xlink:show="other" xlink:actuate="onLoad"><stop stop-opacity="1" stop-color="rgb(255,255,153)" offset="0%"/><stop stop-opacity="1" stop-color="rgb(255,255,218)" offset="100%"/></linearGradient><linearGradient x1="185" gradientUnits="userSpaceOnUse" x2="373" y1="10" y2="82" id="linearGradient2" spreadMethod="pad" xlink:type="simple" xlink:show="other" xlink:actuate="onLoad"><stop stop-opacity="1" stop-color="rgb(255,255,153)" offset="0%"/><stop stop-opacity="1" stop-color="rgb(255,255,218)" offset="100%"/></linearGradient><linearGradient x1="453" gradientUnits="userSpaceOnUse" x2="489" y1="110" y2="146" id="linearGradient3" spreadMethod="pad" xlink:type="simple" xlink:show="other" xlink:actuate="onLoad"><stop stop-opacity="1" stop-color="rgb(255,204,153)" offset="0%"/><stop stop-opacity="1" stop-color="rgb(255,255,218)" offset="100%"/></linearGradient><linearGradient x1="66" gradientUnits="userSpaceOnUse" x2="102" y1="110" y2="146" id="linearGradient4" spreadMethod="pad" xlink:type="simple" xlink:show="other" xlink:actuate="onLoad"><stop stop-opacity="1" stop-color="rgb(255,204,153)" offset="0%"/><stop stop-opacity="1" stop-color="rgb(255,255,218)" offset="100%"/></linearGradient><clipPath clipPathUnits="userSpaceOnUse" id="clipPath1"><path d="M0 0 L532 0 L532 272 L0 272 L0 0 Z"/></clipPath><clipPath clipPathUnits="userSpaceOnUse" id="clipPath2"><path d="M25 0 L557 0 L557 272 L25 272 L25 0 Z"/></clipPath></defs><g fill="white" stroke="white"><rect x="0" width="532" height="272" y="0" clip-path="url(#clipPath1)" stroke="none"/><ellipse transform="translate(-25,0)" clip-path="url(#clipPath2)" fill="rgb(178,178,178)" text-rendering="geometricPrecision" rx="94" cx="282" ry="36" cy="219" stroke="none"/><ellipse transform="translate(-25,0)" clip-path="url(#clipPath2)" fill="url(#linearGradient1)" text-rendering="geometricPrecision" rx="94" cx="279" ry="36" cy="216" stroke="none"/></g><g fill="rgb(66,66,66)" text-rendering="geometricPrecision" transform="translate(-25,0)" stroke-linecap="butt" stroke="rgb(66,66,66)" stroke-linejoin="round"><ellipse rx="94" fill="none" ry="36" clip-path="url(#clipPath2)" cx="279" cy="216"/><path fill="black" d="M215.875 203.8633 L219.3125 203.8633 Q220.3281 203.8633 220.8281 203.9492 Q221.3281 204.0352 221.7266 204.3086 Q222.125 204.582 222.3906 205.0273 Q222.6562 205.4727 222.6562 206.0352 Q222.6562 206.6289 222.3281 207.1367 Q222 207.6445 221.4531 207.8945 Q222.2344 208.1133 222.6562 208.668 Q223.0781 209.2227 223.0781 209.9727 Q223.0781 210.5508 222.8047 211.1055 Q222.5312 211.6602 222.0625 211.9883 Q221.5938 212.3164 220.8906 212.3945 Q220.4688 212.4414 218.7969 212.457 L215.875 212.457 L215.875 203.8633 ZM217.6094 205.3008 L217.6094 207.2852 L218.75 207.2852 Q219.7656 207.2852 220.0156 207.2539 Q220.4531 207.207 220.7109 206.9492 Q220.9688 206.6914 220.9688 206.2695 Q220.9688 205.8789 220.75 205.6289 Q220.5312 205.3789 220.0938 205.332 Q219.8281 205.3008 218.6094 205.3008 L217.6094 205.3008 ZM217.6094 208.707 L217.6094 211.0039 L219.2188 211.0039 Q220.1562 211.0039 220.4062 210.957 Q220.7969 210.8789 221.0391 210.6133 Q221.2812 210.3477 221.2812 209.8789 Q221.2812 209.5039 221.0938 209.2305 Q220.9062 208.957 220.5547 208.832 Q220.2031 208.707 219.0156 208.707 L217.6094 208.707 ZM226.0625 212.457 L223 203.8633 L224.875 203.8633 L227.0469 210.2227 L229.1562 203.8633 L231 203.8633 L227.9219 212.457 L226.0625 212.457 ZM239.625 212.457 L237.7344 212.457 L236.9844 210.5039 L233.5469 210.5039 L232.8438 212.457 L231 212.457 L234.3438 203.8633 L236.1875 203.8633 L239.625 212.457 ZM236.4219 209.0508 L235.25 205.8633 L234.0781 209.0508 L236.4219 209.0508 ZM239.6719 210.1602 L239.6719 208.5195 L242.9062 208.5195 L242.9062 210.1602 L239.6719 210.1602 ZM243.5156 208.207 Q243.5156 206.8945 243.9219 206.0039 Q244.2031 205.3477 244.7109 204.832 Q245.2188 204.3164 245.8281 204.0664 Q246.625 203.7227 247.6719 203.7227 Q249.5781 203.7227 250.7188 204.9023 Q251.8594 206.082 251.8594 208.1758 Q251.8594 210.2539 250.7266 211.4258 Q249.5938 212.5977 247.7031 212.5977 Q245.7812 212.5977 244.6484 211.4336 Q243.5156 210.2695 243.5156 208.207 ZM245.3125 208.1602 Q245.3125 209.6133 245.9844 210.3633 Q246.6562 211.1133 247.6875 211.1133 Q248.7344 211.1133 249.3984 210.3711 Q250.0625 209.6289 250.0625 208.1289 Q250.0625 206.6602 249.4141 205.9336 Q248.7656 205.207 247.6875 205.207 Q246.625 205.207 245.9688 205.9414 Q245.3125 206.6758 245.3125 208.1602 ZM252.8125 206.2383 L254.3438 206.2383 L254.3438 207.1445 Q254.6562 206.6758 255.1641 206.3867 Q255.6719 206.0977 256.2969 206.0977 Q257.375 206.0977 258.1328 206.9414 Q258.8906 207.7852 258.8906 209.3164 Q258.8906 210.8633 258.125 211.7305 Q257.3594 212.5977 256.2812 212.5977 Q255.7656 212.5977 255.3438 212.3945 Q254.9219 212.1914 254.4688 211.6914 L254.4688 214.832 L252.8125 214.832 L252.8125 206.2383 ZM254.4375 209.2383 Q254.4375 210.2852 254.8594 210.7852 Q255.2812 211.2852 255.875 211.2852 Q256.4531 211.2852 256.8281 210.8242 Q257.2031 210.3633 257.2031 209.3164 Q257.2031 208.3477 256.8125 207.8711 Q256.4219 207.3945 255.8438 207.3945 Q255.2344 207.3945 254.8359 207.8633 Q254.4375 208.332 254.4375 209.2383 ZM262.7188 206.2383 L262.7188 207.5508 L261.5938 207.5508 L261.5938 210.0508 Q261.5938 210.8164 261.625 210.9414 Q261.6562 211.0664 261.7734 211.1523 Q261.8906 211.2383 262.0469 211.2383 Q262.2812 211.2383 262.7031 211.0664 L262.8438 212.3477 Q262.2812 212.5977 261.5469 212.5977 Q261.1094 212.5977 260.75 212.4492 Q260.3906 212.3008 260.2266 212.0586 Q260.0625 211.8164 259.9844 211.4258 Q259.9375 211.1289 259.9375 210.2539 L259.9375 207.5508 L259.1875 207.5508 L259.1875 206.2383 L259.9375 206.2383 L259.9375 205.0039 L261.5938 204.0352 L261.5938 206.2383 L262.7188 206.2383 ZM263.8594 205.3945 L263.8594 203.8633 L265.5156 203.8633 L265.5156 205.3945 L263.8594 205.3945 ZM263.8594 212.457 L263.8594 206.2383 L265.5156 206.2383 L265.5156 212.457 L263.8594 212.457 ZM266.4844 209.2539 Q266.4844 208.4414 266.8906 207.668 Q267.2969 206.8945 268.0312 206.4961 Q268.7656 206.0977 269.6875 206.0977 Q271.0938 206.0977 272 207.0117 Q272.9062 207.9258 272.9062 209.332 Q272.9062 210.7383 271.9922 211.668 Q271.0781 212.5977 269.7031 212.5977 Q268.8438 212.5977 268.0703 212.207 Q267.2969 211.8164 266.8906 211.0742 Q266.4844 210.332 266.4844 209.2539 ZM268.1719 209.3477 Q268.1719 210.2695 268.6094 210.7617 Q269.0469 211.2539 269.6875 211.2539 Q270.3438 211.2539 270.7734 210.7617 Q271.2031 210.2695 271.2031 209.332 Q271.2031 208.4258 270.7734 207.9336 Q270.3438 207.4414 269.6875 207.4414 Q269.0469 207.4414 268.6094 207.9336 Q268.1719 208.4258 268.1719 209.3477 ZM279.5156 212.457 L277.875 212.457 L277.875 209.2852 Q277.875 208.2695 277.7734 207.9727 Q277.6719 207.6758 277.4297 207.5117 Q277.1875 207.3477 276.8594 207.3477 Q276.4219 207.3477 276.0859 207.582 Q275.75 207.8164 275.625 208.207 Q275.5 208.5977 275.5 209.6445 L275.5 212.457 L273.8438 212.457 L273.8438 206.2383 L275.375 206.2383 L275.375 207.1445 Q276.1875 206.0977 277.4375 206.0977 Q277.9688 206.0977 278.4219 206.293 Q278.875 206.4883 279.1094 206.793 Q279.3438 207.0977 279.4297 207.4805 Q279.5156 207.8633 279.5156 208.582 L279.5156 212.457 ZM280.2812 210.6758 L281.9375 210.4258 Q282.0469 210.9102 282.3672 211.1602 Q282.6875 211.4102 283.2656 211.4102 Q283.9062 211.4102 284.2188 211.1758 Q284.4375 211.0039 284.4375 210.7383 Q284.4375 210.5508 284.3281 210.4258 Q284.2031 210.3008 283.7812 210.207 Q281.7812 209.7695 281.25 209.4102 Q280.5156 208.8945 280.5156 208.0039 Q280.5156 207.1914 281.1484 206.6445 Q281.7812 206.0977 283.125 206.0977 Q284.4062 206.0977 285.0312 206.5117 Q285.6562 206.9258 285.8906 207.7383 L284.3281 208.0195 Q284.2344 207.6602 283.9531 207.4648 Q283.6719 207.2695 283.1562 207.2695 Q282.5156 207.2695 282.2344 207.457 Q282.0469 207.582 282.0469 207.7852 Q282.0469 207.9727 282.2031 208.0977 Q282.4219 208.2539 283.7422 208.5508 Q285.0625 208.8477 285.5781 209.2852 Q286.0938 209.7227 286.0938 210.5039 Q286.0938 211.3633 285.3828 211.9805 Q284.6719 212.5977 283.2656 212.5977 Q282 212.5977 281.2578 212.082 Q280.5156 211.5664 280.2812 210.6758 ZM287.7344 206.2383 L289.25 206.2383 L289.25 207.082 Q290.0781 206.0977 291.2031 206.0977 Q291.7969 206.0977 292.2344 206.3398 Q292.6719 206.582 292.9531 207.082 Q293.3594 206.582 293.8359 206.3398 Q294.3125 206.0977 294.8594 206.0977 Q295.5312 206.0977 296.0078 206.3711 Q296.4844 206.6445 296.7188 207.1914 Q296.8906 207.582 296.8906 208.4727 L296.8906 212.457 L295.25 212.457 L295.25 208.8945 Q295.25 207.9727 295.0781 207.707 Q294.8438 207.3477 294.375 207.3477 Q294.0312 207.3477 293.7266 207.5586 Q293.4219 207.7695 293.2812 208.1758 Q293.1406 208.582 293.1406 209.4727 L293.1406 212.457 L291.5 212.457 L291.5 209.0508 Q291.5 208.1445 291.4141 207.8789 Q291.3281 207.6133 291.1406 207.4805 Q290.9531 207.3477 290.6406 207.3477 Q290.2656 207.3477 289.9609 207.5586 Q289.6562 207.7695 289.5234 208.1523 Q289.3906 208.5352 289.3906 209.4258 L289.3906 212.457 L287.7344 212.457 L287.7344 206.2383 ZM298.8594 205.3945 L298.8594 203.8633 L300.5156 203.8633 L300.5156 205.3945 L298.8594 205.3945 ZM298.8594 212.457 L298.8594 206.2383 L300.5156 206.2383 L300.5156 212.457 L298.8594 212.457 ZM304.7188 206.2383 L304.7188 207.5508 L303.5938 207.5508 L303.5938 210.0508 Q303.5938 210.8164 303.625 210.9414 Q303.6562 211.0664 303.7734 211.1523 Q303.8906 211.2383 304.0469 211.2383 Q304.2812 211.2383 304.7031 211.0664 L304.8438 212.3477 Q304.2812 212.5977 303.5469 212.5977 Q303.1094 212.5977 302.75 212.4492 Q302.3906 212.3008 302.2266 212.0586 Q302.0625 211.8164 301.9844 211.4258 Q301.9375 211.1289 301.9375 210.2539 L301.9375 207.5508 L301.1875 207.5508 L301.1875 206.2383 L301.9375 206.2383 L301.9375 205.0039 L303.5938 204.0352 L303.5938 206.2383 L304.7188 206.2383 ZM308.7188 206.2383 L308.7188 207.5508 L307.5938 207.5508 L307.5938 210.0508 Q307.5938 210.8164 307.625 210.9414 Q307.6562 211.0664 307.7734 211.1523 Q307.8906 211.2383 308.0469 211.2383 Q308.2812 211.2383 308.7031 211.0664 L308.8438 212.3477 Q308.2812 212.5977 307.5469 212.5977 Q307.1094 212.5977 306.75 212.4492 Q306.3906 212.3008 306.2266 212.0586 Q306.0625 211.8164 305.9844 211.4258 Q305.9375 211.1289 305.9375 210.2539 L305.9375 207.5508 L305.1875 207.5508 L305.1875 206.2383 L305.9375 206.2383 L305.9375 205.0039 L307.5938 204.0352 L307.5938 206.2383 L308.7188 206.2383 ZM313.4688 210.4727 L315.1094 210.7539 Q314.7969 211.6602 314.1094 212.1289 Q313.4219 212.5977 312.4062 212.5977 Q310.7812 212.5977 310 211.5352 Q309.375 210.6914 309.375 209.3945 Q309.375 207.8477 310.1875 206.9727 Q311 206.0977 312.2344 206.0977 Q313.625 206.0977 314.4297 207.0117 Q315.2344 207.9258 315.1875 209.8164 L311.0625 209.8164 Q311.0938 210.5508 311.4688 210.957 Q311.8438 211.3633 312.4219 211.3633 Q312.7969 211.3633 313.0625 211.1523 Q313.3281 210.9414 313.4688 210.4727 ZM313.5625 208.8164 Q313.5469 208.0977 313.1953 207.7227 Q312.8438 207.3477 312.3281 207.3477 Q311.7969 207.3477 311.4375 207.7383 Q311.0938 208.1445 311.0938 208.8164 L313.5625 208.8164 ZM316.8594 205.3945 L316.8594 203.8633 L318.5156 203.8633 L318.5156 205.3945 L316.8594 205.3945 ZM316.8594 212.457 L316.8594 206.2383 L318.5156 206.2383 L318.5156 212.457 L316.8594 212.457 ZM319.8594 212.457 L319.8594 203.8633 L321.5156 203.8633 L321.5156 212.457 L319.8594 212.457 ZM326.9531 212.457 L326.9531 211.5195 Q326.625 212.0195 326.0703 212.3086 Q325.5156 212.5977 324.8906 212.5977 Q324.2656 212.5977 323.7656 212.3242 Q323.2656 212.0508 323.0469 211.5508 Q322.8281 211.0508 322.8281 210.1758 L322.8281 206.2383 L324.4688 206.2383 L324.4688 209.0977 Q324.4688 210.4102 324.5625 210.707 Q324.6562 211.0039 324.8984 211.1758 Q325.1406 211.3477 325.5 211.3477 Q325.9219 211.3477 326.2578 211.1133 Q326.5938 210.8789 326.7188 210.5352 Q326.8438 210.1914 326.8438 208.8633 L326.8438 206.2383 L328.4844 206.2383 L328.4844 212.457 L326.9531 212.457 ZM335.5156 212.457 L333.875 212.457 L333.875 209.2852 Q333.875 208.2695 333.7734 207.9727 Q333.6719 207.6758 333.4297 207.5117 Q333.1875 207.3477 332.8594 207.3477 Q332.4219 207.3477 332.0859 207.582 Q331.75 207.8164 331.625 208.207 Q331.5 208.5977 331.5 209.6445 L331.5 212.457 L329.8438 212.457 L329.8438 206.2383 L331.375 206.2383 L331.375 207.1445 Q332.1875 206.0977 333.4375 206.0977 Q333.9688 206.0977 334.4219 206.293 Q334.875 206.4883 335.1094 206.793 Q335.3438 207.0977 335.4297 207.4805 Q335.5156 207.8633 335.5156 208.582 L335.5156 212.457 ZM336.7031 212.8633 L338.5938 213.0977 Q338.6406 213.4258 338.8125 213.5508 Q339.0469 213.7227 339.5469 213.7227 Q340.1875 213.7227 340.5156 213.5352 Q340.7344 213.3945 340.8438 213.1133 Q340.9219 212.9102 340.9219 212.3633 L340.9219 211.4414 Q340.1719 212.457 339.0469 212.457 Q337.7969 212.457 337.0625 211.3945 Q336.5 210.5508 336.5 209.3164 Q336.5 207.7383 337.25 206.918 Q338 206.0977 339.125 206.0977 Q340.2656 206.0977 341.0156 207.1133 L341.0156 206.2383 L342.5625 206.2383 L342.5625 211.8164 Q342.5625 212.9258 342.3828 213.4648 Q342.2031 214.0039 341.875 214.3164 Q341.5469 214.6289 341 214.8086 Q340.4531 214.9883 339.6094 214.9883 Q338.0312 214.9883 337.3672 214.4414 Q336.7031 213.8945 336.7031 213.0664 Q336.7031 212.9883 336.7031 212.8633 ZM338.1875 209.2227 Q338.1875 210.207 338.5703 210.668 Q338.9531 211.1289 339.5156 211.1289 Q340.1094 211.1289 340.5312 210.6523 Q340.9531 210.1758 340.9531 209.2539 Q340.9531 208.2852 340.5547 207.8164 Q340.1562 207.3477 339.5469 207.3477 Q338.9531 207.3477 338.5703 207.8086 Q338.1875 208.2695 338.1875 209.2227 Z" clip-path="url(#clipPath2)" stroke="none"/><path fill="black" d="M228.2031 227.457 L228.2031 226.1758 L230.5312 223.4883 Q231.1094 222.832 231.375 222.5664 Q231.0938 222.582 230.625 222.582 L228.4219 222.5977 L228.4219 221.2383 L233.5781 221.2383 L233.5781 222.3945 L231.1875 225.1445 L230.3594 226.0508 Q231.0469 226.0039 231.2031 226.0039 L233.75 226.0039 L233.75 227.457 L228.2031 227.457 ZM238.9531 227.457 L238.9531 226.5195 Q238.625 227.0195 238.0703 227.3086 Q237.5156 227.5977 236.8906 227.5977 Q236.2656 227.5977 235.7656 227.3242 Q235.2656 227.0508 235.0469 226.5508 Q234.8281 226.0508 234.8281 225.1758 L234.8281 221.2383 L236.4688 221.2383 L236.4688 224.0977 Q236.4688 225.4102 236.5625 225.707 Q236.6562 226.0039 236.8984 226.1758 Q237.1406 226.3477 237.5 226.3477 Q237.9219 226.3477 238.2578 226.1133 Q238.5938 225.8789 238.7188 225.5352 Q238.8438 225.1914 238.8438 223.8633 L238.8438 221.2383 L240.4844 221.2383 L240.4844 227.457 L238.9531 227.457 ZM241.7344 221.2383 L243.25 221.2383 L243.25 222.082 Q244.0781 221.0977 245.2031 221.0977 Q245.7969 221.0977 246.2344 221.3398 Q246.6719 221.582 246.9531 222.082 Q247.3594 221.582 247.8359 221.3398 Q248.3125 221.0977 248.8594 221.0977 Q249.5312 221.0977 250.0078 221.3711 Q250.4844 221.6445 250.7188 222.1914 Q250.8906 222.582 250.8906 223.4727 L250.8906 227.457 L249.25 227.457 L249.25 223.8945 Q249.25 222.9727 249.0781 222.707 Q248.8438 222.3477 248.375 222.3477 Q248.0312 222.3477 247.7266 222.5586 Q247.4219 222.7695 247.2812 223.1758 Q247.1406 223.582 247.1406 224.4727 L247.1406 227.457 L245.5 227.457 L245.5 224.0508 Q245.5 223.1445 245.4141 222.8789 Q245.3281 222.6133 245.1406 222.4805 Q244.9531 222.3477 244.6406 222.3477 Q244.2656 222.3477 243.9609 222.5586 Q243.6562 222.7695 243.5234 223.1523 Q243.3906 223.5352 243.3906 224.4258 L243.3906 227.457 L241.7344 227.457 L241.7344 221.2383 ZM257.0938 227.457 L255.0469 218.8633 L256.8125 218.8633 L258.1094 224.7695 L259.6875 218.8633 L261.75 218.8633 L263.25 224.8633 L264.5625 218.8633 L266.3125 218.8633 L264.2344 227.457 L262.3906 227.457 L260.6719 221.0352 L258.9688 227.457 L257.0938 227.457 ZM267.8594 220.3945 L267.8594 218.8633 L269.5156 218.8633 L269.5156 220.3945 L267.8594 220.3945 ZM267.8594 227.457 L267.8594 221.2383 L269.5156 221.2383 L269.5156 227.457 L267.8594 227.457 ZM274.4688 225.4727 L276.1094 225.7539 Q275.7969 226.6602 275.1094 227.1289 Q274.4219 227.5977 273.4062 227.5977 Q271.7812 227.5977 271 226.5352 Q270.375 225.6914 270.375 224.3945 Q270.375 222.8477 271.1875 221.9727 Q272 221.0977 273.2344 221.0977 Q274.625 221.0977 275.4297 222.0117 Q276.2344 222.9258 276.1875 224.8164 L272.0625 224.8164 Q272.0938 225.5508 272.4688 225.957 Q272.8438 226.3633 273.4219 226.3633 Q273.7969 226.3633 274.0625 226.1523 Q274.3281 225.9414 274.4688 225.4727 ZM274.5625 223.8164 Q274.5469 223.0977 274.1953 222.7227 Q273.8438 222.3477 273.3281 222.3477 Q272.7969 222.3477 272.4375 222.7383 Q272.0938 223.1445 272.0938 223.8164 L274.5625 223.8164 ZM283.5625 227.457 L282.0469 227.457 L282.0469 226.5352 Q281.6562 227.082 281.1406 227.3398 Q280.625 227.5977 280.0938 227.5977 Q279.0156 227.5977 278.2578 226.7305 Q277.5 225.8633 277.5 224.3164 Q277.5 222.7383 278.2422 221.918 Q278.9844 221.0977 280.125 221.0977 Q281.1562 221.0977 281.9219 221.957 L281.9219 218.8633 L283.5625 218.8633 L283.5625 227.457 ZM279.1719 224.207 Q279.1719 225.207 279.4531 225.6445 Q279.8438 226.3008 280.5625 226.3008 Q281.125 226.3008 281.5234 225.8164 Q281.9219 225.332 281.9219 224.3633 Q281.9219 223.3008 281.5391 222.8242 Q281.1562 222.3477 280.5469 222.3477 Q279.9688 222.3477 279.5703 222.8164 Q279.1719 223.2852 279.1719 224.207 ZM288.4688 225.4727 L290.1094 225.7539 Q289.7969 226.6602 289.1094 227.1289 Q288.4219 227.5977 287.4062 227.5977 Q285.7812 227.5977 285 226.5352 Q284.375 225.6914 284.375 224.3945 Q284.375 222.8477 285.1875 221.9727 Q286 221.0977 287.2344 221.0977 Q288.625 221.0977 289.4297 222.0117 Q290.2344 222.9258 290.1875 224.8164 L286.0625 224.8164 Q286.0938 225.5508 286.4688 225.957 Q286.8438 226.3633 287.4219 226.3633 Q287.7969 226.3633 288.0625 226.1523 Q288.3281 225.9414 288.4688 225.4727 ZM288.5625 223.8164 Q288.5469 223.0977 288.1953 222.7227 Q287.8438 222.3477 287.3281 222.3477 Q286.7969 222.3477 286.4375 222.7383 Q286.0938 223.1445 286.0938 223.8164 L288.5625 223.8164 ZM293.4375 227.457 L291.7969 227.457 L291.7969 221.2383 L293.3281 221.2383 L293.3281 222.1133 Q293.7188 221.4883 294.0312 221.293 Q294.3438 221.0977 294.7344 221.0977 Q295.2969 221.0977 295.8281 221.4102 L295.3125 222.832 Q294.8906 222.5664 294.5469 222.5664 Q294.1875 222.5664 293.9531 222.7617 Q293.7188 222.957 293.5781 223.4492 Q293.4375 223.9414 293.4375 225.5352 L293.4375 227.457 ZM296.2031 227.457 L296.2031 226.1758 L298.5312 223.4883 Q299.1094 222.832 299.375 222.5664 Q299.0938 222.582 298.625 222.582 L296.4219 222.5977 L296.4219 221.2383 L301.5781 221.2383 L301.5781 222.3945 L299.1875 225.1445 L298.3594 226.0508 Q299.0469 226.0039 299.2031 226.0039 L301.75 226.0039 L301.75 227.457 L296.2031 227.457 ZM306.9531 227.457 L306.9531 226.5195 Q306.625 227.0195 306.0703 227.3086 Q305.5156 227.5977 304.8906 227.5977 Q304.2656 227.5977 303.7656 227.3242 Q303.2656 227.0508 303.0469 226.5508 Q302.8281 226.0508 302.8281 225.1758 L302.8281 221.2383 L304.4688 221.2383 L304.4688 224.0977 Q304.4688 225.4102 304.5625 225.707 Q304.6562 226.0039 304.8984 226.1758 Q305.1406 226.3477 305.5 226.3477 Q305.9219 226.3477 306.2578 226.1133 Q306.5938 225.8789 306.7188 225.5352 Q306.8438 225.1914 306.8438 223.8633 L306.8438 221.2383 L308.4844 221.2383 L308.4844 227.457 L306.9531 227.457 ZM309.2031 227.457 L309.2031 226.1758 L311.5312 223.4883 Q312.1094 222.832 312.375 222.5664 Q312.0938 222.582 311.625 222.582 L309.4219 222.5977 L309.4219 221.2383 L314.5781 221.2383 L314.5781 222.3945 L312.1875 225.1445 L311.3594 226.0508 Q312.0469 226.0039 312.2031 226.0039 L314.75 226.0039 L314.75 227.457 L309.2031 227.457 ZM319.9531 227.457 L319.9531 226.5195 Q319.625 227.0195 319.0703 227.3086 Q318.5156 227.5977 317.8906 227.5977 Q317.2656 227.5977 316.7656 227.3242 Q316.2656 227.0508 316.0469 226.5508 Q315.8281 226.0508 315.8281 225.1758 L315.8281 221.2383 L317.4688 221.2383 L317.4688 224.0977 Q317.4688 225.4102 317.5625 225.707 Q317.6562 226.0039 317.8984 226.1758 Q318.1406 226.3477 318.5 226.3477 Q318.9219 226.3477 319.2578 226.1133 Q319.5938 225.8789 319.7188 225.5352 Q319.8438 225.1914 319.8438 223.8633 L319.8438 221.2383 L321.4844 221.2383 L321.4844 227.457 L319.9531 227.457 ZM322.7031 227.8633 L324.5938 228.0977 Q324.6406 228.4258 324.8125 228.5508 Q325.0469 228.7227 325.5469 228.7227 Q326.1875 228.7227 326.5156 228.5352 Q326.7344 228.3945 326.8438 228.1133 Q326.9219 227.9102 326.9219 227.3633 L326.9219 226.4414 Q326.1719 227.457 325.0469 227.457 Q323.7969 227.457 323.0625 226.3945 Q322.5 225.5508 322.5 224.3164 Q322.5 222.7383 323.25 221.918 Q324 221.0977 325.125 221.0977 Q326.2656 221.0977 327.0156 222.1133 L327.0156 221.2383 L328.5625 221.2383 L328.5625 226.8164 Q328.5625 227.9258 328.3828 228.4648 Q328.2031 229.0039 327.875 229.3164 Q327.5469 229.6289 327 229.8086 Q326.4531 229.9883 325.6094 229.9883 Q324.0312 229.9883 323.3672 229.4414 Q322.7031 228.8945 322.7031 228.0664 Q322.7031 227.9883 322.7031 227.8633 ZM324.1875 224.2227 Q324.1875 225.207 324.5703 225.668 Q324.9531 226.1289 325.5156 226.1289 Q326.1094 226.1289 326.5312 225.6523 Q326.9531 225.1758 326.9531 224.2539 Q326.9531 223.2852 326.5547 222.8164 Q326.1562 222.3477 325.5469 222.3477 Q324.9531 222.3477 324.5703 222.8086 Q324.1875 223.2695 324.1875 224.2227 Z" clip-path="url(#clipPath2)" stroke="none"/><ellipse clip-path="url(#clipPath2)" fill="rgb(178,178,178)" rx="94" cx="282" ry="36" cy="49" stroke="none"/><ellipse clip-path="url(#clipPath2)" fill="url(#linearGradient2)" rx="94" cx="279" ry="36" cy="46" stroke="none"/><ellipse rx="94" fill="none" ry="36" clip-path="url(#clipPath2)" cx="279" cy="46"/><path fill="black" d="M215.875 33.8633 L219.3125 33.8633 Q220.3281 33.8633 220.8281 33.9492 Q221.3281 34.0352 221.7266 34.3086 Q222.125 34.582 222.3906 35.0273 Q222.6562 35.4727 222.6562 36.0352 Q222.6562 36.6289 222.3281 37.1367 Q222 37.6445 221.4531 37.8945 Q222.2344 38.1133 222.6562 38.668 Q223.0781 39.2227 223.0781 39.9727 Q223.0781 40.5508 222.8047 41.1055 Q222.5312 41.6602 222.0625 41.9883 Q221.5938 42.3164 220.8906 42.3945 Q220.4688 42.4414 218.7969 42.457 L215.875 42.457 L215.875 33.8633 ZM217.6094 35.3008 L217.6094 37.2852 L218.75 37.2852 Q219.7656 37.2852 220.0156 37.2539 Q220.4531 37.207 220.7109 36.9492 Q220.9688 36.6914 220.9688 36.2695 Q220.9688 35.8789 220.75 35.6289 Q220.5312 35.3789 220.0938 35.332 Q219.8281 35.3008 218.6094 35.3008 L217.6094 35.3008 ZM217.6094 38.707 L217.6094 41.0039 L219.2188 41.0039 Q220.1562 41.0039 220.4062 40.957 Q220.7969 40.8789 221.0391 40.6133 Q221.2812 40.3477 221.2812 39.8789 Q221.2812 39.5039 221.0938 39.2305 Q220.9062 38.957 220.5547 38.832 Q220.2031 38.707 219.0156 38.707 L217.6094 38.707 ZM226.0625 42.457 L223 33.8633 L224.875 33.8633 L227.0469 40.2227 L229.1562 33.8633 L231 33.8633 L227.9219 42.457 L226.0625 42.457 ZM239.625 42.457 L237.7344 42.457 L236.9844 40.5039 L233.5469 40.5039 L232.8438 42.457 L231 42.457 L234.3438 33.8633 L236.1875 33.8633 L239.625 42.457 ZM236.4219 39.0508 L235.25 35.8633 L234.0781 39.0508 L236.4219 39.0508 ZM239.6719 40.1602 L239.6719 38.5195 L242.9062 38.5195 L242.9062 40.1602 L239.6719 40.1602 ZM243.5156 38.207 Q243.5156 36.8945 243.9219 36.0039 Q244.2031 35.3477 244.7109 34.832 Q245.2188 34.3164 245.8281 34.0664 Q246.625 33.7227 247.6719 33.7227 Q249.5781 33.7227 250.7188 34.9023 Q251.8594 36.082 251.8594 38.1758 Q251.8594 40.2539 250.7266 41.4258 Q249.5938 42.5977 247.7031 42.5977 Q245.7812 42.5977 244.6484 41.4336 Q243.5156 40.2695 243.5156 38.207 ZM245.3125 38.1602 Q245.3125 39.6133 245.9844 40.3633 Q246.6562 41.1133 247.6875 41.1133 Q248.7344 41.1133 249.3984 40.3711 Q250.0625 39.6289 250.0625 38.1289 Q250.0625 36.6602 249.4141 35.9336 Q248.7656 35.207 247.6875 35.207 Q246.625 35.207 245.9688 35.9414 Q245.3125 36.6758 245.3125 38.1602 ZM252.8125 36.2383 L254.3438 36.2383 L254.3438 37.1445 Q254.6562 36.6758 255.1641 36.3867 Q255.6719 36.0977 256.2969 36.0977 Q257.375 36.0977 258.1328 36.9414 Q258.8906 37.7852 258.8906 39.3164 Q258.8906 40.8633 258.125 41.7305 Q257.3594 42.5977 256.2812 42.5977 Q255.7656 42.5977 255.3438 42.3945 Q254.9219 42.1914 254.4688 41.6914 L254.4688 44.832 L252.8125 44.832 L252.8125 36.2383 ZM254.4375 39.2383 Q254.4375 40.2852 254.8594 40.7852 Q255.2812 41.2852 255.875 41.2852 Q256.4531 41.2852 256.8281 40.8242 Q257.2031 40.3633 257.2031 39.3164 Q257.2031 38.3477 256.8125 37.8711 Q256.4219 37.3945 255.8438 37.3945 Q255.2344 37.3945 254.8359 37.8633 Q254.4375 38.332 254.4375 39.2383 ZM262.7188 36.2383 L262.7188 37.5508 L261.5938 37.5508 L261.5938 40.0508 Q261.5938 40.8164 261.625 40.9414 Q261.6562 41.0664 261.7734 41.1523 Q261.8906 41.2383 262.0469 41.2383 Q262.2812 41.2383 262.7031 41.0664 L262.8438 42.3477 Q262.2812 42.5977 261.5469 42.5977 Q261.1094 42.5977 260.75 42.4492 Q260.3906 42.3008 260.2266 42.0586 Q260.0625 41.8164 259.9844 41.4258 Q259.9375 41.1289 259.9375 40.2539 L259.9375 37.5508 L259.1875 37.5508 L259.1875 36.2383 L259.9375 36.2383 L259.9375 35.0039 L261.5938 34.0352 L261.5938 36.2383 L262.7188 36.2383 ZM263.8594 35.3945 L263.8594 33.8633 L265.5156 33.8633 L265.5156 35.3945 L263.8594 35.3945 ZM263.8594 42.457 L263.8594 36.2383 L265.5156 36.2383 L265.5156 42.457 L263.8594 42.457 ZM266.4844 39.2539 Q266.4844 38.4414 266.8906 37.668 Q267.2969 36.8945 268.0312 36.4961 Q268.7656 36.0977 269.6875 36.0977 Q271.0938 36.0977 272 37.0117 Q272.9062 37.9258 272.9062 39.332 Q272.9062 40.7383 271.9922 41.668 Q271.0781 42.5977 269.7031 42.5977 Q268.8438 42.5977 268.0703 42.207 Q267.2969 41.8164 266.8906 41.0742 Q266.4844 40.332 266.4844 39.2539 ZM268.1719 39.3477 Q268.1719 40.2695 268.6094 40.7617 Q269.0469 41.2539 269.6875 41.2539 Q270.3438 41.2539 270.7734 40.7617 Q271.2031 40.2695 271.2031 39.332 Q271.2031 38.4258 270.7734 37.9336 Q270.3438 37.4414 269.6875 37.4414 Q269.0469 37.4414 268.6094 37.9336 Q268.1719 38.4258 268.1719 39.3477 ZM279.5156 42.457 L277.875 42.457 L277.875 39.2852 Q277.875 38.2695 277.7734 37.9727 Q277.6719 37.6758 277.4297 37.5117 Q277.1875 37.3477 276.8594 37.3477 Q276.4219 37.3477 276.0859 37.582 Q275.75 37.8164 275.625 38.207 Q275.5 38.5977 275.5 39.6445 L275.5 42.457 L273.8438 42.457 L273.8438 36.2383 L275.375 36.2383 L275.375 37.1445 Q276.1875 36.0977 277.4375 36.0977 Q277.9688 36.0977 278.4219 36.293 Q278.875 36.4883 279.1094 36.793 Q279.3438 37.0977 279.4297 37.4805 Q279.5156 37.8633 279.5156 38.582 L279.5156 42.457 ZM280.2812 40.6758 L281.9375 40.4258 Q282.0469 40.9102 282.3672 41.1602 Q282.6875 41.4102 283.2656 41.4102 Q283.9062 41.4102 284.2188 41.1758 Q284.4375 41.0039 284.4375 40.7383 Q284.4375 40.5508 284.3281 40.4258 Q284.2031 40.3008 283.7812 40.207 Q281.7812 39.7695 281.25 39.4102 Q280.5156 38.8945 280.5156 38.0039 Q280.5156 37.1914 281.1484 36.6445 Q281.7812 36.0977 283.125 36.0977 Q284.4062 36.0977 285.0312 36.5117 Q285.6562 36.9258 285.8906 37.7383 L284.3281 38.0195 Q284.2344 37.6602 283.9531 37.4648 Q283.6719 37.2695 283.1562 37.2695 Q282.5156 37.2695 282.2344 37.457 Q282.0469 37.582 282.0469 37.7852 Q282.0469 37.9727 282.2031 38.0977 Q282.4219 38.2539 283.7422 38.5508 Q285.0625 38.8477 285.5781 39.2852 Q286.0938 39.7227 286.0938 40.5039 Q286.0938 41.3633 285.3828 41.9805 Q284.6719 42.5977 283.2656 42.5977 Q282 42.5977 281.2578 42.082 Q280.5156 41.5664 280.2812 40.6758 ZM287.7344 36.2383 L289.25 36.2383 L289.25 37.082 Q290.0781 36.0977 291.2031 36.0977 Q291.7969 36.0977 292.2344 36.3398 Q292.6719 36.582 292.9531 37.082 Q293.3594 36.582 293.8359 36.3398 Q294.3125 36.0977 294.8594 36.0977 Q295.5312 36.0977 296.0078 36.3711 Q296.4844 36.6445 296.7188 37.1914 Q296.8906 37.582 296.8906 38.4727 L296.8906 42.457 L295.25 42.457 L295.25 38.8945 Q295.25 37.9727 295.0781 37.707 Q294.8438 37.3477 294.375 37.3477 Q294.0312 37.3477 293.7266 37.5586 Q293.4219 37.7695 293.2812 38.1758 Q293.1406 38.582 293.1406 39.4727 L293.1406 42.457 L291.5 42.457 L291.5 39.0508 Q291.5 38.1445 291.4141 37.8789 Q291.3281 37.6133 291.1406 37.4805 Q290.9531 37.3477 290.6406 37.3477 Q290.2656 37.3477 289.9609 37.5586 Q289.6562 37.7695 289.5234 38.1523 Q289.3906 38.5352 289.3906 39.4258 L289.3906 42.457 L287.7344 42.457 L287.7344 36.2383 ZM298.8594 35.3945 L298.8594 33.8633 L300.5156 33.8633 L300.5156 35.3945 L298.8594 35.3945 ZM298.8594 42.457 L298.8594 36.2383 L300.5156 36.2383 L300.5156 42.457 L298.8594 42.457 ZM304.7188 36.2383 L304.7188 37.5508 L303.5938 37.5508 L303.5938 40.0508 Q303.5938 40.8164 303.625 40.9414 Q303.6562 41.0664 303.7734 41.1523 Q303.8906 41.2383 304.0469 41.2383 Q304.2812 41.2383 304.7031 41.0664 L304.8438 42.3477 Q304.2812 42.5977 303.5469 42.5977 Q303.1094 42.5977 302.75 42.4492 Q302.3906 42.3008 302.2266 42.0586 Q302.0625 41.8164 301.9844 41.4258 Q301.9375 41.1289 301.9375 40.2539 L301.9375 37.5508 L301.1875 37.5508 L301.1875 36.2383 L301.9375 36.2383 L301.9375 35.0039 L303.5938 34.0352 L303.5938 36.2383 L304.7188 36.2383 ZM308.7188 36.2383 L308.7188 37.5508 L307.5938 37.5508 L307.5938 40.0508 Q307.5938 40.8164 307.625 40.9414 Q307.6562 41.0664 307.7734 41.1523 Q307.8906 41.2383 308.0469 41.2383 Q308.2812 41.2383 308.7031 41.0664 L308.8438 42.3477 Q308.2812 42.5977 307.5469 42.5977 Q307.1094 42.5977 306.75 42.4492 Q306.3906 42.3008 306.2266 42.0586 Q306.0625 41.8164 305.9844 41.4258 Q305.9375 41.1289 305.9375 40.2539 L305.9375 37.5508 L305.1875 37.5508 L305.1875 36.2383 L305.9375 36.2383 L305.9375 35.0039 L307.5938 34.0352 L307.5938 36.2383 L308.7188 36.2383 ZM313.4688 40.4727 L315.1094 40.7539 Q314.7969 41.6602 314.1094 42.1289 Q313.4219 42.5977 312.4062 42.5977 Q310.7812 42.5977 310 41.5352 Q309.375 40.6914 309.375 39.3945 Q309.375 37.8477 310.1875 36.9727 Q311 36.0977 312.2344 36.0977 Q313.625 36.0977 314.4297 37.0117 Q315.2344 37.9258 315.1875 39.8164 L311.0625 39.8164 Q311.0938 40.5508 311.4688 40.957 Q311.8438 41.3633 312.4219 41.3633 Q312.7969 41.3633 313.0625 41.1523 Q313.3281 40.9414 313.4688 40.4727 ZM313.5625 38.8164 Q313.5469 38.0977 313.1953 37.7227 Q312.8438 37.3477 312.3281 37.3477 Q311.7969 37.3477 311.4375 37.7383 Q311.0938 38.1445 311.0938 38.8164 L313.5625 38.8164 ZM316.8594 35.3945 L316.8594 33.8633 L318.5156 33.8633 L318.5156 35.3945 L316.8594 35.3945 ZM316.8594 42.457 L316.8594 36.2383 L318.5156 36.2383 L318.5156 42.457 L316.8594 42.457 ZM319.8594 42.457 L319.8594 33.8633 L321.5156 33.8633 L321.5156 42.457 L319.8594 42.457 ZM326.9531 42.457 L326.9531 41.5195 Q326.625 42.0195 326.0703 42.3086 Q325.5156 42.5977 324.8906 42.5977 Q324.2656 42.5977 323.7656 42.3242 Q323.2656 42.0508 323.0469 41.5508 Q322.8281 41.0508 322.8281 40.1758 L322.8281 36.2383 L324.4688 36.2383 L324.4688 39.0977 Q324.4688 40.4102 324.5625 40.707 Q324.6562 41.0039 324.8984 41.1758 Q325.1406 41.3477 325.5 41.3477 Q325.9219 41.3477 326.2578 41.1133 Q326.5938 40.8789 326.7188 40.5352 Q326.8438 40.1914 326.8438 38.8633 L326.8438 36.2383 L328.4844 36.2383 L328.4844 42.457 L326.9531 42.457 ZM335.5156 42.457 L333.875 42.457 L333.875 39.2852 Q333.875 38.2695 333.7734 37.9727 Q333.6719 37.6758 333.4297 37.5117 Q333.1875 37.3477 332.8594 37.3477 Q332.4219 37.3477 332.0859 37.582 Q331.75 37.8164 331.625 38.207 Q331.5 38.5977 331.5 39.6445 L331.5 42.457 L329.8438 42.457 L329.8438 36.2383 L331.375 36.2383 L331.375 37.1445 Q332.1875 36.0977 333.4375 36.0977 Q333.9688 36.0977 334.4219 36.293 Q334.875 36.4883 335.1094 36.793 Q335.3438 37.0977 335.4297 37.4805 Q335.5156 37.8633 335.5156 38.582 L335.5156 42.457 ZM336.7031 42.8633 L338.5938 43.0977 Q338.6406 43.4258 338.8125 43.5508 Q339.0469 43.7227 339.5469 43.7227 Q340.1875 43.7227 340.5156 43.5352 Q340.7344 43.3945 340.8438 43.1133 Q340.9219 42.9102 340.9219 42.3633 L340.9219 41.4414 Q340.1719 42.457 339.0469 42.457 Q337.7969 42.457 337.0625 41.3945 Q336.5 40.5508 336.5 39.3164 Q336.5 37.7383 337.25 36.918 Q338 36.0977 339.125 36.0977 Q340.2656 36.0977 341.0156 37.1133 L341.0156 36.2383 L342.5625 36.2383 L342.5625 41.8164 Q342.5625 42.9258 342.3828 43.4648 Q342.2031 44.0039 341.875 44.3164 Q341.5469 44.6289 341 44.8086 Q340.4531 44.9883 339.6094 44.9883 Q338.0312 44.9883 337.3672 44.4414 Q336.7031 43.8945 336.7031 43.0664 Q336.7031 42.9883 336.7031 42.8633 ZM338.1875 39.2227 Q338.1875 40.207 338.5703 40.668 Q338.9531 41.1289 339.5156 41.1289 Q340.1094 41.1289 340.5312 40.6523 Q340.9531 40.1758 340.9531 39.2539 Q340.9531 38.2852 340.5547 37.8164 Q340.1562 37.3477 339.5469 37.3477 Q338.9531 37.3477 338.5703 37.8086 Q338.1875 38.2695 338.1875 39.2227 Z" clip-path="url(#clipPath2)" stroke="none"/><path fill="black" d="M242.2031 57.457 L242.2031 56.1758 L244.5312 53.4883 Q245.1094 52.832 245.375 52.5664 Q245.0938 52.582 244.625 52.582 L242.4219 52.5977 L242.4219 51.2383 L247.5781 51.2383 L247.5781 52.3945 L245.1875 55.1445 L244.3594 56.0508 Q245.0469 56.0039 245.2031 56.0039 L247.75 56.0039 L247.75 57.457 L242.2031 57.457 ZM252.9531 57.457 L252.9531 56.5195 Q252.625 57.0195 252.0703 57.3086 Q251.5156 57.5977 250.8906 57.5977 Q250.2656 57.5977 249.7656 57.3242 Q249.2656 57.0508 249.0469 56.5508 Q248.8281 56.0508 248.8281 55.1758 L248.8281 51.2383 L250.4688 51.2383 L250.4688 54.0977 Q250.4688 55.4102 250.5625 55.707 Q250.6562 56.0039 250.8984 56.1758 Q251.1406 56.3477 251.5 56.3477 Q251.9219 56.3477 252.2578 56.1133 Q252.5938 55.8789 252.7188 55.5352 Q252.8438 55.1914 252.8438 53.8633 L252.8438 51.2383 L254.4844 51.2383 L254.4844 57.457 L252.9531 57.457 ZM255.7344 51.2383 L257.25 51.2383 L257.25 52.082 Q258.0781 51.0977 259.2031 51.0977 Q259.7969 51.0977 260.2344 51.3398 Q260.6719 51.582 260.9531 52.082 Q261.3594 51.582 261.8359 51.3398 Q262.3125 51.0977 262.8594 51.0977 Q263.5312 51.0977 264.0078 51.3711 Q264.4844 51.6445 264.7188 52.1914 Q264.8906 52.582 264.8906 53.4727 L264.8906 57.457 L263.25 57.457 L263.25 53.8945 Q263.25 52.9727 263.0781 52.707 Q262.8438 52.3477 262.375 52.3477 Q262.0312 52.3477 261.7266 52.5586 Q261.4219 52.7695 261.2812 53.1758 Q261.1406 53.582 261.1406 54.4727 L261.1406 57.457 L259.5 57.457 L259.5 54.0508 Q259.5 53.1445 259.4141 52.8789 Q259.3281 52.6133 259.1406 52.4805 Q258.9531 52.3477 258.6406 52.3477 Q258.2656 52.3477 257.9609 52.5586 Q257.6562 52.7695 257.5234 53.1523 Q257.3906 53.5352 257.3906 54.4258 L257.3906 57.457 L255.7344 57.457 L255.7344 51.2383 ZM271.0938 57.457 L269.0469 48.8633 L270.8125 48.8633 L272.1094 54.7695 L273.6875 48.8633 L275.75 48.8633 L277.25 54.8633 L278.5625 48.8633 L280.3125 48.8633 L278.2344 57.457 L276.3906 57.457 L274.6719 51.0352 L272.9688 57.457 L271.0938 57.457 ZM285.4688 55.4727 L287.1094 55.7539 Q286.7969 56.6602 286.1094 57.1289 Q285.4219 57.5977 284.4062 57.5977 Q282.7812 57.5977 282 56.5352 Q281.375 55.6914 281.375 54.3945 Q281.375 52.8477 282.1875 51.9727 Q283 51.0977 284.2344 51.0977 Q285.625 51.0977 286.4297 52.0117 Q287.2344 52.9258 287.1875 54.8164 L283.0625 54.8164 Q283.0938 55.5508 283.4688 55.957 Q283.8438 56.3633 284.4219 56.3633 Q284.7969 56.3633 285.0625 56.1523 Q285.3281 55.9414 285.4688 55.4727 ZM285.5625 53.8164 Q285.5469 53.0977 285.1953 52.7227 Q284.8438 52.3477 284.3281 52.3477 Q283.7969 52.3477 283.4375 52.7383 Q283.0938 53.1445 283.0938 53.8164 L285.5625 53.8164 ZM288.7031 57.8633 L290.5938 58.0977 Q290.6406 58.4258 290.8125 58.5508 Q291.0469 58.7227 291.5469 58.7227 Q292.1875 58.7227 292.5156 58.5352 Q292.7344 58.3945 292.8438 58.1133 Q292.9219 57.9102 292.9219 57.3633 L292.9219 56.4414 Q292.1719 57.457 291.0469 57.457 Q289.7969 57.457 289.0625 56.3945 Q288.5 55.5508 288.5 54.3164 Q288.5 52.7383 289.25 51.918 Q290 51.0977 291.125 51.0977 Q292.2656 51.0977 293.0156 52.1133 L293.0156 51.2383 L294.5625 51.2383 L294.5625 56.8164 Q294.5625 57.9258 294.3828 58.4648 Q294.2031 59.0039 293.875 59.3164 Q293.5469 59.6289 293 59.8086 Q292.4531 59.9883 291.6094 59.9883 Q290.0312 59.9883 289.3672 59.4414 Q288.7031 58.8945 288.7031 58.0664 Q288.7031 57.9883 288.7031 57.8633 ZM290.1875 54.2227 Q290.1875 55.207 290.5703 55.668 Q290.9531 56.1289 291.5156 56.1289 Q292.1094 56.1289 292.5312 55.6523 Q292.9531 55.1758 292.9531 54.2539 Q292.9531 53.2852 292.5547 52.8164 Q292.1562 52.3477 291.5469 52.3477 Q290.9531 52.3477 290.5703 52.8086 Q290.1875 53.2695 290.1875 54.2227 ZM295.2031 57.457 L295.2031 56.1758 L297.5312 53.4883 Q298.1094 52.832 298.375 52.5664 Q298.0938 52.582 297.625 52.582 L295.4219 52.5977 L295.4219 51.2383 L300.5781 51.2383 L300.5781 52.3945 L298.1875 55.1445 L297.3594 56.0508 Q298.0469 56.0039 298.2031 56.0039 L300.75 56.0039 L300.75 57.457 L295.2031 57.457 ZM305.9531 57.457 L305.9531 56.5195 Q305.625 57.0195 305.0703 57.3086 Q304.5156 57.5977 303.8906 57.5977 Q303.2656 57.5977 302.7656 57.3242 Q302.2656 57.0508 302.0469 56.5508 Q301.8281 56.0508 301.8281 55.1758 L301.8281 51.2383 L303.4688 51.2383 L303.4688 54.0977 Q303.4688 55.4102 303.5625 55.707 Q303.6562 56.0039 303.8984 56.1758 Q304.1406 56.3477 304.5 56.3477 Q304.9219 56.3477 305.2578 56.1133 Q305.5938 55.8789 305.7188 55.5352 Q305.8438 55.1914 305.8438 53.8633 L305.8438 51.2383 L307.4844 51.2383 L307.4844 57.457 L305.9531 57.457 ZM308.7031 57.8633 L310.5938 58.0977 Q310.6406 58.4258 310.8125 58.5508 Q311.0469 58.7227 311.5469 58.7227 Q312.1875 58.7227 312.5156 58.5352 Q312.7344 58.3945 312.8438 58.1133 Q312.9219 57.9102 312.9219 57.3633 L312.9219 56.4414 Q312.1719 57.457 311.0469 57.457 Q309.7969 57.457 309.0625 56.3945 Q308.5 55.5508 308.5 54.3164 Q308.5 52.7383 309.25 51.918 Q310 51.0977 311.125 51.0977 Q312.2656 51.0977 313.0156 52.1133 L313.0156 51.2383 L314.5625 51.2383 L314.5625 56.8164 Q314.5625 57.9258 314.3828 58.4648 Q314.2031 59.0039 313.875 59.3164 Q313.5469 59.6289 313 59.8086 Q312.4531 59.9883 311.6094 59.9883 Q310.0312 59.9883 309.3672 59.4414 Q308.7031 58.8945 308.7031 58.0664 Q308.7031 57.9883 308.7031 57.8633 ZM310.1875 54.2227 Q310.1875 55.207 310.5703 55.668 Q310.9531 56.1289 311.5156 56.1289 Q312.1094 56.1289 312.5312 55.6523 Q312.9531 55.1758 312.9531 54.2539 Q312.9531 53.2852 312.5547 52.8164 Q312.1562 52.3477 311.5469 52.3477 Q310.9531 52.3477 310.5703 52.8086 Q310.1875 53.2695 310.1875 54.2227 Z" clip-path="url(#clipPath2)" stroke="none"/><path fill="black" d="M403.875 149.8633 L407.3125 149.8633 Q408.3281 149.8633 408.8281 149.9492 Q409.3281 150.0352 409.7266 150.3086 Q410.125 150.582 410.3906 151.0273 Q410.6562 151.4727 410.6562 152.0352 Q410.6562 152.6289 410.3281 153.1367 Q410 153.6445 409.4531 153.8945 Q410.2344 154.1133 410.6562 154.668 Q411.0781 155.2227 411.0781 155.9727 Q411.0781 156.5508 410.8047 157.1055 Q410.5312 157.6602 410.0625 157.9883 Q409.5938 158.3164 408.8906 158.3945 Q408.4688 158.4414 406.7969 158.457 L403.875 158.457 L403.875 149.8633 ZM405.6094 151.3008 L405.6094 153.2852 L406.75 153.2852 Q407.7656 153.2852 408.0156 153.2539 Q408.4531 153.207 408.7109 152.9492 Q408.9688 152.6914 408.9688 152.2695 Q408.9688 151.8789 408.75 151.6289 Q408.5312 151.3789 408.0938 151.332 Q407.8281 151.3008 406.6094 151.3008 L405.6094 151.3008 ZM405.6094 154.707 L405.6094 157.0039 L407.2188 157.0039 Q408.1562 157.0039 408.4062 156.957 Q408.7969 156.8789 409.0391 156.6133 Q409.2812 156.3477 409.2812 155.8789 Q409.2812 155.5039 409.0938 155.2305 Q408.9062 154.957 408.5547 154.832 Q408.2031 154.707 407.0156 154.707 L405.6094 154.707 ZM415.9531 158.457 L415.9531 157.5195 Q415.625 158.0195 415.0703 158.3086 Q414.5156 158.5977 413.8906 158.5977 Q413.2656 158.5977 412.7656 158.3242 Q412.2656 158.0508 412.0469 157.5508 Q411.8281 157.0508 411.8281 156.1758 L411.8281 152.2383 L413.4688 152.2383 L413.4688 155.0977 Q413.4688 156.4102 413.5625 156.707 Q413.6562 157.0039 413.8984 157.1758 Q414.1406 157.3477 414.5 157.3477 Q414.9219 157.3477 415.2578 157.1133 Q415.5938 156.8789 415.7188 156.5352 Q415.8438 156.1914 415.8438 154.8633 L415.8438 152.2383 L417.4844 152.2383 L417.4844 158.457 L415.9531 158.457 ZM424.5156 158.457 L422.875 158.457 L422.875 155.2852 Q422.875 154.2695 422.7734 153.9727 Q422.6719 153.6758 422.4297 153.5117 Q422.1875 153.3477 421.8594 153.3477 Q421.4219 153.3477 421.0859 153.582 Q420.75 153.8164 420.625 154.207 Q420.5 154.5977 420.5 155.6445 L420.5 158.457 L418.8438 158.457 L418.8438 152.2383 L420.375 152.2383 L420.375 153.1445 Q421.1875 152.0977 422.4375 152.0977 Q422.9688 152.0977 423.4219 152.293 Q423.875 152.4883 424.1094 152.793 Q424.3438 153.0977 424.4297 153.4805 Q424.5156 153.8633 424.5156 154.582 L424.5156 158.457 ZM431.5625 158.457 L430.0469 158.457 L430.0469 157.5352 Q429.6562 158.082 429.1406 158.3398 Q428.625 158.5977 428.0938 158.5977 Q427.0156 158.5977 426.2578 157.7305 Q425.5 156.8633 425.5 155.3164 Q425.5 153.7383 426.2422 152.918 Q426.9844 152.0977 428.125 152.0977 Q429.1562 152.0977 429.9219 152.957 L429.9219 149.8633 L431.5625 149.8633 L431.5625 158.457 ZM427.1719 155.207 Q427.1719 156.207 427.4531 156.6445 Q427.8438 157.3008 428.5625 157.3008 Q429.125 157.3008 429.5234 156.8164 Q429.9219 156.332 429.9219 155.3633 Q429.9219 154.3008 429.5391 153.8242 Q429.1562 153.3477 428.5469 153.3477 Q427.9688 153.3477 427.5703 153.8164 Q427.1719 154.2852 427.1719 155.207 ZM436.4688 156.4727 L438.1094 156.7539 Q437.7969 157.6602 437.1094 158.1289 Q436.4219 158.5977 435.4062 158.5977 Q433.7812 158.5977 433 157.5352 Q432.375 156.6914 432.375 155.3945 Q432.375 153.8477 433.1875 152.9727 Q434 152.0977 435.2344 152.0977 Q436.625 152.0977 437.4297 153.0117 Q438.2344 153.9258 438.1875 155.8164 L434.0625 155.8164 Q434.0938 156.5508 434.4688 156.957 Q434.8438 157.3633 435.4219 157.3633 Q435.7969 157.3633 436.0625 157.1523 Q436.3281 156.9414 436.4688 156.4727 ZM436.5625 154.8164 Q436.5469 154.0977 436.1953 153.7227 Q435.8438 153.3477 435.3281 153.3477 Q434.7969 153.3477 434.4375 153.7383 Q434.0938 154.1445 434.0938 154.8164 L436.5625 154.8164 ZM439.2812 156.6758 L440.9375 156.4258 Q441.0469 156.9102 441.3672 157.1602 Q441.6875 157.4102 442.2656 157.4102 Q442.9062 157.4102 443.2188 157.1758 Q443.4375 157.0039 443.4375 156.7383 Q443.4375 156.5508 443.3281 156.4258 Q443.2031 156.3008 442.7812 156.207 Q440.7812 155.7695 440.25 155.4102 Q439.5156 154.8945 439.5156 154.0039 Q439.5156 153.1914 440.1484 152.6445 Q440.7812 152.0977 442.125 152.0977 Q443.4062 152.0977 444.0312 152.5117 Q444.6562 152.9258 444.8906 153.7383 L443.3281 154.0195 Q443.2344 153.6602 442.9531 153.4648 Q442.6719 153.2695 442.1562 153.2695 Q441.5156 153.2695 441.2344 153.457 Q441.0469 153.582 441.0469 153.7852 Q441.0469 153.9727 441.2031 154.0977 Q441.4219 154.2539 442.7422 154.5508 Q444.0625 154.8477 444.5781 155.2852 Q445.0938 155.7227 445.0938 156.5039 Q445.0938 157.3633 444.3828 157.9805 Q443.6719 158.5977 442.2656 158.5977 Q441 158.5977 440.2578 158.082 Q439.5156 157.5664 439.2812 156.6758 ZM448.5781 158.457 L446.0625 152.2383 L447.7969 152.2383 L448.9688 155.4102 L449.3125 156.4727 Q449.4375 156.0664 449.4688 155.9414 Q449.5625 155.6758 449.6562 155.4102 L450.8281 152.2383 L452.5312 152.2383 L450.0625 158.457 L448.5781 158.457 ZM456.4688 156.4727 L458.1094 156.7539 Q457.7969 157.6602 457.1094 158.1289 Q456.4219 158.5977 455.4062 158.5977 Q453.7812 158.5977 453 157.5352 Q452.375 156.6914 452.375 155.3945 Q452.375 153.8477 453.1875 152.9727 Q454 152.0977 455.2344 152.0977 Q456.625 152.0977 457.4297 153.0117 Q458.2344 153.9258 458.1875 155.8164 L454.0625 155.8164 Q454.0938 156.5508 454.4688 156.957 Q454.8438 157.3633 455.4219 157.3633 Q455.7969 157.3633 456.0625 157.1523 Q456.3281 156.9414 456.4688 156.4727 ZM456.5625 154.8164 Q456.5469 154.0977 456.1953 153.7227 Q455.8438 153.3477 455.3281 153.3477 Q454.7969 153.3477 454.4375 153.7383 Q454.0938 154.1445 454.0938 154.8164 L456.5625 154.8164 ZM461.4375 158.457 L459.7969 158.457 L459.7969 152.2383 L461.3281 152.2383 L461.3281 153.1133 Q461.7188 152.4883 462.0312 152.293 Q462.3438 152.0977 462.7344 152.0977 Q463.2969 152.0977 463.8281 152.4102 L463.3125 153.832 Q462.8906 153.5664 462.5469 153.5664 Q462.1875 153.5664 461.9531 153.7617 Q461.7188 153.957 461.5781 154.4492 Q461.4375 154.9414 461.4375 156.5352 L461.4375 158.457 ZM466.0156 158.457 L464.0469 152.2383 L465.6562 152.2383 L466.8125 156.3164 L467.8906 152.2383 L469.4844 152.2383 L470.5156 156.3164 L471.7031 152.2383 L473.3281 152.2383 L471.3281 158.457 L469.75 158.457 L468.6719 154.457 L467.625 158.457 L466.0156 158.457 ZM476.0938 154.1289 L474.5938 153.8633 Q474.8438 152.957 475.4609 152.5273 Q476.0781 152.0977 477.2969 152.0977 Q478.3906 152.0977 478.9297 152.3555 Q479.4688 152.6133 479.6875 153.0117 Q479.9062 153.4102 479.9062 154.4883 L479.8906 156.4102 Q479.8906 157.2383 479.9688 157.6211 Q480.0469 158.0039 480.2656 158.457 L478.6406 158.457 Q478.5781 158.2852 478.4844 157.9727 Q478.4375 157.8164 478.4219 157.7695 Q478 158.1914 477.5234 158.3945 Q477.0469 158.5977 476.5 158.5977 Q475.5312 158.5977 474.9766 158.0742 Q474.4219 157.5508 474.4219 156.7539 Q474.4219 156.2227 474.6797 155.8164 Q474.9375 155.4102 475.3906 155.1836 Q475.8438 154.957 476.7031 154.8008 Q477.8438 154.582 478.2969 154.3945 L478.2969 154.2383 Q478.2969 153.7539 478.0625 153.5508 Q477.8281 153.3477 477.1719 153.3477 Q476.7344 153.3477 476.4922 153.5195 Q476.25 153.6914 476.0938 154.1289 ZM478.2969 155.4727 Q477.9844 155.5664 477.2969 155.7148 Q476.6094 155.8633 476.3906 156.0039 Q476.0781 156.2383 476.0781 156.582 Q476.0781 156.9258 476.3359 157.1836 Q476.5938 157.4414 476.9844 157.4414 Q477.4375 157.4414 477.8438 157.1445 Q478.1406 156.9258 478.2344 156.5977 Q478.2969 156.3945 478.2969 155.8008 L478.2969 155.4727 ZM481.8594 158.457 L481.8594 149.8633 L483.5156 149.8633 L483.5156 158.457 L481.8594 158.457 ZM487.7188 152.2383 L487.7188 153.5508 L486.5938 153.5508 L486.5938 156.0508 Q486.5938 156.8164 486.625 156.9414 Q486.6562 157.0664 486.7734 157.1523 Q486.8906 157.2383 487.0469 157.2383 Q487.2812 157.2383 487.7031 157.0664 L487.8438 158.3477 Q487.2812 158.5977 486.5469 158.5977 Q486.1094 158.5977 485.75 158.4492 Q485.3906 158.3008 485.2266 158.0586 Q485.0625 157.8164 484.9844 157.4258 Q484.9375 157.1289 484.9375 156.2539 L484.9375 153.5508 L484.1875 153.5508 L484.1875 152.2383 L484.9375 152.2383 L484.9375 151.0039 L486.5938 150.0352 L486.5938 152.2383 L487.7188 152.2383 ZM492.9531 158.457 L492.9531 157.5195 Q492.625 158.0195 492.0703 158.3086 Q491.5156 158.5977 490.8906 158.5977 Q490.2656 158.5977 489.7656 158.3242 Q489.2656 158.0508 489.0469 157.5508 Q488.8281 157.0508 488.8281 156.1758 L488.8281 152.2383 L490.4688 152.2383 L490.4688 155.0977 Q490.4688 156.4102 490.5625 156.707 Q490.6562 157.0039 490.8984 157.1758 Q491.1406 157.3477 491.5 157.3477 Q491.9219 157.3477 492.2578 157.1133 Q492.5938 156.8789 492.7188 156.5352 Q492.8438 156.1914 492.8438 154.8633 L492.8438 152.2383 L494.4844 152.2383 L494.4844 158.457 L492.9531 158.457 ZM501.5156 158.457 L499.875 158.457 L499.875 155.2852 Q499.875 154.2695 499.7734 153.9727 Q499.6719 153.6758 499.4297 153.5117 Q499.1875 153.3477 498.8594 153.3477 Q498.4219 153.3477 498.0859 153.582 Q497.75 153.8164 497.625 154.207 Q497.5 154.5977 497.5 155.6445 L497.5 158.457 L495.8438 158.457 L495.8438 152.2383 L497.375 152.2383 L497.375 153.1445 Q498.1875 152.0977 499.4375 152.0977 Q499.9688 152.0977 500.4219 152.293 Q500.875 152.4883 501.1094 152.793 Q501.3438 153.0977 501.4297 153.4805 Q501.5156 153.8633 501.5156 154.582 L501.5156 158.457 ZM502.7031 158.8633 L504.5938 159.0977 Q504.6406 159.4258 504.8125 159.5508 Q505.0469 159.7227 505.5469 159.7227 Q506.1875 159.7227 506.5156 159.5352 Q506.7344 159.3945 506.8438 159.1133 Q506.9219 158.9102 506.9219 158.3633 L506.9219 157.4414 Q506.1719 158.457 505.0469 158.457 Q503.7969 158.457 503.0625 157.3945 Q502.5 156.5508 502.5 155.3164 Q502.5 153.7383 503.25 152.918 Q504 152.0977 505.125 152.0977 Q506.2656 152.0977 507.0156 153.1133 L507.0156 152.2383 L508.5625 152.2383 L508.5625 157.8164 Q508.5625 158.9258 508.3828 159.4648 Q508.2031 160.0039 507.875 160.3164 Q507.5469 160.6289 507 160.8086 Q506.4531 160.9883 505.6094 160.9883 Q504.0312 160.9883 503.3672 160.4414 Q502.7031 159.8945 502.7031 159.0664 Q502.7031 158.9883 502.7031 158.8633 ZM504.1875 155.2227 Q504.1875 156.207 504.5703 156.668 Q504.9531 157.1289 505.5156 157.1289 Q506.1094 157.1289 506.5312 156.6523 Q506.9531 156.1758 506.9531 155.2539 Q506.9531 154.2852 506.5547 153.8164 Q506.1562 153.3477 505.5469 153.3477 Q504.9531 153.3477 504.5703 153.8086 Q504.1875 154.2695 504.1875 155.2227 ZM509.2812 156.6758 L510.9375 156.4258 Q511.0469 156.9102 511.3672 157.1602 Q511.6875 157.4102 512.2656 157.4102 Q512.9062 157.4102 513.2188 157.1758 Q513.4375 157.0039 513.4375 156.7383 Q513.4375 156.5508 513.3281 156.4258 Q513.2031 156.3008 512.7812 156.207 Q510.7812 155.7695 510.25 155.4102 Q509.5156 154.8945 509.5156 154.0039 Q509.5156 153.1914 510.1484 152.6445 Q510.7812 152.0977 512.125 152.0977 Q513.4062 152.0977 514.0312 152.5117 Q514.6562 152.9258 514.8906 153.7383 L513.3281 154.0195 Q513.2344 153.6602 512.9531 153.4648 Q512.6719 153.2695 512.1562 153.2695 Q511.5156 153.2695 511.2344 153.457 Q511.0469 153.582 511.0469 153.7852 Q511.0469 153.9727 511.2031 154.0977 Q511.4219 154.2539 512.7422 154.5508 Q514.0625 154.8477 514.5781 155.2852 Q515.0938 155.7227 515.0938 156.5039 Q515.0938 157.3633 514.3828 157.9805 Q513.6719 158.5977 512.2656 158.5977 Q511 158.5977 510.2578 158.082 Q509.5156 157.5664 509.2812 156.6758 ZM518.0938 154.1289 L516.5938 153.8633 Q516.8438 152.957 517.4609 152.5273 Q518.0781 152.0977 519.2969 152.0977 Q520.3906 152.0977 520.9297 152.3555 Q521.4688 152.6133 521.6875 153.0117 Q521.9062 153.4102 521.9062 154.4883 L521.8906 156.4102 Q521.8906 157.2383 521.9688 157.6211 Q522.0469 158.0039 522.2656 158.457 L520.6406 158.457 Q520.5781 158.2852 520.4844 157.9727 Q520.4375 157.8164 520.4219 157.7695 Q520 158.1914 519.5234 158.3945 Q519.0469 158.5977 518.5 158.5977 Q517.5312 158.5977 516.9766 158.0742 Q516.4219 157.5508 516.4219 156.7539 Q516.4219 156.2227 516.6797 155.8164 Q516.9375 155.4102 517.3906 155.1836 Q517.8438 154.957 518.7031 154.8008 Q519.8438 154.582 520.2969 154.3945 L520.2969 154.2383 Q520.2969 153.7539 520.0625 153.5508 Q519.8281 153.3477 519.1719 153.3477 Q518.7344 153.3477 518.4922 153.5195 Q518.25 153.6914 518.0938 154.1289 ZM520.2969 155.4727 Q519.9844 155.5664 519.2969 155.7148 Q518.6094 155.8633 518.3906 156.0039 Q518.0781 156.2383 518.0781 156.582 Q518.0781 156.9258 518.3359 157.1836 Q518.5938 157.4414 518.9844 157.4414 Q519.4375 157.4414 519.8438 157.1445 Q520.1406 156.9258 520.2344 156.5977 Q520.2969 156.3945 520.2969 155.8008 L520.2969 155.4727 ZM523.7344 152.2383 L525.25 152.2383 L525.25 153.082 Q526.0781 152.0977 527.2031 152.0977 Q527.7969 152.0977 528.2344 152.3398 Q528.6719 152.582 528.9531 153.082 Q529.3594 152.582 529.8359 152.3398 Q530.3125 152.0977 530.8594 152.0977 Q531.5312 152.0977 532.0078 152.3711 Q532.4844 152.6445 532.7188 153.1914 Q532.8906 153.582 532.8906 154.4727 L532.8906 158.457 L531.25 158.457 L531.25 154.8945 Q531.25 153.9727 531.0781 153.707 Q530.8438 153.3477 530.375 153.3477 Q530.0312 153.3477 529.7266 153.5586 Q529.4219 153.7695 529.2812 154.1758 Q529.1406 154.582 529.1406 155.4727 L529.1406 158.457 L527.5 158.457 L527.5 155.0508 Q527.5 154.1445 527.4141 153.8789 Q527.3281 153.6133 527.1406 153.4805 Q526.9531 153.3477 526.6406 153.3477 Q526.2656 153.3477 525.9609 153.5586 Q525.6562 153.7695 525.5234 154.1523 Q525.3906 154.5352 525.3906 155.4258 L525.3906 158.457 L523.7344 158.457 L523.7344 152.2383 ZM537.7188 152.2383 L537.7188 153.5508 L536.5938 153.5508 L536.5938 156.0508 Q536.5938 156.8164 536.625 156.9414 Q536.6562 157.0664 536.7734 157.1523 Q536.8906 157.2383 537.0469 157.2383 Q537.2812 157.2383 537.7031 157.0664 L537.8438 158.3477 Q537.2812 158.5977 536.5469 158.5977 Q536.1094 158.5977 535.75 158.4492 Q535.3906 158.3008 535.2266 158.0586 Q535.0625 157.8164 534.9844 157.4258 Q534.9375 157.1289 534.9375 156.2539 L534.9375 153.5508 L534.1875 153.5508 L534.1875 152.2383 L534.9375 152.2383 L534.9375 151.0039 L536.5938 150.0352 L536.5938 152.2383 L537.7188 152.2383 Z" clip-path="url(#clipPath2)" stroke="none"/><line clip-path="url(#clipPath2)" fill="none" x1="472" x2="472" y1="122" y2="135" stroke="rgb(178,178,178)"/><line clip-path="url(#clipPath2)" fill="none" x1="454" x2="490" y1="129" y2="129" stroke="rgb(178,178,178)"/><line clip-path="url(#clipPath2)" fill="none" x1="454" x2="472" y1="147" y2="135" stroke="rgb(178,178,178)"/><line clip-path="url(#clipPath2)" fill="none" x1="490" x2="472" y1="147" y2="135" stroke="rgb(178,178,178)"/><line clip-path="url(#clipPath2)" fill="none" x1="473" x2="473" y1="122" y2="136" stroke="rgb(178,178,178)"/><line clip-path="url(#clipPath2)" fill="none" x1="455" x2="491" y1="130" y2="130" stroke="rgb(178,178,178)"/><line clip-path="url(#clipPath2)" fill="none" x1="455" x2="473" y1="148" y2="136" stroke="rgb(178,178,178)"/><line clip-path="url(#clipPath2)" fill="none" x1="491" x2="473" y1="148" y2="136" stroke="rgb(178,178,178)"/><circle fill="rgb(178,178,178)" r="6" clip-path="url(#clipPath2)" cx="473" cy="118" stroke="none"/><circle fill="url(#linearGradient3)" r="6" clip-path="url(#clipPath2)" cx="471" cy="116" stroke="none"/><circle fill="none" r="6" clip-path="url(#clipPath2)" cx="471" cy="116"/><line y2="134" fill="none" x1="471" clip-path="url(#clipPath2)" x2="471" y1="122"/><line y2="128" fill="none" x1="453" clip-path="url(#clipPath2)" x2="489" y1="128"/><line y2="134" fill="none" x1="453" clip-path="url(#clipPath2)" x2="471" y1="146"/><line y2="134" fill="none" x1="489" clip-path="url(#clipPath2)" x2="471" y1="146"/><path fill="black" d="M43.8438 158.457 L43.8438 149.8633 L46.4531 149.8633 L48 155.7227 L49.5469 149.8633 L52.1406 149.8633 L52.1406 158.457 L50.5312 158.457 L50.5312 151.6914 L48.8281 158.457 L47.1562 158.457 L45.4688 151.6914 L45.4688 158.457 L43.8438 158.457 ZM57.4688 156.4727 L59.1094 156.7539 Q58.7969 157.6602 58.1094 158.1289 Q57.4219 158.5977 56.4062 158.5977 Q54.7812 158.5977 54 157.5352 Q53.375 156.6914 53.375 155.3945 Q53.375 153.8477 54.1875 152.9727 Q55 152.0977 56.2344 152.0977 Q57.625 152.0977 58.4297 153.0117 Q59.2344 153.9258 59.1875 155.8164 L55.0625 155.8164 Q55.0938 156.5508 55.4688 156.957 Q55.8438 157.3633 56.4219 157.3633 Q56.7969 157.3633 57.0625 157.1523 Q57.3281 156.9414 57.4688 156.4727 ZM57.5625 154.8164 Q57.5469 154.0977 57.1953 153.7227 Q56.8438 153.3477 56.3281 153.3477 Q55.7969 153.3477 55.4375 153.7383 Q55.0938 154.1445 55.0938 154.8164 L57.5625 154.8164 ZM60.8594 158.457 L60.8594 149.8633 L62.5156 149.8633 L62.5156 158.457 L60.8594 158.457 ZM69.5625 158.457 L68.0469 158.457 L68.0469 157.5352 Q67.6562 158.082 67.1406 158.3398 Q66.625 158.5977 66.0938 158.5977 Q65.0156 158.5977 64.2578 157.7305 Q63.5 156.8633 63.5 155.3164 Q63.5 153.7383 64.2422 152.918 Q64.9844 152.0977 66.125 152.0977 Q67.1562 152.0977 67.9219 152.957 L67.9219 149.8633 L69.5625 149.8633 L69.5625 158.457 ZM65.1719 155.207 Q65.1719 156.207 65.4531 156.6445 Q65.8438 157.3008 66.5625 157.3008 Q67.125 157.3008 67.5234 156.8164 Q67.9219 156.332 67.9219 155.3633 Q67.9219 154.3008 67.5391 153.8242 Q67.1562 153.3477 66.5469 153.3477 Q65.9688 153.3477 65.5703 153.8164 Q65.1719 154.2852 65.1719 155.207 ZM74.4688 156.4727 L76.1094 156.7539 Q75.7969 157.6602 75.1094 158.1289 Q74.4219 158.5977 73.4062 158.5977 Q71.7812 158.5977 71 157.5352 Q70.375 156.6914 70.375 155.3945 Q70.375 153.8477 71.1875 152.9727 Q72 152.0977 73.2344 152.0977 Q74.625 152.0977 75.4297 153.0117 Q76.2344 153.9258 76.1875 155.8164 L72.0625 155.8164 Q72.0938 156.5508 72.4688 156.957 Q72.8438 157.3633 73.4219 157.3633 Q73.7969 157.3633 74.0625 157.1523 Q74.3281 156.9414 74.4688 156.4727 ZM74.5625 154.8164 Q74.5469 154.0977 74.1953 153.7227 Q73.8438 153.3477 73.3281 153.3477 Q72.7969 153.3477 72.4375 153.7383 Q72.0938 154.1445 72.0938 154.8164 L74.5625 154.8164 ZM77.7969 158.457 L77.7969 149.8633 L79.4375 149.8633 L79.4375 152.957 Q80.2031 152.0977 81.25 152.0977 Q82.375 152.0977 83.125 152.918 Q83.875 153.7383 83.875 155.2852 Q83.875 156.8789 83.1094 157.7383 Q82.3438 158.5977 81.2656 158.5977 Q80.7344 158.5977 80.2188 158.332 Q79.7031 158.0664 79.3281 157.5352 L79.3281 158.457 L77.7969 158.457 ZM79.4219 155.207 Q79.4219 156.1758 79.7344 156.6445 Q80.1562 157.3008 80.875 157.3008 Q81.4062 157.3008 81.7969 156.832 Q82.1875 156.3633 82.1875 155.3633 Q82.1875 154.3008 81.7969 153.8242 Q81.4062 153.3477 80.7969 153.3477 Q80.2188 153.3477 79.8203 153.8086 Q79.4219 154.2695 79.4219 155.207 ZM88.4688 156.4727 L90.1094 156.7539 Q89.7969 157.6602 89.1094 158.1289 Q88.4219 158.5977 87.4062 158.5977 Q85.7812 158.5977 85 157.5352 Q84.375 156.6914 84.375 155.3945 Q84.375 153.8477 85.1875 152.9727 Q86 152.0977 87.2344 152.0977 Q88.625 152.0977 89.4297 153.0117 Q90.2344 153.9258 90.1875 155.8164 L86.0625 155.8164 Q86.0938 156.5508 86.4688 156.957 Q86.8438 157.3633 87.4219 157.3633 Q87.7969 157.3633 88.0625 157.1523 Q88.3281 156.9414 88.4688 156.4727 ZM88.5625 154.8164 Q88.5469 154.0977 88.1953 153.7227 Q87.8438 153.3477 87.3281 153.3477 Q86.7969 153.3477 86.4375 153.7383 Q86.0938 154.1445 86.0938 154.8164 L88.5625 154.8164 ZM93.5 149.8633 L93.5 153.0195 Q94.2969 152.0977 95.4062 152.0977 Q95.9688 152.0977 96.4297 152.3086 Q96.8906 152.5195 97.125 152.8477 Q97.3594 153.1758 97.4375 153.5742 Q97.5156 153.9727 97.5156 154.8008 L97.5156 158.457 L95.875 158.457 L95.875 155.1758 Q95.875 154.1914 95.7812 153.9258 Q95.6875 153.6602 95.4531 153.5039 Q95.2188 153.3477 94.8594 153.3477 Q94.4531 153.3477 94.125 153.5508 Q93.7969 153.7539 93.6484 154.1523 Q93.5 154.5508 93.5 155.332 L93.5 158.457 L91.8594 158.457 L91.8594 149.8633 L93.5 149.8633 ZM98.4844 155.2539 Q98.4844 154.4414 98.8906 153.668 Q99.2969 152.8945 100.0312 152.4961 Q100.7656 152.0977 101.6875 152.0977 Q103.0938 152.0977 104 153.0117 Q104.9062 153.9258 104.9062 155.332 Q104.9062 156.7383 103.9922 157.668 Q103.0781 158.5977 101.7031 158.5977 Q100.8438 158.5977 100.0703 158.207 Q99.2969 157.8164 98.8906 157.0742 Q98.4844 156.332 98.4844 155.2539 ZM100.1719 155.3477 Q100.1719 156.2695 100.6094 156.7617 Q101.0469 157.2539 101.6875 157.2539 Q102.3438 157.2539 102.7734 156.7617 Q103.2031 156.2695 103.2031 155.332 Q103.2031 154.4258 102.7734 153.9336 Q102.3438 153.4414 101.6875 153.4414 Q101.0469 153.4414 100.6094 153.9336 Q100.1719 154.4258 100.1719 155.3477 ZM100.0625 150.457 L100.0625 149.0508 L101.4688 149.0508 L101.4688 150.457 L100.0625 150.457 ZM102.5781 150.457 L102.5781 149.0508 L104 149.0508 L104 150.457 L102.5781 150.457 ZM107.4375 158.457 L105.7969 158.457 L105.7969 152.2383 L107.3281 152.2383 L107.3281 153.1133 Q107.7188 152.4883 108.0312 152.293 Q108.3438 152.0977 108.7344 152.0977 Q109.2969 152.0977 109.8281 152.4102 L109.3125 153.832 Q108.8906 153.5664 108.5469 153.5664 Q108.1875 153.5664 107.9531 153.7617 Q107.7188 153.957 107.5781 154.4492 Q107.4375 154.9414 107.4375 156.5352 L107.4375 158.457 ZM116.5625 158.457 L115.0469 158.457 L115.0469 157.5352 Q114.6562 158.082 114.1406 158.3398 Q113.625 158.5977 113.0938 158.5977 Q112.0156 158.5977 111.2578 157.7305 Q110.5 156.8633 110.5 155.3164 Q110.5 153.7383 111.2422 152.918 Q111.9844 152.0977 113.125 152.0977 Q114.1562 152.0977 114.9219 152.957 L114.9219 149.8633 L116.5625 149.8633 L116.5625 158.457 ZM112.1719 155.207 Q112.1719 156.207 112.4531 156.6445 Q112.8438 157.3008 113.5625 157.3008 Q114.125 157.3008 114.5234 156.8164 Q114.9219 156.332 114.9219 155.3633 Q114.9219 154.3008 114.5391 153.8242 Q114.1562 153.3477 113.5469 153.3477 Q112.9688 153.3477 112.5703 153.8164 Q112.1719 154.2852 112.1719 155.207 ZM121.4688 156.4727 L123.1094 156.7539 Q122.7969 157.6602 122.1094 158.1289 Q121.4219 158.5977 120.4062 158.5977 Q118.7812 158.5977 118 157.5352 Q117.375 156.6914 117.375 155.3945 Q117.375 153.8477 118.1875 152.9727 Q119 152.0977 120.2344 152.0977 Q121.625 152.0977 122.4297 153.0117 Q123.2344 153.9258 123.1875 155.8164 L119.0625 155.8164 Q119.0938 156.5508 119.4688 156.957 Q119.8438 157.3633 120.4219 157.3633 Q120.7969 157.3633 121.0625 157.1523 Q121.3281 156.9414 121.4688 156.4727 ZM121.5625 154.8164 Q121.5469 154.0977 121.1953 153.7227 Q120.8438 153.3477 120.3281 153.3477 Q119.7969 153.3477 119.4375 153.7383 Q119.0938 154.1445 119.0938 154.8164 L121.5625 154.8164 Z" clip-path="url(#clipPath2)" stroke="none"/><line clip-path="url(#clipPath2)" fill="none" x1="85" x2="85" y1="122" y2="135" stroke="rgb(178,178,178)"/><line clip-path="url(#clipPath2)" fill="none" x1="67" x2="103" y1="129" y2="129" stroke="rgb(178,178,178)"/><line clip-path="url(#clipPath2)" fill="none" x1="67" x2="85" y1="147" y2="135" stroke="rgb(178,178,178)"/><line clip-path="url(#clipPath2)" fill="none" x1="103" x2="85" y1="147" y2="135" stroke="rgb(178,178,178)"/><line clip-path="url(#clipPath2)" fill="none" x1="86" x2="86" y1="122" y2="136" stroke="rgb(178,178,178)"/><line clip-path="url(#clipPath2)" fill="none" x1="68" x2="104" y1="130" y2="130" stroke="rgb(178,178,178)"/><line clip-path="url(#clipPath2)" fill="none" x1="68" x2="86" y1="148" y2="136" stroke="rgb(178,178,178)"/><line clip-path="url(#clipPath2)" fill="none" x1="104" x2="86" y1="148" y2="136" stroke="rgb(178,178,178)"/><circle fill="rgb(178,178,178)" r="6" clip-path="url(#clipPath2)" cx="86" cy="118" stroke="none"/><circle fill="url(#linearGradient4)" r="6" clip-path="url(#clipPath2)" cx="84" cy="116" stroke="none"/><circle fill="none" r="6" clip-path="url(#clipPath2)" cx="84" cy="116"/><line y2="134" fill="none" x1="84" clip-path="url(#clipPath2)" x2="84" y1="122"/><line y2="128" fill="none" x1="66" clip-path="url(#clipPath2)" x2="102" y1="128"/><line y2="134" fill="none" x1="66" clip-path="url(#clipPath2)" x2="84" y1="146"/><line y2="134" fill="none" x1="102" clip-path="url(#clipPath2)" x2="84" y1="146"/><path fill="none" d="M219 74 L102 129" clip-path="url(#clipPath2)"/><path fill="none" d="M453 128 L338 73" clip-path="url(#clipPath2)"/><path fill="none" d="M214 189 L125 154" clip-path="url(#clipPath2)"/><path fill="none" d="M413 161 L343 189" clip-path="url(#clipPath2)"/></g></g></svg>