<?xml version="1.0" encoding="UTF-8"?><svg xmlns="http://www.w3.org/2000/svg" xmlns:xlink="http://www.w3.org/1999/xlink" fill-opacity="1" color-rendering="auto" color-interpolation="auto" text-rendering="auto" stroke="black" stroke-linecap="square" width="14.145833333333334in" stroke-miterlimit="10" shape-rendering="auto" stroke-opacity="1" fill="black" stroke-dasharray="none" font-weight="normal" stroke-width="1" viewBox="0 0 1358 2153" height="22.427083333333332in" font-family="'Arial'" font-style="normal" stroke-linejoin="miter" font-size="12" stroke-dashoffset="0" image-rendering="auto" preserveAspectRatio="xMidYMid meet" zoomAndPan="magnify" version="1.0" contentScriptType="text/ecmascript" contentStyleType="text/css"><!--Generated by the Batik Graphics2D SVG Generator
 This is MagicDraw diagram.--><defs id="genericDefs"/><g><defs id="defs1"><linearGradient x1="70" gradientUnits="userSpaceOnUse" x2="164" y1="75" y2="99" id="linearGradient1" spreadMethod="pad" xlink:type="simple" xlink:show="other" xlink:actuate="onLoad"><stop stop-opacity="1" stop-color="rgb(200,250,200)" offset="0%"/><stop stop-opacity="1" stop-color="white" offset="100%"/></linearGradient><linearGradient x1="480" gradientUnits="userSpaceOnUse" x2="525" y1="75" y2="99" id="linearGradient2" spreadMethod="pad" xlink:type="simple" xlink:show="other" xlink:actuate="onLoad"><stop stop-opacity="1" stop-color="rgb(200,250,200)" offset="0%"/><stop stop-opacity="1" stop-color="white" offset="100%"/></linearGradient><clipPath clipPathUnits="userSpaceOnUse" id="clipPath1"><path d="M0 -5 L1512 -5 L1512 2321 L0 2321 L0 -5 Z"/></clipPath><clipPath clipPathUnits="userSpaceOnUse" id="clipPath2"><path d="M55 58.2143 L595 58.2143 L595 888.9286 L55 888.9286 L55 58.2143 Z"/></clipPath></defs><g fill="white" stroke="white"><rect x="0" width="1512" height="2326" y="-5" clip-path="url(#clipPath1)" stroke="none"/><rect x="73" y="78" transform="scale(2.8,2.8) translate(-55,-60)" clip-path="url(#clipPath2)" fill="rgb(178,178,178)" width="94" text-rendering="geometricPrecision" height="24" stroke="none"/><rect x="70" y="75" transform="scale(2.8,2.8) translate(-55,-60)" clip-path="url(#clipPath2)" fill="url(#linearGradient1)" width="94" text-rendering="geometricPrecision" height="24" stroke="none"/></g><g fill="rgb(66,66,66)" text-rendering="geometricPrecision" transform="scale(2.8,2.8) translate(-55,-60)" stroke-linecap="butt" stroke="rgb(66,66,66)" stroke-linejoin="round"><rect fill="none" x="70" width="94" height="24" y="75" clip-path="url(#clipPath2)"/><path fill="black" d="M76.8438 90.457 L76.8438 81.8633 L79.4531 81.8633 L81 87.7227 L82.5469 81.8633 L85.1406 81.8633 L85.1406 90.457 L83.5312 90.457 L83.5312 83.6914 L81.8281 90.457 L80.1562 90.457 L78.4688 83.6914 L78.4688 90.457 L76.8438 90.457 ZM90.4688 88.4727 L92.1094 88.7539 Q91.7969 89.6602 91.1094 90.1289 Q90.4219 90.5977 89.4062 90.5977 Q87.7812 90.5977 87 89.5352 Q86.375 88.6914 86.375 87.3945 Q86.375 85.8477 87.1875 84.9727 Q88 84.0977 89.2344 84.0977 Q90.625 84.0977 91.4297 85.0117 Q92.2344 85.9258 92.1875 87.8164 L88.0625 87.8164 Q88.0938 88.5508 88.4688 88.957 Q88.8438 89.3633 89.4219 89.3633 Q89.7969 89.3633 90.0625 89.1523 Q90.3281 88.9414 90.4688 88.4727 ZM90.5625 86.8164 Q90.5469 86.0977 90.1953 85.7227 Q89.8438 85.3477 89.3281 85.3477 Q88.7969 85.3477 88.4375 85.7383 Q88.0938 86.1445 88.0938 86.8164 L90.5625 86.8164 ZM93.8594 90.457 L93.8594 81.8633 L95.5156 81.8633 L95.5156 90.457 L93.8594 90.457 ZM102.5625 90.457 L101.0469 90.457 L101.0469 89.5352 Q100.6562 90.082 100.1406 90.3398 Q99.625 90.5977 99.0938 90.5977 Q98.0156 90.5977 97.2578 89.7305 Q96.5 88.8633 96.5 87.3164 Q96.5 85.7383 97.2422 84.918 Q97.9844 84.0977 99.125 84.0977 Q100.1562 84.0977 100.9219 84.957 L100.9219 81.8633 L102.5625 81.8633 L102.5625 90.457 ZM98.1719 87.207 Q98.1719 88.207 98.4531 88.6445 Q98.8438 89.3008 99.5625 89.3008 Q100.125 89.3008 100.5234 88.8164 Q100.9219 88.332 100.9219 87.3633 Q100.9219 86.3008 100.5391 85.8242 Q100.1562 85.3477 99.5469 85.3477 Q98.9688 85.3477 98.5703 85.8164 Q98.1719 86.2852 98.1719 87.207 ZM107.4688 88.4727 L109.1094 88.7539 Q108.7969 89.6602 108.1094 90.1289 Q107.4219 90.5977 106.4062 90.5977 Q104.7812 90.5977 104 89.5352 Q103.375 88.6914 103.375 87.3945 Q103.375 85.8477 104.1875 84.9727 Q105 84.0977 106.2344 84.0977 Q107.625 84.0977 108.4297 85.0117 Q109.2344 85.9258 109.1875 87.8164 L105.0625 87.8164 Q105.0938 88.5508 105.4688 88.957 Q105.8438 89.3633 106.4219 89.3633 Q106.7969 89.3633 107.0625 89.1523 Q107.3281 88.9414 107.4688 88.4727 ZM107.5625 86.8164 Q107.5469 86.0977 107.1953 85.7227 Q106.8438 85.3477 106.3281 85.3477 Q105.7969 85.3477 105.4375 85.7383 Q105.0938 86.1445 105.0938 86.8164 L107.5625 86.8164 ZM110.7969 90.457 L110.7969 81.8633 L112.4375 81.8633 L112.4375 84.957 Q113.2031 84.0977 114.25 84.0977 Q115.375 84.0977 116.125 84.918 Q116.875 85.7383 116.875 87.2852 Q116.875 88.8789 116.1094 89.7383 Q115.3438 90.5977 114.2656 90.5977 Q113.7344 90.5977 113.2188 90.332 Q112.7031 90.0664 112.3281 89.5352 L112.3281 90.457 L110.7969 90.457 ZM112.4219 87.207 Q112.4219 88.1758 112.7344 88.6445 Q113.1562 89.3008 113.875 89.3008 Q114.4062 89.3008 114.7969 88.832 Q115.1875 88.3633 115.1875 87.3633 Q115.1875 86.3008 114.7969 85.8242 Q114.4062 85.3477 113.7969 85.3477 Q113.2188 85.3477 112.8203 85.8086 Q112.4219 86.2695 112.4219 87.207 ZM121.4688 88.4727 L123.1094 88.7539 Q122.7969 89.6602 122.1094 90.1289 Q121.4219 90.5977 120.4062 90.5977 Q118.7812 90.5977 118 89.5352 Q117.375 88.6914 117.375 87.3945 Q117.375 85.8477 118.1875 84.9727 Q119 84.0977 120.2344 84.0977 Q121.625 84.0977 122.4297 85.0117 Q123.2344 85.9258 123.1875 87.8164 L119.0625 87.8164 Q119.0938 88.5508 119.4688 88.957 Q119.8438 89.3633 120.4219 89.3633 Q120.7969 89.3633 121.0625 89.1523 Q121.3281 88.9414 121.4688 88.4727 ZM121.5625 86.8164 Q121.5469 86.0977 121.1953 85.7227 Q120.8438 85.3477 120.3281 85.3477 Q119.7969 85.3477 119.4375 85.7383 Q119.0938 86.1445 119.0938 86.8164 L121.5625 86.8164 ZM126.5 81.8633 L126.5 85.0195 Q127.2969 84.0977 128.4062 84.0977 Q128.9688 84.0977 129.4297 84.3086 Q129.8906 84.5195 130.125 84.8477 Q130.3594 85.1758 130.4375 85.5742 Q130.5156 85.9727 130.5156 86.8008 L130.5156 90.457 L128.875 90.457 L128.875 87.1758 Q128.875 86.1914 128.7812 85.9258 Q128.6875 85.6602 128.4531 85.5039 Q128.2188 85.3477 127.8594 85.3477 Q127.4531 85.3477 127.125 85.5508 Q126.7969 85.7539 126.6484 86.1523 Q126.5 86.5508 126.5 87.332 L126.5 90.457 L124.8594 90.457 L124.8594 81.8633 L126.5 81.8633 ZM131.4844 87.2539 Q131.4844 86.4414 131.8906 85.668 Q132.2969 84.8945 133.0312 84.4961 Q133.7656 84.0977 134.6875 84.0977 Q136.0938 84.0977 137 85.0117 Q137.9062 85.9258 137.9062 87.332 Q137.9062 88.7383 136.9922 89.668 Q136.0781 90.5977 134.7031 90.5977 Q133.8438 90.5977 133.0703 90.207 Q132.2969 89.8164 131.8906 89.0742 Q131.4844 88.332 131.4844 87.2539 ZM133.1719 87.3477 Q133.1719 88.2695 133.6094 88.7617 Q134.0469 89.2539 134.6875 89.2539 Q135.3438 89.2539 135.7734 88.7617 Q136.2031 88.2695 136.2031 87.332 Q136.2031 86.4258 135.7734 85.9336 Q135.3438 85.4414 134.6875 85.4414 Q134.0469 85.4414 133.6094 85.9336 Q133.1719 86.4258 133.1719 87.3477 ZM133.0625 82.457 L133.0625 81.0508 L134.4688 81.0508 L134.4688 82.457 L133.0625 82.457 ZM135.5781 82.457 L135.5781 81.0508 L137 81.0508 L137 82.457 L135.5781 82.457 ZM140.4375 90.457 L138.7969 90.457 L138.7969 84.2383 L140.3281 84.2383 L140.3281 85.1133 Q140.7188 84.4883 141.0312 84.293 Q141.3438 84.0977 141.7344 84.0977 Q142.2969 84.0977 142.8281 84.4102 L142.3125 85.832 Q141.8906 85.5664 141.5469 85.5664 Q141.1875 85.5664 140.9531 85.7617 Q140.7188 85.957 140.5781 86.4492 Q140.4375 86.9414 140.4375 88.5352 L140.4375 90.457 ZM149.5625 90.457 L148.0469 90.457 L148.0469 89.5352 Q147.6562 90.082 147.1406 90.3398 Q146.625 90.5977 146.0938 90.5977 Q145.0156 90.5977 144.2578 89.7305 Q143.5 88.8633 143.5 87.3164 Q143.5 85.7383 144.2422 84.918 Q144.9844 84.0977 146.125 84.0977 Q147.1562 84.0977 147.9219 84.957 L147.9219 81.8633 L149.5625 81.8633 L149.5625 90.457 ZM145.1719 87.207 Q145.1719 88.207 145.4531 88.6445 Q145.8438 89.3008 146.5625 89.3008 Q147.125 89.3008 147.5234 88.8164 Q147.9219 88.332 147.9219 87.3633 Q147.9219 86.3008 147.5391 85.8242 Q147.1562 85.3477 146.5469 85.3477 Q145.9688 85.3477 145.5703 85.8164 Q145.1719 86.2852 145.1719 87.207 ZM154.4688 88.4727 L156.1094 88.7539 Q155.7969 89.6602 155.1094 90.1289 Q154.4219 90.5977 153.4062 90.5977 Q151.7812 90.5977 151 89.5352 Q150.375 88.6914 150.375 87.3945 Q150.375 85.8477 151.1875 84.9727 Q152 84.0977 153.2344 84.0977 Q154.625 84.0977 155.4297 85.0117 Q156.2344 85.9258 156.1875 87.8164 L152.0625 87.8164 Q152.0938 88.5508 152.4688 88.957 Q152.8438 89.3633 153.4219 89.3633 Q153.7969 89.3633 154.0625 89.1523 Q154.3281 88.9414 154.4688 88.4727 ZM154.5625 86.8164 Q154.5469 86.0977 154.1953 85.7227 Q153.8438 85.3477 153.3281 85.3477 Q152.7969 85.3477 152.4375 85.7383 Q152.0938 86.1445 152.0938 86.8164 L154.5625 86.8164 Z" clip-path="url(#clipPath2)" stroke="none"/><line clip-path="url(#clipPath2)" fill="none" x1="117" x2="117" y1="99" y2="814" stroke-dasharray="6,4" stroke-miterlimit="7"/><rect x="112" y="151" clip-path="url(#clipPath2)" fill="rgb(200,250,200)" width="10" height="70" stroke="none"/><rect fill="none" x="112" width="10" height="70" y="151" clip-path="url(#clipPath2)"/><rect x="112" y="259" clip-path="url(#clipPath2)" fill="rgb(200,250,200)" width="10" height="50" stroke="none"/><rect fill="none" x="112" width="10" height="50" y="259" clip-path="url(#clipPath2)"/><rect x="112" y="350" clip-path="url(#clipPath2)" fill="rgb(200,250,200)" width="10" height="70" stroke="none"/><rect fill="none" x="112" width="10" height="70" y="350" clip-path="url(#clipPath2)"/><rect x="112" y="443" clip-path="url(#clipPath2)" fill="rgb(200,250,200)" width="10" height="50" stroke="none"/><rect fill="none" x="112" width="10" height="50" y="443" clip-path="url(#clipPath2)"/><rect x="112" y="542" clip-path="url(#clipPath2)" fill="rgb(200,250,200)" width="10" height="70" stroke="none"/><rect fill="none" x="112" width="10" height="70" y="542" clip-path="url(#clipPath2)"/><rect x="112" y="638" clip-path="url(#clipPath2)" fill="rgb(200,250,200)" width="10" height="50" stroke="none"/><rect fill="none" x="112" width="10" height="50" y="638" clip-path="url(#clipPath2)"/><rect x="112" y="719" clip-path="url(#clipPath2)" fill="rgb(200,250,200)" width="10" height="70" stroke="none"/><rect fill="none" x="112" width="10" height="70" y="719" clip-path="url(#clipPath2)"/><rect x="483" y="78" clip-path="url(#clipPath2)" fill="rgb(178,178,178)" width="45" height="24" stroke="none"/><rect x="480" y="75" clip-path="url(#clipPath2)" fill="url(#linearGradient2)" width="45" height="24" stroke="none"/><rect fill="none" x="480" width="45" height="24" y="75" clip-path="url(#clipPath2)"/><path fill="black" d="M489.875 81.8633 L493.3125 81.8633 Q494.3281 81.8633 494.8281 81.9492 Q495.3281 82.0352 495.7266 82.3086 Q496.125 82.582 496.3906 83.0273 Q496.6562 83.4727 496.6562 84.0352 Q496.6562 84.6289 496.3281 85.1367 Q496 85.6445 495.4531 85.8945 Q496.2344 86.1133 496.6562 86.668 Q497.0781 87.2227 497.0781 87.9727 Q497.0781 88.5508 496.8047 89.1055 Q496.5312 89.6602 496.0625 89.9883 Q495.5938 90.3164 494.8906 90.3945 Q494.4688 90.4414 492.7969 90.457 L489.875 90.457 L489.875 81.8633 ZM491.6094 83.3008 L491.6094 85.2852 L492.75 85.2852 Q493.7656 85.2852 494.0156 85.2539 Q494.4531 85.207 494.7109 84.9492 Q494.9688 84.6914 494.9688 84.2695 Q494.9688 83.8789 494.75 83.6289 Q494.5312 83.3789 494.0938 83.332 Q493.8281 83.3008 492.6094 83.3008 L491.6094 83.3008 ZM491.6094 86.707 L491.6094 89.0039 L493.2188 89.0039 Q494.1562 89.0039 494.4062 88.957 Q494.7969 88.8789 495.0391 88.6133 Q495.2812 88.3477 495.2812 87.8789 Q495.2812 87.5039 495.0938 87.2305 Q494.9062 86.957 494.5547 86.832 Q494.2031 86.707 493.0156 86.707 L491.6094 86.707 ZM497.125 90.457 L497.125 88.8945 L501.6406 83.3164 L497.6406 83.3164 L497.6406 81.8633 L503.9219 81.8633 L503.9219 83.207 L499.2188 89.0039 L504.1094 89.0039 L504.1094 90.457 L497.125 90.457 ZM504.4375 87.6602 L506.125 87.5039 Q506.2812 88.3477 506.7422 88.7461 Q507.2031 89.1445 508 89.1445 Q508.8281 89.1445 509.2578 88.793 Q509.6875 88.4414 509.6875 87.957 Q509.6875 87.6602 509.5078 87.4414 Q509.3281 87.2227 508.875 87.0664 Q508.5781 86.957 507.5 86.6914 Q506.0938 86.3477 505.5312 85.8477 Q504.75 85.1289 504.75 84.1133 Q504.75 83.457 505.1172 82.8867 Q505.4844 82.3164 506.1875 82.0195 Q506.8906 81.7227 507.875 81.7227 Q509.5 81.7227 510.3125 82.4336 Q511.125 83.1445 511.1719 84.3164 L509.4375 84.3945 Q509.3281 83.7383 508.9609 83.4492 Q508.5938 83.1602 507.8594 83.1602 Q507.1094 83.1602 506.6719 83.4727 Q506.4062 83.6602 506.4062 84.0039 Q506.4062 84.3008 506.6562 84.5195 Q506.9844 84.8008 508.25 85.0977 Q509.5156 85.3945 510.125 85.7148 Q510.7344 86.0352 511.0781 86.5898 Q511.4219 87.1445 511.4219 87.957 Q511.4219 88.6914 511.0078 89.3398 Q510.5938 89.9883 509.8438 90.3008 Q509.0938 90.6133 507.9844 90.6133 Q506.3438 90.6133 505.4766 89.8555 Q504.6094 89.0977 504.4375 87.6602 ZM515.7188 84.2383 L515.7188 85.5508 L514.5938 85.5508 L514.5938 88.0508 Q514.5938 88.8164 514.625 88.9414 Q514.6562 89.0664 514.7734 89.1523 Q514.8906 89.2383 515.0469 89.2383 Q515.2812 89.2383 515.7031 89.0664 L515.8438 90.3477 Q515.2812 90.5977 514.5469 90.5977 Q514.1094 90.5977 513.75 90.4492 Q513.3906 90.3008 513.2266 90.0586 Q513.0625 89.8164 512.9844 89.4258 Q512.9375 89.1289 512.9375 88.2539 L512.9375 85.5508 L512.1875 85.5508 L512.1875 84.2383 L512.9375 84.2383 L512.9375 83.0039 L514.5938 82.0352 L514.5938 84.2383 L515.7188 84.2383 Z" clip-path="url(#clipPath2)" stroke="none"/><line clip-path="url(#clipPath2)" fill="none" x1="502" x2="502" y1="99" y2="814" stroke-dasharray="6,4" stroke-miterlimit="7"/><rect x="497" y="151" clip-path="url(#clipPath2)" fill="rgb(200,250,200)" width="10" height="50" stroke="none"/><rect fill="none" x="497" width="10" height="50" y="151" clip-path="url(#clipPath2)"/><rect x="497" y="259" clip-path="url(#clipPath2)" fill="rgb(200,250,200)" width="10" height="70" stroke="none"/><rect fill="none" x="497" width="10" height="70" y="259" clip-path="url(#clipPath2)"/><rect x="497" y="350" clip-path="url(#clipPath2)" fill="rgb(200,250,200)" width="10" height="50" stroke="none"/><rect fill="none" x="497" width="10" height="50" y="350" clip-path="url(#clipPath2)"/><rect x="497" y="443" clip-path="url(#clipPath2)" fill="rgb(200,250,200)" width="10" height="70" stroke="none"/><rect fill="none" x="497" width="10" height="70" y="443" clip-path="url(#clipPath2)"/><rect x="497" y="542" clip-path="url(#clipPath2)" fill="rgb(200,250,200)" width="10" height="50" stroke="none"/><rect fill="none" x="497" width="10" height="50" y="542" clip-path="url(#clipPath2)"/><rect x="497" y="638" clip-path="url(#clipPath2)" fill="rgb(200,250,200)" width="10" height="70" stroke="none"/><rect fill="none" x="497" width="10" height="70" y="638" clip-path="url(#clipPath2)"/><rect x="497" y="719" clip-path="url(#clipPath2)" fill="rgb(200,250,200)" width="10" height="50" stroke="none"/><rect fill="none" x="497" width="10" height="50" y="719" clip-path="url(#clipPath2)"/><polygon points=" 488 146 497 151 488 156" clip-path="url(#clipPath2)" stroke="none"/><polygon fill="none" points=" 488 146 497 151 488 156" clip-path="url(#clipPath2)"/><path fill="none" d="M497 151 L122 151" clip-path="url(#clipPath2)"/><path fill="black" d="M302.5 141.2227 Q302.5 139.6914 302.8125 138.7617 Q303.125 137.832 303.7422 137.332 Q304.3594 136.832 305.2969 136.832 Q305.9844 136.832 306.5078 137.1133 Q307.0312 137.3945 307.375 137.918 Q307.7188 138.4414 307.9062 139.1914 Q308.0938 139.9414 308.0938 141.2227 Q308.0938 142.7383 307.7891 143.6602 Q307.4844 144.582 306.8672 145.0898 Q306.25 145.5977 305.2969 145.5977 Q304.0625 145.5977 303.3438 144.707 Q302.5 143.6445 302.5 141.2227 ZM303.5781 141.2227 Q303.5781 143.332 304.0781 144.0352 Q304.5781 144.7383 305.2969 144.7383 Q306.0312 144.7383 306.5234 144.0352 Q307.0156 143.332 307.0156 141.2227 Q307.0156 139.0977 306.5234 138.4023 Q306.0312 137.707 305.2812 137.707 Q304.5625 137.707 304.125 138.3164 Q303.5781 139.0977 303.5781 141.2227 ZM309.5 143.207 L310.6094 143.1133 Q310.7344 143.9258 311.1797 144.332 Q311.625 144.7383 312.2656 144.7383 Q313.0156 144.7383 313.5469 144.1602 Q314.0781 143.582 314.0781 142.6445 Q314.0781 141.7383 313.5703 141.2148 Q313.0625 140.6914 312.2344 140.6914 Q311.7344 140.6914 311.3203 140.9258 Q310.9062 141.1602 310.6719 141.5195 L309.6875 141.3945 L310.5156 136.9883 L314.7969 136.9883 L314.7969 137.9883 L311.3594 137.9883 L310.9062 140.3008 Q311.6719 139.7539 312.5156 139.7539 Q313.6406 139.7539 314.4141 140.5352 Q315.1875 141.3164 315.1875 142.5508 Q315.1875 143.707 314.5156 144.5664 Q313.6875 145.5977 312.2656 145.5977 Q311.0938 145.5977 310.3516 144.9414 Q309.6094 144.2852 309.5 143.207 ZM316.5 141.2227 Q316.5 139.6914 316.8125 138.7617 Q317.125 137.832 317.7422 137.332 Q318.3594 136.832 319.2969 136.832 Q319.9844 136.832 320.5078 137.1133 Q321.0312 137.3945 321.375 137.918 Q321.7188 138.4414 321.9062 139.1914 Q322.0938 139.9414 322.0938 141.2227 Q322.0938 142.7383 321.7891 143.6602 Q321.4844 144.582 320.8672 145.0898 Q320.25 145.5977 319.2969 145.5977 Q318.0625 145.5977 317.3438 144.707 Q316.5 143.6445 316.5 141.2227 ZM317.5781 141.2227 Q317.5781 143.332 318.0781 144.0352 Q318.5781 144.7383 319.2969 144.7383 Q320.0312 144.7383 320.5234 144.0352 Q321.0156 143.332 321.0156 141.2227 Q321.0156 139.0977 320.5234 138.4023 Q320.0312 137.707 319.2812 137.707 Q318.5625 137.707 318.125 138.3164 Q317.5781 139.0977 317.5781 141.2227 ZM323.5 141.2227 Q323.5 139.6914 323.8125 138.7617 Q324.125 137.832 324.7422 137.332 Q325.3594 136.832 326.2969 136.832 Q326.9844 136.832 327.5078 137.1133 Q328.0312 137.3945 328.375 137.918 Q328.7188 138.4414 328.9062 139.1914 Q329.0938 139.9414 329.0938 141.2227 Q329.0938 142.7383 328.7891 143.6602 Q328.4844 144.582 327.8672 145.0898 Q327.25 145.5977 326.2969 145.5977 Q325.0625 145.5977 324.3438 144.707 Q323.5 143.6445 323.5 141.2227 ZM324.5781 141.2227 Q324.5781 143.332 325.0781 144.0352 Q325.5781 144.7383 326.2969 144.7383 Q327.0312 144.7383 327.5234 144.0352 Q328.0156 143.332 328.0156 141.2227 Q328.0156 139.0977 327.5234 138.4023 Q327.0312 137.707 326.2812 137.707 Q325.5625 137.707 325.125 138.3164 Q324.5781 139.0977 324.5781 141.2227 Z" clip-path="url(#clipPath2)" stroke="none"/><path fill="black" d="M292.4688 145.457 L291.4219 145.457 L291.4219 138.7383 Q291.0312 139.0977 290.4141 139.4648 Q289.7969 139.832 289.3125 140.0039 L289.3125 138.9883 Q290.1875 138.5664 290.8516 137.9805 Q291.5156 137.3945 291.7969 136.832 L292.4688 136.832 L292.4688 145.457 ZM296.0781 140.4414 L296.0781 139.2383 L297.2812 139.2383 L297.2812 140.4414 L296.0781 140.4414 ZM296.0781 145.457 L296.0781 144.2539 L297.2812 144.2539 L297.2812 145.457 L296.0781 145.457 Z" clip-path="url(#clipPath2)" stroke="none"/><polygon points=" 488 345 497 350 488 355" clip-path="url(#clipPath2)" stroke="none"/><polygon fill="none" points=" 488 345 497 350 488 355" clip-path="url(#clipPath2)"/><path fill="none" d="M497 350 L122 350" clip-path="url(#clipPath2)"/><path fill="black" d="M302.5 340.2227 Q302.5 338.6914 302.8125 337.7617 Q303.125 336.832 303.7422 336.332 Q304.3594 335.832 305.2969 335.832 Q305.9844 335.832 306.5078 336.1133 Q307.0312 336.3945 307.375 336.918 Q307.7188 337.4414 307.9062 338.1914 Q308.0938 338.9414 308.0938 340.2227 Q308.0938 341.7383 307.7891 342.6602 Q307.4844 343.582 306.8672 344.0898 Q306.25 344.5977 305.2969 344.5977 Q304.0625 344.5977 303.3438 343.707 Q302.5 342.6445 302.5 340.2227 ZM303.5781 340.2227 Q303.5781 342.332 304.0781 343.0352 Q304.5781 343.7383 305.2969 343.7383 Q306.0312 343.7383 306.5234 343.0352 Q307.0156 342.332 307.0156 340.2227 Q307.0156 338.0977 306.5234 337.4023 Q306.0312 336.707 305.2812 336.707 Q304.5625 336.707 304.125 337.3164 Q303.5781 338.0977 303.5781 340.2227 ZM309.6562 342.4727 L310.6719 342.3789 Q310.7969 343.0977 311.1641 343.418 Q311.5312 343.7383 312.0938 343.7383 Q312.5781 343.7383 312.9453 343.5117 Q313.3125 343.2852 313.5469 342.918 Q313.7812 342.5508 313.9375 341.918 Q314.0938 341.2852 314.0938 340.6289 Q314.0938 340.5508 314.0938 340.4102 Q313.7812 340.9102 313.2344 341.2305 Q312.6875 341.5508 312.0469 341.5508 Q310.9688 341.5508 310.2344 340.7773 Q309.5 340.0039 309.5 338.7383 Q309.5 337.4258 310.2734 336.6289 Q311.0469 335.832 312.2031 335.832 Q313.0312 335.832 313.7266 336.2852 Q314.4219 336.7383 314.7812 337.5742 Q315.1406 338.4102 315.1406 339.9883 Q315.1406 341.6289 314.7891 342.6055 Q314.4375 343.582 313.7266 344.0898 Q313.0156 344.5977 312.0781 344.5977 Q311.0625 344.5977 310.4219 344.043 Q309.7812 343.4883 309.6562 342.4727 ZM313.9688 338.6758 Q313.9688 337.7695 313.4922 337.2383 Q313.0156 336.707 312.3281 336.707 Q311.625 336.707 311.1016 337.2773 Q310.5781 337.8477 310.5781 338.7695 Q310.5781 339.582 311.0781 340.0977 Q311.5781 340.6133 312.2969 340.6133 Q313.0312 340.6133 313.5 340.0977 Q313.9688 339.582 313.9688 338.6758 ZM316.5 340.2227 Q316.5 338.6914 316.8125 337.7617 Q317.125 336.832 317.7422 336.332 Q318.3594 335.832 319.2969 335.832 Q319.9844 335.832 320.5078 336.1133 Q321.0312 336.3945 321.375 336.918 Q321.7188 337.4414 321.9062 338.1914 Q322.0938 338.9414 322.0938 340.2227 Q322.0938 341.7383 321.7891 342.6602 Q321.4844 343.582 320.8672 344.0898 Q320.25 344.5977 319.2969 344.5977 Q318.0625 344.5977 317.3438 343.707 Q316.5 342.6445 316.5 340.2227 ZM317.5781 340.2227 Q317.5781 342.332 318.0781 343.0352 Q318.5781 343.7383 319.2969 343.7383 Q320.0312 343.7383 320.5234 343.0352 Q321.0156 342.332 321.0156 340.2227 Q321.0156 338.0977 320.5234 337.4023 Q320.0312 336.707 319.2812 336.707 Q318.5625 336.707 318.125 337.3164 Q317.5781 338.0977 317.5781 340.2227 ZM323.5 342.207 L324.6094 342.1133 Q324.7344 342.9258 325.1797 343.332 Q325.625 343.7383 326.2656 343.7383 Q327.0156 343.7383 327.5469 343.1602 Q328.0781 342.582 328.0781 341.6445 Q328.0781 340.7383 327.5703 340.2148 Q327.0625 339.6914 326.2344 339.6914 Q325.7344 339.6914 325.3203 339.9258 Q324.9062 340.1602 324.6719 340.5195 L323.6875 340.3945 L324.5156 335.9883 L328.7969 335.9883 L328.7969 336.9883 L325.3594 336.9883 L324.9062 339.3008 Q325.6719 338.7539 326.5156 338.7539 Q327.6406 338.7539 328.4141 339.5352 Q329.1875 340.3164 329.1875 341.5508 Q329.1875 342.707 328.5156 343.5664 Q327.6875 344.5977 326.2656 344.5977 Q325.0938 344.5977 324.3516 343.9414 Q323.6094 343.2852 323.5 342.207 Z" clip-path="url(#clipPath2)" stroke="none"/><path fill="black" d="M288.5 342.1914 L289.5625 342.0508 Q289.7344 342.9414 290.1719 343.3398 Q290.6094 343.7383 291.2344 343.7383 Q291.9844 343.7383 292.5 343.2227 Q293.0156 342.707 293.0156 341.9414 Q293.0156 341.2227 292.5391 340.7461 Q292.0625 340.2695 291.3281 340.2695 Q291.0312 340.2695 290.5781 340.3945 L290.7031 339.457 Q290.8125 339.4727 290.875 339.4727 Q291.5469 339.4727 292.0859 339.1211 Q292.625 338.7695 292.625 338.0352 Q292.625 337.457 292.2344 337.0742 Q291.8438 336.6914 291.2188 336.6914 Q290.6094 336.6914 290.1953 337.082 Q289.7812 337.4727 289.6719 338.2383 L288.6094 338.0508 Q288.7969 337.0039 289.4844 336.418 Q290.1719 335.832 291.1875 335.832 Q291.8906 335.832 292.4844 336.1367 Q293.0781 336.4414 293.3906 336.957 Q293.7031 337.4727 293.7031 338.0664 Q293.7031 338.6133 293.4062 339.0742 Q293.1094 339.5352 292.5312 339.8008 Q293.2812 339.9727 293.7031 340.5273 Q294.125 341.082 294.125 341.9258 Q294.125 343.0508 293.3047 343.832 Q292.4844 344.6133 291.2344 344.6133 Q290.1094 344.6133 289.3594 343.9336 Q288.6094 343.2539 288.5 342.1914 ZM296.0781 339.4414 L296.0781 338.2383 L297.2812 338.2383 L297.2812 339.4414 L296.0781 339.4414 ZM296.0781 344.457 L296.0781 343.2539 L297.2812 343.2539 L297.2812 344.457 L296.0781 344.457 Z" clip-path="url(#clipPath2)" stroke="none"/><polygon points=" 488 537 497 542 488 547" clip-path="url(#clipPath2)" stroke="none"/><polygon fill="none" points=" 488 537 497 542 488 547" clip-path="url(#clipPath2)"/><path fill="none" d="M497 542 L122 542" clip-path="url(#clipPath2)"/><path fill="black" d="M302.5 532.2227 Q302.5 530.6914 302.8125 529.7617 Q303.125 528.832 303.7422 528.332 Q304.3594 527.832 305.2969 527.832 Q305.9844 527.832 306.5078 528.1133 Q307.0312 528.3945 307.375 528.918 Q307.7188 529.4414 307.9062 530.1914 Q308.0938 530.9414 308.0938 532.2227 Q308.0938 533.7383 307.7891 534.6602 Q307.4844 535.582 306.8672 536.0898 Q306.25 536.5977 305.2969 536.5977 Q304.0625 536.5977 303.3438 535.707 Q302.5 534.6445 302.5 532.2227 ZM303.5781 532.2227 Q303.5781 534.332 304.0781 535.0352 Q304.5781 535.7383 305.2969 535.7383 Q306.0312 535.7383 306.5234 535.0352 Q307.0156 534.332 307.0156 532.2227 Q307.0156 530.0977 306.5234 529.4023 Q306.0312 528.707 305.2812 528.707 Q304.5625 528.707 304.125 529.3164 Q303.5781 530.0977 303.5781 532.2227 ZM309.5 534.207 L310.6094 534.1133 Q310.7344 534.9258 311.1797 535.332 Q311.625 535.7383 312.2656 535.7383 Q313.0156 535.7383 313.5469 535.1602 Q314.0781 534.582 314.0781 533.6445 Q314.0781 532.7383 313.5703 532.2148 Q313.0625 531.6914 312.2344 531.6914 Q311.7344 531.6914 311.3203 531.9258 Q310.9062 532.1602 310.6719 532.5195 L309.6875 532.3945 L310.5156 527.9883 L314.7969 527.9883 L314.7969 528.9883 L311.3594 528.9883 L310.9062 531.3008 Q311.6719 530.7539 312.5156 530.7539 Q313.6406 530.7539 314.4141 531.5352 Q315.1875 532.3164 315.1875 533.5508 Q315.1875 534.707 314.5156 535.5664 Q313.6875 536.5977 312.2656 536.5977 Q311.0938 536.5977 310.3516 535.9414 Q309.6094 535.2852 309.5 534.207 ZM320.4688 536.457 L319.4219 536.457 L319.4219 529.7383 Q319.0312 530.0977 318.4141 530.4648 Q317.7969 530.832 317.3125 531.0039 L317.3125 529.9883 Q318.1875 529.5664 318.8516 528.9805 Q319.5156 528.3945 319.7969 527.832 L320.4688 527.832 L320.4688 536.457 ZM329.0469 535.4414 L329.0469 536.457 L323.3594 536.457 Q323.3594 536.082 323.4844 535.7227 Q323.7031 535.1445 324.1797 534.582 Q324.6562 534.0195 325.5625 533.2852 Q326.9688 532.1289 327.4609 531.457 Q327.9531 530.7852 327.9531 530.1914 Q327.9531 529.5664 327.5 529.1367 Q327.0469 528.707 326.3281 528.707 Q325.5625 528.707 325.1094 529.1602 Q324.6562 529.6133 324.6406 530.4258 L323.5625 530.3164 Q323.6719 529.0977 324.3984 528.4648 Q325.125 527.832 326.3594 527.832 Q327.5938 527.832 328.3125 528.5195 Q329.0312 529.207 329.0312 530.2227 Q329.0312 530.7383 328.8203 531.2305 Q328.6094 531.7227 328.1172 532.2773 Q327.625 532.832 326.5 533.7852 Q325.5469 534.582 325.2734 534.8711 Q325 535.1602 324.8281 535.4414 L329.0469 535.4414 Z" clip-path="url(#clipPath2)" stroke="none"/><path fill="black" d="M288.5 534.207 L289.6094 534.1133 Q289.7344 534.9258 290.1797 535.332 Q290.625 535.7383 291.2656 535.7383 Q292.0156 535.7383 292.5469 535.1602 Q293.0781 534.582 293.0781 533.6445 Q293.0781 532.7383 292.5703 532.2148 Q292.0625 531.6914 291.2344 531.6914 Q290.7344 531.6914 290.3203 531.9258 Q289.9062 532.1602 289.6719 532.5195 L288.6875 532.3945 L289.5156 527.9883 L293.7969 527.9883 L293.7969 528.9883 L290.3594 528.9883 L289.9062 531.3008 Q290.6719 530.7539 291.5156 530.7539 Q292.6406 530.7539 293.4141 531.5352 Q294.1875 532.3164 294.1875 533.5508 Q294.1875 534.707 293.5156 535.5664 Q292.6875 536.5977 291.2656 536.5977 Q290.0938 536.5977 289.3516 535.9414 Q288.6094 535.2852 288.5 534.207 ZM296.0781 531.4414 L296.0781 530.2383 L297.2812 530.2383 L297.2812 531.4414 L296.0781 531.4414 ZM296.0781 536.457 L296.0781 535.2539 L297.2812 535.2539 L297.2812 536.457 L296.0781 536.457 Z" clip-path="url(#clipPath2)" stroke="none"/><polygon points=" 488 714 497 719 488 724" clip-path="url(#clipPath2)" stroke="none"/><polygon fill="none" points=" 488 714 497 719 488 724" clip-path="url(#clipPath2)"/><path fill="none" d="M497 719 L122 719" clip-path="url(#clipPath2)"/><path fill="black" d="M302.5 709.2227 Q302.5 707.6914 302.8125 706.7617 Q303.125 705.832 303.7422 705.332 Q304.3594 704.832 305.2969 704.832 Q305.9844 704.832 306.5078 705.1133 Q307.0312 705.3945 307.375 705.918 Q307.7188 706.4414 307.9062 707.1914 Q308.0938 707.9414 308.0938 709.2227 Q308.0938 710.7383 307.7891 711.6602 Q307.4844 712.582 306.8672 713.0898 Q306.25 713.5977 305.2969 713.5977 Q304.0625 713.5977 303.3438 712.707 Q302.5 711.6445 302.5 709.2227 ZM303.5781 709.2227 Q303.5781 711.332 304.0781 712.0352 Q304.5781 712.7383 305.2969 712.7383 Q306.0312 712.7383 306.5234 712.0352 Q307.0156 711.332 307.0156 709.2227 Q307.0156 707.0977 306.5234 706.4023 Q306.0312 705.707 305.2812 705.707 Q304.5625 705.707 304.125 706.3164 Q303.5781 707.0977 303.5781 709.2227 ZM309.5 709.2227 Q309.5 707.6914 309.8125 706.7617 Q310.125 705.832 310.7422 705.332 Q311.3594 704.832 312.2969 704.832 Q312.9844 704.832 313.5078 705.1133 Q314.0312 705.3945 314.375 705.918 Q314.7188 706.4414 314.9062 707.1914 Q315.0938 707.9414 315.0938 709.2227 Q315.0938 710.7383 314.7891 711.6602 Q314.4844 712.582 313.8672 713.0898 Q313.25 713.5977 312.2969 713.5977 Q311.0625 713.5977 310.3438 712.707 Q309.5 711.6445 309.5 709.2227 ZM310.5781 709.2227 Q310.5781 711.332 311.0781 712.0352 Q311.5781 712.7383 312.2969 712.7383 Q313.0312 712.7383 313.5234 712.0352 Q314.0156 711.332 314.0156 709.2227 Q314.0156 707.0977 313.5234 706.4023 Q313.0312 705.707 312.2812 705.707 Q311.5625 705.707 311.125 706.3164 Q310.5781 707.0977 310.5781 709.2227 ZM322.0469 712.4414 L322.0469 713.457 L316.3594 713.457 Q316.3594 713.082 316.4844 712.7227 Q316.7031 712.1445 317.1797 711.582 Q317.6562 711.0195 318.5625 710.2852 Q319.9688 709.1289 320.4609 708.457 Q320.9531 707.7852 320.9531 707.1914 Q320.9531 706.5664 320.5 706.1367 Q320.0469 705.707 319.3281 705.707 Q318.5625 705.707 318.1094 706.1602 Q317.6562 706.6133 317.6406 707.4258 L316.5625 707.3164 Q316.6719 706.0977 317.3984 705.4648 Q318.125 704.832 319.3594 704.832 Q320.5938 704.832 321.3125 705.5195 Q322.0312 706.207 322.0312 707.2227 Q322.0312 707.7383 321.8203 708.2305 Q321.6094 708.7227 321.1172 709.2773 Q320.625 709.832 319.5 710.7852 Q318.5469 711.582 318.2734 711.8711 Q318 712.1602 317.8281 712.4414 L322.0469 712.4414 ZM323.5 709.2227 Q323.5 707.6914 323.8125 706.7617 Q324.125 705.832 324.7422 705.332 Q325.3594 704.832 326.2969 704.832 Q326.9844 704.832 327.5078 705.1133 Q328.0312 705.3945 328.375 705.918 Q328.7188 706.4414 328.9062 707.1914 Q329.0938 707.9414 329.0938 709.2227 Q329.0938 710.7383 328.7891 711.6602 Q328.4844 712.582 327.8672 713.0898 Q327.25 713.5977 326.2969 713.5977 Q325.0625 713.5977 324.3438 712.707 Q323.5 711.6445 323.5 709.2227 ZM324.5781 709.2227 Q324.5781 711.332 325.0781 712.0352 Q325.5781 712.7383 326.2969 712.7383 Q327.0312 712.7383 327.5234 712.0352 Q328.0156 711.332 328.0156 709.2227 Q328.0156 707.0977 327.5234 706.4023 Q327.0312 705.707 326.2812 705.707 Q325.5625 705.707 325.125 706.3164 Q324.5781 707.0977 324.5781 709.2227 Z" clip-path="url(#clipPath2)" stroke="none"/><path fill="black" d="M288.5625 705.9883 L288.5625 704.9727 L294.125 704.9727 L294.125 705.8008 Q293.3125 706.6758 292.5078 708.1211 Q291.7031 709.5664 291.2656 711.0977 Q290.9375 712.1758 290.8594 713.457 L289.7656 713.457 Q289.7812 712.4414 290.1641 711.0039 Q290.5469 709.5664 291.2578 708.2383 Q291.9688 706.9102 292.7812 705.9883 L288.5625 705.9883 ZM296.0781 708.4414 L296.0781 707.2383 L297.2812 707.2383 L297.2812 708.4414 L296.0781 708.4414 ZM296.0781 713.457 L296.0781 712.2539 L297.2812 712.2539 L297.2812 713.457 L296.0781 713.457 Z" clip-path="url(#clipPath2)" stroke="none"/><polygon points=" 131 264 122 259 131 254" clip-path="url(#clipPath2)" stroke="none"/><polygon fill="none" points=" 131 264 122 259 131 254" clip-path="url(#clipPath2)"/><path fill="none" d="M122 259 L497 259" clip-path="url(#clipPath2)"/><path fill="black" d="M302.5 249.2227 Q302.5 247.6914 302.8125 246.7617 Q303.125 245.832 303.7422 245.332 Q304.3594 244.832 305.2969 244.832 Q305.9844 244.832 306.5078 245.1133 Q307.0312 245.3945 307.375 245.918 Q307.7188 246.4414 307.9062 247.1914 Q308.0938 247.9414 308.0938 249.2227 Q308.0938 250.7383 307.7891 251.6602 Q307.4844 252.582 306.8672 253.0898 Q306.25 253.5977 305.2969 253.5977 Q304.0625 253.5977 303.3438 252.707 Q302.5 251.6445 302.5 249.2227 ZM303.5781 249.2227 Q303.5781 251.332 304.0781 252.0352 Q304.5781 252.7383 305.2969 252.7383 Q306.0312 252.7383 306.5234 252.0352 Q307.0156 251.332 307.0156 249.2227 Q307.0156 247.0977 306.5234 246.4023 Q306.0312 245.707 305.2812 245.707 Q304.5625 245.707 304.125 246.3164 Q303.5781 247.0977 303.5781 249.2227 ZM309.5 251.207 L310.6094 251.1133 Q310.7344 251.9258 311.1797 252.332 Q311.625 252.7383 312.2656 252.7383 Q313.0156 252.7383 313.5469 252.1602 Q314.0781 251.582 314.0781 250.6445 Q314.0781 249.7383 313.5703 249.2148 Q313.0625 248.6914 312.2344 248.6914 Q311.7344 248.6914 311.3203 248.9258 Q310.9062 249.1602 310.6719 249.5195 L309.6875 249.3945 L310.5156 244.9883 L314.7969 244.9883 L314.7969 245.9883 L311.3594 245.9883 L310.9062 248.3008 Q311.6719 247.7539 312.5156 247.7539 Q313.6406 247.7539 314.4141 248.5352 Q315.1875 249.3164 315.1875 250.5508 Q315.1875 251.707 314.5156 252.5664 Q313.6875 253.5977 312.2656 253.5977 Q311.0938 253.5977 310.3516 252.9414 Q309.6094 252.2852 309.5 251.207 ZM316.5 249.2227 Q316.5 247.6914 316.8125 246.7617 Q317.125 245.832 317.7422 245.332 Q318.3594 244.832 319.2969 244.832 Q319.9844 244.832 320.5078 245.1133 Q321.0312 245.3945 321.375 245.918 Q321.7188 246.4414 321.9062 247.1914 Q322.0938 247.9414 322.0938 249.2227 Q322.0938 250.7383 321.7891 251.6602 Q321.4844 252.582 320.8672 253.0898 Q320.25 253.5977 319.2969 253.5977 Q318.0625 253.5977 317.3438 252.707 Q316.5 251.6445 316.5 249.2227 ZM317.5781 249.2227 Q317.5781 251.332 318.0781 252.0352 Q318.5781 252.7383 319.2969 252.7383 Q320.0312 252.7383 320.5234 252.0352 Q321.0156 251.332 321.0156 249.2227 Q321.0156 247.0977 320.5234 246.4023 Q320.0312 245.707 319.2812 245.707 Q318.5625 245.707 318.125 246.3164 Q317.5781 247.0977 317.5781 249.2227 ZM323.5 251.1914 L324.5625 251.0508 Q324.7344 251.9414 325.1719 252.3398 Q325.6094 252.7383 326.2344 252.7383 Q326.9844 252.7383 327.5 252.2227 Q328.0156 251.707 328.0156 250.9414 Q328.0156 250.2227 327.5391 249.7461 Q327.0625 249.2695 326.3281 249.2695 Q326.0312 249.2695 325.5781 249.3945 L325.7031 248.457 Q325.8125 248.4727 325.875 248.4727 Q326.5469 248.4727 327.0859 248.1211 Q327.625 247.7695 327.625 247.0352 Q327.625 246.457 327.2344 246.0742 Q326.8438 245.6914 326.2188 245.6914 Q325.6094 245.6914 325.1953 246.082 Q324.7812 246.4727 324.6719 247.2383 L323.6094 247.0508 Q323.7969 246.0039 324.4844 245.418 Q325.1719 244.832 326.1875 244.832 Q326.8906 244.832 327.4844 245.1367 Q328.0781 245.4414 328.3906 245.957 Q328.7031 246.4727 328.7031 247.0664 Q328.7031 247.6133 328.4062 248.0742 Q328.1094 248.5352 327.5312 248.8008 Q328.2812 248.9727 328.7031 249.5273 Q329.125 250.082 329.125 250.9258 Q329.125 252.0508 328.3047 252.832 Q327.4844 253.6133 326.2344 253.6133 Q325.1094 253.6133 324.3594 252.9336 Q323.6094 252.2539 323.5 251.1914 Z" clip-path="url(#clipPath2)" stroke="none"/><path fill="black" d="M294.0469 252.4414 L294.0469 253.457 L288.3594 253.457 Q288.3594 253.082 288.4844 252.7227 Q288.7031 252.1445 289.1797 251.582 Q289.6562 251.0195 290.5625 250.2852 Q291.9688 249.1289 292.4609 248.457 Q292.9531 247.7852 292.9531 247.1914 Q292.9531 246.5664 292.5 246.1367 Q292.0469 245.707 291.3281 245.707 Q290.5625 245.707 290.1094 246.1602 Q289.6562 246.6133 289.6406 247.4258 L288.5625 247.3164 Q288.6719 246.0977 289.3984 245.4648 Q290.125 244.832 291.3594 244.832 Q292.5938 244.832 293.3125 245.5195 Q294.0312 246.207 294.0312 247.2227 Q294.0312 247.7383 293.8203 248.2305 Q293.6094 248.7227 293.1172 249.2773 Q292.625 249.832 291.5 250.7852 Q290.5469 251.582 290.2734 251.8711 Q290 252.1602 289.8281 252.4414 L294.0469 252.4414 ZM296.0781 248.4414 L296.0781 247.2383 L297.2812 247.2383 L297.2812 248.4414 L296.0781 248.4414 ZM296.0781 253.457 L296.0781 252.2539 L297.2812 252.2539 L297.2812 253.457 L296.0781 253.457 Z" clip-path="url(#clipPath2)" stroke="none"/><polygon points=" 131 448 122 443 131 438" clip-path="url(#clipPath2)" stroke="none"/><polygon fill="none" points=" 131 448 122 443 131 438" clip-path="url(#clipPath2)"/><path fill="none" d="M122 443 L497 443" clip-path="url(#clipPath2)"/><path fill="black" d="M302.5 433.2227 Q302.5 431.6914 302.8125 430.7617 Q303.125 429.832 303.7422 429.332 Q304.3594 428.832 305.2969 428.832 Q305.9844 428.832 306.5078 429.1133 Q307.0312 429.3945 307.375 429.918 Q307.7188 430.4414 307.9062 431.1914 Q308.0938 431.9414 308.0938 433.2227 Q308.0938 434.7383 307.7891 435.6602 Q307.4844 436.582 306.8672 437.0898 Q306.25 437.5977 305.2969 437.5977 Q304.0625 437.5977 303.3438 436.707 Q302.5 435.6445 302.5 433.2227 ZM303.5781 433.2227 Q303.5781 435.332 304.0781 436.0352 Q304.5781 436.7383 305.2969 436.7383 Q306.0312 436.7383 306.5234 436.0352 Q307.0156 435.332 307.0156 433.2227 Q307.0156 431.0977 306.5234 430.4023 Q306.0312 429.707 305.2812 429.707 Q304.5625 429.707 304.125 430.3164 Q303.5781 431.0977 303.5781 433.2227 ZM309.6562 435.4727 L310.6719 435.3789 Q310.7969 436.0977 311.1641 436.418 Q311.5312 436.7383 312.0938 436.7383 Q312.5781 436.7383 312.9453 436.5117 Q313.3125 436.2852 313.5469 435.918 Q313.7812 435.5508 313.9375 434.918 Q314.0938 434.2852 314.0938 433.6289 Q314.0938 433.5508 314.0938 433.4102 Q313.7812 433.9102 313.2344 434.2305 Q312.6875 434.5508 312.0469 434.5508 Q310.9688 434.5508 310.2344 433.7773 Q309.5 433.0039 309.5 431.7383 Q309.5 430.4258 310.2734 429.6289 Q311.0469 428.832 312.2031 428.832 Q313.0312 428.832 313.7266 429.2852 Q314.4219 429.7383 314.7812 430.5742 Q315.1406 431.4102 315.1406 432.9883 Q315.1406 434.6289 314.7891 435.6055 Q314.4375 436.582 313.7266 437.0898 Q313.0156 437.5977 312.0781 437.5977 Q311.0625 437.5977 310.4219 437.043 Q309.7812 436.4883 309.6562 435.4727 ZM313.9688 431.6758 Q313.9688 430.7695 313.4922 430.2383 Q313.0156 429.707 312.3281 429.707 Q311.625 429.707 311.1016 430.2773 Q310.5781 430.8477 310.5781 431.7695 Q310.5781 432.582 311.0781 433.0977 Q311.5781 433.6133 312.2969 433.6133 Q313.0312 433.6133 313.5 433.0977 Q313.9688 432.582 313.9688 431.6758 ZM316.5 433.2227 Q316.5 431.6914 316.8125 430.7617 Q317.125 429.832 317.7422 429.332 Q318.3594 428.832 319.2969 428.832 Q319.9844 428.832 320.5078 429.1133 Q321.0312 429.3945 321.375 429.918 Q321.7188 430.4414 321.9062 431.1914 Q322.0938 431.9414 322.0938 433.2227 Q322.0938 434.7383 321.7891 435.6602 Q321.4844 436.582 320.8672 437.0898 Q320.25 437.5977 319.2969 437.5977 Q318.0625 437.5977 317.3438 436.707 Q316.5 435.6445 316.5 433.2227 ZM317.5781 433.2227 Q317.5781 435.332 318.0781 436.0352 Q318.5781 436.7383 319.2969 436.7383 Q320.0312 436.7383 320.5234 436.0352 Q321.0156 435.332 321.0156 433.2227 Q321.0156 431.0977 320.5234 430.4023 Q320.0312 429.707 319.2812 429.707 Q318.5625 429.707 318.125 430.3164 Q317.5781 431.0977 317.5781 433.2227 ZM323.5 435.207 L324.6094 435.1133 Q324.7344 435.9258 325.1797 436.332 Q325.625 436.7383 326.2656 436.7383 Q327.0156 436.7383 327.5469 436.1602 Q328.0781 435.582 328.0781 434.6445 Q328.0781 433.7383 327.5703 433.2148 Q327.0625 432.6914 326.2344 432.6914 Q325.7344 432.6914 325.3203 432.9258 Q324.9062 433.1602 324.6719 433.5195 L323.6875 433.3945 L324.5156 428.9883 L328.7969 428.9883 L328.7969 429.9883 L325.3594 429.9883 L324.9062 432.3008 Q325.6719 431.7539 326.5156 431.7539 Q327.6406 431.7539 328.4141 432.5352 Q329.1875 433.3164 329.1875 434.5508 Q329.1875 435.707 328.5156 436.5664 Q327.6875 437.5977 326.2656 437.5977 Q325.0938 437.5977 324.3516 436.9414 Q323.6094 436.2852 323.5 435.207 Z" clip-path="url(#clipPath2)" stroke="none"/><path fill="black" d="M291.875 437.457 L291.875 435.3945 L288.1562 435.3945 L288.1562 434.4258 L292.0781 428.8633 L292.9375 428.8633 L292.9375 434.4258 L294.0938 434.4258 L294.0938 435.3945 L292.9375 435.3945 L292.9375 437.457 L291.875 437.457 ZM291.875 434.4258 L291.875 430.5664 L289.1875 434.4258 L291.875 434.4258 ZM296.0781 432.4414 L296.0781 431.2383 L297.2812 431.2383 L297.2812 432.4414 L296.0781 432.4414 ZM296.0781 437.457 L296.0781 436.2539 L297.2812 436.2539 L297.2812 437.457 L296.0781 437.457 Z" clip-path="url(#clipPath2)" stroke="none"/><polygon points=" 131 643 122 638 131 633" clip-path="url(#clipPath2)" stroke="none"/><polygon fill="none" points=" 131 643 122 638 131 633" clip-path="url(#clipPath2)"/><path fill="none" d="M122 638 L497 638" clip-path="url(#clipPath2)"/><path fill="black" d="M302.5 628.2227 Q302.5 626.6914 302.8125 625.7617 Q303.125 624.832 303.7422 624.332 Q304.3594 623.832 305.2969 623.832 Q305.9844 623.832 306.5078 624.1133 Q307.0312 624.3945 307.375 624.918 Q307.7188 625.4414 307.9062 626.1914 Q308.0938 626.9414 308.0938 628.2227 Q308.0938 629.7383 307.7891 630.6602 Q307.4844 631.582 306.8672 632.0898 Q306.25 632.5977 305.2969 632.5977 Q304.0625 632.5977 303.3438 631.707 Q302.5 630.6445 302.5 628.2227 ZM303.5781 628.2227 Q303.5781 630.332 304.0781 631.0352 Q304.5781 631.7383 305.2969 631.7383 Q306.0312 631.7383 306.5234 631.0352 Q307.0156 630.332 307.0156 628.2227 Q307.0156 626.0977 306.5234 625.4023 Q306.0312 624.707 305.2812 624.707 Q304.5625 624.707 304.125 625.3164 Q303.5781 626.0977 303.5781 628.2227 ZM309.5 630.207 L310.6094 630.1133 Q310.7344 630.9258 311.1797 631.332 Q311.625 631.7383 312.2656 631.7383 Q313.0156 631.7383 313.5469 631.1602 Q314.0781 630.582 314.0781 629.6445 Q314.0781 628.7383 313.5703 628.2148 Q313.0625 627.6914 312.2344 627.6914 Q311.7344 627.6914 311.3203 627.9258 Q310.9062 628.1602 310.6719 628.5195 L309.6875 628.3945 L310.5156 623.9883 L314.7969 623.9883 L314.7969 624.9883 L311.3594 624.9883 L310.9062 627.3008 Q311.6719 626.7539 312.5156 626.7539 Q313.6406 626.7539 314.4141 627.5352 Q315.1875 628.3164 315.1875 629.5508 Q315.1875 630.707 314.5156 631.5664 Q313.6875 632.5977 312.2656 632.5977 Q311.0938 632.5977 310.3516 631.9414 Q309.6094 631.2852 309.5 630.207 ZM316.5 628.2227 Q316.5 626.6914 316.8125 625.7617 Q317.125 624.832 317.7422 624.332 Q318.3594 623.832 319.2969 623.832 Q319.9844 623.832 320.5078 624.1133 Q321.0312 624.3945 321.375 624.918 Q321.7188 625.4414 321.9062 626.1914 Q322.0938 626.9414 322.0938 628.2227 Q322.0938 629.7383 321.7891 630.6602 Q321.4844 631.582 320.8672 632.0898 Q320.25 632.5977 319.2969 632.5977 Q318.0625 632.5977 317.3438 631.707 Q316.5 630.6445 316.5 628.2227 ZM317.5781 628.2227 Q317.5781 630.332 318.0781 631.0352 Q318.5781 631.7383 319.2969 631.7383 Q320.0312 631.7383 320.5234 631.0352 Q321.0156 630.332 321.0156 628.2227 Q321.0156 626.0977 320.5234 625.4023 Q320.0312 624.707 319.2812 624.707 Q318.5625 624.707 318.125 625.3164 Q317.5781 626.0977 317.5781 628.2227 ZM327.4688 632.457 L326.4219 632.457 L326.4219 625.7383 Q326.0312 626.0977 325.4141 626.4648 Q324.7969 626.832 324.3125 627.0039 L324.3125 625.9883 Q325.1875 625.5664 325.8516 624.9805 Q326.5156 624.3945 326.7969 623.832 L327.4688 623.832 L327.4688 632.457 Z" clip-path="url(#clipPath2)" stroke="none"/><path fill="black" d="M293.9688 625.9727 L292.9219 626.0508 Q292.7812 625.4258 292.5312 625.1445 Q292.0938 624.6914 291.4688 624.6914 Q290.9688 624.6914 290.5781 624.9727 Q290.0938 625.3477 289.8047 626.043 Q289.5156 626.7383 289.5 628.0195 Q289.875 627.4414 290.4297 627.1602 Q290.9844 626.8789 291.5938 626.8789 Q292.6406 626.8789 293.3828 627.6602 Q294.125 628.4414 294.125 629.6602 Q294.125 630.4727 293.7734 631.168 Q293.4219 631.8633 292.8125 632.2305 Q292.2031 632.5977 291.4375 632.5977 Q290.1094 632.5977 289.2812 631.6289 Q288.4531 630.6602 288.4531 628.4414 Q288.4531 625.9414 289.375 624.8164 Q290.1719 623.832 291.5312 623.832 Q292.5469 623.832 293.1953 624.4023 Q293.8438 624.9727 293.9688 625.9727 ZM289.6719 629.6758 Q289.6719 630.2227 289.8984 630.7148 Q290.125 631.207 290.5391 631.4727 Q290.9531 631.7383 291.4219 631.7383 Q292.0781 631.7383 292.5625 631.1992 Q293.0469 630.6602 293.0469 629.7383 Q293.0469 628.8477 292.5703 628.332 Q292.0938 627.8164 291.375 627.8164 Q290.6562 627.8164 290.1641 628.332 Q289.6719 628.8477 289.6719 629.6758 ZM296.0781 627.4414 L296.0781 626.2383 L297.2812 626.2383 L297.2812 627.4414 L296.0781 627.4414 ZM296.0781 632.457 L296.0781 631.2539 L297.2812 631.2539 L297.2812 632.457 L296.0781 632.457 Z" clip-path="url(#clipPath2)" stroke="none"/></g></g></svg>