<?xml version="1.0" encoding="UTF-8"?><svg xmlns="http://www.w3.org/2000/svg" xmlns:xlink="http://www.w3.org/1999/xlink" fill-opacity="1" color-rendering="auto" color-interpolation="auto" stroke="black" text-rendering="auto" stroke-linecap="square" width="5.708333333333333in" stroke-miterlimit="10" stroke-opacity="1" shape-rendering="auto" fill="black" stroke-dasharray="none" font-weight="normal" stroke-width="1" viewBox="0 0 548 310" height="3.2291666666666665in" font-family="'Arial'" font-style="normal" stroke-linejoin="miter" font-size="12" stroke-dashoffset="0" image-rendering="auto" preserveAspectRatio="xMidYMid meet" zoomAndPan="magnify" version="1.0" contentScriptType="text/ecmascript" contentStyleType="text/css"><!--Generated by the Batik Graphics2D SVG Generator
 This is MagicDraw diagram.--><defs id="genericDefs"/><g><defs id="defs1"><linearGradient x1="480" gradientUnits="userSpaceOnUse" x2="628" y1="75" y2="99" id="linearGradient1" spreadMethod="pad" xlink:type="simple" xlink:show="other" xlink:actuate="onLoad"><stop stop-opacity="1" stop-color="rgb(200,250,200)" offset="0%"/><stop stop-opacity="1" stop-color="white" offset="100%"/></linearGradient><linearGradient x1="100" gradientUnits="userSpaceOnUse" x2="236" y1="75" y2="99" id="linearGradient2" spreadMethod="pad" xlink:type="simple" xlink:show="other" xlink:actuate="onLoad"><stop stop-opacity="1" stop-color="rgb(200,250,200)" offset="0%"/><stop stop-opacity="1" stop-color="white" offset="100%"/></linearGradient><clipPath clipPathUnits="userSpaceOnUse" id="clipPath1"><path d="M0 -5 L638 -5 L638 375 L0 375 L0 -5 Z"/></clipPath><clipPath clipPathUnits="userSpaceOnUse" id="clipPath2"><path d="M90 60 L728 60 L728 440 L90 440 L90 60 Z"/></clipPath></defs><g fill="white" stroke="white"><rect x="0" width="638" height="380" y="-5" clip-path="url(#clipPath1)" stroke="none"/><rect x="483" y="78" transform="translate(-90,-65)" clip-path="url(#clipPath2)" fill="rgb(178,178,178)" width="148" text-rendering="geometricPrecision" height="24" stroke="none"/><rect x="480" y="75" transform="translate(-90,-65)" clip-path="url(#clipPath2)" fill="url(#linearGradient1)" width="148" text-rendering="geometricPrecision" height="24" stroke="none"/></g><g fill="rgb(66,66,66)" text-rendering="geometricPrecision" transform="translate(-90,-65)" stroke-linejoin="round" stroke-linecap="butt" stroke="rgb(66,66,66)"><rect fill="none" x="480" width="148" height="24" y="75" clip-path="url(#clipPath2)"/><path fill="black" d="M488.0938 90.457 L486.0469 81.8633 L487.8125 81.8633 L489.1094 87.7695 L490.6875 81.8633 L492.75 81.8633 L494.25 87.8633 L495.5625 81.8633 L497.3125 81.8633 L495.2344 90.457 L493.3906 90.457 L491.6719 84.0352 L489.9688 90.457 L488.0938 90.457 ZM502.4688 88.4727 L504.1094 88.7539 Q503.7969 89.6602 503.1094 90.1289 Q502.4219 90.5977 501.4062 90.5977 Q499.7812 90.5977 499 89.5352 Q498.375 88.6914 498.375 87.3945 Q498.375 85.8477 499.1875 84.9727 Q500 84.0977 501.2344 84.0977 Q502.625 84.0977 503.4297 85.0117 Q504.2344 85.9258 504.1875 87.8164 L500.0625 87.8164 Q500.0938 88.5508 500.4688 88.957 Q500.8438 89.3633 501.4219 89.3633 Q501.7969 89.3633 502.0625 89.1523 Q502.3281 88.9414 502.4688 88.4727 ZM502.5625 86.8164 Q502.5469 86.0977 502.1953 85.7227 Q501.8438 85.3477 501.3281 85.3477 Q500.7969 85.3477 500.4375 85.7383 Q500.0938 86.1445 500.0938 86.8164 L502.5625 86.8164 ZM505.7031 90.8633 L507.5938 91.0977 Q507.6406 91.4258 507.8125 91.5508 Q508.0469 91.7227 508.5469 91.7227 Q509.1875 91.7227 509.5156 91.5352 Q509.7344 91.3945 509.8438 91.1133 Q509.9219 90.9102 509.9219 90.3633 L509.9219 89.4414 Q509.1719 90.457 508.0469 90.457 Q506.7969 90.457 506.0625 89.3945 Q505.5 88.5508 505.5 87.3164 Q505.5 85.7383 506.25 84.918 Q507 84.0977 508.125 84.0977 Q509.2656 84.0977 510.0156 85.1133 L510.0156 84.2383 L511.5625 84.2383 L511.5625 89.8164 Q511.5625 90.9258 511.3828 91.4648 Q511.2031 92.0039 510.875 92.3164 Q510.5469 92.6289 510 92.8086 Q509.4531 92.9883 508.6094 92.9883 Q507.0312 92.9883 506.3672 92.4414 Q505.7031 91.8945 505.7031 91.0664 Q505.7031 90.9883 505.7031 90.8633 ZM507.1875 87.2227 Q507.1875 88.207 507.5703 88.668 Q507.9531 89.1289 508.5156 89.1289 Q509.1094 89.1289 509.5312 88.6523 Q509.9531 88.1758 509.9531 87.2539 Q509.9531 86.2852 509.5547 85.8164 Q509.1562 85.3477 508.5469 85.3477 Q507.9531 85.3477 507.5703 85.8086 Q507.1875 86.2695 507.1875 87.2227 ZM512.2031 90.457 L512.2031 89.1758 L514.5312 86.4883 Q515.1094 85.832 515.375 85.5664 Q515.0938 85.582 514.625 85.582 L512.4219 85.5977 L512.4219 84.2383 L517.5781 84.2383 L517.5781 85.3945 L515.1875 88.1445 L514.3594 89.0508 Q515.0469 89.0039 515.2031 89.0039 L517.75 89.0039 L517.75 90.457 L512.2031 90.457 ZM522.9531 90.457 L522.9531 89.5195 Q522.625 90.0195 522.0703 90.3086 Q521.5156 90.5977 520.8906 90.5977 Q520.2656 90.5977 519.7656 90.3242 Q519.2656 90.0508 519.0469 89.5508 Q518.8281 89.0508 518.8281 88.1758 L518.8281 84.2383 L520.4688 84.2383 L520.4688 87.0977 Q520.4688 88.4102 520.5625 88.707 Q520.6562 89.0039 520.8984 89.1758 Q521.1406 89.3477 521.5 89.3477 Q521.9219 89.3477 522.2578 89.1133 Q522.5938 88.8789 522.7188 88.5352 Q522.8438 88.1914 522.8438 86.8633 L522.8438 84.2383 L524.4844 84.2383 L524.4844 90.457 L522.9531 90.457 ZM525.7031 90.8633 L527.5938 91.0977 Q527.6406 91.4258 527.8125 91.5508 Q528.0469 91.7227 528.5469 91.7227 Q529.1875 91.7227 529.5156 91.5352 Q529.7344 91.3945 529.8438 91.1133 Q529.9219 90.9102 529.9219 90.3633 L529.9219 89.4414 Q529.1719 90.457 528.0469 90.457 Q526.7969 90.457 526.0625 89.3945 Q525.5 88.5508 525.5 87.3164 Q525.5 85.7383 526.25 84.918 Q527 84.0977 528.125 84.0977 Q529.2656 84.0977 530.0156 85.1133 L530.0156 84.2383 L531.5625 84.2383 L531.5625 89.8164 Q531.5625 90.9258 531.3828 91.4648 Q531.2031 92.0039 530.875 92.3164 Q530.5469 92.6289 530 92.8086 Q529.4531 92.9883 528.6094 92.9883 Q527.0312 92.9883 526.3672 92.4414 Q525.7031 91.8945 525.7031 91.0664 Q525.7031 90.9883 525.7031 90.8633 ZM527.1875 87.2227 Q527.1875 88.207 527.5703 88.668 Q527.9531 89.1289 528.5156 89.1289 Q529.1094 89.1289 529.5312 88.6523 Q529.9531 88.1758 529.9531 87.2539 Q529.9531 86.2852 529.5547 85.8164 Q529.1562 85.3477 528.5469 85.3477 Q527.9531 85.3477 527.5703 85.8086 Q527.1875 86.2695 527.1875 87.2227 ZM532.2812 88.6758 L533.9375 88.4258 Q534.0469 88.9102 534.3672 89.1602 Q534.6875 89.4102 535.2656 89.4102 Q535.9062 89.4102 536.2188 89.1758 Q536.4375 89.0039 536.4375 88.7383 Q536.4375 88.5508 536.3281 88.4258 Q536.2031 88.3008 535.7812 88.207 Q533.7812 87.7695 533.25 87.4102 Q532.5156 86.8945 532.5156 86.0039 Q532.5156 85.1914 533.1484 84.6445 Q533.7812 84.0977 535.125 84.0977 Q536.4062 84.0977 537.0312 84.5117 Q537.6562 84.9258 537.8906 85.7383 L536.3281 86.0195 Q536.2344 85.6602 535.9531 85.4648 Q535.6719 85.2695 535.1562 85.2695 Q534.5156 85.2695 534.2344 85.457 Q534.0469 85.582 534.0469 85.7852 Q534.0469 85.9727 534.2031 86.0977 Q534.4219 86.2539 535.7422 86.5508 Q537.0625 86.8477 537.5781 87.2852 Q538.0938 87.7227 538.0938 88.5039 Q538.0938 89.3633 537.3828 89.9805 Q536.6719 90.5977 535.2656 90.5977 Q534 90.5977 533.2578 90.082 Q532.5156 89.5664 532.2812 88.6758 ZM539.7344 84.2383 L541.25 84.2383 L541.25 85.082 Q542.0781 84.0977 543.2031 84.0977 Q543.7969 84.0977 544.2344 84.3398 Q544.6719 84.582 544.9531 85.082 Q545.3594 84.582 545.8359 84.3398 Q546.3125 84.0977 546.8594 84.0977 Q547.5312 84.0977 548.0078 84.3711 Q548.4844 84.6445 548.7188 85.1914 Q548.8906 85.582 548.8906 86.4727 L548.8906 90.457 L547.25 90.457 L547.25 86.8945 Q547.25 85.9727 547.0781 85.707 Q546.8438 85.3477 546.375 85.3477 Q546.0312 85.3477 545.7266 85.5586 Q545.4219 85.7695 545.2812 86.1758 Q545.1406 86.582 545.1406 87.4727 L545.1406 90.457 L543.5 90.457 L543.5 87.0508 Q543.5 86.1445 543.4141 85.8789 Q543.3281 85.6133 543.1406 85.4805 Q542.9531 85.3477 542.6406 85.3477 Q542.2656 85.3477 541.9609 85.5586 Q541.6562 85.7695 541.5234 86.1523 Q541.3906 86.5352 541.3906 87.4258 L541.3906 90.457 L539.7344 90.457 L539.7344 84.2383 ZM554.4688 88.4727 L556.1094 88.7539 Q555.7969 89.6602 555.1094 90.1289 Q554.4219 90.5977 553.4062 90.5977 Q551.7812 90.5977 551 89.5352 Q550.375 88.6914 550.375 87.3945 Q550.375 85.8477 551.1875 84.9727 Q552 84.0977 553.2344 84.0977 Q554.625 84.0977 555.4297 85.0117 Q556.2344 85.9258 556.1875 87.8164 L552.0625 87.8164 Q552.0938 88.5508 552.4688 88.957 Q552.8438 89.3633 553.4219 89.3633 Q553.7969 89.3633 554.0625 89.1523 Q554.3281 88.9414 554.4688 88.4727 ZM554.5625 86.8164 Q554.5469 86.0977 554.1953 85.7227 Q553.8438 85.3477 553.3281 85.3477 Q552.7969 85.3477 552.4375 85.7383 Q552.0938 86.1445 552.0938 86.8164 L554.5625 86.8164 ZM557.8594 90.457 L557.8594 81.8633 L559.5156 81.8633 L559.5156 90.457 L557.8594 90.457 ZM566.5625 90.457 L565.0469 90.457 L565.0469 89.5352 Q564.6562 90.082 564.1406 90.3398 Q563.625 90.5977 563.0938 90.5977 Q562.0156 90.5977 561.2578 89.7305 Q560.5 88.8633 560.5 87.3164 Q560.5 85.7383 561.2422 84.918 Q561.9844 84.0977 563.125 84.0977 Q564.1562 84.0977 564.9219 84.957 L564.9219 81.8633 L566.5625 81.8633 L566.5625 90.457 ZM562.1719 87.207 Q562.1719 88.207 562.4531 88.6445 Q562.8438 89.3008 563.5625 89.3008 Q564.125 89.3008 564.5234 88.8164 Q564.9219 88.332 564.9219 87.3633 Q564.9219 86.3008 564.5391 85.8242 Q564.1562 85.3477 563.5469 85.3477 Q562.9688 85.3477 562.5703 85.8164 Q562.1719 86.2852 562.1719 87.207 ZM571.4688 88.4727 L573.1094 88.7539 Q572.7969 89.6602 572.1094 90.1289 Q571.4219 90.5977 570.4062 90.5977 Q568.7812 90.5977 568 89.5352 Q567.375 88.6914 567.375 87.3945 Q567.375 85.8477 568.1875 84.9727 Q569 84.0977 570.2344 84.0977 Q571.625 84.0977 572.4297 85.0117 Q573.2344 85.9258 573.1875 87.8164 L569.0625 87.8164 Q569.0938 88.5508 569.4688 88.957 Q569.8438 89.3633 570.4219 89.3633 Q570.7969 89.3633 571.0625 89.1523 Q571.3281 88.9414 571.4688 88.4727 ZM571.5625 86.8164 Q571.5469 86.0977 571.1953 85.7227 Q570.8438 85.3477 570.3281 85.3477 Q569.7969 85.3477 569.4375 85.7383 Q569.0938 86.1445 569.0938 86.8164 L571.5625 86.8164 ZM574.7969 90.457 L574.7969 81.8633 L576.4375 81.8633 L576.4375 84.957 Q577.2031 84.0977 578.25 84.0977 Q579.375 84.0977 580.125 84.918 Q580.875 85.7383 580.875 87.2852 Q580.875 88.8789 580.1094 89.7383 Q579.3438 90.5977 578.2656 90.5977 Q577.7344 90.5977 577.2188 90.332 Q576.7031 90.0664 576.3281 89.5352 L576.3281 90.457 L574.7969 90.457 ZM576.4219 87.207 Q576.4219 88.1758 576.7344 88.6445 Q577.1562 89.3008 577.875 89.3008 Q578.4062 89.3008 578.7969 88.832 Q579.1875 88.3633 579.1875 87.3633 Q579.1875 86.3008 578.7969 85.8242 Q578.4062 85.3477 577.7969 85.3477 Q577.2188 85.3477 576.8203 85.8086 Q576.4219 86.2695 576.4219 87.207 ZM585.4688 88.4727 L587.1094 88.7539 Q586.7969 89.6602 586.1094 90.1289 Q585.4219 90.5977 584.4062 90.5977 Q582.7812 90.5977 582 89.5352 Q581.375 88.6914 581.375 87.3945 Q581.375 85.8477 582.1875 84.9727 Q583 84.0977 584.2344 84.0977 Q585.625 84.0977 586.4297 85.0117 Q587.2344 85.9258 587.1875 87.8164 L583.0625 87.8164 Q583.0938 88.5508 583.4688 88.957 Q583.8438 89.3633 584.4219 89.3633 Q584.7969 89.3633 585.0625 89.1523 Q585.3281 88.9414 585.4688 88.4727 ZM585.5625 86.8164 Q585.5469 86.0977 585.1953 85.7227 Q584.8438 85.3477 584.3281 85.3477 Q583.7969 85.3477 583.4375 85.7383 Q583.0938 86.1445 583.0938 86.8164 L585.5625 86.8164 ZM590.5 81.8633 L590.5 85.0195 Q591.2969 84.0977 592.4062 84.0977 Q592.9688 84.0977 593.4297 84.3086 Q593.8906 84.5195 594.125 84.8477 Q594.3594 85.1758 594.4375 85.5742 Q594.5156 85.9727 594.5156 86.8008 L594.5156 90.457 L592.875 90.457 L592.875 87.1758 Q592.875 86.1914 592.7812 85.9258 Q592.6875 85.6602 592.4531 85.5039 Q592.2188 85.3477 591.8594 85.3477 Q591.4531 85.3477 591.125 85.5508 Q590.7969 85.7539 590.6484 86.1523 Q590.5 86.5508 590.5 87.332 L590.5 90.457 L588.8594 90.457 L588.8594 81.8633 L590.5 81.8633 ZM595.4844 87.2539 Q595.4844 86.4414 595.8906 85.668 Q596.2969 84.8945 597.0312 84.4961 Q597.7656 84.0977 598.6875 84.0977 Q600.0938 84.0977 601 85.0117 Q601.9062 85.9258 601.9062 87.332 Q601.9062 88.7383 600.9922 89.668 Q600.0781 90.5977 598.7031 90.5977 Q597.8438 90.5977 597.0703 90.207 Q596.2969 89.8164 595.8906 89.0742 Q595.4844 88.332 595.4844 87.2539 ZM597.1719 87.3477 Q597.1719 88.2695 597.6094 88.7617 Q598.0469 89.2539 598.6875 89.2539 Q599.3438 89.2539 599.7734 88.7617 Q600.2031 88.2695 600.2031 87.332 Q600.2031 86.4258 599.7734 85.9336 Q599.3438 85.4414 598.6875 85.4414 Q598.0469 85.4414 597.6094 85.9336 Q597.1719 86.4258 597.1719 87.3477 ZM597.0625 82.457 L597.0625 81.0508 L598.4688 81.0508 L598.4688 82.457 L597.0625 82.457 ZM599.5781 82.457 L599.5781 81.0508 L601 81.0508 L601 82.457 L599.5781 82.457 ZM604.4375 90.457 L602.7969 90.457 L602.7969 84.2383 L604.3281 84.2383 L604.3281 85.1133 Q604.7188 84.4883 605.0312 84.293 Q605.3438 84.0977 605.7344 84.0977 Q606.2969 84.0977 606.8281 84.4102 L606.3125 85.832 Q605.8906 85.5664 605.5469 85.5664 Q605.1875 85.5664 604.9531 85.7617 Q604.7188 85.957 604.5781 86.4492 Q604.4375 86.9414 604.4375 88.5352 L604.4375 90.457 ZM613.5625 90.457 L612.0469 90.457 L612.0469 89.5352 Q611.6562 90.082 611.1406 90.3398 Q610.625 90.5977 610.0938 90.5977 Q609.0156 90.5977 608.2578 89.7305 Q607.5 88.8633 607.5 87.3164 Q607.5 85.7383 608.2422 84.918 Q608.9844 84.0977 610.125 84.0977 Q611.1562 84.0977 611.9219 84.957 L611.9219 81.8633 L613.5625 81.8633 L613.5625 90.457 ZM609.1719 87.207 Q609.1719 88.207 609.4531 88.6445 Q609.8438 89.3008 610.5625 89.3008 Q611.125 89.3008 611.5234 88.8164 Q611.9219 88.332 611.9219 87.3633 Q611.9219 86.3008 611.5391 85.8242 Q611.1562 85.3477 610.5469 85.3477 Q609.9688 85.3477 609.5703 85.8164 Q609.1719 86.2852 609.1719 87.207 ZM618.4688 88.4727 L620.1094 88.7539 Q619.7969 89.6602 619.1094 90.1289 Q618.4219 90.5977 617.4062 90.5977 Q615.7812 90.5977 615 89.5352 Q614.375 88.6914 614.375 87.3945 Q614.375 85.8477 615.1875 84.9727 Q616 84.0977 617.2344 84.0977 Q618.625 84.0977 619.4297 85.0117 Q620.2344 85.9258 620.1875 87.8164 L616.0625 87.8164 Q616.0938 88.5508 616.4688 88.957 Q616.8438 89.3633 617.4219 89.3633 Q617.7969 89.3633 618.0625 89.1523 Q618.3281 88.9414 618.4688 88.4727 ZM618.5625 86.8164 Q618.5469 86.0977 618.1953 85.7227 Q617.8438 85.3477 617.3281 85.3477 Q616.7969 85.3477 616.4375 85.7383 Q616.0938 86.1445 616.0938 86.8164 L618.5625 86.8164 Z" clip-path="url(#clipPath2)" stroke="none"/><line clip-path="url(#clipPath2)" fill="none" x1="554" x2="554" y1="99" y2="450" stroke-dasharray="10"/><rect x="549" y="139" clip-path="url(#clipPath2)" fill="rgb(200,250,200)" width="10" height="50" stroke="none"/><rect fill="none" x="549" width="10" height="50" y="139" clip-path="url(#clipPath2)"/><rect x="549" y="270" clip-path="url(#clipPath2)" fill="rgb(200,250,200)" width="10" height="70" stroke="none"/><rect fill="none" x="549" width="10" height="70" y="270" clip-path="url(#clipPath2)"/><rect x="103" y="78" clip-path="url(#clipPath2)" fill="rgb(178,178,178)" width="136" height="24" stroke="none"/><rect x="100" y="75" clip-path="url(#clipPath2)" fill="url(#linearGradient2)" width="136" height="24" stroke="none"/><rect fill="none" x="100" width="136" height="24" y="75" clip-path="url(#clipPath2)"/><path fill="black" d="M106.125 90.457 L106.125 88.8945 L110.6406 83.3164 L106.6406 83.3164 L106.6406 81.8633 L112.9219 81.8633 L112.9219 83.207 L108.2188 89.0039 L113.1094 89.0039 L113.1094 90.457 L106.125 90.457 ZM117.9531 90.457 L117.9531 89.5195 Q117.625 90.0195 117.0703 90.3086 Q116.5156 90.5977 115.8906 90.5977 Q115.2656 90.5977 114.7656 90.3242 Q114.2656 90.0508 114.0469 89.5508 Q113.8281 89.0508 113.8281 88.1758 L113.8281 84.2383 L115.4688 84.2383 L115.4688 87.0977 Q115.4688 88.4102 115.5625 88.707 Q115.6562 89.0039 115.8984 89.1758 Q116.1406 89.3477 116.5 89.3477 Q116.9219 89.3477 117.2578 89.1133 Q117.5938 88.8789 117.7188 88.5352 Q117.8438 88.1914 117.8438 86.8633 L117.8438 84.2383 L119.4844 84.2383 L119.4844 90.457 L117.9531 90.457 ZM120.2031 90.457 L120.2031 89.1758 L122.5312 86.4883 Q123.1094 85.832 123.375 85.5664 Q123.0938 85.582 122.625 85.582 L120.4219 85.5977 L120.4219 84.2383 L125.5781 84.2383 L125.5781 85.3945 L123.1875 88.1445 L122.3594 89.0508 Q123.0469 89.0039 123.2031 89.0039 L125.75 89.0039 L125.75 90.457 L120.2031 90.457 ZM130.9531 90.457 L130.9531 89.5195 Q130.625 90.0195 130.0703 90.3086 Q129.5156 90.5977 128.8906 90.5977 Q128.2656 90.5977 127.7656 90.3242 Q127.2656 90.0508 127.0469 89.5508 Q126.8281 89.0508 126.8281 88.1758 L126.8281 84.2383 L128.4688 84.2383 L128.4688 87.0977 Q128.4688 88.4102 128.5625 88.707 Q128.6562 89.0039 128.8984 89.1758 Q129.1406 89.3477 129.5 89.3477 Q129.9219 89.3477 130.2578 89.1133 Q130.5938 88.8789 130.7188 88.5352 Q130.8438 88.1914 130.8438 86.8633 L130.8438 84.2383 L132.4844 84.2383 L132.4844 90.457 L130.9531 90.457 ZM133.7031 90.8633 L135.5938 91.0977 Q135.6406 91.4258 135.8125 91.5508 Q136.0469 91.7227 136.5469 91.7227 Q137.1875 91.7227 137.5156 91.5352 Q137.7344 91.3945 137.8438 91.1133 Q137.9219 90.9102 137.9219 90.3633 L137.9219 89.4414 Q137.1719 90.457 136.0469 90.457 Q134.7969 90.457 134.0625 89.3945 Q133.5 88.5508 133.5 87.3164 Q133.5 85.7383 134.25 84.918 Q135 84.0977 136.125 84.0977 Q137.2656 84.0977 138.0156 85.1133 L138.0156 84.2383 L139.5625 84.2383 L139.5625 89.8164 Q139.5625 90.9258 139.3828 91.4648 Q139.2031 92.0039 138.875 92.3164 Q138.5469 92.6289 138 92.8086 Q137.4531 92.9883 136.6094 92.9883 Q135.0312 92.9883 134.3672 92.4414 Q133.7031 91.8945 133.7031 91.0664 Q133.7031 90.9883 133.7031 90.8633 ZM135.1875 87.2227 Q135.1875 88.207 135.5703 88.668 Q135.9531 89.1289 136.5156 89.1289 Q137.1094 89.1289 137.5312 88.6523 Q137.9531 88.1758 137.9531 87.2539 Q137.9531 86.2852 137.5547 85.8164 Q137.1562 85.3477 136.5469 85.3477 Q135.9531 85.3477 135.5703 85.8086 Q135.1875 86.2695 135.1875 87.2227 ZM140.2812 88.6758 L141.9375 88.4258 Q142.0469 88.9102 142.3672 89.1602 Q142.6875 89.4102 143.2656 89.4102 Q143.9062 89.4102 144.2188 89.1758 Q144.4375 89.0039 144.4375 88.7383 Q144.4375 88.5508 144.3281 88.4258 Q144.2031 88.3008 143.7812 88.207 Q141.7812 87.7695 141.25 87.4102 Q140.5156 86.8945 140.5156 86.0039 Q140.5156 85.1914 141.1484 84.6445 Q141.7812 84.0977 143.125 84.0977 Q144.4062 84.0977 145.0312 84.5117 Q145.6562 84.9258 145.8906 85.7383 L144.3281 86.0195 Q144.2344 85.6602 143.9531 85.4648 Q143.6719 85.2695 143.1562 85.2695 Q142.5156 85.2695 142.2344 85.457 Q142.0469 85.582 142.0469 85.7852 Q142.0469 85.9727 142.2031 86.0977 Q142.4219 86.2539 143.7422 86.5508 Q145.0625 86.8477 145.5781 87.2852 Q146.0938 87.7227 146.0938 88.5039 Q146.0938 89.3633 145.3828 89.9805 Q144.6719 90.5977 143.2656 90.5977 Q142 90.5977 141.2578 90.082 Q140.5156 89.5664 140.2812 88.6758 ZM147.7344 84.2383 L149.25 84.2383 L149.25 85.082 Q150.0781 84.0977 151.2031 84.0977 Q151.7969 84.0977 152.2344 84.3398 Q152.6719 84.582 152.9531 85.082 Q153.3594 84.582 153.8359 84.3398 Q154.3125 84.0977 154.8594 84.0977 Q155.5312 84.0977 156.0078 84.3711 Q156.4844 84.6445 156.7188 85.1914 Q156.8906 85.582 156.8906 86.4727 L156.8906 90.457 L155.25 90.457 L155.25 86.8945 Q155.25 85.9727 155.0781 85.707 Q154.8438 85.3477 154.375 85.3477 Q154.0312 85.3477 153.7266 85.5586 Q153.4219 85.7695 153.2812 86.1758 Q153.1406 86.582 153.1406 87.4727 L153.1406 90.457 L151.5 90.457 L151.5 87.0508 Q151.5 86.1445 151.4141 85.8789 Q151.3281 85.6133 151.1406 85.4805 Q150.9531 85.3477 150.6406 85.3477 Q150.2656 85.3477 149.9609 85.5586 Q149.6562 85.7695 149.5234 86.1523 Q149.3906 86.5352 149.3906 87.4258 L149.3906 90.457 L147.7344 90.457 L147.7344 84.2383 ZM162.4688 88.4727 L164.1094 88.7539 Q163.7969 89.6602 163.1094 90.1289 Q162.4219 90.5977 161.4062 90.5977 Q159.7812 90.5977 159 89.5352 Q158.375 88.6914 158.375 87.3945 Q158.375 85.8477 159.1875 84.9727 Q160 84.0977 161.2344 84.0977 Q162.625 84.0977 163.4297 85.0117 Q164.2344 85.9258 164.1875 87.8164 L160.0625 87.8164 Q160.0938 88.5508 160.4688 88.957 Q160.8438 89.3633 161.4219 89.3633 Q161.7969 89.3633 162.0625 89.1523 Q162.3281 88.9414 162.4688 88.4727 ZM162.5625 86.8164 Q162.5469 86.0977 162.1953 85.7227 Q161.8438 85.3477 161.3281 85.3477 Q160.7969 85.3477 160.4375 85.7383 Q160.0938 86.1445 160.0938 86.8164 L162.5625 86.8164 ZM165.8594 90.457 L165.8594 81.8633 L167.5156 81.8633 L167.5156 90.457 L165.8594 90.457 ZM174.5625 90.457 L173.0469 90.457 L173.0469 89.5352 Q172.6562 90.082 172.1406 90.3398 Q171.625 90.5977 171.0938 90.5977 Q170.0156 90.5977 169.2578 89.7305 Q168.5 88.8633 168.5 87.3164 Q168.5 85.7383 169.2422 84.918 Q169.9844 84.0977 171.125 84.0977 Q172.1562 84.0977 172.9219 84.957 L172.9219 81.8633 L174.5625 81.8633 L174.5625 90.457 ZM170.1719 87.207 Q170.1719 88.207 170.4531 88.6445 Q170.8438 89.3008 171.5625 89.3008 Q172.125 89.3008 172.5234 88.8164 Q172.9219 88.332 172.9219 87.3633 Q172.9219 86.3008 172.5391 85.8242 Q172.1562 85.3477 171.5469 85.3477 Q170.9688 85.3477 170.5703 85.8164 Q170.1719 86.2852 170.1719 87.207 ZM179.4688 88.4727 L181.1094 88.7539 Q180.7969 89.6602 180.1094 90.1289 Q179.4219 90.5977 178.4062 90.5977 Q176.7812 90.5977 176 89.5352 Q175.375 88.6914 175.375 87.3945 Q175.375 85.8477 176.1875 84.9727 Q177 84.0977 178.2344 84.0977 Q179.625 84.0977 180.4297 85.0117 Q181.2344 85.9258 181.1875 87.8164 L177.0625 87.8164 Q177.0938 88.5508 177.4688 88.957 Q177.8438 89.3633 178.4219 89.3633 Q178.7969 89.3633 179.0625 89.1523 Q179.3281 88.9414 179.4688 88.4727 ZM179.5625 86.8164 Q179.5469 86.0977 179.1953 85.7227 Q178.8438 85.3477 178.3281 85.3477 Q177.7969 85.3477 177.4375 85.7383 Q177.0938 86.1445 177.0938 86.8164 L179.5625 86.8164 ZM182.7969 90.457 L182.7969 81.8633 L184.4375 81.8633 L184.4375 84.957 Q185.2031 84.0977 186.25 84.0977 Q187.375 84.0977 188.125 84.918 Q188.875 85.7383 188.875 87.2852 Q188.875 88.8789 188.1094 89.7383 Q187.3438 90.5977 186.2656 90.5977 Q185.7344 90.5977 185.2188 90.332 Q184.7031 90.0664 184.3281 89.5352 L184.3281 90.457 L182.7969 90.457 ZM184.4219 87.207 Q184.4219 88.1758 184.7344 88.6445 Q185.1562 89.3008 185.875 89.3008 Q186.4062 89.3008 186.7969 88.832 Q187.1875 88.3633 187.1875 87.3633 Q187.1875 86.3008 186.7969 85.8242 Q186.4062 85.3477 185.7969 85.3477 Q185.2188 85.3477 184.8203 85.8086 Q184.4219 86.2695 184.4219 87.207 ZM193.4688 88.4727 L195.1094 88.7539 Q194.7969 89.6602 194.1094 90.1289 Q193.4219 90.5977 192.4062 90.5977 Q190.7812 90.5977 190 89.5352 Q189.375 88.6914 189.375 87.3945 Q189.375 85.8477 190.1875 84.9727 Q191 84.0977 192.2344 84.0977 Q193.625 84.0977 194.4297 85.0117 Q195.2344 85.9258 195.1875 87.8164 L191.0625 87.8164 Q191.0938 88.5508 191.4688 88.957 Q191.8438 89.3633 192.4219 89.3633 Q192.7969 89.3633 193.0625 89.1523 Q193.3281 88.9414 193.4688 88.4727 ZM193.5625 86.8164 Q193.5469 86.0977 193.1953 85.7227 Q192.8438 85.3477 192.3281 85.3477 Q191.7969 85.3477 191.4375 85.7383 Q191.0938 86.1445 191.0938 86.8164 L193.5625 86.8164 ZM198.5 81.8633 L198.5 85.0195 Q199.2969 84.0977 200.4062 84.0977 Q200.9688 84.0977 201.4297 84.3086 Q201.8906 84.5195 202.125 84.8477 Q202.3594 85.1758 202.4375 85.5742 Q202.5156 85.9727 202.5156 86.8008 L202.5156 90.457 L200.875 90.457 L200.875 87.1758 Q200.875 86.1914 200.7812 85.9258 Q200.6875 85.6602 200.4531 85.5039 Q200.2188 85.3477 199.8594 85.3477 Q199.4531 85.3477 199.125 85.5508 Q198.7969 85.7539 198.6484 86.1523 Q198.5 86.5508 198.5 87.332 L198.5 90.457 L196.8594 90.457 L196.8594 81.8633 L198.5 81.8633 ZM203.4844 87.2539 Q203.4844 86.4414 203.8906 85.668 Q204.2969 84.8945 205.0312 84.4961 Q205.7656 84.0977 206.6875 84.0977 Q208.0938 84.0977 209 85.0117 Q209.9062 85.9258 209.9062 87.332 Q209.9062 88.7383 208.9922 89.668 Q208.0781 90.5977 206.7031 90.5977 Q205.8438 90.5977 205.0703 90.207 Q204.2969 89.8164 203.8906 89.0742 Q203.4844 88.332 203.4844 87.2539 ZM205.1719 87.3477 Q205.1719 88.2695 205.6094 88.7617 Q206.0469 89.2539 206.6875 89.2539 Q207.3438 89.2539 207.7734 88.7617 Q208.2031 88.2695 208.2031 87.332 Q208.2031 86.4258 207.7734 85.9336 Q207.3438 85.4414 206.6875 85.4414 Q206.0469 85.4414 205.6094 85.9336 Q205.1719 86.4258 205.1719 87.3477 ZM205.0625 82.457 L205.0625 81.0508 L206.4688 81.0508 L206.4688 82.457 L205.0625 82.457 ZM207.5781 82.457 L207.5781 81.0508 L209 81.0508 L209 82.457 L207.5781 82.457 ZM212.4375 90.457 L210.7969 90.457 L210.7969 84.2383 L212.3281 84.2383 L212.3281 85.1133 Q212.7188 84.4883 213.0312 84.293 Q213.3438 84.0977 213.7344 84.0977 Q214.2969 84.0977 214.8281 84.4102 L214.3125 85.832 Q213.8906 85.5664 213.5469 85.5664 Q213.1875 85.5664 212.9531 85.7617 Q212.7188 85.957 212.5781 86.4492 Q212.4375 86.9414 212.4375 88.5352 L212.4375 90.457 ZM221.5625 90.457 L220.0469 90.457 L220.0469 89.5352 Q219.6562 90.082 219.1406 90.3398 Q218.625 90.5977 218.0938 90.5977 Q217.0156 90.5977 216.2578 89.7305 Q215.5 88.8633 215.5 87.3164 Q215.5 85.7383 216.2422 84.918 Q216.9844 84.0977 218.125 84.0977 Q219.1562 84.0977 219.9219 84.957 L219.9219 81.8633 L221.5625 81.8633 L221.5625 90.457 ZM217.1719 87.207 Q217.1719 88.207 217.4531 88.6445 Q217.8438 89.3008 218.5625 89.3008 Q219.125 89.3008 219.5234 88.8164 Q219.9219 88.332 219.9219 87.3633 Q219.9219 86.3008 219.5391 85.8242 Q219.1562 85.3477 218.5469 85.3477 Q217.9688 85.3477 217.5703 85.8164 Q217.1719 86.2852 217.1719 87.207 ZM226.4688 88.4727 L228.1094 88.7539 Q227.7969 89.6602 227.1094 90.1289 Q226.4219 90.5977 225.4062 90.5977 Q223.7812 90.5977 223 89.5352 Q222.375 88.6914 222.375 87.3945 Q222.375 85.8477 223.1875 84.9727 Q224 84.0977 225.2344 84.0977 Q226.625 84.0977 227.4297 85.0117 Q228.2344 85.9258 228.1875 87.8164 L224.0625 87.8164 Q224.0938 88.5508 224.4688 88.957 Q224.8438 89.3633 225.4219 89.3633 Q225.7969 89.3633 226.0625 89.1523 Q226.3281 88.9414 226.4688 88.4727 ZM226.5625 86.8164 Q226.5469 86.0977 226.1953 85.7227 Q225.8438 85.3477 225.3281 85.3477 Q224.7969 85.3477 224.4375 85.7383 Q224.0938 86.1445 224.0938 86.8164 L226.5625 86.8164 Z" clip-path="url(#clipPath2)" stroke="none"/><line clip-path="url(#clipPath2)" fill="none" x1="168" x2="168" y1="99" y2="450" stroke-dasharray="10"/><rect x="163" y="139" clip-path="url(#clipPath2)" fill="rgb(200,250,200)" width="10" height="70" stroke="none"/><rect fill="none" x="163" width="10" height="70" y="139" clip-path="url(#clipPath2)"/><rect x="163" y="270" clip-path="url(#clipPath2)" fill="rgb(200,250,200)" width="10" height="50" stroke="none"/><rect fill="none" x="163" width="10" height="50" y="270" clip-path="url(#clipPath2)"/><polygon points=" 182 275 173 270 182 265" clip-path="url(#clipPath2)" stroke="none"/><polygon fill="none" points=" 182 275 173 270 182 265" clip-path="url(#clipPath2)"/><path fill="none" d="M173 270 L549 270" clip-path="url(#clipPath2)"/><path fill="black" d="M345.5 260.2227 Q345.5 258.6914 345.8125 257.7617 Q346.125 256.832 346.7422 256.332 Q347.3594 255.832 348.2969 255.832 Q348.9844 255.832 349.5078 256.1133 Q350.0312 256.3945 350.375 256.918 Q350.7188 257.4414 350.9062 258.1914 Q351.0938 258.9414 351.0938 260.2227 Q351.0938 261.7383 350.7891 262.6602 Q350.4844 263.582 349.8672 264.0898 Q349.25 264.5977 348.2969 264.5977 Q347.0625 264.5977 346.3438 263.707 Q345.5 262.6445 345.5 260.2227 ZM346.5781 260.2227 Q346.5781 262.332 347.0781 263.0352 Q347.5781 263.7383 348.2969 263.7383 Q349.0312 263.7383 349.5234 263.0352 Q350.0156 262.332 350.0156 260.2227 Q350.0156 258.0977 349.5234 257.4023 Q349.0312 256.707 348.2812 256.707 Q347.5625 256.707 347.125 257.3164 Q346.5781 258.0977 346.5781 260.2227 ZM358.0469 263.4414 L358.0469 264.457 L352.3594 264.457 Q352.3594 264.082 352.4844 263.7227 Q352.7031 263.1445 353.1797 262.582 Q353.6562 262.0195 354.5625 261.2852 Q355.9688 260.1289 356.4609 259.457 Q356.9531 258.7852 356.9531 258.1914 Q356.9531 257.5664 356.5 257.1367 Q356.0469 256.707 355.3281 256.707 Q354.5625 256.707 354.1094 257.1602 Q353.6562 257.6133 353.6406 258.4258 L352.5625 258.3164 Q352.6719 257.0977 353.3984 256.4648 Q354.125 255.832 355.3594 255.832 Q356.5938 255.832 357.3125 256.5195 Q358.0312 257.207 358.0312 258.2227 Q358.0312 258.7383 357.8203 259.2305 Q357.6094 259.7227 357.1172 260.2773 Q356.625 260.832 355.5 261.7852 Q354.5469 262.582 354.2734 262.8711 Q354 263.1602 353.8281 263.4414 L358.0469 263.4414 ZM359.5 260.2227 Q359.5 258.6914 359.8125 257.7617 Q360.125 256.832 360.7422 256.332 Q361.3594 255.832 362.2969 255.832 Q362.9844 255.832 363.5078 256.1133 Q364.0312 256.3945 364.375 256.918 Q364.7188 257.4414 364.9062 258.1914 Q365.0938 258.9414 365.0938 260.2227 Q365.0938 261.7383 364.7891 262.6602 Q364.4844 263.582 363.8672 264.0898 Q363.25 264.5977 362.2969 264.5977 Q361.0625 264.5977 360.3438 263.707 Q359.5 262.6445 359.5 260.2227 ZM360.5781 260.2227 Q360.5781 262.332 361.0781 263.0352 Q361.5781 263.7383 362.2969 263.7383 Q363.0312 263.7383 363.5234 263.0352 Q364.0156 262.332 364.0156 260.2227 Q364.0156 258.0977 363.5234 257.4023 Q363.0312 256.707 362.2812 256.707 Q361.5625 256.707 361.125 257.3164 Q360.5781 258.0977 360.5781 260.2227 ZM366.5 262.1914 L367.5625 262.0508 Q367.7344 262.9414 368.1719 263.3398 Q368.6094 263.7383 369.2344 263.7383 Q369.9844 263.7383 370.5 263.2227 Q371.0156 262.707 371.0156 261.9414 Q371.0156 261.2227 370.5391 260.7461 Q370.0625 260.2695 369.3281 260.2695 Q369.0312 260.2695 368.5781 260.3945 L368.7031 259.457 Q368.8125 259.4727 368.875 259.4727 Q369.5469 259.4727 370.0859 259.1211 Q370.625 258.7695 370.625 258.0352 Q370.625 257.457 370.2344 257.0742 Q369.8438 256.6914 369.2188 256.6914 Q368.6094 256.6914 368.1953 257.082 Q367.7812 257.4727 367.6719 258.2383 L366.6094 258.0508 Q366.7969 257.0039 367.4844 256.418 Q368.1719 255.832 369.1875 255.832 Q369.8906 255.832 370.4844 256.1367 Q371.0781 256.4414 371.3906 256.957 Q371.7031 257.4727 371.7031 258.0664 Q371.7031 258.6133 371.4062 259.0742 Q371.1094 259.5352 370.5312 259.8008 Q371.2812 259.9727 371.7031 260.5273 Q372.125 261.082 372.125 261.9258 Q372.125 263.0508 371.3047 263.832 Q370.4844 264.6133 369.2344 264.6133 Q368.1094 264.6133 367.3594 263.9336 Q366.6094 263.2539 366.5 262.1914 Z" clip-path="url(#clipPath2)" stroke="none"/><path fill="black" d="M337.0469 263.4414 L337.0469 264.457 L331.3594 264.457 Q331.3594 264.082 331.4844 263.7227 Q331.7031 263.1445 332.1797 262.582 Q332.6562 262.0195 333.5625 261.2852 Q334.9688 260.1289 335.4609 259.457 Q335.9531 258.7852 335.9531 258.1914 Q335.9531 257.5664 335.5 257.1367 Q335.0469 256.707 334.3281 256.707 Q333.5625 256.707 333.1094 257.1602 Q332.6562 257.6133 332.6406 258.4258 L331.5625 258.3164 Q331.6719 257.0977 332.3984 256.4648 Q333.125 255.832 334.3594 255.832 Q335.5938 255.832 336.3125 256.5195 Q337.0312 257.207 337.0312 258.2227 Q337.0312 258.7383 336.8203 259.2305 Q336.6094 259.7227 336.1172 260.2773 Q335.625 260.832 334.5 261.7852 Q333.5469 262.582 333.2734 262.8711 Q333 263.1602 332.8281 263.4414 L337.0469 263.4414 ZM339.0781 259.4414 L339.0781 258.2383 L340.2812 258.2383 L340.2812 259.4414 L339.0781 259.4414 ZM339.0781 264.457 L339.0781 263.2539 L340.2812 263.2539 L340.2812 264.457 L339.0781 264.457 Z" clip-path="url(#clipPath2)" stroke="none"/><polygon points=" 540 134 549 139 540 144" clip-path="url(#clipPath2)" stroke="none"/><polygon fill="none" points=" 540 134 549 139 540 144" clip-path="url(#clipPath2)"/><path fill="none" d="M549 139 L173 139" clip-path="url(#clipPath2)"/><path fill="black" d="M345.5 129.2227 Q345.5 127.6914 345.8125 126.7617 Q346.125 125.832 346.7422 125.332 Q347.3594 124.832 348.2969 124.832 Q348.9844 124.832 349.5078 125.1133 Q350.0312 125.3945 350.375 125.918 Q350.7188 126.4414 350.9062 127.1914 Q351.0938 127.9414 351.0938 129.2227 Q351.0938 130.7383 350.7891 131.6602 Q350.4844 132.582 349.8672 133.0898 Q349.25 133.5977 348.2969 133.5977 Q347.0625 133.5977 346.3438 132.707 Q345.5 131.6445 345.5 129.2227 ZM346.5781 129.2227 Q346.5781 131.332 347.0781 132.0352 Q347.5781 132.7383 348.2969 132.7383 Q349.0312 132.7383 349.5234 132.0352 Q350.0156 131.332 350.0156 129.2227 Q350.0156 127.0977 349.5234 126.4023 Q349.0312 125.707 348.2812 125.707 Q347.5625 125.707 347.125 126.3164 Q346.5781 127.0977 346.5781 129.2227 ZM358.0469 132.4414 L358.0469 133.457 L352.3594 133.457 Q352.3594 133.082 352.4844 132.7227 Q352.7031 132.1445 353.1797 131.582 Q353.6562 131.0195 354.5625 130.2852 Q355.9688 129.1289 356.4609 128.457 Q356.9531 127.7852 356.9531 127.1914 Q356.9531 126.5664 356.5 126.1367 Q356.0469 125.707 355.3281 125.707 Q354.5625 125.707 354.1094 126.1602 Q353.6562 126.6133 353.6406 127.4258 L352.5625 127.3164 Q352.6719 126.0977 353.3984 125.4648 Q354.125 124.832 355.3594 124.832 Q356.5938 124.832 357.3125 125.5195 Q358.0312 126.207 358.0312 127.2227 Q358.0312 127.7383 357.8203 128.2305 Q357.6094 128.7227 357.1172 129.2773 Q356.625 129.832 355.5 130.7852 Q354.5469 131.582 354.2734 131.8711 Q354 132.1602 353.8281 132.4414 L358.0469 132.4414 ZM359.5 129.2227 Q359.5 127.6914 359.8125 126.7617 Q360.125 125.832 360.7422 125.332 Q361.3594 124.832 362.2969 124.832 Q362.9844 124.832 363.5078 125.1133 Q364.0312 125.3945 364.375 125.918 Q364.7188 126.4414 364.9062 127.1914 Q365.0938 127.9414 365.0938 129.2227 Q365.0938 130.7383 364.7891 131.6602 Q364.4844 132.582 363.8672 133.0898 Q363.25 133.5977 362.2969 133.5977 Q361.0625 133.5977 360.3438 132.707 Q359.5 131.6445 359.5 129.2227 ZM360.5781 129.2227 Q360.5781 131.332 361.0781 132.0352 Q361.5781 132.7383 362.2969 132.7383 Q363.0312 132.7383 363.5234 132.0352 Q364.0156 131.332 364.0156 129.2227 Q364.0156 127.0977 363.5234 126.4023 Q363.0312 125.707 362.2812 125.707 Q361.5625 125.707 361.125 126.3164 Q360.5781 127.0977 360.5781 129.2227 ZM370.4688 133.457 L369.4219 133.457 L369.4219 126.7383 Q369.0312 127.0977 368.4141 127.4648 Q367.7969 127.832 367.3125 128.0039 L367.3125 126.9883 Q368.1875 126.5664 368.8516 125.9805 Q369.5156 125.3945 369.7969 124.832 L370.4688 124.832 L370.4688 133.457 Z" clip-path="url(#clipPath2)" stroke="none"/><path fill="black" d="M335.4688 133.457 L334.4219 133.457 L334.4219 126.7383 Q334.0312 127.0977 333.4141 127.4648 Q332.7969 127.832 332.3125 128.0039 L332.3125 126.9883 Q333.1875 126.5664 333.8516 125.9805 Q334.5156 125.3945 334.7969 124.832 L335.4688 124.832 L335.4688 133.457 ZM339.0781 128.4414 L339.0781 127.2383 L340.2812 127.2383 L340.2812 128.4414 L339.0781 128.4414 ZM339.0781 133.457 L339.0781 132.2539 L340.2812 132.2539 L340.2812 133.457 L339.0781 133.457 Z" clip-path="url(#clipPath2)" stroke="none"/></g></g></svg>