<?xml version="1.0" encoding="UTF-8"?><svg xmlns="http://www.w3.org/2000/svg" width="1244.225" height="238">
   <defs>
      <style type="text/css">
                        text {
                            font-family: 'Arial';
                            fill: black;
                        }
                        text.at {
                            font-family: 'Arial';
                            fill: rgb(242, 152, 0);
                        }
                        line {
                            stroke: black;
                        }
                        line.type-structure {
                            stroke: black;
                        }
                        line.type-structure-optional {
                            stroke: black;
                            stroke-dasharray: 4, 4;
                        }
                        rect.attribute-upper {
                            stroke: black;
                            fill: rgb(255, 239, 211);
                        }
                        rect.element-upper {
                            stroke: black;
                            fill: rgb(215, 227, 249);
                        }
                        rect.element-lower {
                            stroke: black;
                            fill: rgb(236, 242, 252);
                        }
                        a text {
                            fill: black;
                        } 
                    </style>
   </defs>
   <rect width="1234.225" height="228" stroke-dasharray="3,3" rx="1" ry="1" style="stroke: grey;fill: white;"/>
   <text font-size="14" x="3.6" y="18" font-weight="bold">complexType type.auslandsverwendung.fuehrungszeugnis</text>
   <g transform="translate(10,34)">
      <g transform="translate(55,0)">
         <rect width="136.109375" height="18" class="element-upper"/>
         <rect width="136.109375" height="18" y="18" class="element-lower"/>
         <text font-size="12" x="3.6" y="12" font-weight="bold">staat</text>
         <line x1="0" y1="18" x2="136.109375" y2="18"/>
         <text font-size="12" fill="grey" x="3.6" y="30">type</text>
         <line x1="31.753125" y1="18" x2="31.753125" y2="36"/>
         <text font-size="12" x="35.353125" y="30">xmeld:Code.Staat</text>
         <g transform="translate(136.109375,0)"/>
      </g>
      <line x1="33" y1="18" x2="55" y2="18" class="type-structure-required"/>
      <text font-size="11" fill="black" x="53" y="16" text-anchor="end"/>
      <line x1="33" y1="18" x2="33" y2="18" class="type-structure-required"/>
      <g transform="translate(55,48)">
         <rect width="243.26874999999998" height="18" class="element-upper"/>
         <rect width="243.26874999999998" height="18" y="18" class="element-lower"/>
         <text font-size="12" x="3.6" y="12" font-weight="bold">auslandsverwendung.anerkennungsform</text>
         <line x1="0" y1="18" x2="243.26874999999998" y2="18"/>
         <text font-size="12" fill="grey" x="3.6" y="30">type</text>
         <line x1="31.753125" y1="18" x2="31.753125" y2="36"/>
         <g transform="translate(243.26874999999998,0)">
            <g transform="translate(55,0)">
               <rect width="349.221875" height="18" class="element-upper"/>
               <rect width="349.221875" height="18" y="18" class="element-lower"/>
               <text font-size="12" x="3.6" y="12" font-weight="bold">fuehrungszeugnis.auslandsverwendung.ueberbeglaubigung</text>
               <line x1="0" y1="18" x2="349.221875" y2="18"/>
               <text font-size="12" fill="grey" x="3.6" y="30">type</text>
               <line x1="31.753125" y1="18" x2="31.753125" y2="36"/>
               <g transform="translate(349.221875,0)">
                  <g transform="translate(55,0)">
                     <rect width="450.734375" height="18" class="element-upper"/>
                     <rect width="450.734375" height="18" y="18" class="element-lower"/>
                     <text font-size="12" x="3.6" y="12" font-weight="bold">anerkennungsform</text>
                     <line x1="0" y1="18" x2="450.734375" y2="18"/>
                     <text font-size="12" fill="grey" x="3.6" y="30">type</text>
                     <line x1="31.753125" y1="18" x2="31.753125" y2="36"/>
                     <text font-size="12" x="35.353125" y="30">xmeld:Code.BfJ.Fuehrungszeugnis.Anerkennungsform.Ueberbeglaubigung</text>
                     <g transform="translate(450.734375,0)"/>
                  </g>
                  <line x1="33" y1="18" x2="55" y2="18" class="type-structure-required"/>
                  <text font-size="11" fill="black" x="53" y="16" text-anchor="end"/>
                  <line x1="33" y1="18" x2="33" y2="18" class="type-structure-required"/>
                  <g transform="translate(55,48)">
                     <rect width="199.015625" height="18" class="element-upper"/>
                     <rect width="199.015625" height="18" y="18" class="element-lower"/>
                     <text font-size="12" x="3.6" y="12" font-weight="bold">belegnummer</text>
                     <line x1="0" y1="18" x2="199.015625" y2="18"/>
                     <text font-size="12" fill="grey" x="3.6" y="30">type</text>
                     <line x1="31.753125" y1="18" x2="31.753125" y2="36"/>
                     <text font-size="12" x="35.353125" y="30">xmeld:type.BfJ.Belegnummer</text>
                     <g transform="translate(199.015625,0)"/>
                  </g>
                  <line x1="33" y1="66" x2="55" y2="66" class="type-structure-required"/>
                  <text font-size="11" fill="black" x="53" y="64" text-anchor="end"/>
                  <line x1="33" y1="18" x2="33" y2="66" class="type-structure-required"/>
                  <circle cx="15" cy="18" r="10" stroke="black" fill="rgb(251, 251, 251)"/>
                  <line x1="0" y1="18" x2="5" y2="18" class="type-structure-required"/>
                  <line x1="25" y1="18" x2="33" y2="18" class="type-structure-required"/>
                  <circle cx="10" cy="18" r="1.2" stroke="black" fill="black"/>
                  <circle cx="15" cy="18" r="1.2" stroke="black" fill="black"/>
                  <circle cx="20" cy="18" r="1.2" stroke="black" fill="black"/>
                  <line x1="7" y1="18" x2="23" y2="18"/>
               </g>
            </g>
            <line x1="33" y1="18" x2="55" y2="18" class="type-structure-required"/>
            <text font-size="11" fill="black" x="53" y="16" text-anchor="end"/>
            <line x1="33" y1="18" x2="33" y2="18" class="type-structure-required"/>
            <g transform="translate(55,96)">
               <rect width="288.89375" height="18" class="element-upper"/>
               <rect width="288.89375" height="18" y="18" class="element-lower"/>
               <text font-size="12" x="3.6" y="12" font-weight="bold">fuehrungszeugnis.auslandsverwendung.sonstige</text>
               <line x1="0" y1="18" x2="288.89375" y2="18"/>
               <text font-size="12" fill="grey" x="3.6" y="30">type</text>
               <line x1="31.753125" y1="18" x2="31.753125" y2="36"/>
               <g transform="translate(288.89375,0)">
                  <g transform="translate(55,0)">
                     <rect width="390.03125" height="18" class="element-upper"/>
                     <rect width="390.03125" height="18" y="18" class="element-lower"/>
                     <text font-size="12" x="3.6" y="12" font-weight="bold">anerkennungsform</text>
                     <line x1="0" y1="18" x2="390.03125" y2="18"/>
                     <text font-size="12" fill="grey" x="3.6" y="30">type</text>
                     <line x1="31.753125" y1="18" x2="31.753125" y2="36"/>
                     <text font-size="12" x="35.353125" y="30">xmeld:Code.BfJ.Fuehrungszeugnis.Anerkennungsform.Sonstige</text>
                     <g transform="translate(390.03125,0)"/>
                  </g>
                  <line x1="33" y1="18" x2="55" y2="18" class="type-structure-required"/>
                  <text font-size="11" fill="black" x="53" y="16" text-anchor="end"/>
                  <line x1="33" y1="18" x2="33" y2="18" class="type-structure-required"/>
                  <circle cx="15" cy="18" r="10" stroke="black" fill="rgb(251, 251, 251)"/>
                  <line x1="0" y1="18" x2="5" y2="18" class="type-structure-required"/>
                  <line x1="25" y1="18" x2="33" y2="18" class="type-structure-required"/>
                  <circle cx="10" cy="18" r="1.2" stroke="black" fill="black"/>
                  <circle cx="15" cy="18" r="1.2" stroke="black" fill="black"/>
                  <circle cx="20" cy="18" r="1.2" stroke="black" fill="black"/>
                  <line x1="7" y1="18" x2="23" y2="18"/>
               </g>
            </g>
            <line x1="33" y1="114" x2="55" y2="114" class="type-structure-required"/>
            <text font-size="11" fill="black" x="53" y="112" text-anchor="end"/>
            <line x1="33" y1="18" x2="33" y2="114" class="type-structure-required"/>
            <circle cx="15" cy="18" r="10" stroke="black" fill="rgb(251, 251, 251)"/>
            <line x1="0" y1="18" x2="5" y2="18" class="type-structure-required"/>
            <line x1="25" y1="18" x2="33" y2="18" class="type-structure-required"/>
            <circle cx="10" cy="18" r="1.2" stroke="black" fill="black"/>
            <circle cx="18" cy="14" r="1.2" stroke="black" fill="black"/>
            <circle cx="18" cy="18" r="1.2" stroke="black" fill="black"/>
            <circle cx="18" cy="22" r="1.2" stroke="black" fill="black"/>
            <line x1="10" y1="18" x2="18" y2="14"/>
         </g>
      </g>
      <line x1="33" y1="66" x2="55" y2="66" class="type-structure-required"/>
      <text font-size="11" fill="black" x="53" y="64" text-anchor="end"/>
      <line x1="33" y1="18" x2="33" y2="66" class="type-structure-required"/>
      <circle cx="15" cy="18" r="10" stroke="black" fill="rgb(251, 251, 251)"/>
      <line x1="0" y1="18" x2="5" y2="18" class="type-structure-required"/>
      <line x1="25" y1="18" x2="33" y2="18" class="type-structure-required"/>
      <circle cx="10" cy="18" r="1.2" stroke="black" fill="black"/>
      <circle cx="15" cy="18" r="1.2" stroke="black" fill="black"/>
      <circle cx="20" cy="18" r="1.2" stroke="black" fill="black"/>
      <line x1="7" y1="18" x2="23" y2="18"/>
   </g>
</svg>