<?xml version="1.0" encoding="UTF-8"?><svg xmlns="http://www.w3.org/2000/svg" width="566.284375" height="970">
   <defs>
      <style type="text/css">
                        text {
                            font-family: 'Arial';
                            fill: black;
                        }
                        text.at {
                            font-family: 'Arial';
                            fill: rgb(242, 152, 0);
                        }
                        line {
                            stroke: black;
                        }
                        line.type-structure {
                            stroke: black;
                        }
                        line.type-structure-optional {
                            stroke: black;
                            stroke-dasharray: 4, 4;
                        }
                        rect.attribute-upper {
                            stroke: black;
                            fill: rgb(255, 239, 211);
                        }
                        rect.element-upper {
                            stroke: black;
                            fill: rgb(215, 227, 249);
                        }
                        rect.element-lower {
                            stroke: black;
                            fill: rgb(236, 242, 252);
                        }
                        a text {
                            fill: black;
                        } 
                    </style>
   </defs>
   <rect width="556.284375" height="960" stroke-dasharray="3,3" rx="1" ry="1" style="stroke: grey;fill: white;"/>
   <text font-size="14" x="3.6" y="18" font-weight="bold">element datenuebermittlung.aenderung.1001 (anonymous type)</text>
   <text font-size="12" x="3.6" y="34.8"> (extension of xmeld:type.Nachricht.G2G)</text>
   <g transform="translate(10,46)">
      <g transform="translate(55,0)">
         <rect width="70.940625" height="18" class="element-upper"/>
         <rect width="70.940625" height="18" y="18" class="element-lower"/>
         <text font-size="12" x="3.6" y="12" font-weight="bold">aenderung</text>
         <line x1="0" y1="18" x2="70.940625" y2="18"/>
         <text font-size="12" fill="grey" x="3.6" y="30">type</text>
         <line x1="31.753125" y1="18" x2="31.753125" y2="36"/>
         <g transform="translate(70.940625,0)">
            <g transform="translate(55,0)">
               <rect width="246.703125" height="18" class="element-upper"/>
               <rect width="246.703125" height="18" y="18" class="element-lower"/>
               <text font-size="12" x="3.6" y="12" font-weight="bold">identifikationsdaten</text>
               <line x1="0" y1="18" x2="246.703125" y2="18"/>
               <text font-size="12" fill="grey" x="3.6" y="30">type</text>
               <line x1="31.753125" y1="18" x2="31.753125" y2="36"/>
               <text font-size="12" x="35.353125" y="30">xmeld:type.DSRV.Identifikation.Person</text>
               <g transform="translate(246.703125,0)"/>
            </g>
            <line x1="33" y1="18" x2="55" y2="18" class="type-structure-required"/>
            <text font-size="11" fill="black" x="53" y="16" text-anchor="end"/>
            <line x1="33" y1="18" x2="33" y2="18" class="type-structure-required"/>
            <g transform="translate(55,48)">
               <rect width="97.703125" height="18" class="element-upper"/>
               <rect width="97.703125" height="18" y="18" class="element-lower"/>
               <text font-size="12" x="3.6" y="12" font-weight="bold">merkmal.leben</text>
               <line x1="0" y1="18" x2="97.703125" y2="18"/>
               <text font-size="12" fill="grey" x="3.6" y="30">type</text>
               <line x1="31.753125" y1="18" x2="31.753125" y2="36"/>
               <text font-size="12" x="35.353125" y="30">xs:boolean</text>
               <g transform="translate(97.703125,0)"/>
            </g>
            <line x1="33" y1="66" x2="55" y2="66" class="type-structure-required"/>
            <text font-size="11" fill="black" x="53" y="64" text-anchor="end"/>
            <line x1="33" y1="18" x2="33" y2="66" class="type-structure-required"/>
            <g transform="translate(55,96)">
               <rect width="278.03125" height="18" class="element-upper"/>
               <rect width="278.03125" height="18" y="18" class="element-lower"/>
               <text font-size="12" x="3.6" y="12" font-weight="bold">aenderung.familienname</text>
               <line x1="0" y1="18" x2="278.03125" y2="18"/>
               <text font-size="12" fill="grey" x="3.6" y="30">type</text>
               <line x1="31.753125" y1="18" x2="31.753125" y2="36"/>
               <text font-size="12" x="35.353125" y="30">xmeld:type.DSRV.Aenderung.Familienname</text>
               <g transform="translate(278.03125,0)"/>
            </g>
            <line x1="33" y1="114" x2="55" y2="114" class="type-structure-optional"/>
            <text font-size="11" fill="black" x="53" y="112" text-anchor="end">0..1</text>
            <line x1="33" y1="66" x2="33" y2="114" class="type-structure-required"/>
            <g transform="translate(55,144)">
               <rect width="259.03125" height="18" class="element-upper"/>
               <rect width="259.03125" height="18" y="18" class="element-lower"/>
               <text font-size="12" x="3.6" y="12" font-weight="bold">aenderung.ehename</text>
               <line x1="0" y1="18" x2="259.03125" y2="18"/>
               <text font-size="12" fill="grey" x="3.6" y="30">type</text>
               <line x1="31.753125" y1="18" x2="31.753125" y2="36"/>
               <text font-size="12" x="35.353125" y="30">xmeld:type.DSRV.Aenderung.Nachname</text>
               <g transform="translate(259.03125,0)"/>
            </g>
            <line x1="33" y1="162" x2="55" y2="162" class="type-structure-optional"/>
            <text font-size="11" fill="black" x="53" y="160" text-anchor="end">0..1</text>
            <line x1="33" y1="114" x2="33" y2="162" class="type-structure-required"/>
            <g transform="translate(55,192)">
               <rect width="259.03125" height="18" class="element-upper"/>
               <rect width="259.03125" height="18" y="18" class="element-lower"/>
               <text font-size="12" x="3.6" y="12" font-weight="bold">aenderung.lebenspartnerschaftsname</text>
               <line x1="0" y1="18" x2="259.03125" y2="18"/>
               <text font-size="12" fill="grey" x="3.6" y="30">type</text>
               <line x1="31.753125" y1="18" x2="31.753125" y2="36"/>
               <text font-size="12" x="35.353125" y="30">xmeld:type.DSRV.Aenderung.Nachname</text>
               <g transform="translate(259.03125,0)"/>
            </g>
            <line x1="33" y1="210" x2="55" y2="210" class="type-structure-optional"/>
            <text font-size="11" fill="black" x="53" y="208" text-anchor="end">0..1</text>
            <line x1="33" y1="162" x2="33" y2="210" class="type-structure-required"/>
            <g transform="translate(55,240)">
               <rect width="259.03125" height="18" class="element-upper"/>
               <rect width="259.03125" height="18" y="18" class="element-lower"/>
               <text font-size="12" x="3.6" y="12" font-weight="bold">aenderung.geburtsname</text>
               <line x1="0" y1="18" x2="259.03125" y2="18"/>
               <text font-size="12" fill="grey" x="3.6" y="30">type</text>
               <line x1="31.753125" y1="18" x2="31.753125" y2="36"/>
               <text font-size="12" x="35.353125" y="30">xmeld:type.DSRV.Aenderung.Nachname</text>
               <g transform="translate(259.03125,0)"/>
            </g>
            <line x1="33" y1="258" x2="55" y2="258" class="type-structure-optional"/>
            <text font-size="11" fill="black" x="53" y="256" text-anchor="end">0..1</text>
            <line x1="33" y1="210" x2="33" y2="258" class="type-structure-required"/>
            <g transform="translate(55,288)">
               <rect width="259.03125" height="18" class="element-upper"/>
               <rect width="259.03125" height="18" y="18" class="element-lower"/>
               <text font-size="12" x="3.6" y="12" font-weight="bold">aenderung.frueherer.familienname</text>
               <line x1="0" y1="18" x2="259.03125" y2="18"/>
               <text font-size="12" fill="grey" x="3.6" y="30">type</text>
               <line x1="31.753125" y1="18" x2="31.753125" y2="36"/>
               <text font-size="12" x="35.353125" y="30">xmeld:type.DSRV.Aenderung.Nachname</text>
               <g transform="translate(259.03125,0)"/>
            </g>
            <line x1="33" y1="306" x2="55" y2="306" class="type-structure-optional"/>
            <text font-size="11" fill="black" x="53" y="304" text-anchor="end">0..1</text>
            <line x1="33" y1="258" x2="33" y2="306" class="type-structure-required"/>
            <g transform="translate(55,336)">
               <rect width="236.03125" height="18" class="element-upper"/>
               <rect width="236.03125" height="18" y="18" class="element-lower"/>
               <text font-size="12" x="3.6" y="12" font-weight="bold">aenderung.vornamen</text>
               <line x1="0" y1="18" x2="236.03125" y2="18"/>
               <text font-size="12" fill="grey" x="3.6" y="30">type</text>
               <line x1="31.753125" y1="18" x2="31.753125" y2="36"/>
               <text font-size="12" x="35.353125" y="30">xmeld:type.dsrv.aenderung.vorname</text>
               <g transform="translate(236.03125,0)"/>
            </g>
            <line x1="33" y1="354" x2="55" y2="354" class="type-structure-optional"/>
            <text font-size="11" fill="black" x="53" y="352" text-anchor="end">0..1</text>
            <line x1="33" y1="306" x2="33" y2="354" class="type-structure-required"/>
            <g transform="translate(55,384)">
               <rect width="236.03125" height="18" class="element-upper"/>
               <rect width="236.03125" height="18" y="18" class="element-lower"/>
               <text font-size="12" x="3.6" y="12" font-weight="bold">aenderung.rufname</text>
               <line x1="0" y1="18" x2="236.03125" y2="18"/>
               <text font-size="12" fill="grey" x="3.6" y="30">type</text>
               <line x1="31.753125" y1="18" x2="31.753125" y2="36"/>
               <text font-size="12" x="35.353125" y="30">xmeld:type.dsrv.aenderung.vorname</text>
               <g transform="translate(236.03125,0)"/>
            </g>
            <line x1="33" y1="402" x2="55" y2="402" class="type-structure-optional"/>
            <text font-size="11" fill="black" x="53" y="400" text-anchor="end">0..1</text>
            <line x1="33" y1="354" x2="33" y2="402" class="type-structure-required"/>
            <g transform="translate(55,432)">
               <rect width="236.03125" height="18" class="element-upper"/>
               <rect width="236.03125" height="18" y="18" class="element-lower"/>
               <text font-size="12" x="3.6" y="12" font-weight="bold">aenderung.fruehere.vornamen</text>
               <line x1="0" y1="18" x2="236.03125" y2="18"/>
               <text font-size="12" fill="grey" x="3.6" y="30">type</text>
               <line x1="31.753125" y1="18" x2="31.753125" y2="36"/>
               <text font-size="12" x="35.353125" y="30">xmeld:type.dsrv.aenderung.vorname</text>
               <g transform="translate(236.03125,0)"/>
            </g>
            <line x1="33" y1="450" x2="55" y2="450" class="type-structure-optional"/>
            <text font-size="11" fill="black" x="53" y="448" text-anchor="end">0..1</text>
            <line x1="33" y1="402" x2="33" y2="450" class="type-structure-required"/>
            <g transform="translate(55,480)">
               <rect width="246.671875" height="18" class="element-upper"/>
               <rect width="246.671875" height="18" y="18" class="element-lower"/>
               <text font-size="12" x="3.6" y="12" font-weight="bold">aenderung.doktorgrad</text>
               <line x1="0" y1="18" x2="246.671875" y2="18"/>
               <text font-size="12" fill="grey" x="3.6" y="30">type</text>
               <line x1="31.753125" y1="18" x2="31.753125" y2="36"/>
               <text font-size="12" x="35.353125" y="30">xmeld:type.dsrv.aenderung.doktorgrad</text>
               <g transform="translate(246.671875,0)"/>
            </g>
            <line x1="33" y1="498" x2="55" y2="498" class="type-structure-optional"/>
            <text font-size="11" fill="black" x="53" y="496" text-anchor="end">0..1</text>
            <line x1="33" y1="450" x2="33" y2="498" class="type-structure-required"/>
            <g transform="translate(55,528)">
               <rect width="260.703125" height="18" class="element-upper"/>
               <rect width="260.703125" height="18" y="18" class="element-lower"/>
               <text font-size="12" x="3.6" y="12" font-weight="bold">aenderung.geburtsdaten</text>
               <line x1="0" y1="18" x2="260.703125" y2="18"/>
               <text font-size="12" fill="grey" x="3.6" y="30">type</text>
               <line x1="31.753125" y1="18" x2="31.753125" y2="36"/>
               <text font-size="12" x="35.353125" y="30">xmeld:type.dsrv.aenderung.geburtsdaten</text>
               <g transform="translate(260.703125,0)"/>
            </g>
            <line x1="33" y1="546" x2="55" y2="546" class="type-structure-optional"/>
            <text font-size="11" fill="black" x="53" y="544" text-anchor="end">0..1</text>
            <line x1="33" y1="498" x2="33" y2="546" class="type-structure-required"/>
            <g transform="translate(55,576)">
               <rect width="249.109375" height="18" class="element-upper"/>
               <rect width="249.109375" height="18" y="18" class="element-lower"/>
               <text font-size="12" x="3.6" y="12" font-weight="bold">aenderung.geschlecht</text>
               <line x1="0" y1="18" x2="249.109375" y2="18"/>
               <text font-size="12" fill="grey" x="3.6" y="30">type</text>
               <line x1="31.753125" y1="18" x2="31.753125" y2="36"/>
               <text font-size="12" x="35.353125" y="30">xmeld:type.dsrv.aenderung.geschlecht</text>
               <g transform="translate(249.109375,0)"/>
            </g>
            <line x1="33" y1="594" x2="55" y2="594" class="type-structure-optional"/>
            <text font-size="11" fill="black" x="53" y="592" text-anchor="end">0..1</text>
            <line x1="33" y1="546" x2="33" y2="594" class="type-structure-required"/>
            <g transform="translate(55,624)">
               <rect width="246.109375" height="18" class="element-upper"/>
               <rect width="246.109375" height="18" y="18" class="element-lower"/>
               <text font-size="12" x="3.6" y="12" font-weight="bold">aenderung.anschrift.gegenwaertig</text>
               <line x1="0" y1="18" x2="246.109375" y2="18"/>
               <text font-size="12" fill="grey" x="3.6" y="30">type</text>
               <line x1="31.753125" y1="18" x2="31.753125" y2="36"/>
               <text font-size="12" x="35.353125" y="30">xmeld:type.DSRV.Aenderung.Anschrift</text>
               <g transform="translate(246.109375,0)"/>
            </g>
            <line x1="33" y1="642" x2="55" y2="642" class="type-structure-optional"/>
            <text font-size="11" fill="black" x="53" y="640" text-anchor="end">0..1</text>
            <line x1="33" y1="594" x2="33" y2="642" class="type-structure-required"/>
            <g transform="translate(55,672)">
               <rect width="246.109375" height="18" class="element-upper"/>
               <rect width="246.109375" height="18" y="18" class="element-lower"/>
               <text font-size="12" x="3.6" y="12" font-weight="bold">aenderung.anschrift.bisher</text>
               <line x1="0" y1="18" x2="246.109375" y2="18"/>
               <text font-size="12" fill="grey" x="3.6" y="30">type</text>
               <line x1="31.753125" y1="18" x2="31.753125" y2="36"/>
               <text font-size="12" x="35.353125" y="30">xmeld:type.DSRV.Aenderung.Anschrift</text>
               <g transform="translate(246.109375,0)"/>
            </g>
            <line x1="33" y1="690" x2="55" y2="690" class="type-structure-optional"/>
            <text font-size="11" fill="black" x="53" y="688" text-anchor="end">0..1</text>
            <line x1="33" y1="642" x2="33" y2="690" class="type-structure-required"/>
            <g transform="translate(55,720)">
               <rect width="250.734375" height="18" class="element-upper"/>
               <rect width="250.734375" height="18" y="18" class="element-lower"/>
               <text font-size="12" x="3.6" y="12" font-weight="bold">aenderung.sterbetag</text>
               <line x1="0" y1="18" x2="250.734375" y2="18"/>
               <text font-size="12" fill="grey" x="3.6" y="30">type</text>
               <line x1="31.753125" y1="18" x2="31.753125" y2="36"/>
               <text font-size="12" x="35.353125" y="30">xmeld:type.DSRV.Aenderung.Sterbetag</text>
               <g transform="translate(250.734375,0)"/>
            </g>
            <line x1="33" y1="738" x2="55" y2="738" class="type-structure-optional"/>
            <text font-size="11" fill="black" x="53" y="736" text-anchor="end">0..1</text>
            <line x1="33" y1="690" x2="33" y2="738" class="type-structure-required"/>
            <g transform="translate(55,768)">
               <rect width="272.703125" height="18" class="element-upper"/>
               <rect width="272.703125" height="18" y="18" class="element-lower"/>
               <text font-size="12" x="3.6" y="12" font-weight="bold">aenderung.eheLpBeginn</text>
               <line x1="0" y1="18" x2="272.703125" y2="18"/>
               <text font-size="12" fill="grey" x="3.6" y="30">type</text>
               <line x1="31.753125" y1="18" x2="31.753125" y2="36"/>
               <text font-size="12" x="35.353125" y="30">xmeld:type.DSRV.Aenderung.EheLpBeginn</text>
               <g transform="translate(272.703125,0)"/>
            </g>
            <line x1="33" y1="786" x2="55" y2="786" class="type-structure-optional"/>
            <text font-size="11" fill="black" x="53" y="784" text-anchor="end">0..1</text>
            <line x1="33" y1="738" x2="33" y2="786" class="type-structure-required"/>
            <g transform="translate(55,816)">
               <rect width="354.34375" height="18" class="element-upper"/>
               <rect width="354.34375" height="18" y="18" class="element-lower"/>
               <text font-size="12" x="3.6" y="12" font-weight="bold">aenderung.datumBeginnVorausgegangeneLP</text>
               <line x1="0" y1="18" x2="354.34375" y2="18"/>
               <text font-size="12" fill="grey" x="3.6" y="30">type</text>
               <line x1="31.753125" y1="18" x2="31.753125" y2="36"/>
               <text font-size="12" x="35.353125" y="30">xmeld:type.DSRV.Aenderung.BeginnVorausgegangeneLP</text>
               <g transform="translate(354.34375,0)"/>
            </g>
            <line x1="33" y1="834" x2="55" y2="834" class="type-structure-optional"/>
            <text font-size="11" fill="black" x="53" y="832" text-anchor="end">0..1</text>
            <line x1="33" y1="786" x2="33" y2="834" class="type-structure-required"/>
            <g transform="translate(55,864)">
               <rect width="216.390625" height="18" class="element-upper"/>
               <rect width="216.390625" height="18" y="18" class="element-lower"/>
               <text font-size="12" x="3.6" y="12" font-weight="bold">identifikation.ereignis</text>
               <line x1="0" y1="18" x2="216.390625" y2="18"/>
               <text font-size="12" fill="grey" x="3.6" y="30">type</text>
               <line x1="31.753125" y1="18" x2="31.753125" y2="36"/>
               <text font-size="12" x="35.353125" y="30">xmeld:type.Identifikation.Ereignis</text>
               <g transform="translate(216.390625,0)"/>
            </g>
            <line x1="33" y1="882" x2="55" y2="882" class="type-structure-required"/>
            <text font-size="11" fill="black" x="53" y="880" text-anchor="end"/>
            <line x1="33" y1="834" x2="33" y2="882" class="type-structure-required"/>
            <circle cx="15" cy="18" r="10" stroke="black" fill="rgb(251, 251, 251)"/>
            <line x1="0" y1="18" x2="5" y2="18" class="type-structure-required"/>
            <line x1="25" y1="18" x2="33" y2="18" class="type-structure-required"/>
            <circle cx="10" cy="18" r="1.2" stroke="black" fill="black"/>
            <circle cx="15" cy="18" r="1.2" stroke="black" fill="black"/>
            <circle cx="20" cy="18" r="1.2" stroke="black" fill="black"/>
            <line x1="7" y1="18" x2="23" y2="18"/>
         </g>
      </g>
      <line x1="33" y1="18" x2="55" y2="18" class="type-structure-required"/>
      <text font-size="11" fill="black" x="53" y="16" text-anchor="end">1..*</text>
      <line x1="33" y1="18" x2="33" y2="18" class="type-structure-required"/>
      <circle cx="15" cy="18" r="10" stroke="black" fill="rgb(251, 251, 251)"/>
      <line x1="0" y1="18" x2="5" y2="18" class="type-structure-required"/>
      <line x1="25" y1="18" x2="33" y2="18" class="type-structure-required"/>
      <circle cx="10" cy="18" r="1.2" stroke="black" fill="black"/>
      <circle cx="15" cy="18" r="1.2" stroke="black" fill="black"/>
      <circle cx="20" cy="18" r="1.2" stroke="black" fill="black"/>
      <line x1="7" y1="18" x2="23" y2="18"/>
   </g>
</svg>