<?xml version="1.0" encoding="UTF-8"?><svg xmlns="http://www.w3.org/2000/svg" width="567.175" height="730">
   <defs>
      <style type="text/css">
                        text {
                            font-family: 'Arial';
                            fill: black;
                        }
                        text.at {
                            font-family: 'Arial';
                            fill: rgb(242, 152, 0);
                        }
                        line {
                            stroke: black;
                        }
                        line.type-structure {
                            stroke: black;
                        }
                        line.type-structure-optional {
                            stroke: black;
                            stroke-dasharray: 4, 4;
                        }
                        rect.attribute-upper {
                            stroke: black;
                            fill: rgb(255, 239, 211);
                        }
                        rect.element-upper {
                            stroke: black;
                            fill: rgb(215, 227, 249);
                        }
                        rect.element-lower {
                            stroke: black;
                            fill: rgb(236, 242, 252);
                        }
                        a text {
                            fill: black;
                        } 
                    </style>
   </defs>
   <rect width="557.175" height="720" stroke-dasharray="3,3" rx="1" ry="1" style="stroke: grey;fill: white;"/>
   <text font-size="14" x="3.6" y="18" font-weight="bold">element auslaenderzentralregister.fehlermitteilung.1652 (anonymous type)</text>
   <text font-size="12" x="3.6" y="34.8"> (extension of xmeld:type.Nachricht.G2G)</text>
   <g transform="translate(10,46)">
      <g transform="translate(55,0)">
         <rect width="134.015625" height="18" class="element-upper"/>
         <rect width="134.015625" height="18" y="18" class="element-lower"/>
         <text font-size="12" x="3.6" y="12" font-weight="bold">azrNummer</text>
         <line x1="0" y1="18" x2="134.015625" y2="18"/>
         <text font-size="12" fill="grey" x="3.6" y="30">type</text>
         <line x1="31.753125" y1="18" x2="31.753125" y2="36"/>
         <text font-size="12" x="35.353125" y="30">xiaz:AZRNummer</text>
         <g transform="translate(134.015625,0)"/>
      </g>
      <line x1="33" y1="18" x2="55" y2="18" class="type-structure-required"/>
      <text font-size="11" fill="black" x="53" y="16" text-anchor="end"/>
      <line x1="33" y1="18" x2="33" y2="18" class="type-structure-required"/>
      <g transform="translate(55,48)">
         <rect width="243.71875" height="18" class="element-upper"/>
         <rect width="243.71875" height="18" y="18" class="element-lower"/>
         <text font-size="12" x="3.6" y="12" font-weight="bold">fehlergrund</text>
         <line x1="0" y1="18" x2="243.71875" y2="18"/>
         <text font-size="12" fill="grey" x="3.6" y="30">type</text>
         <line x1="31.753125" y1="18" x2="31.753125" y2="36"/>
         <text font-size="12" x="35.353125" y="30">xmeld:Code.AZR.Fehlercode.Fachlich</text>
         <g transform="translate(243.71875,0)"/>
      </g>
      <line x1="33" y1="66" x2="55" y2="66" class="type-structure-required"/>
      <text font-size="11" fill="black" x="53" y="64" text-anchor="end"/>
      <line x1="33" y1="18" x2="33" y2="66" class="type-structure-required"/>
      <g transform="translate(55,96)">
         <rect width="311.03125" height="18" class="element-upper"/>
         <rect width="311.03125" height="18" y="18" class="element-lower"/>
         <text font-size="12" x="3.6" y="12" font-weight="bold">anlass</text>
         <line x1="0" y1="18" x2="311.03125" y2="18"/>
         <text font-size="12" fill="grey" x="3.6" y="30">type</text>
         <line x1="31.753125" y1="18" x2="31.753125" y2="36"/>
         <text font-size="12" x="35.353125" y="30">xmeld:Code.XMeld.Datenuebermittlungsanlaesse</text>
         <g transform="translate(311.03125,0)"/>
      </g>
      <line x1="33" y1="114" x2="55" y2="114" class="type-structure-required"/>
      <text font-size="11" fill="black" x="53" y="112" text-anchor="end"/>
      <line x1="33" y1="66" x2="33" y2="114" class="type-structure-required"/>
      <g transform="translate(55,144)">
         <rect width="235.703125" height="18" class="element-upper"/>
         <rect width="235.703125" height="18" y="18" class="element-lower"/>
         <text font-size="12" x="3.6" y="12" font-weight="bold">name</text>
         <line x1="0" y1="18" x2="235.703125" y2="18"/>
         <text font-size="12" fill="grey" x="3.6" y="30">type</text>
         <line x1="31.753125" y1="18" x2="31.753125" y2="36"/>
         <text font-size="12" x="35.353125" y="30">xmeld:type.NameNatuerlichePerson</text>
         <g transform="translate(235.703125,0)"/>
      </g>
      <line x1="33" y1="162" x2="55" y2="162" class="type-structure-required"/>
      <text font-size="11" fill="black" x="53" y="160" text-anchor="end"/>
      <line x1="33" y1="114" x2="33" y2="162" class="type-structure-required"/>
      <g transform="translate(55,192)">
         <rect width="137.109375" height="18" class="element-upper"/>
         <rect width="137.109375" height="18" y="18" class="element-lower"/>
         <text font-size="12" x="3.6" y="12" font-weight="bold">geburt</text>
         <line x1="0" y1="18" x2="137.109375" y2="18"/>
         <text font-size="12" fill="grey" x="3.6" y="30">type</text>
         <line x1="31.753125" y1="18" x2="31.753125" y2="36"/>
         <text font-size="12" x="35.353125" y="30">xmeld:type.Geburt</text>
         <g transform="translate(137.109375,0)"/>
      </g>
      <line x1="33" y1="210" x2="55" y2="210" class="type-structure-required"/>
      <text font-size="11" fill="black" x="53" y="208" text-anchor="end"/>
      <line x1="33" y1="162" x2="33" y2="210" class="type-structure-required"/>
      <g transform="translate(55,240)">
         <rect width="152.109375" height="18" class="element-upper"/>
         <rect width="152.109375" height="18" y="18" class="element-lower"/>
         <text font-size="12" x="3.6" y="12" font-weight="bold">geschlecht</text>
         <line x1="0" y1="18" x2="152.109375" y2="18"/>
         <text font-size="12" fill="grey" x="3.6" y="30">type</text>
         <line x1="31.753125" y1="18" x2="31.753125" y2="36"/>
         <text font-size="12" x="35.353125" y="30">xig:Code.Geschlecht</text>
         <g transform="translate(152.109375,0)"/>
      </g>
      <line x1="33" y1="258" x2="55" y2="258" class="type-structure-required"/>
      <text font-size="11" fill="black" x="53" y="256" text-anchor="end"/>
      <line x1="33" y1="210" x2="33" y2="258" class="type-structure-required"/>
      <g transform="translate(55,288)">
         <rect width="225.109375" height="18" class="element-upper"/>
         <rect width="225.109375" height="18" y="18" class="element-lower"/>
         <text font-size="12" x="3.6" y="12" font-weight="bold">staatsangehoerigkeit</text>
         <line x1="0" y1="18" x2="225.109375" y2="18"/>
         <text font-size="12" fill="grey" x="3.6" y="30">type</text>
         <line x1="31.753125" y1="18" x2="31.753125" y2="36"/>
         <text font-size="12" x="35.353125" y="30">xmeld:Code.Staatsangehoerigkeit</text>
         <g transform="translate(225.109375,0)"/>
      </g>
      <line x1="33" y1="306" x2="55" y2="306" class="type-structure-required"/>
      <text font-size="11" fill="black" x="53" y="304" text-anchor="end">1..4</text>
      <line x1="33" y1="258" x2="33" y2="306" class="type-structure-required"/>
      <g transform="translate(55,336)">
         <rect width="108.940625" height="18" class="element-upper"/>
         <rect width="108.940625" height="18" y="18" class="element-lower"/>
         <text font-size="12" x="3.6" y="12" font-weight="bold">aktuelleWohnung</text>
         <line x1="0" y1="18" x2="108.940625" y2="18"/>
         <text font-size="12" fill="grey" x="3.6" y="30">type</text>
         <line x1="31.753125" y1="18" x2="31.753125" y2="36"/>
         <g transform="translate(108.940625,0)">
            <g transform="translate(55,0)">
               <rect width="207.109375" height="18" class="element-upper"/>
               <rect width="207.109375" height="18" y="18" class="element-lower"/>
               <text font-size="12" x="3.6" y="12" font-weight="bold">anschrift</text>
               <line x1="0" y1="18" x2="207.109375" y2="18"/>
               <text font-size="12" fill="grey" x="3.6" y="30">type</text>
               <line x1="31.753125" y1="18" x2="31.753125" y2="36"/>
               <text font-size="12" x="35.353125" y="30">xmeld:type.AnschriftMelderecht</text>
               <g transform="translate(207.109375,0)"/>
            </g>
            <line x1="33" y1="18" x2="55" y2="18" class="type-structure-required"/>
            <text font-size="11" fill="black" x="53" y="16" text-anchor="end"/>
            <line x1="33" y1="18" x2="33" y2="18" class="type-structure-required"/>
            <g transform="translate(55,48)">
               <rect width="209.109375" height="18" class="element-upper"/>
               <rect width="209.109375" height="18" y="18" class="element-lower"/>
               <text font-size="12" x="3.6" y="12" font-weight="bold">datumDesEinzugs</text>
               <line x1="0" y1="18" x2="209.109375" y2="18"/>
               <text font-size="12" fill="grey" x="3.6" y="30">type</text>
               <line x1="31.753125" y1="18" x2="31.753125" y2="36"/>
               <text font-size="12" x="35.353125" y="30">xida:TagesdatumMitUnbekannt</text>
               <g transform="translate(209.109375,0)"/>
            </g>
            <line x1="33" y1="66" x2="55" y2="66" class="type-structure-optional"/>
            <text font-size="11" fill="black" x="53" y="64" text-anchor="end">0..1</text>
            <line x1="33" y1="18" x2="33" y2="66" class="type-structure-optional"/>
            <circle cx="15" cy="18" r="10" stroke="black" fill="rgb(251, 251, 251)"/>
            <line x1="0" y1="18" x2="5" y2="18" class="type-structure-required"/>
            <line x1="25" y1="18" x2="33" y2="18" class="type-structure-required"/>
            <circle cx="10" cy="18" r="1.2" stroke="black" fill="black"/>
            <circle cx="15" cy="18" r="1.2" stroke="black" fill="black"/>
            <circle cx="20" cy="18" r="1.2" stroke="black" fill="black"/>
            <line x1="7" y1="18" x2="23" y2="18"/>
         </g>
      </g>
      <line x1="33" y1="354" x2="55" y2="354" class="type-structure-optional"/>
      <text font-size="11" fill="black" x="53" y="352" text-anchor="end">0..1</text>
      <line x1="33" y1="306" x2="33" y2="354" class="type-structure-required"/>
      <g transform="translate(55,432)">
         <rect width="145.50312499999998" height="18" class="element-upper"/>
         <rect width="145.50312499999998" height="18" y="18" class="element-lower"/>
         <text font-size="12" x="3.6" y="12" font-weight="bold">letzteFruehereWohnung</text>
         <line x1="0" y1="18" x2="145.50312499999998" y2="18"/>
         <text font-size="12" fill="grey" x="3.6" y="30">type</text>
         <line x1="31.753125" y1="18" x2="31.753125" y2="36"/>
         <g transform="translate(145.50312499999998,0)">
            <g transform="translate(55,0)">
               <rect width="280.671875" height="18" class="element-upper"/>
               <rect width="280.671875" height="18" y="18" class="element-lower"/>
               <text font-size="12" x="3.6" y="12" font-weight="bold">anschrift</text>
               <line x1="0" y1="18" x2="280.671875" y2="18"/>
               <text font-size="12" fill="grey" x="3.6" y="30">type</text>
               <line x1="31.753125" y1="18" x2="31.753125" y2="36"/>
               <text font-size="12" x="35.353125" y="30">xmeld:type.AnschriftMelderechtOhneAusland</text>
               <g transform="translate(280.671875,0)"/>
            </g>
            <line x1="33" y1="18" x2="55" y2="18" class="type-structure-required"/>
            <text font-size="11" fill="black" x="53" y="16" text-anchor="end"/>
            <line x1="33" y1="18" x2="33" y2="18" class="type-structure-required"/>
            <g transform="translate(55,48)">
               <rect width="254.109375" height="18" class="element-upper"/>
               <rect width="254.109375" height="18" y="18" class="element-lower"/>
               <text font-size="12" x="3.6" y="12" font-weight="bold">datumDesAuszugs</text>
               <line x1="0" y1="18" x2="254.109375" y2="18"/>
               <text font-size="12" fill="grey" x="3.6" y="30">type</text>
               <line x1="31.753125" y1="18" x2="31.753125" y2="36"/>
               <text font-size="12" x="35.353125" y="30">xida:TeilbekanntesDatumMitUnbekannt</text>
               <g transform="translate(254.109375,0)"/>
            </g>
            <line x1="33" y1="66" x2="55" y2="66" class="type-structure-optional"/>
            <text font-size="11" fill="black" x="53" y="64" text-anchor="end">0..1</text>
            <line x1="33" y1="18" x2="33" y2="66" class="type-structure-optional"/>
            <circle cx="15" cy="18" r="10" stroke="black" fill="rgb(251, 251, 251)"/>
            <line x1="0" y1="18" x2="5" y2="18" class="type-structure-required"/>
            <line x1="25" y1="18" x2="33" y2="18" class="type-structure-required"/>
            <circle cx="10" cy="18" r="1.2" stroke="black" fill="black"/>
            <circle cx="15" cy="18" r="1.2" stroke="black" fill="black"/>
            <circle cx="20" cy="18" r="1.2" stroke="black" fill="black"/>
            <line x1="7" y1="18" x2="23" y2="18"/>
         </g>
      </g>
      <line x1="33" y1="450" x2="55" y2="450" class="type-structure-optional"/>
      <text font-size="11" fill="black" x="53" y="448" text-anchor="end">0..1</text>
      <line x1="33" y1="354" x2="33" y2="450" class="type-structure-required"/>
      <g transform="translate(55,528)">
         <rect width="216.390625" height="18" class="element-upper"/>
         <rect width="216.390625" height="18" y="18" class="element-lower"/>
         <text font-size="12" x="3.6" y="12" font-weight="bold">ursprungsereignis</text>
         <line x1="0" y1="18" x2="216.390625" y2="18"/>
         <text font-size="12" fill="grey" x="3.6" y="30">type</text>
         <line x1="31.753125" y1="18" x2="31.753125" y2="36"/>
         <text font-size="12" x="35.353125" y="30">xmeld:type.Identifikation.Ereignis</text>
         <g transform="translate(216.390625,0)"/>
      </g>
      <line x1="33" y1="546" x2="55" y2="546" class="type-structure-required"/>
      <text font-size="11" fill="black" x="53" y="544" text-anchor="end"/>
      <line x1="33" y1="450" x2="33" y2="546" class="type-structure-required"/>
      <g transform="translate(55,576)">
         <rect width="224.109375" height="18" class="element-upper"/>
         <rect width="224.109375" height="18" y="18" class="element-lower"/>
         <text font-size="12" x="3.6" y="12" font-weight="bold">ursprungsnachricht</text>
         <line x1="0" y1="18" x2="224.109375" y2="18"/>
         <text font-size="12" fill="grey" x="3.6" y="30">type</text>
         <line x1="31.753125" y1="18" x2="31.753125" y2="36"/>
         <text font-size="12" x="35.353125" y="30">xmeld:type.Identifikation.Nachricht</text>
         <g transform="translate(224.109375,0)"/>
      </g>
      <line x1="33" y1="594" x2="55" y2="594" class="type-structure-required"/>
      <text font-size="11" fill="black" x="53" y="592" text-anchor="end"/>
      <line x1="33" y1="546" x2="33" y2="594" class="type-structure-required"/>
      <g transform="translate(55,624)">
         <rect width="197.03125" height="18" class="element-upper"/>
         <rect width="197.03125" height="18" y="18" class="element-lower"/>
         <text font-size="12" x="3.6" y="12" font-weight="bold">auskunftssperre</text>
         <line x1="0" y1="18" x2="197.03125" y2="18"/>
         <text font-size="12" fill="grey" x="3.6" y="30">type</text>
         <line x1="31.753125" y1="18" x2="31.753125" y2="36"/>
         <text font-size="12" x="35.353125" y="30">xmeld:Code.Auskunftssperre</text>
         <g transform="translate(197.03125,0)"/>
      </g>
      <line x1="33" y1="642" x2="55" y2="642" class="type-structure-optional"/>
      <text font-size="11" fill="black" x="53" y="640" text-anchor="end">0..*</text>
      <line x1="33" y1="594" x2="33" y2="642" class="type-structure-optional"/>
      <circle cx="15" cy="18" r="10" stroke="black" fill="rgb(251, 251, 251)"/>
      <line x1="0" y1="18" x2="5" y2="18" class="type-structure-required"/>
      <line x1="25" y1="18" x2="33" y2="18" class="type-structure-required"/>
      <circle cx="10" cy="18" r="1.2" stroke="black" fill="black"/>
      <circle cx="15" cy="18" r="1.2" stroke="black" fill="black"/>
      <circle cx="20" cy="18" r="1.2" stroke="black" fill="black"/>
      <line x1="7" y1="18" x2="23" y2="18"/>
   </g>
</svg>