<?xml version="1.0" encoding="UTF-8"?><svg xmlns="http://www.w3.org/2000/svg" width="418.390625" height="1294">
   <defs>
      <style type="text/css">
                        text {
                            font-family: 'Arial';
                            fill: black;
                        }
                        text.at {
                            font-family: 'Arial';
                            fill: rgb(242, 152, 0);
                        }
                        line {
                            stroke: black;
                        }
                        line.type-structure {
                            stroke: black;
                        }
                        line.type-structure-optional {
                            stroke: black;
                            stroke-dasharray: 4, 4;
                        }
                        rect.attribute-upper {
                            stroke: black;
                            fill: rgb(255, 239, 211);
                        }
                        rect.element-upper {
                            stroke: black;
                            fill: rgb(215, 227, 249);
                        }
                        rect.element-lower {
                            stroke: black;
                            fill: rgb(236, 242, 252);
                        }
                        a text {
                            fill: black;
                        } 
                    </style>
   </defs>
   <rect width="408.390625" height="1284" stroke-dasharray="3,3" rx="1" ry="1" style="stroke: grey;fill: white;"/>
   <text font-size="14" x="3.6" y="18" font-weight="bold">complexType type.Selbstauskunft.Personendaten</text>
   <g transform="translate(10,34)">
      <g transform="translate(55,0)">
         <rect width="305.390625" height="18" class="element-upper"/>
         <rect width="305.390625" height="18" y="18" class="element-lower"/>
         <text font-size="12" x="3.6" y="12" font-weight="bold">name</text>
         <line x1="0" y1="18" x2="305.390625" y2="18"/>
         <text font-size="12" fill="grey" x="3.6" y="30">type</text>
         <line x1="31.753125" y1="18" x2="31.753125" y2="36"/>
         <text font-size="12" x="35.353125" y="30">xmeld:type.NameNatuerlichePersonMitNachweis</text>
         <g transform="translate(305.390625,0)"/>
      </g>
      <line x1="33" y1="18" x2="55" y2="18" class="type-structure-required"/>
      <text font-size="11" fill="black" x="53" y="16" text-anchor="end"/>
      <line x1="33" y1="18" x2="33" y2="18" class="type-structure-required"/>
      <g transform="translate(55,48)">
         <rect width="205.390625" height="18" class="element-upper"/>
         <rect width="205.390625" height="18" y="18" class="element-lower"/>
         <text font-size="12" x="3.6" y="12" font-weight="bold">geburtsangaben</text>
         <line x1="0" y1="18" x2="205.390625" y2="18"/>
         <text font-size="12" fill="grey" x="3.6" y="30">type</text>
         <line x1="31.753125" y1="18" x2="31.753125" y2="36"/>
         <text font-size="12" x="35.353125" y="30">xmeld:type.GeburtMitNachweis</text>
         <g transform="translate(205.390625,0)"/>
      </g>
      <line x1="33" y1="66" x2="55" y2="66" class="type-structure-required"/>
      <text font-size="11" fill="black" x="53" y="64" text-anchor="end"/>
      <line x1="33" y1="18" x2="33" y2="66" class="type-structure-required"/>
      <g transform="translate(55,96)">
         <rect width="215.53437499999998" height="18" class="element-upper"/>
         <rect width="215.53437499999998" height="18" y="18" class="element-lower"/>
         <text font-size="12" x="3.6" y="12" font-weight="bold">geburtseintragOhneGeburtsurkunde</text>
         <line x1="0" y1="18" x2="215.53437499999998" y2="18"/>
         <text font-size="12" fill="grey" x="3.6" y="30">type</text>
         <line x1="31.753125" y1="18" x2="31.753125" y2="36"/>
         <text font-size="12" x="35.353125" y="30">xs:boolean</text>
         <g transform="translate(215.53437499999998,0)"/>
      </g>
      <line x1="33" y1="114" x2="55" y2="114" class="type-structure-optional"/>
      <text font-size="11" fill="black" x="53" y="112" text-anchor="end">0..1</text>
      <line x1="33" y1="66" x2="33" y2="114" class="type-structure-required"/>
      <g transform="translate(55,144)">
         <rect width="152.109375" height="18" class="element-upper"/>
         <rect width="152.109375" height="18" y="18" class="element-lower"/>
         <text font-size="12" x="3.6" y="12" font-weight="bold">geschlecht</text>
         <line x1="0" y1="18" x2="152.109375" y2="18"/>
         <text font-size="12" fill="grey" x="3.6" y="30">type</text>
         <line x1="31.753125" y1="18" x2="31.753125" y2="36"/>
         <text font-size="12" x="35.353125" y="30">xig:Code.Geschlecht</text>
         <g transform="translate(152.109375,0)"/>
      </g>
      <line x1="33" y1="162" x2="55" y2="162" class="type-structure-required"/>
      <text font-size="11" fill="black" x="53" y="160" text-anchor="end"/>
      <line x1="33" y1="114" x2="33" y2="162" class="type-structure-required"/>
      <g transform="translate(55,192)">
         <rect width="225.109375" height="18" class="element-upper"/>
         <rect width="225.109375" height="18" y="18" class="element-lower"/>
         <text font-size="12" x="3.6" y="12" font-weight="bold">staatsangehoerigkeit</text>
         <line x1="0" y1="18" x2="225.109375" y2="18"/>
         <text font-size="12" fill="grey" x="3.6" y="30">type</text>
         <line x1="31.753125" y1="18" x2="31.753125" y2="36"/>
         <text font-size="12" x="35.353125" y="30">xmeld:Code.Staatsangehoerigkeit</text>
         <g transform="translate(225.109375,0)"/>
      </g>
      <line x1="33" y1="210" x2="55" y2="210" class="type-structure-required"/>
      <text font-size="11" fill="black" x="53" y="208" text-anchor="end">1..4</text>
      <line x1="33" y1="162" x2="33" y2="210" class="type-structure-required"/>
      <g transform="translate(55,240)">
         <rect width="323.734375" height="18" class="element-upper"/>
         <rect width="323.734375" height="18" y="18" class="element-lower"/>
         <text font-size="12" x="3.6" y="12" font-weight="bold">staatsangehoerigkeit.glaubhaftmachung</text>
         <line x1="0" y1="18" x2="323.734375" y2="18"/>
         <text font-size="12" fill="grey" x="3.6" y="30">type</text>
         <line x1="31.753125" y1="18" x2="31.753125" y2="36"/>
         <text font-size="12" x="35.353125" y="30">xmeld:type.Staatsangehoerigkeit.Glaubhaftmachung</text>
         <g transform="translate(323.734375,0)"/>
      </g>
      <line x1="33" y1="258" x2="55" y2="258" class="type-structure-optional"/>
      <text font-size="11" fill="black" x="53" y="256" text-anchor="end">0..2</text>
      <line x1="33" y1="210" x2="33" y2="258" class="type-structure-required"/>
      <g transform="translate(55,288)">
         <rect width="196.078125" height="18" class="element-upper"/>
         <rect width="196.078125" height="18" y="18" class="element-lower"/>
         <text font-size="12" x="3.6" y="12" font-weight="bold">religionszugehoerigkeit</text>
         <line x1="0" y1="18" x2="196.078125" y2="18"/>
         <text font-size="12" fill="grey" x="3.6" y="30">type</text>
         <line x1="31.753125" y1="18" x2="31.753125" y2="36"/>
         <text font-size="12" x="35.353125" y="30">xmeld:type.ReligionMitDatum</text>
         <g transform="translate(196.078125,0)"/>
      </g>
      <line x1="33" y1="306" x2="55" y2="306" class="type-structure-required"/>
      <text font-size="11" fill="black" x="53" y="304" text-anchor="end"/>
      <line x1="33" y1="258" x2="33" y2="306" class="type-structure-required"/>
      <g transform="translate(55,336)">
         <rect width="236.734375" height="18" class="element-upper"/>
         <rect width="236.734375" height="18" y="18" class="element-lower"/>
         <text font-size="12" x="3.6" y="12" font-weight="bold">wohnung</text>
         <line x1="0" y1="18" x2="236.734375" y2="18"/>
         <text font-size="12" fill="grey" x="3.6" y="30">type</text>
         <line x1="31.753125" y1="18" x2="31.753125" y2="36"/>
         <text font-size="12" x="35.353125" y="30">xmeld:type.Selbstauskunft.Wohnung</text>
         <g transform="translate(236.734375,0)"/>
      </g>
      <line x1="33" y1="354" x2="55" y2="354" class="type-structure-required"/>
      <text font-size="11" fill="black" x="53" y="352" text-anchor="end">1..*</text>
      <line x1="33" y1="306" x2="33" y2="354" class="type-structure-required"/>
      <g transform="translate(55,384)">
         <rect width="132.078125" height="18" class="element-upper"/>
         <rect width="132.078125" height="18" y="18" class="element-lower"/>
         <text font-size="12" x="3.6" y="12" font-weight="bold">zuzugBund</text>
         <line x1="0" y1="18" x2="132.078125" y2="18"/>
         <text font-size="12" fill="grey" x="3.6" y="30">type</text>
         <line x1="31.753125" y1="18" x2="31.753125" y2="36"/>
         <text font-size="12" x="35.353125" y="30">xida:Tagesdatum</text>
         <g transform="translate(132.078125,0)"/>
      </g>
      <line x1="33" y1="402" x2="55" y2="402" class="type-structure-optional"/>
      <text font-size="11" fill="black" x="53" y="400" text-anchor="end">0..1</text>
      <line x1="33" y1="354" x2="33" y2="402" class="type-structure-required"/>
      <g transform="translate(55,432)">
         <rect width="132.078125" height="18" class="element-upper"/>
         <rect width="132.078125" height="18" y="18" class="element-lower"/>
         <text font-size="12" x="3.6" y="12" font-weight="bold">zuzugLand</text>
         <line x1="0" y1="18" x2="132.078125" y2="18"/>
         <text font-size="12" fill="grey" x="3.6" y="30">type</text>
         <line x1="31.753125" y1="18" x2="31.753125" y2="36"/>
         <text font-size="12" x="35.353125" y="30">xida:Tagesdatum</text>
         <g transform="translate(132.078125,0)"/>
      </g>
      <line x1="33" y1="450" x2="55" y2="450" class="type-structure-optional"/>
      <text font-size="11" fill="black" x="53" y="448" text-anchor="end">0..1</text>
      <line x1="33" y1="402" x2="33" y2="450" class="type-structure-required"/>
      <g transform="translate(55,480)">
         <rect width="132.078125" height="18" class="element-upper"/>
         <rect width="132.078125" height="18" y="18" class="element-lower"/>
         <text font-size="12" x="3.6" y="12" font-weight="bold">zuzugKreis</text>
         <line x1="0" y1="18" x2="132.078125" y2="18"/>
         <text font-size="12" fill="grey" x="3.6" y="30">type</text>
         <line x1="31.753125" y1="18" x2="31.753125" y2="36"/>
         <text font-size="12" x="35.353125" y="30">xida:Tagesdatum</text>
         <g transform="translate(132.078125,0)"/>
      </g>
      <line x1="33" y1="498" x2="55" y2="498" class="type-structure-optional"/>
      <text font-size="11" fill="black" x="53" y="496" text-anchor="end">0..1</text>
      <line x1="33" y1="450" x2="33" y2="498" class="type-structure-required"/>
      <g transform="translate(55,528)">
         <rect width="132.078125" height="18" class="element-upper"/>
         <rect width="132.078125" height="18" y="18" class="element-lower"/>
         <text font-size="12" x="3.6" y="12" font-weight="bold">zuzugGemeinde</text>
         <line x1="0" y1="18" x2="132.078125" y2="18"/>
         <text font-size="12" fill="grey" x="3.6" y="30">type</text>
         <line x1="31.753125" y1="18" x2="31.753125" y2="36"/>
         <text font-size="12" x="35.353125" y="30">xida:Tagesdatum</text>
         <g transform="translate(132.078125,0)"/>
      </g>
      <line x1="33" y1="546" x2="55" y2="546" class="type-structure-optional"/>
      <text font-size="11" fill="black" x="53" y="544" text-anchor="end">0..1</text>
      <line x1="33" y1="498" x2="33" y2="546" class="type-structure-required"/>
      <g transform="translate(55,576)">
         <rect width="247.390625" height="18" class="element-upper"/>
         <rect width="247.390625" height="18" y="18" class="element-lower"/>
         <text font-size="12" x="3.6" y="12" font-weight="bold">familienstand</text>
         <line x1="0" y1="18" x2="247.390625" y2="18"/>
         <text font-size="12" fill="grey" x="3.6" y="30">type</text>
         <line x1="31.753125" y1="18" x2="31.753125" y2="36"/>
         <text font-size="12" x="35.353125" y="30">xmeld:type.FamilienstandMitNachweis</text>
         <g transform="translate(247.390625,0)"/>
      </g>
      <line x1="33" y1="594" x2="55" y2="594" class="type-structure-required"/>
      <text font-size="11" fill="black" x="53" y="592" text-anchor="end"/>
      <line x1="33" y1="546" x2="33" y2="594" class="type-structure-required"/>
      <g transform="translate(55,624)">
         <rect width="202.109375" height="18" class="element-upper"/>
         <rect width="202.109375" height="18" y="18" class="element-lower"/>
         <text font-size="12" x="3.6" y="12" font-weight="bold">ausweisdokument</text>
         <line x1="0" y1="18" x2="202.109375" y2="18"/>
         <text font-size="12" fill="grey" x="3.6" y="30">type</text>
         <line x1="31.753125" y1="18" x2="31.753125" y2="36"/>
         <text font-size="12" x="35.353125" y="30">xmeld:type.Ausweisdokument</text>
         <g transform="translate(202.109375,0)"/>
      </g>
      <line x1="33" y1="642" x2="55" y2="642" class="type-structure-required"/>
      <text font-size="11" fill="black" x="53" y="640" text-anchor="end">1..*</text>
      <line x1="33" y1="594" x2="33" y2="642" class="type-structure-required"/>
      <g transform="translate(55,672)">
         <rect width="134.015625" height="18" class="element-upper"/>
         <rect width="134.015625" height="18" y="18" class="element-lower"/>
         <text font-size="12" x="3.6" y="12" font-weight="bold">azrNummer</text>
         <line x1="0" y1="18" x2="134.015625" y2="18"/>
         <text font-size="12" fill="grey" x="3.6" y="30">type</text>
         <line x1="31.753125" y1="18" x2="31.753125" y2="36"/>
         <text font-size="12" x="35.353125" y="30">xiaz:AZRNummer</text>
         <g transform="translate(134.015625,0)"/>
      </g>
      <line x1="33" y1="690" x2="55" y2="690" class="type-structure-optional"/>
      <text font-size="11" fill="black" x="53" y="688" text-anchor="end">0..1</text>
      <line x1="33" y1="642" x2="33" y2="690" class="type-structure-optional"/>
      <g transform="translate(55,720)">
         <rect width="116.89375" height="18" class="element-upper"/>
         <rect width="116.89375" height="18" y="18" class="element-lower"/>
         <text font-size="12" x="3.6" y="12" font-weight="bold">azrKommunikation</text>
         <line x1="0" y1="18" x2="116.89375" y2="18"/>
         <text font-size="12" fill="grey" x="3.6" y="30">type</text>
         <line x1="31.753125" y1="18" x2="31.753125" y2="36"/>
         <text font-size="12" x="35.353125" y="30">xs:boolean</text>
         <g transform="translate(116.89375,0)"/>
      </g>
      <line x1="33" y1="738" x2="55" y2="738" class="type-structure-optional"/>
      <text font-size="11" fill="black" x="53" y="736" text-anchor="end">0..1</text>
      <line x1="33" y1="690" x2="33" y2="738" class="type-structure-optional"/>
      <g transform="translate(55,768)">
         <rect width="213.89374999999998" height="18" class="element-upper"/>
         <rect width="213.89374999999998" height="18" y="18" class="element-lower"/>
         <text font-size="12" x="3.6" y="12" font-weight="bold">auskunftsUndUebermittlungsperren</text>
         <line x1="0" y1="18" x2="213.89374999999998" y2="18"/>
         <text font-size="12" fill="grey" x="3.6" y="30">type</text>
         <line x1="31.753125" y1="18" x2="31.753125" y2="36"/>
         <text font-size="12" x="35.353125" y="30">xmeld:type.Auskunftssperre</text>
         <g transform="translate(213.89374999999998,0)"/>
      </g>
      <line x1="33" y1="786" x2="55" y2="786" class="type-structure-optional"/>
      <text font-size="11" fill="black" x="53" y="784" text-anchor="end">0..*</text>
      <line x1="33" y1="738" x2="33" y2="786" class="type-structure-optional"/>
      <g transform="translate(55,816)">
         <rect width="261.390625" height="18" class="element-upper"/>
         <rect width="261.390625" height="18" y="18" class="element-lower"/>
         <text font-size="12" x="3.6" y="12" font-weight="bold">wahlausschluss</text>
         <line x1="0" y1="18" x2="261.390625" y2="18"/>
         <text font-size="12" fill="grey" x="3.6" y="30">type</text>
         <line x1="31.753125" y1="18" x2="31.753125" y2="36"/>
         <text font-size="12" x="35.353125" y="30">xmeld:type.WahlausschlussMitNachweis</text>
         <g transform="translate(261.390625,0)"/>
      </g>
      <line x1="33" y1="834" x2="55" y2="834" class="type-structure-optional"/>
      <text font-size="11" fill="black" x="53" y="832" text-anchor="end">0..*</text>
      <line x1="33" y1="786" x2="33" y2="834" class="type-structure-optional"/>
      <g transform="translate(55,864)">
         <rect width="183.015625" height="18" class="element-upper"/>
         <rect width="183.015625" height="18" y="18" class="element-lower"/>
         <text font-size="12" x="3.6" y="12" font-weight="bold">unionsbuerger</text>
         <line x1="0" y1="18" x2="183.015625" y2="18"/>
         <text font-size="12" fill="grey" x="3.6" y="30">type</text>
         <line x1="31.753125" y1="18" x2="31.753125" y2="36"/>
         <text font-size="12" x="35.353125" y="30">xmeld:type.Unionsbuerger</text>
         <g transform="translate(183.015625,0)"/>
      </g>
      <line x1="33" y1="882" x2="55" y2="882" class="type-structure-optional"/>
      <text font-size="11" fill="black" x="53" y="880" text-anchor="end">0..1</text>
      <line x1="33" y1="834" x2="33" y2="882" class="type-structure-optional"/>
      <g transform="translate(55,912)">
         <rect width="203.703125" height="18" class="element-upper"/>
         <rect width="203.703125" height="18" y="18" class="element-lower"/>
         <text font-size="12" x="3.6" y="12" font-weight="bold">steueridentifikation</text>
         <line x1="0" y1="18" x2="203.703125" y2="18"/>
         <text font-size="12" fill="grey" x="3.6" y="30">type</text>
         <line x1="31.753125" y1="18" x2="31.753125" y2="36"/>
         <text font-size="12" x="35.353125" y="30">xmeld:type.Steueridentifikation</text>
         <g transform="translate(203.703125,0)"/>
      </g>
      <line x1="33" y1="930" x2="55" y2="930" class="type-structure-optional"/>
      <text font-size="11" fill="black" x="53" y="928" text-anchor="end">0..1</text>
      <line x1="33" y1="882" x2="33" y2="930" class="type-structure-optional"/>
      <g transform="translate(55,960)">
         <rect width="255.390625" height="18" class="element-upper"/>
         <rect width="255.390625" height="18" y="18" class="element-lower"/>
         <text font-size="12" x="3.6" y="12" font-weight="bold">passversagung</text>
         <line x1="0" y1="18" x2="255.390625" y2="18"/>
         <text font-size="12" fill="grey" x="3.6" y="30">type</text>
         <line x1="31.753125" y1="18" x2="31.753125" y2="36"/>
         <text font-size="12" x="35.353125" y="30">xmeld:type.PassversagungMitNachweis</text>
         <g transform="translate(255.390625,0)"/>
      </g>
      <line x1="33" y1="978" x2="55" y2="978" class="type-structure-optional"/>
      <text font-size="11" fill="black" x="53" y="976" text-anchor="end">0..*</text>
      <line x1="33" y1="930" x2="33" y2="978" class="type-structure-optional"/>
      <g transform="translate(55,1008)">
         <rect width="198.015625" height="18" class="element-upper"/>
         <rect width="198.015625" height="18" y="18" class="element-lower"/>
         <text font-size="12" x="3.6" y="12" font-weight="bold">optionsdeutscher</text>
         <line x1="0" y1="18" x2="198.015625" y2="18"/>
         <text font-size="12" fill="grey" x="3.6" y="30">type</text>
         <line x1="31.753125" y1="18" x2="31.753125" y2="36"/>
         <text font-size="12" x="35.353125" y="30">xmeld:type.Optionsdeutscher</text>
         <g transform="translate(198.015625,0)"/>
      </g>
      <line x1="33" y1="1026" x2="55" y2="1026" class="type-structure-optional"/>
      <text font-size="11" fill="black" x="53" y="1024" text-anchor="end">0..1</text>
      <line x1="33" y1="978" x2="33" y2="1026" class="type-structure-optional"/>
      <g transform="translate(55,1056)">
         <rect width="312.390625" height="18" class="element-upper"/>
         <rect width="312.390625" height="18" y="18" class="element-lower"/>
         <text font-size="12" x="3.6" y="12" font-weight="bold">waffenrechtlicheErlaubnis</text>
         <line x1="0" y1="18" x2="312.390625" y2="18"/>
         <text font-size="12" fill="grey" x="3.6" y="30">type</text>
         <line x1="31.753125" y1="18" x2="31.753125" y2="36"/>
         <text font-size="12" x="35.353125" y="30">xmeld:type.WaffenrechtlicheErlaubnisMitNachweis</text>
         <g transform="translate(312.390625,0)"/>
      </g>
      <line x1="33" y1="1074" x2="55" y2="1074" class="type-structure-optional"/>
      <text font-size="11" fill="black" x="53" y="1072" text-anchor="end">0..*</text>
      <line x1="33" y1="1026" x2="33" y2="1074" class="type-structure-optional"/>
      <g transform="translate(55,1104)">
         <rect width="271.390625" height="18" class="element-upper"/>
         <rect width="271.390625" height="18" y="18" class="element-lower"/>
         <text font-size="12" x="3.6" y="12" font-weight="bold">waffenbesitzverbot</text>
         <line x1="0" y1="18" x2="271.390625" y2="18"/>
         <text font-size="12" fill="grey" x="3.6" y="30">type</text>
         <line x1="31.753125" y1="18" x2="31.753125" y2="36"/>
         <text font-size="12" x="35.353125" y="30">xmeld:type.WaffenbesitzverbotMitNachweis</text>
         <g transform="translate(271.390625,0)"/>
      </g>
      <line x1="33" y1="1122" x2="55" y2="1122" class="type-structure-optional"/>
      <text font-size="11" fill="black" x="53" y="1120" text-anchor="end">0..*</text>
      <line x1="33" y1="1074" x2="33" y2="1122" class="type-structure-optional"/>
      <g transform="translate(55,1152)">
         <rect width="337.390625" height="18" class="element-upper"/>
         <rect width="337.390625" height="18" y="18" class="element-lower"/>
         <text font-size="12" x="3.6" y="12" font-weight="bold">sprengstoffrechtlicheErlaubnis</text>
         <line x1="0" y1="18" x2="337.390625" y2="18"/>
         <text font-size="12" fill="grey" x="3.6" y="30">type</text>
         <line x1="31.753125" y1="18" x2="31.753125" y2="36"/>
         <text font-size="12" x="35.353125" y="30">xmeld:type.SprengstoffrechtlicheErlaubnisMitNachweis</text>
         <g transform="translate(337.390625,0)"/>
      </g>
      <line x1="33" y1="1170" x2="55" y2="1170" class="type-structure-optional"/>
      <text font-size="11" fill="black" x="53" y="1168" text-anchor="end">0..*</text>
      <line x1="33" y1="1122" x2="33" y2="1170" class="type-structure-optional"/>
      <g transform="translate(55,1200)">
         <rect width="190.6875" height="18" class="element-upper"/>
         <rect width="190.6875" height="18" y="18" class="element-lower"/>
         <text font-size="12" x="3.6" y="12" font-weight="bold">verteidigungsfall</text>
         <line x1="0" y1="18" x2="190.6875" y2="18"/>
         <text font-size="12" fill="grey" x="3.6" y="30">type</text>
         <line x1="31.753125" y1="18" x2="31.753125" y2="36"/>
         <text font-size="12" x="35.353125" y="30">xmeld:type.Verteidigungsfall</text>
         <g transform="translate(190.6875,0)"/>
      </g>
      <line x1="33" y1="1218" x2="55" y2="1218" class="type-structure-optional"/>
      <text font-size="11" fill="black" x="53" y="1216" text-anchor="end">0..1</text>
      <line x1="33" y1="1170" x2="33" y2="1218" class="type-structure-optional"/>
      <circle cx="15" cy="18" r="10" stroke="black" fill="rgb(251, 251, 251)"/>
      <line x1="0" y1="18" x2="5" y2="18" class="type-structure-required"/>
      <line x1="25" y1="18" x2="33" y2="18" class="type-structure-required"/>
      <circle cx="10" cy="18" r="1.2" stroke="black" fill="black"/>
      <circle cx="15" cy="18" r="1.2" stroke="black" fill="black"/>
      <circle cx="20" cy="18" r="1.2" stroke="black" fill="black"/>
      <line x1="7" y1="18" x2="23" y2="18"/>
   </g>
</svg>