<?xml version="1.0" encoding="UTF-8"?><svg xmlns="http://www.w3.org/2000/svg" width="594.14375" height="1114">
   <defs>
      <style type="text/css">
                        text {
                            font-family: 'Arial';
                            fill: black;
                        }
                        text.at {
                            font-family: 'Arial';
                            fill: rgb(242, 152, 0);
                        }
                        line {
                            stroke: black;
                        }
                        line.type-structure {
                            stroke: black;
                        }
                        line.type-structure-optional {
                            stroke: black;
                            stroke-dasharray: 4, 4;
                        }
                        rect.attribute-upper {
                            stroke: black;
                            fill: rgb(255, 239, 211);
                        }
                        rect.element-upper {
                            stroke: black;
                            fill: rgb(215, 227, 249);
                        }
                        rect.element-lower {
                            stroke: black;
                            fill: rgb(236, 242, 252);
                        }
                        a text {
                            fill: black;
                        } 
                    </style>
   </defs>
   <rect width="584.14375" height="1104" stroke-dasharray="3,3" rx="1" ry="1" style="stroke: grey;fill: white;"/>
   <text font-size="14" x="3.6" y="18" font-weight="bold">element kirche.fortschreibung.1601 (anonymous type)</text>
   <text font-size="12" x="3.6" y="34.8"> (extension of xmeld:type.Nachricht.G2G)</text>
   <g transform="translate(10,46)">
      <g transform="translate(55,0)">
         <rect width="247.671875" height="18" class="element-upper"/>
         <rect width="247.671875" height="18" y="18" class="element-lower"/>
         <text font-size="12" x="3.6" y="12" font-weight="bold">identifikation</text>
         <line x1="0" y1="18" x2="247.671875" y2="18"/>
         <text font-size="12" fill="grey" x="3.6" y="30">type</text>
         <line x1="31.753125" y1="18" x2="31.753125" y2="36"/>
         <text font-size="12" x="35.353125" y="30">xmeld:type.Kirche.IdentifikationMitglied</text>
         <g transform="translate(247.671875,0)"/>
      </g>
      <line x1="33" y1="18" x2="55" y2="18" class="type-structure-required"/>
      <text font-size="11" fill="black" x="53" y="16" text-anchor="end"/>
      <line x1="33" y1="18" x2="33" y2="18" class="type-structure-required"/>
      <g transform="translate(55,48)">
         <rect width="216.390625" height="18" class="element-upper"/>
         <rect width="216.390625" height="18" y="18" class="element-lower"/>
         <text font-size="12" x="3.6" y="12" font-weight="bold">identifikation.ereignis</text>
         <line x1="0" y1="18" x2="216.390625" y2="18"/>
         <text font-size="12" fill="grey" x="3.6" y="30">type</text>
         <line x1="31.753125" y1="18" x2="31.753125" y2="36"/>
         <text font-size="12" x="35.353125" y="30">xmeld:type.Identifikation.Ereignis</text>
         <g transform="translate(216.390625,0)"/>
      </g>
      <line x1="33" y1="66" x2="55" y2="66" class="type-structure-required"/>
      <text font-size="11" fill="black" x="53" y="64" text-anchor="end"/>
      <line x1="33" y1="18" x2="33" y2="66" class="type-structure-required"/>
      <g transform="translate(55,96)">
         <rect width="311.03125" height="18" class="element-upper"/>
         <rect width="311.03125" height="18" y="18" class="element-lower"/>
         <text font-size="12" x="3.6" y="12" font-weight="bold">anlass</text>
         <line x1="0" y1="18" x2="311.03125" y2="18"/>
         <text font-size="12" fill="grey" x="3.6" y="30">type</text>
         <line x1="31.753125" y1="18" x2="31.753125" y2="36"/>
         <text font-size="12" x="35.353125" y="30">xmeld:Code.XMeld.Datenuebermittlungsanlaesse</text>
         <g transform="translate(311.03125,0)"/>
      </g>
      <line x1="33" y1="114" x2="55" y2="114" class="type-structure-required"/>
      <text font-size="11" fill="black" x="53" y="112" text-anchor="end"/>
      <line x1="33" y1="66" x2="33" y2="114" class="type-structure-required"/>
      <g transform="translate(55,144)">
         <rect width="235.703125" height="18" class="element-upper"/>
         <rect width="235.703125" height="18" y="18" class="element-lower"/>
         <text font-size="12" x="3.6" y="12" font-weight="bold">name</text>
         <line x1="0" y1="18" x2="235.703125" y2="18"/>
         <text font-size="12" fill="grey" x="3.6" y="30">type</text>
         <line x1="31.753125" y1="18" x2="31.753125" y2="36"/>
         <text font-size="12" x="35.353125" y="30">xmeld:type.NameNatuerlichePerson</text>
         <g transform="translate(235.703125,0)"/>
      </g>
      <line x1="33" y1="162" x2="55" y2="162" class="type-structure-required"/>
      <text font-size="11" fill="black" x="53" y="160" text-anchor="end"/>
      <line x1="33" y1="114" x2="33" y2="162" class="type-structure-required"/>
      <g transform="translate(55,192)">
         <rect width="137.109375" height="18" class="element-upper"/>
         <rect width="137.109375" height="18" y="18" class="element-lower"/>
         <text font-size="12" x="3.6" y="12" font-weight="bold">geburt</text>
         <line x1="0" y1="18" x2="137.109375" y2="18"/>
         <text font-size="12" fill="grey" x="3.6" y="30">type</text>
         <line x1="31.753125" y1="18" x2="31.753125" y2="36"/>
         <text font-size="12" x="35.353125" y="30">xmeld:type.Geburt</text>
         <g transform="translate(137.109375,0)"/>
      </g>
      <line x1="33" y1="210" x2="55" y2="210" class="type-structure-required"/>
      <text font-size="11" fill="black" x="53" y="208" text-anchor="end"/>
      <line x1="33" y1="162" x2="33" y2="210" class="type-structure-required"/>
      <g transform="translate(55,240)">
         <rect width="132.12812499999998" height="18" class="element-upper"/>
         <rect width="132.12812499999998" height="18" y="18" class="element-lower"/>
         <text font-size="12" x="3.6" y="12" font-weight="bold">gesetzlicherVertreter</text>
         <line x1="0" y1="18" x2="132.12812499999998" y2="18"/>
         <text font-size="12" fill="grey" x="3.6" y="30">type</text>
         <line x1="31.753125" y1="18" x2="31.753125" y2="36"/>
         <g transform="translate(132.12812499999998,0)">
            <g transform="translate(55,0)">
               <rect width="321.015625" height="18" class="element-upper"/>
               <rect width="321.015625" height="18" y="18" class="element-lower"/>
               <text font-size="12" x="3.6" y="12" font-weight="bold">identifikation</text>
               <line x1="0" y1="18" x2="321.015625" y2="18"/>
               <text font-size="12" fill="grey" x="3.6" y="30">type</text>
               <line x1="31.753125" y1="18" x2="31.753125" y2="36"/>
               <text font-size="12" x="35.353125" y="30">xmeld:type.Kirche.IdentifikationGesetzlicherVertreter</text>
               <g transform="translate(321.015625,0)"/>
            </g>
            <line x1="33" y1="18" x2="55" y2="18" class="type-structure-required"/>
            <text font-size="11" fill="black" x="53" y="16" text-anchor="end"/>
            <line x1="33" y1="18" x2="33" y2="18" class="type-structure-required"/>
            <g transform="translate(55,48)">
               <rect width="252.015625" height="18" class="element-upper"/>
               <rect width="252.015625" height="18" y="18" class="element-lower"/>
               <text font-size="12" x="3.6" y="12" font-weight="bold">personendaten</text>
               <line x1="0" y1="18" x2="252.015625" y2="18"/>
               <text font-size="12" fill="grey" x="3.6" y="30">type</text>
               <line x1="31.753125" y1="18" x2="31.753125" y2="36"/>
               <text font-size="12" x="35.353125" y="30">xmeld:type.Kirche.GesetzlicherVertreter</text>
               <g transform="translate(252.015625,0)"/>
            </g>
            <line x1="33" y1="66" x2="55" y2="66" class="type-structure-required"/>
            <text font-size="11" fill="black" x="53" y="64" text-anchor="end"/>
            <line x1="33" y1="18" x2="33" y2="66" class="type-structure-required"/>
            <circle cx="15" cy="18" r="10" stroke="black" fill="rgb(251, 251, 251)"/>
            <line x1="0" y1="18" x2="5" y2="18" class="type-structure-required"/>
            <line x1="25" y1="18" x2="33" y2="18" class="type-structure-required"/>
            <circle cx="10" cy="18" r="1.2" stroke="black" fill="black"/>
            <circle cx="15" cy="18" r="1.2" stroke="black" fill="black"/>
            <circle cx="20" cy="18" r="1.2" stroke="black" fill="black"/>
            <line x1="7" y1="18" x2="23" y2="18"/>
         </g>
      </g>
      <line x1="33" y1="258" x2="55" y2="258" class="type-structure-optional"/>
      <text font-size="11" fill="black" x="53" y="256" text-anchor="end">0..4</text>
      <line x1="33" y1="210" x2="33" y2="258" class="type-structure-required"/>
      <g transform="translate(55,336)">
         <rect width="152.109375" height="18" class="element-upper"/>
         <rect width="152.109375" height="18" y="18" class="element-lower"/>
         <text font-size="12" x="3.6" y="12" font-weight="bold">geschlecht</text>
         <line x1="0" y1="18" x2="152.109375" y2="18"/>
         <text font-size="12" fill="grey" x="3.6" y="30">type</text>
         <line x1="31.753125" y1="18" x2="31.753125" y2="36"/>
         <text font-size="12" x="35.353125" y="30">xig:Code.Geschlecht</text>
         <g transform="translate(152.109375,0)"/>
      </g>
      <line x1="33" y1="354" x2="55" y2="354" class="type-structure-required"/>
      <text font-size="11" fill="black" x="53" y="352" text-anchor="end"/>
      <line x1="33" y1="258" x2="33" y2="354" class="type-structure-required"/>
      <g transform="translate(55,384)">
         <rect width="225.109375" height="18" class="element-upper"/>
         <rect width="225.109375" height="18" y="18" class="element-lower"/>
         <text font-size="12" x="3.6" y="12" font-weight="bold">staatsangehoerigkeit</text>
         <line x1="0" y1="18" x2="225.109375" y2="18"/>
         <text font-size="12" fill="grey" x="3.6" y="30">type</text>
         <line x1="31.753125" y1="18" x2="31.753125" y2="36"/>
         <text font-size="12" x="35.353125" y="30">xmeld:Code.Staatsangehoerigkeit</text>
         <g transform="translate(225.109375,0)"/>
      </g>
      <line x1="33" y1="402" x2="55" y2="402" class="type-structure-required"/>
      <text font-size="11" fill="black" x="53" y="400" text-anchor="end">1..4</text>
      <line x1="33" y1="354" x2="33" y2="402" class="type-structure-required"/>
      <g transform="translate(55,432)">
         <rect width="144.703125" height="18" class="element-upper"/>
         <rect width="144.703125" height="18" y="18" class="element-lower"/>
         <text font-size="12" x="3.6" y="12" font-weight="bold">religion</text>
         <line x1="0" y1="18" x2="144.703125" y2="18"/>
         <text font-size="12" fill="grey" x="3.6" y="30">type</text>
         <line x1="31.753125" y1="18" x2="31.753125" y2="36"/>
         <text font-size="12" x="35.353125" y="30">xmeld:type.Religion</text>
         <g transform="translate(144.703125,0)"/>
      </g>
      <line x1="33" y1="450" x2="55" y2="450" class="type-structure-required"/>
      <text font-size="11" fill="black" x="53" y="448" text-anchor="end"/>
      <line x1="33" y1="402" x2="33" y2="450" class="type-structure-required"/>
      <g transform="translate(55,480)">
         <rect width="231.671875" height="18" class="element-upper"/>
         <rect width="231.671875" height="18" y="18" class="element-lower"/>
         <text font-size="12" x="3.6" y="12" font-weight="bold">aktuelleWohnung</text>
         <line x1="0" y1="18" x2="231.671875" y2="18"/>
         <text font-size="12" fill="grey" x="3.6" y="30">type</text>
         <line x1="31.753125" y1="18" x2="31.753125" y2="36"/>
         <text font-size="12" x="35.353125" y="30">xmeld:type.Kirche.WohnungMitglied</text>
         <g transform="translate(231.671875,0)"/>
      </g>
      <line x1="33" y1="498" x2="55" y2="498" class="type-structure-required"/>
      <text font-size="11" fill="black" x="53" y="496" text-anchor="end">1..*</text>
      <line x1="33" y1="450" x2="33" y2="498" class="type-structure-required"/>
      <g transform="translate(55,528)">
         <rect width="132.078125" height="18" class="element-upper"/>
         <rect width="132.078125" height="18" y="18" class="element-lower"/>
         <text font-size="12" x="3.6" y="12" font-weight="bold">zuzugGemeinde</text>
         <line x1="0" y1="18" x2="132.078125" y2="18"/>
         <text font-size="12" fill="grey" x="3.6" y="30">type</text>
         <line x1="31.753125" y1="18" x2="31.753125" y2="36"/>
         <text font-size="12" x="35.353125" y="30">xida:Tagesdatum</text>
         <g transform="translate(132.078125,0)"/>
      </g>
      <line x1="33" y1="546" x2="55" y2="546" class="type-structure-optional"/>
      <text font-size="11" fill="black" x="53" y="544" text-anchor="end">0..1</text>
      <line x1="33" y1="498" x2="33" y2="546" class="type-structure-required"/>
      <g transform="translate(55,576)">
         <rect width="215.671875" height="18" class="element-upper"/>
         <rect width="215.671875" height="18" y="18" class="element-lower"/>
         <text font-size="12" x="3.6" y="12" font-weight="bold">familienstand</text>
         <line x1="0" y1="18" x2="215.671875" y2="18"/>
         <text font-size="12" fill="grey" x="3.6" y="30">type</text>
         <line x1="31.753125" y1="18" x2="31.753125" y2="36"/>
         <text font-size="12" x="35.353125" y="30">xmeld:type.Kirche.Familienstand</text>
         <g transform="translate(215.671875,0)"/>
      </g>
      <line x1="33" y1="594" x2="55" y2="594" class="type-structure-required"/>
      <text font-size="11" fill="black" x="53" y="592" text-anchor="end"/>
      <line x1="33" y1="546" x2="33" y2="594" class="type-structure-required"/>
      <g transform="translate(55,624)">
         <rect width="174.20624999999998" height="18" class="element-upper"/>
         <rect width="174.20624999999998" height="18" y="18" class="element-lower"/>
         <text font-size="12" x="3.6" y="12" font-weight="bold">anzahlMinderjaehrigerKinder</text>
         <line x1="0" y1="18" x2="174.20624999999998" y2="18"/>
         <text font-size="12" fill="grey" x="3.6" y="30">type</text>
         <line x1="31.753125" y1="18" x2="31.753125" y2="36"/>
         <text font-size="12" x="35.353125" y="30">xs:nonNegativeInteger</text>
         <g transform="translate(174.20624999999998,0)"/>
      </g>
      <line x1="33" y1="642" x2="55" y2="642" class="type-structure-required"/>
      <text font-size="11" fill="black" x="53" y="640" text-anchor="end"/>
      <line x1="33" y1="594" x2="33" y2="642" class="type-structure-required"/>
      <g transform="translate(55,672)">
         <rect width="153.20624999999998" height="18" class="element-upper"/>
         <rect width="153.20624999999998" height="18" y="18" class="element-lower"/>
         <text font-size="12" x="3.6" y="12" font-weight="bold">auskunftssperreLiegtVor</text>
         <line x1="0" y1="18" x2="153.20624999999998" y2="18"/>
         <text font-size="12" fill="grey" x="3.6" y="30">type</text>
         <line x1="31.753125" y1="18" x2="31.753125" y2="36"/>
         <text font-size="12" x="35.353125" y="30">xs:boolean</text>
         <g transform="translate(153.20624999999998,0)"/>
      </g>
      <line x1="33" y1="690" x2="55" y2="690" class="type-structure-required"/>
      <text font-size="11" fill="black" x="53" y="688" text-anchor="end"/>
      <line x1="33" y1="642" x2="33" y2="690" class="type-structure-required"/>
      <g transform="translate(55,720)">
         <rect width="255.03125" height="18" class="element-upper"/>
         <rect width="255.03125" height="18" y="18" class="element-lower"/>
         <text font-size="12" x="3.6" y="12" font-weight="bold">kind</text>
         <line x1="0" y1="18" x2="255.03125" y2="18"/>
         <text font-size="12" fill="grey" x="3.6" y="30">type</text>
         <line x1="31.753125" y1="18" x2="31.753125" y2="36"/>
         <text font-size="12" x="35.353125" y="30">xmeld:type.Kirche.Familienangehoerige</text>
         <g transform="translate(255.03125,0)"/>
      </g>
      <line x1="33" y1="738" x2="55" y2="738" class="type-structure-optional"/>
      <text font-size="11" fill="black" x="53" y="736" text-anchor="end">0..*</text>
      <line x1="33" y1="690" x2="33" y2="738" class="type-structure-required"/>
      <g transform="translate(55,768)">
         <rect width="255.03125" height="18" class="element-upper"/>
         <rect width="255.03125" height="18" y="18" class="element-lower"/>
         <text font-size="12" x="3.6" y="12" font-weight="bold">partner</text>
         <line x1="0" y1="18" x2="255.03125" y2="18"/>
         <text font-size="12" fill="grey" x="3.6" y="30">type</text>
         <line x1="31.753125" y1="18" x2="31.753125" y2="36"/>
         <text font-size="12" x="35.353125" y="30">xmeld:type.Kirche.Familienangehoerige</text>
         <g transform="translate(255.03125,0)"/>
      </g>
      <line x1="33" y1="786" x2="55" y2="786" class="type-structure-optional"/>
      <text font-size="11" fill="black" x="53" y="784" text-anchor="end">0..1</text>
      <line x1="33" y1="738" x2="33" y2="786" class="type-structure-required"/>
      <g transform="translate(55,816)">
         <rect width="255.03125" height="18" class="element-upper"/>
         <rect width="255.03125" height="18" y="18" class="element-lower"/>
         <text font-size="12" x="3.6" y="12" font-weight="bold">elternteil</text>
         <line x1="0" y1="18" x2="255.03125" y2="18"/>
         <text font-size="12" fill="grey" x="3.6" y="30">type</text>
         <line x1="31.753125" y1="18" x2="31.753125" y2="36"/>
         <text font-size="12" x="35.353125" y="30">xmeld:type.Kirche.Familienangehoerige</text>
         <g transform="translate(255.03125,0)"/>
      </g>
      <line x1="33" y1="834" x2="55" y2="834" class="type-structure-optional"/>
      <text font-size="11" fill="black" x="53" y="832" text-anchor="end">0..2</text>
      <line x1="33" y1="786" x2="33" y2="834" class="type-structure-required"/>
      <g transform="translate(55,864)">
         <rect width="147.734375" height="18" class="element-upper"/>
         <rect width="147.734375" height="18" y="18" class="element-lower"/>
         <text font-size="12" x="3.6" y="12" font-weight="bold">ordnungsmerkmal</text>
         <line x1="0" y1="18" x2="147.734375" y2="18"/>
         <text font-size="12" fill="grey" x="3.6" y="30">type</text>
         <line x1="31.753125" y1="18" x2="31.753125" y2="36"/>
         <text font-size="12" x="35.353125" y="30">din91379:datatypeC</text>
         <g transform="translate(147.734375,0)"/>
      </g>
      <line x1="33" y1="882" x2="55" y2="882" class="type-structure-required"/>
      <text font-size="11" fill="black" x="53" y="880" text-anchor="end"/>
      <line x1="33" y1="834" x2="33" y2="882" class="type-structure-required"/>
      <g transform="translate(55,912)">
         <rect width="309.671875" height="18" class="element-upper"/>
         <rect width="309.671875" height="18" y="18" class="element-lower"/>
         <text font-size="12" x="3.6" y="12" font-weight="bold">datenNachLandesrecht</text>
         <line x1="0" y1="18" x2="309.671875" y2="18"/>
         <text font-size="12" fill="grey" x="3.6" y="30">type</text>
         <line x1="31.753125" y1="18" x2="31.753125" y2="36"/>
         <text font-size="12" x="35.353125" y="30">xmeld:type.Kirche.DatenNachLandesrechtMitglied</text>
         <g transform="translate(309.671875,0)"/>
      </g>
      <line x1="33" y1="930" x2="55" y2="930" class="type-structure-optional"/>
      <text font-size="11" fill="black" x="53" y="928" text-anchor="end">0..1</text>
      <line x1="33" y1="882" x2="33" y2="930" class="type-structure-optional"/>
      <g transform="translate(55,960)">
         <rect width="220.671875" height="18" class="element-upper"/>
         <rect width="220.671875" height="18" y="18" class="element-lower"/>
         <text font-size="12" x="3.6" y="12" font-weight="bold">letzteFruehereAnschrift</text>
         <line x1="0" y1="18" x2="220.671875" y2="18"/>
         <text font-size="12" fill="grey" x="3.6" y="30">type</text>
         <line x1="31.753125" y1="18" x2="31.753125" y2="36"/>
         <text font-size="12" x="35.353125" y="30">xmeld:type.Kirche.Anschrift.Inland</text>
         <g transform="translate(220.671875,0)"/>
      </g>
      <line x1="33" y1="978" x2="55" y2="978" class="type-structure-optional"/>
      <text font-size="11" fill="black" x="53" y="976" text-anchor="end">0..1</text>
      <line x1="33" y1="930" x2="33" y2="978" class="type-structure-optional"/>
      <g transform="translate(55,1008)">
         <rect width="349.6875" height="18" class="element-upper"/>
         <rect width="349.6875" height="18" y="18" class="element-lower"/>
         <text font-size="12" x="3.6" y="12" font-weight="bold">agsDerWegfallendenNebenwohnung</text>
         <line x1="0" y1="18" x2="349.6875" y2="18"/>
         <text font-size="12" fill="grey" x="3.6" y="30">type</text>
         <line x1="31.753125" y1="18" x2="31.753125" y2="36"/>
         <text font-size="12" x="35.353125" y="30">xicgvz:Code.GemeindeVZ.AmtlicherGemeindeschluessel</text>
         <g transform="translate(349.6875,0)"/>
      </g>
      <line x1="33" y1="1026" x2="55" y2="1026" class="type-structure-optional"/>
      <text font-size="11" fill="black" x="53" y="1024" text-anchor="end">0..*</text>
      <line x1="33" y1="978" x2="33" y2="1026" class="type-structure-optional"/>
      <circle cx="15" cy="18" r="10" stroke="black" fill="rgb(251, 251, 251)"/>
      <line x1="0" y1="18" x2="5" y2="18" class="type-structure-required"/>
      <line x1="25" y1="18" x2="33" y2="18" class="type-structure-required"/>
      <circle cx="10" cy="18" r="1.2" stroke="black" fill="black"/>
      <circle cx="15" cy="18" r="1.2" stroke="black" fill="black"/>
      <circle cx="20" cy="18" r="1.2" stroke="black" fill="black"/>
      <line x1="7" y1="18" x2="23" y2="18"/>
   </g>
</svg>