<?xml version="1.0" encoding="UTF-8"?><svg xmlns="http://www.w3.org/2000/svg" width="465.703125" height="622">
   <defs>
      <style type="text/css">
                        text {
                            font-family: 'Arial';
                            fill: black;
                        }
                        text.at {
                            font-family: 'Arial';
                            fill: rgb(242, 152, 0);
                        }
                        line {
                            stroke: black;
                        }
                        line.type-structure {
                            stroke: black;
                        }
                        line.type-structure-optional {
                            stroke: black;
                            stroke-dasharray: 4, 4;
                        }
                        rect.attribute-upper {
                            stroke: black;
                            fill: rgb(255, 239, 211);
                        }
                        rect.element-upper {
                            stroke: black;
                            fill: rgb(215, 227, 249);
                        }
                        rect.element-lower {
                            stroke: black;
                            fill: rgb(236, 242, 252);
                        }
                        a text {
                            fill: black;
                        } 
                    </style>
   </defs>
   <rect width="455.703125" height="612" stroke-dasharray="3,3" rx="1" ry="1" style="stroke: grey;fill: white;"/>
   <text font-size="14" x="3.6" y="18" font-weight="bold">complexType type.FreieSuche.Auswahldaten</text>
   <g transform="translate(10,34)">
      <g transform="translate(55,0)">
         <rect width="280.03125" height="18" class="element-upper"/>
         <rect width="280.03125" height="18" y="18" class="element-lower"/>
         <text font-size="12" x="3.6" y="12" font-weight="bold">name</text>
         <line x1="0" y1="18" x2="280.03125" y2="18"/>
         <text font-size="12" fill="grey" x="3.6" y="30">type</text>
         <line x1="31.753125" y1="18" x2="31.753125" y2="36"/>
         <text font-size="12" x="35.353125" y="30">xmeld:type.FreieSuche.Auswahldaten.Name</text>
         <g transform="translate(280.03125,0)"/>
      </g>
      <line x1="33" y1="18" x2="55" y2="18" class="type-structure-optional"/>
      <text font-size="11" fill="black" x="53" y="16" text-anchor="end">0..1</text>
      <line x1="33" y1="18" x2="33" y2="18" class="type-structure-optional"/>
      <g transform="translate(55,48)">
         <rect width="147.734375" height="18" class="element-upper"/>
         <rect width="147.734375" height="18" y="18" class="element-lower"/>
         <text font-size="12" x="3.6" y="12" font-weight="bold">doktorgrad</text>
         <line x1="0" y1="18" x2="147.734375" y2="18"/>
         <text font-size="12" fill="grey" x="3.6" y="30">type</text>
         <line x1="31.753125" y1="18" x2="31.753125" y2="36"/>
         <text font-size="12" x="35.353125" y="30">din91379:datatypeC</text>
         <g transform="translate(147.734375,0)"/>
      </g>
      <line x1="33" y1="66" x2="55" y2="66" class="type-structure-optional"/>
      <text font-size="11" fill="black" x="53" y="64" text-anchor="end">0..1</text>
      <line x1="33" y1="18" x2="33" y2="66" class="type-structure-optional"/>
      <g transform="translate(55,96)">
         <rect width="298.734375" height="18" class="element-upper"/>
         <rect width="298.734375" height="18" y="18" class="element-lower"/>
         <text font-size="12" x="3.6" y="12" font-weight="bold">wohnung</text>
         <line x1="0" y1="18" x2="298.734375" y2="18"/>
         <text font-size="12" fill="grey" x="3.6" y="30">type</text>
         <line x1="31.753125" y1="18" x2="31.753125" y2="36"/>
         <text font-size="12" x="35.353125" y="30">xmeld:type.FreieSuche.Auswahldaten.Wohnung</text>
         <g transform="translate(298.734375,0)"/>
      </g>
      <line x1="33" y1="114" x2="55" y2="114" class="type-structure-optional"/>
      <text font-size="11" fill="black" x="53" y="112" text-anchor="end">0..1</text>
      <line x1="33" y1="66" x2="33" y2="114" class="type-structure-optional"/>
      <g transform="translate(55,144)">
         <rect width="284.109375" height="18" class="element-upper"/>
         <rect width="284.109375" height="18" y="18" class="element-lower"/>
         <text font-size="12" x="3.6" y="12" font-weight="bold">geburtsdaten</text>
         <line x1="0" y1="18" x2="284.109375" y2="18"/>
         <text font-size="12" fill="grey" x="3.6" y="30">type</text>
         <line x1="31.753125" y1="18" x2="31.753125" y2="36"/>
         <text font-size="12" x="35.353125" y="30">xmeld:type.FreieSuche.Auswahldaten.Geburt</text>
         <g transform="translate(284.109375,0)"/>
      </g>
      <line x1="33" y1="162" x2="55" y2="162" class="type-structure-optional"/>
      <text font-size="11" fill="black" x="53" y="160" text-anchor="end">0..1</text>
      <line x1="33" y1="114" x2="33" y2="162" class="type-structure-optional"/>
      <g transform="translate(55,192)">
         <rect width="152.109375" height="18" class="element-upper"/>
         <rect width="152.109375" height="18" y="18" class="element-lower"/>
         <text font-size="12" x="3.6" y="12" font-weight="bold">geschlecht</text>
         <line x1="0" y1="18" x2="152.109375" y2="18"/>
         <text font-size="12" fill="grey" x="3.6" y="30">type</text>
         <line x1="31.753125" y1="18" x2="31.753125" y2="36"/>
         <text font-size="12" x="35.353125" y="30">xig:Code.Geschlecht</text>
         <g transform="translate(152.109375,0)"/>
      </g>
      <line x1="33" y1="210" x2="55" y2="210" class="type-structure-optional"/>
      <text font-size="11" fill="black" x="53" y="208" text-anchor="end">0..1</text>
      <line x1="33" y1="162" x2="33" y2="210" class="type-structure-optional"/>
      <g transform="translate(55,240)">
         <rect width="225.109375" height="18" class="element-upper"/>
         <rect width="225.109375" height="18" y="18" class="element-lower"/>
         <text font-size="12" x="3.6" y="12" font-weight="bold">staatsangehoerigkeit</text>
         <line x1="0" y1="18" x2="225.109375" y2="18"/>
         <text font-size="12" fill="grey" x="3.6" y="30">type</text>
         <line x1="31.753125" y1="18" x2="31.753125" y2="36"/>
         <text font-size="12" x="35.353125" y="30">xmeld:Code.Staatsangehoerigkeit</text>
         <g transform="translate(225.109375,0)"/>
      </g>
      <line x1="33" y1="258" x2="55" y2="258" class="type-structure-optional"/>
      <text font-size="11" fill="black" x="53" y="256" text-anchor="end">0..1</text>
      <line x1="33" y1="210" x2="33" y2="258" class="type-structure-optional"/>
      <g transform="translate(55,288)">
         <rect width="384.703125" height="18" class="element-upper"/>
         <rect width="384.703125" height="18" y="18" class="element-lower"/>
         <text font-size="12" x="3.6" y="12" font-weight="bold">familienstand</text>
         <line x1="0" y1="18" x2="384.703125" y2="18"/>
         <text font-size="12" fill="grey" x="3.6" y="30">type</text>
         <line x1="31.753125" y1="18" x2="31.753125" y2="36"/>
         <text font-size="12" x="35.353125" y="30">xmeld:type.FamilienstandNurBegruendungOhnePflichtangaben</text>
         <g transform="translate(384.703125,0)"/>
      </g>
      <line x1="33" y1="306" x2="55" y2="306" class="type-structure-optional"/>
      <text font-size="11" fill="black" x="53" y="304" text-anchor="end">0..1</text>
      <line x1="33" y1="258" x2="33" y2="306" class="type-structure-optional"/>
      <g transform="translate(55,336)">
         <rect width="266.671875" height="18" class="element-upper"/>
         <rect width="266.671875" height="18" y="18" class="element-lower"/>
         <text font-size="12" x="3.6" y="12" font-weight="bold">sterbedaten</text>
         <line x1="0" y1="18" x2="266.671875" y2="18"/>
         <text font-size="12" fill="grey" x="3.6" y="30">type</text>
         <line x1="31.753125" y1="18" x2="31.753125" y2="36"/>
         <text font-size="12" x="35.353125" y="30">xmeld:type.FreieSuche.Auswahldaten.Tod</text>
         <g transform="translate(266.671875,0)"/>
      </g>
      <line x1="33" y1="354" x2="55" y2="354" class="type-structure-optional"/>
      <text font-size="11" fill="black" x="53" y="352" text-anchor="end">0..1</text>
      <line x1="33" y1="306" x2="33" y2="354" class="type-structure-optional"/>
      <g transform="translate(55,384)">
         <rect width="198.015625" height="18" class="element-upper"/>
         <rect width="198.015625" height="18" y="18" class="element-lower"/>
         <text font-size="12" x="3.6" y="12" font-weight="bold">optionsdeutscher</text>
         <line x1="0" y1="18" x2="198.015625" y2="18"/>
         <text font-size="12" fill="grey" x="3.6" y="30">type</text>
         <line x1="31.753125" y1="18" x2="31.753125" y2="36"/>
         <text font-size="12" x="35.353125" y="30">xmeld:type.Optionsdeutscher</text>
         <g transform="translate(198.015625,0)"/>
      </g>
      <line x1="33" y1="402" x2="55" y2="402" class="type-structure-optional"/>
      <text font-size="11" fill="black" x="53" y="400" text-anchor="end">0..1</text>
      <line x1="33" y1="354" x2="33" y2="402" class="type-structure-optional"/>
      <g transform="translate(55,432)">
         <rect width="158.84687499999998" height="18" class="element-upper"/>
         <rect width="158.84687499999998" height="18" y="18" class="element-lower"/>
         <text font-size="12" x="3.6" y="12" font-weight="bold">waffenrechtlicheErlaubnis</text>
         <line x1="0" y1="18" x2="158.84687499999998" y2="18"/>
         <text font-size="12" fill="grey" x="3.6" y="30">type</text>
         <line x1="31.753125" y1="18" x2="31.753125" y2="36"/>
         <text font-size="12" x="35.353125" y="30">xs:boolean</text>
         <g transform="translate(158.84687499999998,0)"/>
      </g>
      <line x1="33" y1="450" x2="55" y2="450" class="type-structure-optional"/>
      <text font-size="11" fill="black" x="53" y="448" text-anchor="end">0..1</text>
      <line x1="33" y1="402" x2="33" y2="450" class="type-structure-optional"/>
      <g transform="translate(55,480)">
         <rect width="119.596875" height="18" class="element-upper"/>
         <rect width="119.596875" height="18" y="18" class="element-lower"/>
         <text font-size="12" x="3.6" y="12" font-weight="bold">waffenbesitzverbot</text>
         <line x1="0" y1="18" x2="119.596875" y2="18"/>
         <text font-size="12" fill="grey" x="3.6" y="30">type</text>
         <line x1="31.753125" y1="18" x2="31.753125" y2="36"/>
         <text font-size="12" x="35.353125" y="30">xs:boolean</text>
         <g transform="translate(119.596875,0)"/>
      </g>
      <line x1="33" y1="498" x2="55" y2="498" class="type-structure-optional"/>
      <text font-size="11" fill="black" x="53" y="496" text-anchor="end">0..1</text>
      <line x1="33" y1="450" x2="33" y2="498" class="type-structure-optional"/>
      <g transform="translate(55,528)">
         <rect width="185.61249999999998" height="18" class="element-upper"/>
         <rect width="185.61249999999998" height="18" y="18" class="element-lower"/>
         <text font-size="12" x="3.6" y="12" font-weight="bold">sprengstoffrechtlicheErlaubnis</text>
         <line x1="0" y1="18" x2="185.61249999999998" y2="18"/>
         <text font-size="12" fill="grey" x="3.6" y="30">type</text>
         <line x1="31.753125" y1="18" x2="31.753125" y2="36"/>
         <text font-size="12" x="35.353125" y="30">xs:boolean</text>
         <g transform="translate(185.61249999999998,0)"/>
      </g>
      <line x1="33" y1="546" x2="55" y2="546" class="type-structure-optional"/>
      <text font-size="11" fill="black" x="53" y="544" text-anchor="end">0..1</text>
      <line x1="33" y1="498" x2="33" y2="546" class="type-structure-optional"/>
      <circle cx="15" cy="18" r="10" stroke="black" fill="rgb(251, 251, 251)"/>
      <line x1="0" y1="18" x2="5" y2="18" class="type-structure-optional"/>
      <line x1="25" y1="18" x2="33" y2="18" class="type-structure-optional"/>
      <circle cx="10" cy="18" r="1.2" stroke="black" fill="black"/>
      <circle cx="15" cy="18" r="1.2" stroke="black" fill="black"/>
      <circle cx="20" cy="18" r="1.2" stroke="black" fill="black"/>
      <line x1="7" y1="18" x2="23" y2="18"/>
   </g>
</svg>